<svg xmlns="http://www.w3.org/2000/svg" xmlns:xlink="http://www.w3.org/1999/xlink" width="1080" zoomAndPan="magnify" viewBox="0 0 810 809.999993" height="1080" preserveAspectRatio="xMidYMid meet" version="1.0"><defs><g/></defs><g fill="#4e6470" fill-opacity="1"><g transform="translate(5.599604, 233.427596)"><g><path d="M 8.265625 -113.65625 L 49.734375 -113.65625 C 61.304688 -113.65625 70.671875 -110.671875 77.828125 -104.703125 C 84.992188 -98.734375 88.578125 -90.050781 88.578125 -78.65625 C 88.578125 -67.269531 84.945312 -58.335938 77.6875 -51.859375 C 70.4375 -45.390625 61.117188 -42.15625 49.734375 -42.15625 L 34.171875 -42.15625 L 34.171875 0 L 8.265625 0 Z M 34.171875 -62.828125 L 41.46875 -62.828125 C 47.25 -62.828125 52 -63.992188 55.71875 -66.328125 C 59.445312 -68.671875 61.3125 -72.507812 61.3125 -77.84375 C 61.3125 -83.257812 59.445312 -87.132812 55.71875 -89.46875 C 52 -91.8125 47.25 -92.984375 41.46875 -92.984375 L 34.171875 -92.984375 Z M 34.171875 -62.828125 "/></g></g></g><g fill="#4e6470" fill-opacity="1"><g transform="translate(97.341297, 233.427596)"><g><path d="M 8.265625 -113.65625 L 48.90625 -113.65625 C 59.832031 -113.65625 68.738281 -110.738281 75.625 -104.90625 C 82.519531 -99.070312 85.96875 -90.738281 85.96875 -79.90625 C 85.96875 -71.550781 83.875 -64.546875 79.6875 -58.890625 C 75.507812 -53.242188 69.84375 -49.273438 62.6875 -46.984375 L 101.8125 0 L 68.890625 0 L 34.171875 -44.90625 L 34.171875 0 L 8.265625 0 Z M 34.171875 -63.234375 L 37.203125 -63.234375 C 39.585938 -63.234375 41.601562 -63.28125 43.25 -63.375 C 44.90625 -63.46875 46.789062 -63.785156 48.90625 -64.328125 C 51.019531 -64.878906 52.71875 -65.660156 54 -66.671875 C 55.289062 -67.679688 56.394531 -69.148438 57.3125 -71.078125 C 58.226562 -73.015625 58.6875 -75.359375 58.6875 -78.109375 C 58.6875 -80.867188 58.226562 -83.210938 57.3125 -85.140625 C 56.394531 -87.066406 55.289062 -88.535156 54 -89.546875 C 52.71875 -90.554688 51.019531 -91.335938 48.90625 -91.890625 C 46.789062 -92.441406 44.90625 -92.757812 43.25 -92.84375 C 41.601562 -92.9375 39.585938 -92.984375 37.203125 -92.984375 L 34.171875 -92.984375 Z M 34.171875 -63.234375 "/></g></g></g><g fill="#4e6470" fill-opacity="1"><g transform="translate(195.970508, 233.427596)"><g><path d="M 3.171875 -56.890625 C 3.171875 -73.335938 8.769531 -87.253906 19.96875 -98.640625 C 31.175781 -110.023438 44.679688 -115.71875 60.484375 -115.71875 C 76.367188 -115.71875 89.867188 -110.046875 100.984375 -98.703125 C 112.097656 -87.359375 117.65625 -73.421875 117.65625 -56.890625 C 117.65625 -40.273438 112.1875 -26.296875 101.25 -14.953125 C 90.320312 -3.609375 76.734375 2.0625 60.484375 2.0625 C 43.859375 2.0625 30.148438 -3.5625 19.359375 -14.8125 C 8.566406 -26.0625 3.171875 -40.085938 3.171875 -56.890625 Z M 31.140625 -56.890625 C 31.140625 -50.921875 32.054688 -45.476562 33.890625 -40.5625 C 35.722656 -35.65625 38.9375 -31.5 43.53125 -28.09375 C 48.125 -24.695312 53.773438 -23 60.484375 -23 C 70.117188 -23 77.394531 -26.304688 82.3125 -32.921875 C 87.226562 -39.535156 89.6875 -47.523438 89.6875 -56.890625 C 89.6875 -66.171875 87.179688 -74.140625 82.171875 -80.796875 C 77.171875 -87.453125 69.941406 -90.78125 60.484375 -90.78125 C 51.109375 -90.78125 43.875 -87.453125 38.78125 -80.796875 C 33.6875 -74.140625 31.140625 -66.171875 31.140625 -56.890625 Z M 31.140625 -56.890625 "/></g></g></g><g fill="#4e6470" fill-opacity="1"><g transform="translate(316.7775, 233.427596)"><g><path d="M 102.21875 0 L 96.84375 -67.375 L 96.15625 -67.375 L 72.875 -0.6875 L 57.453125 -0.6875 L 34.171875 -67.375 L 33.484375 -67.375 L 28.109375 0 L 2.203125 0 L 12.40625 -113.65625 L 39.953125 -113.65625 L 65.15625 -48.078125 L 90.375 -113.65625 L 117.921875 -113.65625 L 128.125 0 Z M 102.21875 0 "/></g></g></g><g fill="#4e6470" fill-opacity="1"><g transform="translate(447.089287, 233.427596)"><g><path d="M 3.171875 -56.890625 C 3.171875 -73.335938 8.769531 -87.253906 19.96875 -98.640625 C 31.175781 -110.023438 44.679688 -115.71875 60.484375 -115.71875 C 76.367188 -115.71875 89.867188 -110.046875 100.984375 -98.703125 C 112.097656 -87.359375 117.65625 -73.421875 117.65625 -56.890625 C 117.65625 -40.273438 112.1875 -26.296875 101.25 -14.953125 C 90.320312 -3.609375 76.734375 2.0625 60.484375 2.0625 C 43.859375 2.0625 30.148438 -3.5625 19.359375 -14.8125 C 8.566406 -26.0625 3.171875 -40.085938 3.171875 -56.890625 Z M 31.140625 -56.890625 C 31.140625 -50.921875 32.054688 -45.476562 33.890625 -40.5625 C 35.722656 -35.65625 38.9375 -31.5 43.53125 -28.09375 C 48.125 -24.695312 53.773438 -23 60.484375 -23 C 70.117188 -23 77.394531 -26.304688 82.3125 -32.921875 C 87.226562 -39.535156 89.6875 -47.523438 89.6875 -56.890625 C 89.6875 -66.171875 87.179688 -74.140625 82.171875 -80.796875 C 77.171875 -87.453125 69.941406 -90.78125 60.484375 -90.78125 C 51.109375 -90.78125 43.875 -87.453125 38.78125 -80.796875 C 33.6875 -74.140625 31.140625 -66.171875 31.140625 -56.890625 Z M 31.140625 -56.890625 "/></g></g></g><g fill="#4e6470" fill-opacity="1"><g transform="translate(567.896279, 233.427596)"><g><path d="M 1.109375 -90.921875 L 1.109375 -113.65625 L 81 -113.65625 L 81 -90.921875 L 54 -90.921875 L 54 0 L 28.109375 0 L 28.109375 -90.921875 Z M 1.109375 -90.921875 "/></g></g></g><g fill="#4e6470" fill-opacity="1"><g transform="translate(649.995471, 233.427596)"><g><path d="M 73.296875 -113.65625 L 73.296875 -90.921875 L 34.171875 -90.921875 L 34.171875 -68.328125 L 71.640625 -68.328125 L 71.640625 -45.59375 L 34.171875 -45.59375 L 34.171875 -22.734375 L 73.296875 -22.734375 L 73.296875 0 L 8.265625 0 L 8.265625 -113.65625 Z M 73.296875 -113.65625 "/></g></g></g><g fill="#43727a" fill-opacity="1"><g transform="translate(5.599604, 350.61293)"><g><path d="M 24.890625 -1.046875 C 23.867188 -1.046875 23.039062 -1.84375 22.40625 -3.4375 L 7.828125 -40.53125 L 2.578125 -40.53125 C 1.816406 -40.53125 1.4375 -40.910156 1.4375 -41.671875 L 1.4375 -45.78125 C 1.4375 -46.539062 1.816406 -46.921875 2.578125 -46.921875 L 19.84375 -46.921875 C 20.664062 -46.921875 21.078125 -46.539062 21.078125 -45.78125 L 21.078125 -41.671875 C 21.078125 -40.910156 20.664062 -40.53125 19.84375 -40.53125 L 15.921875 -40.53125 L 28.234375 -8.203125 L 28.421875 -8.203125 L 39.859375 -40.53125 L 35.578125 -40.53125 C 34.816406 -40.53125 34.4375 -40.910156 34.4375 -41.671875 L 34.4375 -45.78125 C 34.4375 -46.539062 34.816406 -46.921875 35.578125 -46.921875 L 53.3125 -46.921875 C 54.070312 -46.921875 54.453125 -46.539062 54.453125 -45.78125 L 54.453125 -41.671875 C 54.453125 -40.910156 54.070312 -40.53125 53.3125 -40.53125 L 47.96875 -40.53125 L 31 6.109375 C 28.894531 11.765625 26.710938 15.878906 24.453125 18.453125 C 22.203125 21.023438 19.117188 22.3125 15.203125 22.3125 C 11.296875 22.3125 7.945312 21.070312 5.15625 18.59375 C 4.519531 17.957031 4.421875 17.382812 4.859375 16.875 L 7.25 13.828125 C 7.820312 13.378906 8.394531 13.347656 8.96875 13.734375 C 10.488281 14.941406 12.296875 15.546875 14.390625 15.546875 C 16.492188 15.546875 18.226562 14.828125 19.59375 13.390625 C 20.96875 11.960938 22.289062 9.503906 23.5625 6.015625 L 26.125 -1.046875 Z M 24.890625 -1.046875 "/></g></g></g><g fill="#43727a" fill-opacity="1"><g transform="translate(61.860258, 350.61293)"><g><path d="M 44.4375 -6 C 39.988281 -1.550781 34.300781 0.671875 27.375 0.671875 C 20.445312 0.671875 14.753906 -1.535156 10.296875 -5.953125 C 5.847656 -10.378906 3.625 -16.265625 3.625 -23.609375 C 3.625 -30.953125 5.878906 -36.785156 10.390625 -41.109375 C 14.910156 -45.429688 20.585938 -47.59375 27.421875 -47.59375 C 34.253906 -47.59375 39.910156 -45.414062 44.390625 -41.0625 C 48.878906 -36.707031 51.125 -30.890625 51.125 -23.609375 C 51.125 -16.328125 48.894531 -10.457031 44.4375 -6 Z M 11.640625 -23.546875 C 11.640625 -18.335938 13.164062 -14.113281 16.21875 -10.875 C 19.269531 -7.632812 23.003906 -6.015625 27.421875 -6.015625 C 31.835938 -6.015625 35.570312 -7.632812 38.625 -10.875 C 41.675781 -14.113281 43.203125 -18.335938 43.203125 -23.546875 C 43.203125 -28.765625 41.660156 -32.960938 38.578125 -36.140625 C 35.492188 -39.328125 31.789062 -40.921875 27.46875 -40.921875 C 23.144531 -40.921875 19.425781 -39.328125 16.3125 -36.140625 C 13.195312 -32.960938 11.640625 -28.765625 11.640625 -23.546875 Z M 11.640625 -23.546875 "/></g></g></g><g fill="#43727a" fill-opacity="1"><g transform="translate(116.690557, 350.61293)"><g><path d="M 53.125 0 L 44.828125 0 C 42.085938 0 40.71875 -1.332031 40.71875 -4 L 40.71875 -7.53125 L 40.4375 -7.53125 C 37.832031 -2.0625 32.875 0.671875 25.5625 0.671875 C 20.476562 0.671875 16.457031 -0.835938 13.5 -3.859375 C 10.539062 -6.878906 9.03125 -10.898438 8.96875 -15.921875 L 8.96875 -40.53125 L 3.53125 -40.53125 C 2.769531 -40.53125 2.390625 -40.910156 2.390625 -41.671875 L 2.390625 -45.78125 C 2.390625 -46.539062 2.769531 -46.921875 3.53125 -46.921875 L 12.6875 -46.921875 C 15.414062 -46.921875 16.78125 -45.585938 16.78125 -42.921875 L 16.78125 -17.828125 C 16.78125 -14.140625 17.671875 -11.28125 19.453125 -9.25 C 21.234375 -7.21875 23.84375 -6.203125 27.28125 -6.203125 C 31.914062 -6.203125 35.570312 -7.914062 38.25 -11.34375 C 39.394531 -12.8125 39.96875 -13.800781 39.96875 -14.3125 L 39.96875 -40.53125 L 34.8125 -40.53125 C 34.050781 -40.53125 33.671875 -40.910156 33.671875 -41.671875 L 33.671875 -45.78125 C 33.671875 -46.539062 34.050781 -46.921875 34.8125 -46.921875 L 46.640625 -46.921875 C 47.398438 -46.921875 47.78125 -46.539062 47.78125 -45.78125 L 47.78125 -6.390625 L 53.125 -6.390625 C 53.945312 -6.390625 54.359375 -6.007812 54.359375 -5.25 L 54.359375 -1.140625 C 54.359375 -0.378906 53.945312 0 53.125 0 Z M 53.125 0 "/></g></g></g><g fill="#43727a" fill-opacity="1"><g transform="translate(174.667641, 350.61293)"><g><path d="M 23.078125 0 L 4.859375 0 C 4.035156 0 3.625 -0.378906 3.625 -1.140625 L 3.625 -5.25 C 3.625 -6.007812 4.035156 -6.390625 4.859375 -6.390625 L 10.109375 -6.390625 L 10.109375 -40.53125 L 4.859375 -40.53125 C 4.035156 -40.53125 3.625 -40.910156 3.625 -41.671875 L 3.625 -45.78125 C 3.625 -46.539062 4.035156 -46.921875 4.859375 -46.921875 L 16.015625 -46.921875 C 16.847656 -46.921875 17.265625 -46.539062 17.265625 -45.78125 L 17.265625 -33.859375 L 17.546875 -33.859375 C 17.734375 -34.878906 18.398438 -36.273438 19.546875 -38.046875 C 20.691406 -39.828125 21.945312 -41.304688 23.3125 -42.484375 C 24.6875 -43.660156 26.660156 -44.722656 29.234375 -45.671875 C 31.804688 -46.628906 34.710938 -47.109375 37.953125 -47.109375 C 38.785156 -47.109375 39.203125 -46.695312 39.203125 -45.875 L 39.203125 -40.828125 C 39.203125 -39.992188 38.785156 -39.578125 37.953125 -39.578125 L 35.953125 -39.578125 C 30.484375 -39.578125 26.128906 -37.828125 22.890625 -34.328125 C 19.648438 -30.835938 18.03125 -26.863281 18.03125 -22.40625 L 18.03125 -6.390625 L 23.078125 -6.390625 C 23.910156 -6.390625 24.328125 -6.007812 24.328125 -5.25 L 24.328125 -1.140625 C 24.328125 -0.378906 23.910156 0 23.078125 0 Z M 23.078125 0 "/></g></g></g><g fill="#43727a" fill-opacity="1"><g transform="translate(214.812955, 350.61293)"><g/></g></g><g fill="#43727a" fill-opacity="1"><g transform="translate(244.659704, 350.61293)"><g><path d="M 16.21875 0 L 11.34375 0 C 10.582031 0 10.203125 -0.378906 10.203125 -1.140625 L 10.203125 -62.09375 L 4.859375 -62.09375 C 4.035156 -62.09375 3.625 -62.472656 3.625 -63.234375 L 3.625 -67.328125 C 3.625 -68.097656 4.035156 -68.484375 4.859375 -68.484375 L 16.59375 -68.484375 C 17.414062 -68.484375 17.828125 -68.097656 17.828125 -67.328125 L 17.828125 -41.96875 L 17.546875 -38.25 L 17.828125 -38.25 C 18.910156 -40.851562 20.785156 -43.0625 23.453125 -44.875 C 26.128906 -46.6875 29.4375 -47.59375 33.375 -47.59375 C 39.800781 -47.59375 44.96875 -45.378906 48.875 -40.953125 C 52.789062 -36.535156 54.75 -30.71875 54.75 -23.5 C 54.75 -16.289062 52.757812 -10.457031 48.78125 -6 C 44.8125 -1.550781 39.644531 0.671875 33.28125 0.671875 C 29.28125 0.671875 25.941406 -0.265625 23.265625 -2.140625 C 20.597656 -4.015625 18.691406 -6.289062 17.546875 -8.96875 L 17.453125 -8.96875 L 17.453125 -1.140625 C 17.453125 -0.378906 17.039062 0 16.21875 0 Z M 17.640625 -23.59375 C 17.640625 -18.289062 19.019531 -14.035156 21.78125 -10.828125 C 24.550781 -7.617188 28.066406 -6.015625 32.328125 -6.015625 C 36.585938 -6.015625 40.082031 -7.632812 42.8125 -10.875 C 45.550781 -14.113281 46.921875 -18.351562 46.921875 -23.59375 C 46.921875 -28.84375 45.519531 -33.039062 42.71875 -36.1875 C 39.925781 -39.34375 36.445312 -40.921875 32.28125 -40.921875 C 28.113281 -40.921875 24.628906 -39.359375 21.828125 -36.234375 C 19.035156 -33.117188 17.640625 -28.90625 17.640625 -23.59375 Z M 17.640625 -23.59375 "/></g></g></g><g fill="#43727a" fill-opacity="1"><g transform="translate(303.113568, 350.61293)"><g><path d="M 53.125 0 L 44.828125 0 C 42.085938 0 40.71875 -1.332031 40.71875 -4 L 40.71875 -7.53125 L 40.4375 -7.53125 C 37.832031 -2.0625 32.875 0.671875 25.5625 0.671875 C 20.476562 0.671875 16.457031 -0.835938 13.5 -3.859375 C 10.539062 -6.878906 9.03125 -10.898438 8.96875 -15.921875 L 8.96875 -40.53125 L 3.53125 -40.53125 C 2.769531 -40.53125 2.390625 -40.910156 2.390625 -41.671875 L 2.390625 -45.78125 C 2.390625 -46.539062 2.769531 -46.921875 3.53125 -46.921875 L 12.6875 -46.921875 C 15.414062 -46.921875 16.78125 -45.585938 16.78125 -42.921875 L 16.78125 -17.828125 C 16.78125 -14.140625 17.671875 -11.28125 19.453125 -9.25 C 21.234375 -7.21875 23.84375 -6.203125 27.28125 -6.203125 C 31.914062 -6.203125 35.570312 -7.914062 38.25 -11.34375 C 39.394531 -12.8125 39.96875 -13.800781 39.96875 -14.3125 L 39.96875 -40.53125 L 34.8125 -40.53125 C 34.050781 -40.53125 33.671875 -40.910156 33.671875 -41.671875 L 33.671875 -45.78125 C 33.671875 -46.539062 34.050781 -46.921875 34.8125 -46.921875 L 46.640625 -46.921875 C 47.398438 -46.921875 47.78125 -46.539062 47.78125 -45.78125 L 47.78125 -6.390625 L 53.125 -6.390625 C 53.945312 -6.390625 54.359375 -6.007812 54.359375 -5.25 L 54.359375 -1.140625 C 54.359375 -0.378906 53.945312 0 53.125 0 Z M 53.125 0 "/></g></g></g><g fill="#43727a" fill-opacity="1"><g transform="translate(361.090653, 350.61293)"><g><path d="M 24.796875 0.671875 C 20.535156 0.671875 17.132812 -0.117188 14.59375 -1.703125 C 12.050781 -3.296875 10.460938 -4.796875 9.828125 -6.203125 L 9.640625 -6.203125 C 9.765625 -3.085938 9.828125 -1.429688 9.828125 -1.234375 C 9.828125 -0.410156 9.378906 0 8.484375 0 L 5.25 0 C 4.414062 0 4 -0.410156 4 -1.234375 L 4 -15.546875 C 4 -16.367188 4.414062 -16.78125 5.25 -16.78125 L 8.96875 -16.78125 C 9.851562 -16.78125 10.296875 -16.367188 10.296875 -15.546875 L 10.296875 -13.640625 C 10.929688 -11.734375 12.269531 -9.984375 14.3125 -8.390625 C 16.726562 -6.484375 19.742188 -5.53125 23.359375 -5.53125 C 30.484375 -5.53125 34.046875 -8.007812 34.046875 -12.96875 C 34.046875 -14.6875 33.0625 -16.066406 31.09375 -17.109375 C 29.125 -18.160156 26.722656 -19.035156 23.890625 -19.734375 C 21.054688 -20.441406 18.238281 -21.238281 15.4375 -22.125 C 12.644531 -23.019531 10.265625 -24.46875 8.296875 -26.46875 C 6.328125 -28.46875 5.34375 -30.992188 5.34375 -34.046875 C 5.34375 -38.179688 6.835938 -41.472656 9.828125 -43.921875 C 12.816406 -46.367188 16.628906 -47.59375 21.265625 -47.59375 C 27.554688 -47.59375 32.070312 -45.75 34.8125 -42.0625 L 35 -42.0625 C 34.875 -44.351562 34.8125 -45.53125 34.8125 -45.59375 C 34.8125 -46.414062 35.222656 -46.828125 36.046875 -46.828125 L 39.109375 -46.828125 C 39.929688 -46.828125 40.34375 -46.414062 40.34375 -45.59375 L 40.34375 -32.328125 C 40.34375 -31.503906 39.929688 -31.09375 39.109375 -31.09375 L 35.390625 -31.09375 C 34.492188 -31.09375 34.046875 -31.503906 34.046875 -32.328125 L 34.046875 -33.671875 C 34.046875 -35.390625 33.046875 -37.085938 31.046875 -38.765625 C 29.046875 -40.453125 26.453125 -41.296875 23.265625 -41.296875 C 20.085938 -41.296875 17.609375 -40.628906 15.828125 -39.296875 C 14.046875 -37.960938 13.15625 -36.226562 13.15625 -34.09375 C 13.15625 -31.96875 14.15625 -30.316406 16.15625 -29.140625 C 18.164062 -27.960938 20.597656 -27.039062 23.453125 -26.375 C 26.316406 -25.707031 29.179688 -24.957031 32.046875 -24.125 C 34.910156 -23.300781 37.34375 -21.9375 39.34375 -20.03125 C 41.34375 -18.125 42.34375 -15.484375 42.34375 -12.109375 C 42.34375 -8.742188 40.894531 -5.769531 38 -3.1875 C 35.113281 -0.613281 30.710938 0.671875 24.796875 0.671875 Z M 24.796875 0.671875 "/></g></g></g><g fill="#43727a" fill-opacity="1"><g transform="translate(407.434151, 350.61293)"><g><path d="M 23.078125 0 L 4.859375 0 C 4.035156 0 3.625 -0.378906 3.625 -1.140625 L 3.625 -5.25 C 3.625 -6.007812 4.035156 -6.390625 4.859375 -6.390625 L 10.109375 -6.390625 L 10.109375 -40.53125 L 4.859375 -40.53125 C 4.035156 -40.53125 3.625 -40.910156 3.625 -41.671875 L 3.625 -45.78125 C 3.625 -46.539062 4.035156 -46.921875 4.859375 -46.921875 L 16.875 -46.921875 C 17.644531 -46.921875 18.03125 -46.539062 18.03125 -45.78125 L 18.03125 -6.390625 L 23.078125 -6.390625 C 23.910156 -6.390625 24.328125 -6.007812 24.328125 -5.25 L 24.328125 -1.140625 C 24.328125 -0.378906 23.910156 0 23.078125 0 Z M 17.6875 -61.03125 C 18.738281 -59.957031 19.265625 -58.6875 19.265625 -57.21875 C 19.265625 -55.757812 18.738281 -54.519531 17.6875 -53.5 C 16.644531 -52.488281 15.390625 -51.984375 13.921875 -51.984375 C 12.460938 -51.984375 11.207031 -52.488281 10.15625 -53.5 C 9.101562 -54.519531 8.578125 -55.757812 8.578125 -57.21875 C 8.578125 -58.6875 9.101562 -59.957031 10.15625 -61.03125 C 11.207031 -62.113281 12.460938 -62.65625 13.921875 -62.65625 C 15.390625 -62.65625 16.644531 -62.113281 17.6875 -61.03125 Z M 17.6875 -61.03125 "/></g></g></g><g fill="#43727a" fill-opacity="1"><g transform="translate(435.373765, 350.61293)"><g><path d="M 54.359375 0 L 45.296875 0 C 42.566406 0 41.203125 -1.332031 41.203125 -4 L 41.203125 -29.09375 C 41.203125 -32.78125 40.3125 -35.640625 38.53125 -37.671875 C 36.75 -39.703125 34.140625 -40.71875 30.703125 -40.71875 C 25.804688 -40.71875 21.992188 -38.71875 19.265625 -34.71875 C 18.941406 -34.332031 18.53125 -33.632812 18.03125 -32.625 L 18.03125 -6.390625 L 23.078125 -6.390625 C 23.910156 -6.390625 24.328125 -6.007812 24.328125 -5.25 L 24.328125 -1.140625 C 24.328125 -0.378906 23.910156 0 23.078125 0 L 4.859375 0 C 4.035156 0 3.625 -0.378906 3.625 -1.140625 L 3.625 -5.25 C 3.625 -6.007812 4.035156 -6.390625 4.859375 -6.390625 L 10.109375 -6.390625 L 10.109375 -40.53125 L 4.859375 -40.53125 C 4.035156 -40.53125 3.625 -40.910156 3.625 -41.671875 L 3.625 -45.78125 C 3.625 -46.539062 4.035156 -46.921875 4.859375 -46.921875 L 16.015625 -46.921875 C 16.847656 -46.921875 17.265625 -46.539062 17.265625 -45.78125 L 17.078125 -39.296875 L 17.359375 -39.296875 C 20.660156 -44.828125 25.78125 -47.59375 32.71875 -47.59375 C 37.800781 -47.59375 41.769531 -46.097656 44.625 -43.109375 C 47.488281 -40.117188 48.953125 -36.082031 49.015625 -31 L 49.015625 -6.390625 L 54.359375 -6.390625 C 55.191406 -6.390625 55.609375 -6.007812 55.609375 -5.25 L 55.609375 -1.140625 C 55.609375 -0.378906 55.191406 0 54.359375 0 Z M 54.359375 0 "/></g></g></g><g fill="#43727a" fill-opacity="1"><g transform="translate(494.590501, 350.61293)"><g><path d="M 46.0625 -22.515625 L 11.734375 -22.515625 C 11.984375 -17.234375 13.648438 -13.160156 16.734375 -10.296875 C 19.816406 -7.441406 23.296875 -6.015625 27.171875 -6.015625 C 31.054688 -6.015625 34.378906 -6.835938 37.140625 -8.484375 C 39.910156 -10.140625 41.773438 -11.765625 42.734375 -13.359375 C 43.234375 -13.992188 43.800781 -14.085938 44.4375 -13.640625 L 47.015625 -11.0625 C 47.398438 -10.675781 47.59375 -10.34375 47.59375 -10.0625 C 47.59375 -9.78125 47.445312 -9.414062 47.15625 -8.96875 C 46.875 -8.519531 46.285156 -7.816406 45.390625 -6.859375 C 44.503906 -5.910156 43.25 -4.832031 41.625 -3.625 C 40.007812 -2.414062 37.910156 -1.394531 35.328125 -0.5625 C 32.753906 0.257812 30.007812 0.671875 27.09375 0.671875 C 20.414062 0.671875 14.832031 -1.519531 10.34375 -5.90625 C 5.863281 -10.300781 3.625 -16.203125 3.625 -23.609375 C 3.625 -31.015625 5.847656 -36.863281 10.296875 -41.15625 C 14.753906 -45.445312 20.207031 -47.59375 26.65625 -47.59375 C 33.113281 -47.59375 38.1875 -45.507812 41.875 -41.34375 C 45.5625 -37.175781 47.40625 -31.566406 47.40625 -24.515625 C 47.40625 -24.253906 47.40625 -24 47.40625 -23.75 C 47.40625 -22.925781 46.957031 -22.515625 46.0625 -22.515625 Z M 39.484375 -28.328125 C 39.296875 -32.265625 38.054688 -35.410156 35.765625 -37.765625 C 33.472656 -40.117188 30.421875 -41.296875 26.609375 -41.296875 C 22.796875 -41.296875 19.519531 -40.210938 16.78125 -38.046875 C 14.050781 -35.890625 12.429688 -32.648438 11.921875 -28.328125 Z M 39.484375 -28.328125 "/></g></g></g><g fill="#43727a" fill-opacity="1"><g transform="translate(545.892605, 350.61293)"><g><path d="M 24.796875 0.671875 C 20.535156 0.671875 17.132812 -0.117188 14.59375 -1.703125 C 12.050781 -3.296875 10.460938 -4.796875 9.828125 -6.203125 L 9.640625 -6.203125 C 9.765625 -3.085938 9.828125 -1.429688 9.828125 -1.234375 C 9.828125 -0.410156 9.378906 0 8.484375 0 L 5.25 0 C 4.414062 0 4 -0.410156 4 -1.234375 L 4 -15.546875 C 4 -16.367188 4.414062 -16.78125 5.25 -16.78125 L 8.96875 -16.78125 C 9.851562 -16.78125 10.296875 -16.367188 10.296875 -15.546875 L 10.296875 -13.640625 C 10.929688 -11.734375 12.269531 -9.984375 14.3125 -8.390625 C 16.726562 -6.484375 19.742188 -5.53125 23.359375 -5.53125 C 30.484375 -5.53125 34.046875 -8.007812 34.046875 -12.96875 C 34.046875 -14.6875 33.0625 -16.066406 31.09375 -17.109375 C 29.125 -18.160156 26.722656 -19.035156 23.890625 -19.734375 C 21.054688 -20.441406 18.238281 -21.238281 15.4375 -22.125 C 12.644531 -23.019531 10.265625 -24.46875 8.296875 -26.46875 C 6.328125 -28.46875 5.34375 -30.992188 5.34375 -34.046875 C 5.34375 -38.179688 6.835938 -41.472656 9.828125 -43.921875 C 12.816406 -46.367188 16.628906 -47.59375 21.265625 -47.59375 C 27.554688 -47.59375 32.070312 -45.75 34.8125 -42.0625 L 35 -42.0625 C 34.875 -44.351562 34.8125 -45.53125 34.8125 -45.59375 C 34.8125 -46.414062 35.222656 -46.828125 36.046875 -46.828125 L 39.109375 -46.828125 C 39.929688 -46.828125 40.34375 -46.414062 40.34375 -45.59375 L 40.34375 -32.328125 C 40.34375 -31.503906 39.929688 -31.09375 39.109375 -31.09375 L 35.390625 -31.09375 C 34.492188 -31.09375 34.046875 -31.503906 34.046875 -32.328125 L 34.046875 -33.671875 C 34.046875 -35.390625 33.046875 -37.085938 31.046875 -38.765625 C 29.046875 -40.453125 26.453125 -41.296875 23.265625 -41.296875 C 20.085938 -41.296875 17.609375 -40.628906 15.828125 -39.296875 C 14.046875 -37.960938 13.15625 -36.226562 13.15625 -34.09375 C 13.15625 -31.96875 14.15625 -30.316406 16.15625 -29.140625 C 18.164062 -27.960938 20.597656 -27.039062 23.453125 -26.375 C 26.316406 -25.707031 29.179688 -24.957031 32.046875 -24.125 C 34.910156 -23.300781 37.34375 -21.9375 39.34375 -20.03125 C 41.34375 -18.125 42.34375 -15.484375 42.34375 -12.109375 C 42.34375 -8.742188 40.894531 -5.769531 38 -3.1875 C 35.113281 -0.613281 30.710938 0.671875 24.796875 0.671875 Z M 24.796875 0.671875 "/></g></g></g><g fill="#43727a" fill-opacity="1"><g transform="translate(592.236103, 350.61293)"><g><path d="M 24.796875 0.671875 C 20.535156 0.671875 17.132812 -0.117188 14.59375 -1.703125 C 12.050781 -3.296875 10.460938 -4.796875 9.828125 -6.203125 L 9.640625 -6.203125 C 9.765625 -3.085938 9.828125 -1.429688 9.828125 -1.234375 C 9.828125 -0.410156 9.378906 0 8.484375 0 L 5.25 0 C 4.414062 0 4 -0.410156 4 -1.234375 L 4 -15.546875 C 4 -16.367188 4.414062 -16.78125 5.25 -16.78125 L 8.96875 -16.78125 C 9.851562 -16.78125 10.296875 -16.367188 10.296875 -15.546875 L 10.296875 -13.640625 C 10.929688 -11.734375 12.269531 -9.984375 14.3125 -8.390625 C 16.726562 -6.484375 19.742188 -5.53125 23.359375 -5.53125 C 30.484375 -5.53125 34.046875 -8.007812 34.046875 -12.96875 C 34.046875 -14.6875 33.0625 -16.066406 31.09375 -17.109375 C 29.125 -18.160156 26.722656 -19.035156 23.890625 -19.734375 C 21.054688 -20.441406 18.238281 -21.238281 15.4375 -22.125 C 12.644531 -23.019531 10.265625 -24.46875 8.296875 -26.46875 C 6.328125 -28.46875 5.34375 -30.992188 5.34375 -34.046875 C 5.34375 -38.179688 6.835938 -41.472656 9.828125 -43.921875 C 12.816406 -46.367188 16.628906 -47.59375 21.265625 -47.59375 C 27.554688 -47.59375 32.070312 -45.75 34.8125 -42.0625 L 35 -42.0625 C 34.875 -44.351562 34.8125 -45.53125 34.8125 -45.59375 C 34.8125 -46.414062 35.222656 -46.828125 36.046875 -46.828125 L 39.109375 -46.828125 C 39.929688 -46.828125 40.34375 -46.414062 40.34375 -45.59375 L 40.34375 -32.328125 C 40.34375 -31.503906 39.929688 -31.09375 39.109375 -31.09375 L 35.390625 -31.09375 C 34.492188 -31.09375 34.046875 -31.503906 34.046875 -32.328125 L 34.046875 -33.671875 C 34.046875 -35.390625 33.046875 -37.085938 31.046875 -38.765625 C 29.046875 -40.453125 26.453125 -41.296875 23.265625 -41.296875 C 20.085938 -41.296875 17.609375 -40.628906 15.828125 -39.296875 C 14.046875 -37.960938 13.15625 -36.226562 13.15625 -34.09375 C 13.15625 -31.96875 14.15625 -30.316406 16.15625 -29.140625 C 18.164062 -27.960938 20.597656 -27.039062 23.453125 -26.375 C 26.316406 -25.707031 29.179688 -24.957031 32.046875 -24.125 C 34.910156 -23.300781 37.34375 -21.9375 39.34375 -20.03125 C 41.34375 -18.125 42.34375 -15.484375 42.34375 -12.109375 C 42.34375 -8.742188 40.894531 -5.769531 38 -3.1875 C 35.113281 -0.613281 30.710938 0.671875 24.796875 0.671875 Z M 24.796875 0.671875 "/></g></g></g><g fill="#000000" fill-opacity="1"><g transform="translate(5.599604, 487.782061)"><g><path d="M 24.984375 -22.640625 L 10.03125 -22.640625 L 10.03125 -17.015625 L 23.53125 -17.015625 L 23.53125 -11.359375 L 10.03125 -11.359375 L 10.03125 -5.65625 L 25.421875 -5.65625 L 25.421875 0 L 2.828125 0 L 2.828125 -28.296875 L 24.984375 -28.296875 Z M 24.984375 -22.640625 "/></g></g></g><g fill="#000000" fill-opacity="1"><g transform="translate(34.659883, 487.782061)"><g><path d="M 33.90625 0 L 27.5625 0 L 27.53125 -18.390625 L 20.734375 -2.828125 L 16.046875 -2.828125 L 9.25 -18.390625 L 9.25 0 L 2.828125 0 L 2.828125 -28.328125 L 10.71875 -28.328125 L 18.390625 -11.484375 L 26.078125 -28.328125 L 33.90625 -28.328125 Z M 33.90625 0 "/></g></g></g><g fill="#000000" fill-opacity="1"><g transform="translate(73.258712, 487.782061)"><g><path d="M 21.625 -5.21875 L 9.25 -5.21875 L 7.1875 0 L -0.203125 0 L 12 -28.296875 L 19.40625 -28.296875 L 31.328125 0 L 23.640625 0 Z M 19.53125 -10.671875 L 15.484375 -21.140625 L 11.359375 -10.671875 Z M 19.53125 -10.671875 "/></g></g></g><g fill="#000000" fill-opacity="1"><g transform="translate(106.199076, 487.782061)"><g><path d="M 10.03125 0 L 2.828125 0 L 2.828125 -28.296875 L 10.03125 -28.296875 Z M 10.03125 0 "/></g></g></g><g fill="#000000" fill-opacity="1"><g transform="translate(120.870673, 487.782061)"><g><path d="M 10.03125 -6.015625 L 22.03125 -6.015625 L 22.03125 0 L 2.828125 0 L 2.828125 -28.296875 L 10.03125 -28.296875 Z M 10.03125 -6.015625 "/></g></g></g><g fill="#000000" fill-opacity="1"><g transform="translate(5.599604, 537.088671)"><g><path d="M 9.328125 -16.296875 C 11.898438 -16.316406 13.835938 -15.503906 15.140625 -13.859375 C 16.441406 -12.210938 17.03125 -9.984375 16.90625 -7.171875 L 3.671875 -7.171875 C 3.867188 -5.585938 4.5 -4.328125 5.5625 -3.390625 C 6.632812 -2.460938 7.960938 -2 9.546875 -2 C 11.597656 -2 13.269531 -2.675781 14.5625 -4.03125 L 15.890625 -2.625 C 14.265625 -0.8125 12.085938 0.09375 9.359375 0.09375 C 6.984375 0.09375 5.046875 -0.664062 3.546875 -2.1875 C 2.046875 -3.707031 1.296875 -5.675781 1.296875 -8.09375 C 1.296875 -10.519531 2.046875 -12.492188 3.546875 -14.015625 C 5.046875 -15.535156 6.972656 -16.296875 9.328125 -16.296875 Z M 3.671875 -9.140625 L 14.75 -9.140625 C 14.664062 -10.703125 14.132812 -11.941406 13.15625 -12.859375 C 12.1875 -13.773438 10.910156 -14.234375 9.328125 -14.234375 C 7.785156 -14.234375 6.5 -13.769531 5.46875 -12.84375 C 4.445312 -11.914062 3.847656 -10.679688 3.671875 -9.140625 Z M 3.671875 -9.140625 "/></g></g></g><g fill="#000000" fill-opacity="1"><g transform="translate(26.63218, 537.088671)"><g><path d="M 23.71875 -16.328125 C 25.601562 -16.328125 27.078125 -15.765625 28.140625 -14.640625 C 29.210938 -13.523438 29.75 -11.984375 29.75 -10.015625 L 29.75 0 L 27.34375 0 L 27.34375 -9.359375 C 27.34375 -10.796875 26.941406 -11.921875 26.140625 -12.734375 C 25.347656 -13.546875 24.25 -13.953125 22.84375 -13.953125 C 21.1875 -13.910156 19.890625 -13.34375 18.953125 -12.25 C 18.015625 -11.164062 17.546875 -9.738281 17.546875 -7.96875 L 17.546875 0 L 15.125 0 L 15.125 -9.359375 C 15.125 -10.796875 14.726562 -11.921875 13.9375 -12.734375 C 13.144531 -13.546875 12.039062 -13.953125 10.625 -13.953125 C 8.976562 -13.910156 7.675781 -13.34375 6.71875 -12.25 C 5.769531 -11.164062 5.296875 -9.738281 5.296875 -7.96875 L 5.296875 0 L 2.921875 0 L 2.921875 -16.234375 L 5.296875 -16.234375 L 5.296875 -12.5625 C 6.347656 -15.03125 8.410156 -16.285156 11.484375 -16.328125 C 13.003906 -16.328125 14.265625 -15.957031 15.265625 -15.21875 C 16.273438 -14.476562 16.957031 -13.429688 17.3125 -12.078125 C 18.289062 -14.867188 20.425781 -16.285156 23.71875 -16.328125 Z M 23.71875 -16.328125 "/></g></g></g><g fill="#000000" fill-opacity="1"><g transform="translate(61.707001, 537.088671)"><g><path d="M 13 0 L 13 -2.5 C 11.707031 -0.75 9.722656 0.125 7.046875 0.125 C 5.410156 0.125 4.082031 -0.335938 3.0625 -1.265625 C 2.050781 -2.203125 1.546875 -3.390625 1.546875 -4.828125 C 1.546875 -6.242188 2.078125 -7.367188 3.140625 -8.203125 C 4.210938 -9.035156 5.703125 -9.460938 7.609375 -9.484375 L 12.9375 -9.484375 L 12.9375 -10.4375 C 12.9375 -11.644531 12.566406 -12.578125 11.828125 -13.234375 C 11.085938 -13.898438 10.007812 -14.234375 8.59375 -14.234375 C 6.945312 -14.234375 5.234375 -13.613281 3.453125 -12.375 L 2.4375 -14.140625 C 3.582031 -14.898438 4.640625 -15.453125 5.609375 -15.796875 C 6.585938 -16.148438 7.734375 -16.328125 9.046875 -16.328125 C 11.046875 -16.328125 12.582031 -15.832031 13.65625 -14.84375 C 14.738281 -13.851562 15.289062 -12.476562 15.3125 -10.71875 L 15.34375 0 Z M 7.515625 -1.96875 C 8.890625 -1.96875 10.0625 -2.289062 11.03125 -2.9375 C 12.007812 -3.582031 12.65625 -4.472656 12.96875 -5.609375 L 12.96875 -7.546875 L 7.921875 -7.546875 C 5.160156 -7.546875 3.78125 -6.671875 3.78125 -4.921875 C 3.78125 -4.023438 4.117188 -3.304688 4.796875 -2.765625 C 5.484375 -2.234375 6.390625 -1.96875 7.515625 -1.96875 Z M 7.515625 -1.96875 "/></g></g></g><g fill="#000000" fill-opacity="1"><g transform="translate(82.400835, 537.088671)"><g><path d="M 2.96875 -22.0625 C 3.269531 -22.382812 3.644531 -22.546875 4.09375 -22.546875 C 4.550781 -22.546875 4.925781 -22.382812 5.21875 -22.0625 C 5.519531 -21.75 5.671875 -21.351562 5.671875 -20.875 C 5.671875 -20.40625 5.519531 -20.007812 5.21875 -19.6875 C 4.925781 -19.375 4.550781 -19.21875 4.09375 -19.21875 C 3.644531 -19.21875 3.269531 -19.375 2.96875 -19.6875 C 2.675781 -20.007812 2.53125 -20.40625 2.53125 -20.875 C 2.53125 -21.351562 2.675781 -21.75 2.96875 -22.0625 Z M 5.296875 0 L 2.921875 0 L 2.921875 -16.234375 L 5.296875 -16.234375 Z M 5.296875 0 "/></g></g></g><g fill="#000000" fill-opacity="1"><g transform="translate(93.548409, 537.088671)"><g><path d="M 5.484375 0 L 3.078125 0 L 3.078125 -22.84375 L 5.484375 -22.84375 Z M 5.484375 0 "/></g></g></g><g fill="#000000" fill-opacity="1"><g transform="translate(105.03471, 537.088671)"><g><path d="M 15.34375 -21.796875 C 19.320312 -21.796875 22.613281 -20.519531 25.21875 -17.96875 C 27.832031 -15.414062 29.140625 -12.175781 29.140625 -8.25 C 29.140625 -5.875 28.640625 -3.960938 27.640625 -2.515625 C 26.640625 -1.066406 25.34375 -0.34375 23.75 -0.34375 C 22.84375 -0.34375 22.085938 -0.582031 21.484375 -1.0625 C 20.878906 -1.539062 20.535156 -2.234375 20.453125 -3.140625 L 20.421875 -4.15625 C 19.804688 -3.09375 18.96875 -2.265625 17.90625 -1.671875 C 16.851562 -1.085938 15.675781 -0.796875 14.375 -0.796875 C 12.300781 -0.796875 10.550781 -1.492188 9.125 -2.890625 C 7.695312 -4.285156 6.984375 -6.070312 6.984375 -8.25 C 6.984375 -10.40625 7.65625 -12.207031 9 -13.65625 C 10.351562 -15.101562 12.078125 -15.828125 14.171875 -15.828125 C 15.546875 -15.828125 16.757812 -15.507812 17.8125 -14.875 C 18.875 -14.238281 19.578125 -13.53125 19.921875 -12.75 L 19.921875 -15.578125 L 22.203125 -15.578125 L 22.203125 -4.0625 C 22.203125 -3.40625 22.363281 -2.898438 22.6875 -2.546875 C 23.019531 -2.203125 23.441406 -2.03125 23.953125 -2.03125 C 24.898438 -2.03125 25.691406 -2.601562 26.328125 -3.75 C 26.960938 -4.90625 27.28125 -6.382812 27.28125 -8.1875 C 27.28125 -11.570312 26.175781 -14.367188 23.96875 -16.578125 C 21.769531 -18.785156 18.894531 -19.890625 15.34375 -19.890625 C 11.863281 -19.890625 8.953125 -18.765625 6.609375 -16.515625 C 4.273438 -14.273438 3.109375 -11.5 3.109375 -8.1875 C 3.109375 -4.945312 4.234375 -2.269531 6.484375 -0.15625 C 8.734375 1.957031 11.550781 3.015625 14.9375 3.015625 C 15.882812 3.015625 16.894531 2.863281 17.96875 2.5625 C 19.050781 2.269531 19.96875 1.859375 20.71875 1.328125 L 21.59375 3.046875 C 20.75 3.617188 19.695312 4.078125 18.4375 4.421875 C 17.1875 4.773438 16.019531 4.953125 14.9375 4.953125 C 11.007812 4.953125 7.742188 3.703125 5.140625 1.203125 C 2.535156 -1.285156 1.234375 -4.414062 1.234375 -8.1875 C 1.234375 -12.070312 2.582031 -15.3125 5.28125 -17.90625 C 7.976562 -20.5 11.332031 -21.796875 15.34375 -21.796875 Z M 14.5625 -13.515625 C 13.0625 -13.515625 11.832031 -13.019531 10.875 -12.03125 C 9.925781 -11.050781 9.453125 -9.832031 9.453125 -8.375 C 9.453125 -6.851562 9.929688 -5.582031 10.890625 -4.5625 C 11.859375 -3.550781 13.09375 -3.046875 14.59375 -3.046875 C 16.132812 -3.046875 17.382812 -3.546875 18.34375 -4.546875 C 19.3125 -5.554688 19.796875 -6.820312 19.796875 -8.34375 C 19.796875 -9.820312 19.304688 -11.050781 18.328125 -12.03125 C 17.359375 -13.019531 16.101562 -13.515625 14.5625 -13.515625 Z M 14.5625 -13.515625 "/></g></g></g><g fill="#000000" fill-opacity="1"><g transform="translate(138.323457, 537.088671)"><g><path d="M 11.796875 -16.328125 C 13.722656 -16.328125 15.226562 -15.765625 16.3125 -14.640625 C 17.40625 -13.523438 17.953125 -11.984375 17.953125 -10.015625 L 17.953125 0 L 15.546875 0 L 15.546875 -9.359375 C 15.546875 -10.796875 15.140625 -11.914062 14.328125 -12.71875 C 13.523438 -13.519531 12.40625 -13.921875 10.96875 -13.921875 C 9.257812 -13.898438 7.914062 -13.34375 6.9375 -12.25 C 5.96875 -11.164062 5.484375 -9.738281 5.484375 -7.96875 L 5.484375 0 L 3.078125 0 L 3.078125 -22.84375 L 5.484375 -22.84375 L 5.484375 -12.59375 C 6.546875 -15.039062 8.648438 -16.285156 11.796875 -16.328125 Z M 11.796875 -16.328125 "/></g></g></g><g fill="#000000" fill-opacity="1"><g transform="translate(161.634818, 537.088671)"><g><path d="M 9.328125 -16.296875 C 11.898438 -16.316406 13.835938 -15.503906 15.140625 -13.859375 C 16.441406 -12.210938 17.03125 -9.984375 16.90625 -7.171875 L 3.671875 -7.171875 C 3.867188 -5.585938 4.5 -4.328125 5.5625 -3.390625 C 6.632812 -2.460938 7.960938 -2 9.546875 -2 C 11.597656 -2 13.269531 -2.675781 14.5625 -4.03125 L 15.890625 -2.625 C 14.265625 -0.8125 12.085938 0.09375 9.359375 0.09375 C 6.984375 0.09375 5.046875 -0.664062 3.546875 -2.1875 C 2.046875 -3.707031 1.296875 -5.675781 1.296875 -8.09375 C 1.296875 -10.519531 2.046875 -12.492188 3.546875 -14.015625 C 5.046875 -15.535156 6.972656 -16.296875 9.328125 -16.296875 Z M 3.671875 -9.140625 L 14.75 -9.140625 C 14.664062 -10.703125 14.132812 -11.941406 13.15625 -12.859375 C 12.1875 -13.773438 10.910156 -14.234375 9.328125 -14.234375 C 7.785156 -14.234375 6.5 -13.769531 5.46875 -12.84375 C 4.445312 -11.914062 3.847656 -10.679688 3.671875 -9.140625 Z M 3.671875 -9.140625 "/></g></g></g><g fill="#000000" fill-opacity="1"><g transform="translate(182.667402, 537.088671)"><g><path d="M 5.328125 -16.234375 L 5.328125 -12.625 C 6.429688 -15.050781 8.367188 -16.285156 11.140625 -16.328125 L 11.140625 -13.890625 C 9.460938 -13.910156 8.109375 -13.441406 7.078125 -12.484375 C 6.054688 -11.535156 5.472656 -10.25 5.328125 -8.625 L 5.328125 0 L 2.921875 0 L 2.921875 -16.234375 Z M 5.328125 -16.234375 "/></g></g></g><g fill="#000000" fill-opacity="1"><g transform="translate(197.048375, 537.088671)"><g><path d="M 9.328125 -16.296875 C 11.898438 -16.316406 13.835938 -15.503906 15.140625 -13.859375 C 16.441406 -12.210938 17.03125 -9.984375 16.90625 -7.171875 L 3.671875 -7.171875 C 3.867188 -5.585938 4.5 -4.328125 5.5625 -3.390625 C 6.632812 -2.460938 7.960938 -2 9.546875 -2 C 11.597656 -2 13.269531 -2.675781 14.5625 -4.03125 L 15.890625 -2.625 C 14.265625 -0.8125 12.085938 0.09375 9.359375 0.09375 C 6.984375 0.09375 5.046875 -0.664062 3.546875 -2.1875 C 2.046875 -3.707031 1.296875 -5.675781 1.296875 -8.09375 C 1.296875 -10.519531 2.046875 -12.492188 3.546875 -14.015625 C 5.046875 -15.535156 6.972656 -16.296875 9.328125 -16.296875 Z M 3.671875 -9.140625 L 14.75 -9.140625 C 14.664062 -10.703125 14.132812 -11.941406 13.15625 -12.859375 C 12.1875 -13.773438 10.910156 -14.234375 9.328125 -14.234375 C 7.785156 -14.234375 6.5 -13.769531 5.46875 -12.84375 C 4.445312 -11.914062 3.847656 -10.679688 3.671875 -9.140625 Z M 3.671875 -9.140625 "/></g></g></g><g fill="#000000" fill-opacity="1"><g transform="translate(218.080943, 537.088671)"><g><path d="M 3.078125 -2.953125 C 3.492188 -2.953125 3.84375 -2.796875 4.125 -2.484375 C 4.414062 -2.179688 4.5625 -1.800781 4.5625 -1.34375 C 4.5625 -0.894531 4.414062 -0.515625 4.125 -0.203125 C 3.84375 0.0976562 3.492188 0.25 3.078125 0.25 C 2.648438 0.25 2.289062 0.0976562 2 -0.203125 C 1.71875 -0.515625 1.578125 -0.894531 1.578125 -1.34375 C 1.578125 -1.800781 1.71875 -2.179688 2 -2.484375 C 2.289062 -2.796875 2.648438 -2.953125 3.078125 -2.953125 Z M 3.078125 -2.953125 "/></g></g></g><g fill="#000000" fill-opacity="1"><g transform="translate(227.134484, 537.088671)"><g><path d="M 9.328125 -16.296875 C 11.941406 -16.316406 14.023438 -15.515625 15.578125 -13.890625 L 14.265625 -12.203125 C 12.941406 -13.453125 11.328125 -14.078125 9.421875 -14.078125 C 7.742188 -14.078125 6.363281 -13.519531 5.28125 -12.40625 C 4.207031 -11.300781 3.671875 -9.863281 3.671875 -8.09375 C 3.671875 -6.332031 4.207031 -4.890625 5.28125 -3.765625 C 6.363281 -2.648438 7.742188 -2.09375 9.421875 -2.09375 C 11.597656 -2.09375 13.269531 -2.789062 14.4375 -4.1875 L 15.828125 -2.703125 C 14.285156 -0.835938 12.117188 0.09375 9.328125 0.09375 C 6.972656 0.09375 5.046875 -0.664062 3.546875 -2.1875 C 2.046875 -3.707031 1.296875 -5.675781 1.296875 -8.09375 C 1.296875 -10.5 2.050781 -12.46875 3.5625 -14 C 5.070312 -15.53125 6.992188 -16.296875 9.328125 -16.296875 Z M 9.328125 -16.296875 "/></g></g></g><g fill="#000000" fill-opacity="1"><g transform="translate(247.335622, 537.088671)"><g><path d="M 3.59375 -14.015625 C 5.132812 -15.535156 7.109375 -16.296875 9.515625 -16.296875 C 11.921875 -16.296875 13.890625 -15.535156 15.421875 -14.015625 C 16.960938 -12.492188 17.734375 -10.53125 17.734375 -8.125 C 17.734375 -5.707031 16.960938 -3.734375 15.421875 -2.203125 C 13.890625 -0.671875 11.921875 0.09375 9.515625 0.09375 C 7.109375 0.09375 5.132812 -0.671875 3.59375 -2.203125 C 2.0625 -3.734375 1.296875 -5.707031 1.296875 -8.125 C 1.296875 -10.53125 2.0625 -12.492188 3.59375 -14.015625 Z M 13.703125 -12.421875 C 12.617188 -13.546875 11.222656 -14.109375 9.515625 -14.109375 C 7.804688 -14.109375 6.410156 -13.546875 5.328125 -12.421875 C 4.242188 -11.304688 3.703125 -9.863281 3.703125 -8.09375 C 3.703125 -6.3125 4.242188 -4.859375 5.328125 -3.734375 C 6.410156 -2.617188 7.804688 -2.0625 9.515625 -2.0625 C 11.222656 -2.0625 12.617188 -2.617188 13.703125 -3.734375 C 14.796875 -4.859375 15.34375 -6.3125 15.34375 -8.09375 C 15.34375 -9.863281 14.796875 -11.304688 13.703125 -12.421875 Z M 13.703125 -12.421875 "/></g></g></g><g fill="#000000" fill-opacity="1"><g transform="translate(269.292027, 537.088671)"><g><path d="M 23.71875 -16.328125 C 25.601562 -16.328125 27.078125 -15.765625 28.140625 -14.640625 C 29.210938 -13.523438 29.75 -11.984375 29.75 -10.015625 L 29.75 0 L 27.34375 0 L 27.34375 -9.359375 C 27.34375 -10.796875 26.941406 -11.921875 26.140625 -12.734375 C 25.347656 -13.546875 24.25 -13.953125 22.84375 -13.953125 C 21.1875 -13.910156 19.890625 -13.34375 18.953125 -12.25 C 18.015625 -11.164062 17.546875 -9.738281 17.546875 -7.96875 L 17.546875 0 L 15.125 0 L 15.125 -9.359375 C 15.125 -10.796875 14.726562 -11.921875 13.9375 -12.734375 C 13.144531 -13.546875 12.039062 -13.953125 10.625 -13.953125 C 8.976562 -13.910156 7.675781 -13.34375 6.71875 -12.25 C 5.769531 -11.164062 5.296875 -9.738281 5.296875 -7.96875 L 5.296875 0 L 2.921875 0 L 2.921875 -16.234375 L 5.296875 -16.234375 L 5.296875 -12.5625 C 6.347656 -15.03125 8.410156 -16.285156 11.484375 -16.328125 C 13.003906 -16.328125 14.265625 -15.957031 15.265625 -15.21875 C 16.273438 -14.476562 16.957031 -13.429688 17.3125 -12.078125 C 18.289062 -14.867188 20.425781 -16.285156 23.71875 -16.328125 Z M 23.71875 -16.328125 "/></g></g></g><g fill="#000000" fill-opacity="1"><g transform="translate(5.599604, 636.325037)"><g><path d="M 34.640625 0 L 27.25 0 L 21.984375 -19.5625 L 16.65625 0 L 9.21875 0 L -0.046875 -28.296875 L 7.640625 -28.296875 L 13.171875 -7.484375 L 18.59375 -28.296875 L 25.625 -28.296875 L 31.171875 -7.484375 L 36.625 -28.296875 L 43.984375 -28.296875 Z M 34.640625 0 "/></g></g></g><g fill="#000000" fill-opacity="1"><g transform="translate(51.109845, 636.325037)"><g><path d="M 24.984375 -22.640625 L 10.03125 -22.640625 L 10.03125 -17.015625 L 23.53125 -17.015625 L 23.53125 -11.359375 L 10.03125 -11.359375 L 10.03125 -5.65625 L 25.421875 -5.65625 L 25.421875 0 L 2.828125 0 L 2.828125 -28.296875 L 24.984375 -28.296875 Z M 24.984375 -22.640625 "/></g></g></g><g fill="#000000" fill-opacity="1"><g transform="translate(80.170124, 636.325037)"><g><path d="M 2.828125 -28.296875 L 16.203125 -28.296875 C 19.390625 -28.296875 21.914062 -27.65625 23.78125 -26.375 C 25.65625 -25.09375 26.59375 -23.375 26.59375 -21.21875 C 26.59375 -19.738281 26.160156 -18.4375 25.296875 -17.3125 C 24.441406 -16.195312 23.257812 -15.425781 21.75 -15 C 23.53125 -14.644531 24.941406 -13.820312 25.984375 -12.53125 C 27.035156 -11.238281 27.5625 -9.675781 27.5625 -7.84375 C 27.5625 -5.445312 26.582031 -3.539062 24.625 -2.125 C 22.675781 -0.707031 20.03125 0 16.6875 0 L 2.828125 0 Z M 9.984375 -22.796875 L 9.984375 -16.984375 L 15.8125 -16.984375 C 16.851562 -16.984375 17.679688 -17.242188 18.296875 -17.765625 C 18.921875 -18.285156 19.234375 -19.003906 19.234375 -19.921875 C 19.234375 -20.816406 18.921875 -21.519531 18.296875 -22.03125 C 17.679688 -22.539062 16.851562 -22.796875 15.8125 -22.796875 Z M 9.984375 -11.796875 L 9.984375 -5.53125 L 15.8125 -5.53125 C 17.15625 -5.53125 18.207031 -5.8125 18.96875 -6.375 C 19.738281 -6.945312 20.125 -7.734375 20.125 -8.734375 C 20.125 -9.671875 19.738281 -10.414062 18.96875 -10.96875 C 18.207031 -11.519531 17.15625 -11.796875 15.8125 -11.796875 Z M 9.984375 -11.796875 "/></g></g></g><g fill="#000000" fill-opacity="1"><g transform="translate(5.599604, 685.631623)"><g><path d="M 20.703125 0 L 18.203125 0 L 13.421875 -13.1875 L 8.6875 0 L 6.1875 0 L 0.125 -16.234375 L 2.65625 -16.234375 L 7.453125 -2.5 L 12.171875 -16.234375 L 14.6875 -16.234375 L 19.46875 -2.5 L 24.203125 -16.234375 L 26.703125 -16.234375 Z M 20.703125 0 "/></g></g></g><g fill="#000000" fill-opacity="1"><g transform="translate(35.131434, 685.631623)"><g><path d="M 9.328125 -16.296875 C 11.898438 -16.316406 13.835938 -15.503906 15.140625 -13.859375 C 16.441406 -12.210938 17.03125 -9.984375 16.90625 -7.171875 L 3.671875 -7.171875 C 3.867188 -5.585938 4.5 -4.328125 5.5625 -3.390625 C 6.632812 -2.460938 7.960938 -2 9.546875 -2 C 11.597656 -2 13.269531 -2.675781 14.5625 -4.03125 L 15.890625 -2.625 C 14.265625 -0.8125 12.085938 0.09375 9.359375 0.09375 C 6.984375 0.09375 5.046875 -0.664062 3.546875 -2.1875 C 2.046875 -3.707031 1.296875 -5.675781 1.296875 -8.09375 C 1.296875 -10.519531 2.046875 -12.492188 3.546875 -14.015625 C 5.046875 -15.535156 6.972656 -16.296875 9.328125 -16.296875 Z M 3.671875 -9.140625 L 14.75 -9.140625 C 14.664062 -10.703125 14.132812 -11.941406 13.15625 -12.859375 C 12.1875 -13.773438 10.910156 -14.234375 9.328125 -14.234375 C 7.785156 -14.234375 6.5 -13.769531 5.46875 -12.84375 C 4.445312 -11.914062 3.847656 -10.679688 3.671875 -9.140625 Z M 3.671875 -9.140625 "/></g></g></g><g fill="#000000" fill-opacity="1"><g transform="translate(56.16401, 685.631623)"><g><path d="M 11.734375 -16.328125 C 14.035156 -16.328125 15.910156 -15.554688 17.359375 -14.015625 C 18.804688 -12.472656 19.53125 -10.488281 19.53125 -8.0625 C 19.53125 -5.664062 18.816406 -3.707031 17.390625 -2.1875 C 15.960938 -0.664062 14.097656 0.09375 11.796875 0.09375 C 8.859375 0.09375 6.753906 -1.097656 5.484375 -3.484375 L 5.484375 0 L 3.078125 0 L 3.078125 -22.84375 L 5.484375 -22.84375 L 5.484375 -12.71875 C 6.753906 -15.125 8.835938 -16.328125 11.734375 -16.328125 Z M 11.296875 -2.09375 C 12.984375 -2.09375 14.367188 -2.65625 15.453125 -3.78125 C 16.546875 -4.914062 17.09375 -6.363281 17.09375 -8.125 C 17.09375 -9.875 16.546875 -11.316406 15.453125 -12.453125 C 14.367188 -13.597656 12.984375 -14.171875 11.296875 -14.171875 C 9.597656 -14.171875 8.203125 -13.601562 7.109375 -12.46875 C 6.023438 -11.34375 5.484375 -9.894531 5.484375 -8.125 C 5.484375 -6.363281 6.023438 -4.914062 7.109375 -3.78125 C 8.203125 -2.65625 9.597656 -2.09375 11.296875 -2.09375 Z M 11.296875 -2.09375 "/></g></g></g><g fill="#000000" fill-opacity="1"><g transform="translate(79.906497, 685.631623)"><g><path d="M 7.234375 -16.328125 C 9.242188 -16.328125 10.96875 -15.832031 12.40625 -14.84375 L 11.484375 -12.9375 C 10.085938 -13.820312 8.617188 -14.265625 7.078125 -14.265625 C 6.117188 -14.265625 5.34375 -14.082031 4.75 -13.71875 C 4.164062 -13.363281 3.875 -12.828125 3.875 -12.109375 C 3.875 -11.453125 4.1875 -10.921875 4.8125 -10.515625 C 5.445312 -10.117188 6.203125 -9.796875 7.078125 -9.546875 C 7.960938 -9.296875 8.847656 -9.007812 9.734375 -8.6875 C 10.617188 -8.375 11.375 -7.867188 12 -7.171875 C 12.625 -6.472656 12.9375 -5.59375 12.9375 -4.53125 C 12.9375 -3.007812 12.363281 -1.859375 11.21875 -1.078125 C 10.082031 -0.296875 8.671875 0.09375 6.984375 0.09375 C 4.421875 0.09375 2.347656 -0.664062 0.765625 -2.1875 L 1.6875 -4 C 2.363281 -3.363281 3.191406 -2.859375 4.171875 -2.484375 C 5.148438 -2.117188 6.117188 -1.9375 7.078125 -1.9375 C 8.085938 -1.9375 8.914062 -2.128906 9.5625 -2.515625 C 10.207031 -2.910156 10.539062 -3.488281 10.5625 -4.25 C 10.582031 -4.96875 10.285156 -5.539062 9.671875 -5.96875 C 9.054688 -6.40625 8.304688 -6.75 7.421875 -7 C 6.535156 -7.257812 5.648438 -7.535156 4.765625 -7.828125 C 3.890625 -8.128906 3.140625 -8.617188 2.515625 -9.296875 C 1.898438 -9.972656 1.59375 -10.847656 1.59375 -11.921875 C 1.59375 -13.378906 2.128906 -14.476562 3.203125 -15.21875 C 4.285156 -15.957031 5.628906 -16.328125 7.234375 -16.328125 Z M 7.234375 -16.328125 "/></g></g></g><g fill="#000000" fill-opacity="1"><g transform="translate(96.781829, 685.631623)"><g><path d="M 2.96875 -22.0625 C 3.269531 -22.382812 3.644531 -22.546875 4.09375 -22.546875 C 4.550781 -22.546875 4.925781 -22.382812 5.21875 -22.0625 C 5.519531 -21.75 5.671875 -21.351562 5.671875 -20.875 C 5.671875 -20.40625 5.519531 -20.007812 5.21875 -19.6875 C 4.925781 -19.375 4.550781 -19.21875 4.09375 -19.21875 C 3.644531 -19.21875 3.269531 -19.375 2.96875 -19.6875 C 2.675781 -20.007812 2.53125 -20.40625 2.53125 -20.875 C 2.53125 -21.351562 2.675781 -21.75 2.96875 -22.0625 Z M 5.296875 0 L 2.921875 0 L 2.921875 -16.234375 L 5.296875 -16.234375 Z M 5.296875 0 "/></g></g></g><g fill="#000000" fill-opacity="1"><g transform="translate(107.929403, 685.631623)"><g><path d="M 10.625 -3.046875 L 11.296875 -1.109375 C 10.128906 -0.304688 8.910156 0.101562 7.640625 0.125 C 6.390625 0.125 5.390625 -0.257812 4.640625 -1.03125 C 3.890625 -1.800781 3.515625 -2.957031 3.515625 -4.5 L 3.515625 -13.765625 L 1.171875 -13.765625 L 1.171875 -15.703125 L 3.515625 -15.703125 L 3.515625 -19.984375 L 5.875 -19.984375 L 5.875 -15.703125 L 11.03125 -15.734375 L 11.03125 -13.765625 L 5.875 -13.765625 L 5.875 -4.921875 C 5.875 -3.117188 6.59375 -2.21875 8.03125 -2.21875 C 8.875 -2.21875 9.738281 -2.492188 10.625 -3.046875 Z M 10.625 -3.046875 "/></g></g></g><g fill="#000000" fill-opacity="1"><g transform="translate(122.864686, 685.631623)"><g><path d="M 9.328125 -16.296875 C 11.898438 -16.316406 13.835938 -15.503906 15.140625 -13.859375 C 16.441406 -12.210938 17.03125 -9.984375 16.90625 -7.171875 L 3.671875 -7.171875 C 3.867188 -5.585938 4.5 -4.328125 5.5625 -3.390625 C 6.632812 -2.460938 7.960938 -2 9.546875 -2 C 11.597656 -2 13.269531 -2.675781 14.5625 -4.03125 L 15.890625 -2.625 C 14.265625 -0.8125 12.085938 0.09375 9.359375 0.09375 C 6.984375 0.09375 5.046875 -0.664062 3.546875 -2.1875 C 2.046875 -3.707031 1.296875 -5.675781 1.296875 -8.09375 C 1.296875 -10.519531 2.046875 -12.492188 3.546875 -14.015625 C 5.046875 -15.535156 6.972656 -16.296875 9.328125 -16.296875 Z M 3.671875 -9.140625 L 14.75 -9.140625 C 14.664062 -10.703125 14.132812 -11.941406 13.15625 -12.859375 C 12.1875 -13.773438 10.910156 -14.234375 9.328125 -14.234375 C 7.785156 -14.234375 6.5 -13.769531 5.46875 -12.84375 C 4.445312 -11.914062 3.847656 -10.679688 3.671875 -9.140625 Z M 3.671875 -9.140625 "/></g></g></g><g fill="#000000" fill-opacity="1"><g transform="translate(143.897269, 685.631623)"><g><path d="M 3.078125 -2.953125 C 3.492188 -2.953125 3.84375 -2.796875 4.125 -2.484375 C 4.414062 -2.179688 4.5625 -1.800781 4.5625 -1.34375 C 4.5625 -0.894531 4.414062 -0.515625 4.125 -0.203125 C 3.84375 0.0976562 3.492188 0.25 3.078125 0.25 C 2.648438 0.25 2.289062 0.0976562 2 -0.203125 C 1.71875 -0.515625 1.578125 -0.894531 1.578125 -1.34375 C 1.578125 -1.800781 1.71875 -2.179688 2 -2.484375 C 2.289062 -2.796875 2.648438 -2.953125 3.078125 -2.953125 Z M 3.078125 -2.953125 "/></g></g></g><g fill="#000000" fill-opacity="1"><g transform="translate(152.950811, 685.631623)"><g><path d="M 9.328125 -16.296875 C 11.941406 -16.316406 14.023438 -15.515625 15.578125 -13.890625 L 14.265625 -12.203125 C 12.941406 -13.453125 11.328125 -14.078125 9.421875 -14.078125 C 7.742188 -14.078125 6.363281 -13.519531 5.28125 -12.40625 C 4.207031 -11.300781 3.671875 -9.863281 3.671875 -8.09375 C 3.671875 -6.332031 4.207031 -4.890625 5.28125 -3.765625 C 6.363281 -2.648438 7.742188 -2.09375 9.421875 -2.09375 C 11.597656 -2.09375 13.269531 -2.789062 14.4375 -4.1875 L 15.828125 -2.703125 C 14.285156 -0.835938 12.117188 0.09375 9.328125 0.09375 C 6.972656 0.09375 5.046875 -0.664062 3.546875 -2.1875 C 2.046875 -3.707031 1.296875 -5.675781 1.296875 -8.09375 C 1.296875 -10.5 2.050781 -12.46875 3.5625 -14 C 5.070312 -15.53125 6.992188 -16.296875 9.328125 -16.296875 Z M 9.328125 -16.296875 "/></g></g></g><g fill="#000000" fill-opacity="1"><g transform="translate(173.151948, 685.631623)"><g><path d="M 3.59375 -14.015625 C 5.132812 -15.535156 7.109375 -16.296875 9.515625 -16.296875 C 11.921875 -16.296875 13.890625 -15.535156 15.421875 -14.015625 C 16.960938 -12.492188 17.734375 -10.53125 17.734375 -8.125 C 17.734375 -5.707031 16.960938 -3.734375 15.421875 -2.203125 C 13.890625 -0.671875 11.921875 0.09375 9.515625 0.09375 C 7.109375 0.09375 5.132812 -0.671875 3.59375 -2.203125 C 2.0625 -3.734375 1.296875 -5.707031 1.296875 -8.125 C 1.296875 -10.53125 2.0625 -12.492188 3.59375 -14.015625 Z M 13.703125 -12.421875 C 12.617188 -13.546875 11.222656 -14.109375 9.515625 -14.109375 C 7.804688 -14.109375 6.410156 -13.546875 5.328125 -12.421875 C 4.242188 -11.304688 3.703125 -9.863281 3.703125 -8.09375 C 3.703125 -6.3125 4.242188 -4.859375 5.328125 -3.734375 C 6.410156 -2.617188 7.804688 -2.0625 9.515625 -2.0625 C 11.222656 -2.0625 12.617188 -2.617188 13.703125 -3.734375 C 14.796875 -4.859375 15.34375 -6.3125 15.34375 -8.09375 C 15.34375 -9.863281 14.796875 -11.304688 13.703125 -12.421875 Z M 13.703125 -12.421875 "/></g></g></g><g fill="#000000" fill-opacity="1"><g transform="translate(195.108353, 685.631623)"><g><path d="M 23.71875 -16.328125 C 25.601562 -16.328125 27.078125 -15.765625 28.140625 -14.640625 C 29.210938 -13.523438 29.75 -11.984375 29.75 -10.015625 L 29.75 0 L 27.34375 0 L 27.34375 -9.359375 C 27.34375 -10.796875 26.941406 -11.921875 26.140625 -12.734375 C 25.347656 -13.546875 24.25 -13.953125 22.84375 -13.953125 C 21.1875 -13.910156 19.890625 -13.34375 18.953125 -12.25 C 18.015625 -11.164062 17.546875 -9.738281 17.546875 -7.96875 L 17.546875 0 L 15.125 0 L 15.125 -9.359375 C 15.125 -10.796875 14.726562 -11.921875 13.9375 -12.734375 C 13.144531 -13.546875 12.039062 -13.953125 10.625 -13.953125 C 8.976562 -13.910156 7.675781 -13.34375 6.71875 -12.25 C 5.769531 -11.164062 5.296875 -9.738281 5.296875 -7.96875 L 5.296875 0 L 2.921875 0 L 2.921875 -16.234375 L 5.296875 -16.234375 L 5.296875 -12.5625 C 6.347656 -15.03125 8.410156 -16.285156 11.484375 -16.328125 C 13.003906 -16.328125 14.265625 -15.957031 15.265625 -15.21875 C 16.273438 -14.476562 16.957031 -13.429688 17.3125 -12.078125 C 18.289062 -14.867188 20.425781 -16.285156 23.71875 -16.328125 Z M 23.71875 -16.328125 "/></g></g></g></svg>