<svg xmlns="http://www.w3.org/2000/svg" xmlns:xlink="http://www.w3.org/1999/xlink" width="940" zoomAndPan="magnify" viewBox="0 0 705 591.000005" height="788" preserveAspectRatio="xMidYMid meet" version="1.0"><defs><g/><clipPath id="1851a518e4"><path d="M 698 7 L 704.402344 7 L 704.402344 589 L 698 589 Z M 698 7 " clip-rule="nonzero"/></clipPath><clipPath id="793e6c17e3"><path d="M 0.59375 6 L 7 6 L 7 590 L 0.59375 590 Z M 0.59375 6 " clip-rule="nonzero"/></clipPath><clipPath id="4500c72699"><path d="M 6 583 L 704.402344 583 L 704.402344 590 L 6 590 Z M 6 583 " clip-rule="nonzero"/></clipPath><clipPath id="e4c43793cd"><path d="M 0.59375 0 L 704.402344 0 L 704.402344 6 L 0.59375 6 Z M 0.59375 0 " clip-rule="nonzero"/></clipPath></defs><g clip-path="url(#1851a518e4)"><path fill="#000000" d="M 704.398438 7.515625 L 704.398438 25.488281 L 698.417969 25.488281 L 698.417969 7.515625 M 704.398438 31.476562 L 704.398438 49.449219 L 698.417969 49.449219 L 698.417969 31.476562 M 704.398438 55.4375 L 704.398438 73.410156 L 698.417969 73.410156 L 698.417969 55.4375 M 704.398438 79.402344 L 704.398438 97.371094 L 698.417969 97.371094 L 698.417969 79.402344 M 704.398438 103.363281 L 704.398438 121.332031 L 698.417969 121.332031 L 698.417969 103.363281 M 704.398438 127.324219 L 704.398438 145.292969 L 698.417969 145.292969 L 698.417969 127.324219 M 704.398438 151.285156 L 704.398438 169.257812 L 698.417969 169.257812 L 698.417969 151.285156 M 704.398438 175.246094 L 704.398438 193.21875 L 698.417969 193.21875 L 698.417969 175.246094 M 704.398438 199.207031 L 704.398438 217.179688 L 698.417969 217.179688 L 698.417969 199.207031 M 704.398438 223.167969 L 704.398438 241.140625 L 698.417969 241.140625 L 698.417969 223.167969 M 704.398438 247.128906 L 704.398438 265.101562 L 698.417969 265.101562 L 698.417969 247.128906 M 704.398438 271.09375 L 704.398438 289.0625 L 698.417969 289.0625 L 698.417969 271.09375 M 704.398438 295.054688 L 704.398438 313.023438 L 698.417969 313.023438 L 698.417969 295.054688 M 704.398438 319.015625 L 704.398438 336.984375 L 698.417969 336.984375 L 698.417969 319.015625 M 704.398438 342.976562 L 704.398438 360.945312 L 698.417969 360.945312 L 698.417969 342.976562 M 704.398438 366.9375 L 704.398438 384.910156 L 698.417969 384.910156 L 698.417969 366.9375 M 704.398438 390.898438 L 704.398438 408.871094 L 698.417969 408.871094 L 698.417969 390.898438 M 704.398438 414.859375 L 704.398438 432.832031 L 698.417969 432.832031 L 698.417969 414.859375 M 704.398438 438.820312 L 704.398438 456.792969 L 698.417969 456.792969 L 698.417969 438.820312 M 704.398438 462.78125 L 704.398438 480.753906 L 698.417969 480.753906 L 698.417969 462.78125 M 704.398438 486.746094 L 704.398438 504.714844 L 698.417969 504.714844 L 698.417969 486.746094 M 704.398438 510.707031 L 704.398438 528.675781 L 698.417969 528.675781 L 698.417969 510.707031 M 704.398438 534.667969 L 704.398438 552.636719 L 698.417969 552.636719 L 698.417969 534.667969 M 704.398438 558.628906 L 704.398438 576.597656 L 698.417969 576.597656 L 698.417969 558.628906 M 704.398438 582.589844 L 704.398438 588.539062 L 698.417969 588.539062 L 698.417969 582.589844 " fill-opacity="1" fill-rule="nonzero"/></g><g clip-path="url(#793e6c17e3)"><path fill="#000000" d="M 6.609375 6.007812 L 6.609375 23.976562 L 0.632812 23.976562 L 0.632812 6.007812 M 6.609375 29.96875 L 6.609375 47.9375 L 0.632812 47.9375 L 0.632812 29.96875 M 6.609375 53.929688 L 6.609375 71.898438 L 0.632812 71.898438 L 0.632812 53.929688 M 6.609375 77.890625 L 6.609375 95.859375 L 0.632812 95.859375 L 0.632812 77.890625 M 6.609375 101.847656 L 6.609375 119.820312 L 0.632812 119.820312 L 0.632812 101.847656 M 6.609375 125.808594 L 6.609375 143.78125 L 0.632812 143.78125 L 0.632812 125.808594 M 6.609375 149.769531 L 6.609375 167.742188 L 0.632812 167.742188 L 0.632812 149.769531 M 6.609375 173.730469 L 6.609375 191.699219 L 0.632812 191.699219 L 0.632812 173.730469 M 6.609375 197.691406 L 6.609375 215.660156 L 0.632812 215.660156 L 0.632812 197.691406 M 6.609375 221.652344 L 6.609375 239.621094 L 0.632812 239.621094 L 0.632812 221.652344 M 6.609375 245.613281 L 6.609375 263.582031 L 0.632812 263.582031 L 0.632812 245.613281 M 6.609375 269.570312 L 6.609375 287.542969 L 0.632812 287.542969 L 0.632812 269.570312 M 6.609375 293.53125 L 6.609375 311.503906 L 0.632812 311.503906 L 0.632812 293.53125 M 6.609375 317.492188 L 6.609375 335.464844 L 0.632812 335.464844 L 0.632812 317.492188 M 6.609375 341.453125 L 6.609375 359.421875 L 0.632812 359.421875 L 0.632812 341.453125 M 6.609375 365.414062 L 6.609375 383.382812 L 0.632812 383.382812 L 0.632812 365.414062 M 6.609375 389.375 L 6.609375 407.34375 L 0.632812 407.34375 L 0.632812 389.375 M 6.609375 413.335938 L 6.609375 431.304688 L 0.632812 431.304688 L 0.632812 413.335938 M 6.609375 437.296875 L 6.609375 455.265625 L 0.632812 455.265625 L 0.632812 437.296875 M 6.609375 461.253906 L 6.609375 479.226562 L 0.632812 479.226562 L 0.632812 461.253906 M 6.609375 485.214844 L 6.609375 503.1875 L 0.632812 503.1875 L 0.632812 485.214844 M 6.609375 509.175781 L 6.609375 527.148438 L 0.632812 527.148438 L 0.632812 509.175781 M 6.609375 533.136719 L 6.609375 551.105469 L 0.632812 551.105469 L 0.632812 533.136719 M 6.609375 557.097656 L 6.609375 575.066406 L 0.632812 575.066406 L 0.632812 557.097656 M 6.609375 581.058594 L 6.609375 590.023438 L 0.632812 590.023438 L 0.632812 581.058594 " fill-opacity="1" fill-rule="nonzero"/></g><g clip-path="url(#4500c72699)"><path fill="#000000" d="M 704.398438 589.980469 L 686.429688 589.980469 L 686.429688 583.992188 L 704.398438 583.992188 M 680.4375 589.980469 L 662.46875 589.980469 L 662.46875 583.992188 L 680.4375 583.992188 M 656.476562 589.980469 L 638.507812 589.980469 L 638.507812 583.992188 L 656.476562 583.992188 M 632.515625 589.980469 L 614.542969 589.980469 L 614.542969 583.992188 L 632.515625 583.992188 M 608.554688 589.980469 L 590.582031 589.980469 L 590.582031 583.992188 L 608.554688 583.992188 M 584.59375 589.980469 L 566.621094 589.980469 L 566.621094 583.992188 L 584.59375 583.992188 M 560.632812 589.980469 L 542.660156 589.980469 L 542.660156 583.992188 L 560.632812 583.992188 M 536.671875 589.980469 L 518.699219 589.980469 L 518.699219 583.992188 L 536.671875 583.992188 M 512.710938 589.980469 L 494.738281 589.980469 L 494.738281 583.992188 L 512.710938 583.992188 M 488.75 589.980469 L 470.777344 589.980469 L 470.777344 583.992188 L 488.75 583.992188 M 464.789062 589.980469 L 446.816406 589.980469 L 446.816406 583.992188 L 464.789062 583.992188 M 440.828125 589.980469 L 422.855469 589.980469 L 422.855469 583.992188 L 440.828125 583.992188 M 416.867188 589.980469 L 398.894531 589.980469 L 398.894531 583.992188 L 416.867188 583.992188 M 392.90625 589.980469 L 374.933594 589.980469 L 374.933594 583.992188 L 392.90625 583.992188 M 368.945312 589.980469 L 350.972656 589.980469 L 350.972656 583.992188 L 368.945312 583.992188 M 344.984375 589.980469 L 327.011719 589.980469 L 327.011719 583.992188 L 344.984375 583.992188 M 321.023438 589.980469 L 303.050781 589.980469 L 303.050781 583.992188 L 321.023438 583.992188 M 297.0625 589.980469 L 279.089844 589.980469 L 279.089844 583.992188 L 297.0625 583.992188 M 273.097656 589.980469 L 255.128906 589.980469 L 255.128906 583.992188 L 273.097656 583.992188 M 249.136719 589.980469 L 231.167969 589.980469 L 231.167969 583.992188 L 249.136719 583.992188 M 225.175781 589.980469 L 207.207031 589.980469 L 207.207031 583.992188 L 225.175781 583.992188 M 201.214844 589.980469 L 183.246094 589.980469 L 183.246094 583.992188 L 201.214844 583.992188 M 177.253906 589.980469 L 159.285156 589.980469 L 159.285156 583.992188 L 177.253906 583.992188 M 153.292969 589.980469 L 135.324219 589.980469 L 135.324219 583.992188 L 153.292969 583.992188 M 129.332031 589.980469 L 111.363281 589.980469 L 111.363281 583.992188 L 129.332031 583.992188 M 105.371094 589.980469 L 87.402344 589.980469 L 87.402344 583.992188 L 105.371094 583.992188 M 81.410156 589.980469 L 63.441406 589.980469 L 63.441406 583.992188 L 81.410156 583.992188 M 57.449219 589.980469 L 39.480469 589.980469 L 39.480469 583.992188 L 57.449219 583.992188 M 33.488281 589.980469 L 15.519531 589.980469 L 15.519531 583.992188 L 33.488281 583.992188 M 9.527344 589.980469 L 6.574219 589.980469 L 6.574219 583.992188 L 9.527344 583.992188 " fill-opacity="1" fill-rule="nonzero"/></g><g clip-path="url(#e4c43793cd)"><path fill="#000000" d="M 704.40625 6 L 686.433594 6 L 686.433594 0.0117188 L 704.40625 0.0117188 M 680.445312 6 L 662.476562 6 L 662.476562 0.0117188 L 680.445312 0.0117188 M 656.484375 6 L 638.515625 6 L 638.515625 0.0117188 L 656.484375 0.0117188 M 632.527344 6 L 614.554688 6 L 614.554688 0.0117188 L 632.527344 0.0117188 M 608.566406 6 L 590.597656 6 L 590.597656 0.0117188 L 608.566406 0.0117188 M 584.605469 6 L 566.636719 6 L 566.636719 0.0117188 L 584.605469 0.0117188 M 560.648438 6 L 542.679688 6 L 542.679688 0.0117188 L 560.648438 0.0117188 M 536.6875 6 L 518.71875 6 L 518.71875 0.0117188 L 536.6875 0.0117188 M 512.730469 6 L 494.757812 6 L 494.757812 0.0117188 L 512.730469 0.0117188 M 488.769531 6 L 470.800781 6 L 470.800781 0.0117188 L 488.769531 0.0117188 M 464.808594 6 L 446.839844 6 L 446.839844 0.0117188 L 464.808594 0.0117188 M 440.851562 6 L 422.882812 6 L 422.882812 0.0117188 L 440.851562 0.0117188 M 416.890625 6 L 398.921875 6 L 398.921875 0.0117188 L 416.890625 0.0117188 M 392.929688 6 L 374.960938 6 L 374.960938 0.0117188 L 392.929688 0.0117188 M 368.972656 6 L 351.003906 6 L 351.003906 0.0117188 L 368.972656 0.0117188 M 345.011719 6 L 327.042969 6 L 327.042969 0.0117188 L 345.011719 0.0117188 M 321.054688 6 L 303.082031 6 L 303.082031 0.0117188 L 321.054688 0.0117188 M 297.09375 6 L 279.125 6 L 279.125 0.0117188 L 297.09375 0.0117188 M 273.132812 6 L 255.164062 6 L 255.164062 0.0117188 L 273.132812 0.0117188 M 249.175781 6 L 231.207031 6 L 231.207031 0.0117188 L 249.175781 0.0117188 M 225.214844 6 L 207.246094 6 L 207.246094 0.0117188 L 225.214844 0.0117188 M 201.257812 6 L 183.285156 6 L 183.285156 0.0117188 L 201.257812 0.0117188 M 177.296875 6 L 159.328125 6 L 159.328125 0.0117188 L 177.296875 0.0117188 M 153.335938 6 L 135.367188 6 L 135.367188 0.0117188 L 153.335938 0.0117188 M 129.378906 6 L 111.40625 6 L 111.40625 0.0117188 L 129.378906 0.0117188 M 105.417969 6 L 87.449219 6 L 87.449219 0.0117188 L 105.417969 0.0117188 M 81.457031 6 L 63.488281 6 L 63.488281 0.0117188 L 81.457031 0.0117188 M 57.5 6 L 39.53125 6 L 39.53125 0.0117188 L 57.5 0.0117188 M 33.539062 6 L 15.570312 6 L 15.570312 0.0117188 L 33.539062 0.0117188 M 9.582031 6 L 0.59375 6 L 0.59375 0.0117188 L 9.582031 0.0117188 " fill-opacity="1" fill-rule="nonzero"/></g><path stroke-linecap="butt" transform="matrix(0.000000000000000367, 5.990403, -5.954973, 0.000000000000000365, 352.53482, 270.462648)" fill="none" stroke-linejoin="miter" d="M -0.000285572 -0.0000564664 L 43.496374 -0.0000564664 " stroke="#a6a6a6" stroke-width="1" stroke-opacity="1" stroke-miterlimit="4"/><path stroke-linecap="butt" transform="matrix(-5.990403, -0.000000000000000734, 0.000000000000000729, -5.954973, 485.783171, 397.75008)" fill="none" stroke-linejoin="miter" d="M 0.000320753 0.0000134995 L 43.496328 0.0000134995 " stroke="#a6a6a6" stroke-width="1" stroke-opacity="1" stroke-miterlimit="4"/><g fill="#4e6470" fill-opacity="1"><g transform="translate(63.225446, 155.382601)"><g><path d="M 48.078125 0 L 27.40625 0 L 27.40625 -23.34375 L 0.515625 -49.28125 L 23.421875 -49.28125 L 37.734375 -34.546875 L 52.03125 -49.28125 L 74.921875 -49.28125 L 48.078125 -23.34375 Z M 48.078125 0 "/></g></g></g><g fill="#4e6470" fill-opacity="1"><g transform="translate(138.661579, 155.382601)"><g><path d="M 37.265625 1.0625 C 25.078125 1.0625 16.113281 -1.441406 10.375 -6.453125 C 5.289062 -10.898438 2.75 -16.957031 2.75 -24.625 C 2.75 -32.269531 5.289062 -38.3125 10.375 -42.75 C 16.113281 -47.769531 25.078125 -50.28125 37.265625 -50.28125 C 49.441406 -50.28125 58.398438 -47.769531 64.140625 -42.75 C 69.222656 -38.3125 71.765625 -32.269531 71.765625 -24.625 C 71.765625 -16.957031 69.222656 -10.898438 64.140625 -6.453125 C 58.398438 -1.441406 49.441406 1.0625 37.265625 1.0625 Z M 37.265625 -12.15625 C 42.253906 -12.15625 45.914062 -13.585938 48.25 -16.453125 C 50.125 -18.765625 51.0625 -21.488281 51.0625 -24.625 C 51.0625 -27.757812 50.125 -30.472656 48.25 -32.765625 C 45.914062 -35.648438 42.253906 -37.09375 37.265625 -37.09375 C 32.265625 -37.09375 28.585938 -35.648438 26.234375 -32.765625 C 24.359375 -30.472656 23.421875 -27.757812 23.421875 -24.625 C 23.421875 -21.488281 24.359375 -18.765625 26.234375 -16.453125 C 28.585938 -13.585938 32.265625 -12.15625 37.265625 -12.15625 Z M 37.265625 -12.15625 "/></g></g></g><g fill="#4e6470" fill-opacity="1"><g transform="translate(213.170634, 155.382601)"><g><path d="M 34.65625 1.0625 C 22.632812 1.0625 14.171875 -1.429688 9.265625 -6.421875 C 5.148438 -10.609375 3.09375 -16.664062 3.09375 -24.59375 L 3.09375 -49.25 L 23.765625 -49.25 L 23.765625 -24.59375 C 23.765625 -21.15625 24.347656 -18.441406 25.515625 -16.453125 C 27.179688 -13.585938 30.226562 -12.15625 34.65625 -12.15625 C 39.113281 -12.15625 42.164062 -13.585938 43.8125 -16.453125 C 44.976562 -18.515625 45.5625 -21.226562 45.5625 -24.59375 L 45.5625 -49.25 L 66.234375 -49.25 L 66.234375 -24.3125 C 66.234375 -16.570312 64.1875 -10.609375 60.09375 -6.421875 C 55.175781 -1.429688 46.695312 1.0625 34.65625 1.0625 Z M 34.65625 1.0625 "/></g></g></g><g fill="#4e6470" fill-opacity="1"><g transform="translate(282.494963, 155.382601)"><g><path d="M 72.765625 0 L 53.234375 0 C 52.335938 -1.238281 51.707031 -2.816406 51.34375 -4.734375 C 51.019531 -6.222656 50.535156 -7.679688 49.890625 -9.109375 C 49.253906 -10.546875 48.148438 -11.738281 46.578125 -12.6875 C 45.015625 -13.632812 42.6875 -14.144531 39.59375 -14.21875 L 26.171875 -14.21875 L 26.171875 0 L 5.5 0 L 5.5 -49.28125 L 39.109375 -49.28125 C 47.148438 -49.28125 53.632812 -48.675781 58.5625 -47.46875 C 63.5 -46.269531 67.097656 -44.382812 69.359375 -41.8125 C 71.628906 -39.238281 72.765625 -35.878906 72.765625 -31.734375 C 72.765625 -28.273438 71.976562 -25.363281 70.40625 -23 C 68.84375 -20.644531 66.367188 -18.78125 62.984375 -17.40625 C 66.253906 -16.0625 68.375 -14.441406 69.34375 -12.546875 C 70.320312 -10.660156 70.925781 -8.582031 71.15625 -6.3125 C 71.382812 -4.300781 71.921875 -2.195312 72.765625 0 Z M 26.171875 -26.375 L 37.984375 -26.40625 C 41.273438 -26.40625 43.867188 -26.550781 45.765625 -26.84375 C 47.671875 -27.144531 49.078125 -27.550781 49.984375 -28.0625 C 50.890625 -28.582031 51.46875 -29.15625 51.71875 -29.78125 C 51.96875 -30.414062 52.09375 -31.066406 52.09375 -31.734375 C 52.09375 -32.390625 51.96875 -33.039062 51.71875 -33.6875 C 51.46875 -34.332031 50.890625 -34.910156 49.984375 -35.421875 C 49.078125 -35.929688 47.671875 -36.335938 45.765625 -36.640625 C 43.867188 -36.941406 41.273438 -37.09375 37.984375 -37.09375 L 26.171875 -37.09375 Z M 26.171875 -26.375 "/></g></g></g><g fill="#4e6470" fill-opacity="1"><g transform="translate(375.44244, 155.382601)"><g><path d="M 26.171875 0 L 5.5 0 L 5.5 -49.28125 L 39.109375 -49.28125 C 47.148438 -49.28125 53.632812 -48.675781 58.5625 -47.46875 C 63.5 -46.269531 67.097656 -44.382812 69.359375 -41.8125 C 71.628906 -39.238281 72.765625 -35.878906 72.765625 -31.734375 C 72.765625 -27.609375 71.628906 -24.257812 69.359375 -21.6875 C 67.097656 -19.113281 63.5 -17.222656 58.5625 -16.015625 C 53.632812 -14.816406 47.148438 -14.21875 39.109375 -14.21875 L 26.171875 -14.21875 Z M 26.171875 -26.375 L 37.984375 -26.40625 C 41.273438 -26.40625 43.867188 -26.535156 45.765625 -26.796875 C 47.671875 -27.066406 49.078125 -27.441406 49.984375 -27.921875 C 50.890625 -28.398438 51.46875 -28.960938 51.71875 -29.609375 C 51.96875 -30.265625 52.09375 -30.972656 52.09375 -31.734375 C 52.09375 -32.503906 51.96875 -33.21875 51.71875 -33.875 C 51.46875 -34.53125 50.890625 -35.097656 49.984375 -35.578125 C 49.078125 -36.054688 47.671875 -36.425781 45.765625 -36.6875 C 43.867188 -36.957031 41.273438 -37.09375 37.984375 -37.09375 L 26.171875 -37.09375 Z M 26.171875 -26.375 "/></g></g></g><g fill="#4e6470" fill-opacity="1"><g transform="translate(450.947245, 155.382601)"><g><path d="M 37.265625 1.0625 C 25.078125 1.0625 16.113281 -1.441406 10.375 -6.453125 C 5.289062 -10.898438 2.75 -16.957031 2.75 -24.625 C 2.75 -32.269531 5.289062 -38.3125 10.375 -42.75 C 16.113281 -47.769531 25.078125 -50.28125 37.265625 -50.28125 C 49.441406 -50.28125 58.398438 -47.769531 64.140625 -42.75 C 69.222656 -38.3125 71.765625 -32.269531 71.765625 -24.625 C 71.765625 -16.957031 69.222656 -10.898438 64.140625 -6.453125 C 58.398438 -1.441406 49.441406 1.0625 37.265625 1.0625 Z M 37.265625 -12.15625 C 42.253906 -12.15625 45.914062 -13.585938 48.25 -16.453125 C 50.125 -18.765625 51.0625 -21.488281 51.0625 -24.625 C 51.0625 -27.757812 50.125 -30.472656 48.25 -32.765625 C 45.914062 -35.648438 42.253906 -37.09375 37.265625 -37.09375 C 32.265625 -37.09375 28.585938 -35.648438 26.234375 -32.765625 C 24.359375 -30.472656 23.421875 -27.757812 23.421875 -24.625 C 23.421875 -21.488281 24.359375 -18.765625 26.234375 -16.453125 C 28.585938 -13.585938 32.265625 -12.15625 37.265625 -12.15625 Z M 37.265625 -12.15625 "/></g></g></g><g fill="#4e6470" fill-opacity="1"><g transform="translate(525.456287, 155.382601)"><g><path d="M 32.546875 1.0625 C 25.890625 1.0625 20.523438 0.347656 16.453125 -1.078125 C 12.378906 -2.515625 9.273438 -4.484375 7.140625 -6.984375 C 5.015625 -9.492188 3.582031 -12.382812 2.84375 -15.65625 L 24.796875 -15.65625 C 26.421875 -13.320312 29.003906 -12.15625 32.546875 -12.15625 C 36.097656 -12.15625 38.6875 -13.320312 40.3125 -15.65625 C 40.445312 -15.882812 40.515625 -16.09375 40.515625 -16.28125 C 40.515625 -16.894531 39.695312 -17.351562 38.0625 -17.65625 C 36.425781 -17.96875 33.984375 -18.207031 30.734375 -18.375 C 26.640625 -18.550781 22.335938 -18.984375 17.828125 -19.671875 C 7.773438 -21.234375 2.75 -25.273438 2.75 -31.796875 C 2.75 -32.347656 2.78125 -32.929688 2.84375 -33.546875 C 3.582031 -36.816406 5.015625 -39.707031 7.140625 -42.21875 C 9.273438 -44.726562 12.378906 -46.695312 16.453125 -48.125 C 20.523438 -49.5625 25.890625 -50.28125 32.546875 -50.28125 C 39.210938 -50.28125 44.582031 -49.5625 48.65625 -48.125 C 52.726562 -46.695312 55.828125 -44.726562 57.953125 -42.21875 C 60.085938 -39.707031 61.523438 -36.816406 62.265625 -33.546875 L 40.3125 -33.546875 C 38.6875 -35.878906 36.097656 -37.046875 32.546875 -37.046875 C 29.003906 -37.046875 26.421875 -35.878906 24.796875 -33.546875 C 24.679688 -33.367188 24.625 -33.195312 24.625 -33.03125 C 24.625 -32.476562 25.40625 -32.070312 26.96875 -31.8125 C 28.539062 -31.550781 30.851562 -31.328125 33.90625 -31.140625 C 36.96875 -30.960938 40.222656 -30.664062 43.671875 -30.25 C 47.128906 -29.84375 50.363281 -29.128906 53.375 -28.109375 C 56.382812 -27.085938 58.738281 -25.582031 60.4375 -23.59375 C 61.769531 -22.0625 62.4375 -20.113281 62.4375 -17.75 C 62.4375 -17.09375 62.378906 -16.394531 62.265625 -15.65625 C 61.523438 -12.382812 60.085938 -9.492188 57.953125 -6.984375 C 55.828125 -4.484375 52.726562 -2.515625 48.65625 -1.078125 C 44.582031 0.347656 39.210938 1.0625 32.546875 1.0625 Z M 32.546875 1.0625 "/></g></g></g><g fill="#4e6470" fill-opacity="1"><g transform="translate(590.625945, 155.382601)"><g><path d="M 42.03125 0 L 21.359375 0 L 21.359375 -37.09375 L 2.0625 -37.09375 L 2.0625 -49.28125 L 61.328125 -49.28125 L 61.328125 -37.09375 L 42.03125 -37.09375 Z M 42.03125 0 "/></g></g></g><path stroke-linecap="butt" transform="matrix(0.830194, 0, 0, 0.830194, 42.800051, 95.821315)" fill="none" stroke-linejoin="miter" d="M 78.766309 67.998672 L 53.86627 67.998672 L 53.86627 39.875555 L 21.480221 8.646992 L 49.066943 8.646992 L 66.31629 26.390387 L 83.52329 8.646992 L 111.110011 8.646992 L 78.766309 39.875555 Z M 156.604811 69.283198 C 141.933926 69.283198 131.135439 66.262445 124.214057 60.225644 C 118.092562 54.875806 115.034167 47.58271 115.034167 38.341653 C 115.034167 29.133532 118.092562 21.854552 124.214057 16.504714 C 131.135439 10.463208 141.933926 7.44716 156.604811 7.44716 C 171.27099 7.44716 182.069476 10.463208 188.990859 16.504714 C 195.112354 21.854552 198.170749 29.133532 198.170749 38.341653 C 198.170749 47.58271 195.112354 54.875806 188.990859 60.225644 C 182.069476 66.262445 171.27099 69.283198 156.604811 69.283198 Z M 156.604811 53.356019 C 162.61338 53.356019 167.026879 51.633907 169.840602 48.189684 C 172.099109 45.404192 173.233068 42.119947 173.233068 38.341653 C 173.233068 34.563359 172.099109 31.297934 169.840602 28.540674 C 167.026879 25.068219 162.61338 23.327287 156.604811 23.327287 C 150.591536 23.327287 146.163921 25.068219 143.326672 28.540674 C 141.06346 31.297934 139.934206 34.563359 139.934206 38.341653 C 139.934206 42.119947 141.06346 45.404192 143.326672 48.189684 C 146.163921 51.633907 150.591536 53.356019 156.604811 53.356019 Z M 243.209142 69.283198 C 228.731171 69.283198 218.544364 66.276561 212.644014 60.263286 C 207.680004 55.219287 205.195647 47.926192 205.195647 38.384 L 205.195647 8.684633 L 230.095686 8.684633 L 230.095686 38.384 C 230.095686 42.519891 230.801469 45.790021 232.208331 48.189684 C 234.217461 51.633907 237.887535 53.356019 243.209142 53.356019 C 248.587212 53.356019 252.266696 51.633907 254.2523 48.189684 C 255.659161 45.705327 256.36024 42.439902 256.36024 38.384 L 256.36024 8.684633 L 281.260279 8.684633 L 281.260279 38.713365 C 281.260279 48.034412 278.794742 55.219287 273.858963 60.263286 C 267.930383 66.276561 257.710639 69.283198 243.209142 69.283198 Z M 372.626296 67.998672 L 349.090771 67.998672 C 348.013275 66.511822 347.255734 64.606207 346.813443 62.291237 C 346.427615 60.498547 345.848873 58.743499 345.077216 57.016682 C 344.30556 55.294571 342.973981 53.859478 341.087187 52.716109 C 339.195688 51.572739 336.391375 50.96106 332.669544 50.876366 L 316.497693 50.876366 L 316.497693 67.998672 L 291.597653 67.998672 L 291.597653 8.646992 L 332.090801 8.646992 C 341.769444 8.646992 349.580114 9.366891 355.522811 10.816099 C 361.465507 12.265308 365.799017 14.53793 368.528047 17.643378 C 371.257076 20.744119 372.626296 24.790611 372.626296 29.782852 C 372.626296 33.946975 371.680546 37.44766 369.789046 40.28491 C 367.902252 43.126864 364.919141 45.375961 360.835007 47.027494 C 364.777984 48.655501 367.337625 50.608169 368.509226 52.880791 C 369.680826 55.158119 370.405431 57.661298 370.678334 60.390327 C 370.955942 62.818222 371.605262 65.354337 372.626296 67.998672 Z M 316.497693 36.233713 L 330.726286 36.191366 C 334.692789 36.191366 337.826468 36.012567 340.113206 35.654971 C 342.40465 35.297374 344.089119 34.80803 345.180731 34.186941 C 346.267637 33.565852 346.96401 32.874184 347.26985 32.116643 C 347.570984 31.359102 347.726257 30.58274 347.726257 29.782852 C 347.726257 28.982965 347.570984 28.197192 347.26985 27.425536 C 346.96401 26.649174 346.267637 25.957506 345.180731 25.336417 C 344.089119 24.715327 342.40465 24.225984 340.113206 23.868387 C 337.826468 23.506085 334.692789 23.327287 330.726286 23.327287 L 316.497693 23.327287 Z M 428.453765 67.998672 L 403.553725 67.998672 L 403.553725 8.646992 L 444.046873 8.646992 C 453.725516 8.646992 461.536186 9.366891 467.478883 10.816099 C 473.421579 12.265308 477.759795 14.53793 480.488824 17.643378 C 483.217853 20.744119 484.582368 24.790611 484.582368 29.782852 C 484.582368 34.746863 483.217853 38.779239 480.488824 41.87998 C 477.759795 44.980722 473.421579 47.25805 467.478883 48.702553 C 461.536186 50.151762 453.725516 50.876366 444.046873 50.876366 L 428.453765 50.876366 Z M 428.453765 36.233713 L 442.682358 36.191366 C 446.653567 36.191366 449.78254 36.036094 452.073983 35.716138 C 454.360721 35.400889 456.049896 34.949187 457.141508 34.370445 C 458.228415 33.791702 458.924788 33.109445 459.225922 32.323673 C 459.531761 31.537901 459.682329 30.69096 459.682329 29.782852 C 459.682329 28.841808 459.531761 27.980752 459.225922 27.19498 C 458.924788 26.409208 458.228415 25.72695 457.141508 25.148208 C 456.049896 24.569466 454.360721 24.122469 452.073983 23.802514 C 449.78254 23.487264 446.653567 23.327287 442.682358 23.327287 L 428.453765 23.327287 Z M 532.763849 69.283198 C 518.092965 69.283198 507.299184 66.262445 500.377801 60.225644 C 494.256306 54.875806 491.193206 47.58271 491.193206 38.341653 C 491.193206 29.133532 494.256306 21.854552 500.377801 16.504714 C 507.299184 10.463208 518.092965 7.44716 532.763849 7.44716 C 547.434734 7.44716 558.228515 10.463208 565.149898 16.504714 C 571.271393 21.854552 574.329788 29.133532 574.329788 38.341653 C 574.329788 47.58271 571.271393 54.875806 565.149898 60.225644 C 558.228515 66.262445 547.434734 69.283198 532.763849 69.283198 Z M 532.763849 53.356019 C 538.772419 53.356019 543.185918 51.633907 545.999641 48.189684 C 548.258148 45.404192 549.392107 42.119947 549.392107 38.341653 C 549.392107 34.563359 548.258148 31.297934 545.999641 28.540674 C 543.185918 25.068219 538.772419 23.327287 532.763849 23.327287 C 526.750575 23.327287 522.327665 25.068219 519.485711 28.540674 C 517.222498 31.297934 516.093245 34.563359 516.093245 38.341653 C 516.093245 42.119947 517.222498 45.404192 519.485711 48.189684 C 522.327665 51.633907 526.750575 53.356019 532.763849 53.356019 Z M 616.846181 69.283198 C 608.819071 69.283198 602.354095 68.422142 597.446548 66.695326 C 592.539 64.973214 588.803053 62.601782 586.238707 59.581029 C 583.67436 56.564981 581.947544 53.083116 581.067667 49.140139 L 607.496904 49.140139 C 609.454276 51.949157 612.569134 53.356019 616.846181 53.356019 C 621.118524 53.356019 624.233381 51.949157 626.190754 49.140139 C 626.360142 48.862531 626.440131 48.613154 626.440131 48.392009 C 626.440131 47.648584 625.456739 47.093367 623.485251 46.716949 C 621.513762 46.345237 618.568293 46.062923 614.653548 45.870009 C 609.717769 45.648864 604.532613 45.126584 599.102786 44.298465 C 586.996248 42.425786 580.940626 37.555881 580.940626 29.698158 C 580.940626 29.034722 580.982973 28.333644 581.067667 27.590219 C 581.947544 23.647242 583.67436 20.165377 586.238707 17.144624 C 588.803053 14.123871 592.539 11.752439 597.446548 10.030327 C 602.354095 8.308215 608.819071 7.44716 616.846181 7.44716 C 624.868586 7.44716 631.333562 8.308215 636.245815 10.030327 C 641.153363 11.752439 644.889309 14.123871 647.453656 17.144624 C 650.018002 20.165377 651.740114 23.647242 652.624696 27.590219 L 626.190754 27.590219 C 624.233381 24.776495 621.118524 23.369634 616.846181 23.369634 C 612.569134 23.369634 609.454276 24.776495 607.496904 27.590219 C 607.360452 27.811364 607.289874 28.018394 607.289874 28.211308 C 607.289874 28.870039 608.235624 29.359382 610.122418 29.679338 C 612.013918 29.994587 614.799409 30.262785 618.478894 30.483931 C 622.158378 30.705076 626.082534 31.062673 630.246656 31.561427 C 634.410778 32.055475 638.306703 32.916531 641.929724 34.144594 C 645.557451 35.372657 648.389995 37.184168 650.432062 39.583832 C 652.031838 41.432984 652.831726 43.776185 652.831726 46.613435 C 652.831726 47.413322 652.761147 48.255557 652.624696 49.140139 C 651.740114 53.083116 650.018002 56.564981 647.453656 59.581029 C 644.889309 62.601782 641.153363 64.973214 636.245815 66.695326 C 631.333562 68.422142 624.868586 69.283198 616.846181 69.283198 Z M 706.758284 67.998672 L 681.858245 67.998672 L 681.858245 23.327287 L 658.614444 23.327287 L 658.614444 8.646992 L 730.00679 8.646992 L 730.00679 23.327287 L 706.758284 23.327287 Z M 706.758284 67.998672 " stroke="#000000" stroke-width="3.176696" stroke-opacity="1" stroke-miterlimit="4"/><g fill="#4e6470" fill-opacity="1"><g transform="translate(214.152208, 224.288743)"><g><path d="M 72.796875 0 L 52.125 0 L 52.125 -19.875 L 26.171875 -19.875 L 26.171875 0 L 5.5 0 L 5.5 -49.28125 L 26.171875 -49.28125 L 26.171875 -29.359375 L 52.125 -29.359375 L 52.125 -49.28125 L 72.796875 -49.28125 Z M 72.796875 0 "/></g></g></g><g fill="#4e6470" fill-opacity="1"><g transform="translate(292.438219, 224.288743)"><g><path d="M 64.828125 0 L 5.5 0 L 5.5 -49.28125 L 62.125 -49.28125 L 62.125 -37.09375 L 26.171875 -37.09375 L 26.171875 -29.359375 L 56.5625 -29.359375 L 56.5625 -19.875 L 26.171875 -19.875 L 26.171875 -12.1875 L 64.828125 -12.1875 Z M 64.828125 0 "/></g></g></g><g fill="#4e6470" fill-opacity="1"><g transform="translate(360.011408, 224.288743)"><g><path d="M 72.765625 0 L 53.234375 0 C 52.335938 -1.238281 51.707031 -2.816406 51.34375 -4.734375 C 51.019531 -6.222656 50.535156 -7.679688 49.890625 -9.109375 C 49.253906 -10.546875 48.148438 -11.738281 46.578125 -12.6875 C 45.015625 -13.632812 42.6875 -14.144531 39.59375 -14.21875 L 26.171875 -14.21875 L 26.171875 0 L 5.5 0 L 5.5 -49.28125 L 39.109375 -49.28125 C 47.148438 -49.28125 53.632812 -48.675781 58.5625 -47.46875 C 63.5 -46.269531 67.097656 -44.382812 69.359375 -41.8125 C 71.628906 -39.238281 72.765625 -35.878906 72.765625 -31.734375 C 72.765625 -28.273438 71.976562 -25.363281 70.40625 -23 C 68.84375 -20.644531 66.367188 -18.78125 62.984375 -17.40625 C 66.253906 -16.0625 68.375 -14.441406 69.34375 -12.546875 C 70.320312 -10.660156 70.925781 -8.582031 71.15625 -6.3125 C 71.382812 -4.300781 71.921875 -2.195312 72.765625 0 Z M 26.171875 -26.375 L 37.984375 -26.40625 C 41.273438 -26.40625 43.867188 -26.550781 45.765625 -26.84375 C 47.671875 -27.144531 49.078125 -27.550781 49.984375 -28.0625 C 50.890625 -28.582031 51.46875 -29.15625 51.71875 -29.78125 C 51.96875 -30.414062 52.09375 -31.066406 52.09375 -31.734375 C 52.09375 -32.390625 51.96875 -33.039062 51.71875 -33.6875 C 51.46875 -34.332031 50.890625 -34.910156 49.984375 -35.421875 C 49.078125 -35.929688 47.671875 -36.335938 45.765625 -36.640625 C 43.867188 -36.941406 41.273438 -37.09375 37.984375 -37.09375 L 26.171875 -37.09375 Z M 26.171875 -26.375 "/></g></g></g><g fill="#4e6470" fill-opacity="1"><g transform="translate(435.516212, 224.288743)"><g><path d="M 64.828125 0 L 5.5 0 L 5.5 -49.28125 L 62.125 -49.28125 L 62.125 -37.09375 L 26.171875 -37.09375 L 26.171875 -29.359375 L 56.5625 -29.359375 L 56.5625 -19.875 L 26.171875 -19.875 L 26.171875 -12.1875 L 64.828125 -12.1875 Z M 64.828125 0 "/></g></g></g><path stroke-linecap="butt" transform="matrix(0.830194, 0, 0, 0.830194, 42.800051, 95.821315)" fill="none" stroke-linejoin="miter" d="M 290.346064 150.998803 L 265.446025 150.998803 L 265.446025 127.049219 L 234.175114 127.049219 L 234.175114 150.998803 L 209.275075 150.998803 L 209.275075 91.647122 L 234.175114 91.647122 L 234.175114 115.634348 L 265.446025 115.634348 L 265.446025 91.647122 L 290.346064 91.647122 Z M 375.04478 150.998803 L 303.572446 150.998803 L 303.572446 91.647122 L 371.779356 91.647122 L 371.779356 106.327417 L 328.472485 106.327417 L 328.472485 115.634348 L 365.079118 115.634348 L 365.079118 127.049219 L 328.472485 127.049219 L 328.472485 136.318508 L 375.04478 136.318508 Z M 465.996738 150.998803 L 442.461213 150.998803 C 441.383717 149.511953 440.626176 147.606337 440.183885 145.291368 C 439.798057 143.498678 439.219314 141.74363 438.447658 140.016813 C 437.676001 138.294701 436.344423 136.859608 434.457629 135.716239 C 432.566129 134.57287 429.761817 133.956486 426.039985 133.876497 L 409.868134 133.876497 L 409.868134 150.998803 L 384.968095 150.998803 L 384.968095 91.647122 L 425.461243 91.647122 C 435.139886 91.647122 442.950556 92.367021 448.893253 93.81623 C 454.835949 95.265439 459.169459 97.538061 461.903194 100.643508 C 464.632223 103.74425 465.996738 107.790742 465.996738 112.782983 C 465.996738 116.947105 465.050988 120.447791 463.164193 123.28504 C 461.272694 126.126995 458.289583 128.376092 454.205449 130.027625 C 458.148426 131.655632 460.708067 133.608299 461.879668 135.880922 C 463.051268 138.15825 463.775872 140.661428 464.053481 143.390458 C 464.326383 145.813647 464.975704 148.354468 465.996738 150.998803 Z M 409.868134 119.233844 L 424.096728 119.191497 C 428.067936 119.191497 431.19691 119.012698 433.483648 118.655101 C 435.775091 118.297504 437.464266 117.808161 438.551173 117.187072 C 439.642784 116.565982 440.339157 115.874315 440.640292 115.116774 C 440.946131 114.359233 441.096698 113.582871 441.096698 112.782983 C 441.096698 111.983095 440.946131 111.197323 440.640292 110.425667 C 440.339157 109.649305 439.642784 108.952932 438.551173 108.336548 C 437.464266 107.715458 435.775091 107.226115 433.483648 106.868518 C 431.19691 106.506216 428.067936 106.327417 424.096728 106.327417 L 409.868134 106.327417 Z M 547.387682 150.998803 L 475.915347 150.998803 L 475.915347 91.647122 L 544.122257 91.647122 L 544.122257 106.327417 L 500.815386 106.327417 L 500.815386 115.634348 L 537.42202 115.634348 L 537.42202 127.049219 L 500.815386 127.049219 L 500.815386 136.318508 L 547.387682 136.318508 Z M 547.387682 150.998803 " stroke="#000000" stroke-width="3.176696" stroke-opacity="1" stroke-miterlimit="4"/></svg>