<svg xmlns="http://www.w3.org/2000/svg" xmlns:xlink="http://www.w3.org/1999/xlink" width="1080" zoomAndPan="magnify" viewBox="0 0 810 809.999993" height="1080" preserveAspectRatio="xMidYMid meet" version="1.0"><defs><filter x="0%" y="0%" width="100%" height="100%" id="bd94a1f106"><feColorMatrix values="0 0 0 0 1 0 0 0 0 1 0 0 0 0 1 0 0 0 1 0" color-interpolation-filters="sRGB"/></filter><g/><mask id="e73aacc4cb"><g filter="url(#bd94a1f106)"><rect x="-81" width="972" fill="#000000" y="-80.999999" height="971.999992" fill-opacity="0.2667"/></g></mask><clipPath id="76ecb2d057"><path d="M 0.0195312 0.28125 L 393.019531 0.28125 L 393.019531 618.519531 L 0.0195312 618.519531 Z M 0.0195312 0.28125 " clip-rule="nonzero"/></clipPath><clipPath id="b51c3bbf07"><rect x="0" width="395" y="0" height="619"/></clipPath><clipPath id="be8a8146b0"><path d="M 126 31.832031 L 810 31.832031 L 810 268.832031 L 126 268.832031 Z M 126 31.832031 " clip-rule="nonzero"/></clipPath></defs><rect x="-81" width="972" fill="#ffffff" y="-80.999999" height="971.999992" fill-opacity="1"/><rect x="-81" width="972" fill="#ffffff" y="-80.999999" height="971.999992" fill-opacity="1"/><rect x="-81" width="972" fill="#f2f3f5" y="-80.999999" height="971.999992" fill-opacity="1"/><path fill="#79a1b8" d="M -1.722656 0.00390625 L 814.277344 0.00390625 L 814.277344 809.996094 L -1.722656 809.996094 L -1.722656 0.00390625 " fill-opacity="1" fill-rule="nonzero"/><g mask="url(#e73aacc4cb)"><g transform="matrix(1, 0, 0, 1, 12, 191)"><g clip-path="url(#b51c3bbf07)"><g clip-path="url(#76ecb2d057)"><path fill="#0d3749" d="M 390.332031 618.40625 C 389.964844 618.40625 389.613281 618.335938 389.277344 618.195312 C 388.9375 618.058594 388.640625 617.859375 388.382812 617.597656 C 388.121094 617.339844 387.921875 617.042969 387.785156 616.703125 C 387.644531 616.367188 387.574219 616.015625 387.574219 615.648438 L 387.574219 197.070312 C 387.574219 91.703125 301.886719 5.992188 196.5625 5.992188 C 91.238281 5.992188 5.535156 91.703125 5.535156 197.070312 L 5.535156 615.648438 C 5.535156 616.015625 5.464844 616.367188 5.328125 616.703125 C 5.1875 617.042969 4.988281 617.339844 4.730469 617.597656 C 4.46875 617.859375 4.171875 618.058594 3.835938 618.195312 C 3.496094 618.335938 3.144531 618.40625 2.777344 618.40625 C 2.414062 618.40625 2.0625 618.335938 1.722656 618.195312 C 1.386719 618.058594 1.085938 617.859375 0.828125 617.597656 C 0.570312 617.339844 0.371094 617.042969 0.230469 616.703125 C 0.0898438 616.367188 0.0195312 616.015625 0.0195312 615.648438 L 0.0195312 197.070312 C 0.0195312 88.667969 88.191406 0.476562 196.5625 0.476562 C 304.933594 0.476562 393.089844 88.667969 393.089844 197.070312 L 393.089844 615.648438 C 393.089844 616.015625 393.019531 616.367188 392.878906 616.703125 C 392.738281 617.042969 392.539062 617.339844 392.28125 617.597656 C 392.023438 617.859375 391.726562 618.058594 391.386719 618.195312 C 391.050781 618.335938 390.699219 618.40625 390.332031 618.40625 Z M 363.386719 615.566406 L 363.386719 197.636719 C 363.386719 194.90625 363.316406 192.175781 363.183594 189.449219 C 363.046875 186.722656 362.84375 184 362.578125 181.28125 C 362.308594 178.5625 361.972656 175.855469 361.570312 173.15625 C 361.167969 170.453125 360.699219 167.765625 360.167969 165.085938 C 359.632812 162.410156 359.035156 159.746094 358.371094 157.097656 C 357.707031 154.449219 356.976562 151.816406 356.183594 149.207031 C 355.390625 146.59375 354.53125 144 353.613281 141.429688 C 352.691406 138.859375 351.707031 136.3125 350.664062 133.792969 C 349.617188 131.269531 348.511719 128.773438 347.34375 126.304688 C 346.175781 123.839844 344.945312 121.398438 343.660156 118.992188 C 342.371094 116.585938 341.027344 114.210938 339.621094 111.867188 C 338.21875 109.527344 336.757812 107.222656 335.238281 104.953125 C 333.722656 102.679688 332.148438 100.449219 330.523438 98.257812 C 328.894531 96.066406 327.214844 93.914062 325.484375 91.804688 C 323.75 89.691406 321.96875 87.625 320.136719 85.605469 C 318.300781 83.582031 316.417969 81.605469 314.488281 79.675781 C 312.558594 77.742188 310.582031 75.863281 308.558594 74.027344 C 306.535156 72.195312 304.46875 70.414062 302.355469 68.679688 C 300.246094 66.949219 298.09375 65.269531 295.902344 63.644531 C 293.707031 62.019531 291.476562 60.445312 289.207031 58.929688 C 286.9375 57.414062 284.632812 55.953125 282.289062 54.550781 C 279.949219 53.148438 277.574219 51.800781 275.164062 50.515625 C 272.757812 49.226562 270.320312 48 267.851562 46.835938 C 265.382812 45.667969 262.890625 44.5625 260.367188 43.515625 C 257.84375 42.472656 255.300781 41.488281 252.730469 40.570312 C 250.160156 39.652344 247.566406 38.792969 244.953125 38.003906 C 242.34375 37.210938 239.710938 36.480469 237.0625 35.820312 C 234.414062 35.15625 231.753906 34.558594 229.074219 34.023438 C 226.398438 33.492188 223.710938 33.027344 221.007812 32.625 C 218.308594 32.226562 215.601562 31.890625 212.882812 31.625 C 210.167969 31.355469 207.445312 31.15625 204.71875 31.019531 C 201.992188 30.886719 199.265625 30.820312 196.535156 30.820312 C 193.804688 30.820312 191.078125 30.886719 188.351562 31.019531 C 185.625 31.15625 182.902344 31.355469 180.183594 31.625 C 177.46875 31.890625 174.761719 32.226562 172.058594 32.625 C 169.359375 33.027344 166.671875 33.492188 163.992188 34.023438 C 161.316406 34.558594 158.652344 35.15625 156.003906 35.820312 C 153.355469 36.480469 150.726562 37.210938 148.113281 38.003906 C 145.503906 38.792969 142.910156 39.652344 140.339844 40.570312 C 137.769531 41.488281 135.222656 42.472656 132.703125 43.515625 C 130.179688 44.5625 127.683594 45.667969 125.214844 46.835938 C 122.75 48 120.3125 49.226562 117.902344 50.515625 C 115.496094 51.800781 113.121094 53.148438 110.777344 54.550781 C 108.4375 55.953125 106.132812 57.414062 103.863281 58.929688 C 101.589844 60.445312 99.359375 62.019531 97.167969 63.644531 C 94.972656 65.269531 92.824219 66.949219 90.710938 68.679688 C 88.601562 70.414062 86.535156 72.195312 84.511719 74.027344 C 82.488281 75.863281 80.511719 77.742188 78.582031 79.675781 C 76.648438 81.605469 74.769531 83.582031 72.933594 85.605469 C 71.101562 87.625 69.316406 89.691406 67.585938 91.804688 C 65.851562 93.914062 64.171875 96.066406 62.546875 98.257812 C 60.917969 100.449219 59.347656 102.679688 57.828125 104.953125 C 56.3125 107.222656 54.851562 109.527344 53.449219 111.867188 C 52.042969 114.210938 50.699219 116.585938 49.410156 118.992188 C 48.121094 121.398438 46.894531 123.839844 45.726562 126.304688 C 44.558594 128.773438 43.453125 131.269531 42.40625 133.792969 C 41.359375 136.3125 40.378906 138.859375 39.457031 141.429688 C 38.535156 144 37.679688 146.59375 36.886719 149.207031 C 36.09375 151.816406 35.363281 154.449219 34.699219 157.097656 C 34.035156 159.746094 33.433594 162.410156 32.902344 165.085938 C 32.367188 167.765625 31.898438 170.453125 31.5 173.15625 C 31.097656 175.855469 30.761719 178.5625 30.492188 181.28125 C 30.222656 184 30.023438 186.722656 29.886719 189.449219 C 29.75 192.175781 29.683594 194.90625 29.683594 197.636719 L 29.683594 615.566406 C 29.683594 615.929688 29.75 616.28125 29.890625 616.621094 C 30.03125 616.960938 30.230469 617.257812 30.488281 617.515625 C 30.75 617.773438 31.046875 617.972656 31.382812 618.113281 C 31.722656 618.253906 32.074219 618.324219 32.441406 618.324219 C 32.804688 618.324219 33.15625 618.253906 33.496094 618.113281 C 33.832031 617.972656 34.132812 617.773438 34.390625 617.515625 C 34.648438 617.257812 34.847656 616.957031 34.988281 616.621094 C 35.128906 616.28125 35.199219 615.929688 35.199219 615.566406 L 35.199219 197.636719 C 35.199219 194.992188 35.261719 192.355469 35.390625 189.714844 C 35.523438 187.078125 35.714844 184.445312 35.972656 181.816406 C 36.234375 179.1875 36.554688 176.566406 36.945312 173.957031 C 37.332031 171.34375 37.78125 168.742188 38.296875 166.152344 C 38.8125 163.5625 39.390625 160.984375 40.03125 158.421875 C 40.675781 155.859375 41.378906 153.316406 42.144531 150.789062 C 42.910156 148.261719 43.738281 145.753906 44.628906 143.269531 C 45.519531 140.78125 46.46875 138.316406 47.480469 135.878906 C 48.488281 133.4375 49.558594 131.023438 50.6875 128.636719 C 51.816406 126.25 53.003906 123.890625 54.25 121.5625 C 55.492188 119.230469 56.792969 116.933594 58.152344 114.667969 C 59.507812 112.402344 60.921875 110.171875 62.386719 107.976562 C 63.855469 105.78125 65.375 103.621094 66.949219 101.5 C 68.519531 99.378906 70.144531 97.296875 71.820312 95.257812 C 73.496094 93.214844 75.21875 91.214844 76.992188 89.257812 C 78.765625 87.300781 80.585938 85.390625 82.453125 83.523438 C 84.320312 81.65625 86.230469 79.835938 88.1875 78.0625 C 90.144531 76.289062 92.140625 74.5625 94.183594 72.886719 C 96.222656 71.210938 98.304688 69.585938 100.425781 68.015625 C 102.546875 66.441406 104.707031 64.921875 106.902344 63.453125 C 109.097656 61.984375 111.324219 60.574219 113.589844 59.214844 C 115.855469 57.859375 118.152344 56.554688 120.480469 55.3125 C 122.808594 54.066406 125.167969 52.878906 127.554688 51.75 C 129.941406 50.621094 132.355469 49.550781 134.792969 48.539062 C 137.234375 47.53125 139.695312 46.578125 142.183594 45.6875 C 144.667969 44.800781 147.175781 43.972656 149.699219 43.203125 C 152.226562 42.4375 154.773438 41.734375 157.332031 41.09375 C 159.894531 40.449219 162.46875 39.871094 165.058594 39.355469 C 167.648438 38.839844 170.25 38.390625 172.863281 38.003906 C 175.472656 37.613281 178.09375 37.292969 180.722656 37.03125 C 183.347656 36.773438 185.980469 36.578125 188.617188 36.449219 C 191.253906 36.320312 193.894531 36.253906 196.535156 36.253906 C 199.175781 36.253906 201.8125 36.320312 204.449219 36.449219 C 207.089844 36.578125 209.71875 36.773438 212.347656 37.03125 C 214.976562 37.292969 217.59375 37.613281 220.207031 38.003906 C 222.820312 38.390625 225.421875 38.839844 228.007812 39.355469 C 230.597656 39.871094 233.175781 40.449219 235.734375 41.09375 C 238.296875 41.734375 240.839844 42.4375 243.367188 43.203125 C 245.894531 43.972656 248.402344 44.800781 250.886719 45.6875 C 253.375 46.578125 255.835938 47.53125 258.273438 48.539062 C 260.714844 49.550781 263.128906 50.621094 265.515625 51.75 C 267.902344 52.878906 270.257812 54.066406 272.589844 55.3125 C 274.917969 56.554688 277.214844 57.859375 279.476562 59.214844 C 281.742188 60.574219 283.972656 61.984375 286.167969 63.453125 C 288.363281 64.921875 290.523438 66.441406 292.644531 68.015625 C 294.761719 69.585938 296.84375 71.210938 298.886719 72.886719 C 300.925781 74.5625 302.925781 76.289062 304.882812 78.0625 C 306.839844 79.835938 308.75 81.65625 310.617188 83.523438 C 312.484375 85.390625 314.304688 87.300781 316.078125 89.257812 C 317.851562 91.214844 319.574219 93.214844 321.25 95.257812 C 322.925781 97.296875 324.546875 99.378906 326.121094 101.5 C 327.695312 103.621094 329.214844 105.78125 330.679688 107.976562 C 332.148438 110.171875 333.558594 112.402344 334.917969 114.667969 C 336.273438 116.933594 337.574219 119.230469 338.820312 121.5625 C 340.066406 123.890625 341.253906 126.25 342.382812 128.636719 C 343.511719 131.023438 344.578125 133.4375 345.589844 135.878906 C 346.601562 138.316406 347.550781 140.78125 348.441406 143.269531 C 349.328125 145.753906 350.15625 148.261719 350.925781 150.789062 C 351.691406 153.316406 352.394531 155.859375 353.035156 158.421875 C 353.679688 160.984375 354.257812 163.5625 354.769531 166.152344 C 355.285156 168.742188 355.738281 171.34375 356.125 173.957031 C 356.511719 176.566406 356.835938 179.1875 357.09375 181.816406 C 357.351562 184.445312 357.546875 187.078125 357.675781 189.714844 C 357.804688 192.355469 357.871094 194.992188 357.871094 197.636719 L 357.871094 615.566406 C 357.871094 615.929688 357.941406 616.28125 358.082031 616.621094 C 358.222656 616.960938 358.421875 617.257812 358.679688 617.515625 C 358.9375 617.773438 359.234375 617.972656 359.574219 618.113281 C 359.910156 618.253906 360.261719 618.324219 360.628906 618.324219 C 360.996094 618.324219 361.347656 618.253906 361.683594 618.113281 C 362.023438 617.972656 362.320312 617.773438 362.578125 617.515625 C 362.835938 617.257812 363.039062 616.957031 363.175781 616.621094 C 363.316406 616.28125 363.386719 615.929688 363.386719 615.566406 Z M 333.726562 615.46875 L 333.726562 198.144531 C 333.726562 195.902344 333.671875 193.65625 333.5625 191.414062 C 333.449219 189.171875 333.285156 186.933594 333.066406 184.703125 C 332.847656 182.46875 332.570312 180.242188 332.242188 178.019531 C 331.914062 175.800781 331.527344 173.589844 331.089844 171.386719 C 330.652344 169.183594 330.160156 166.996094 329.617188 164.820312 C 329.070312 162.640625 328.472656 160.476562 327.820312 158.332031 C 327.171875 156.183594 326.464844 154.050781 325.710938 151.9375 C 324.953125 149.824219 324.148438 147.730469 323.289062 145.65625 C 322.429688 143.582031 321.519531 141.53125 320.5625 139.503906 C 319.601562 137.472656 318.59375 135.46875 317.535156 133.488281 C 316.476562 131.507812 315.371094 129.558594 314.21875 127.632812 C 313.0625 125.707031 311.863281 123.808594 310.617188 121.945312 C 309.371094 120.078125 308.078125 118.242188 306.742188 116.441406 C 305.40625 114.636719 304.023438 112.867188 302.601562 111.132812 C 301.175781 109.398438 299.710938 107.699219 298.203125 106.035156 C 296.699219 104.371094 295.152344 102.746094 293.5625 101.160156 C 291.976562 99.574219 290.351562 98.023438 288.6875 96.515625 C 287.027344 95.011719 285.328125 93.542969 283.59375 92.121094 C 281.859375 90.695312 280.089844 89.316406 278.289062 87.980469 C 276.484375 86.640625 274.652344 85.347656 272.785156 84.101562 C 270.917969 82.855469 269.023438 81.65625 267.097656 80.5 C 265.171875 79.347656 263.222656 78.242188 261.242188 77.183594 C 259.261719 76.125 257.257812 75.113281 255.230469 74.15625 C 253.203125 73.195312 251.152344 72.285156 249.078125 71.425781 C 247.003906 70.566406 244.910156 69.761719 242.796875 69.003906 C 240.6875 68.25 238.554688 67.542969 236.40625 66.894531 C 234.261719 66.242188 232.097656 65.644531 229.921875 65.097656 C 227.746094 64.550781 225.554688 64.058594 223.355469 63.621094 C 221.152344 63.183594 218.941406 62.800781 216.722656 62.472656 C 214.503906 62.140625 212.277344 61.867188 210.042969 61.648438 C 207.808594 61.425781 205.574219 61.261719 203.332031 61.152344 C 201.089844 61.042969 198.847656 60.988281 196.601562 60.988281 C 194.359375 60.988281 192.117188 61.042969 189.875 61.152344 C 187.632812 61.261719 185.394531 61.425781 183.164062 61.648438 C 180.929688 61.867188 178.703125 62.140625 176.484375 62.472656 C 174.261719 62.800781 172.054688 63.183594 169.851562 63.621094 C 167.652344 64.058594 165.460938 64.550781 163.285156 65.097656 C 161.109375 65.644531 158.945312 66.242188 156.800781 66.894531 C 154.652344 67.542969 152.519531 68.25 150.410156 69.003906 C 148.296875 69.761719 146.203125 70.566406 144.128906 71.425781 C 142.054688 72.285156 140.003906 73.195312 137.976562 74.15625 C 135.949219 75.113281 133.945312 76.125 131.964844 77.183594 C 129.984375 78.242188 128.035156 79.347656 126.109375 80.5 C 124.183594 81.65625 122.289062 82.855469 120.421875 84.101562 C 118.554688 85.347656 116.722656 86.640625 114.917969 87.980469 C 113.117188 89.316406 111.347656 90.695312 109.613281 92.121094 C 107.878906 93.542969 106.179688 95.011719 104.519531 96.515625 C 102.855469 98.023438 101.230469 99.574219 99.644531 101.160156 C 98.054688 102.746094 96.507812 104.371094 95.003906 106.035156 C 93.496094 107.699219 92.03125 109.398438 90.605469 111.132812 C 89.183594 112.867188 87.800781 114.636719 86.464844 116.441406 C 85.128906 118.242188 83.835938 120.078125 82.589844 121.945312 C 81.34375 123.808594 80.144531 125.707031 78.988281 127.632812 C 77.835938 129.558594 76.730469 131.507812 75.671875 133.488281 C 74.613281 135.46875 73.605469 137.472656 72.644531 139.503906 C 71.6875 141.53125 70.777344 143.582031 69.917969 145.65625 C 69.058594 147.730469 68.253906 149.824219 67.496094 151.9375 C 66.742188 154.050781 66.035156 156.183594 65.386719 158.332031 C 64.734375 160.476562 64.136719 162.640625 63.589844 164.820312 C 63.046875 166.996094 62.554688 169.183594 62.117188 171.386719 C 61.679688 173.589844 61.292969 175.800781 60.964844 178.019531 C 60.636719 180.242188 60.359375 182.46875 60.140625 184.703125 C 59.921875 186.933594 59.757812 189.171875 59.644531 191.414062 C 59.535156 193.65625 59.480469 195.902344 59.480469 198.144531 L 59.480469 615.46875 C 59.480469 615.835938 59.550781 616.1875 59.691406 616.523438 C 59.832031 616.863281 60.03125 617.160156 60.289062 617.417969 C 60.546875 617.679688 60.84375 617.878906 61.183594 618.015625 C 61.519531 618.15625 61.875 618.226562 62.238281 618.226562 C 62.605469 618.226562 62.957031 618.15625 63.292969 618.015625 C 63.632812 617.878906 63.929688 617.679688 64.1875 617.417969 C 64.449219 617.160156 64.648438 616.863281 64.785156 616.523438 C 64.925781 616.1875 64.996094 615.835938 64.996094 615.46875 L 64.996094 198.144531 C 64.996094 195.992188 65.050781 193.835938 65.15625 191.6875 C 65.261719 189.535156 65.417969 187.386719 65.628906 185.242188 C 65.839844 183.097656 66.105469 180.960938 66.421875 178.828125 C 66.738281 176.699219 67.105469 174.578125 67.527344 172.464844 C 67.945312 170.351562 68.417969 168.25 68.941406 166.160156 C 69.464844 164.070312 70.039062 161.992188 70.664062 159.933594 C 71.289062 157.871094 71.964844 155.824219 72.691406 153.796875 C 73.414062 151.769531 74.191406 149.757812 75.015625 147.769531 C 75.839844 145.777344 76.710938 143.808594 77.632812 141.863281 C 78.554688 139.914062 79.519531 137.988281 80.535156 136.089844 C 81.550781 134.191406 82.613281 132.316406 83.71875 130.46875 C 84.828125 128.621094 85.980469 126.800781 87.175781 125.007812 C 88.375 123.21875 89.613281 121.457031 90.894531 119.726562 C 92.179688 117.996094 93.503906 116.296875 94.871094 114.632812 C 96.238281 112.96875 97.644531 111.335938 99.089844 109.742188 C 100.535156 108.144531 102.019531 106.585938 103.542969 105.0625 C 105.066406 103.539062 106.625 102.050781 108.222656 100.605469 C 109.816406 99.160156 111.449219 97.753906 113.113281 96.386719 C 114.777344 95.019531 116.476562 93.695312 118.207031 92.410156 C 119.933594 91.125 121.695312 89.886719 123.488281 88.691406 C 125.277344 87.492188 127.097656 86.339844 128.945312 85.234375 C 130.792969 84.125 132.664062 83.0625 134.566406 82.046875 C 136.464844 81.03125 138.386719 80.0625 140.335938 79.144531 C 142.28125 78.222656 144.25 77.347656 146.238281 76.523438 C 148.230469 75.699219 150.238281 74.925781 152.265625 74.199219 C 154.292969 73.472656 156.339844 72.796875 158.398438 72.171875 C 160.460938 71.546875 162.535156 70.972656 164.625 70.449219 C 166.714844 69.925781 168.816406 69.453125 170.929688 69.035156 C 173.039062 68.613281 175.164062 68.246094 177.292969 67.929688 C 179.421875 67.613281 181.558594 67.347656 183.703125 67.136719 C 185.847656 66.925781 187.996094 66.769531 190.144531 66.664062 C 192.296875 66.558594 194.449219 66.503906 196.601562 66.503906 C 198.757812 66.503906 200.910156 66.558594 203.0625 66.664062 C 205.210938 66.769531 207.359375 66.925781 209.503906 67.136719 C 211.648438 67.347656 213.785156 67.613281 215.914062 67.929688 C 218.042969 68.246094 220.167969 68.613281 222.277344 69.035156 C 224.390625 69.453125 226.492188 69.925781 228.582031 70.449219 C 230.671875 70.972656 232.746094 71.546875 234.808594 72.171875 C 236.867188 72.796875 238.914062 73.472656 240.941406 74.199219 C 242.96875 74.925781 244.976562 75.699219 246.96875 76.523438 C 248.957031 77.347656 250.925781 78.222656 252.871094 79.144531 C 254.820312 80.0625 256.742188 81.03125 258.640625 82.046875 C 260.542969 83.0625 262.414062 84.125 264.261719 85.234375 C 266.109375 86.339844 267.929688 87.492188 269.71875 88.691406 C 271.511719 89.886719 273.273438 91.125 275 92.410156 C 276.730469 93.695312 278.429688 95.019531 280.09375 96.386719 C 281.757812 97.753906 283.390625 99.160156 284.984375 100.605469 C 286.582031 102.050781 288.140625 103.539062 289.664062 105.0625 C 291.1875 106.585938 292.671875 108.144531 294.117188 109.742188 C 295.5625 111.335938 296.96875 112.96875 298.335938 114.632812 C 299.703125 116.296875 301.027344 117.996094 302.3125 119.726562 C 303.59375 121.457031 304.832031 123.21875 306.03125 125.007812 C 307.226562 126.800781 308.378906 128.621094 309.484375 130.46875 C 310.59375 132.316406 311.65625 134.191406 312.671875 136.089844 C 313.683594 137.988281 314.652344 139.914062 315.574219 141.863281 C 316.496094 143.808594 317.367188 145.777344 318.191406 147.769531 C 319.015625 149.757812 319.792969 151.769531 320.515625 153.796875 C 321.242188 155.824219 321.917969 157.871094 322.542969 159.933594 C 323.167969 161.992188 323.742188 164.070312 324.265625 166.160156 C 324.789062 168.25 325.261719 170.351562 325.679688 172.464844 C 326.101562 174.578125 326.46875 176.699219 326.785156 178.828125 C 327.101562 180.960938 327.367188 183.097656 327.578125 185.242188 C 327.789062 187.386719 327.945312 189.535156 328.050781 191.6875 C 328.15625 193.835938 328.210938 195.992188 328.210938 198.144531 L 328.210938 615.46875 C 328.210938 615.835938 328.28125 616.1875 328.421875 616.523438 C 328.558594 616.863281 328.757812 617.160156 329.019531 617.417969 C 329.277344 617.679688 329.574219 617.878906 329.914062 618.015625 C 330.25 618.15625 330.601562 618.226562 330.96875 618.226562 C 331.332031 618.226562 331.6875 618.15625 332.023438 618.015625 C 332.359375 617.878906 332.660156 617.679688 332.917969 617.417969 C 333.175781 617.160156 333.375 616.863281 333.515625 616.523438 C 333.65625 616.1875 333.726562 615.835938 333.726562 615.46875 Z M 304.007812 615.386719 L 304.007812 198.695312 C 304.03125 196.925781 304.007812 195.15625 303.9375 193.386719 C 303.871094 191.617188 303.761719 189.847656 303.605469 188.085938 C 303.449219 186.320312 303.253906 184.558594 303.011719 182.804688 C 302.769531 181.050781 302.484375 179.304688 302.15625 177.5625 C 301.828125 175.824219 301.457031 174.089844 301.042969 172.371094 C 300.628906 170.648438 300.171875 168.9375 299.675781 167.238281 C 299.175781 165.539062 298.636719 163.851562 298.054688 162.179688 C 297.472656 160.503906 296.847656 158.847656 296.1875 157.207031 C 295.523438 155.5625 294.816406 153.9375 294.074219 152.332031 C 293.328125 150.726562 292.546875 149.136719 291.722656 147.570312 C 290.902344 146 290.042969 144.453125 289.140625 142.925781 C 288.242188 141.402344 287.308594 139.898438 286.332031 138.417969 C 285.359375 136.9375 284.351562 135.484375 283.304688 134.054688 C 282.261719 132.625 281.179688 131.222656 280.066406 129.84375 C 278.953125 128.46875 277.804688 127.121094 276.621094 125.800781 C 275.441406 124.484375 274.226562 123.191406 272.984375 121.933594 C 271.738281 120.675781 270.464844 119.445312 269.15625 118.25 C 267.851562 117.054688 266.515625 115.890625 265.152344 114.757812 C 263.789062 113.628906 262.402344 112.53125 260.984375 111.472656 C 259.566406 110.410156 258.125 109.382812 256.65625 108.394531 C 255.1875 107.402344 253.695312 106.449219 252.179688 105.535156 C 250.664062 104.617188 249.128906 103.738281 247.570312 102.898438 C 246.011719 102.058594 244.433594 101.257812 242.832031 100.492188 C 241.234375 99.730469 239.621094 99.007812 237.984375 98.328125 C 236.351562 97.644531 234.703125 97.003906 233.035156 96.402344 C 231.371094 95.800781 229.691406 95.242188 227.996094 94.722656 C 226.304688 94.207031 224.597656 93.730469 222.882812 93.296875 C 221.164062 92.863281 219.4375 92.472656 217.703125 92.125 C 215.964844 91.777344 214.222656 91.472656 212.472656 91.210938 C 210.71875 90.949219 208.964844 90.730469 207.203125 90.554688 C 205.4375 90.382812 203.675781 90.25 201.90625 90.164062 C 200.136719 90.074219 198.367188 90.03125 196.597656 90.03125 C 194.824219 90.03125 193.054688 90.074219 191.289062 90.164062 C 189.519531 90.25 187.753906 90.382812 185.992188 90.554688 C 184.230469 90.730469 182.472656 90.949219 180.722656 91.210938 C 178.96875 91.472656 177.226562 91.777344 175.492188 92.125 C 173.753906 92.472656 172.027344 92.863281 170.3125 93.296875 C 168.59375 93.730469 166.890625 94.207031 165.195312 94.722656 C 163.503906 95.242188 161.824219 95.800781 160.15625 96.402344 C 158.492188 97.003906 156.839844 97.644531 155.207031 98.328125 C 153.574219 99.007812 151.957031 99.730469 150.359375 100.492188 C 148.761719 101.257812 147.183594 102.058594 145.625 102.898438 C 144.066406 103.738281 142.527344 104.617188 141.011719 105.535156 C 139.496094 106.449219 138.007812 107.402344 136.539062 108.394531 C 135.070312 109.382812 133.628906 110.410156 132.210938 111.472656 C 130.792969 112.53125 129.402344 113.628906 128.039062 114.757812 C 126.675781 115.890625 125.339844 117.054688 124.035156 118.25 C 122.730469 119.445312 121.453125 120.675781 120.210938 121.933594 C 118.964844 123.191406 117.75 124.484375 116.570312 125.800781 C 115.390625 127.121094 114.242188 128.46875 113.125 129.84375 C 112.011719 131.222656 110.933594 132.625 109.886719 134.054688 C 108.84375 135.484375 107.832031 136.9375 106.859375 138.417969 C 105.886719 139.898438 104.949219 141.402344 104.050781 142.925781 C 103.152344 144.453125 102.292969 146 101.46875 147.570312 C 100.644531 149.136719 99.863281 150.726562 99.117188 152.332031 C 98.375 153.9375 97.671875 155.5625 97.007812 157.207031 C 96.34375 158.847656 95.722656 160.503906 95.140625 162.179688 C 94.558594 163.851562 94.019531 165.539062 93.519531 167.238281 C 93.019531 168.9375 92.566406 170.648438 92.152344 172.371094 C 91.738281 174.089844 91.367188 175.824219 91.039062 177.5625 C 90.710938 179.304688 90.425781 181.050781 90.183594 182.804688 C 89.941406 184.558594 89.742188 186.320312 89.589844 188.085938 C 89.433594 189.847656 89.320312 191.617188 89.253906 193.386719 C 89.1875 195.15625 89.164062 196.925781 89.183594 198.695312 L 89.183594 615.386719 C 89.183594 615.75 89.253906 616.105469 89.394531 616.441406 C 89.535156 616.78125 89.734375 617.078125 89.992188 617.335938 C 90.25 617.59375 90.546875 617.792969 90.886719 617.933594 C 91.222656 618.074219 91.574219 618.144531 91.941406 618.144531 C 92.308594 618.144531 92.660156 618.074219 92.996094 617.933594 C 93.335938 617.792969 93.632812 617.59375 93.890625 617.335938 C 94.148438 617.078125 94.347656 616.78125 94.488281 616.441406 C 94.628906 616.105469 94.699219 615.75 94.699219 615.386719 L 94.699219 198.695312 C 94.679688 197.015625 94.703125 195.335938 94.765625 193.65625 C 94.828125 191.976562 94.933594 190.300781 95.082031 188.628906 C 95.226562 186.953125 95.414062 185.285156 95.644531 183.617188 C 95.871094 181.953125 96.140625 180.296875 96.453125 178.644531 C 96.765625 176.992188 97.117188 175.351562 97.507812 173.714844 C 97.898438 172.082031 98.332031 170.457031 98.804688 168.84375 C 99.277344 167.234375 99.789062 165.632812 100.339844 164.046875 C 100.894531 162.457031 101.484375 160.886719 102.113281 159.328125 C 102.742188 157.769531 103.410156 156.226562 104.113281 154.703125 C 104.820312 153.175781 105.5625 151.671875 106.34375 150.183594 C 107.125 148.691406 107.941406 147.226562 108.792969 145.777344 C 109.644531 144.328125 110.535156 142.902344 111.457031 141.5 C 112.378906 140.09375 113.335938 138.714844 114.328125 137.359375 C 115.320312 136 116.34375 134.667969 117.402344 133.363281 C 118.460938 132.058594 119.546875 130.777344 120.667969 129.527344 C 121.789062 128.273438 122.941406 127.050781 124.121094 125.855469 C 125.300781 124.660156 126.511719 123.496094 127.75 122.359375 C 128.988281 121.222656 130.253906 120.121094 131.550781 119.046875 C 132.84375 117.976562 134.160156 116.933594 135.507812 115.925781 C 136.851562 114.917969 138.21875 113.945312 139.613281 113.007812 C 141.003906 112.066406 142.421875 111.160156 143.859375 110.292969 C 145.296875 109.421875 146.753906 108.589844 148.234375 107.792969 C 149.710938 106.992188 151.210938 106.234375 152.726562 105.507812 C 154.242188 104.785156 155.777344 104.101562 157.324219 103.453125 C 158.875 102.804688 160.441406 102.195312 162.023438 101.625 C 163.601562 101.054688 165.195312 100.523438 166.800781 100.035156 C 168.410156 99.542969 170.027344 99.089844 171.65625 98.679688 C 173.285156 98.269531 174.921875 97.898438 176.570312 97.566406 C 178.21875 97.238281 179.871094 96.949219 181.535156 96.699219 C 183.195312 96.453125 184.863281 96.242188 186.535156 96.078125 C 188.207031 95.914062 189.882812 95.789062 191.558594 95.703125 C 193.238281 95.621094 194.917969 95.578125 196.597656 95.578125 C 198.277344 95.578125 199.957031 95.621094 201.632812 95.703125 C 203.3125 95.789062 204.988281 95.914062 206.660156 96.078125 C 208.332031 96.242188 209.996094 96.453125 211.660156 96.699219 C 213.320312 96.949219 214.976562 97.238281 216.621094 97.566406 C 218.269531 97.898438 219.90625 98.269531 221.535156 98.679688 C 223.164062 99.089844 224.785156 99.542969 226.390625 100.035156 C 227.996094 100.523438 229.589844 101.054688 231.171875 101.625 C 232.75 102.195312 234.316406 102.804688 235.867188 103.453125 C 237.417969 104.101562 238.949219 104.785156 240.46875 105.507812 C 241.984375 106.234375 243.480469 106.992188 244.960938 107.792969 C 246.4375 108.589844 247.898438 109.421875 249.335938 110.292969 C 250.773438 111.160156 252.1875 112.066406 253.582031 113.007812 C 254.972656 113.945312 256.34375 114.917969 257.6875 115.925781 C 259.03125 116.933594 260.351562 117.976562 261.644531 119.046875 C 262.9375 120.121094 264.203125 121.222656 265.441406 122.359375 C 266.679688 123.496094 267.890625 124.660156 269.070312 125.855469 C 270.253906 127.050781 271.402344 128.273438 272.523438 129.527344 C 273.644531 130.777344 274.734375 132.058594 275.789062 133.363281 C 276.847656 134.667969 277.871094 136 278.863281 137.359375 C 279.855469 138.714844 280.8125 140.09375 281.734375 141.5 C 282.660156 142.902344 283.546875 144.328125 284.398438 145.777344 C 285.253906 147.226562 286.070312 148.691406 286.847656 150.183594 C 287.628906 151.671875 288.371094 153.175781 289.078125 154.703125 C 289.785156 156.226562 290.449219 157.769531 291.082031 159.328125 C 291.710938 160.886719 292.300781 162.457031 292.851562 164.046875 C 293.402344 165.632812 293.914062 167.234375 294.386719 168.84375 C 294.859375 170.457031 295.292969 172.082031 295.683594 173.714844 C 296.078125 175.351562 296.429688 176.992188 296.738281 178.644531 C 297.050781 180.296875 297.320312 181.953125 297.550781 183.617188 C 297.777344 185.285156 297.964844 186.953125 298.113281 188.628906 C 298.257812 190.300781 298.363281 191.976562 298.429688 193.65625 C 298.492188 195.335938 298.511719 197.015625 298.492188 198.695312 L 298.492188 615.386719 C 298.492188 615.75 298.5625 616.105469 298.703125 616.441406 C 298.84375 616.78125 299.042969 617.078125 299.300781 617.335938 C 299.558594 617.59375 299.859375 617.792969 300.195312 617.933594 C 300.535156 618.074219 300.886719 618.144531 301.25 618.144531 C 301.617188 618.144531 301.96875 618.074219 302.308594 617.933594 C 302.644531 617.792969 302.941406 617.59375 303.203125 617.335938 C 303.460938 617.078125 303.660156 616.78125 303.800781 616.441406 C 303.941406 616.105469 304.007812 615.75 304.007812 615.386719 Z M 274.308594 615.289062 L 274.308594 199.234375 C 274.308594 197.964844 274.277344 196.691406 274.214844 195.421875 C 274.152344 194.152344 274.058594 192.882812 273.933594 191.617188 C 273.808594 190.351562 273.652344 189.089844 273.464844 187.832031 C 273.28125 186.570312 273.0625 185.320312 272.8125 184.070312 C 272.566406 182.824219 272.289062 181.582031 271.976562 180.347656 C 271.667969 179.117188 271.332031 177.890625 270.960938 176.671875 C 270.59375 175.457031 270.191406 174.25 269.765625 173.050781 C 269.335938 171.851562 268.878906 170.667969 268.390625 169.492188 C 267.90625 168.316406 267.390625 167.152344 266.847656 166.003906 C 266.304688 164.855469 265.730469 163.71875 265.132812 162.597656 C 264.53125 161.472656 263.90625 160.367188 263.253906 159.277344 C 262.597656 158.1875 261.917969 157.113281 261.210938 156.054688 C 260.503906 154.996094 259.773438 153.957031 259.015625 152.933594 C 258.257812 151.914062 257.476562 150.910156 256.667969 149.925781 C 255.863281 148.945312 255.03125 147.980469 254.179688 147.039062 C 253.324219 146.097656 252.449219 145.175781 251.546875 144.277344 C 250.648438 143.375 249.726562 142.5 248.785156 141.644531 C 247.84375 140.789062 246.882812 139.960938 245.898438 139.152344 C 244.914062 138.347656 243.914062 137.5625 242.890625 136.804688 C 241.871094 136.046875 240.832031 135.316406 239.773438 134.609375 C 238.714844 133.902344 237.640625 133.222656 236.550781 132.570312 C 235.460938 131.914062 234.355469 131.289062 233.234375 130.6875 C 232.109375 130.089844 230.976562 129.515625 229.824219 128.972656 C 228.675781 128.429688 227.515625 127.914062 226.339844 127.425781 C 225.164062 126.941406 223.976562 126.484375 222.78125 126.054688 C 221.582031 125.625 220.375 125.226562 219.160156 124.859375 C 217.941406 124.488281 216.71875 124.148438 215.484375 123.839844 C 214.25 123.53125 213.011719 123.253906 211.761719 123.003906 C 210.515625 122.757812 209.261719 122.539062 208.003906 122.351562 C 206.746094 122.164062 205.484375 122.011719 204.21875 121.886719 C 202.953125 121.761719 201.6875 121.667969 200.417969 121.605469 C 199.144531 121.542969 197.875 121.511719 196.601562 121.511719 C 195.332031 121.511719 194.0625 121.542969 192.789062 121.605469 C 191.519531 121.667969 190.253906 121.761719 188.988281 121.886719 C 187.722656 122.011719 186.460938 122.164062 185.203125 122.351562 C 183.945312 122.539062 182.691406 122.757812 181.445312 123.003906 C 180.195312 123.253906 178.957031 123.53125 177.722656 123.839844 C 176.488281 124.148438 175.265625 124.488281 174.046875 124.859375 C 172.832031 125.226562 171.625 125.625 170.425781 126.054688 C 169.226562 126.484375 168.042969 126.941406 166.867188 127.425781 C 165.691406 127.914062 164.53125 128.429688 163.378906 128.972656 C 162.230469 129.515625 161.097656 130.089844 159.972656 130.6875 C 158.851562 131.289062 157.746094 131.914062 156.65625 132.570312 C 155.566406 133.222656 154.492188 133.902344 153.433594 134.609375 C 152.375 135.316406 151.335938 136.046875 150.316406 136.804688 C 149.292969 137.5625 148.292969 138.347656 147.308594 139.152344 C 146.324219 139.960938 145.363281 140.789062 144.421875 141.644531 C 143.480469 142.5 142.558594 143.375 141.660156 144.277344 C 140.757812 145.175781 139.882812 146.097656 139.027344 147.039062 C 138.175781 147.980469 137.34375 148.945312 136.539062 149.925781 C 135.730469 150.910156 134.949219 151.914062 134.191406 152.933594 C 133.433594 153.957031 132.703125 154.996094 131.996094 156.054688 C 131.289062 157.113281 130.609375 158.1875 129.953125 159.277344 C 129.300781 160.367188 128.675781 161.472656 128.074219 162.597656 C 127.476562 163.71875 126.902344 164.855469 126.359375 166.003906 C 125.816406 167.152344 125.300781 168.316406 124.816406 169.492188 C 124.328125 170.667969 123.871094 171.851562 123.441406 173.050781 C 123.011719 174.25 122.613281 175.457031 122.246094 176.671875 C 121.875 177.890625 121.539062 179.117188 121.226562 180.347656 C 120.917969 181.582031 120.640625 182.824219 120.394531 184.070312 C 120.144531 185.320312 119.925781 186.570312 119.742188 187.832031 C 119.554688 189.089844 119.398438 190.351562 119.273438 191.617188 C 119.148438 192.882812 119.054688 194.152344 118.992188 195.421875 C 118.929688 196.691406 118.898438 197.964844 118.898438 199.234375 L 118.898438 615.289062 C 118.898438 615.65625 118.96875 616.007812 119.109375 616.34375 C 119.25 616.683594 119.449219 616.980469 119.707031 617.238281 C 119.964844 617.5 120.265625 617.699219 120.601562 617.839844 C 120.941406 617.976562 121.292969 618.046875 121.65625 618.046875 C 122.023438 618.046875 122.375 617.976562 122.714844 617.839844 C 123.050781 617.699219 123.347656 617.5 123.609375 617.238281 C 123.867188 616.980469 124.066406 616.683594 124.207031 616.34375 C 124.34375 616.007812 124.414062 615.65625 124.414062 615.289062 L 124.414062 199.234375 C 124.414062 198.054688 124.445312 196.871094 124.503906 195.691406 C 124.558594 194.511719 124.648438 193.332031 124.761719 192.15625 C 124.878906 190.980469 125.023438 189.808594 125.195312 188.640625 C 125.371094 187.472656 125.570312 186.308594 125.800781 185.148438 C 126.03125 183.988281 126.292969 182.835938 126.578125 181.691406 C 126.867188 180.542969 127.179688 179.40625 127.523438 178.273438 C 127.867188 177.144531 128.238281 176.023438 128.636719 174.910156 C 129.035156 173.796875 129.457031 172.695312 129.910156 171.601562 C 130.363281 170.511719 130.839844 169.429688 131.347656 168.363281 C 131.851562 167.292969 132.382812 166.238281 132.9375 165.195312 C 133.496094 164.15625 134.078125 163.125 134.6875 162.113281 C 135.292969 161.097656 135.925781 160.101562 136.582031 159.117188 C 137.238281 158.136719 137.917969 157.171875 138.621094 156.222656 C 139.324219 155.273438 140.050781 154.339844 140.800781 153.425781 C 141.550781 152.515625 142.324219 151.621094 143.117188 150.742188 C 143.910156 149.867188 144.722656 149.011719 145.558594 148.175781 C 146.394531 147.339844 147.25 146.527344 148.125 145.734375 C 149 144.941406 149.894531 144.167969 150.808594 143.417969 C 151.722656 142.667969 152.652344 141.941406 153.601562 141.238281 C 154.550781 140.535156 155.515625 139.855469 156.496094 139.195312 C 157.480469 138.539062 158.476562 137.910156 159.492188 137.300781 C 160.503906 136.695312 161.53125 136.109375 162.574219 135.554688 C 163.617188 134.996094 164.671875 134.464844 165.738281 133.960938 C 166.808594 133.457031 167.886719 132.976562 168.976562 132.523438 C 170.070312 132.074219 171.171875 131.648438 172.285156 131.25 C 173.394531 130.851562 174.519531 130.480469 175.648438 130.136719 C 176.777344 129.792969 177.917969 129.480469 179.0625 129.191406 C 180.210938 128.90625 181.363281 128.644531 182.519531 128.414062 C 183.679688 128.183594 184.84375 127.984375 186.011719 127.808594 C 187.179688 127.636719 188.351562 127.492188 189.527344 127.375 C 190.703125 127.261719 191.882812 127.171875 193.0625 127.113281 C 194.242188 127.058594 195.421875 127.027344 196.601562 127.027344 C 197.785156 127.027344 198.964844 127.058594 200.144531 127.113281 C 201.324219 127.171875 202.503906 127.261719 203.679688 127.375 C 204.855469 127.492188 206.027344 127.636719 207.195312 127.808594 C 208.363281 127.984375 209.527344 128.183594 210.6875 128.414062 C 211.84375 128.644531 212.996094 128.90625 214.144531 129.191406 C 215.289062 129.480469 216.429688 129.792969 217.558594 130.136719 C 218.6875 130.480469 219.808594 130.851562 220.921875 131.25 C 222.035156 131.648438 223.136719 132.074219 224.230469 132.523438 C 225.320312 132.976562 226.398438 133.457031 227.46875 133.960938 C 228.535156 134.464844 229.589844 134.996094 230.632812 135.554688 C 231.675781 136.109375 232.703125 136.695312 233.714844 137.300781 C 234.730469 137.910156 235.726562 138.539062 236.707031 139.195312 C 237.691406 139.855469 238.65625 140.535156 239.605469 141.238281 C 240.554688 141.941406 241.484375 142.667969 242.398438 143.417969 C 243.3125 144.167969 244.207031 144.941406 245.082031 145.734375 C 245.957031 146.527344 246.8125 147.339844 247.648438 148.175781 C 248.484375 149.011719 249.296875 149.867188 250.089844 150.742188 C 250.882812 151.621094 251.65625 152.515625 252.40625 153.425781 C 253.15625 154.339844 253.882812 155.273438 254.585938 156.222656 C 255.289062 157.171875 255.96875 158.136719 256.625 159.117188 C 257.28125 160.101562 257.914062 161.097656 258.519531 162.113281 C 259.128906 163.125 259.710938 164.15625 260.265625 165.195312 C 260.824219 166.238281 261.355469 167.292969 261.859375 168.363281 C 262.367188 169.429688 262.84375 170.511719 263.296875 171.601562 C 263.75 172.695312 264.171875 173.796875 264.570312 174.910156 C 264.96875 176.023438 265.339844 177.144531 265.683594 178.273438 C 266.027344 179.40625 266.339844 180.542969 266.628906 181.691406 C 266.914062 182.835938 267.171875 183.988281 267.402344 185.148438 C 267.632812 186.308594 267.835938 187.472656 268.011719 188.640625 C 268.183594 189.808594 268.328125 190.980469 268.445312 192.15625 C 268.558594 193.332031 268.644531 194.511719 268.703125 195.691406 C 268.761719 196.871094 268.792969 198.054688 268.792969 199.234375 L 268.792969 615.289062 C 268.792969 615.65625 268.859375 616.007812 269 616.34375 C 269.140625 616.683594 269.339844 616.980469 269.597656 617.238281 C 269.859375 617.5 270.15625 617.699219 270.492188 617.839844 C 270.832031 617.976562 271.183594 618.046875 271.550781 618.046875 C 271.914062 618.046875 272.265625 617.976562 272.605469 617.839844 C 272.941406 617.699219 273.242188 617.5 273.5 617.238281 C 273.757812 616.980469 273.957031 616.683594 274.097656 616.34375 C 274.238281 616.007812 274.308594 615.65625 274.308594 615.289062 Z M 244.589844 615.207031 L 244.589844 199.773438 C 244.617188 198.183594 244.566406 196.597656 244.433594 195.011719 C 244.304688 193.429688 244.097656 191.855469 243.808594 190.292969 C 243.523438 188.726562 243.160156 187.183594 242.71875 185.65625 C 242.277344 184.128906 241.761719 182.625 241.171875 181.148438 C 240.585938 179.675781 239.921875 178.230469 239.191406 176.820312 C 238.457031 175.410156 237.65625 174.039062 236.789062 172.707031 C 235.917969 171.378906 234.988281 170.09375 233.992188 168.855469 C 232.996094 167.617188 231.9375 166.429688 230.824219 165.296875 C 229.710938 164.164062 228.542969 163.089844 227.324219 162.070312 C 226.101562 161.054688 224.832031 160.097656 223.519531 159.207031 C 222.203125 158.316406 220.84375 157.492188 219.449219 156.734375 C 218.050781 155.976562 216.617188 155.292969 215.152344 154.679688 C 213.6875 154.0625 212.195312 153.523438 210.675781 153.058594 C 209.15625 152.589844 207.617188 152.203125 206.0625 151.886719 C 204.503906 151.574219 202.933594 151.339844 201.351562 151.179688 C 199.769531 151.023438 198.1875 150.945312 196.597656 150.945312 C 195.007812 150.945312 193.421875 151.023438 191.839844 151.179688 C 190.257812 151.339844 188.691406 151.574219 187.132812 151.886719 C 185.574219 152.203125 184.035156 152.589844 182.515625 153.058594 C 180.996094 153.523438 179.503906 154.0625 178.039062 154.679688 C 176.574219 155.292969 175.140625 155.976562 173.746094 156.734375 C 172.347656 157.492188 170.992188 158.316406 169.675781 159.207031 C 168.359375 160.097656 167.089844 161.054688 165.871094 162.070312 C 164.648438 163.089844 163.480469 164.164062 162.367188 165.296875 C 161.253906 166.429688 160.199219 167.617188 159.203125 168.855469 C 158.207031 170.09375 157.273438 171.378906 156.40625 172.707031 C 155.535156 174.039062 154.734375 175.410156 154.003906 176.820312 C 153.269531 178.230469 152.609375 179.675781 152.019531 181.148438 C 151.429688 182.625 150.914062 184.128906 150.476562 185.65625 C 150.035156 187.183594 149.671875 188.726562 149.382812 190.292969 C 149.097656 191.855469 148.886719 193.429688 148.757812 195.011719 C 148.628906 196.597656 148.574219 198.183594 148.601562 199.773438 L 148.601562 615.207031 C 148.601562 615.574219 148.671875 615.925781 148.8125 616.261719 C 148.953125 616.601562 149.152344 616.898438 149.410156 617.15625 C 149.667969 617.417969 149.96875 617.617188 150.304688 617.753906 C 150.644531 617.894531 150.996094 617.964844 151.359375 617.964844 C 151.726562 617.964844 152.078125 617.894531 152.414062 617.753906 C 152.753906 617.617188 153.050781 617.417969 153.308594 617.15625 C 153.570312 616.898438 153.769531 616.601562 153.90625 616.261719 C 154.046875 615.925781 154.117188 615.574219 154.117188 615.207031 L 154.117188 199.773438 C 154.09375 198.367188 154.136719 196.960938 154.25 195.558594 C 154.367188 194.152344 154.550781 192.757812 154.800781 191.375 C 155.054688 189.988281 155.375 188.621094 155.765625 187.269531 C 156.152344 185.914062 156.609375 184.585938 157.128906 183.277344 C 157.648438 181.96875 158.234375 180.691406 158.882812 179.441406 C 159.53125 178.191406 160.238281 176.976562 161.007812 175.796875 C 161.777344 174.617188 162.601562 173.480469 163.484375 172.382812 C 164.367188 171.285156 165.300781 170.234375 166.285156 169.230469 C 167.273438 168.226562 168.304688 167.273438 169.386719 166.371094 C 170.46875 165.46875 171.589844 164.625 172.753906 163.832031 C 173.917969 163.042969 175.121094 162.3125 176.359375 161.640625 C 177.597656 160.972656 178.863281 160.363281 180.160156 159.820312 C 181.460938 159.273438 182.78125 158.796875 184.125 158.382812 C 185.472656 157.96875 186.835938 157.625 188.214844 157.347656 C 189.59375 157.070312 190.984375 156.859375 192.382812 156.71875 C 193.785156 156.582031 195.1875 156.511719 196.597656 156.511719 C 198.003906 156.511719 199.40625 156.582031 200.808594 156.71875 C 202.207031 156.859375 203.597656 157.070312 204.980469 157.347656 C 206.359375 157.625 207.722656 157.96875 209.066406 158.382812 C 210.410156 158.796875 211.734375 159.273438 213.03125 159.820312 C 214.328125 160.363281 215.597656 160.972656 216.835938 161.640625 C 218.070312 162.3125 219.273438 163.042969 220.4375 163.832031 C 221.601562 164.625 222.726562 165.46875 223.808594 166.371094 C 224.886719 167.273438 225.921875 168.226562 226.90625 169.230469 C 227.894531 170.234375 228.828125 171.285156 229.710938 172.382812 C 230.589844 173.480469 231.417969 174.617188 232.183594 175.796875 C 232.953125 176.976562 233.664062 178.191406 234.308594 179.441406 C 234.957031 180.691406 235.542969 181.96875 236.0625 183.277344 C 236.585938 184.585938 237.039062 185.914062 237.429688 187.269531 C 237.816406 188.621094 238.136719 189.988281 238.390625 191.375 C 238.644531 192.757812 238.828125 194.152344 238.941406 195.558594 C 239.054688 196.960938 239.101562 198.367188 239.074219 199.773438 L 239.074219 615.207031 C 239.074219 615.574219 239.144531 615.925781 239.285156 616.261719 C 239.425781 616.601562 239.625 616.898438 239.882812 617.15625 C 240.140625 617.417969 240.441406 617.617188 240.777344 617.753906 C 241.117188 617.894531 241.46875 617.964844 241.832031 617.964844 C 242.199219 617.964844 242.550781 617.894531 242.886719 617.753906 C 243.226562 617.617188 243.523438 617.417969 243.78125 617.15625 C 244.042969 616.898438 244.242188 616.601562 244.378906 616.261719 C 244.519531 615.925781 244.589844 615.574219 244.589844 615.207031 Z M 244.589844 615.207031 " fill-opacity="1" fill-rule="nonzero"/></g></g></g></g><g clip-path="url(#be8a8146b0)"><path fill="#4e6470" d="M 624.453125 268.832031 L 620.015625 264.386719 L 710.953125 173.292969 L 715.390625 177.738281 Z M 616.613281 177.738281 L 612.175781 173.292969 L 521.238281 264.386719 L 525.675781 268.832031 Z M 517.835938 177.738281 L 513.398438 173.292969 L 422.460938 264.386719 L 426.894531 268.832031 Z M 419.058594 177.738281 L 414.621094 173.292969 L 323.679688 264.386719 L 328.117188 268.832031 Z M 320.277344 177.738281 L 315.714844 173.261719 L 224.777344 264.355469 L 229.199219 268.800781 Z M 814.292969 177.738281 L 809.855469 173.292969 L 718.917969 264.386719 L 723.355469 268.832031 Z M 221.46875 177.738281 L 216.9375 173.261719 L 126 264.355469 L 130.4375 268.800781 Z M 715.484375 36.386719 L 710.96875 31.832031 L 620.03125 122.925781 L 624.46875 127.355469 Z M 616.707031 36.386719 L 612.175781 31.832031 L 521.238281 122.925781 L 525.675781 127.355469 Z M 517.929688 36.386719 L 513.367188 31.832031 L 422.425781 122.925781 L 426.863281 127.355469 Z M 419.152344 36.386719 L 414.574219 31.832031 L 323.554688 122.925781 L 327.992188 127.355469 Z M 320.375 36.386719 L 315.714844 31.832031 L 224.777344 122.925781 L 229.199219 127.355469 Z M 814.386719 36.386719 L 809.777344 31.832031 L 718.839844 122.925781 L 723.277344 127.355469 Z M 221.5625 36.386719 L 216.9375 31.832031 L 126 122.925781 L 130.4375 127.355469 Z M 221.5625 36.386719 " fill-opacity="1" fill-rule="nonzero"/></g><g fill="#000000" fill-opacity="1"><g transform="translate(71.300246, 391.779762)"><g><path d="M 27.414062 -31.722656 L 41.125 -31.722656 C 55.484375 -31.722656 68.277344 -42.296875 68.277344 -60.3125 C 68.277344 -77.15625 55.484375 -88.773438 41.125 -88.773438 L 7.832031 -88.773438 L 7.832031 0 L 27.414062 0 Z M 37.859375 -73.367188 C 43.605469 -73.367188 49.609375 -68.40625 49.609375 -60.3125 C 49.609375 -51.828125 43.605469 -47.128906 37.859375 -47.128906 L 27.414062 -47.128906 L 27.414062 -73.367188 Z M 37.859375 -73.367188 "/></g></g></g><g fill="#000000" fill-opacity="1"><g transform="translate(167.645981, 391.779762)"><g><path d="M 59.269531 -17.753906 L 27.414062 -17.753906 L 27.414062 -35.640625 L 57.964844 -35.640625 L 57.964844 -53.394531 L 27.414062 -53.394531 L 27.414062 -71.019531 L 59.269531 -71.019531 L 59.269531 -88.773438 L 7.832031 -88.773438 L 7.832031 0 L 59.269531 0 Z M 59.269531 -17.753906 "/></g></g></g><g fill="#000000" fill-opacity="1"><g transform="translate(260.858515, 391.779762)"><g><path d="M 27.414062 -31.722656 L 27.546875 -31.722656 L 48.695312 0 L 73.5 0 L 48.042969 -32.636719 C 59.269531 -35.378906 68.277344 -45.300781 68.277344 -60.3125 C 68.277344 -77.15625 55.484375 -88.773438 41.125 -88.773438 L 7.832031 -88.773438 L 7.832031 0 L 27.414062 0 Z M 37.859375 -73.367188 C 43.605469 -73.367188 49.609375 -68.40625 49.609375 -60.3125 C 49.609375 -51.828125 43.605469 -47.128906 37.859375 -47.128906 L 27.414062 -47.128906 L 27.414062 -73.367188 Z M 37.859375 -73.367188 "/></g></g></g><g fill="#000000" fill-opacity="1"><g transform="translate(358.901397, 391.779762)"><g><path d="M 57.964844 -35.640625 L 57.964844 -53.394531 L 27.414062 -53.394531 L 27.414062 -71.019531 L 59.269531 -71.019531 L 59.269531 -88.773438 L 7.832031 -88.773438 L 7.832031 0 L 27.414062 0 L 27.414062 -35.640625 Z M 57.964844 -35.640625 "/></g></g></g><g fill="#000000" fill-opacity="1"><g transform="translate(450.808462, 391.779762)"><g><path d="M 59.269531 -17.753906 L 27.414062 -17.753906 L 27.414062 -35.640625 L 57.964844 -35.640625 L 57.964844 -53.394531 L 27.414062 -53.394531 L 27.414062 -71.019531 L 59.269531 -71.019531 L 59.269531 -88.773438 L 7.832031 -88.773438 L 7.832031 0 L 59.269531 0 Z M 59.269531 -17.753906 "/></g></g></g><g fill="#000000" fill-opacity="1"><g transform="translate(544.020996, 391.779762)"><g><path d="M 71.933594 -30.15625 C 68.277344 -22.324219 59.398438 -16.972656 50.261719 -16.972656 C 35.902344 -16.972656 24.414062 -29.242188 24.414062 -44.386719 C 24.414062 -59.398438 35.902344 -71.800781 50.261719 -71.800781 C 59.269531 -71.800781 68.148438 -66.839844 71.800781 -58.878906 L 93.605469 -58.878906 C 87.597656 -77.023438 70.496094 -90.078125 50.261719 -90.078125 C 25.066406 -90.078125 4.570312 -69.582031 4.570312 -44.386719 C 4.570312 -19.191406 25.066406 1.304688 50.261719 1.304688 C 70.496094 1.304688 87.730469 -11.878906 93.734375 -30.15625 Z M 71.933594 -30.15625 "/></g></g></g><g fill="#000000" fill-opacity="1"><g transform="translate(667.129428, 391.779762)"><g><path d="M 45.5625 -71.019531 L 70.886719 -71.019531 L 70.886719 -88.773438 L 0.652344 -88.773438 L 0.652344 -71.019531 L 25.980469 -71.019531 L 25.980469 0 L 45.5625 0 Z M 45.5625 -71.019531 "/></g></g></g><g fill="#000000" fill-opacity="1"><g transform="translate(200.793432, 522.660153)"><g><path d="M 10.515625 18.132812 L 10.515625 -5.441406 C 10.734375 -5.003906 11.097656 -4.640625 11.386719 -4.351562 C 14.433594 -0.941406 18.132812 0.726562 22.554688 0.726562 C 26.90625 0.726562 30.605469 -0.941406 33.652344 -4.351562 C 36.554688 -7.617188 38.078125 -11.460938 38.078125 -15.957031 C 38.078125 -20.378906 36.554688 -24.222656 33.652344 -27.558594 C 30.605469 -30.898438 26.90625 -32.636719 22.554688 -32.636719 C 18.132812 -32.636719 14.433594 -30.898438 11.386719 -27.558594 C 11.097656 -27.199219 10.734375 -26.835938 10.515625 -26.398438 L 10.515625 -31.914062 L 5.441406 -31.914062 L 5.441406 18.132812 Z M 33 -15.957031 C 33 -12.835938 31.914062 -10.082031 29.738281 -7.832031 C 27.558594 -5.511719 24.878906 -4.351562 21.757812 -4.351562 C 18.566406 -4.351562 15.882812 -5.511719 13.707031 -7.832031 C 11.53125 -10.082031 10.515625 -12.835938 10.515625 -15.957031 C 10.515625 -19.003906 11.53125 -21.757812 13.707031 -24.078125 C 15.882812 -26.398438 18.566406 -27.558594 21.757812 -27.558594 C 24.878906 -27.558594 27.558594 -26.398438 29.738281 -24.078125 C 31.914062 -21.757812 33 -19.003906 33 -15.957031 Z M 33 -15.957031 "/></g></g></g><g fill="#000000" fill-opacity="1"><g transform="translate(256.639721, 522.660153)"><g><path d="M 31.550781 -16.101562 C 31.550781 -12.910156 30.390625 -10.226562 28.140625 -7.976562 C 25.820312 -5.65625 23.136719 -4.570312 19.945312 -4.570312 C 16.753906 -4.570312 13.996094 -5.65625 11.75 -7.976562 C 9.429688 -10.226562 8.339844 -12.910156 8.339844 -16.101562 C 8.339844 -19.292969 9.429688 -21.976562 11.75 -24.296875 C 13.996094 -26.546875 16.753906 -27.707031 19.945312 -27.707031 C 23.136719 -27.707031 25.820312 -26.546875 28.140625 -24.296875 C 30.390625 -21.976562 31.550781 -19.292969 31.550781 -16.101562 Z M 36.625 -16.101562 C 36.625 -20.671875 34.957031 -24.585938 31.695312 -27.851562 C 28.429688 -31.113281 24.515625 -32.78125 19.945312 -32.78125 C 15.304688 -32.78125 11.386719 -31.113281 8.125 -27.851562 C 4.859375 -24.585938 3.265625 -20.671875 3.265625 -16.101562 C 3.265625 -11.460938 4.859375 -7.542969 8.125 -4.351562 C 11.386719 -1.089844 15.375 0.507812 19.945312 0.507812 C 24.441406 0.507812 28.429688 -1.089844 31.695312 -4.351562 C 34.957031 -7.542969 36.625 -11.460938 36.625 -16.101562 Z M 36.625 -16.101562 "/></g></g></g><g fill="#000000" fill-opacity="1"><g transform="translate(311.035455, 522.660153)"><g><path d="M 10.007812 -4.496094 C 8.777344 -5.367188 7.832031 -6.816406 7.324219 -8.921875 L 1.957031 -8.921875 C 3.046875 -2.320312 7.253906 0.941406 14.652344 0.941406 C 16.390625 0.941406 17.988281 0.796875 19.511719 0.363281 C 21.03125 -0.0742188 22.339844 -0.652344 23.570312 -1.449219 C 26.039062 -3.117188 27.269531 -5.65625 27.269531 -9.066406 C 27.269531 -12.546875 25.675781 -15.011719 22.339844 -16.609375 C 20.960938 -17.261719 19.4375 -17.769531 17.769531 -18.132812 C 16.171875 -18.496094 14.652344 -18.929688 13.273438 -19.363281 C 11.820312 -19.800781 10.660156 -20.378906 9.71875 -21.03125 C 8.777344 -21.6875 8.269531 -22.703125 8.269531 -24.152344 C 8.269531 -25.601562 8.847656 -26.691406 10.007812 -27.34375 C 11.167969 -28.066406 12.546875 -28.429688 14.070312 -28.429688 C 15.664062 -28.429688 17.042969 -28.066406 18.132812 -27.488281 C 19.21875 -26.90625 20.089844 -25.746094 20.597656 -24.007812 L 26.039062 -24.007812 C 25.382812 -27.199219 24.007812 -29.445312 21.976562 -30.679688 C 19.871094 -31.984375 17.335938 -32.636719 14.214844 -32.636719 C 11.167969 -32.636719 8.484375 -31.765625 6.238281 -30.171875 C 4.0625 -28.503906 2.902344 -26.109375 2.902344 -22.917969 C 2.902344 -21.394531 3.335938 -20.019531 4.132812 -18.855469 C 5.003906 -17.625 6.238281 -16.679688 7.832031 -15.957031 C 9.285156 -15.304688 10.804688 -14.796875 12.402344 -14.359375 C 13.996094 -13.996094 15.519531 -13.5625 16.972656 -13.128906 C 20.234375 -12.039062 21.902344 -10.445312 21.902344 -8.414062 C 21.902344 -4.933594 19.582031 -3.265625 14.941406 -3.265625 C 12.984375 -3.265625 11.3125 -3.625 10.007812 -4.496094 Z M 10.007812 -4.496094 "/></g></g></g><g fill="#000000" fill-opacity="1"><g transform="translate(354.697099, 522.660153)"><g><path d="M 1.449219 -27.199219 L 9.429688 -27.199219 L 9.429688 0 L 14.503906 0 L 14.503906 -27.199219 L 22.410156 -27.199219 L 22.410156 -31.914062 L 14.503906 -31.914062 L 14.503906 -44.3125 L 9.429688 -44.3125 L 9.429688 -31.914062 L 1.449219 -31.914062 Z M 1.449219 -27.199219 "/></g></g></g><g fill="#000000" fill-opacity="1"><g transform="translate(393.06423, 522.660153)"><g/></g></g><g fill="#000000" fill-opacity="1"><g transform="translate(427.15223, 522.660153)"><g><path d="M 10.515625 0 L 10.515625 -13.34375 C 10.515625 -17.769531 11.242188 -21.105469 12.765625 -23.425781 C 13.636719 -24.730469 14.722656 -25.675781 16.101562 -26.398438 C 17.40625 -27.125 19.21875 -27.488281 21.394531 -27.488281 C 23.570312 -27.488281 25.09375 -26.691406 26.039062 -25.238281 C 26.980469 -23.789062 27.488281 -21.976562 27.488281 -19.945312 L 27.488281 0 L 32.566406 0 L 32.566406 -19.945312 C 32.566406 -23.644531 31.550781 -26.617188 29.664062 -28.867188 C 28.648438 -30.027344 27.488281 -30.898438 26.109375 -31.550781 C 24.660156 -32.203125 22.847656 -32.566406 20.597656 -32.566406 C 18.277344 -32.566406 16.320312 -31.914062 14.578125 -30.75 C 12.910156 -29.664062 11.53125 -28.214844 10.515625 -26.398438 L 10.515625 -54.394531 L 5.441406 -54.394531 L 5.441406 0 Z M 10.515625 0 "/></g></g></g><g fill="#000000" fill-opacity="1"><g transform="translate(478.574347, 522.660153)"><g><path d="M 36.625 -16.679688 C 36.625 -21.03125 34.886719 -24.804688 31.550781 -28.066406 C 28.285156 -31.1875 24.371094 -32.78125 19.945312 -32.78125 C 15.304688 -32.78125 11.386719 -31.113281 8.125 -27.851562 C 4.859375 -24.585938 3.265625 -20.671875 3.265625 -16.101562 C 3.265625 -11.460938 4.859375 -7.542969 8.125 -4.351562 C 9.644531 -2.828125 11.386719 -1.667969 13.417969 -0.796875 C 15.449219 0.0742188 17.84375 0.507812 20.671875 0.507812 C 23.5 0.507812 26.253906 -0.363281 29.011719 -2.101562 C 31.765625 -3.84375 33.796875 -6.308594 35.175781 -9.355469 L 29.375 -9.355469 C 28.214844 -7.832031 26.835938 -6.671875 25.167969 -5.800781 C 23.5 -4.933594 21.757812 -4.570312 19.945312 -4.570312 C 17.1875 -4.570312 14.722656 -5.441406 12.546875 -7.253906 C 10.371094 -8.992188 8.992188 -11.242188 8.558594 -13.996094 L 36.625 -13.996094 Z M 31.257812 -18.347656 L 8.628906 -18.347656 C 8.921875 -19.65625 9.429688 -20.886719 10.152344 -22.046875 C 12.476562 -25.820312 15.738281 -27.707031 19.945312 -27.707031 C 22.628906 -27.707031 25.023438 -26.835938 27.125 -25.09375 C 29.300781 -23.28125 30.605469 -21.03125 31.257812 -18.347656 Z M 31.257812 -18.347656 "/></g></g></g><g fill="#000000" fill-opacity="1"><g transform="translate(532.607443, 522.660153)"><g><path d="M 21.832031 -25.3125 L 21.832031 -31.914062 C 20.816406 -32.347656 19.726562 -32.566406 18.640625 -32.566406 C 15.011719 -32.566406 12.402344 -30.535156 10.734375 -26.617188 L 10.515625 -25.3125 L 10.515625 -31.914062 L 5.441406 -31.914062 L 5.441406 0 L 10.515625 0 L 10.515625 -15.957031 C 10.515625 -18.566406 11.097656 -20.886719 12.328125 -22.992188 C 12.910156 -24.078125 13.707031 -25.023438 14.652344 -25.746094 C 15.59375 -26.472656 16.753906 -26.90625 18.058594 -26.90625 C 19.363281 -26.90625 20.597656 -26.328125 21.832031 -25.3125 Z M 21.832031 -25.3125 "/></g></g></g><g fill="#000000" fill-opacity="1"><g transform="translate(569.669084, 522.660153)"><g><path d="M 36.625 -16.679688 C 36.625 -21.03125 34.886719 -24.804688 31.550781 -28.066406 C 28.285156 -31.1875 24.371094 -32.78125 19.945312 -32.78125 C 15.304688 -32.78125 11.386719 -31.113281 8.125 -27.851562 C 4.859375 -24.585938 3.265625 -20.671875 3.265625 -16.101562 C 3.265625 -11.460938 4.859375 -7.542969 8.125 -4.351562 C 9.644531 -2.828125 11.386719 -1.667969 13.417969 -0.796875 C 15.449219 0.0742188 17.84375 0.507812 20.671875 0.507812 C 23.5 0.507812 26.253906 -0.363281 29.011719 -2.101562 C 31.765625 -3.84375 33.796875 -6.308594 35.175781 -9.355469 L 29.375 -9.355469 C 28.214844 -7.832031 26.835938 -6.671875 25.167969 -5.800781 C 23.5 -4.933594 21.757812 -4.570312 19.945312 -4.570312 C 17.1875 -4.570312 14.722656 -5.441406 12.546875 -7.253906 C 10.371094 -8.992188 8.992188 -11.242188 8.558594 -13.996094 L 36.625 -13.996094 Z M 31.257812 -18.347656 L 8.628906 -18.347656 C 8.921875 -19.65625 9.429688 -20.886719 10.152344 -22.046875 C 12.476562 -25.820312 15.738281 -27.707031 19.945312 -27.707031 C 22.628906 -27.707031 25.023438 -26.835938 27.125 -25.09375 C 29.300781 -23.28125 30.605469 -21.03125 31.257812 -18.347656 Z M 31.257812 -18.347656 "/></g></g></g></svg>