<svg xmlns="http://www.w3.org/2000/svg" xmlns:xlink="http://www.w3.org/1999/xlink" width="480" zoomAndPan="magnify" viewBox="0 0 360 503.999982" height="672" preserveAspectRatio="xMidYMid meet" version="1.0"><defs><g/><clipPath id="0ac706cd06"><path d="M 272 162 L 360 162 L 360 193 L 272 193 Z M 272 162 " clip-rule="nonzero"/></clipPath><clipPath id="1ba1671d5b"><path d="M 272.628906 187.707031 L 386.867188 156.222656 L 390.257812 168.511719 L 276.015625 200 Z M 272.628906 187.707031 " clip-rule="nonzero"/></clipPath><clipPath id="ce1efd0390"><path d="M 272.628906 187.707031 L 386.867188 156.222656 L 390.257812 168.511719 L 276.015625 200 Z M 272.628906 187.707031 " clip-rule="nonzero"/></clipPath><clipPath id="a18eac6c9c"><path d="M 0 128 L 84 128 L 84 180 L 0 180 Z M 0 128 " clip-rule="nonzero"/></clipPath><clipPath id="00103896e5"><path d="M -25.636719 172.691406 L 83.980469 127.679688 L 88.824219 139.472656 L -20.796875 184.484375 Z M -25.636719 172.691406 " clip-rule="nonzero"/></clipPath><clipPath id="97fc35229e"><path d="M 83.65625 127.8125 L -25.964844 172.824219 L -21.121094 184.617188 L 88.496094 139.609375 Z M 83.65625 127.8125 " clip-rule="nonzero"/></clipPath></defs><g fill="#4e6470" fill-opacity="1"><g transform="translate(84.324679, 146.431457)"><g><path d="M 33.28125 -21.910156 C 32.734375 -22.5 31.832031 -22.503906 31.242188 -21.957031 C 25.59375 -16.835938 19.867188 -11.25 14.625 -4.535156 C 14.632812 -10.105469 14.582031 -16.042969 14.410156 -22.261719 C 14.449219 -22.945312 13.902344 -23.535156 13.207031 -23.648438 C 12.585938 -23.773438 11.898438 -23.363281 11.699219 -22.730469 C 10.632812 -20 8.230469 -14.34375 5.921875 -10.4375 C 5.097656 -9.023438 4.175781 -8.199219 3.601562 -8.480469 C 2.238281 -9.015625 0.542969 -13.9375 2.285156 -21.367188 C 2.460938 -22.148438 1.964844 -22.894531 1.253906 -23.082031 C 0.476562 -23.257812 -0.273438 -22.761719 -0.449219 -21.980469 C -2.277344 -14.160156 -1.007812 -7.214844 2.597656 -5.835938 C 3.5 -5.378906 5.976562 -4.949219 8.347656 -8.945312 C 9.59375 -11.027344 10.730469 -13.316406 11.730469 -15.507812 C 11.8125 -10.328125 11.855469 -5.367188 11.792969 -0.617188 C 6.644531 6.683594 2.074219 15.246094 -1.355469 25.734375 C -7.136719 43.144531 -5.808594 61.222656 -0.800781 65.683594 C 0.171875 66.582031 1.28125 66.929688 2.378906 66.753906 C 2.746094 66.695312 3.027344 66.574219 3.382812 66.441406 C 7.929688 64.28125 10.484375 53.03125 11.878906 43.925781 C 13.59375 32.585938 14.484375 17.992188 14.644531 0.277344 C 20.371094 -7.640625 26.785156 -14.09375 33.160156 -19.859375 C 33.75 -20.40625 33.828125 -21.320312 33.28125 -21.910156 Z M 9.023438 43.480469 C 6.433594 61.058594 2.910156 63.507812 2.214844 63.84375 C 1.933594 63.964844 1.636719 64.011719 1.117188 63.570312 C -2.042969 60.765625 -4.777344 45.175781 1.339844 26.578125 C 4.183594 18.066406 7.695312 10.878906 11.726562 4.585938 C 11.527344 20.199219 10.609375 33.214844 9.023438 43.480469 Z M 9.023438 43.480469 "/></g></g></g><g fill="#4e6470" fill-opacity="1"><g transform="translate(116.825834, 141.204875)"><g><path d="M 24 -20.191406 C 23.253906 -20.597656 22.398438 -20.3125 22.054688 -19.652344 C 19.609375 -15.195312 15.078125 -11.082031 11.070312 -11.1875 C 11.0625 -11.714844 11.050781 -12.238281 10.96875 -12.753906 C 10.148438 -21.125 7.3125 -22.398438 5.722656 -22.445312 C 3.902344 -22.53125 2.28125 -20.914062 1.753906 -18.570312 C 1.363281 -18.660156 0.925781 -18.589844 0.605469 -18.234375 C -2.035156 -15.929688 -3.699219 -10.84375 -1.566406 -5.996094 C -0.203125 -3.128906 2.160156 -1.550781 4.875 -1.988281 C 7.441406 -2.402344 9.847656 -4.746094 10.699219 -8.34375 C 16.011719 -8.070312 21.5625 -12.875 24.539062 -18.246094 C 24.945312 -18.988281 24.65625 -19.847656 24 -20.191406 Z M 4.5 -4.789062 C 4.425781 -4.777344 4.425781 -4.777344 4.425781 -4.777344 C 2.578125 -4.554688 1.488281 -6.183594 1.105469 -7.175781 C -0.03125 -9.554688 0 -13.097656 1.75 -15.335938 C 2.296875 -12.863281 4.128906 -10.371094 7.957031 -9.03125 C 7.304688 -6.519531 5.746094 -4.988281 4.5 -4.789062 Z M 8.160156 -12.449219 C 8.109375 -12.292969 8.132812 -12.144531 8.15625 -12 C 5.074219 -13.386719 4.253906 -15.660156 4.472656 -17.578125 C 4.652344 -18.8125 5.292969 -19.515625 5.65625 -19.574219 C 6.035156 -19.5625 7.507812 -18.367188 8.160156 -12.449219 Z M 8.160156 -12.449219 "/></g></g></g><g fill="#4e6470" fill-opacity="1"><g transform="translate(140.302967, 137.429466)"><g><path d="M 26.652344 -20.542969 C 25.933594 -20.804688 25.085938 -20.441406 24.828125 -19.722656 C 19.648438 -7.449219 14.582031 -1.515625 13.265625 -1.757812 C 13.265625 -1.757812 11.667969 -2.328125 11.707031 -10.988281 C 11.757812 -13.933594 11.71875 -15.582031 10.230469 -15.945312 C 8.828125 -16.246094 8.199219 -15.015625 7.011719 -12.566406 C 6.046875 -10.605469 4.738281 -7.988281 3.164062 -6.078125 C 2.964844 -5.894531 2.277344 -5.03125 1.863281 -5.265625 C 0.621094 -5.96875 -0.367188 -10.703125 1.492188 -15.519531 C 1.828125 -16.25 1.390625 -17.082031 0.660156 -17.417969 C -0.0585938 -17.679688 -0.902344 -17.316406 -1.164062 -16.597656 C -3.273438 -10.988281 -2.539062 -4.558594 0.371094 -2.84375 C 1.125 -2.363281 3.125 -1.632812 5.351562 -4.171875 C 6.800781 -5.910156 7.960938 -8.054688 8.875 -9.855469 C 8.945312 -2.867188 10.089844 0.484375 12.664062 1.050781 C 13.054688 1.136719 13.421875 1.078125 13.714844 1.03125 C 19.289062 0.132812 26.046875 -15.402344 27.410156 -18.632812 C 27.746094 -19.363281 27.382812 -20.210938 26.652344 -20.542969 Z M 26.652344 -20.542969 "/></g></g></g><g fill="#4e6470" fill-opacity="1"><g transform="translate(166.568008, 133.205727)"><g><path d="M 3.304688 -41.699219 C 2.644531 -42.046875 1.789062 -41.757812 1.371094 -41.089844 C 1.035156 -40.359375 1.324219 -39.5 1.984375 -39.15625 C 2.226562 -39.042969 2.324219 -38.910156 2.371094 -38.617188 C 2.679688 -37.160156 1.171875 -34.359375 -0.890625 -32.21875 C -1.40625 -31.6875 -1.414062 -30.78125 -0.878906 -30.265625 C -0.515625 -29.871094 -0.0507812 -29.796875 0.390625 -29.867188 C 0.683594 -29.914062 0.964844 -30.035156 1.148438 -30.289062 C 3.410156 -32.609375 5.667969 -36.359375 5.230469 -39.074219 C 5.042969 -40.25 4.375 -41.121094 3.304688 -41.699219 Z M 3.304688 -41.699219 "/></g></g></g><g fill="#4e6470" fill-opacity="1"><g transform="translate(181.461314, 130.810701)"><g><path d="M 29.542969 -21.761719 C 28.75 -22.007812 27.914062 -21.574219 27.742188 -20.792969 C 22.160156 -1.683594 15.625 8.703125 13.816406 8.691406 C 13.65625 8.640625 10.6875 6.558594 14.886719 -20.230469 C 15 -20.925781 15.265625 -22.550781 13.960938 -23.167969 C 12.71875 -23.871094 11.601562 -22.863281 9.773438 -21.140625 C 7.792969 -19.390625 5.105469 -16.925781 2.710938 -16.84375 C 8.117188 -30.960938 6.921875 -33.703125 5.058594 -34.53125 C 2.171875 -35.648438 -0.925781 -30.558594 -2.273438 -27.707031 C -4.972656 -21.554688 -4.085938 -16.503906 0.144531 -14.550781 C 4.46875 -12.460938 9 -16.574219 11.691406 -19.039062 C 11.75 -19.125 11.75 -19.125 11.8125 -19.210938 C 10.402344 -9.726562 9.714844 -2.316406 9.84375 2.707031 C 9.910156 8.265625 10.957031 11.03125 13.140625 11.507812 C 13.519531 11.523438 13.824219 11.550781 14.191406 11.492188 C 20.0625 10.546875 27.355469 -9.140625 30.507812 -19.960938 C 30.683594 -20.738281 30.25 -21.574219 29.542969 -21.761719 Z M -0.914062 -22.054688 C -0.523438 -26.183594 2.335938 -30.40625 3.734375 -31.535156 C 3.777344 -30.335938 3.5 -26.90625 0.113281 -18.007812 C -0.527344 -18.730469 -1.097656 -19.917969 -0.914062 -22.054688 Z M -0.914062 -22.054688 "/></g></g></g><g fill="#4e6470" fill-opacity="1"><g transform="translate(210.734366, 126.103237)"><g><path d="M 22.167969 -20.347656 C 21.4375 -20.683594 20.578125 -20.394531 20.246094 -19.664062 C 15.980469 -11.074219 12.285156 -5.511719 8.390625 -1.648438 C 6.4375 0.246094 4.355469 0.878906 2.796875 0.078125 C 1.8125 -0.441406 -1.375 -2.941406 0.128906 -13.71875 C 6.300781 -20.734375 9.292969 -26.933594 7.792969 -29.703125 C 7.285156 -30.523438 6.308594 -30.96875 5.355469 -30.816406 C 2.433594 -30.269531 -1.230469 -24.488281 -2.640625 -14.554688 C -4.359375 -2.308594 -0.742188 1.472656 1.550781 2.609375 C 2.707031 3.253906 3.9375 3.429688 5.257812 3.21875 C 6.945312 2.945312 8.75 1.980469 10.371094 0.363281 C 14.523438 -3.765625 18.34375 -9.496094 22.777344 -18.414062 C 23.113281 -19.144531 22.824219 -20.003906 22.167969 -20.347656 Z M 5.265625 -27.640625 C 5.160156 -26.417969 4.289062 -23.871094 1.40625 -19.796875 C 2.632812 -24.355469 4.355469 -26.742188 5.265625 -27.640625 Z M 5.265625 -27.640625 "/></g></g></g><g fill="#4e6470" fill-opacity="1"><g transform="translate(109.133865, 416.371825)"><g><path d="M 4.09375 0 L 2.59375 -2.421875 C 2.488281 -2.398438 2.347656 -2.390625 2.171875 -2.390625 L 1.296875 -2.390625 L 1.296875 0 L 0.90625 0 L 0.90625 -5.6875 L 2.203125 -5.6875 C 2.492188 -5.6875 2.773438 -5.625 3.046875 -5.5 C 3.328125 -5.382812 3.550781 -5.207031 3.71875 -4.96875 C 3.894531 -4.726562 3.984375 -4.429688 3.984375 -4.078125 C 3.984375 -3.722656 3.90625 -3.40625 3.75 -3.125 C 3.59375 -2.851562 3.347656 -2.648438 3.015625 -2.515625 L 4.546875 0 Z M 2.15625 -2.765625 C 2.664062 -2.765625 3.03125 -2.890625 3.25 -3.140625 C 3.476562 -3.398438 3.59375 -3.707031 3.59375 -4.0625 C 3.59375 -4.28125 3.535156 -4.484375 3.421875 -4.671875 C 3.316406 -4.867188 3.160156 -5.019531 2.953125 -5.125 C 2.753906 -5.238281 2.519531 -5.296875 2.25 -5.296875 L 1.296875 -5.296875 L 1.296875 -2.765625 Z M 2.15625 -2.765625 "/></g></g></g><g fill="#4e6470" fill-opacity="1"><g transform="translate(115.941879, 416.371825)"><g><path d="M 3.75 -5.046875 C 3.550781 -5.128906 3.332031 -5.203125 3.09375 -5.265625 C 2.863281 -5.335938 2.640625 -5.375 2.421875 -5.375 C 2.046875 -5.375 1.742188 -5.28125 1.515625 -5.09375 C 1.296875 -4.90625 1.1875 -4.671875 1.1875 -4.390625 C 1.1875 -4.179688 1.242188 -4.003906 1.359375 -3.859375 C 1.484375 -3.722656 1.640625 -3.609375 1.828125 -3.515625 C 2.015625 -3.421875 2.253906 -3.316406 2.546875 -3.203125 C 2.867188 -3.085938 3.132812 -2.96875 3.34375 -2.84375 C 3.550781 -2.71875 3.726562 -2.550781 3.875 -2.34375 C 4.019531 -2.132812 4.09375 -1.863281 4.09375 -1.53125 C 4.09375 -1.21875 4.015625 -0.941406 3.859375 -0.703125 C 3.710938 -0.460938 3.503906 -0.273438 3.234375 -0.140625 C 2.960938 -0.00390625 2.65625 0.0625 2.3125 0.0625 C 1.707031 0.0625 1.109375 -0.128906 0.515625 -0.515625 L 0.703125 -0.84375 C 0.898438 -0.6875 1.140625 -0.550781 1.421875 -0.4375 C 1.710938 -0.332031 1.992188 -0.28125 2.265625 -0.28125 C 2.503906 -0.28125 2.734375 -0.328125 2.953125 -0.421875 C 3.171875 -0.515625 3.347656 -0.65625 3.484375 -0.84375 C 3.617188 -1.03125 3.6875 -1.257812 3.6875 -1.53125 C 3.6875 -1.78125 3.625 -1.988281 3.5 -2.15625 C 3.375 -2.332031 3.21875 -2.472656 3.03125 -2.578125 C 2.84375 -2.679688 2.601562 -2.785156 2.3125 -2.890625 C 1.988281 -3.003906 1.722656 -3.113281 1.515625 -3.21875 C 1.304688 -3.332031 1.128906 -3.476562 0.984375 -3.65625 C 0.847656 -3.84375 0.78125 -4.070312 0.78125 -4.34375 C 0.78125 -4.613281 0.847656 -4.847656 0.984375 -5.046875 C 1.117188 -5.253906 1.304688 -5.414062 1.546875 -5.53125 C 1.796875 -5.644531 2.070312 -5.707031 2.375 -5.71875 C 2.625 -5.71875 2.882812 -5.679688 3.15625 -5.609375 C 3.4375 -5.535156 3.679688 -5.445312 3.890625 -5.34375 Z M 3.75 -5.046875 "/></g></g></g><g fill="#4e6470" fill-opacity="1"><g transform="translate(122.33389, 416.371825)"><g><path d="M 5.21875 -5.6875 L 2.8125 0.265625 L 0.390625 -5.6875 L 0.84375 -5.6875 L 2.828125 -0.65625 L 4.78125 -5.6875 Z M 5.21875 -5.6875 "/></g></g></g><g fill="#4e6470" fill-opacity="1"><g transform="translate(129.693904, 416.371825)"><g><path d="M 2.21875 -5.6875 C 2.757812 -5.6875 3.1875 -5.546875 3.5 -5.265625 C 3.8125 -4.992188 3.96875 -4.597656 3.96875 -4.078125 C 3.96875 -3.773438 3.90625 -3.492188 3.78125 -3.234375 C 3.65625 -2.984375 3.457031 -2.78125 3.1875 -2.625 C 2.914062 -2.46875 2.578125 -2.390625 2.171875 -2.390625 L 1.296875 -2.390625 L 1.296875 0 L 0.90625 0 L 0.90625 -5.6875 Z M 2.171875 -2.765625 C 2.515625 -2.765625 2.789062 -2.832031 3 -2.96875 C 3.21875 -3.101562 3.367188 -3.269531 3.453125 -3.46875 C 3.546875 -3.675781 3.59375 -3.878906 3.59375 -4.078125 C 3.59375 -4.441406 3.472656 -4.734375 3.234375 -4.953125 C 3.003906 -5.179688 2.675781 -5.296875 2.25 -5.296875 L 1.296875 -5.296875 L 1.296875 -2.765625 Z M 2.171875 -2.765625 "/></g></g></g><g fill="#4e6470" fill-opacity="1"><g transform="translate(135.869912, 416.371825)"><g/></g></g><g fill="#4e6470" fill-opacity="1"><g transform="translate(140.069913, 416.371825)"><g><path d="M 0.484375 0.15625 L 0.140625 0.15625 C 0.734375 -1.445312 1.101562 -2.460938 1.25 -2.890625 L 2.375 -5.921875 L 2.71875 -5.921875 Z M 0.484375 0.15625 "/></g></g></g><g fill="#4e6470" fill-opacity="1"><g transform="translate(144.597916, 416.371825)"><g/></g></g><g fill="#4e6470" fill-opacity="1"><g transform="translate(148.797917, 416.371825)"><g><path d="M 1.609375 -5.21875 L 1.609375 0 L 1.21875 0 L 1.21875 -4.84375 L 0.453125 -4.84375 L 0.453125 -5.21875 Z M 1.609375 -5.21875 "/></g></g></g><g fill="#4e6470" fill-opacity="1"><g transform="translate(153.061922, 416.371825)"><g><path d="M 3.90625 -1.703125 L 3.90625 -1.390625 L 3.171875 -1.390625 L 3.171875 0 L 2.78125 0 L 2.78125 -1.390625 L 0.125 -1.390625 L 3.15625 -5.28125 L 3.171875 -5.28125 L 3.171875 -1.703125 Z M 2.78125 -1.703125 L 2.78125 -4.265625 L 0.765625 -1.703125 Z M 2.78125 -1.703125 "/></g></g></g><g fill="#4e6470" fill-opacity="1"><g transform="translate(158.949934, 416.371825)"><g/></g></g><g fill="#4e6470" fill-opacity="1"><g transform="translate(163.149932, 416.371825)"><g><path d="M 3.75 -5.046875 C 3.550781 -5.128906 3.332031 -5.203125 3.09375 -5.265625 C 2.863281 -5.335938 2.640625 -5.375 2.421875 -5.375 C 2.046875 -5.375 1.742188 -5.28125 1.515625 -5.09375 C 1.296875 -4.90625 1.1875 -4.671875 1.1875 -4.390625 C 1.1875 -4.179688 1.242188 -4.003906 1.359375 -3.859375 C 1.484375 -3.722656 1.640625 -3.609375 1.828125 -3.515625 C 2.015625 -3.421875 2.253906 -3.316406 2.546875 -3.203125 C 2.867188 -3.085938 3.132812 -2.96875 3.34375 -2.84375 C 3.550781 -2.71875 3.726562 -2.550781 3.875 -2.34375 C 4.019531 -2.132812 4.09375 -1.863281 4.09375 -1.53125 C 4.09375 -1.21875 4.015625 -0.941406 3.859375 -0.703125 C 3.710938 -0.460938 3.503906 -0.273438 3.234375 -0.140625 C 2.960938 -0.00390625 2.65625 0.0625 2.3125 0.0625 C 1.707031 0.0625 1.109375 -0.128906 0.515625 -0.515625 L 0.703125 -0.84375 C 0.898438 -0.6875 1.140625 -0.550781 1.421875 -0.4375 C 1.710938 -0.332031 1.992188 -0.28125 2.265625 -0.28125 C 2.503906 -0.28125 2.734375 -0.328125 2.953125 -0.421875 C 3.171875 -0.515625 3.347656 -0.65625 3.484375 -0.84375 C 3.617188 -1.03125 3.6875 -1.257812 3.6875 -1.53125 C 3.6875 -1.78125 3.625 -1.988281 3.5 -2.15625 C 3.375 -2.332031 3.21875 -2.472656 3.03125 -2.578125 C 2.84375 -2.679688 2.601562 -2.785156 2.3125 -2.890625 C 1.988281 -3.003906 1.722656 -3.113281 1.515625 -3.21875 C 1.304688 -3.332031 1.128906 -3.476562 0.984375 -3.65625 C 0.847656 -3.84375 0.78125 -4.070312 0.78125 -4.34375 C 0.78125 -4.613281 0.847656 -4.847656 0.984375 -5.046875 C 1.117188 -5.253906 1.304688 -5.414062 1.546875 -5.53125 C 1.796875 -5.644531 2.070312 -5.707031 2.375 -5.71875 C 2.625 -5.71875 2.882812 -5.679688 3.15625 -5.609375 C 3.4375 -5.535156 3.679688 -5.445312 3.890625 -5.34375 Z M 3.75 -5.046875 "/></g></g></g><g fill="#4e6470" fill-opacity="1"><g transform="translate(169.541941, 416.371825)"><g><path d="M 4.40625 -5.6875 L 4.40625 -5.296875 L 1.296875 -5.296875 L 1.296875 -3.046875 L 4.09375 -3.046875 L 4.09375 -2.671875 L 1.296875 -2.671875 L 1.296875 -0.375 L 4.515625 -0.375 L 4.515625 0 L 0.90625 0 L 0.90625 -5.6875 Z M 4.40625 -5.6875 "/></g></g></g><g fill="#4e6470" fill-opacity="1"><g transform="translate(176.397957, 416.371825)"><g><path d="M 2.21875 -5.6875 C 2.757812 -5.6875 3.1875 -5.546875 3.5 -5.265625 C 3.8125 -4.992188 3.96875 -4.597656 3.96875 -4.078125 C 3.96875 -3.773438 3.90625 -3.492188 3.78125 -3.234375 C 3.65625 -2.984375 3.457031 -2.78125 3.1875 -2.625 C 2.914062 -2.46875 2.578125 -2.390625 2.171875 -2.390625 L 1.296875 -2.390625 L 1.296875 0 L 0.90625 0 L 0.90625 -5.6875 Z M 2.171875 -2.765625 C 2.515625 -2.765625 2.789062 -2.832031 3 -2.96875 C 3.21875 -3.101562 3.367188 -3.269531 3.453125 -3.46875 C 3.546875 -3.675781 3.59375 -3.878906 3.59375 -4.078125 C 3.59375 -4.441406 3.472656 -4.734375 3.234375 -4.953125 C 3.003906 -5.179688 2.675781 -5.296875 2.25 -5.296875 L 1.296875 -5.296875 L 1.296875 -2.765625 Z M 2.171875 -2.765625 "/></g></g></g><g fill="#4e6470" fill-opacity="1"><g transform="translate(182.573963, 416.371825)"><g><path d="M 4.171875 -5.6875 L 4.171875 -5.296875 L 2.5 -5.296875 L 2.5 0 L 2.109375 0 L 2.109375 -5.296875 L 0.453125 -5.296875 L 0.453125 -5.6875 Z M 4.171875 -5.6875 "/></g></g></g><g fill="#4e6470" fill-opacity="1"><g transform="translate(188.933969, 416.371825)"><g><path d="M 4.40625 -5.6875 L 4.40625 -5.296875 L 1.296875 -5.296875 L 1.296875 -3.046875 L 4.09375 -3.046875 L 4.09375 -2.671875 L 1.296875 -2.671875 L 1.296875 -0.375 L 4.515625 -0.375 L 4.515625 0 L 0.90625 0 L 0.90625 -5.6875 Z M 4.40625 -5.6875 "/></g></g></g><g fill="#4e6470" fill-opacity="1"><g transform="translate(195.78999, 416.371825)"><g><path d="M 6.34375 -5.8125 L 6.34375 0 L 5.953125 0 L 5.953125 -4.65625 L 3.625 -1.375 L 3.609375 -1.375 L 1.28125 -4.625 L 1.28125 0 L 0.90625 0 L 0.90625 -5.8125 L 3.609375 -1.953125 L 6.328125 -5.8125 Z M 6.34375 -5.8125 "/></g></g></g><g fill="#4e6470" fill-opacity="1"><g transform="translate(204.782006, 416.371825)"><g><path d="M 3.03125 -2.890625 C 3.375 -2.785156 3.648438 -2.613281 3.859375 -2.375 C 4.066406 -2.132812 4.171875 -1.847656 4.171875 -1.515625 C 4.171875 -1.191406 4.085938 -0.914062 3.921875 -0.6875 C 3.765625 -0.457031 3.546875 -0.285156 3.265625 -0.171875 C 2.992188 -0.0546875 2.703125 0 2.390625 0 L 0.90625 0 L 0.90625 -5.6875 L 2.15625 -5.6875 C 3.3125 -5.6875 3.890625 -5.203125 3.890625 -4.234375 C 3.890625 -3.921875 3.816406 -3.644531 3.671875 -3.40625 C 3.523438 -3.175781 3.3125 -3.003906 3.03125 -2.890625 Z M 1.296875 -3.03125 L 2.34375 -3.03125 C 2.726562 -3.03125 3.015625 -3.128906 3.203125 -3.328125 C 3.390625 -3.535156 3.484375 -3.816406 3.484375 -4.171875 C 3.484375 -4.554688 3.367188 -4.835938 3.140625 -5.015625 C 2.910156 -5.203125 2.585938 -5.296875 2.171875 -5.296875 L 1.296875 -5.296875 Z M 2.375 -0.359375 C 2.769531 -0.359375 3.101562 -0.457031 3.375 -0.65625 C 3.644531 -0.851562 3.78125 -1.132812 3.78125 -1.5 C 3.78125 -1.882812 3.632812 -2.171875 3.34375 -2.359375 C 3.0625 -2.546875 2.726562 -2.640625 2.34375 -2.640625 L 1.296875 -2.640625 L 1.296875 -0.359375 Z M 2.375 -0.359375 "/></g></g></g><g fill="#4e6470" fill-opacity="1"><g transform="translate(211.246016, 416.371825)"><g><path d="M 4.40625 -5.6875 L 4.40625 -5.296875 L 1.296875 -5.296875 L 1.296875 -3.046875 L 4.09375 -3.046875 L 4.09375 -2.671875 L 1.296875 -2.671875 L 1.296875 -0.375 L 4.515625 -0.375 L 4.515625 0 L 0.90625 0 L 0.90625 -5.6875 Z M 4.40625 -5.6875 "/></g></g></g><g fill="#4e6470" fill-opacity="1"><g transform="translate(218.102032, 416.371825)"><g><path d="M 4.09375 0 L 2.59375 -2.421875 C 2.488281 -2.398438 2.347656 -2.390625 2.171875 -2.390625 L 1.296875 -2.390625 L 1.296875 0 L 0.90625 0 L 0.90625 -5.6875 L 2.203125 -5.6875 C 2.492188 -5.6875 2.773438 -5.625 3.046875 -5.5 C 3.328125 -5.382812 3.550781 -5.207031 3.71875 -4.96875 C 3.894531 -4.726562 3.984375 -4.429688 3.984375 -4.078125 C 3.984375 -3.722656 3.90625 -3.40625 3.75 -3.125 C 3.59375 -2.851562 3.347656 -2.648438 3.015625 -2.515625 L 4.546875 0 Z M 2.15625 -2.765625 C 2.664062 -2.765625 3.03125 -2.890625 3.25 -3.140625 C 3.476562 -3.398438 3.59375 -3.707031 3.59375 -4.0625 C 3.59375 -4.28125 3.535156 -4.484375 3.421875 -4.671875 C 3.316406 -4.867188 3.160156 -5.019531 2.953125 -5.125 C 2.753906 -5.238281 2.519531 -5.296875 2.25 -5.296875 L 1.296875 -5.296875 L 1.296875 -2.765625 Z M 2.15625 -2.765625 "/></g></g></g><g fill="#4e6470" fill-opacity="1"><g transform="translate(224.910045, 416.371825)"><g/></g></g><g fill="#4e6470" fill-opacity="1"><g transform="translate(229.110043, 416.371825)"><g><path d="M 3.765625 -0.375 L 3.765625 0 L 0.421875 0 C 1.035156 -0.59375 1.515625 -1.070312 1.859375 -1.4375 C 2.203125 -1.8125 2.488281 -2.191406 2.71875 -2.578125 C 2.957031 -2.960938 3.078125 -3.320312 3.078125 -3.65625 C 3.078125 -3.945312 3.019531 -4.1875 2.90625 -4.375 C 2.789062 -4.5625 2.644531 -4.695312 2.46875 -4.78125 C 2.289062 -4.875 2.109375 -4.921875 1.921875 -4.921875 C 1.640625 -4.921875 1.410156 -4.859375 1.234375 -4.734375 C 1.054688 -4.609375 0.929688 -4.453125 0.859375 -4.265625 C 0.785156 -4.085938 0.75 -3.910156 0.75 -3.734375 C 0.75 -3.359375 0.851562 -3.0625 1.0625 -2.84375 L 0.828125 -2.625 C 0.679688 -2.75 0.566406 -2.910156 0.484375 -3.109375 C 0.410156 -3.304688 0.375 -3.507812 0.375 -3.71875 C 0.375 -4.007812 0.4375 -4.273438 0.5625 -4.515625 C 0.6875 -4.753906 0.867188 -4.941406 1.109375 -5.078125 C 1.347656 -5.210938 1.632812 -5.28125 1.96875 -5.28125 C 2.257812 -5.28125 2.519531 -5.207031 2.75 -5.0625 C 2.976562 -4.925781 3.15625 -4.738281 3.28125 -4.5 C 3.414062 -4.257812 3.484375 -3.988281 3.484375 -3.6875 C 3.484375 -3.375 3.394531 -3.050781 3.21875 -2.71875 C 3.050781 -2.394531 2.84375 -2.085938 2.59375 -1.796875 C 2.34375 -1.503906 2.015625 -1.144531 1.609375 -0.71875 L 1.28125 -0.375 Z M 3.765625 -0.375 "/></g></g></g><g fill="#4e6470" fill-opacity="1"><g transform="translate(234.910053, 416.371825)"><g><path d="M 2.484375 0.046875 C 2.035156 0.046875 1.644531 -0.0664062 1.3125 -0.296875 C 0.976562 -0.535156 0.722656 -0.859375 0.546875 -1.265625 C 0.367188 -1.671875 0.28125 -2.125 0.28125 -2.625 C 0.28125 -3.132812 0.363281 -3.585938 0.53125 -3.984375 C 0.707031 -4.390625 0.960938 -4.703125 1.296875 -4.921875 C 1.628906 -5.148438 2.023438 -5.265625 2.484375 -5.265625 C 2.929688 -5.265625 3.316406 -5.148438 3.640625 -4.921875 C 3.972656 -4.691406 4.222656 -4.375 4.390625 -3.96875 C 4.566406 -3.5625 4.65625 -3.113281 4.65625 -2.625 C 4.65625 -2.125 4.566406 -1.671875 4.390625 -1.265625 C 4.222656 -0.859375 3.972656 -0.535156 3.640625 -0.296875 C 3.316406 -0.0664062 2.929688 0.046875 2.484375 0.046875 Z M 2.46875 -0.34375 C 2.820312 -0.34375 3.132812 -0.429688 3.40625 -0.609375 C 3.675781 -0.796875 3.882812 -1.0625 4.03125 -1.40625 C 4.1875 -1.75 4.265625 -2.15625 4.265625 -2.625 C 4.265625 -3.082031 4.1875 -3.484375 4.03125 -3.828125 C 3.882812 -4.171875 3.675781 -4.429688 3.40625 -4.609375 C 3.132812 -4.796875 2.820312 -4.890625 2.46875 -4.890625 C 2.125 -4.890625 1.816406 -4.796875 1.546875 -4.609375 C 1.273438 -4.429688 1.0625 -4.164062 0.90625 -3.8125 C 0.757812 -3.46875 0.6875 -3.066406 0.6875 -2.609375 C 0.6875 -2.148438 0.757812 -1.75 0.90625 -1.40625 C 1.0625 -1.0625 1.273438 -0.796875 1.546875 -0.609375 C 1.816406 -0.429688 2.125 -0.34375 2.46875 -0.34375 Z M 2.46875 -0.34375 "/></g></g></g><g fill="#4e6470" fill-opacity="1"><g transform="translate(241.606067, 416.371825)"><g><path d="M 3.765625 -0.375 L 3.765625 0 L 0.421875 0 C 1.035156 -0.59375 1.515625 -1.070312 1.859375 -1.4375 C 2.203125 -1.8125 2.488281 -2.191406 2.71875 -2.578125 C 2.957031 -2.960938 3.078125 -3.320312 3.078125 -3.65625 C 3.078125 -3.945312 3.019531 -4.1875 2.90625 -4.375 C 2.789062 -4.5625 2.644531 -4.695312 2.46875 -4.78125 C 2.289062 -4.875 2.109375 -4.921875 1.921875 -4.921875 C 1.640625 -4.921875 1.410156 -4.859375 1.234375 -4.734375 C 1.054688 -4.609375 0.929688 -4.453125 0.859375 -4.265625 C 0.785156 -4.085938 0.75 -3.910156 0.75 -3.734375 C 0.75 -3.359375 0.851562 -3.0625 1.0625 -2.84375 L 0.828125 -2.625 C 0.679688 -2.75 0.566406 -2.910156 0.484375 -3.109375 C 0.410156 -3.304688 0.375 -3.507812 0.375 -3.71875 C 0.375 -4.007812 0.4375 -4.273438 0.5625 -4.515625 C 0.6875 -4.753906 0.867188 -4.941406 1.109375 -5.078125 C 1.347656 -5.210938 1.632812 -5.28125 1.96875 -5.28125 C 2.257812 -5.28125 2.519531 -5.207031 2.75 -5.0625 C 2.976562 -4.925781 3.15625 -4.738281 3.28125 -4.5 C 3.414062 -4.257812 3.484375 -3.988281 3.484375 -3.6875 C 3.484375 -3.375 3.394531 -3.050781 3.21875 -2.71875 C 3.050781 -2.394531 2.84375 -2.085938 2.59375 -1.796875 C 2.34375 -1.503906 2.015625 -1.144531 1.609375 -0.71875 L 1.28125 -0.375 Z M 3.765625 -0.375 "/></g></g></g><g fill="#4e6470" fill-opacity="1"><g transform="translate(247.406076, 416.371825)"><g><path d="M 2.0625 -3.234375 C 2.34375 -3.253906 2.601562 -3.207031 2.84375 -3.09375 C 3.082031 -2.988281 3.269531 -2.820312 3.40625 -2.59375 C 3.550781 -2.363281 3.625 -2.078125 3.625 -1.734375 C 3.625 -1.378906 3.546875 -1.066406 3.390625 -0.796875 C 3.234375 -0.523438 3.015625 -0.3125 2.734375 -0.15625 C 2.453125 -0.0078125 2.140625 0.0625 1.796875 0.0625 C 1.554688 0.0625 1.320312 0.015625 1.09375 -0.078125 C 0.875 -0.179688 0.6875 -0.316406 0.53125 -0.484375 L 0.734375 -0.796875 C 0.847656 -0.648438 1 -0.53125 1.1875 -0.4375 C 1.382812 -0.351562 1.585938 -0.3125 1.796875 -0.3125 C 2.066406 -0.3125 2.3125 -0.367188 2.53125 -0.484375 C 2.75 -0.609375 2.914062 -0.78125 3.03125 -1 C 3.15625 -1.21875 3.21875 -1.46875 3.21875 -1.75 C 3.21875 -2.113281 3.101562 -2.40625 2.875 -2.625 C 2.644531 -2.84375 2.335938 -2.953125 1.953125 -2.953125 C 1.679688 -2.953125 1.4375 -2.898438 1.21875 -2.796875 L 1.1875 -2.8125 L 2.6875 -4.859375 L 0.703125 -4.859375 L 0.703125 -5.21875 L 3.34375 -5.21875 L 1.890625 -3.234375 C 1.929688 -3.234375 1.988281 -3.234375 2.0625 -3.234375 Z M 2.0625 -3.234375 "/></g></g></g><g fill="#4e6470" fill-opacity="1"><g transform="translate(131.360634, 229.493174)"><g><path d="M 18.746094 -20.097656 C 18.015625 -20.433594 17.242188 -20.082031 16.910156 -19.351562 C 13.265625 -10.636719 6.253906 -1.832031 3.59375 -2.460938 C 3.277344 -2.558594 0.703125 -3.574219 1.9375 -16.492188 C 1.957031 -17.324219 1.398438 -17.988281 0.628906 -18.089844 C -0.203125 -18.105469 -0.863281 -17.546875 -0.96875 -16.777344 C -1.945312 -6.007812 -0.691406 -0.566406 2.832031 0.296875 C 3.382812 0.433594 3.90625 0.425781 4.421875 0.34375 C 9.921875 -0.542969 16.78125 -11.730469 19.566406 -18.273438 C 19.824219 -18.992188 19.464844 -19.839844 18.746094 -20.097656 Z M 0.476562 -23.257812 C 4.25 -23.640625 3.421875 -28.324219 0.582031 -26.8125 C -0.890625 -26.125 -2.410156 -22.945312 0.476562 -23.257812 Z M 0.476562 -23.257812 "/></g></g></g><g fill="#4e6470" fill-opacity="1"><g transform="translate(149.922236, 226.508242)"><g><path d="M 26.863281 -21.105469 C 26.144531 -21.363281 25.296875 -21.003906 25.050781 -20.210938 C 23.773438 -16.917969 20.460938 -8.03125 17.769531 -7.902344 C 17.246094 -7.890625 15.660156 -8.390625 13.367188 -13.289062 C 11.761719 -16.71875 9.824219 -19.871094 7.085938 -19.578125 C 5.082031 -19.40625 3.128906 -17.511719 0.769531 -10.660156 C 1.140625 -13.957031 1.589844 -17.265625 1.910156 -19.953125 C 2.050781 -20.953125 2.140625 -21.792969 2.230469 -22.636719 C 2.332031 -23.40625 1.761719 -24.140625 0.992188 -24.246094 C 0.222656 -24.347656 -0.511719 -23.777344 -0.601562 -22.933594 C -0.703125 -22.164062 -0.78125 -21.25 -0.933594 -20.320312 C -1.792969 -13.484375 -3.0625 -3.121094 -2.828125 3.011719 C -2.792969 3.6875 -2.246094 4.273438 -1.5625 4.316406 C -1.40625 4.367188 -1.332031 4.355469 -1.183594 4.332031 C -0.597656 4.234375 -0.144531 3.785156 -0.0078125 3.238281 C 4.128906 -15.039062 6.730469 -16.660156 7.390625 -16.769531 C 7.535156 -16.792969 8.609375 -16.664062 10.78125 -12.046875 C 13.0625 -7.21875 15.382812 -4.957031 17.925781 -5.066406 C 21.738281 -5.226562 24.371094 -10.390625 27.695312 -19.207031 C 28.015625 -20.011719 27.59375 -20.769531 26.863281 -21.105469 Z M 26.863281 -21.105469 "/></g></g></g><g fill="#4e6470" fill-opacity="1"><g transform="translate(176.113914, 222.296301)"><g><path d="M 34.257812 -21.917969 C 33.589844 -22.335938 32.71875 -22.121094 32.300781 -21.453125 C 29.859375 -17.445312 26.105469 -15.035156 22.664062 -15.386719 C 19.832031 -15.683594 17.425781 -18.003906 16.054688 -21.851562 C 15.800781 -22.488281 15.070312 -22.820312 14.410156 -22.714844 C 13.75 -22.609375 13.246094 -22 13.277344 -21.328125 C 13.507812 -10.074219 6.890625 4.460938 2.929688 6.527344 C 2.441406 6.757812 2.28125 6.707031 2.269531 6.632812 C 1.855469 6.398438 -1.191406 3.351562 2.867188 -21.007812 C 2.96875 -21.777344 2.472656 -22.527344 1.703125 -22.628906 C 0.925781 -22.804688 0.1875 -22.234375 0.0117188 -21.453125 C -4.402344 5.375 -0.65625 8.082031 0.535156 8.945312 C 1.035156 9.242188 1.863281 9.710938 2.964844 9.535156 C 3.328125 9.476562 3.757812 9.332031 4.238281 9.027344 C 6.808594 7.710938 9.851562 3.234375 12.269531 -2.800781 C 14.101562 -7.3125 15.304688 -12.019531 15.816406 -16.316406 C 17.597656 -14.121094 19.839844 -12.824219 22.367188 -12.554688 C 26.871094 -12.148438 31.679688 -15.027344 34.722656 -19.960938 C 35.144531 -20.628906 34.929688 -21.496094 34.257812 -21.917969 Z M 34.257812 -21.917969 "/></g></g></g><g fill="#4e6470" fill-opacity="1"><g transform="translate(210.742691, 216.727571)"><g><path d="M 18.746094 -20.097656 C 18.015625 -20.433594 17.242188 -20.082031 16.910156 -19.351562 C 13.265625 -10.636719 6.253906 -1.832031 3.59375 -2.460938 C 3.277344 -2.558594 0.703125 -3.574219 1.9375 -16.492188 C 1.957031 -17.324219 1.398438 -17.988281 0.628906 -18.089844 C -0.203125 -18.105469 -0.863281 -17.546875 -0.96875 -16.777344 C -1.945312 -6.007812 -0.691406 -0.566406 2.832031 0.296875 C 3.382812 0.433594 3.90625 0.425781 4.421875 0.34375 C 9.921875 -0.542969 16.78125 -11.730469 19.566406 -18.273438 C 19.824219 -18.992188 19.464844 -19.839844 18.746094 -20.097656 Z M 0.476562 -23.257812 C 4.25 -23.640625 3.421875 -28.324219 0.582031 -26.8125 C -0.890625 -26.125 -2.410156 -22.945312 0.476562 -23.257812 Z M 0.476562 -23.257812 "/></g></g></g><g fill="#4e6470" fill-opacity="1"><g transform="translate(229.304294, 213.742639)"><g><path d="M 54.960938 -53.246094 C 53.792969 -54.410156 49.410156 -54.535156 4.015625 -46.179688 C 4.527344 -52.359375 4.984375 -57.925781 5.460938 -62.445312 C 5.554688 -63.289062 4.996094 -63.949219 4.226562 -64.050781 C 3.457031 -64.15625 2.71875 -63.585938 2.617188 -62.816406 C 2.113281 -57.992188 1.617188 -52.191406 1.089844 -45.636719 C -2.933594 -44.914062 -7.324219 -44.132812 -12.066406 -43.21875 C -18.574219 -42.019531 -23.6875 -41.046875 -25.667969 -40.730469 C -26.472656 -40.601562 -27.027344 -39.832031 -26.910156 -39.101562 C -26.78125 -38.292969 -26.015625 -37.738281 -25.207031 -37.867188 C -23.164062 -38.273438 -18.039062 -39.171875 -11.546875 -40.441406 C -8.109375 -41.070312 -3.867188 -41.828125 0.878906 -42.742188 C -0.128906 -28.882812 -1.152344 -12.308594 -1.867188 3.835938 C -2.375 15.660156 -2.6875 25.871094 -2.769531 33.335938 C -2.816406 37.257812 -2.769531 40.335938 -2.660156 42.425781 C -2.507812 45.261719 -2.394531 46.898438 -0.917969 47.1875 C -0.695312 47.152344 -0.539062 47.203125 -0.316406 47.167969 C 0.929688 46.964844 1.304688 45.097656 1.632812 43.390625 C 1.808594 42.609375 1.3125 41.863281 0.53125 41.6875 C 0.386719 41.710938 0.300781 41.648438 0.152344 41.671875 C -0.0351562 35.832031 0.101562 22.636719 1.101562 1.703125 C 1.789062 -14.136719 2.773438 -30.023438 3.800781 -43.285156 C 23.90625 -46.972656 50.039062 -51.550781 53.214844 -51.007812 C 53.796875 -50.648438 54.457031 -50.753906 54.984375 -51.214844 C 55.503906 -51.75 55.507812 -52.65625 54.960938 -53.246094 Z M 54.960938 -53.246094 "/></g></g></g><g fill="#4e6470" fill-opacity="1"><g transform="translate(239.061978, 212.173484)"><g><path d="M 22.167969 -20.347656 C 21.4375 -20.683594 20.578125 -20.394531 20.246094 -19.664062 C 15.980469 -11.074219 12.285156 -5.511719 8.390625 -1.648438 C 6.4375 0.246094 4.355469 0.878906 2.796875 0.078125 C 1.8125 -0.441406 -1.375 -2.941406 0.128906 -13.71875 C 6.300781 -20.734375 9.292969 -26.933594 7.792969 -29.703125 C 7.285156 -30.523438 6.308594 -30.96875 5.355469 -30.816406 C 2.433594 -30.269531 -1.230469 -24.488281 -2.640625 -14.554688 C -4.359375 -2.308594 -0.742188 1.472656 1.550781 2.609375 C 2.707031 3.253906 3.9375 3.429688 5.257812 3.21875 C 6.945312 2.945312 8.75 1.980469 10.371094 0.363281 C 14.523438 -3.765625 18.34375 -9.496094 22.777344 -18.414062 C 23.113281 -19.144531 22.824219 -20.003906 22.167969 -20.347656 Z M 5.265625 -27.640625 C 5.160156 -26.417969 4.289062 -23.871094 1.40625 -19.796875 C 2.632812 -24.355469 4.355469 -26.742188 5.265625 -27.640625 Z M 5.265625 -27.640625 "/></g></g></g><g fill="#4e6470" fill-opacity="1"><g transform="translate(260.411501, 208.74022)"><g><path d="M 21.476562 -66.300781 C 20.890625 -66.65625 20.207031 -66.699219 19.570312 -66.445312 C 16.582031 -64.910156 13.398438 -48.667969 12.027344 -22.558594 C 11.953125 -22.09375 11.789062 -21.691406 11.640625 -21.214844 C 10.8125 -24.015625 8.777344 -24.519531 8.082031 -24.632812 C 4.773438 -25.078125 0.246094 -21.414062 -2.023438 -13.523438 C -3.78125 -7.597656 -3.136719 -0.324219 0.46875 1.054688 C 2.238281 1.746094 5.003906 1.152344 8.09375 -5.367188 C 9.453125 -8.144531 10.605469 -10.8125 11.695312 -13.394531 C 11.558594 -9.085938 11.460938 -4.550781 11.46875 0.1875 C 11.398438 8.628906 11.480469 15.691406 11.695312 20.773438 C 12.089844 30.71875 12.890625 31.945312 14.429688 32.152344 C 14.585938 32.199219 14.804688 32.164062 14.953125 32.140625 C 16.273438 31.929688 16.882812 30.101562 17.144531 28.929688 C 17.40625 28.210938 16.972656 27.375 16.191406 27.199219 C 15.789062 27.039062 15.347656 27.109375 15.003906 27.316406 C 14.644531 24.136719 14.222656 16.832031 14.339844 0.253906 C 14.363281 -8.03125 14.601562 -15.445312 14.90625 -21.964844 C 18.734375 -33.269531 20.105469 -42.523438 21.261719 -49.855469 C 21.414062 -50.785156 21.574219 -51.640625 21.679688 -52.40625 C 23.691406 -64.699219 22 -65.855469 21.476562 -66.300781 Z M 5.484375 -6.601562 C 3.347656 -2.117188 1.867188 -1.503906 1.476562 -1.59375 C 0.269531 -2.074219 -0.914062 -7.078125 0.734375 -12.761719 C 2.378906 -18.445312 5.351562 -21.484375 7.183594 -21.777344 C 7.40625 -21.8125 7.550781 -21.835938 7.710938 -21.789062 C 8.933594 -21.683594 9.054688 -19.519531 9.074219 -18.921875 C 9.109375 -18.25 9.582031 -17.648438 10.277344 -17.535156 C 8.949219 -14.082031 7.351562 -10.441406 5.484375 -6.601562 Z M 18.894531 -52.863281 C 18.71875 -52.082031 18.554688 -51.230469 18.476562 -50.3125 C 17.792969 -46.140625 17.046875 -41.425781 15.878906 -36.046875 C 17.003906 -48.722656 18.5625 -56.800781 19.710938 -60.898438 C 19.699219 -59.089844 19.441406 -56.488281 18.894531 -52.863281 Z M 18.894531 -52.863281 "/></g></g></g><g fill="#4e6470" fill-opacity="1"><g transform="translate(114.472474, 313.152555)"><g><path d="M 1.609375 -5.21875 L 1.609375 0 L 1.21875 0 L 1.21875 -4.84375 L 0.453125 -4.84375 L 0.453125 -5.21875 Z M 1.609375 -5.21875 "/></g></g></g><g fill="#4e6470" fill-opacity="1"><g transform="translate(118.736506, 313.152555)"><g><path d="M 3.90625 -1.703125 L 3.90625 -1.390625 L 3.171875 -1.390625 L 3.171875 0 L 2.78125 0 L 2.78125 -1.390625 L 0.125 -1.390625 L 3.15625 -5.28125 L 3.171875 -5.28125 L 3.171875 -1.703125 Z M 2.78125 -1.703125 L 2.78125 -4.265625 L 0.765625 -1.703125 Z M 2.78125 -1.703125 "/></g></g></g><g fill="#4e6470" fill-opacity="1"><g transform="translate(124.624557, 313.152555)"><g/></g></g><g fill="#4e6470" fill-opacity="1"><g transform="translate(128.824583, 313.152555)"><g><path d="M 3.75 -5.046875 C 3.550781 -5.128906 3.332031 -5.203125 3.09375 -5.265625 C 2.863281 -5.335938 2.640625 -5.375 2.421875 -5.375 C 2.046875 -5.375 1.742188 -5.28125 1.515625 -5.09375 C 1.296875 -4.90625 1.1875 -4.671875 1.1875 -4.390625 C 1.1875 -4.179688 1.242188 -4.003906 1.359375 -3.859375 C 1.484375 -3.722656 1.640625 -3.609375 1.828125 -3.515625 C 2.015625 -3.421875 2.253906 -3.316406 2.546875 -3.203125 C 2.867188 -3.085938 3.132812 -2.96875 3.34375 -2.84375 C 3.550781 -2.71875 3.726562 -2.550781 3.875 -2.34375 C 4.019531 -2.132812 4.09375 -1.863281 4.09375 -1.53125 C 4.09375 -1.21875 4.015625 -0.941406 3.859375 -0.703125 C 3.710938 -0.460938 3.503906 -0.273438 3.234375 -0.140625 C 2.960938 -0.00390625 2.65625 0.0625 2.3125 0.0625 C 1.707031 0.0625 1.109375 -0.128906 0.515625 -0.515625 L 0.703125 -0.84375 C 0.898438 -0.6875 1.140625 -0.550781 1.421875 -0.4375 C 1.710938 -0.332031 1.992188 -0.28125 2.265625 -0.28125 C 2.503906 -0.28125 2.734375 -0.328125 2.953125 -0.421875 C 3.171875 -0.515625 3.347656 -0.65625 3.484375 -0.84375 C 3.617188 -1.03125 3.6875 -1.257812 3.6875 -1.53125 C 3.6875 -1.78125 3.625 -1.988281 3.5 -2.15625 C 3.375 -2.332031 3.21875 -2.472656 3.03125 -2.578125 C 2.84375 -2.679688 2.601562 -2.785156 2.3125 -2.890625 C 1.988281 -3.003906 1.722656 -3.113281 1.515625 -3.21875 C 1.304688 -3.332031 1.128906 -3.476562 0.984375 -3.65625 C 0.847656 -3.84375 0.78125 -4.070312 0.78125 -4.34375 C 0.78125 -4.613281 0.847656 -4.847656 0.984375 -5.046875 C 1.117188 -5.253906 1.304688 -5.414062 1.546875 -5.53125 C 1.796875 -5.644531 2.070312 -5.707031 2.375 -5.71875 C 2.625 -5.71875 2.882812 -5.679688 3.15625 -5.609375 C 3.4375 -5.535156 3.679688 -5.445312 3.890625 -5.34375 Z M 3.75 -5.046875 "/></g></g></g><g fill="#4e6470" fill-opacity="1"><g transform="translate(135.216633, 313.152555)"><g><path d="M 4.40625 -5.6875 L 4.40625 -5.296875 L 1.296875 -5.296875 L 1.296875 -3.046875 L 4.09375 -3.046875 L 4.09375 -2.671875 L 1.296875 -2.671875 L 1.296875 -0.375 L 4.515625 -0.375 L 4.515625 0 L 0.90625 0 L 0.90625 -5.6875 Z M 4.40625 -5.6875 "/></g></g></g><g fill="#4e6470" fill-opacity="1"><g transform="translate(142.072695, 313.152555)"><g><path d="M 2.21875 -5.6875 C 2.757812 -5.6875 3.1875 -5.546875 3.5 -5.265625 C 3.8125 -4.992188 3.96875 -4.597656 3.96875 -4.078125 C 3.96875 -3.773438 3.90625 -3.492188 3.78125 -3.234375 C 3.65625 -2.984375 3.457031 -2.78125 3.1875 -2.625 C 2.914062 -2.46875 2.578125 -2.390625 2.171875 -2.390625 L 1.296875 -2.390625 L 1.296875 0 L 0.90625 0 L 0.90625 -5.6875 Z M 2.171875 -2.765625 C 2.515625 -2.765625 2.789062 -2.832031 3 -2.96875 C 3.21875 -3.101562 3.367188 -3.269531 3.453125 -3.46875 C 3.546875 -3.675781 3.59375 -3.878906 3.59375 -4.078125 C 3.59375 -4.441406 3.472656 -4.734375 3.234375 -4.953125 C 3.003906 -5.179688 2.675781 -5.296875 2.25 -5.296875 L 1.296875 -5.296875 L 1.296875 -2.765625 Z M 2.171875 -2.765625 "/></g></g></g><g fill="#4e6470" fill-opacity="1"><g transform="translate(148.248741, 313.152555)"><g><path d="M 4.171875 -5.6875 L 4.171875 -5.296875 L 2.5 -5.296875 L 2.5 0 L 2.109375 0 L 2.109375 -5.296875 L 0.453125 -5.296875 L 0.453125 -5.6875 Z M 4.171875 -5.6875 "/></g></g></g><g fill="#4e6470" fill-opacity="1"><g transform="translate(154.608789, 313.152555)"><g><path d="M 4.40625 -5.6875 L 4.40625 -5.296875 L 1.296875 -5.296875 L 1.296875 -3.046875 L 4.09375 -3.046875 L 4.09375 -2.671875 L 1.296875 -2.671875 L 1.296875 -0.375 L 4.515625 -0.375 L 4.515625 0 L 0.90625 0 L 0.90625 -5.6875 Z M 4.40625 -5.6875 "/></g></g></g><g fill="#4e6470" fill-opacity="1"><g transform="translate(161.464848, 313.152555)"><g><path d="M 6.34375 -5.8125 L 6.34375 0 L 5.953125 0 L 5.953125 -4.65625 L 3.625 -1.375 L 3.609375 -1.375 L 1.28125 -4.625 L 1.28125 0 L 0.90625 0 L 0.90625 -5.8125 L 3.609375 -1.953125 L 6.328125 -5.8125 Z M 6.34375 -5.8125 "/></g></g></g><g fill="#4e6470" fill-opacity="1"><g transform="translate(170.45692, 313.152555)"><g><path d="M 3.03125 -2.890625 C 3.375 -2.785156 3.648438 -2.613281 3.859375 -2.375 C 4.066406 -2.132812 4.171875 -1.847656 4.171875 -1.515625 C 4.171875 -1.191406 4.085938 -0.914062 3.921875 -0.6875 C 3.765625 -0.457031 3.546875 -0.285156 3.265625 -0.171875 C 2.992188 -0.0546875 2.703125 0 2.390625 0 L 0.90625 0 L 0.90625 -5.6875 L 2.15625 -5.6875 C 3.3125 -5.6875 3.890625 -5.203125 3.890625 -4.234375 C 3.890625 -3.921875 3.816406 -3.644531 3.671875 -3.40625 C 3.523438 -3.175781 3.3125 -3.003906 3.03125 -2.890625 Z M 1.296875 -3.03125 L 2.34375 -3.03125 C 2.726562 -3.03125 3.015625 -3.128906 3.203125 -3.328125 C 3.390625 -3.535156 3.484375 -3.816406 3.484375 -4.171875 C 3.484375 -4.554688 3.367188 -4.835938 3.140625 -5.015625 C 2.910156 -5.203125 2.585938 -5.296875 2.171875 -5.296875 L 1.296875 -5.296875 Z M 2.375 -0.359375 C 2.769531 -0.359375 3.101562 -0.457031 3.375 -0.65625 C 3.644531 -0.851562 3.78125 -1.132812 3.78125 -1.5 C 3.78125 -1.882812 3.632812 -2.171875 3.34375 -2.359375 C 3.0625 -2.546875 2.726562 -2.640625 2.34375 -2.640625 L 1.296875 -2.640625 L 1.296875 -0.359375 Z M 2.375 -0.359375 "/></g></g></g><g fill="#4e6470" fill-opacity="1"><g transform="translate(176.920969, 313.152555)"><g><path d="M 4.40625 -5.6875 L 4.40625 -5.296875 L 1.296875 -5.296875 L 1.296875 -3.046875 L 4.09375 -3.046875 L 4.09375 -2.671875 L 1.296875 -2.671875 L 1.296875 -0.375 L 4.515625 -0.375 L 4.515625 0 L 0.90625 0 L 0.90625 -5.6875 Z M 4.40625 -5.6875 "/></g></g></g><g fill="#4e6470" fill-opacity="1"><g transform="translate(183.777028, 313.152555)"><g><path d="M 4.09375 0 L 2.59375 -2.421875 C 2.488281 -2.398438 2.347656 -2.390625 2.171875 -2.390625 L 1.296875 -2.390625 L 1.296875 0 L 0.90625 0 L 0.90625 -5.6875 L 2.203125 -5.6875 C 2.492188 -5.6875 2.773438 -5.625 3.046875 -5.5 C 3.328125 -5.382812 3.550781 -5.207031 3.71875 -4.96875 C 3.894531 -4.726562 3.984375 -4.429688 3.984375 -4.078125 C 3.984375 -3.722656 3.90625 -3.40625 3.75 -3.125 C 3.59375 -2.851562 3.347656 -2.648438 3.015625 -2.515625 L 4.546875 0 Z M 2.15625 -2.765625 C 2.664062 -2.765625 3.03125 -2.890625 3.25 -3.140625 C 3.476562 -3.398438 3.59375 -3.707031 3.59375 -4.0625 C 3.59375 -4.28125 3.535156 -4.484375 3.421875 -4.671875 C 3.316406 -4.867188 3.160156 -5.019531 2.953125 -5.125 C 2.753906 -5.238281 2.519531 -5.296875 2.25 -5.296875 L 1.296875 -5.296875 L 1.296875 -2.765625 Z M 2.15625 -2.765625 "/></g></g></g><g fill="#4e6470" fill-opacity="1"><g transform="translate(190.585083, 313.152555)"><g/></g></g><g fill="#4e6470" fill-opacity="1"><g transform="translate(194.785107, 313.152555)"><g><path d="M 3.765625 -0.375 L 3.765625 0 L 0.421875 0 C 1.035156 -0.59375 1.515625 -1.070312 1.859375 -1.4375 C 2.203125 -1.8125 2.488281 -2.191406 2.71875 -2.578125 C 2.957031 -2.960938 3.078125 -3.320312 3.078125 -3.65625 C 3.078125 -3.945312 3.019531 -4.1875 2.90625 -4.375 C 2.789062 -4.5625 2.644531 -4.695312 2.46875 -4.78125 C 2.289062 -4.875 2.109375 -4.921875 1.921875 -4.921875 C 1.640625 -4.921875 1.410156 -4.859375 1.234375 -4.734375 C 1.054688 -4.609375 0.929688 -4.453125 0.859375 -4.265625 C 0.785156 -4.085938 0.75 -3.910156 0.75 -3.734375 C 0.75 -3.359375 0.851562 -3.0625 1.0625 -2.84375 L 0.828125 -2.625 C 0.679688 -2.75 0.566406 -2.910156 0.484375 -3.109375 C 0.410156 -3.304688 0.375 -3.507812 0.375 -3.71875 C 0.375 -4.007812 0.4375 -4.273438 0.5625 -4.515625 C 0.6875 -4.753906 0.867188 -4.941406 1.109375 -5.078125 C 1.347656 -5.210938 1.632812 -5.28125 1.96875 -5.28125 C 2.257812 -5.28125 2.519531 -5.207031 2.75 -5.0625 C 2.976562 -4.925781 3.15625 -4.738281 3.28125 -4.5 C 3.414062 -4.257812 3.484375 -3.988281 3.484375 -3.6875 C 3.484375 -3.375 3.394531 -3.050781 3.21875 -2.71875 C 3.050781 -2.394531 2.84375 -2.085938 2.59375 -1.796875 C 2.34375 -1.503906 2.015625 -1.144531 1.609375 -0.71875 L 1.28125 -0.375 Z M 3.765625 -0.375 "/></g></g></g><g fill="#4e6470" fill-opacity="1"><g transform="translate(200.585158, 313.152555)"><g><path d="M 2.484375 0.046875 C 2.035156 0.046875 1.644531 -0.0664062 1.3125 -0.296875 C 0.976562 -0.535156 0.722656 -0.859375 0.546875 -1.265625 C 0.367188 -1.671875 0.28125 -2.125 0.28125 -2.625 C 0.28125 -3.132812 0.363281 -3.585938 0.53125 -3.984375 C 0.707031 -4.390625 0.960938 -4.703125 1.296875 -4.921875 C 1.628906 -5.148438 2.023438 -5.265625 2.484375 -5.265625 C 2.929688 -5.265625 3.316406 -5.148438 3.640625 -4.921875 C 3.972656 -4.691406 4.222656 -4.375 4.390625 -3.96875 C 4.566406 -3.5625 4.65625 -3.113281 4.65625 -2.625 C 4.65625 -2.125 4.566406 -1.671875 4.390625 -1.265625 C 4.222656 -0.859375 3.972656 -0.535156 3.640625 -0.296875 C 3.316406 -0.0664062 2.929688 0.046875 2.484375 0.046875 Z M 2.46875 -0.34375 C 2.820312 -0.34375 3.132812 -0.429688 3.40625 -0.609375 C 3.675781 -0.796875 3.882812 -1.0625 4.03125 -1.40625 C 4.1875 -1.75 4.265625 -2.15625 4.265625 -2.625 C 4.265625 -3.082031 4.1875 -3.484375 4.03125 -3.828125 C 3.882812 -4.171875 3.675781 -4.429688 3.40625 -4.609375 C 3.132812 -4.796875 2.820312 -4.890625 2.46875 -4.890625 C 2.125 -4.890625 1.816406 -4.796875 1.546875 -4.609375 C 1.273438 -4.429688 1.0625 -4.164062 0.90625 -3.8125 C 0.757812 -3.46875 0.6875 -3.066406 0.6875 -2.609375 C 0.6875 -2.148438 0.757812 -1.75 0.90625 -1.40625 C 1.0625 -1.0625 1.273438 -0.796875 1.546875 -0.609375 C 1.816406 -0.429688 2.125 -0.34375 2.46875 -0.34375 Z M 2.46875 -0.34375 "/></g></g></g><g fill="#4e6470" fill-opacity="1"><g transform="translate(207.281213, 313.152555)"><g><path d="M 3.765625 -0.375 L 3.765625 0 L 0.421875 0 C 1.035156 -0.59375 1.515625 -1.070312 1.859375 -1.4375 C 2.203125 -1.8125 2.488281 -2.191406 2.71875 -2.578125 C 2.957031 -2.960938 3.078125 -3.320312 3.078125 -3.65625 C 3.078125 -3.945312 3.019531 -4.1875 2.90625 -4.375 C 2.789062 -4.5625 2.644531 -4.695312 2.46875 -4.78125 C 2.289062 -4.875 2.109375 -4.921875 1.921875 -4.921875 C 1.640625 -4.921875 1.410156 -4.859375 1.234375 -4.734375 C 1.054688 -4.609375 0.929688 -4.453125 0.859375 -4.265625 C 0.785156 -4.085938 0.75 -3.910156 0.75 -3.734375 C 0.75 -3.359375 0.851562 -3.0625 1.0625 -2.84375 L 0.828125 -2.625 C 0.679688 -2.75 0.566406 -2.910156 0.484375 -3.109375 C 0.410156 -3.304688 0.375 -3.507812 0.375 -3.71875 C 0.375 -4.007812 0.4375 -4.273438 0.5625 -4.515625 C 0.6875 -4.753906 0.867188 -4.941406 1.109375 -5.078125 C 1.347656 -5.210938 1.632812 -5.28125 1.96875 -5.28125 C 2.257812 -5.28125 2.519531 -5.207031 2.75 -5.0625 C 2.976562 -4.925781 3.15625 -4.738281 3.28125 -4.5 C 3.414062 -4.257812 3.484375 -3.988281 3.484375 -3.6875 C 3.484375 -3.375 3.394531 -3.050781 3.21875 -2.71875 C 3.050781 -2.394531 2.84375 -2.085938 2.59375 -1.796875 C 2.34375 -1.503906 2.015625 -1.144531 1.609375 -0.71875 L 1.28125 -0.375 Z M 3.765625 -0.375 "/></g></g></g><g fill="#4e6470" fill-opacity="1"><g transform="translate(213.081259, 313.152555)"><g><path d="M 3.90625 -1.703125 L 3.90625 -1.390625 L 3.171875 -1.390625 L 3.171875 0 L 2.78125 0 L 2.78125 -1.390625 L 0.125 -1.390625 L 3.15625 -5.28125 L 3.171875 -5.28125 L 3.171875 -1.703125 Z M 2.78125 -1.703125 L 2.78125 -4.265625 L 0.765625 -1.703125 Z M 2.78125 -1.703125 "/></g></g></g><g fill="#4e6470" fill-opacity="1"><g transform="translate(218.969307, 313.152555)"><g/></g></g><g fill="#4e6470" fill-opacity="1"><g transform="translate(223.169332, 313.152555)"><g><path d="M 0.484375 0.15625 L 0.140625 0.15625 C 0.734375 -1.445312 1.101562 -2.460938 1.25 -2.890625 L 2.375 -5.921875 L 2.71875 -5.921875 Z M 0.484375 0.15625 "/></g></g></g><g fill="#4e6470" fill-opacity="1"><g transform="translate(227.697361, 313.152555)"><g/></g></g><g fill="#4e6470" fill-opacity="1"><g transform="translate(231.897386, 313.152555)"><g><path d="M 2.0625 -3.234375 C 2.34375 -3.253906 2.601562 -3.207031 2.84375 -3.09375 C 3.082031 -2.988281 3.269531 -2.820312 3.40625 -2.59375 C 3.550781 -2.363281 3.625 -2.078125 3.625 -1.734375 C 3.625 -1.378906 3.546875 -1.066406 3.390625 -0.796875 C 3.234375 -0.523438 3.015625 -0.3125 2.734375 -0.15625 C 2.453125 -0.0078125 2.140625 0.0625 1.796875 0.0625 C 1.554688 0.0625 1.320312 0.015625 1.09375 -0.078125 C 0.875 -0.179688 0.6875 -0.316406 0.53125 -0.484375 L 0.734375 -0.796875 C 0.847656 -0.648438 1 -0.53125 1.1875 -0.4375 C 1.382812 -0.351562 1.585938 -0.3125 1.796875 -0.3125 C 2.066406 -0.3125 2.3125 -0.367188 2.53125 -0.484375 C 2.75 -0.609375 2.914062 -0.78125 3.03125 -1 C 3.15625 -1.21875 3.21875 -1.46875 3.21875 -1.75 C 3.21875 -2.113281 3.101562 -2.40625 2.875 -2.625 C 2.644531 -2.84375 2.335938 -2.953125 1.953125 -2.953125 C 1.679688 -2.953125 1.4375 -2.898438 1.21875 -2.796875 L 1.1875 -2.8125 L 2.6875 -4.859375 L 0.703125 -4.859375 L 0.703125 -5.21875 L 3.34375 -5.21875 L 1.890625 -3.234375 C 1.929688 -3.234375 1.988281 -3.234375 2.0625 -3.234375 Z M 2.0625 -3.234375 "/></g></g></g><g fill="#4e6470" fill-opacity="1"><g transform="translate(237.801436, 313.152555)"><g><path d="M 2.21875 -5.6875 C 2.757812 -5.6875 3.1875 -5.546875 3.5 -5.265625 C 3.8125 -4.992188 3.96875 -4.597656 3.96875 -4.078125 C 3.96875 -3.773438 3.90625 -3.492188 3.78125 -3.234375 C 3.65625 -2.984375 3.457031 -2.78125 3.1875 -2.625 C 2.914062 -2.46875 2.578125 -2.390625 2.171875 -2.390625 L 1.296875 -2.390625 L 1.296875 0 L 0.90625 0 L 0.90625 -5.6875 Z M 2.171875 -2.765625 C 2.515625 -2.765625 2.789062 -2.832031 3 -2.96875 C 3.21875 -3.101562 3.367188 -3.269531 3.453125 -3.46875 C 3.546875 -3.675781 3.59375 -3.878906 3.59375 -4.078125 C 3.59375 -4.441406 3.472656 -4.734375 3.234375 -4.953125 C 3.003906 -5.179688 2.675781 -5.296875 2.25 -5.296875 L 1.296875 -5.296875 L 1.296875 -2.765625 Z M 2.171875 -2.765625 "/></g></g></g><g fill="#4e6470" fill-opacity="1"><g transform="translate(243.97748, 313.152555)"><g><path d="M 6.34375 -5.8125 L 6.34375 0 L 5.953125 0 L 5.953125 -4.65625 L 3.625 -1.375 L 3.609375 -1.375 L 1.28125 -4.625 L 1.28125 0 L 0.90625 0 L 0.90625 -5.8125 L 3.609375 -1.953125 L 6.328125 -5.8125 Z M 6.34375 -5.8125 "/></g></g></g><g fill="#4e6470" fill-opacity="1"><g transform="translate(109.399542, 329.152603)"><g><path d="M 4.09375 0 L 2.59375 -2.421875 C 2.488281 -2.398438 2.347656 -2.390625 2.171875 -2.390625 L 1.296875 -2.390625 L 1.296875 0 L 0.90625 0 L 0.90625 -5.6875 L 2.203125 -5.6875 C 2.492188 -5.6875 2.773438 -5.625 3.046875 -5.5 C 3.328125 -5.382812 3.550781 -5.207031 3.71875 -4.96875 C 3.894531 -4.726562 3.984375 -4.429688 3.984375 -4.078125 C 3.984375 -3.722656 3.90625 -3.40625 3.75 -3.125 C 3.59375 -2.851562 3.347656 -2.648438 3.015625 -2.515625 L 4.546875 0 Z M 2.15625 -2.765625 C 2.664062 -2.765625 3.03125 -2.890625 3.25 -3.140625 C 3.476562 -3.398438 3.59375 -3.707031 3.59375 -4.0625 C 3.59375 -4.28125 3.535156 -4.484375 3.421875 -4.671875 C 3.316406 -4.867188 3.160156 -5.019531 2.953125 -5.125 C 2.753906 -5.238281 2.519531 -5.296875 2.25 -5.296875 L 1.296875 -5.296875 L 1.296875 -2.765625 Z M 2.15625 -2.765625 "/></g></g></g><g fill="#4e6470" fill-opacity="1"><g transform="translate(116.207599, 329.152603)"><g><path d="M 4.40625 -5.6875 L 4.40625 -5.296875 L 1.296875 -5.296875 L 1.296875 -3.046875 L 4.09375 -3.046875 L 4.09375 -2.671875 L 1.296875 -2.671875 L 1.296875 -0.375 L 4.515625 -0.375 L 4.515625 0 L 0.90625 0 L 0.90625 -5.6875 Z M 4.40625 -5.6875 "/></g></g></g><g fill="#4e6470" fill-opacity="1"><g transform="translate(123.06366, 329.152603)"><g><path d="M 4.0625 -1.875 L 1.546875 -1.875 L 0.796875 0 L 0.40625 0 L 2.8125 -5.921875 L 2.84375 -5.921875 L 5.234375 0 L 4.796875 0 Z M 3.90625 -2.25 L 2.8125 -5.046875 L 1.703125 -2.25 Z M 3.90625 -2.25 "/></g></g></g><g fill="#4e6470" fill-opacity="1"><g transform="translate(130.455722, 329.152603)"><g><path d="M 1.296875 -5.6875 L 1.296875 -0.375 L 4.40625 -0.375 L 4.40625 0 L 0.90625 0 L 0.90625 -5.6875 Z M 1.296875 -5.6875 "/></g></g></g><g fill="#4e6470" fill-opacity="1"><g transform="translate(137.023778, 329.152603)"><g><path d="M 1.296875 -5.6875 L 1.296875 -0.375 L 4.40625 -0.375 L 4.40625 0 L 0.90625 0 L 0.90625 -5.6875 Z M 1.296875 -5.6875 "/></g></g></g><g fill="#4e6470" fill-opacity="1"><g transform="translate(143.591834, 329.152603)"><g><path d="M 4.953125 -5.6875 L 2.84375 -2.03125 L 2.84375 0 L 2.453125 0 L 2.453125 -2.03125 L 0.328125 -5.6875 L 0.8125 -5.6875 L 2.65625 -2.46875 L 4.484375 -5.6875 Z M 4.953125 -5.6875 "/></g></g></g><g fill="#4e6470" fill-opacity="1"><g transform="translate(150.623891, 329.152603)"><g/></g></g><g fill="#4e6470" fill-opacity="1"><g transform="translate(154.823918, 329.152603)"><g><path d="M 5.1875 -0.40625 C 5 -0.269531 4.738281 -0.15625 4.40625 -0.0625 C 4.070312 0.0195312 3.757812 0.0625 3.46875 0.0625 C 2.882812 0.0625 2.367188 -0.0625 1.921875 -0.3125 C 1.484375 -0.5625 1.144531 -0.898438 0.90625 -1.328125 C 0.664062 -1.765625 0.546875 -2.25 0.546875 -2.78125 C 0.546875 -3.34375 0.675781 -3.847656 0.9375 -4.296875 C 1.195312 -4.753906 1.546875 -5.109375 1.984375 -5.359375 C 2.429688 -5.617188 2.921875 -5.75 3.453125 -5.75 C 4.015625 -5.75 4.535156 -5.609375 5.015625 -5.328125 L 4.859375 -4.96875 C 4.671875 -5.082031 4.453125 -5.175781 4.203125 -5.25 C 3.960938 -5.320312 3.722656 -5.359375 3.484375 -5.359375 C 3.015625 -5.359375 2.582031 -5.242188 2.1875 -5.015625 C 1.800781 -4.796875 1.492188 -4.492188 1.265625 -4.109375 C 1.046875 -3.722656 0.9375 -3.289062 0.9375 -2.8125 C 0.9375 -2.34375 1.039062 -1.914062 1.25 -1.53125 C 1.46875 -1.15625 1.765625 -0.859375 2.140625 -0.640625 C 2.523438 -0.421875 2.96875 -0.3125 3.46875 -0.3125 C 3.695312 -0.3125 3.929688 -0.335938 4.171875 -0.390625 C 4.421875 -0.453125 4.628906 -0.53125 4.796875 -0.625 L 4.796875 -2.203125 L 3.515625 -2.203125 L 3.515625 -2.578125 L 5.1875 -2.578125 Z M 5.1875 -0.40625 "/></g></g></g><g fill="#4e6470" fill-opacity="1"><g transform="translate(162.495979, 329.152603)"><g><path d="M 4.09375 0 L 2.59375 -2.421875 C 2.488281 -2.398438 2.347656 -2.390625 2.171875 -2.390625 L 1.296875 -2.390625 L 1.296875 0 L 0.90625 0 L 0.90625 -5.6875 L 2.203125 -5.6875 C 2.492188 -5.6875 2.773438 -5.625 3.046875 -5.5 C 3.328125 -5.382812 3.550781 -5.207031 3.71875 -4.96875 C 3.894531 -4.726562 3.984375 -4.429688 3.984375 -4.078125 C 3.984375 -3.722656 3.90625 -3.40625 3.75 -3.125 C 3.59375 -2.851562 3.347656 -2.648438 3.015625 -2.515625 L 4.546875 0 Z M 2.15625 -2.765625 C 2.664062 -2.765625 3.03125 -2.890625 3.25 -3.140625 C 3.476562 -3.398438 3.59375 -3.707031 3.59375 -4.0625 C 3.59375 -4.28125 3.535156 -4.484375 3.421875 -4.671875 C 3.316406 -4.867188 3.160156 -5.019531 2.953125 -5.125 C 2.753906 -5.238281 2.519531 -5.296875 2.25 -5.296875 L 1.296875 -5.296875 L 1.296875 -2.765625 Z M 2.15625 -2.765625 "/></g></g></g><g fill="#4e6470" fill-opacity="1"><g transform="translate(169.304033, 329.152603)"><g><path d="M 4.40625 -5.6875 L 4.40625 -5.296875 L 1.296875 -5.296875 L 1.296875 -3.046875 L 4.09375 -3.046875 L 4.09375 -2.671875 L 1.296875 -2.671875 L 1.296875 -0.375 L 4.515625 -0.375 L 4.515625 0 L 0.90625 0 L 0.90625 -5.6875 Z M 4.40625 -5.6875 "/></g></g></g><g fill="#4e6470" fill-opacity="1"><g transform="translate(176.160092, 329.152603)"><g><path d="M 4.0625 -1.875 L 1.546875 -1.875 L 0.796875 0 L 0.40625 0 L 2.8125 -5.921875 L 2.84375 -5.921875 L 5.234375 0 L 4.796875 0 Z M 3.90625 -2.25 L 2.8125 -5.046875 L 1.703125 -2.25 Z M 3.90625 -2.25 "/></g></g></g><g fill="#4e6470" fill-opacity="1"><g transform="translate(183.552153, 329.152603)"><g><path d="M 4.171875 -5.6875 L 4.171875 -5.296875 L 2.5 -5.296875 L 2.5 0 L 2.109375 0 L 2.109375 -5.296875 L 0.453125 -5.296875 L 0.453125 -5.6875 Z M 4.171875 -5.6875 "/></g></g></g><g fill="#4e6470" fill-opacity="1"><g transform="translate(189.912199, 329.152603)"><g/></g></g><g fill="#4e6470" fill-opacity="1"><g transform="translate(194.112223, 329.152603)"><g><path d="M 3.75 -5.046875 C 3.550781 -5.128906 3.332031 -5.203125 3.09375 -5.265625 C 2.863281 -5.335938 2.640625 -5.375 2.421875 -5.375 C 2.046875 -5.375 1.742188 -5.28125 1.515625 -5.09375 C 1.296875 -4.90625 1.1875 -4.671875 1.1875 -4.390625 C 1.1875 -4.179688 1.242188 -4.003906 1.359375 -3.859375 C 1.484375 -3.722656 1.640625 -3.609375 1.828125 -3.515625 C 2.015625 -3.421875 2.253906 -3.316406 2.546875 -3.203125 C 2.867188 -3.085938 3.132812 -2.96875 3.34375 -2.84375 C 3.550781 -2.71875 3.726562 -2.550781 3.875 -2.34375 C 4.019531 -2.132812 4.09375 -1.863281 4.09375 -1.53125 C 4.09375 -1.21875 4.015625 -0.941406 3.859375 -0.703125 C 3.710938 -0.460938 3.503906 -0.273438 3.234375 -0.140625 C 2.960938 -0.00390625 2.65625 0.0625 2.3125 0.0625 C 1.707031 0.0625 1.109375 -0.128906 0.515625 -0.515625 L 0.703125 -0.84375 C 0.898438 -0.6875 1.140625 -0.550781 1.421875 -0.4375 C 1.710938 -0.332031 1.992188 -0.28125 2.265625 -0.28125 C 2.503906 -0.28125 2.734375 -0.328125 2.953125 -0.421875 C 3.171875 -0.515625 3.347656 -0.65625 3.484375 -0.84375 C 3.617188 -1.03125 3.6875 -1.257812 3.6875 -1.53125 C 3.6875 -1.78125 3.625 -1.988281 3.5 -2.15625 C 3.375 -2.332031 3.21875 -2.472656 3.03125 -2.578125 C 2.84375 -2.679688 2.601562 -2.785156 2.3125 -2.890625 C 1.988281 -3.003906 1.722656 -3.113281 1.515625 -3.21875 C 1.304688 -3.332031 1.128906 -3.476562 0.984375 -3.65625 C 0.847656 -3.84375 0.78125 -4.070312 0.78125 -4.34375 C 0.78125 -4.613281 0.847656 -4.847656 0.984375 -5.046875 C 1.117188 -5.253906 1.304688 -5.414062 1.546875 -5.53125 C 1.796875 -5.644531 2.070312 -5.707031 2.375 -5.71875 C 2.625 -5.71875 2.882812 -5.679688 3.15625 -5.609375 C 3.4375 -5.535156 3.679688 -5.445312 3.890625 -5.34375 Z M 3.75 -5.046875 "/></g></g></g><g fill="#4e6470" fill-opacity="1"><g transform="translate(200.504276, 329.152603)"><g><path d="M 1.296875 -5.6875 L 1.296875 0 L 0.90625 0 L 0.90625 -5.6875 Z M 1.296875 -5.6875 "/></g></g></g><g fill="#4e6470" fill-opacity="1"><g transform="translate(204.448299, 329.152603)"><g><path d="M 4.171875 -5.6875 L 4.171875 -5.296875 L 2.5 -5.296875 L 2.5 0 L 2.109375 0 L 2.109375 -5.296875 L 0.453125 -5.296875 L 0.453125 -5.6875 Z M 4.171875 -5.6875 "/></g></g></g><g fill="#4e6470" fill-opacity="1"><g transform="translate(210.808344, 329.152603)"><g><path d="M 4.40625 -5.6875 L 4.40625 -5.296875 L 1.296875 -5.296875 L 1.296875 -3.046875 L 4.09375 -3.046875 L 4.09375 -2.671875 L 1.296875 -2.671875 L 1.296875 -0.375 L 4.515625 -0.375 L 4.515625 0 L 0.90625 0 L 0.90625 -5.6875 Z M 4.40625 -5.6875 "/></g></g></g><g fill="#4e6470" fill-opacity="1"><g transform="translate(217.664403, 329.152603)"><g/></g></g><g fill="#4e6470" fill-opacity="1"><g transform="translate(221.864427, 329.152603)"><g><path d="M 5.109375 0 L 4.71875 0 L 4.71875 -2.671875 L 1.296875 -2.671875 L 1.296875 0 L 0.90625 0 L 0.90625 -5.6875 L 1.296875 -5.6875 L 1.296875 -3.046875 L 4.71875 -3.046875 L 4.71875 -5.6875 L 5.109375 -5.6875 Z M 5.109375 0 "/></g></g></g><g fill="#4e6470" fill-opacity="1"><g transform="translate(229.624491, 329.152603)"><g><path d="M 0.546875 -2.828125 C 0.546875 -3.347656 0.675781 -3.832031 0.9375 -4.28125 C 1.195312 -4.726562 1.546875 -5.082031 1.984375 -5.34375 C 2.429688 -5.613281 2.914062 -5.75 3.4375 -5.75 C 3.957031 -5.75 4.441406 -5.613281 4.890625 -5.34375 C 5.335938 -5.082031 5.691406 -4.726562 5.953125 -4.28125 C 6.222656 -3.832031 6.359375 -3.347656 6.359375 -2.828125 C 6.359375 -2.304688 6.222656 -1.820312 5.953125 -1.375 C 5.691406 -0.9375 5.335938 -0.585938 4.890625 -0.328125 C 4.441406 -0.0664062 3.957031 0.0625 3.4375 0.0625 C 2.90625 0.0625 2.414062 -0.0625 1.96875 -0.3125 C 1.53125 -0.5625 1.179688 -0.90625 0.921875 -1.34375 C 0.671875 -1.789062 0.546875 -2.285156 0.546875 -2.828125 Z M 0.9375 -2.828125 C 0.9375 -2.367188 1.046875 -1.945312 1.265625 -1.5625 C 1.492188 -1.175781 1.796875 -0.867188 2.171875 -0.640625 C 2.554688 -0.421875 2.976562 -0.3125 3.4375 -0.3125 C 3.894531 -0.3125 4.316406 -0.421875 4.703125 -0.640625 C 5.085938 -0.867188 5.390625 -1.175781 5.609375 -1.5625 C 5.835938 -1.945312 5.953125 -2.367188 5.953125 -2.828125 C 5.953125 -3.285156 5.835938 -3.707031 5.609375 -4.09375 C 5.378906 -4.488281 5.070312 -4.800781 4.6875 -5.03125 C 4.3125 -5.257812 3.894531 -5.375 3.4375 -5.375 C 2.976562 -5.375 2.554688 -5.253906 2.171875 -5.015625 C 1.785156 -4.785156 1.484375 -4.472656 1.265625 -4.078125 C 1.046875 -3.691406 0.9375 -3.273438 0.9375 -2.828125 Z M 0.9375 -2.828125 "/></g></g></g><g fill="#4e6470" fill-opacity="1"><g transform="translate(238.264562, 329.152603)"><g><path d="M 4.171875 -5.6875 L 4.171875 -5.296875 L 2.5 -5.296875 L 2.5 0 L 2.109375 0 L 2.109375 -5.296875 L 0.453125 -5.296875 L 0.453125 -5.6875 Z M 4.171875 -5.6875 "/></g></g></g><g fill="#4e6470" fill-opacity="1"><g transform="translate(244.624607, 329.152603)"><g><path d="M 4.40625 -5.6875 L 4.40625 -5.296875 L 1.296875 -5.296875 L 1.296875 -3.046875 L 4.09375 -3.046875 L 4.09375 -2.671875 L 1.296875 -2.671875 L 1.296875 -0.375 L 4.515625 -0.375 L 4.515625 0 L 0.90625 0 L 0.90625 -5.6875 Z M 4.40625 -5.6875 "/></g></g></g><g fill="#4e6470" fill-opacity="1"><g transform="translate(251.480666, 329.152603)"><g><path d="M 1.296875 -5.6875 L 1.296875 -0.375 L 4.40625 -0.375 L 4.40625 0 L 0.90625 0 L 0.90625 -5.6875 Z M 1.296875 -5.6875 "/></g></g></g><g fill="#4e6470" fill-opacity="1"><g transform="translate(91.816156, 345.152651)"><g><path d="M 1.609375 -5.21875 L 1.609375 0 L 1.21875 0 L 1.21875 -4.84375 L 0.453125 -4.84375 L 0.453125 -5.21875 Z M 1.609375 -5.21875 "/></g></g></g><g fill="#4e6470" fill-opacity="1"><g transform="translate(96.080189, 345.152651)"><g><path d="M 3.765625 -0.375 L 3.765625 0 L 0.421875 0 C 1.035156 -0.59375 1.515625 -1.070312 1.859375 -1.4375 C 2.203125 -1.8125 2.488281 -2.191406 2.71875 -2.578125 C 2.957031 -2.960938 3.078125 -3.320312 3.078125 -3.65625 C 3.078125 -3.945312 3.019531 -4.1875 2.90625 -4.375 C 2.789062 -4.5625 2.644531 -4.695312 2.46875 -4.78125 C 2.289062 -4.875 2.109375 -4.921875 1.921875 -4.921875 C 1.640625 -4.921875 1.410156 -4.859375 1.234375 -4.734375 C 1.054688 -4.609375 0.929688 -4.453125 0.859375 -4.265625 C 0.785156 -4.085938 0.75 -3.910156 0.75 -3.734375 C 0.75 -3.359375 0.851562 -3.0625 1.0625 -2.84375 L 0.828125 -2.625 C 0.679688 -2.75 0.566406 -2.910156 0.484375 -3.109375 C 0.410156 -3.304688 0.375 -3.507812 0.375 -3.71875 C 0.375 -4.007812 0.4375 -4.273438 0.5625 -4.515625 C 0.6875 -4.753906 0.867188 -4.941406 1.109375 -5.078125 C 1.347656 -5.210938 1.632812 -5.28125 1.96875 -5.28125 C 2.257812 -5.28125 2.519531 -5.207031 2.75 -5.0625 C 2.976562 -4.925781 3.15625 -4.738281 3.28125 -4.5 C 3.414062 -4.257812 3.484375 -3.988281 3.484375 -3.6875 C 3.484375 -3.375 3.394531 -3.050781 3.21875 -2.71875 C 3.050781 -2.394531 2.84375 -2.085938 2.59375 -1.796875 C 2.34375 -1.503906 2.015625 -1.144531 1.609375 -0.71875 L 1.28125 -0.375 Z M 3.765625 -0.375 "/></g></g></g><g fill="#4e6470" fill-opacity="1"><g transform="translate(101.880236, 345.152651)"><g><path d="M 2.0625 -3.234375 C 2.34375 -3.253906 2.601562 -3.207031 2.84375 -3.09375 C 3.082031 -2.988281 3.269531 -2.820312 3.40625 -2.59375 C 3.550781 -2.363281 3.625 -2.078125 3.625 -1.734375 C 3.625 -1.378906 3.546875 -1.066406 3.390625 -0.796875 C 3.234375 -0.523438 3.015625 -0.3125 2.734375 -0.15625 C 2.453125 -0.0078125 2.140625 0.0625 1.796875 0.0625 C 1.554688 0.0625 1.320312 0.015625 1.09375 -0.078125 C 0.875 -0.179688 0.6875 -0.316406 0.53125 -0.484375 L 0.734375 -0.796875 C 0.847656 -0.648438 1 -0.53125 1.1875 -0.4375 C 1.382812 -0.351562 1.585938 -0.3125 1.796875 -0.3125 C 2.066406 -0.3125 2.3125 -0.367188 2.53125 -0.484375 C 2.75 -0.609375 2.914062 -0.78125 3.03125 -1 C 3.15625 -1.21875 3.21875 -1.46875 3.21875 -1.75 C 3.21875 -2.113281 3.101562 -2.40625 2.875 -2.625 C 2.644531 -2.84375 2.335938 -2.953125 1.953125 -2.953125 C 1.679688 -2.953125 1.4375 -2.898438 1.21875 -2.796875 L 1.1875 -2.8125 L 2.6875 -4.859375 L 0.703125 -4.859375 L 0.703125 -5.21875 L 3.34375 -5.21875 L 1.890625 -3.234375 C 1.929688 -3.234375 1.988281 -3.234375 2.0625 -3.234375 Z M 2.0625 -3.234375 "/></g></g></g><g fill="#4e6470" fill-opacity="1"><g transform="translate(107.784288, 345.152651)"><g/></g></g><g fill="#4e6470" fill-opacity="1"><g transform="translate(111.984315, 345.152651)"><g><path d="M 4.0625 -1.875 L 1.546875 -1.875 L 0.796875 0 L 0.40625 0 L 2.8125 -5.921875 L 2.84375 -5.921875 L 5.234375 0 L 4.796875 0 Z M 3.90625 -2.25 L 2.8125 -5.046875 L 1.703125 -2.25 Z M 3.90625 -2.25 "/></g></g></g><g fill="#4e6470" fill-opacity="1"><g transform="translate(119.376379, 345.152651)"><g><path d="M 5.671875 -5.6875 L 5.671875 0.140625 L 5.65625 0.140625 L 1.28125 -4.796875 L 1.28125 0 L 0.90625 0 L 0.90625 -5.796875 L 0.921875 -5.796875 L 5.296875 -0.828125 L 5.296875 -5.6875 Z M 5.671875 -5.6875 "/></g></g></g><g fill="#4e6470" fill-opacity="1"><g transform="translate(127.696454, 345.152651)"><g><path d="M 4.953125 -5.6875 L 2.84375 -2.03125 L 2.84375 0 L 2.453125 0 L 2.453125 -2.03125 L 0.328125 -5.6875 L 0.8125 -5.6875 L 2.65625 -2.46875 L 4.484375 -5.6875 Z M 4.953125 -5.6875 "/></g></g></g><g fill="#4e6470" fill-opacity="1"><g transform="translate(134.728511, 345.152651)"><g><path d="M 5.265625 0.25 L 3.96875 -3.15625 L 2.625 0.265625 L 0.390625 -5.65625 L 0.84375 -5.65625 L 2.671875 -0.65625 L 3.78125 -3.640625 L 3.015625 -5.65625 L 3.40625 -5.65625 L 5.28125 -0.703125 L 7.140625 -5.65625 L 7.546875 -5.65625 Z M 5.265625 0.25 "/></g></g></g><g fill="#4e6470" fill-opacity="1"><g transform="translate(144.416589, 345.152651)"><g><path d="M 5.109375 0 L 4.71875 0 L 4.71875 -2.671875 L 1.296875 -2.671875 L 1.296875 0 L 0.90625 0 L 0.90625 -5.6875 L 1.296875 -5.6875 L 1.296875 -3.046875 L 4.71875 -3.046875 L 4.71875 -5.6875 L 5.109375 -5.6875 Z M 5.109375 0 "/></g></g></g><g fill="#4e6470" fill-opacity="1"><g transform="translate(152.176653, 345.152651)"><g><path d="M 4.40625 -5.6875 L 4.40625 -5.296875 L 1.296875 -5.296875 L 1.296875 -3.046875 L 4.09375 -3.046875 L 4.09375 -2.671875 L 1.296875 -2.671875 L 1.296875 -0.375 L 4.515625 -0.375 L 4.515625 0 L 0.90625 0 L 0.90625 -5.6875 Z M 4.40625 -5.6875 "/></g></g></g><g fill="#4e6470" fill-opacity="1"><g transform="translate(159.032712, 345.152651)"><g><path d="M 4.09375 0 L 2.59375 -2.421875 C 2.488281 -2.398438 2.347656 -2.390625 2.171875 -2.390625 L 1.296875 -2.390625 L 1.296875 0 L 0.90625 0 L 0.90625 -5.6875 L 2.203125 -5.6875 C 2.492188 -5.6875 2.773438 -5.625 3.046875 -5.5 C 3.328125 -5.382812 3.550781 -5.207031 3.71875 -4.96875 C 3.894531 -4.726562 3.984375 -4.429688 3.984375 -4.078125 C 3.984375 -3.722656 3.90625 -3.40625 3.75 -3.125 C 3.59375 -2.851562 3.347656 -2.648438 3.015625 -2.515625 L 4.546875 0 Z M 2.15625 -2.765625 C 2.664062 -2.765625 3.03125 -2.890625 3.25 -3.140625 C 3.476562 -3.398438 3.59375 -3.707031 3.59375 -4.0625 C 3.59375 -4.28125 3.535156 -4.484375 3.421875 -4.671875 C 3.316406 -4.867188 3.160156 -5.019531 2.953125 -5.125 C 2.753906 -5.238281 2.519531 -5.296875 2.25 -5.296875 L 1.296875 -5.296875 L 1.296875 -2.765625 Z M 2.15625 -2.765625 "/></g></g></g><g fill="#4e6470" fill-opacity="1"><g transform="translate(165.840766, 345.152651)"><g><path d="M 4.40625 -5.6875 L 4.40625 -5.296875 L 1.296875 -5.296875 L 1.296875 -3.046875 L 4.09375 -3.046875 L 4.09375 -2.671875 L 1.296875 -2.671875 L 1.296875 -0.375 L 4.515625 -0.375 L 4.515625 0 L 0.90625 0 L 0.90625 -5.6875 Z M 4.40625 -5.6875 "/></g></g></g><g fill="#4e6470" fill-opacity="1"><g transform="translate(172.696825, 345.152651)"><g/></g></g><g fill="#4e6470" fill-opacity="1"><g transform="translate(176.89685, 345.152651)"><g><path d="M 3.75 -5.046875 C 3.550781 -5.128906 3.332031 -5.203125 3.09375 -5.265625 C 2.863281 -5.335938 2.640625 -5.375 2.421875 -5.375 C 2.046875 -5.375 1.742188 -5.28125 1.515625 -5.09375 C 1.296875 -4.90625 1.1875 -4.671875 1.1875 -4.390625 C 1.1875 -4.179688 1.242188 -4.003906 1.359375 -3.859375 C 1.484375 -3.722656 1.640625 -3.609375 1.828125 -3.515625 C 2.015625 -3.421875 2.253906 -3.316406 2.546875 -3.203125 C 2.867188 -3.085938 3.132812 -2.96875 3.34375 -2.84375 C 3.550781 -2.71875 3.726562 -2.550781 3.875 -2.34375 C 4.019531 -2.132812 4.09375 -1.863281 4.09375 -1.53125 C 4.09375 -1.21875 4.015625 -0.941406 3.859375 -0.703125 C 3.710938 -0.460938 3.503906 -0.273438 3.234375 -0.140625 C 2.960938 -0.00390625 2.65625 0.0625 2.3125 0.0625 C 1.707031 0.0625 1.109375 -0.128906 0.515625 -0.515625 L 0.703125 -0.84375 C 0.898438 -0.6875 1.140625 -0.550781 1.421875 -0.4375 C 1.710938 -0.332031 1.992188 -0.28125 2.265625 -0.28125 C 2.503906 -0.28125 2.734375 -0.328125 2.953125 -0.421875 C 3.171875 -0.515625 3.347656 -0.65625 3.484375 -0.84375 C 3.617188 -1.03125 3.6875 -1.257812 3.6875 -1.53125 C 3.6875 -1.78125 3.625 -1.988281 3.5 -2.15625 C 3.375 -2.332031 3.21875 -2.472656 3.03125 -2.578125 C 2.84375 -2.679688 2.601562 -2.785156 2.3125 -2.890625 C 1.988281 -3.003906 1.722656 -3.113281 1.515625 -3.21875 C 1.304688 -3.332031 1.128906 -3.476562 0.984375 -3.65625 C 0.847656 -3.84375 0.78125 -4.070312 0.78125 -4.34375 C 0.78125 -4.613281 0.847656 -4.847656 0.984375 -5.046875 C 1.117188 -5.253906 1.304688 -5.414062 1.546875 -5.53125 C 1.796875 -5.644531 2.070312 -5.707031 2.375 -5.71875 C 2.625 -5.71875 2.882812 -5.679688 3.15625 -5.609375 C 3.4375 -5.535156 3.679688 -5.445312 3.890625 -5.34375 Z M 3.75 -5.046875 "/></g></g></g><g fill="#4e6470" fill-opacity="1"><g transform="translate(183.288903, 345.152651)"><g><path d="M 4.171875 -5.6875 L 4.171875 -5.296875 L 2.5 -5.296875 L 2.5 0 L 2.109375 0 L 2.109375 -5.296875 L 0.453125 -5.296875 L 0.453125 -5.6875 Z M 4.171875 -5.6875 "/></g></g></g><g fill="#4e6470" fill-opacity="1"><g transform="translate(189.648948, 345.152651)"><g><path d="M 4.09375 0 L 2.59375 -2.421875 C 2.488281 -2.398438 2.347656 -2.390625 2.171875 -2.390625 L 1.296875 -2.390625 L 1.296875 0 L 0.90625 0 L 0.90625 -5.6875 L 2.203125 -5.6875 C 2.492188 -5.6875 2.773438 -5.625 3.046875 -5.5 C 3.328125 -5.382812 3.550781 -5.207031 3.71875 -4.96875 C 3.894531 -4.726562 3.984375 -4.429688 3.984375 -4.078125 C 3.984375 -3.722656 3.90625 -3.40625 3.75 -3.125 C 3.59375 -2.851562 3.347656 -2.648438 3.015625 -2.515625 L 4.546875 0 Z M 2.15625 -2.765625 C 2.664062 -2.765625 3.03125 -2.890625 3.25 -3.140625 C 3.476562 -3.398438 3.59375 -3.707031 3.59375 -4.0625 C 3.59375 -4.28125 3.535156 -4.484375 3.421875 -4.671875 C 3.316406 -4.867188 3.160156 -5.019531 2.953125 -5.125 C 2.753906 -5.238281 2.519531 -5.296875 2.25 -5.296875 L 1.296875 -5.296875 L 1.296875 -2.765625 Z M 2.15625 -2.765625 "/></g></g></g><g fill="#4e6470" fill-opacity="1"><g transform="translate(196.457003, 345.152651)"><g><path d="M 4.40625 -5.6875 L 4.40625 -5.296875 L 1.296875 -5.296875 L 1.296875 -3.046875 L 4.09375 -3.046875 L 4.09375 -2.671875 L 1.296875 -2.671875 L 1.296875 -0.375 L 4.515625 -0.375 L 4.515625 0 L 0.90625 0 L 0.90625 -5.6875 Z M 4.40625 -5.6875 "/></g></g></g><g fill="#4e6470" fill-opacity="1"><g transform="translate(203.313062, 345.152651)"><g><path d="M 4.40625 -5.6875 L 4.40625 -5.296875 L 1.296875 -5.296875 L 1.296875 -3.046875 L 4.09375 -3.046875 L 4.09375 -2.671875 L 1.296875 -2.671875 L 1.296875 -0.375 L 4.515625 -0.375 L 4.515625 0 L 0.90625 0 L 0.90625 -5.6875 Z M 4.40625 -5.6875 "/></g></g></g><g fill="#4e6470" fill-opacity="1"><g transform="translate(210.16912, 345.152651)"><g><path d="M 4.171875 -5.6875 L 4.171875 -5.296875 L 2.5 -5.296875 L 2.5 0 L 2.109375 0 L 2.109375 -5.296875 L 0.453125 -5.296875 L 0.453125 -5.6875 Z M 4.171875 -5.6875 "/></g></g></g><g fill="#4e6470" fill-opacity="1"><g transform="translate(216.529166, 345.152651)"><g><path d="M 0.453125 0.96875 L 0.140625 0.96875 L 0.75 -0.703125 L 1.140625 -0.703125 Z M 0.453125 0.96875 "/></g></g></g><g fill="#4e6470" fill-opacity="1"><g transform="translate(219.881186, 345.152651)"><g/></g></g><g fill="#4e6470" fill-opacity="1"><g transform="translate(224.08121, 345.152651)"><g><path d="M 4.0625 -1.875 L 1.546875 -1.875 L 0.796875 0 L 0.40625 0 L 2.8125 -5.921875 L 2.84375 -5.921875 L 5.234375 0 L 4.796875 0 Z M 3.90625 -2.25 L 2.8125 -5.046875 L 1.703125 -2.25 Z M 3.90625 -2.25 "/></g></g></g><g fill="#4e6470" fill-opacity="1"><g transform="translate(231.473271, 345.152651)"><g><path d="M 5.671875 -5.6875 L 5.671875 0.140625 L 5.65625 0.140625 L 1.28125 -4.796875 L 1.28125 0 L 0.90625 0 L 0.90625 -5.796875 L 0.921875 -5.796875 L 5.296875 -0.828125 L 5.296875 -5.6875 Z M 5.671875 -5.6875 "/></g></g></g><g fill="#4e6470" fill-opacity="1"><g transform="translate(239.793344, 345.152651)"><g><path d="M 4.953125 -5.6875 L 2.84375 -2.03125 L 2.84375 0 L 2.453125 0 L 2.453125 -2.03125 L 0.328125 -5.6875 L 0.8125 -5.6875 L 2.65625 -2.46875 L 4.484375 -5.6875 Z M 4.953125 -5.6875 "/></g></g></g><g fill="#4e6470" fill-opacity="1"><g transform="translate(246.825399, 345.152651)"><g/></g></g><g fill="#4e6470" fill-opacity="1"><g transform="translate(251.025423, 345.152651)"><g><path d="M 4.984375 -0.375 C 4.773438 -0.25 4.539062 -0.144531 4.28125 -0.0625 C 4.019531 0.0195312 3.738281 0.0625 3.4375 0.0625 C 2.863281 0.0625 2.359375 -0.0625 1.921875 -0.3125 C 1.484375 -0.570312 1.144531 -0.921875 0.90625 -1.359375 C 0.664062 -1.796875 0.546875 -2.273438 0.546875 -2.796875 C 0.546875 -3.347656 0.671875 -3.847656 0.921875 -4.296875 C 1.171875 -4.742188 1.515625 -5.097656 1.953125 -5.359375 C 2.390625 -5.617188 2.875 -5.75 3.40625 -5.75 C 3.96875 -5.75 4.484375 -5.601562 4.953125 -5.3125 L 4.796875 -4.953125 C 4.347656 -5.234375 3.890625 -5.375 3.421875 -5.375 C 2.972656 -5.375 2.554688 -5.257812 2.171875 -5.03125 C 1.796875 -4.800781 1.5 -4.488281 1.28125 -4.09375 C 1.0625 -3.707031 0.953125 -3.28125 0.953125 -2.8125 C 0.953125 -2.351562 1.050781 -1.929688 1.25 -1.546875 C 1.457031 -1.171875 1.75 -0.867188 2.125 -0.640625 C 2.5 -0.421875 2.929688 -0.3125 3.421875 -0.3125 C 3.910156 -0.3125 4.367188 -0.445312 4.796875 -0.71875 Z M 4.984375 -0.375 "/></g></g></g><g fill="#4e6470" fill-opacity="1"><g transform="translate(258.297479, 345.152651)"><g><path d="M 1.296875 -5.6875 L 1.296875 0 L 0.90625 0 L 0.90625 -5.6875 Z M 1.296875 -5.6875 "/></g></g></g><g fill="#4e6470" fill-opacity="1"><g transform="translate(262.241501, 345.152651)"><g><path d="M 4.171875 -5.6875 L 4.171875 -5.296875 L 2.5 -5.296875 L 2.5 0 L 2.109375 0 L 2.109375 -5.296875 L 0.453125 -5.296875 L 0.453125 -5.6875 Z M 4.171875 -5.6875 "/></g></g></g><g fill="#4e6470" fill-opacity="1"><g transform="translate(268.601556, 345.152651)"><g><path d="M 4.953125 -5.6875 L 2.84375 -2.03125 L 2.84375 0 L 2.453125 0 L 2.453125 -2.03125 L 0.328125 -5.6875 L 0.8125 -5.6875 L 2.65625 -2.46875 L 4.484375 -5.6875 Z M 4.953125 -5.6875 "/></g></g></g><g fill="#4e6470" fill-opacity="1"><g transform="translate(83.49685, 396.271853)"><g><path d="M 0.90625 -5.6875 L 2.296875 -5.6875 C 2.992188 -5.6875 3.570312 -5.539062 4.03125 -5.25 C 4.488281 -4.96875 4.820312 -4.609375 5.03125 -4.171875 C 5.238281 -3.734375 5.34375 -3.28125 5.34375 -2.8125 C 5.34375 -2.25 5.210938 -1.753906 4.953125 -1.328125 C 4.703125 -0.910156 4.363281 -0.582031 3.9375 -0.34375 C 3.519531 -0.113281 3.066406 0 2.578125 0 L 0.90625 0 Z M 2.46875 -0.375 C 2.925781 -0.375 3.34375 -0.472656 3.71875 -0.671875 C 4.09375 -0.867188 4.390625 -1.15625 4.609375 -1.53125 C 4.828125 -1.90625 4.9375 -2.335938 4.9375 -2.828125 C 4.9375 -3.273438 4.835938 -3.6875 4.640625 -4.0625 C 4.441406 -4.4375 4.144531 -4.734375 3.75 -4.953125 C 3.363281 -5.179688 2.898438 -5.296875 2.359375 -5.296875 L 1.296875 -5.296875 L 1.296875 -0.375 Z M 2.46875 -0.375 "/></g></g></g><g fill="#4e6470" fill-opacity="1"><g transform="translate(91.128867, 396.271853)"><g><path d="M 1.296875 -5.6875 L 1.296875 0 L 0.90625 0 L 0.90625 -5.6875 Z M 1.296875 -5.6875 "/></g></g></g><g fill="#4e6470" fill-opacity="1"><g transform="translate(95.072867, 396.271853)"><g><path d="M 5.671875 -5.6875 L 5.671875 0.140625 L 5.65625 0.140625 L 1.28125 -4.796875 L 1.28125 0 L 0.90625 0 L 0.90625 -5.796875 L 0.921875 -5.796875 L 5.296875 -0.828125 L 5.296875 -5.6875 Z M 5.671875 -5.6875 "/></g></g></g><g fill="#4e6470" fill-opacity="1"><g transform="translate(103.392889, 396.271853)"><g><path d="M 5.671875 -5.6875 L 5.671875 0.140625 L 5.65625 0.140625 L 1.28125 -4.796875 L 1.28125 0 L 0.90625 0 L 0.90625 -5.796875 L 0.921875 -5.796875 L 5.296875 -0.828125 L 5.296875 -5.6875 Z M 5.671875 -5.6875 "/></g></g></g><g fill="#4e6470" fill-opacity="1"><g transform="translate(111.712913, 396.271853)"><g><path d="M 4.40625 -5.6875 L 4.40625 -5.296875 L 1.296875 -5.296875 L 1.296875 -3.046875 L 4.09375 -3.046875 L 4.09375 -2.671875 L 1.296875 -2.671875 L 1.296875 -0.375 L 4.515625 -0.375 L 4.515625 0 L 0.90625 0 L 0.90625 -5.6875 Z M 4.40625 -5.6875 "/></g></g></g><g fill="#4e6470" fill-opacity="1"><g transform="translate(118.568932, 396.271853)"><g><path d="M 4.09375 0 L 2.59375 -2.421875 C 2.488281 -2.398438 2.347656 -2.390625 2.171875 -2.390625 L 1.296875 -2.390625 L 1.296875 0 L 0.90625 0 L 0.90625 -5.6875 L 2.203125 -5.6875 C 2.492188 -5.6875 2.773438 -5.625 3.046875 -5.5 C 3.328125 -5.382812 3.550781 -5.207031 3.71875 -4.96875 C 3.894531 -4.726562 3.984375 -4.429688 3.984375 -4.078125 C 3.984375 -3.722656 3.90625 -3.40625 3.75 -3.125 C 3.59375 -2.851562 3.347656 -2.648438 3.015625 -2.515625 L 4.546875 0 Z M 2.15625 -2.765625 C 2.664062 -2.765625 3.03125 -2.890625 3.25 -3.140625 C 3.476562 -3.398438 3.59375 -3.707031 3.59375 -4.0625 C 3.59375 -4.28125 3.535156 -4.484375 3.421875 -4.671875 C 3.316406 -4.867188 3.160156 -5.019531 2.953125 -5.125 C 2.753906 -5.238281 2.519531 -5.296875 2.25 -5.296875 L 1.296875 -5.296875 L 1.296875 -2.765625 Z M 2.15625 -2.765625 "/></g></g></g><g fill="#4e6470" fill-opacity="1"><g transform="translate(125.376947, 396.271853)"><g/></g></g><g fill="#4e6470" fill-opacity="1"><g transform="translate(129.576948, 396.271853)"><g><path d="M 4.0625 -1.875 L 1.546875 -1.875 L 0.796875 0 L 0.40625 0 L 2.8125 -5.921875 L 2.84375 -5.921875 L 5.234375 0 L 4.796875 0 Z M 3.90625 -2.25 L 2.8125 -5.046875 L 1.703125 -2.25 Z M 3.90625 -2.25 "/></g></g></g><g fill="#4e6470" fill-opacity="1"><g transform="translate(136.968964, 396.271853)"><g><path d="M 5.671875 -5.6875 L 5.671875 0.140625 L 5.65625 0.140625 L 1.28125 -4.796875 L 1.28125 0 L 0.90625 0 L 0.90625 -5.796875 L 0.921875 -5.796875 L 5.296875 -0.828125 L 5.296875 -5.6875 Z M 5.671875 -5.6875 "/></g></g></g><g fill="#4e6470" fill-opacity="1"><g transform="translate(145.288985, 396.271853)"><g><path d="M 0.90625 -5.6875 L 2.296875 -5.6875 C 2.992188 -5.6875 3.570312 -5.539062 4.03125 -5.25 C 4.488281 -4.96875 4.820312 -4.609375 5.03125 -4.171875 C 5.238281 -3.734375 5.34375 -3.28125 5.34375 -2.8125 C 5.34375 -2.25 5.210938 -1.753906 4.953125 -1.328125 C 4.703125 -0.910156 4.363281 -0.582031 3.9375 -0.34375 C 3.519531 -0.113281 3.066406 0 2.578125 0 L 0.90625 0 Z M 2.46875 -0.375 C 2.925781 -0.375 3.34375 -0.472656 3.71875 -0.671875 C 4.09375 -0.867188 4.390625 -1.15625 4.609375 -1.53125 C 4.828125 -1.90625 4.9375 -2.335938 4.9375 -2.828125 C 4.9375 -3.273438 4.835938 -3.6875 4.640625 -4.0625 C 4.441406 -4.4375 4.144531 -4.734375 3.75 -4.953125 C 3.363281 -5.179688 2.898438 -5.296875 2.359375 -5.296875 L 1.296875 -5.296875 L 1.296875 -0.375 Z M 2.46875 -0.375 "/></g></g></g><g fill="#4e6470" fill-opacity="1"><g transform="translate(152.921, 396.271853)"><g/></g></g><g fill="#4e6470" fill-opacity="1"><g transform="translate(157.120999, 396.271853)"><g><path d="M 0.90625 -5.6875 L 2.296875 -5.6875 C 2.992188 -5.6875 3.570312 -5.539062 4.03125 -5.25 C 4.488281 -4.96875 4.820312 -4.609375 5.03125 -4.171875 C 5.238281 -3.734375 5.34375 -3.28125 5.34375 -2.8125 C 5.34375 -2.25 5.210938 -1.753906 4.953125 -1.328125 C 4.703125 -0.910156 4.363281 -0.582031 3.9375 -0.34375 C 3.519531 -0.113281 3.066406 0 2.578125 0 L 0.90625 0 Z M 2.46875 -0.375 C 2.925781 -0.375 3.34375 -0.472656 3.71875 -0.671875 C 4.09375 -0.867188 4.390625 -1.15625 4.609375 -1.53125 C 4.828125 -1.90625 4.9375 -2.335938 4.9375 -2.828125 C 4.9375 -3.273438 4.835938 -3.6875 4.640625 -4.0625 C 4.441406 -4.4375 4.144531 -4.734375 3.75 -4.953125 C 3.363281 -5.179688 2.898438 -5.296875 2.359375 -5.296875 L 1.296875 -5.296875 L 1.296875 -0.375 Z M 2.46875 -0.375 "/></g></g></g><g fill="#4e6470" fill-opacity="1"><g transform="translate(164.753014, 396.271853)"><g><path d="M 4.0625 -1.875 L 1.546875 -1.875 L 0.796875 0 L 0.40625 0 L 2.8125 -5.921875 L 2.84375 -5.921875 L 5.234375 0 L 4.796875 0 Z M 3.90625 -2.25 L 2.8125 -5.046875 L 1.703125 -2.25 Z M 3.90625 -2.25 "/></g></g></g><g fill="#4e6470" fill-opacity="1"><g transform="translate(172.145034, 396.271853)"><g><path d="M 5.671875 -5.6875 L 5.671875 0.140625 L 5.65625 0.140625 L 1.28125 -4.796875 L 1.28125 0 L 0.90625 0 L 0.90625 -5.796875 L 0.921875 -5.796875 L 5.296875 -0.828125 L 5.296875 -5.6875 Z M 5.671875 -5.6875 "/></g></g></g><g fill="#4e6470" fill-opacity="1"><g transform="translate(180.465056, 396.271853)"><g><path d="M 4.984375 -0.375 C 4.773438 -0.25 4.539062 -0.144531 4.28125 -0.0625 C 4.019531 0.0195312 3.738281 0.0625 3.4375 0.0625 C 2.863281 0.0625 2.359375 -0.0625 1.921875 -0.3125 C 1.484375 -0.570312 1.144531 -0.921875 0.90625 -1.359375 C 0.664062 -1.796875 0.546875 -2.273438 0.546875 -2.796875 C 0.546875 -3.347656 0.671875 -3.847656 0.921875 -4.296875 C 1.171875 -4.742188 1.515625 -5.097656 1.953125 -5.359375 C 2.390625 -5.617188 2.875 -5.75 3.40625 -5.75 C 3.96875 -5.75 4.484375 -5.601562 4.953125 -5.3125 L 4.796875 -4.953125 C 4.347656 -5.234375 3.890625 -5.375 3.421875 -5.375 C 2.972656 -5.375 2.554688 -5.257812 2.171875 -5.03125 C 1.796875 -4.800781 1.5 -4.488281 1.28125 -4.09375 C 1.0625 -3.707031 0.953125 -3.28125 0.953125 -2.8125 C 0.953125 -2.351562 1.050781 -1.929688 1.25 -1.546875 C 1.457031 -1.171875 1.75 -0.867188 2.125 -0.640625 C 2.5 -0.421875 2.929688 -0.3125 3.421875 -0.3125 C 3.910156 -0.3125 4.367188 -0.445312 4.796875 -0.71875 Z M 4.984375 -0.375 "/></g></g></g><g fill="#4e6470" fill-opacity="1"><g transform="translate(187.737066, 396.271853)"><g><path d="M 1.296875 -5.6875 L 1.296875 0 L 0.90625 0 L 0.90625 -5.6875 Z M 1.296875 -5.6875 "/></g></g></g><g fill="#4e6470" fill-opacity="1"><g transform="translate(191.681064, 396.271853)"><g><path d="M 5.671875 -5.6875 L 5.671875 0.140625 L 5.65625 0.140625 L 1.28125 -4.796875 L 1.28125 0 L 0.90625 0 L 0.90625 -5.796875 L 0.921875 -5.796875 L 5.296875 -0.828125 L 5.296875 -5.6875 Z M 5.671875 -5.6875 "/></g></g></g><g fill="#4e6470" fill-opacity="1"><g transform="translate(200.001085, 396.271853)"><g><path d="M 5.1875 -0.40625 C 5 -0.269531 4.738281 -0.15625 4.40625 -0.0625 C 4.070312 0.0195312 3.757812 0.0625 3.46875 0.0625 C 2.882812 0.0625 2.367188 -0.0625 1.921875 -0.3125 C 1.484375 -0.5625 1.144531 -0.898438 0.90625 -1.328125 C 0.664062 -1.765625 0.546875 -2.25 0.546875 -2.78125 C 0.546875 -3.34375 0.675781 -3.847656 0.9375 -4.296875 C 1.195312 -4.753906 1.546875 -5.109375 1.984375 -5.359375 C 2.429688 -5.617188 2.921875 -5.75 3.453125 -5.75 C 4.015625 -5.75 4.535156 -5.609375 5.015625 -5.328125 L 4.859375 -4.96875 C 4.671875 -5.082031 4.453125 -5.175781 4.203125 -5.25 C 3.960938 -5.320312 3.722656 -5.359375 3.484375 -5.359375 C 3.015625 -5.359375 2.582031 -5.242188 2.1875 -5.015625 C 1.800781 -4.796875 1.492188 -4.492188 1.265625 -4.109375 C 1.046875 -3.722656 0.9375 -3.289062 0.9375 -2.8125 C 0.9375 -2.34375 1.039062 -1.914062 1.25 -1.53125 C 1.46875 -1.15625 1.765625 -0.859375 2.140625 -0.640625 C 2.523438 -0.421875 2.96875 -0.3125 3.46875 -0.3125 C 3.695312 -0.3125 3.929688 -0.335938 4.171875 -0.390625 C 4.421875 -0.453125 4.628906 -0.53125 4.796875 -0.625 L 4.796875 -2.203125 L 3.515625 -2.203125 L 3.515625 -2.578125 L 5.1875 -2.578125 Z M 5.1875 -0.40625 "/></g></g></g><g fill="#4e6470" fill-opacity="1"><g transform="translate(207.673098, 396.271853)"><g/></g></g><g fill="#4e6470" fill-opacity="1"><g transform="translate(211.873097, 396.271853)"><g><path d="M 4.171875 -5.6875 L 4.171875 -5.296875 L 2.5 -5.296875 L 2.5 0 L 2.109375 0 L 2.109375 -5.296875 L 0.453125 -5.296875 L 0.453125 -5.6875 Z M 4.171875 -5.6875 "/></g></g></g><g fill="#4e6470" fill-opacity="1"><g transform="translate(218.233103, 396.271853)"><g><path d="M 0.546875 -2.828125 C 0.546875 -3.347656 0.675781 -3.832031 0.9375 -4.28125 C 1.195312 -4.726562 1.546875 -5.082031 1.984375 -5.34375 C 2.429688 -5.613281 2.914062 -5.75 3.4375 -5.75 C 3.957031 -5.75 4.441406 -5.613281 4.890625 -5.34375 C 5.335938 -5.082031 5.691406 -4.726562 5.953125 -4.28125 C 6.222656 -3.832031 6.359375 -3.347656 6.359375 -2.828125 C 6.359375 -2.304688 6.222656 -1.820312 5.953125 -1.375 C 5.691406 -0.9375 5.335938 -0.585938 4.890625 -0.328125 C 4.441406 -0.0664062 3.957031 0.0625 3.4375 0.0625 C 2.90625 0.0625 2.414062 -0.0625 1.96875 -0.3125 C 1.53125 -0.5625 1.179688 -0.90625 0.921875 -1.34375 C 0.671875 -1.789062 0.546875 -2.285156 0.546875 -2.828125 Z M 0.9375 -2.828125 C 0.9375 -2.367188 1.046875 -1.945312 1.265625 -1.5625 C 1.492188 -1.175781 1.796875 -0.867188 2.171875 -0.640625 C 2.554688 -0.421875 2.976562 -0.3125 3.4375 -0.3125 C 3.894531 -0.3125 4.316406 -0.421875 4.703125 -0.640625 C 5.085938 -0.867188 5.390625 -1.175781 5.609375 -1.5625 C 5.835938 -1.945312 5.953125 -2.367188 5.953125 -2.828125 C 5.953125 -3.285156 5.835938 -3.707031 5.609375 -4.09375 C 5.378906 -4.488281 5.070312 -4.800781 4.6875 -5.03125 C 4.3125 -5.257812 3.894531 -5.375 3.4375 -5.375 C 2.976562 -5.375 2.554688 -5.253906 2.171875 -5.015625 C 1.785156 -4.785156 1.484375 -4.472656 1.265625 -4.078125 C 1.046875 -3.691406 0.9375 -3.273438 0.9375 -2.828125 Z M 0.9375 -2.828125 "/></g></g></g><g fill="#4e6470" fill-opacity="1"><g transform="translate(226.87312, 396.271853)"><g/></g></g><g fill="#4e6470" fill-opacity="1"><g transform="translate(231.073119, 396.271853)"><g><path d="M 4.09375 -5.6875 L 4.09375 -5.296875 L 1.296875 -5.296875 L 1.296875 -2.953125 L 3.765625 -2.953125 L 3.765625 -2.59375 L 1.296875 -2.59375 L 1.296875 0 L 0.90625 0 L 0.90625 -5.6875 Z M 4.09375 -5.6875 "/></g></g></g><g fill="#4e6470" fill-opacity="1"><g transform="translate(237.44113, 396.271853)"><g><path d="M 0.546875 -2.828125 C 0.546875 -3.347656 0.675781 -3.832031 0.9375 -4.28125 C 1.195312 -4.726562 1.546875 -5.082031 1.984375 -5.34375 C 2.429688 -5.613281 2.914062 -5.75 3.4375 -5.75 C 3.957031 -5.75 4.441406 -5.613281 4.890625 -5.34375 C 5.335938 -5.082031 5.691406 -4.726562 5.953125 -4.28125 C 6.222656 -3.832031 6.359375 -3.347656 6.359375 -2.828125 C 6.359375 -2.304688 6.222656 -1.820312 5.953125 -1.375 C 5.691406 -0.9375 5.335938 -0.585938 4.890625 -0.328125 C 4.441406 -0.0664062 3.957031 0.0625 3.4375 0.0625 C 2.90625 0.0625 2.414062 -0.0625 1.96875 -0.3125 C 1.53125 -0.5625 1.179688 -0.90625 0.921875 -1.34375 C 0.671875 -1.789062 0.546875 -2.285156 0.546875 -2.828125 Z M 0.9375 -2.828125 C 0.9375 -2.367188 1.046875 -1.945312 1.265625 -1.5625 C 1.492188 -1.175781 1.796875 -0.867188 2.171875 -0.640625 C 2.554688 -0.421875 2.976562 -0.3125 3.4375 -0.3125 C 3.894531 -0.3125 4.316406 -0.421875 4.703125 -0.640625 C 5.085938 -0.867188 5.390625 -1.175781 5.609375 -1.5625 C 5.835938 -1.945312 5.953125 -2.367188 5.953125 -2.828125 C 5.953125 -3.285156 5.835938 -3.707031 5.609375 -4.09375 C 5.378906 -4.488281 5.070312 -4.800781 4.6875 -5.03125 C 4.3125 -5.257812 3.894531 -5.375 3.4375 -5.375 C 2.976562 -5.375 2.554688 -5.253906 2.171875 -5.015625 C 1.785156 -4.785156 1.484375 -4.472656 1.265625 -4.078125 C 1.046875 -3.691406 0.9375 -3.273438 0.9375 -2.828125 Z M 0.9375 -2.828125 "/></g></g></g><g fill="#4e6470" fill-opacity="1"><g transform="translate(246.081148, 396.271853)"><g><path d="M 1.296875 -5.6875 L 1.296875 -0.375 L 4.40625 -0.375 L 4.40625 0 L 0.90625 0 L 0.90625 -5.6875 Z M 1.296875 -5.6875 "/></g></g></g><g fill="#4e6470" fill-opacity="1"><g transform="translate(252.649161, 396.271853)"><g><path d="M 1.296875 -5.6875 L 1.296875 -0.375 L 4.40625 -0.375 L 4.40625 0 L 0.90625 0 L 0.90625 -5.6875 Z M 1.296875 -5.6875 "/></g></g></g><g fill="#4e6470" fill-opacity="1"><g transform="translate(259.217174, 396.271853)"><g><path d="M 0.546875 -2.828125 C 0.546875 -3.347656 0.675781 -3.832031 0.9375 -4.28125 C 1.195312 -4.726562 1.546875 -5.082031 1.984375 -5.34375 C 2.429688 -5.613281 2.914062 -5.75 3.4375 -5.75 C 3.957031 -5.75 4.441406 -5.613281 4.890625 -5.34375 C 5.335938 -5.082031 5.691406 -4.726562 5.953125 -4.28125 C 6.222656 -3.832031 6.359375 -3.347656 6.359375 -2.828125 C 6.359375 -2.304688 6.222656 -1.820312 5.953125 -1.375 C 5.691406 -0.9375 5.335938 -0.585938 4.890625 -0.328125 C 4.441406 -0.0664062 3.957031 0.0625 3.4375 0.0625 C 2.90625 0.0625 2.414062 -0.0625 1.96875 -0.3125 C 1.53125 -0.5625 1.179688 -0.90625 0.921875 -1.34375 C 0.671875 -1.789062 0.546875 -2.285156 0.546875 -2.828125 Z M 0.9375 -2.828125 C 0.9375 -2.367188 1.046875 -1.945312 1.265625 -1.5625 C 1.492188 -1.175781 1.796875 -0.867188 2.171875 -0.640625 C 2.554688 -0.421875 2.976562 -0.3125 3.4375 -0.3125 C 3.894531 -0.3125 4.316406 -0.421875 4.703125 -0.640625 C 5.085938 -0.867188 5.390625 -1.175781 5.609375 -1.5625 C 5.835938 -1.945312 5.953125 -2.367188 5.953125 -2.828125 C 5.953125 -3.285156 5.835938 -3.707031 5.609375 -4.09375 C 5.378906 -4.488281 5.070312 -4.800781 4.6875 -5.03125 C 4.3125 -5.257812 3.894531 -5.375 3.4375 -5.375 C 2.976562 -5.375 2.554688 -5.253906 2.171875 -5.015625 C 1.785156 -4.785156 1.484375 -4.472656 1.265625 -4.078125 C 1.046875 -3.691406 0.9375 -3.273438 0.9375 -2.828125 Z M 0.9375 -2.828125 "/></g></g></g><g fill="#4e6470" fill-opacity="1"><g transform="translate(267.857201, 396.271853)"><g><path d="M 5.265625 0.25 L 3.96875 -3.15625 L 2.625 0.265625 L 0.390625 -5.65625 L 0.84375 -5.65625 L 2.671875 -0.65625 L 3.78125 -3.640625 L 3.015625 -5.65625 L 3.40625 -5.65625 L 5.28125 -0.703125 L 7.140625 -5.65625 L 7.546875 -5.65625 Z M 5.265625 0.25 "/></g></g></g><g fill="#4e6470" fill-opacity="1"><g transform="translate(93.425795, 225.238243)"><g><path d="M 12.996094 -18.675781 C 11.941406 -18.464844 10.492188 -18.113281 8.921875 -17.738281 C 9.34375 -19.585938 9.648438 -21.109375 9.714844 -21.367188 C 9.902344 -21.953125 9.585938 -22.617188 9.003906 -22.804688 C 8.40625 -23.050781 7.738281 -22.734375 7.5625 -22.089844 C 7.480469 -21.890625 7.175781 -20.675781 6.488281 -17.128906 C 5.386719 -16.847656 4.347656 -16.578125 3.421875 -16.332031 C 2.496094 -16.085938 1.621094 -15.90625 0.988281 -15.71875 C 0.34375 -15.589844 -0.0078125 -14.914062 0.167969 -14.339844 C 0.285156 -13.753906 0.90625 -13.390625 1.492188 -13.507812 C 1.492188 -13.507812 1.492188 -13.507812 1.550781 -13.519531 C 2.195312 -13.648438 3.058594 -13.882812 3.984375 -14.128906 C 4.628906 -14.257812 5.261719 -14.445312 5.949219 -14.644531 C 5.871094 -14.144531 5.730469 -13.628906 5.601562 -13.054688 C 5.285156 -11.285156 4.886719 -9.625 4.828125 -9.308594 C 4.792969 -9.179688 4.769531 -8.992188 4.816406 -8.757812 C 4.9375 -8.171875 5.566406 -7.75 6.152344 -7.867188 C 6.914062 -8.019531 6.972656 -8.335938 7.335938 -9.871094 C 7.4375 -10.5625 7.671875 -11.523438 7.882812 -12.597656 C 8.023438 -13.417969 8.210938 -14.308594 8.386719 -15.257812 C 10.363281 -15.714844 12.222656 -16.148438 13.453125 -16.394531 C 14.039062 -16.511719 14.460938 -17.144531 14.332031 -17.789062 C 14.214844 -18.371094 13.582031 -18.792969 12.996094 -18.675781 Z M 12.996094 -18.675781 "/></g></g></g><g clip-path="url(#0ac706cd06)"><g clip-path="url(#1ba1671d5b)"><g clip-path="url(#ce1efd0390)"><path fill="#4e6470" d="M 272.738281 188.109375 C 273.8125 188.472656 273.785156 188.855469 274.402344 188.882812 C 277.964844 188.980469 283.035156 190.683594 284.984375 191.265625 C 316.773438 200.535156 340.140625 163.707031 387.875 163.984375 C 388.28125 163.984375 389.351562 163.425781 388.417969 162.671875 C 381.550781 161.835938 374.203125 161.332031 360.367188 164.90625 C 345.109375 168.824219 317.75 186.390625 304.621094 189.660156 C 287.589844 193.890625 279.019531 185.65625 272.765625 188.125 Z M 272.738281 188.109375 " fill-opacity="1" fill-rule="evenodd"/></g></g></g><g clip-path="url(#a18eac6c9c)"><g clip-path="url(#00103896e5)"><g clip-path="url(#97fc35229e)"><path fill="#4e6470" d="M 83.8125 128.199219 C 83.1875 129.144531 83.445312 129.429688 82.972656 129.828125 C 80.214844 132.085938 77.246094 136.535156 76.058594 138.191406 C 56.589844 164.976562 15.574219 150.148438 -22.007812 179.582031 C -22.332031 179.828125 -23.519531 180.042969 -23.242188 178.875 C -18.320312 174.011719 -12.820312 169.117188 0.308594 163.472656 C 14.777344 157.234375 47.164062 154.386719 59.546875 148.933594 C 75.605469 141.859375 77.34375 130.101562 83.800781 128.226562 Z M 83.8125 128.199219 " fill-opacity="1" fill-rule="evenodd"/></g></g></g></svg>