<svg xmlns="http://www.w3.org/2000/svg" xmlns:xlink="http://www.w3.org/1999/xlink" width="1920" zoomAndPan="magnify" viewBox="0 0 1440 809.999993" height="1080" preserveAspectRatio="xMidYMid meet" version="1.0"><defs><g/><clipPath id="d6a35078c4"><path d="M 20.59375 19.058594 L 1419.34375 19.058594 L 1419.34375 790.808594 L 20.59375 790.808594 Z M 20.59375 19.058594 " clip-rule="nonzero"/></clipPath></defs><g clip-path="url(#d6a35078c4)"><path fill="#79a1b8" d="M 20.59375 19.058594 L 1419.34375 19.058594 L 1419.34375 790.808594 L 20.59375 790.808594 L 20.59375 19.058594 " fill-opacity="1" fill-rule="nonzero"/></g><g fill="#3c515d" fill-opacity="1"><g transform="translate(256.452244, 198.870469)"><g><path d="M 37.15625 -55.671875 L 48.3125 -83.75 C 49.863281 -84.15625 51.742188 -84.359375 53.953125 -84.359375 C 56.160156 -84.359375 58.242188 -84.035156 60.203125 -83.390625 L 60.828125 -82.53125 L 37.515625 -26.859375 L 37.515625 0 C 35.640625 0.320312 33.394531 0.484375 30.78125 0.484375 C 28.164062 0.484375 26.039062 0.320312 24.40625 0 L 24.40625 -27.09375 L 1.109375 -82.28125 C 3.878906 -83.832031 6.367188 -84.609375 8.578125 -84.609375 C 10.785156 -84.609375 12.421875 -84.175781 13.484375 -83.3125 C 14.546875 -82.457031 15.488281 -81.007812 16.3125 -78.96875 L 26 -55.421875 C 27.632812 -51.335938 29.347656 -46.226562 31.140625 -40.09375 L 31.765625 -40.09375 C 32.660156 -43.363281 34.457031 -48.554688 37.15625 -55.671875 Z M 37.15625 -55.671875 "/></g></g></g><g fill="#3c515d" fill-opacity="1"><g transform="translate(318.131766, 198.870469)"><g><path d="M 23.546875 -63.890625 C 22.148438 -60.453125 21.164062 -56.972656 20.59375 -53.453125 C 20.03125 -49.941406 19.75 -46.304688 19.75 -42.546875 C 19.75 -38.378906 20.03125 -34.269531 20.59375 -30.21875 C 21.164062 -26.175781 22.226562 -22.5625 23.78125 -19.375 C 25.34375 -16.1875 27.472656 -13.628906 30.171875 -11.703125 C 32.867188 -9.785156 36.300781 -8.828125 40.46875 -8.828125 C 44.957031 -8.828125 48.53125 -9.953125 51.1875 -12.203125 C 53.851562 -14.453125 55.898438 -17.25 57.328125 -20.59375 C 58.753906 -23.945312 59.691406 -27.546875 60.140625 -31.390625 C 60.597656 -35.234375 60.828125 -38.75 60.828125 -41.9375 C 60.828125 -45.207031 60.597656 -48.765625 60.140625 -52.609375 C 59.691406 -56.453125 58.769531 -60.023438 57.375 -63.328125 C 55.988281 -66.640625 53.925781 -69.398438 51.1875 -71.609375 C 48.457031 -73.816406 44.84375 -74.921875 40.34375 -74.921875 C 36.175781 -74.921875 32.679688 -73.9375 29.859375 -71.96875 C 27.035156 -70.007812 24.929688 -67.316406 23.546875 -63.890625 Z M 19.125 -5.765625 C 10.382812 -13.285156 6.015625 -25.300781 6.015625 -41.8125 C 6.015625 -48.519531 6.769531 -54.550781 8.28125 -59.90625 C 9.789062 -65.257812 11.992188 -69.816406 14.890625 -73.578125 C 17.796875 -77.335938 21.375 -80.238281 25.625 -82.28125 C 29.875 -84.320312 34.78125 -85.34375 40.34375 -85.34375 C 45.820312 -85.34375 50.707031 -84.34375 55 -82.34375 C 59.289062 -80.34375 62.863281 -77.460938 65.71875 -73.703125 C 68.582031 -69.941406 70.769531 -65.363281 72.28125 -59.96875 C 73.800781 -54.570312 74.5625 -48.519531 74.5625 -41.8125 C 74.5625 -35.113281 73.800781 -29.085938 72.28125 -23.734375 C 70.769531 -18.378906 68.582031 -13.820312 65.71875 -10.0625 C 62.863281 -6.300781 59.289062 -3.414062 55 -1.40625 C 50.707031 0.59375 45.820312 1.59375 40.34375 1.59375 C 31.675781 1.59375 24.601562 -0.859375 19.125 -5.765625 Z M 19.125 -5.765625 "/></g></g></g><g fill="#3c515d" fill-opacity="1"><g transform="translate(398.81791, 198.870469)"><g><path d="M 71.984375 -83.75 L 71.984375 -29.4375 C 71.984375 -19.457031 69.203125 -11.789062 63.640625 -6.4375 C 58.078125 -1.082031 50.515625 1.59375 40.953125 1.59375 C 31.472656 1.59375 23.953125 -1.0625 18.390625 -6.375 C 12.835938 -11.6875 10.0625 -19.375 10.0625 -29.4375 L 10.0625 -83.5 L 10.796875 -84.25 L 15.8125 -84.25 C 18.4375 -84.25 20.296875 -83.59375 21.390625 -82.28125 C 22.492188 -80.96875 23.046875 -78.84375 23.046875 -75.90625 L 23.046875 -29.4375 C 23.046875 -22.726562 24.554688 -17.632812 27.578125 -14.15625 C 30.609375 -10.6875 35.066406 -8.953125 40.953125 -8.953125 C 52.890625 -8.953125 58.859375 -15.78125 58.859375 -29.4375 L 58.859375 -83.75 C 59.753906 -83.914062 60.773438 -84.039062 61.921875 -84.125 C 63.066406 -84.207031 64.210938 -84.25 65.359375 -84.25 C 66.585938 -84.25 67.769531 -84.207031 68.90625 -84.125 C 70.050781 -84.039062 71.078125 -83.914062 71.984375 -83.75 Z M 71.984375 -83.75 "/></g></g></g><g fill="#3c515d" fill-opacity="1"><g transform="translate(480.852903, 198.870469)"><g><path d="M 11.890625 -83.875 L 38.265625 -84.25 C 46.921875 -84.25 53.722656 -82.0625 58.671875 -77.6875 C 63.617188 -73.3125 66.09375 -67.117188 66.09375 -59.109375 C 66.09375 -53.628906 64.640625 -48.90625 61.734375 -44.9375 C 58.835938 -40.976562 55.0625 -38.257812 50.40625 -36.78125 C 54.238281 -35.394531 57.140625 -31.921875 59.109375 -26.359375 L 64.5 -12.015625 C 66.050781 -7.765625 67.890625 -4.820312 70.015625 -3.1875 C 68.222656 -0.488281 65.28125 0.859375 61.1875 0.859375 C 58.894531 0.859375 57.15625 0.242188 55.96875 -0.984375 C 54.789062 -2.210938 53.671875 -4.253906 52.609375 -7.109375 L 46.46875 -23.671875 C 45.25 -26.941406 43.757812 -29.429688 42 -31.140625 C 40.238281 -32.859375 37.601562 -33.71875 34.09375 -33.71875 L 24.03125 -33.71875 L 24.03125 0 C 22.3125 0.320312 20.144531 0.484375 17.53125 0.484375 C 14.914062 0.484375 12.789062 0.320312 11.15625 0 L 11.15625 -83.015625 Z M 24.03125 -74.0625 L 24.03125 -44.140625 C 30.40625 -44.304688 34.941406 -44.390625 37.640625 -44.390625 C 43.117188 -44.390625 46.984375 -45.78125 49.234375 -48.5625 C 51.484375 -51.34375 52.609375 -54.859375 52.609375 -59.109375 C 52.609375 -68.992188 47.617188 -73.9375 37.640625 -73.9375 C 31.347656 -73.9375 26.8125 -73.976562 24.03125 -74.0625 Z M 24.03125 -74.0625 "/></g></g></g><g fill="#3c515d" fill-opacity="1"><g transform="translate(554.426897, 198.870469)"><g/></g></g><g fill="#3c515d" fill-opacity="1"><g transform="translate(581.404013, 198.870469)"><g><path d="M 43.90625 -72.71875 L 36.78125 -72.84375 L 36.78125 0 C 34.90625 0.320312 32.71875 0.484375 30.21875 0.484375 C 27.726562 0.484375 25.546875 0.320312 23.671875 0 L 23.671875 -63.765625 L 23.796875 -72.84375 L 23.671875 -72.84375 L 16.671875 -72.71875 L 2.078125 -72.71875 C 1.753906 -74.4375 1.59375 -76.273438 1.59375 -78.234375 C 1.59375 -80.191406 1.753906 -82.03125 2.078125 -83.75 L 58.484375 -83.75 C 58.984375 -81.789062 59.234375 -79.910156 59.234375 -78.109375 C 59.234375 -74.515625 56.78125 -72.71875 51.875 -72.71875 Z M 43.90625 -72.71875 "/></g></g></g><g fill="#3c515d" fill-opacity="1"><g transform="translate(641.734686, 198.870469)"><g><path d="M 11.53125 0 L 11.53125 -83.75 C 13.164062 -84.082031 15.3125 -84.25 17.96875 -84.25 C 20.625 -84.25 22.8125 -84.082031 24.53125 -83.75 L 24.53125 0 C 22.8125 0.320312 20.625 0.484375 17.96875 0.484375 C 15.3125 0.484375 13.164062 0.320312 11.53125 0 Z M 11.53125 0 "/></g></g></g><g fill="#3c515d" fill-opacity="1"><g transform="translate(677.785941, 198.870469)"><g><path d="M 43.90625 -72.71875 L 36.78125 -72.84375 L 36.78125 0 C 34.90625 0.320312 32.71875 0.484375 30.21875 0.484375 C 27.726562 0.484375 25.546875 0.320312 23.671875 0 L 23.671875 -63.765625 L 23.796875 -72.84375 L 23.671875 -72.84375 L 16.671875 -72.71875 L 2.078125 -72.71875 C 1.753906 -74.4375 1.59375 -76.273438 1.59375 -78.234375 C 1.59375 -80.191406 1.753906 -82.03125 2.078125 -83.75 L 58.484375 -83.75 C 58.984375 -81.789062 59.234375 -79.910156 59.234375 -78.109375 C 59.234375 -74.515625 56.78125 -72.71875 51.875 -72.71875 Z M 43.90625 -72.71875 "/></g></g></g><g fill="#3c515d" fill-opacity="1"><g transform="translate(738.116614, 198.870469)"><g><path d="M 35.078125 -11.28125 L 59.46875 -11.28125 C 59.46875 -9.476562 59.347656 -7.757812 59.109375 -6.125 C 58.367188 -1.957031 55.546875 0.125 50.640625 0.125 L 18.640625 0.125 C 16.347656 0.125 14.503906 -0.585938 13.109375 -2.015625 C 11.722656 -3.453125 11.03125 -5.4375 11.03125 -7.96875 L 11.03125 -83.5 L 11.890625 -84.25 L 16.796875 -84.25 C 19.492188 -84.25 21.394531 -83.59375 22.5 -82.28125 C 23.601562 -80.96875 24.15625 -78.84375 24.15625 -75.90625 L 24.15625 -10.796875 C 27.507812 -11.117188 31.148438 -11.28125 35.078125 -11.28125 Z M 35.078125 -11.28125 "/></g></g></g><g fill="#3c515d" fill-opacity="1"><g transform="translate(800.899748, 198.870469)"><g><path d="M 23.90625 -16.921875 L 23.796875 -10.671875 C 26.242188 -10.910156 28.9375 -11.03125 31.875 -11.03125 L 63.640625 -11.03125 C 63.640625 -8.820312 63.519531 -7.148438 63.28125 -6.015625 C 62.539062 -1.921875 59.757812 0.125 54.9375 0.125 L 18.515625 0.125 C 16.222656 0.125 14.398438 -0.585938 13.046875 -2.015625 C 11.703125 -3.453125 11.03125 -5.4375 11.03125 -7.96875 L 11.03125 -83.015625 L 11.890625 -83.75 L 61.1875 -83.75 C 61.4375 -82.445312 61.5625 -80.710938 61.5625 -78.546875 C 61.5625 -76.378906 61.234375 -74.4375 60.578125 -72.71875 L 23.796875 -72.71875 L 23.90625 -64.75 L 23.90625 -47.578125 L 31.515625 -47.703125 L 54.5625 -47.703125 C 54.976562 -46.234375 55.1875 -44.414062 55.1875 -42.25 C 55.1875 -40.082031 54.976562 -38.300781 54.5625 -36.90625 L 31.515625 -36.90625 C 28.328125 -36.90625 25.789062 -36.945312 23.90625 -37.03125 Z M 23.90625 -16.921875 "/></g></g></g><g fill="#3c515d" fill-opacity="1"><g transform="translate(870.304528, 198.870469)"><g/></g></g><g fill="#3c515d" fill-opacity="1"><g transform="translate(897.281645, 198.870469)"><g><path d="M 58.609375 -48.6875 L 58.484375 -57.75 L 58.484375 -83.75 C 60.203125 -84.082031 62.390625 -84.25 65.046875 -84.25 C 67.703125 -84.25 69.890625 -84.082031 71.609375 -83.75 L 71.609375 0 C 69.734375 0.320312 67.546875 0.484375 65.046875 0.484375 C 62.554688 0.484375 60.367188 0.320312 58.484375 0 L 58.484375 -28.6875 L 58.609375 -37.765625 L 51.75 -37.640625 L 31.03125 -37.640625 L 24.03125 -37.765625 L 24.15625 -28.6875 L 24.15625 0 C 22.4375 0.320312 20.25 0.484375 17.59375 0.484375 C 14.9375 0.484375 12.789062 0.320312 11.15625 0 L 11.15625 -83.75 C 12.789062 -84.082031 14.9375 -84.25 17.59375 -84.25 C 20.25 -84.25 22.4375 -84.082031 24.15625 -83.75 L 24.15625 -57.75 L 24.03125 -48.6875 L 31.03125 -48.8125 L 51.75 -48.8125 Z M 58.609375 -48.6875 "/></g></g></g><g fill="#3c515d" fill-opacity="1"><g transform="translate(980.052396, 198.870469)"><g><path d="M 23.90625 -16.921875 L 23.796875 -10.671875 C 26.242188 -10.910156 28.9375 -11.03125 31.875 -11.03125 L 63.640625 -11.03125 C 63.640625 -8.820312 63.519531 -7.148438 63.28125 -6.015625 C 62.539062 -1.921875 59.757812 0.125 54.9375 0.125 L 18.515625 0.125 C 16.222656 0.125 14.398438 -0.585938 13.046875 -2.015625 C 11.703125 -3.453125 11.03125 -5.4375 11.03125 -7.96875 L 11.03125 -83.015625 L 11.890625 -83.75 L 61.1875 -83.75 C 61.4375 -82.445312 61.5625 -80.710938 61.5625 -78.546875 C 61.5625 -76.378906 61.234375 -74.4375 60.578125 -72.71875 L 23.796875 -72.71875 L 23.90625 -64.75 L 23.90625 -47.578125 L 31.515625 -47.703125 L 54.5625 -47.703125 C 54.976562 -46.234375 55.1875 -44.414062 55.1875 -42.25 C 55.1875 -40.082031 54.976562 -38.300781 54.5625 -36.90625 L 31.515625 -36.90625 C 28.328125 -36.90625 25.789062 -36.945312 23.90625 -37.03125 Z M 23.90625 -16.921875 "/></g></g></g><g fill="#3c515d" fill-opacity="1"><g transform="translate(1049.457176, 198.870469)"><g><path d="M 11.890625 -83.875 L 38.265625 -84.25 C 46.921875 -84.25 53.722656 -82.0625 58.671875 -77.6875 C 63.617188 -73.3125 66.09375 -67.117188 66.09375 -59.109375 C 66.09375 -53.628906 64.640625 -48.90625 61.734375 -44.9375 C 58.835938 -40.976562 55.0625 -38.257812 50.40625 -36.78125 C 54.238281 -35.394531 57.140625 -31.921875 59.109375 -26.359375 L 64.5 -12.015625 C 66.050781 -7.765625 67.890625 -4.820312 70.015625 -3.1875 C 68.222656 -0.488281 65.28125 0.859375 61.1875 0.859375 C 58.894531 0.859375 57.15625 0.242188 55.96875 -0.984375 C 54.789062 -2.210938 53.671875 -4.253906 52.609375 -7.109375 L 46.46875 -23.671875 C 45.25 -26.941406 43.757812 -29.429688 42 -31.140625 C 40.238281 -32.859375 37.601562 -33.71875 34.09375 -33.71875 L 24.03125 -33.71875 L 24.03125 0 C 22.3125 0.320312 20.144531 0.484375 17.53125 0.484375 C 14.914062 0.484375 12.789062 0.320312 11.15625 0 L 11.15625 -83.015625 Z M 24.03125 -74.0625 L 24.03125 -44.140625 C 30.40625 -44.304688 34.941406 -44.390625 37.640625 -44.390625 C 43.117188 -44.390625 46.984375 -45.78125 49.234375 -48.5625 C 51.484375 -51.34375 52.609375 -54.859375 52.609375 -59.109375 C 52.609375 -68.992188 47.617188 -73.9375 37.640625 -73.9375 C 31.347656 -73.9375 26.8125 -73.976562 24.03125 -74.0625 Z M 24.03125 -74.0625 "/></g></g></g><g fill="#3c515d" fill-opacity="1"><g transform="translate(1123.03117, 198.870469)"><g><path d="M 23.90625 -16.921875 L 23.796875 -10.671875 C 26.242188 -10.910156 28.9375 -11.03125 31.875 -11.03125 L 63.640625 -11.03125 C 63.640625 -8.820312 63.519531 -7.148438 63.28125 -6.015625 C 62.539062 -1.921875 59.757812 0.125 54.9375 0.125 L 18.515625 0.125 C 16.222656 0.125 14.398438 -0.585938 13.046875 -2.015625 C 11.703125 -3.453125 11.03125 -5.4375 11.03125 -7.96875 L 11.03125 -83.015625 L 11.890625 -83.75 L 61.1875 -83.75 C 61.4375 -82.445312 61.5625 -80.710938 61.5625 -78.546875 C 61.5625 -76.378906 61.234375 -74.4375 60.578125 -72.71875 L 23.796875 -72.71875 L 23.90625 -64.75 L 23.90625 -47.578125 L 31.515625 -47.703125 L 54.5625 -47.703125 C 54.976562 -46.234375 55.1875 -44.414062 55.1875 -42.25 C 55.1875 -40.082031 54.976562 -38.300781 54.5625 -36.90625 L 31.515625 -36.90625 C 28.328125 -36.90625 25.789062 -36.945312 23.90625 -37.03125 Z M 23.90625 -16.921875 "/></g></g></g><path stroke-linecap="butt" transform="matrix(1.021862, 0, 0, 1.021862, 224.769458, 93.262362)" fill="none" stroke-linejoin="miter" d="M 63.013112 44.506822 L 73.942152 17.025583 C 75.463578 16.63567 77.302286 16.440713 79.450632 16.440713 C 81.618091 16.440713 83.659402 16.761818 85.570741 17.407851 L 86.186192 18.229727 L 63.364799 72.722016 L 63.364799 98.999112 C 61.529913 99.312571 59.331872 99.469301 56.7745 99.469301 C 54.213305 99.469301 52.133768 99.312571 50.532065 98.999112 L 50.532065 72.48501 L 27.741253 18.493492 C 30.455355 16.968243 32.886579 16.20753 35.034925 16.20753 C 37.202384 16.20753 38.804086 16.628024 39.840032 17.465191 C 40.895092 18.306181 41.824003 19.724394 42.622942 21.71601 L 52.084073 44.770587 C 53.685775 48.757641 55.367754 53.757706 57.126187 59.77078 L 57.741638 59.77078 C 58.620854 56.567375 60.375464 51.479389 63.013112 44.506822 Z M 110.043532 36.479197 C 108.694126 39.839331 107.738457 43.237693 107.1727 46.674281 C 106.606944 50.114693 106.324065 53.677429 106.324065 57.370137 C 106.324065 61.452758 106.606944 65.474217 107.1727 69.438335 C 107.738457 73.38334 108.774403 76.919318 110.276715 80.046269 C 111.801964 83.169398 113.881502 85.66943 116.51915 87.546365 C 119.175912 89.419478 122.543692 90.356034 126.626314 90.356034 C 131.018572 90.356034 134.516323 89.262748 137.115745 87.076176 C 139.711344 84.87049 141.714428 82.125806 143.121173 78.842125 C 144.524097 75.562267 145.445362 72.045402 145.873502 68.295354 C 146.324578 64.526192 146.546294 61.081959 146.546294 57.955007 C 146.546294 54.751602 146.324578 51.276787 145.873502 47.526739 C 145.445362 43.757577 144.547033 40.259826 143.178514 37.037308 C 141.809995 33.795676 139.787797 31.089219 137.115745 28.92176 C 134.439869 26.754301 130.903891 25.66866 126.50781 25.66866 C 122.425189 25.66866 119.000069 26.635798 116.224804 28.570074 C 113.472475 30.485236 111.412051 33.122884 110.043532 36.479197 Z M 105.735373 93.345369 C 97.18404 86.002003 92.906462 74.243442 92.906462 58.07351 C 92.906462 51.50997 93.636594 45.611577 95.10068 40.378329 C 96.587702 35.141259 98.743693 30.687838 101.576298 27.018066 C 104.428017 23.325358 107.933413 20.485108 112.092488 18.493492 C 116.255385 16.47894 121.060493 15.473575 126.50781 15.473575 C 131.859561 15.473575 136.634087 16.459827 140.835211 18.432329 C 145.032513 20.385718 148.530264 23.210678 151.324643 26.899563 C 154.134312 30.573157 156.275012 35.045692 157.739098 40.317166 C 159.222297 45.592463 159.963897 51.50997 159.963897 58.07351 C 159.963897 64.633227 159.222297 70.543089 157.739098 75.79545 C 156.275012 81.03252 154.134312 85.493587 151.324643 89.186295 C 148.530264 92.856066 145.032513 95.669558 140.835211 97.622947 C 136.634087 99.576336 131.859561 100.551119 126.50781 100.551119 C 118.013818 100.551119 111.087123 98.150477 105.735373 93.345369 Z M 236.406009 17.025583 L 236.406009 70.202871 C 236.406009 79.965993 233.680439 87.466089 228.233121 92.699337 C 222.801095 97.936407 215.408033 100.551119 206.053938 100.551119 C 196.776296 100.551119 189.413816 97.95552 183.962676 92.760499 C 178.534472 87.565479 175.82037 80.046269 175.82037 70.202871 L 175.82037 17.289348 L 176.523743 16.559216 L 181.44353 16.559216 C 184.004725 16.559216 185.820498 17.201426 186.894671 18.493492 C 187.987957 19.762621 188.5346 21.842159 188.5346 24.732104 L 188.5346 70.202871 C 188.5346 76.762588 190.010154 81.743539 192.95744 85.1419 C 195.927661 88.540262 200.293161 90.241354 206.053938 90.241354 C 217.732222 90.241354 223.573276 83.559311 223.573276 70.202871 L 223.573276 17.025583 C 224.452492 16.872676 225.450211 16.754173 226.562611 16.673897 C 227.694124 16.597443 228.817991 16.559216 229.930391 16.559216 C 231.14218 16.559216 232.304275 16.597443 233.416674 16.673897 C 234.529074 16.754173 235.526793 16.872676 236.406009 17.025583 Z M 257.885642 16.910903 L 283.696371 16.559216 C 292.175073 16.559216 298.83418 18.696094 303.677514 22.973672 C 308.520848 27.251249 310.944427 33.317841 310.944427 41.169624 C 310.944427 46.521374 309.518568 51.13917 306.666849 55.026835 C 303.834244 58.891564 300.133891 61.548325 295.561967 62.993298 C 299.331128 64.361817 302.175201 67.760179 304.086541 73.188383 L 309.361838 87.252019 C 310.883264 91.411094 312.691391 94.293394 314.782397 95.895096 C 313.023964 98.532745 310.141664 99.847746 306.139319 99.847746 C 303.891584 99.847746 302.182847 99.255231 301.013107 98.062555 C 299.858658 96.850766 298.765372 94.840037 297.729426 92.026545 L 291.723997 75.826031 C 290.535144 72.64174 289.078703 70.210516 287.358498 68.53236 C 285.642115 66.850381 283.061806 66.013214 279.625218 66.013214 L 269.781819 66.013214 L 269.781819 98.999112 C 268.099841 99.312571 265.982077 99.469301 263.424704 99.469301 C 260.863509 99.469301 258.783972 99.312571 257.182269 98.999112 L 257.182269 17.759537 Z M 269.781819 26.521118 L 269.781819 55.787548 C 276.012786 55.630818 280.447094 55.554365 283.08092 55.554365 C 288.451784 55.554365 292.232413 54.193491 294.418986 51.479389 C 296.628494 48.765287 297.729426 45.328698 297.729426 41.169624 C 297.729426 31.479132 292.847865 26.635798 283.08092 26.635798 C 276.930229 26.635798 272.495922 26.597571 269.781819 26.521118 Z M 387.604432 27.836119 L 380.662447 27.721439 L 380.662447 98.999112 C 378.827561 99.312571 376.68686 99.469301 374.244169 99.469301 C 371.805299 99.469301 369.664599 99.312571 367.829713 98.999112 L 367.829713 36.5977 L 367.948216 27.721439 L 367.829713 27.721439 L 360.97565 27.836119 L 346.705589 27.836119 C 346.373016 26.157963 346.208641 24.361304 346.208641 22.446142 C 346.208641 20.511866 346.373016 18.707562 346.705589 17.025583 L 401.901251 17.025583 C 402.371441 18.959859 402.604624 20.806213 402.604624 22.564645 C 402.604624 26.08151 400.211627 27.836119 395.425633 27.836119 Z M 414.974813 98.999112 L 414.974813 17.025583 C 416.576516 16.715946 418.675167 16.559216 421.274588 16.559216 C 423.870187 16.559216 426.010888 16.715946 427.689044 17.025583 L 427.689044 98.999112 C 426.010888 99.312571 423.870187 99.469301 421.274588 99.469301 C 418.675167 99.469301 416.576516 99.312571 414.974813 98.999112 Z M 481.925213 27.836119 L 474.983228 27.721439 L 474.983228 98.999112 C 473.14452 99.312571 471.007642 99.469301 468.56495 99.469301 C 466.126081 99.469301 463.985381 99.312571 462.150495 98.999112 L 462.150495 36.5977 L 462.265175 27.721439 L 462.150495 27.721439 L 455.292609 27.836119 L 441.026371 27.836119 C 440.693798 26.157963 440.529422 24.361304 440.529422 22.446142 C 440.529422 20.511866 440.693798 18.707562 441.026371 17.025583 L 496.222033 17.025583 C 496.692222 18.959859 496.925406 20.806213 496.925406 22.564645 C 496.925406 26.08151 494.532409 27.836119 489.746415 27.836119 Z M 532.323413 87.955392 L 556.230448 87.955392 C 556.230448 89.713824 556.100477 91.39198 555.84818 92.993683 C 555.125694 97.076304 552.369542 99.117615 547.587371 99.117615 L 516.268162 99.117615 C 514.020426 99.117615 512.216122 98.42571 510.847603 97.038077 C 509.50202 95.631331 508.825406 93.68941 508.825406 91.208492 L 508.825406 17.289348 L 509.647282 16.559216 L 514.452389 16.559216 C 517.086215 16.559216 518.944037 17.201426 520.01821 18.493492 C 521.111496 19.762621 521.658139 21.842159 521.658139 24.732104 L 521.658139 88.45234 C 524.937998 88.119767 528.493089 87.955392 532.323413 87.955392 Z M 582.863052 82.446912 L 582.748372 88.570843 C 585.149014 88.314724 587.786663 88.188575 590.657495 88.188575 L 621.739698 88.188575 C 621.739698 90.356034 621.625018 91.999786 621.388011 93.112186 C 620.665525 97.114531 617.943778 99.117615 613.215124 99.117615 L 577.560997 99.117615 C 575.336197 99.117615 573.558652 98.42571 572.228359 97.038077 C 570.921003 95.631331 570.267325 93.68941 570.267325 91.208492 L 570.267325 17.759537 L 571.085378 17.025583 L 619.339055 17.025583 C 619.572239 18.317649 619.690742 20.026386 619.690742 22.155618 C 619.690742 24.261914 619.369637 26.157963 618.723604 27.836119 L 582.748372 27.836119 L 582.863052 35.630562 L 582.863052 52.446527 L 590.305808 52.331846 L 612.863437 52.331846 C 613.253351 53.757706 613.448307 55.531429 613.448307 57.660661 C 613.448307 59.77078 613.253351 61.510099 612.863437 62.878618 L 590.305808 62.878618 C 587.178857 62.878618 584.701761 62.836568 582.863052 62.760115 Z M 711.140692 51.364709 L 711.022189 42.484625 L 711.022189 17.025583 C 712.700345 16.715946 714.841045 16.559216 717.436644 16.559216 C 720.036066 16.559216 722.172943 16.715946 723.854922 17.025583 L 723.854922 98.999112 C 722.016213 99.312571 719.879336 99.469301 717.436644 99.469301 C 714.997775 99.469301 712.857075 99.312571 711.022189 98.999112 L 711.022189 70.933002 L 711.140692 62.02616 L 704.428067 62.175245 L 684.125819 62.175245 L 677.302337 62.02616 L 677.417018 70.933002 L 677.417018 98.999112 C 675.738861 99.312571 673.598161 99.469301 671.002562 99.469301 C 668.40314 99.469301 666.30449 99.312571 664.702787 98.999112 L 664.702787 17.025583 C 666.30449 16.715946 668.40314 16.559216 671.002562 16.559216 C 673.598161 16.559216 675.738861 16.715946 677.417018 17.025583 L 677.417018 42.484625 L 677.302337 51.364709 L 684.125819 51.246206 L 704.428067 51.246206 Z M 758.18258 82.446912 L 758.067899 88.570843 C 760.468542 88.314724 763.10619 88.188575 765.977022 88.188575 L 797.059225 88.188575 C 797.059225 90.356034 796.944545 91.999786 796.707539 93.112186 C 795.985052 97.114531 793.263305 99.117615 788.534651 99.117615 L 752.880524 99.117615 C 750.655725 99.117615 748.878179 98.42571 747.547887 97.038077 C 746.24053 95.631331 745.586852 93.68941 745.586852 91.208492 L 745.586852 17.759537 L 746.404906 17.025583 L 794.658583 17.025583 C 794.891766 18.317649 795.010269 20.026386 795.010269 22.155618 C 795.010269 24.261914 794.689164 26.157963 794.043131 27.836119 L 758.067899 27.836119 L 758.18258 35.630562 L 758.18258 52.446527 L 765.625336 52.331846 L 788.182964 52.331846 C 788.572878 53.757706 788.767834 55.531429 788.767834 57.660661 C 788.767834 59.77078 788.572878 61.510099 788.182964 62.878618 L 765.625336 62.878618 C 762.498384 62.878618 760.021288 62.836568 758.18258 62.760115 Z M 814.326266 16.910903 L 840.136995 16.559216 C 848.611874 16.559216 855.274803 18.696094 860.118138 22.973672 C 864.961472 27.251249 867.381228 33.317841 867.381228 41.169624 C 867.381228 46.521374 865.955369 51.13917 863.107473 55.026835 C 860.274868 58.891564 856.570692 61.548325 852.00259 62.993298 C 855.771752 64.361817 858.612002 67.760179 860.527164 73.188383 L 865.802461 87.252019 C 867.323888 91.411094 869.132015 94.293394 871.219198 95.895096 C 869.464588 98.532745 866.582288 99.847746 862.579943 99.847746 C 860.332208 99.847746 858.62347 99.255231 857.449908 98.062555 C 856.299281 96.850766 855.205995 94.840037 854.170049 92.026545 L 848.164621 75.826031 C 846.971945 72.64174 845.519327 70.210516 843.799121 68.53236 C 842.078916 66.850381 839.50243 66.013214 836.065842 66.013214 L 826.222443 66.013214 L 826.222443 98.999112 C 824.540464 99.312571 822.4227 99.469301 819.865328 99.469301 C 817.304133 99.469301 815.224596 99.312571 813.622893 98.999112 L 813.622893 17.759537 Z M 826.222443 26.521118 L 826.222443 55.787548 C 832.449587 55.630818 836.883895 55.554365 839.521543 55.554365 C 844.892407 55.554365 848.673037 54.193491 850.859609 51.479389 C 853.065295 48.765287 854.170049 45.328698 854.170049 41.169624 C 854.170049 31.479132 849.288488 26.635798 839.521543 26.635798 C 833.370853 26.635798 828.936545 26.597571 826.222443 26.521118 Z M 898.104099 82.446912 L 897.985596 88.570843 C 900.390061 88.314724 903.023887 88.188575 905.894719 88.188575 L 936.980744 88.188575 C 936.980744 90.356034 936.862241 91.999786 936.629058 93.112186 C 935.906572 97.114531 933.181002 99.117615 928.45617 99.117615 L 892.802043 99.117615 C 890.573421 99.117615 888.795876 98.42571 887.469406 97.038077 C 886.16205 95.631331 885.504549 93.68941 885.504549 91.208492 L 885.504549 17.759537 L 886.326425 17.025583 L 934.580102 17.025583 C 934.813285 18.317649 934.927966 20.026386 934.927966 22.155618 C 934.927966 24.261914 934.606861 26.157963 933.964651 27.836119 L 897.985596 27.836119 L 898.104099 35.630562 L 898.104099 52.446527 L 905.546855 52.331846 L 928.104484 52.331846 C 928.494397 53.757706 928.689354 55.531429 928.689354 57.660661 C 928.689354 59.77078 928.494397 61.510099 928.104484 62.878618 L 905.546855 62.878618 C 902.419904 62.878618 899.938985 62.836568 898.104099 62.760115 Z M 898.104099 82.446912 " stroke="#000000" stroke-width="4.5" stroke-opacity="1" stroke-miterlimit="4"/><path fill="#000000" d="M 828 260.542969 L 842.382812 260.542969 L 842.382812 265.332031 L 828 265.332031 M 847.179688 260.542969 L 861.558594 260.542969 L 861.558594 265.332031 L 847.179688 265.332031 M 866.355469 260.542969 L 880.738281 260.542969 L 880.738281 265.332031 L 866.355469 265.332031 M 885.53125 260.542969 L 899.914062 260.542969 L 899.914062 265.332031 L 885.53125 265.332031 M 904.707031 260.542969 L 919.089844 260.542969 L 919.089844 265.332031 L 904.707031 265.332031 M 923.882812 260.542969 L 938.265625 260.542969 L 938.265625 265.332031 L 923.882812 265.332031 M 943.058594 260.542969 L 957.441406 260.542969 L 957.441406 265.332031 L 943.058594 265.332031 M 962.234375 260.542969 L 976.617188 260.542969 L 976.617188 265.332031 L 962.234375 265.332031 M 981.410156 260.542969 L 995.792969 260.542969 L 995.792969 265.332031 L 981.410156 265.332031 M 1000.585938 260.542969 L 1014.96875 260.542969 L 1014.96875 265.332031 L 1000.585938 265.332031 M 1019.765625 260.542969 L 1034.144531 260.542969 L 1034.144531 265.332031 L 1019.765625 265.332031 M 1038.941406 260.542969 L 1053.324219 260.542969 L 1053.324219 265.332031 L 1038.941406 265.332031 M 1058.117188 260.542969 L 1072.5 260.542969 L 1072.5 265.332031 L 1058.117188 265.332031 M 1077.292969 260.542969 L 1091.675781 260.542969 L 1091.675781 265.332031 L 1077.292969 265.332031 M 1096.46875 260.542969 L 1110.851562 260.542969 L 1110.851562 265.332031 L 1096.46875 265.332031 M 1115.644531 260.542969 L 1130.027344 260.542969 L 1130.027344 265.332031 L 1115.644531 265.332031 M 1134.820312 260.542969 L 1149.203125 260.542969 L 1149.203125 265.332031 L 1134.820312 265.332031 M 1153.996094 260.542969 L 1168.378906 260.542969 L 1168.378906 265.332031 L 1153.996094 265.332031 M 1173.175781 260.542969 L 1187.554688 260.542969 L 1187.554688 265.332031 L 1173.175781 265.332031 M 1192.351562 260.542969 L 1206.730469 260.542969 L 1206.730469 265.332031 L 1192.351562 265.332031 M 1211.527344 260.542969 L 1225.910156 260.542969 L 1225.910156 265.332031 L 1211.527344 265.332031 M 1230.703125 260.542969 L 1242.207031 260.542969 L 1242.207031 265.332031 L 1230.703125 265.332031 " fill-opacity="1" fill-rule="nonzero"/><path fill="#000000" d="M 828 724.210938 L 842.382812 724.210938 L 842.382812 729 L 828 729 M 847.179688 724.210938 L 861.558594 724.210938 L 861.558594 729 L 847.179688 729 M 866.355469 724.210938 L 880.738281 724.210938 L 880.738281 729 L 866.355469 729 M 885.53125 724.210938 L 899.914062 724.210938 L 899.914062 729 L 885.53125 729 M 904.707031 724.210938 L 919.089844 724.210938 L 919.089844 729 L 904.707031 729 M 923.882812 724.210938 L 938.265625 724.210938 L 938.265625 729 L 923.882812 729 M 943.058594 724.210938 L 957.441406 724.210938 L 957.441406 729 L 943.058594 729 M 962.234375 724.210938 L 976.617188 724.210938 L 976.617188 729 L 962.234375 729 M 981.410156 724.210938 L 995.792969 724.210938 L 995.792969 729 L 981.410156 729 M 1000.585938 724.210938 L 1014.96875 724.210938 L 1014.96875 729 L 1000.585938 729 M 1019.765625 724.210938 L 1034.144531 724.210938 L 1034.144531 729 L 1019.765625 729 M 1038.941406 724.210938 L 1053.324219 724.210938 L 1053.324219 729 L 1038.941406 729 M 1058.117188 724.210938 L 1072.5 724.210938 L 1072.5 729 L 1058.117188 729 M 1077.292969 724.210938 L 1091.675781 724.210938 L 1091.675781 729 L 1077.292969 729 M 1096.46875 724.210938 L 1110.851562 724.210938 L 1110.851562 729 L 1096.46875 729 M 1115.644531 724.210938 L 1130.027344 724.210938 L 1130.027344 729 L 1115.644531 729 M 1134.820312 724.210938 L 1149.203125 724.210938 L 1149.203125 729 L 1134.820312 729 M 1153.996094 724.210938 L 1168.378906 724.210938 L 1168.378906 729 L 1153.996094 729 M 1173.175781 724.210938 L 1187.554688 724.210938 L 1187.554688 729 L 1173.175781 729 M 1192.351562 724.210938 L 1206.730469 724.210938 L 1206.730469 729 L 1192.351562 729 M 1211.527344 724.210938 L 1225.910156 724.210938 L 1225.910156 729 L 1211.527344 729 M 1230.703125 724.210938 L 1242.207031 724.210938 L 1242.207031 729 L 1230.703125 729 " fill-opacity="1" fill-rule="nonzero"/><path fill="#000000" d="M 1244.109375 265.339844 L 1244.109375 279.691406 L 1239.320312 279.691406 L 1239.320312 265.339844 M 1244.109375 284.476562 L 1244.109375 298.828125 L 1239.320312 298.828125 L 1239.320312 284.476562 M 1244.109375 303.613281 L 1244.109375 317.96875 L 1239.320312 317.96875 L 1239.320312 303.613281 M 1244.109375 322.753906 L 1244.109375 337.105469 L 1239.320312 337.105469 L 1239.320312 322.753906 M 1244.109375 341.890625 L 1244.109375 356.242188 L 1239.320312 356.242188 L 1239.320312 341.890625 M 1244.109375 361.027344 L 1244.109375 375.382812 L 1239.320312 375.382812 L 1239.320312 361.027344 M 1244.109375 380.167969 L 1244.109375 394.519531 L 1239.320312 394.519531 L 1239.320312 380.167969 M 1244.109375 399.304688 L 1244.109375 413.660156 L 1239.320312 413.660156 L 1239.320312 399.304688 M 1244.109375 418.441406 L 1244.109375 432.796875 L 1239.320312 432.796875 L 1239.320312 418.441406 M 1244.109375 437.582031 L 1244.109375 451.933594 L 1239.320312 451.933594 L 1239.320312 437.582031 M 1244.109375 456.71875 L 1244.109375 471.074219 L 1239.320312 471.074219 L 1239.320312 456.71875 M 1244.109375 475.855469 L 1244.109375 490.210938 L 1239.320312 490.210938 L 1239.320312 475.855469 M 1244.109375 494.996094 L 1244.109375 509.347656 L 1239.320312 509.347656 L 1239.320312 494.996094 M 1244.109375 514.132812 L 1244.109375 528.488281 L 1239.320312 528.488281 L 1239.320312 514.132812 M 1244.109375 533.273438 L 1244.109375 547.625 L 1239.320312 547.625 L 1239.320312 533.273438 M 1244.109375 552.410156 L 1244.109375 566.761719 L 1239.320312 566.761719 L 1239.320312 552.410156 M 1244.109375 571.546875 L 1244.109375 585.902344 L 1239.320312 585.902344 L 1239.320312 571.546875 M 1244.109375 590.6875 L 1244.109375 605.039062 L 1239.320312 605.039062 L 1239.320312 590.6875 M 1244.109375 609.824219 L 1244.109375 624.175781 L 1239.320312 624.175781 L 1239.320312 609.824219 M 1244.109375 628.960938 L 1244.109375 643.316406 L 1239.320312 643.316406 L 1239.320312 628.960938 M 1244.109375 648.101562 L 1244.109375 662.453125 L 1239.320312 662.453125 L 1239.320312 648.101562 M 1244.109375 667.238281 L 1244.109375 681.59375 L 1239.320312 681.59375 L 1239.320312 667.238281 M 1244.109375 686.375 L 1244.109375 700.730469 L 1239.320312 700.730469 L 1239.320312 686.375 M 1244.109375 705.515625 L 1244.109375 719.867188 L 1239.320312 719.867188 L 1239.320312 705.515625 " fill-opacity="1" fill-rule="nonzero"/><path fill="#000000" d="M 832.78125 260.550781 L 832.78125 274.902344 L 827.996094 274.902344 L 827.996094 260.550781 M 832.78125 279.6875 L 832.78125 294.042969 L 827.996094 294.042969 L 827.996094 279.6875 M 832.78125 298.824219 L 832.78125 313.179688 L 827.996094 313.179688 L 827.996094 298.824219 M 832.78125 317.964844 L 832.78125 332.316406 L 827.996094 332.316406 L 827.996094 317.964844 M 832.78125 337.101562 L 832.78125 351.457031 L 827.996094 351.457031 L 827.996094 337.101562 M 832.78125 356.238281 L 832.78125 370.59375 L 827.996094 370.59375 L 827.996094 356.238281 M 832.78125 375.378906 L 832.78125 389.730469 L 827.996094 389.730469 L 827.996094 375.378906 M 832.78125 394.515625 L 832.78125 408.871094 L 827.996094 408.871094 L 827.996094 394.515625 M 832.78125 413.65625 L 832.78125 428.007812 L 827.996094 428.007812 L 827.996094 413.65625 M 832.78125 432.792969 L 832.78125 447.144531 L 827.996094 447.144531 L 827.996094 432.792969 M 832.78125 451.929688 L 832.78125 466.285156 L 827.996094 466.285156 L 827.996094 451.929688 M 832.78125 471.070312 L 832.78125 485.421875 L 827.996094 485.421875 L 827.996094 471.070312 M 832.78125 490.207031 L 832.78125 504.558594 L 827.996094 504.558594 L 827.996094 490.207031 M 832.78125 509.34375 L 832.78125 523.699219 L 827.996094 523.699219 L 827.996094 509.34375 M 832.78125 528.484375 L 832.78125 542.835938 L 827.996094 542.835938 L 827.996094 528.484375 M 832.78125 547.621094 L 832.78125 561.976562 L 827.996094 561.976562 L 827.996094 547.621094 M 832.78125 566.757812 L 832.78125 581.113281 L 827.996094 581.113281 L 827.996094 566.757812 M 832.78125 585.898438 L 832.78125 600.25 L 827.996094 600.25 L 827.996094 585.898438 M 832.78125 605.035156 L 832.78125 619.390625 L 827.996094 619.390625 L 827.996094 605.035156 M 832.78125 624.171875 L 832.78125 638.527344 L 827.996094 638.527344 L 827.996094 624.171875 M 832.78125 643.3125 L 832.78125 657.664062 L 827.996094 657.664062 L 827.996094 643.3125 M 832.78125 662.449219 L 832.78125 676.804688 L 827.996094 676.804688 L 827.996094 662.449219 M 832.78125 681.589844 L 832.78125 695.941406 L 827.996094 695.941406 L 827.996094 681.589844 M 832.78125 700.726562 L 832.78125 715.078125 L 827.996094 715.078125 L 827.996094 700.726562 " fill-opacity="1" fill-rule="nonzero"/><path stroke-linecap="butt" transform="matrix(4.794059, 0, 0, 4.788429, 932.628895, 492.376987)" fill="none" stroke-linejoin="miter" d="M 0.00000228347 0.000400762 L 43.199634 0.000400762 " stroke="#000000" stroke-width="1" stroke-opacity="1" stroke-miterlimit="4"/><path stroke-linecap="butt" transform="matrix(0.000000000000000294, 4.794059, -4.788429, 0.000000000000000293, 1033.662962, 386.554541)" fill="none" stroke-linejoin="miter" d="M 0.000030485 -0.000229779 L 43.199662 -0.000229779 " stroke="#000000" stroke-width="1" stroke-opacity="1" stroke-miterlimit="4"/><path fill="#000000" d="M 619.851562 312.039062 L 619.851562 324.671875 L 615.648438 324.671875 L 615.648438 312.039062 M 619.851562 328.882812 L 619.851562 341.511719 L 615.648438 341.511719 L 615.648438 328.882812 M 619.851562 345.722656 L 619.851562 358.355469 L 615.648438 358.355469 L 615.648438 345.722656 M 619.851562 362.566406 L 619.851562 375.195312 L 615.648438 375.195312 L 615.648438 362.566406 M 619.851562 379.40625 L 619.851562 392.039062 L 615.648438 392.039062 L 615.648438 379.40625 M 619.851562 396.25 L 619.851562 408.882812 L 615.648438 408.882812 L 615.648438 396.25 M 619.851562 413.089844 L 619.851562 425.722656 L 615.648438 425.722656 L 615.648438 413.089844 M 619.851562 429.933594 L 619.851562 442.566406 L 615.648438 442.566406 L 615.648438 429.933594 M 619.851562 446.777344 L 619.851562 459.40625 L 615.648438 459.40625 L 615.648438 446.777344 M 619.851562 463.617188 L 619.851562 476.25 L 615.648438 476.25 L 615.648438 463.617188 M 619.851562 480.460938 L 619.851562 493.089844 L 615.648438 493.089844 L 615.648438 480.460938 M 619.851562 497.300781 L 619.851562 509.933594 L 615.648438 509.933594 L 615.648438 497.300781 M 619.851562 514.144531 L 619.851562 526.777344 L 615.648438 526.777344 L 615.648438 514.144531 M 619.851562 530.988281 L 619.851562 543.617188 L 615.648438 543.617188 L 615.648438 530.988281 M 619.851562 547.828125 L 619.851562 560.460938 L 615.648438 560.460938 L 615.648438 547.828125 M 619.851562 564.671875 L 619.851562 577.300781 L 615.648438 577.300781 L 615.648438 564.671875 M 619.851562 581.511719 L 619.851562 594.144531 L 615.648438 594.144531 L 615.648438 581.511719 M 619.851562 598.355469 L 619.851562 610.988281 L 615.648438 610.988281 L 615.648438 598.355469 M 619.851562 615.195312 L 619.851562 627.828125 L 615.648438 627.828125 L 615.648438 615.195312 M 619.851562 632.039062 L 619.851562 644.671875 L 615.648438 644.671875 L 615.648438 632.039062 M 619.851562 648.882812 L 619.851562 661.511719 L 615.648438 661.511719 L 615.648438 648.882812 M 619.851562 665.722656 L 619.851562 675.828125 L 615.648438 675.828125 L 615.648438 665.722656 " fill-opacity="1" fill-rule="nonzero"/><path fill="#000000" d="M 212.621094 312.039062 L 212.621094 324.671875 L 208.414062 324.671875 L 208.414062 312.039062 M 212.621094 328.882812 L 212.621094 341.511719 L 208.414062 341.511719 L 208.414062 328.882812 M 212.621094 345.722656 L 212.621094 358.355469 L 208.414062 358.355469 L 208.414062 345.722656 M 212.621094 362.566406 L 212.621094 375.195312 L 208.414062 375.195312 L 208.414062 362.566406 M 212.621094 379.40625 L 212.621094 392.039062 L 208.414062 392.039062 L 208.414062 379.40625 M 212.621094 396.25 L 212.621094 408.882812 L 208.414062 408.882812 L 208.414062 396.25 M 212.621094 413.089844 L 212.621094 425.722656 L 208.414062 425.722656 L 208.414062 413.089844 M 212.621094 429.933594 L 212.621094 442.566406 L 208.414062 442.566406 L 208.414062 429.933594 M 212.621094 446.777344 L 212.621094 459.40625 L 208.414062 459.40625 L 208.414062 446.777344 M 212.621094 463.617188 L 212.621094 476.25 L 208.414062 476.25 L 208.414062 463.617188 M 212.621094 480.460938 L 212.621094 493.089844 L 208.414062 493.089844 L 208.414062 480.460938 M 212.621094 497.300781 L 212.621094 509.933594 L 208.414062 509.933594 L 208.414062 497.300781 M 212.621094 514.144531 L 212.621094 526.777344 L 208.414062 526.777344 L 208.414062 514.144531 M 212.621094 530.988281 L 212.621094 543.617188 L 208.414062 543.617188 L 208.414062 530.988281 M 212.621094 547.828125 L 212.621094 560.460938 L 208.414062 560.460938 L 208.414062 547.828125 M 212.621094 564.671875 L 212.621094 577.300781 L 208.414062 577.300781 L 208.414062 564.671875 M 212.621094 581.511719 L 212.621094 594.144531 L 208.414062 594.144531 L 208.414062 581.511719 M 212.621094 598.355469 L 212.621094 610.988281 L 208.414062 610.988281 L 208.414062 598.355469 M 212.621094 615.195312 L 212.621094 627.828125 L 208.414062 627.828125 L 208.414062 615.195312 M 212.621094 632.039062 L 212.621094 644.671875 L 208.414062 644.671875 L 208.414062 632.039062 M 212.621094 648.882812 L 212.621094 661.511719 L 208.414062 661.511719 L 208.414062 648.882812 M 212.621094 665.722656 L 212.621094 675.828125 L 208.414062 675.828125 L 208.414062 665.722656 " fill-opacity="1" fill-rule="nonzero"/><path fill="#000000" d="M 615.640625 677.5 L 603.035156 677.5 L 603.035156 673.292969 L 615.640625 673.292969 M 598.832031 677.5 L 586.226562 677.5 L 586.226562 673.292969 L 598.832031 673.292969 M 582.023438 677.5 L 569.417969 677.5 L 569.417969 673.292969 L 582.023438 673.292969 M 565.214844 677.5 L 552.609375 677.5 L 552.609375 673.292969 L 565.214844 673.292969 M 548.40625 677.5 L 535.800781 677.5 L 535.800781 673.292969 L 548.40625 673.292969 M 531.597656 677.5 L 518.992188 677.5 L 518.992188 673.292969 L 531.597656 673.292969 M 514.789062 677.5 L 502.183594 677.5 L 502.183594 673.292969 L 514.789062 673.292969 M 497.980469 677.5 L 485.375 677.5 L 485.375 673.292969 L 497.980469 673.292969 M 481.171875 677.5 L 468.566406 677.5 L 468.566406 673.292969 L 481.171875 673.292969 M 464.363281 677.5 L 451.757812 677.5 L 451.757812 673.292969 L 464.363281 673.292969 M 447.554688 677.5 L 434.949219 677.5 L 434.949219 673.292969 L 447.554688 673.292969 M 430.746094 677.5 L 418.140625 677.5 L 418.140625 673.292969 L 430.746094 673.292969 M 413.9375 677.5 L 401.332031 677.5 L 401.332031 673.292969 L 413.9375 673.292969 M 397.128906 677.5 L 384.523438 677.5 L 384.523438 673.292969 L 397.128906 673.292969 M 380.320312 677.5 L 367.714844 677.5 L 367.714844 673.292969 L 380.320312 673.292969 M 363.511719 677.5 L 350.90625 677.5 L 350.90625 673.292969 L 363.511719 673.292969 M 346.703125 677.5 L 334.097656 677.5 L 334.097656 673.292969 L 346.703125 673.292969 M 329.894531 677.5 L 317.289062 677.5 L 317.289062 673.292969 L 329.894531 673.292969 M 313.085938 677.5 L 300.480469 677.5 L 300.480469 673.292969 L 313.085938 673.292969 M 296.277344 677.5 L 283.671875 677.5 L 283.671875 673.292969 L 296.277344 673.292969 M 279.46875 677.5 L 266.863281 677.5 L 266.863281 673.292969 L 279.46875 673.292969 M 262.660156 677.5 L 250.054688 677.5 L 250.054688 673.292969 L 262.660156 673.292969 M 245.851562 677.5 L 233.246094 677.5 L 233.246094 673.292969 L 245.851562 673.292969 M 229.042969 677.5 L 216.4375 677.5 L 216.4375 673.292969 L 229.042969 673.292969 " fill-opacity="1" fill-rule="nonzero"/><path fill="#000000" d="M 619.847656 316.238281 L 607.238281 316.238281 L 607.238281 312.03125 L 619.847656 312.03125 M 603.039062 316.238281 L 590.429688 316.238281 L 590.429688 312.03125 L 603.039062 312.03125 M 586.230469 316.238281 L 573.621094 316.238281 L 573.621094 312.03125 L 586.230469 312.03125 M 569.421875 316.238281 L 556.8125 316.238281 L 556.8125 312.03125 L 569.421875 312.03125 M 552.613281 316.238281 L 540.003906 316.238281 L 540.003906 312.03125 L 552.613281 312.03125 M 535.804688 316.238281 L 523.195312 316.238281 L 523.195312 312.03125 L 535.804688 312.03125 M 518.996094 316.238281 L 506.386719 316.238281 L 506.386719 312.03125 L 518.996094 312.03125 M 502.1875 316.238281 L 489.578125 316.238281 L 489.578125 312.03125 L 502.1875 312.03125 M 485.378906 316.238281 L 472.769531 316.238281 L 472.769531 312.03125 L 485.378906 312.03125 M 468.570312 316.238281 L 455.960938 316.238281 L 455.960938 312.03125 L 468.570312 312.03125 M 451.761719 316.238281 L 439.152344 316.238281 L 439.152344 312.03125 L 451.761719 312.03125 M 434.953125 316.238281 L 422.34375 316.238281 L 422.34375 312.03125 L 434.953125 312.03125 M 418.144531 316.238281 L 405.535156 316.238281 L 405.535156 312.03125 L 418.144531 312.03125 M 401.335938 316.238281 L 388.726562 316.238281 L 388.726562 312.03125 L 401.335938 312.03125 M 384.527344 316.238281 L 371.917969 316.238281 L 371.917969 312.03125 L 384.527344 312.03125 M 367.71875 316.238281 L 355.109375 316.238281 L 355.109375 312.03125 L 367.71875 312.03125 M 350.910156 316.238281 L 338.300781 316.238281 L 338.300781 312.03125 L 350.910156 312.03125 M 334.101562 316.238281 L 321.492188 316.238281 L 321.492188 312.03125 L 334.101562 312.03125 M 317.292969 316.238281 L 304.683594 316.238281 L 304.683594 312.03125 L 317.292969 312.03125 M 300.484375 316.238281 L 287.875 316.238281 L 287.875 312.03125 L 300.484375 312.03125 M 283.675781 316.238281 L 271.066406 316.238281 L 271.066406 312.03125 L 283.675781 312.03125 M 266.867188 316.238281 L 254.257812 316.238281 L 254.257812 312.03125 L 266.867188 312.03125 M 250.054688 316.238281 L 237.449219 316.238281 L 237.449219 312.03125 L 250.054688 312.03125 M 233.246094 316.238281 L 220.640625 316.238281 L 220.640625 312.03125 L 233.246094 312.03125 " fill-opacity="1" fill-rule="nonzero"/><path stroke-linecap="butt" transform="matrix(0.000000000000000258, 4.210531, -4.205588, 0.000000000000000258, 416.237025, 403.93092)" fill="none" stroke-linejoin="miter" d="M -0.000292642 -0.000298643 L 43.199606 -0.000298643 " stroke="#000000" stroke-width="1" stroke-opacity="1" stroke-miterlimit="4"/><path stroke-linecap="butt" transform="matrix(-4.210531, 0.000000000000000516, -0.000000000000000515, -4.205588, 509.178917, 492.667195)" fill="none" stroke-linejoin="miter" d="M -0.000183087 -0.00018393 L 43.199715 -0.00018393 " stroke="#000000" stroke-width="1" stroke-opacity="1" stroke-miterlimit="4"/></svg>