<svg xmlns="http://www.w3.org/2000/svg" xmlns:xlink="http://www.w3.org/1999/xlink" width="1080" zoomAndPan="magnify" viewBox="0 0 810 809.999993" height="1080" preserveAspectRatio="xMidYMid meet" version="1.0"><defs><filter x="0%" y="0%" width="100%" height="100%" id="2f3a8fdd2b"><feColorMatrix values="0 0 0 0 1 0 0 0 0 1 0 0 0 0 1 0 0 0 1 0" color-interpolation-filters="sRGB"/></filter><clipPath id="07acab0e32"><path d="M 0 280 L 343.703125 280 L 343.703125 635.386719 L 0 635.386719 Z M 0 280 " clip-rule="nonzero"/></clipPath><mask id="9f563abec1"><g filter="url(#2f3a8fdd2b)"><rect x="-81" width="972" fill="#000000" y="-80.999999" height="971.999992" fill-opacity="0.4784"/></g></mask><clipPath id="d917fd11f5"><path d="M 0.398438 0.398438 L 406 0.398438 L 406 2 L 0.398438 2 Z M 0.398438 0.398438 " clip-rule="nonzero"/></clipPath><clipPath id="ff23af90bc"><rect x="0" width="406" y="0" height="3"/></clipPath></defs><rect x="-81" width="972" fill="#ffffff" y="-80.999999" height="971.999992" fill-opacity="1"/><rect x="-81" width="972" fill="#333333" y="-80.999999" height="971.999992" fill-opacity="1"/><path fill="#ffffff" d="M -344.0625 299.304688 L 10.824219 -52.363281 L -340.84375 302.527344 Z M -344.0625 299.304688 " fill-opacity="1" fill-rule="nonzero"/><path fill="#ffffff" d="M -339.53125 303.835938 L 15.359375 -47.832031 L -336.308594 307.058594 Z M -339.53125 303.835938 " fill-opacity="1" fill-rule="nonzero"/><path fill="#ffffff" d="M -335 308.371094 L 19.890625 -43.296875 L -331.777344 311.59375 Z M -335 308.371094 " fill-opacity="1" fill-rule="nonzero"/><path fill="#ffffff" d="M -330.464844 312.902344 L 24.421875 -38.769531 L -327.246094 316.125 Z M -330.464844 312.902344 " fill-opacity="1" fill-rule="nonzero"/><path fill="#ffffff" d="M -325.933594 317.433594 L 28.957031 -34.238281 L -322.714844 320.65625 Z M -325.933594 317.433594 " fill-opacity="1" fill-rule="nonzero"/><path fill="#ffffff" d="M -321.40625 321.964844 L 33.488281 -29.703125 L -318.183594 325.1875 Z M -321.40625 321.964844 " fill-opacity="1" fill-rule="nonzero"/><path fill="#ffffff" d="M -316.871094 326.496094 L 38.019531 -25.171875 L -313.652344 329.71875 Z M -316.871094 326.496094 " fill-opacity="1" fill-rule="nonzero"/><path fill="#ffffff" d="M -312.339844 331.03125 L 42.550781 -20.636719 L -309.117188 334.25 Z M -312.339844 331.03125 " fill-opacity="1" fill-rule="nonzero"/><path fill="#ffffff" d="M -307.804688 335.5625 L 47.082031 -16.105469 L -304.585938 338.785156 Z M -307.804688 335.5625 " fill-opacity="1" fill-rule="nonzero"/><path fill="#ffffff" d="M -303.273438 340.09375 L 51.617188 -11.574219 L -300.050781 343.316406 Z M -303.273438 340.09375 " fill-opacity="1" fill-rule="nonzero"/><path fill="#ffffff" d="M -298.742188 344.625 L 56.148438 -7.042969 L -295.523438 347.847656 Z M -298.742188 344.625 " fill-opacity="1" fill-rule="nonzero"/><path fill="#ffffff" d="M -294.210938 349.15625 L 60.679688 -2.511719 L -290.992188 352.378906 Z M -294.210938 349.15625 " fill-opacity="1" fill-rule="nonzero"/><path fill="#ffffff" d="M -289.679688 353.6875 L 65.210938 2.019531 L -286.457031 356.910156 Z M -289.679688 353.6875 " fill-opacity="1" fill-rule="nonzero"/><path fill="#ffffff" d="M -285.148438 358.222656 L 69.742188 6.554688 L -281.925781 361.441406 Z M -285.148438 358.222656 " fill-opacity="1" fill-rule="nonzero"/><path fill="#ffffff" d="M -280.613281 362.753906 L 74.273438 11.085938 L -277.394531 365.976562 Z M -280.613281 362.753906 " fill-opacity="1" fill-rule="nonzero"/><path fill="#ffffff" d="M -276.082031 367.285156 L 78.808594 15.617188 L -272.859375 370.507812 Z M -276.082031 367.285156 " fill-opacity="1" fill-rule="nonzero"/><path fill="#ffffff" d="M -271.550781 371.820312 L 83.339844 20.148438 L -268.328125 375.039062 Z M -271.550781 371.820312 " fill-opacity="1" fill-rule="nonzero"/><path fill="#ffffff" d="M -267.019531 376.351562 L 87.875 24.679688 L -263.796875 379.570312 Z M -267.019531 376.351562 " fill-opacity="1" fill-rule="nonzero"/><path fill="#ffffff" d="M -262.488281 380.882812 L 92.402344 29.210938 L -259.265625 384.101562 Z M -262.488281 380.882812 " fill-opacity="1" fill-rule="nonzero"/><path fill="#ffffff" d="M -257.957031 385.414062 L 96.933594 33.746094 L -254.734375 388.636719 Z M -257.957031 385.414062 " fill-opacity="1" fill-rule="nonzero"/><path fill="#ffffff" d="M -253.421875 389.945312 L 101.46875 38.277344 L -250.199219 393.167969 Z M -253.421875 389.945312 " fill-opacity="1" fill-rule="nonzero"/><path fill="#ffffff" d="M -248.890625 394.476562 L 106 42.808594 L -245.667969 397.699219 Z M -248.890625 394.476562 " fill-opacity="1" fill-rule="nonzero"/><path fill="#ffffff" d="M -244.359375 399.011719 L 110.53125 47.339844 L -241.136719 402.230469 Z M -244.359375 399.011719 " fill-opacity="1" fill-rule="nonzero"/><path fill="#ffffff" d="M -239.828125 403.542969 L 115.0625 51.871094 L -236.605469 406.765625 Z M -239.828125 403.542969 " fill-opacity="1" fill-rule="nonzero"/><path fill="#ffffff" d="M -235.296875 408.074219 L 119.597656 56.402344 L -232.074219 411.296875 Z M -235.296875 408.074219 " fill-opacity="1" fill-rule="nonzero"/><path fill="#ffffff" d="M 233.375 170.183594 L -121.515625 521.855469 L 230.152344 166.960938 Z M 233.375 170.183594 " fill-opacity="1" fill-rule="nonzero"/><path fill="#ffffff" d="M 228.84375 165.652344 L -126.046875 517.320312 L 225.621094 162.429688 Z M 228.84375 165.652344 " fill-opacity="1" fill-rule="nonzero"/><path fill="#ffffff" d="M 224.308594 161.121094 L -130.578125 512.789062 L 221.089844 157.898438 Z M 224.308594 161.121094 " fill-opacity="1" fill-rule="nonzero"/><path fill="#ffffff" d="M 219.777344 156.589844 L -135.113281 508.253906 L 216.554688 153.367188 Z M 219.777344 156.589844 " fill-opacity="1" fill-rule="nonzero"/><path fill="#ffffff" d="M 215.246094 152.054688 L -139.644531 503.722656 L 212.023438 148.832031 Z M 215.246094 152.054688 " fill-opacity="1" fill-rule="nonzero"/><path fill="#ffffff" d="M 210.714844 147.523438 L -144.179688 499.191406 L 207.492188 144.300781 Z M 210.714844 147.523438 " fill-opacity="1" fill-rule="nonzero"/><path fill="#ffffff" d="M 206.183594 142.992188 L -148.707031 494.660156 L 202.960938 139.769531 Z M 206.183594 142.992188 " fill-opacity="1" fill-rule="nonzero"/><path fill="#ffffff" d="M 201.652344 138.457031 L -153.238281 490.128906 L 198.429688 135.238281 Z M 201.652344 138.457031 " fill-opacity="1" fill-rule="nonzero"/><path fill="#ffffff" d="M 197.117188 133.929688 L -157.773438 485.597656 L 193.894531 130.707031 Z M 197.117188 133.929688 " fill-opacity="1" fill-rule="nonzero"/><path fill="#ffffff" d="M 192.585938 129.394531 L -162.304688 481.066406 L 189.363281 126.175781 Z M 192.585938 129.394531 " fill-opacity="1" fill-rule="nonzero"/><path fill="#ffffff" d="M 188.050781 124.863281 L -166.835938 476.53125 L 184.832031 121.640625 Z M 188.050781 124.863281 " fill-opacity="1" fill-rule="nonzero"/><path fill="#ffffff" d="M 183.523438 120.332031 L -171.371094 472 L 180.300781 117.109375 Z M 183.523438 120.332031 " fill-opacity="1" fill-rule="nonzero"/><path fill="#ffffff" d="M 178.992188 115.796875 L -175.902344 467.46875 L 175.769531 112.578125 Z M 178.992188 115.796875 " fill-opacity="1" fill-rule="nonzero"/><path fill="#ffffff" d="M 174.457031 111.265625 L -180.433594 462.9375 L 171.238281 108.046875 Z M 174.457031 111.265625 " fill-opacity="1" fill-rule="nonzero"/><path fill="#ffffff" d="M 169.925781 106.734375 L -184.964844 458.40625 L 166.703125 103.515625 Z M 169.925781 106.734375 " fill-opacity="1" fill-rule="nonzero"/><path fill="#ffffff" d="M 165.394531 102.203125 L -189.496094 453.871094 L 162.171875 98.984375 Z M 165.394531 102.203125 " fill-opacity="1" fill-rule="nonzero"/><path fill="#ffffff" d="M 160.859375 97.671875 L -194.027344 449.339844 L 157.640625 94.449219 Z M 160.859375 97.671875 " fill-opacity="1" fill-rule="nonzero"/><path fill="#ffffff" d="M 156.328125 93.140625 L -198.5625 444.808594 L 153.109375 89.917969 Z M 156.328125 93.140625 " fill-opacity="1" fill-rule="nonzero"/><path fill="#ffffff" d="M 151.796875 88.605469 L -203.09375 440.277344 L 148.578125 85.382812 Z M 151.796875 88.605469 " fill-opacity="1" fill-rule="nonzero"/><path fill="#ffffff" d="M 147.265625 84.074219 L -207.625 435.746094 L 144.042969 80.851562 Z M 147.265625 84.074219 " fill-opacity="1" fill-rule="nonzero"/><path fill="#ffffff" d="M 142.734375 79.542969 L -212.15625 431.214844 L 139.511719 76.320312 Z M 142.734375 79.542969 " fill-opacity="1" fill-rule="nonzero"/><path fill="#ffffff" d="M 138.199219 75.011719 L -216.6875 426.679688 L 134.980469 71.789062 Z M 138.199219 75.011719 " fill-opacity="1" fill-rule="nonzero"/><path fill="#ffffff" d="M 133.667969 70.480469 L -221.21875 422.148438 L 130.449219 67.257812 Z M 133.667969 70.480469 " fill-opacity="1" fill-rule="nonzero"/><path fill="#ffffff" d="M 129.136719 65.945312 L -225.753906 417.613281 L 125.914062 62.726562 Z M 129.136719 65.945312 " fill-opacity="1" fill-rule="nonzero"/><path fill="#ffffff" d="M 124.605469 61.414062 L -230.285156 413.082031 L 121.382812 58.191406 Z M 124.605469 61.414062 " fill-opacity="1" fill-rule="nonzero"/><path fill="#ffffff" d="M -119.953125 523.414062 L 234.9375 171.746094 L -116.730469 526.636719 Z M -119.953125 523.414062 " fill-opacity="1" fill-rule="nonzero"/><path fill="#ffffff" d="M -115.421875 527.945312 L 239.46875 176.277344 L -112.199219 531.167969 Z M -115.421875 527.945312 " fill-opacity="1" fill-rule="nonzero"/><path fill="#ffffff" d="M -110.890625 532.480469 L 244 180.808594 L -107.667969 535.699219 Z M -110.890625 532.480469 " fill-opacity="1" fill-rule="nonzero"/><path fill="#ffffff" d="M -106.359375 537.011719 L 248.53125 185.339844 L -103.136719 540.230469 Z M -106.359375 537.011719 " fill-opacity="1" fill-rule="nonzero"/><path fill="#ffffff" d="M -101.828125 541.542969 L 253.0625 189.871094 L -98.605469 544.761719 Z M -101.828125 541.542969 " fill-opacity="1" fill-rule="nonzero"/><path fill="#ffffff" d="M -97.296875 546.074219 L 257.59375 194.40625 L -94.074219 549.292969 Z M -97.296875 546.074219 " fill-opacity="1" fill-rule="nonzero"/><path fill="#ffffff" d="M -92.761719 550.605469 L 262.125 198.9375 L -89.539062 553.828125 Z M -92.761719 550.605469 " fill-opacity="1" fill-rule="nonzero"/><path fill="#ffffff" d="M -88.230469 555.140625 L 266.660156 203.46875 L -85.007812 558.359375 Z M -88.230469 555.140625 " fill-opacity="1" fill-rule="nonzero"/><path fill="#ffffff" d="M -83.699219 559.671875 L 271.191406 208 L -80.476562 562.894531 Z M -83.699219 559.671875 " fill-opacity="1" fill-rule="nonzero"/><path fill="#ffffff" d="M -79.167969 564.203125 L 275.726562 212.53125 L -75.945312 567.425781 Z M -79.167969 564.203125 " fill-opacity="1" fill-rule="nonzero"/><path fill="#ffffff" d="M -74.636719 568.734375 L 280.257812 217.066406 L -71.414062 571.953125 Z M -74.636719 568.734375 " fill-opacity="1" fill-rule="nonzero"/><path fill="#ffffff" d="M -70.101562 573.265625 L 284.789062 221.597656 L -66.882812 576.488281 Z M -70.101562 573.265625 " fill-opacity="1" fill-rule="nonzero"/><path fill="#ffffff" d="M -65.570312 577.796875 L 289.320312 226.128906 L -62.347656 581.019531 Z M -65.570312 577.796875 " fill-opacity="1" fill-rule="nonzero"/><path fill="#ffffff" d="M -61.039062 582.332031 L 293.851562 230.664062 L -57.816406 585.554688 Z M -61.039062 582.332031 " fill-opacity="1" fill-rule="nonzero"/><path fill="#ffffff" d="M -56.503906 586.863281 L 298.382812 235.195312 L -53.285156 590.085938 Z M -56.503906 586.863281 " fill-opacity="1" fill-rule="nonzero"/><path fill="#ffffff" d="M -51.972656 591.394531 L 302.917969 239.722656 L -48.753906 594.617188 Z M -51.972656 591.394531 " fill-opacity="1" fill-rule="nonzero"/><path fill="#ffffff" d="M -47.441406 595.925781 L 307.449219 244.257812 L -44.222656 599.148438 Z M -47.441406 595.925781 " fill-opacity="1" fill-rule="nonzero"/><path fill="#ffffff" d="M -42.910156 600.457031 L 311.980469 248.789062 L -39.691406 603.679688 Z M -42.910156 600.457031 " fill-opacity="1" fill-rule="nonzero"/><path fill="#ffffff" d="M -38.378906 604.992188 L 316.511719 253.320312 L -35.15625 608.210938 Z M -38.378906 604.992188 " fill-opacity="1" fill-rule="nonzero"/><path fill="#ffffff" d="M -33.84375 609.523438 L 321.042969 257.855469 L -30.625 612.742188 Z M -33.84375 609.523438 " fill-opacity="1" fill-rule="nonzero"/><path fill="#ffffff" d="M -29.3125 614.054688 L 325.578125 262.386719 L -26.089844 617.277344 Z M -29.3125 614.054688 " fill-opacity="1" fill-rule="nonzero"/><path fill="#ffffff" d="M -24.78125 618.589844 L 330.109375 266.917969 L -21.558594 621.808594 Z M -24.78125 618.589844 " fill-opacity="1" fill-rule="nonzero"/><path fill="#ffffff" d="M -20.25 623.121094 L 334.640625 271.449219 L -17.03125 626.339844 Z M -20.25 623.121094 " fill-opacity="1" fill-rule="nonzero"/><path fill="#ffffff" d="M -15.71875 627.648438 L 339.171875 275.980469 L -12.496094 630.871094 Z M -15.71875 627.648438 " fill-opacity="1" fill-rule="nonzero"/><g clip-path="url(#07acab0e32)"><path fill="#ffffff" d="M -11.1875 632.179688 L 343.703125 280.515625 L -7.964844 635.40625 Z M -11.1875 632.179688 " fill-opacity="1" fill-rule="nonzero"/></g><g mask="url(#9f563abec1)"><g transform="matrix(1, 0, 0, 1, 404, 290)"><g clip-path="url(#ff23af90bc)"><g clip-path="url(#d917fd11f5)"><path stroke-linecap="butt" transform="matrix(-0.749883, -0.000000000000000092, 0.000000000000000092, -0.75, 528.331989, 1.307037)" fill="none" stroke-linejoin="miter" d="M -0.0000568813 -0.0020762 L 703.119767 -0.0020762 " stroke="#a6a6a6" stroke-width="1" stroke-opacity="1" stroke-miterlimit="4"/></g></g></g></g></svg>