<svg xmlns="http://www.w3.org/2000/svg" xmlns:xlink="http://www.w3.org/1999/xlink" width="1080" zoomAndPan="magnify" viewBox="0 0 810 809.999993" height="1080" preserveAspectRatio="xMidYMid meet" version="1.0"><defs><filter x="0%" y="0%" width="100%" height="100%" id="eefbe9bdc5"><feColorMatrix values="0 0 0 0 1 0 0 0 0 1 0 0 0 0 1 0 0 0 1 0" color-interpolation-filters="sRGB"/></filter><mask id="411ce7c371"><g filter="url(#eefbe9bdc5)"><rect x="-81" width="972" fill="#000000" y="-80.999999" height="971.999992" fill-opacity="0.6784"/></g></mask><clipPath id="9fb08f36f8"><path d="M 0 0 L 360 0 L 360 321 L 0 321 Z M 0 0 " clip-rule="nonzero"/></clipPath><clipPath id="2c0da90c20"><rect x="0" width="361" y="0" height="325"/></clipPath><clipPath id="fa88d1509f"><path d="M 670.496094 0 L 809.996094 0 L 809.996094 428.351562 L 670.496094 428.351562 Z M 670.496094 0 " clip-rule="nonzero"/></clipPath><mask id="01f058c0db"><g filter="url(#eefbe9bdc5)"><rect x="-81" width="972" fill="#000000" y="-80.999999" height="971.999992" fill-opacity="0.8471"/></g></mask><clipPath id="451fec8315"><path d="M 0.398438 1.359375 L 519.269531 1.359375 L 519.269531 140 L 0.398438 140 Z M 0.398438 1.359375 " clip-rule="nonzero"/></clipPath><clipPath id="48b96fad29"><rect x="0" width="520" y="0" height="140"/></clipPath></defs><rect x="-81" width="972" fill="#ffffff" y="-80.999999" height="971.999992" fill-opacity="1"/><rect x="-81" width="972" fill="#ffecec" y="-80.999999" height="971.999992" fill-opacity="1"/><path fill="#ffffff" d="M 136.601562 227.984375 C 171.617188 307.480469 157.597656 388.976562 114.984375 432.863281 C 72.371094 476.753906 -48.355469 562.941406 -148.296875 406.160156 C -248.234375 249.378906 -28.191406 106.191406 70.644531 166.707031 C 131.765625 204.109375 136.601562 227.984375 136.601562 227.984375 Z M 136.601562 227.984375 " fill-opacity="1" fill-rule="nonzero"/><g mask="url(#411ce7c371)"><g transform="matrix(1, 0, 0, 1, 0, 0.000000000000039746)"><g clip-path="url(#2c0da90c20)"><g clip-path="url(#9fb08f36f8)"><path fill="#fecd1a" d="M -6.839844 319.082031 C -11.472656 291.964844 -12.660156 264.253906 -10.285156 236.78125 C -10.757812 146.628906 -11.113281 56.476562 -6.246094 -33.554688 C 114.15625 -28.558594 239.421875 -29.628906 359.941406 -31.292969 C 359.46875 -6.792969 352.582031 15.207031 337.976562 35.070312 C 332.988281 41.847656 327.289062 48.035156 320.402344 52.792969 C 300.335938 66.585938 270.175781 67.417969 258.183594 88.707031 C 248.089844 106.429688 256.640625 128.90625 254.027344 149.125 C 251.890625 166.371094 241.441406 181.832031 227.550781 192.179688 C 213.65625 202.527344 196.675781 208.117188 179.460938 210.257812 C 164.023438 212.160156 147.28125 211.921875 134.816406 221.199219 C 120.683594 231.667969 116.648438 250.578125 109.640625 266.75 C 91.238281 309.328125 39.347656 324.195312 -6.839844 319.082031 Z M -6.839844 319.082031 " fill-opacity="1" fill-rule="nonzero"/></g></g></g></g><path fill="#fecd1a" d="M 818.988281 637.546875 C 852.628906 714.039062 839.160156 792.457031 798.21875 834.6875 C 757.28125 876.917969 641.296875 959.851562 545.285156 808.992188 C 449.273438 658.128906 660.671875 520.351562 755.621094 578.582031 C 814.34375 614.574219 818.988281 637.546875 818.988281 637.546875 Z M 818.988281 637.546875 " fill-opacity="1" fill-rule="nonzero"/><g clip-path="url(#fa88d1509f)"><path fill="#fabdbd" d="M 809.855469 428.351562 L 809.855469 -33.648438 C 809.855469 -33.648438 709.65625 32.316406 706.523438 73.246094 C 703.390625 114.171875 740.003906 128.617188 724.828125 157.507812 C 709.65625 186.398438 672.5625 196.75 670.636719 229.492188 C 667.023438 296.179688 750.121094 284.140625 754.457031 320.015625 C 758.789062 355.886719 743.855469 427.148438 809.855469 428.351562 Z M 809.855469 428.351562 " fill-opacity="1" fill-rule="nonzero"/></g><g mask="url(#01f058c0db)"><g transform="matrix(1, 0, 0, 1, 216, 670)"><g clip-path="url(#48b96fad29)"><g clip-path="url(#451fec8315)"><path fill="#b1d4e0" d="M 519.398438 157.949219 L 0.398438 157.949219 C 0.398438 157.949219 74.503906 45.363281 120.480469 41.847656 C 166.457031 38.328125 182.683594 79.464844 215.136719 62.414062 C 247.59375 45.363281 259.222656 3.683594 296.003906 1.519531 C 370.917969 -2.539062 357.398438 90.832031 397.695312 95.703125 C 437.992188 100.574219 518.046875 83.796875 519.398438 157.949219 Z M 519.398438 157.949219 " fill-opacity="1" fill-rule="nonzero"/></g></g></g></g></svg>