<svg xmlns="http://www.w3.org/2000/svg" xmlns:xlink="http://www.w3.org/1999/xlink" width="1080" zoomAndPan="magnify" viewBox="0 0 810 809.999993" height="1080" preserveAspectRatio="xMidYMid meet" version="1.0"><defs><clipPath id="9ea66527d5"><path d="M 305.359375 23.25 L 504.859375 23.25 L 504.859375 308.25 L 305.359375 308.25 Z M 305.359375 23.25 " clip-rule="nonzero"/></clipPath><clipPath id="df4e810229"><path d="M 346.191406 90.925781 L 463.941406 90.925781 L 463.941406 261.925781 L 346.191406 261.925781 Z M 346.191406 90.925781 " clip-rule="nonzero"/></clipPath></defs><rect x="-81" width="972" fill="#ffffff" y="-80.999999" height="971.999992" fill-opacity="1"/><rect x="-81" width="972" fill="#cdcfc0" y="-80.999999" height="971.999992" fill-opacity="1"/><g clip-path="url(#9ea66527d5)"><path fill="#423f32" d="M 504.804688 308.085938 L 305.359375 308.085938 L 305.359375 123.160156 C 305.359375 68.148438 350.09375 23.414062 405.109375 23.414062 C 460.125 23.414062 504.859375 68.148438 504.859375 123.160156 L 504.859375 308.085938 Z M 307.617188 305.828125 L 502.542969 305.828125 L 502.542969 123.160156 C 502.542969 69.390625 458.824219 25.671875 405.109375 25.671875 C 351.335938 25.671875 307.617188 69.390625 307.617188 123.160156 Z M 307.617188 305.828125 " fill-opacity="1" fill-rule="nonzero"/></g><g clip-path="url(#df4e810229)"><path fill="#423f32" d="M 405.714844 216.578125 C 407.019531 214.777344 407.398438 213.03125 407.832031 211.347656 C 408.269531 209.722656 408.832031 208.140625 409.519531 206.601562 C 409.6875 206.21875 409.953125 205.863281 410.0625 205.464844 C 410.976562 202.128906 413.039062 199.445312 415.125 196.820312 C 416.542969 195.039062 418.152344 193.4375 420.15625 192.171875 C 423.609375 189.992188 427.324219 188.183594 430.324219 185.292969 C 431.566406 184.113281 433 183.25 434.625 182.707031 C 435.796875 182.304688 436.886719 181.609375 438.015625 181.054688 C 439.820312 180.171875 441.773438 179.761719 443.714844 179.371094 C 444.953125 179.121094 445.917969 179.566406 446.648438 180.710938 C 447.820312 182.566406 448.433594 184.476562 447.964844 186.6875 C 447.679688 188.027344 447.460938 189.378906 447.3125 190.742188 C 446.988281 193.742188 445.832031 196.394531 444.246094 198.9375 C 442.65625 201.476562 440.867188 203.71875 438.558594 205.640625 C 436.953125 206.980469 435.582031 208.585938 433.90625 209.878906 C 431.660156 211.636719 429.238281 213.09375 426.632812 214.257812 C 426.054688 214.511719 425.503906 214.824219 424.984375 215.1875 C 421.21875 217.808594 417.015625 219.378906 412.589844 220.433594 C 410.742188 220.875 408.925781 221.394531 407.082031 221.816406 C 406.175781 222.023438 405.988281 222.207031 405.890625 223.363281 C 405.859375 223.570312 405.84375 223.78125 405.851562 223.992188 C 406.449219 230.597656 407.144531 237.183594 408.789062 243.632812 C 408.808594 243.734375 408.835938 243.835938 408.878906 243.933594 C 408.917969 244.007812 409.035156 244.121094 409.066406 244.101562 C 409.242188 244.046875 409.390625 243.949219 409.511719 243.816406 C 409.621094 243.648438 409.621094 243.410156 409.695312 243.214844 C 410.542969 240.949219 411.355469 238.667969 412.265625 236.429688 C 412.53125 235.777344 412.601562 235.230469 412.242188 234.648438 C 411.882812 234.066406 411.917969 233.457031 412.007812 232.816406 C 412.195312 231.421875 412.820312 230.195312 413.574219 229.058594 C 413.910156 228.554688 414.492188 228.191406 415.03125 227.871094 C 415.257812 227.726562 415.503906 227.644531 415.769531 227.621094 C 416.035156 227.597656 416.292969 227.636719 416.542969 227.734375 C 416.792969 227.832031 417.003906 227.984375 417.179688 228.183594 C 417.355469 228.386719 417.480469 228.617188 417.542969 228.875 C 417.691406 229.480469 417.6875 230.121094 417.753906 230.746094 C 417.804688 231.265625 418.128906 231.5 418.609375 231.382812 C 419.738281 231.113281 420.789062 231.34375 421.480469 232.222656 C 422.277344 233.214844 421.984375 234.425781 421.628906 235.535156 C 420.835938 238.019531 418.375 239.347656 415.894531 238.628906 C 415.101562 238.402344 414.832031 237.695312 414.597656 236.964844 C 414.542969 236.757812 414.410156 236.636719 414.199219 236.605469 C 413.984375 236.574219 413.820312 236.648438 413.710938 236.835938 C 412.476562 238.707031 411.949219 240.871094 411.195312 242.9375 C 410.996094 243.542969 410.835938 244.15625 410.71875 244.78125 C 410.277344 246.738281 410.078125 248.6875 410.71875 250.644531 C 411.632812 253.4375 412.1875 256.34375 413.527344 259 C 413.847656 259.664062 414.101562 260.355469 414.28125 261.070312 C 414.34375 261.316406 414.125 261.640625 414.035156 261.929688 C 413.769531 261.789062 413.429688 261.710938 413.253906 261.5 C 412.566406 260.6875 412.058594 259.773438 411.726562 258.761719 C 411.074219 256.652344 410.292969 254.585938 409.667969 252.472656 C 408.773438 249.457031 407.914062 246.417969 407.152344 243.359375 C 406.648438 241.324219 406.332031 239.242188 405.949219 237.175781 C 405.839844 236.59375 405.59375 236.269531 404.941406 236.199219 C 404 236.101562 403.074219 235.878906 402.140625 235.730469 C 400.253906 235.429688 398.367188 235.339844 396.484375 235.777344 C 391.933594 236.835938 387.40625 236.304688 383.058594 234.984375 C 378.597656 233.613281 374.492188 231.539062 370.742188 228.765625 C 369.042969 227.519531 367.132812 226.488281 366.097656 224.574219 C 364.628906 221.878906 362.464844 219.664062 360.933594 217.042969 C 358.800781 213.386719 358.484375 209.488281 360.5 205.59375 C 360.964844 204.695312 361.578125 204.460938 362.605469 204.773438 C 363.207031 204.964844 363.796875 205.1875 364.375 205.445312 C 368.140625 207.101562 372.027344 208.402344 376.03125 209.34375 C 379.289062 210.089844 382.617188 210.789062 385.589844 212.472656 C 386.597656 213.039062 387.613281 213.609375 388.507812 214.328125 C 391.285156 216.558594 393.832031 219.082031 396.839844 221.03125 C 398.570312 223.148438 400.972656 224.625 402.484375 226.964844 C 403.042969 227.828125 403.605469 228.742188 404.714844 229.417969 C 404.703125 227.941406 404.746094 226.59375 404.667969 225.253906 C 404.5 222.523438 404.292969 219.796875 404.078125 217.070312 C 404.039062 216.554688 404.019531 215.996094 403.800781 215.546875 C 402.976562 213.847656 402.082031 212.183594 401.191406 210.519531 C 401.023438 210.261719 400.816406 210.035156 400.574219 209.847656 C 400.117188 209.441406 399.550781 209.414062 399.234375 209.914062 C 398.109375 211.722656 396.214844 211.632812 394.488281 211.867188 C 393.570312 211.992188 392.15625 210.929688 392.03125 210.167969 C 391.828125 208.910156 391.78125 207.65625 392.863281 206.648438 C 393.433594 206.125 394.160156 205.980469 394.820312 205.664062 C 395.277344 205.449219 395.40625 204.992188 395.03125 204.75 C 394.074219 204.125 393.679688 203.167969 393.332031 202.160156 C 393.136719 201.605469 393.121094 201.042969 393.285156 200.472656 C 393.449219 199.90625 393.761719 199.4375 394.222656 199.070312 C 395.085938 198.339844 396.503906 198.199219 397.445312 198.972656 C 399.496094 200.648438 400.71875 202.765625 400.425781 205.535156 C 399.65625 206.972656 400.304688 207.945312 401.484375 208.722656 C 402.527344 209.40625 402.867188 210.539062 403.386719 211.570312 C 403.476562 211.738281 403.695312 211.972656 403.832031 211.960938 C 404.222656 211.929688 404.152344 211.546875 404.152344 211.292969 C 404.140625 209.5 404.039062 207.710938 404.101562 205.929688 C 404.257812 201.402344 404.472656 196.878906 404.695312 192.355469 C 404.761719 191.078125 404.738281 189.886719 404.09375 188.691406 C 403.808594 188.101562 403.347656 187.738281 402.703125 187.605469 C 401.769531 187.363281 400.824219 187.425781 399.875 187.511719 C 393.140625 188.097656 386.421875 187.808594 379.707031 187.144531 C 375.152344 186.6875 370.820312 185.382812 366.660156 183.570312 C 364.828125 182.753906 363.148438 181.6875 361.628906 180.375 C 359.71875 178.746094 357.605469 177.347656 355.738281 175.671875 C 353.238281 173.441406 350.382812 171.601562 348.25 168.957031 C 347.789062 168.386719 347.316406 167.816406 346.890625 167.214844 C 346.203125 166.253906 346.332031 165.621094 347.375 165.253906 C 348.757812 164.769531 350.058594 164.070312 351.519531 163.746094 C 352.617188 163.507812 353.65625 162.886719 354.660156 162.324219 C 358.253906 160.304688 362.152344 159.679688 366.207031 159.65625 C 371.011719 159.625 375.21875 161.332031 379.21875 163.855469 C 383.421875 166.511719 387.109375 169.777344 390.777344 173.082031 C 390.941406 173.21875 391.085938 173.371094 391.214844 173.539062 C 393.273438 176.359375 396.046875 178.523438 398.195312 181.257812 C 398.855469 182.09375 399.675781 182.742188 400.527344 183.359375 C 400.746094 183.527344 401.019531 183.863281 401.25 183.496094 C 401.394531 183.207031 401.410156 182.910156 401.300781 182.605469 C 400.648438 180.941406 399.9375 179.300781 399.269531 177.644531 C 397.859375 174.144531 396.121094 170.761719 395.371094 167.023438 C 395.164062 165.980469 394.476562 165.433594 393.609375 164.945312 C 391.867188 163.964844 390.144531 162.953125 388.457031 161.886719 C 386.210938 160.472656 384.136719 158.871094 383.132812 156.261719 C 381.21875 153.917969 380.296875 151.140625 379.546875 148.273438 C 379.277344 147.261719 378.945312 146.265625 378.554688 145.292969 C 377.503906 142.609375 377.074219 139.832031 376.824219 136.984375 C 376.679688 135.613281 376.800781 134.269531 377.191406 132.945312 C 378.3125 129.332031 379.371094 125.691406 380.621094 122.121094 C 382.210938 117.597656 384.929688 113.742188 388.089844 110.183594 C 388.527344 109.695312 389.070312 109.398438 389.714844 109.296875 C 390.40625 109.160156 390.972656 109.34375 391.402344 109.878906 C 391.738281 110.285156 392.097656 110.703125 392.285156 111.179688 C 393.480469 114.222656 395.3125 116.9375 396.734375 119.863281 C 397.65625 121.753906 398.539062 123.683594 399.28125 125.621094 C 400.132812 127.847656 400.339844 130.328125 400.789062 132.703125 C 400.980469 133.734375 401.054688 134.789062 401.199219 135.828125 C 401.464844 137.714844 401.472656 139.605469 401.226562 141.496094 C 400.613281 146.300781 400.050781 151.101562 398.570312 155.753906 C 397.933594 157.75 397.730469 159.878906 397.195312 161.910156 C 396.292969 165.339844 396.804688 168.664062 398.203125 171.757812 C 400.113281 175.972656 401.683594 180.316406 403.488281 184.566406 C 403.808594 185.316406 404.042969 186.164062 405.054688 186.578125 C 405.378906 184.902344 405.8125 183.261719 405.992188 181.605469 C 406.4375 177.496094 407.589844 173.5625 408.695312 169.605469 C 409.460938 166.871094 410.539062 164.226562 411.007812 161.40625 C 411.070312 161.097656 411.175781 160.796875 411.320312 160.515625 C 412.496094 158.058594 412.578125 155.449219 412.359375 152.808594 C 412.191406 150.726562 411.941406 148.648438 411.730469 146.574219 C 411.511719 146.59375 411.375 146.574219 411.308594 146.621094 C 410.300781 147.4375 409.238281 147.4375 408.074219 146.976562 C 407.003906 146.554688 406.398438 145.738281 405.929688 144.777344 C 405.769531 144.386719 405.652344 143.980469 405.585938 143.5625 C 405.289062 142.238281 406.296875 141.050781 407.667969 141.0625 C 408.539062 141.0625 409.308594 141.398438 410.09375 141.710938 C 410.683594 141.949219 410.929688 141.710938 410.890625 140.953125 C 410.824219 139.78125 410.917969 138.636719 411.359375 137.542969 C 411.613281 136.921875 412.03125 136.496094 412.753906 136.421875 C 413.476562 136.347656 413.980469 136.648438 414.398438 137.164062 C 414.613281 137.402344 414.773438 137.671875 414.878906 137.976562 C 415.472656 140.039062 415.582031 142.109375 414.746094 144.148438 C 414.632812 144.425781 414.425781 144.820312 414.195312 144.871094 C 412.890625 145.152344 413.109375 146.105469 413.058594 147.050781 C 412.992188 148.335938 413.199219 149.578125 413.433594 150.8125 C 413.621094 151.777344 412.914062 152.871094 413.851562 153.714844 C 414.394531 152.855469 415.027344 152.039062 415.46875 151.121094 C 417.269531 147.433594 419.007812 143.734375 420.789062 140.046875 C 421.089844 139.480469 421.238281 138.875 421.238281 138.234375 C 421.109375 133.207031 422.410156 128.476562 424.152344 123.804688 C 425.957031 118.960938 429.097656 115.089844 432.511719 111.34375 C 434.726562 108.910156 437.269531 106.894531 440.144531 105.292969 C 441.625 104.453125 442.902344 103.367188 443.976562 102.046875 C 444.460938 101.492188 444.988281 100.984375 445.558594 100.523438 C 447.277344 99.074219 449.015625 97.714844 450.519531 96.082031 C 451.042969 95.554688 451.617188 95.097656 452.246094 94.707031 C 453.554688 93.824219 454.929688 93.042969 456.203125 92.113281 C 457.160156 91.410156 458.238281 91.039062 459.425781 91.007812 C 461.441406 90.921875 461.835938 91.261719 462.613281 93.238281 C 463.542969 95.542969 463.613281 97.957031 463.710938 100.371094 C 463.925781 105.890625 462.496094 110.992188 459.414062 115.558594 C 457.839844 117.894531 455.90625 119.980469 454.027344 122.101562 C 450.488281 126.105469 445.957031 128.839844 441.820312 132.0625 C 438.75 134.453125 435.152344 136.039062 431.316406 136.972656 C 429.472656 137.417969 427.648438 137.914062 425.8125 138.382812 C 425.09375 138.5625 424.425781 138.855469 423.800781 139.253906 C 422.8125 139.886719 422.054688 140.726562 421.53125 141.777344 C 419.613281 145.402344 418.007812 149.171875 416.164062 152.835938 C 414.4375 156.292969 412.71875 159.828125 411.984375 163.703125 C 411.824219 164.421875 411.628906 165.128906 411.394531 165.828125 C 411.28125 166.207031 411.003906 166.84375 411.296875 166.933594 C 411.9375 167.125 412.070312 166.40625 412.3125 165.972656 C 412.984375 164.78125 413.542969 163.546875 414.375 162.441406 C 415.828125 160.511719 417.144531 158.488281 418.566406 156.539062 C 419.132812 155.78125 419.757812 155.078125 420.449219 154.433594 C 421.136719 153.78125 421.957031 153.273438 422.652344 152.632812 C 425.378906 150.132812 428.6875 148.878906 432.226562 148.066406 C 438.488281 146.609375 444.820312 145.625 451.230469 145.109375 C 452.179688 145.0625 453.121094 145.121094 454.054688 145.292969 C 455.636719 145.539062 457.261719 147.367188 457.097656 149.171875 C 456.839844 152.019531 456.5 154.757812 454.695312 157.203125 C 453.136719 159.320312 451.832031 161.59375 449.691406 163.234375 C 448.789062 163.929688 448.03125 164.851562 447.351562 165.78125 C 445.316406 168.5625 442.417969 170.335938 439.761719 172.390625 C 439.328125 172.695312 438.863281 172.933594 438.367188 173.113281 C 434.558594 174.664062 430.667969 175.945312 426.554688 176.394531 C 425.40625 176.535156 424.25 176.578125 423.089844 176.53125 C 419.726562 176.347656 416.367188 176.0625 413.003906 175.859375 C 412.0625 175.804688 411.117188 175.933594 410.171875 175.933594 C 409.148438 175.933594 408.707031 176.457031 408.453125 177.40625 C 408.101562 178.730469 407.703125 180.027344 407.550781 181.402344 C 407.078125 185.589844 406.382812 189.761719 406.082031 193.957031 C 405.632812 200.144531 405.371094 206.347656 405.679688 212.558594 C 405.742188 213.765625 405.703125 214.976562 405.714844 216.566406 Z M 387.683594 154.488281 L 387.597656 154.488281 C 387.996094 155.324219 388.382812 156.183594 388.808594 157.011719 C 388.890625 157.179688 389.121094 157.277344 389.300781 157.367188 C 389.484375 157.457031 389.648438 157.347656 389.722656 157.085938 C 390.03125 155.976562 390.359375 154.867188 390.636719 153.75 C 390.789062 153.140625 390.828125 152.503906 390.972656 151.890625 C 391.023438 151.65625 390.957031 151.160156 391.464844 151.375 C 391.605469 151.433594 391.648438 151.71875 391.738281 151.902344 C 391.828125 152.082031 391.875 152.335938 391.992188 152.371094 C 392.199219 152.398438 392.371094 152.332031 392.503906 152.175781 C 394.027344 149.613281 395.019531 146.894531 395.140625 143.875 C 395.214844 141.988281 395.417969 140.101562 395.609375 138.222656 C 395.683594 137.707031 395.828125 137.214844 396.042969 136.738281 C 396.089844 136.625 396.414062 136.550781 396.585938 136.585938 C 396.757812 136.617188 397.019531 136.800781 397.023438 136.929688 C 397.035156 137.449219 397.011719 137.972656 396.957031 138.488281 C 396.640625 141.914062 396.152344 145.324219 396.050781 148.765625 C 395.960938 148.824219 395.832031 148.855469 395.785156 148.933594 C 394.027344 151.90625 392.421875 154.953125 391.199219 158.191406 C 390.988281 158.75 391.191406 159.195312 391.566406 159.609375 C 392.621094 160.769531 393.675781 161.933594 395.164062 162.722656 C 395.269531 162.441406 395.34375 162.15625 395.398438 161.863281 C 395.675781 158.519531 396.003906 155.179688 396.164062 151.832031 C 396.210938 150.828125 396.519531 149.753906 395.996094 148.757812 C 396.71875 148.292969 396.722656 147.507812 396.820312 146.796875 C 397.441406 142.210938 398.003906 137.617188 398.652344 133.039062 C 398.824219 131.828125 398.796875 130.625 398.570312 129.425781 C 398.34375 128.226562 397.933594 127.09375 397.332031 126.03125 C 395.066406 121.890625 393.132812 117.601562 391.535156 113.160156 C 391.390625 112.765625 391.269531 112.363281 391.097656 111.984375 C 390.808594 111.335938 389.984375 111.164062 389.589844 111.691406 C 386.3125 116.078125 383.417969 120.671875 381.882812 126.007812 C 381.679688 126.714844 381.386719 127.394531 381.148438 128.089844 C 380.941406 128.683594 380.664062 129.261719 380.566406 129.878906 C 379.875 134.234375 379.394531 138.589844 380.027344 143.039062 C 380.363281 145.363281 381.054688 147.535156 381.757812 149.722656 C 382.074219 150.699219 382.675781 151.585938 383.160156 152.503906 C 383.199219 152.574219 383.347656 152.585938 383.449219 152.621094 C 383.46875 152.519531 383.5 152.417969 383.507812 152.316406 C 383.617188 151.210938 382.960938 150.304688 382.671875 149.320312 C 382.011719 147.078125 381.496094 144.796875 381.847656 142.492188 C 382.628906 137.332031 384.757812 132.660156 387.535156 128.273438 C 387.710938 128.015625 387.929688 127.800781 388.195312 127.632812 C 388.332031 127.542969 388.644531 127.53125 388.746094 127.625 C 388.890625 127.789062 388.9375 127.980469 388.886719 128.195312 C 388.394531 129.234375 387.929688 130.296875 387.324219 131.269531 C 385.46875 134.25 384.265625 137.5 383.484375 140.882812 C 382.3125 145.988281 383.601562 150.640625 386.464844 154.917969 C 386.582031 155.101562 386.742188 155.230469 386.941406 155.308594 C 387.027344 155.335938 387.210938 155.113281 387.324219 154.984375 C 387.453125 154.824219 387.574219 154.660156 387.683594 154.488281 Z M 419.601562 162.5 L 419.515625 162.480469 C 419.589844 162.625 419.617188 162.773438 419.589844 162.933594 C 419.5625 163.09375 419.492188 163.226562 419.375 163.339844 C 418.707031 163.988281 417.996094 164.609375 416.785156 165.714844 C 418.371094 165.085938 419.300781 164.6875 420.257812 164.34375 C 421.429688 163.914062 422.632812 163.523438 423.824219 163.128906 C 424.023438 163.074219 424.222656 163.042969 424.429688 163.035156 C 424.472656 163.035156 424.558594 163.136719 424.554688 163.183594 C 424.546875 163.28125 424.519531 163.433594 424.453125 163.464844 C 423.121094 164.070312 421.753906 164.597656 420.453125 165.265625 C 417.558594 166.746094 415.101562 168.734375 413.109375 172.132812 C 415.777344 170.835938 418.117188 170.269531 420.371094 169.46875 C 422.476562 168.71875 424.636719 168.359375 426.835938 168.128906 C 427.671875 168.039062 428.511719 168.042969 429.347656 167.921875 C 432.425781 167.464844 435.21875 166.324219 437.59375 164.292969 C 438.382812 163.621094 439.003906 162.742188 439.773438 162.023438 C 441.527344 160.339844 442.976562 158.421875 444.113281 156.269531 C 444.511719 155.53125 444.917969 154.792969 445.355469 154.078125 C 445.410156 153.992188 445.789062 153.976562 445.867188 154.0625 C 446.152344 154.371094 446.097656 153.871094 446.078125 154.292969 C 446.023438 155.390625 445.546875 156.335938 444.902344 157.167969 C 443.226562 159.3125 441.625 161.53125 439.75 163.492188 C 438.347656 164.945312 436.738281 166.109375 434.921875 166.988281 C 432.15625 168.363281 429.234375 169.121094 426.148438 169.257812 C 422.394531 169.425781 419.015625 170.867188 415.570312 172.109375 C 415.382812 172.210938 415.25 172.359375 415.164062 172.554688 C 415.082031 172.710938 415.246094 172.777344 415.535156 172.765625 C 418.261719 172.628906 420.992188 172.523438 423.71875 172.363281 C 427.617188 172.132812 431.445312 171.472656 435.117188 170.101562 C 436.988281 169.40625 438.863281 168.714844 440.707031 167.957031 C 442.550781 167.199219 444.347656 166.335938 445.902344 165.050781 C 449.058594 162.453125 451.019531 158.96875 452.90625 155.457031 C 453.394531 154.554688 453.5625 153.457031 453.730469 152.421875 C 453.804688 151.792969 453.742188 151.171875 453.539062 150.570312 C 453.277344 149.710938 452.652344 149.125 451.714844 149.042969 C 450.667969 148.914062 449.632812 149 448.617188 149.292969 C 445.914062 150.132812 443.199219 150.984375 440.375 151.367188 C 438.085938 151.675781 435.804688 152.035156 433.511719 152.28125 C 430.867188 152.566406 428.292969 153.140625 426.007812 154.488281 C 424.296875 155.492188 422.785156 156.851562 421.148438 158.007812 C 417.058594 160.886719 414.511719 164.945312 412.289062 169.351562 C 412.957031 169.242188 413.230469 168.808594 413.546875 168.378906 C 415.242188 166.085938 417.070312 163.929688 419.601562 162.5 Z M 437.894531 127.328125 C 437.261719 128.054688 436.492188 128.65625 435.59375 128.941406 C 433.660156 129.554688 432.199219 130.988281 430.375 131.816406 C 429.121094 132.382812 428.039062 133.410156 426.625 134.882812 C 427.695312 134.574219 428.214844 134.492188 428.667969 134.28125 C 431.246094 133.085938 433.921875 132.164062 436.6875 131.515625 C 437.808594 131.246094 438.949219 131.011719 440.027344 130.613281 C 442.609375 129.671875 445.027344 128.4375 446.894531 126.328125 C 447.515625 125.621094 448.246094 125.011719 448.925781 124.355469 C 449.527344 123.773438 450.191406 123.242188 450.71875 122.597656 C 452.3125 120.65625 453.925781 118.722656 455.390625 116.683594 C 456.390625 115.328125 457.21875 113.875 457.882812 112.328125 C 458.769531 110.191406 459.484375 108 460.03125 105.753906 C 460.738281 102.753906 460.890625 99.730469 460.492188 96.675781 C 460.199219 94.425781 459.496094 94.117188 457.582031 95.15625 C 456.851562 95.554688 455.996094 95.890625 455.484375 96.496094 C 454.035156 98.207031 451.792969 98.910156 450.386719 100.648438 C 450.03125 101.050781 449.601562 101.347656 449.097656 101.539062 C 447.8125 102.066406 446.71875 102.882812 445.609375 103.675781 C 445.183594 103.984375 444.734375 104.246094 444.257812 104.460938 C 442.09375 105.421875 440.339844 106.890625 438.890625 108.734375 C 437.59375 110.382812 436.207031 111.980469 435.097656 113.75 C 433.835938 115.796875 432.722656 117.921875 431.753906 120.117188 C 432.949219 119.070312 433.695312 118.609375 434.167969 117.964844 C 435.613281 115.953125 437.632812 114.613281 439.554688 113.164062 C 439.695312 113.058594 439.953125 113.113281 440.15625 113.09375 C 440.097656 113.277344 440.101562 113.53125 439.976562 113.636719 C 438.21875 115.121094 436.492188 116.601562 434.921875 118.328125 C 432.796875 120.660156 430.753906 123.019531 429.050781 125.671875 C 428.789062 126.082031 428.28125 126.539062 428.550781 127.292969 C 429.589844 126.566406 430.527344 125.898438 431.480469 125.257812 C 431.554688 125.207031 431.761719 125.324219 431.882812 125.40625 C 431.910156 125.421875 431.882812 125.628906 431.808594 125.6875 C 430.625 126.871094 429.375 127.996094 428.25 129.234375 C 426.625 131.027344 425.261719 133.003906 424.164062 135.160156 C 424.082031 135.355469 424.03125 135.558594 424.015625 135.769531 C 424.003906 135.863281 424.039062 136.042969 424.089844 136.058594 C 424.257812 136.109375 424.5 136.183594 424.609375 136.101562 C 425.820312 135.238281 426.421875 133.832031 427.597656 132.886719 C 430.574219 130.492188 433.957031 128.851562 437.339844 127.1875 C 437.460938 127.128906 437.699219 127.304688 437.882812 127.371094 Z M 404.332031 233.71875 C 400.792969 228.277344 396.628906 223.851562 392.359375 219.523438 C 392.191406 219.394531 392.015625 219.28125 391.832031 219.179688 C 388.695312 216.882812 385.355469 214.933594 381.902344 213.15625 C 378.492188 211.398438 368.277344 208.894531 365.023438 208.171875 C 364.507812 208.074219 363.984375 208.015625 363.457031 208.003906 C 363.140625 207.964844 362.832031 207.992188 362.527344 208.089844 C 362.160156 208.257812 361.703125 208.464844 361.542969 208.78125 C 361.023438 209.832031 360.707031 210.941406 361.207031 212.117188 C 361.5 212.789062 361.792969 213.46875 362.019531 214.167969 C 362.765625 216.5 364.265625 218.4375 365.492188 220.492188 C 368.375 225.316406 372.320312 228.992188 377.984375 230.359375 C 380.039062 230.851562 382.105469 231.207031 384.230469 231.085938 C 386.960938 230.941406 389.679688 231.054688 392.390625 231.417969 C 396.3125 231.910156 400.285156 232.066406 404.332031 233.71875 Z M 400.460938 185.738281 C 400.460938 185.121094 399.980469 184.890625 399.539062 184.601562 C 397.78125 183.457031 396.015625 182.296875 394.589844 180.761719 C 392.945312 178.988281 391.007812 177.527344 389.449219 175.652344 C 388.457031 174.457031 387.179688 173.472656 385.964844 172.484375 C 381.757812 169.050781 377.050781 166.605469 371.726562 165.382812 C 370.089844 165.007812 368.488281 164.46875 366.785156 164.398438 C 362.898438 164.230469 359.019531 164.492188 355.136719 164.621094 C 354.375 164.628906 353.695312 164.859375 353.085938 165.316406 C 352.140625 166.03125 351.855469 166.714844 353.136719 167.445312 C 353.796875 167.824219 354.265625 168.363281 354.777344 168.890625 C 356.238281 170.398438 357.628906 172 359.273438 173.273438 C 360.300781 174.070312 361.097656 174.980469 361.894531 175.945312 C 363.582031 177.988281 365.558594 179.757812 367.84375 181.03125 C 371.4375 183.042969 375.320312 184.363281 379.382812 185.125 C 382.5 185.707031 385.660156 185.796875 388.808594 185.875 C 392.683594 185.972656 396.566406 185.800781 400.460938 185.742188 Z M 419.714844 206.820312 C 418.828125 207.953125 418.257812 208.960938 417.4375 209.679688 C 414.128906 212.59375 411.234375 215.949219 407.636719 218.5625 C 410.453125 217.371094 413.375 216.6875 416.347656 216.144531 C 417.898438 215.863281 419.441406 215.535156 420.980469 215.1875 C 422.515625 214.835938 424.050781 214.304688 425.292969 213.355469 C 428.636719 210.804688 432.15625 208.449219 434.835938 205.128906 C 436.945312 202.519531 439.148438 200.003906 440.445312 196.8125 C 441.875 193.296875 443.328125 189.8125 443.582031 185.964844 C 443.65625 184.808594 443.867188 183.660156 443.511719 182.511719 C 443.402344 182.144531 443.136719 182 442.828125 182.078125 C 442.222656 182.234375 441.546875 182.347656 441.066406 182.703125 C 440.039062 183.464844 438.886719 183.972656 437.765625 184.535156 C 436.734375 185.050781 435.617188 185.457031 434.703125 186.128906 C 433.242188 187.207031 431.605469 187.980469 429.964844 188.597656 C 427.78125 189.414062 426.1875 190.863281 424.648438 192.453125 C 420.464844 196.75 417.179688 201.765625 413.511719 206.476562 C 413.449219 206.5625 413.375 206.644531 413.320312 206.726562 C 412.277344 208.429688 411.191406 210.105469 410.210938 211.847656 C 409.601562 212.925781 408.878906 213.996094 408.871094 215.34375 C 409.621094 215.191406 409.894531 214.613281 410.289062 214.117188 C 413.023438 210.664062 414.984375 206.667969 417.929688 203.355469 C 420.089844 200.929688 421.8125 198.117188 424.484375 196.148438 C 424.726562 195.96875 424.890625 195.675781 425.097656 195.441406 C 427.355469 192.839844 430.265625 191.1875 433.332031 189.761719 C 433.53125 189.675781 433.738281 189.65625 433.949219 189.699219 C 434.132812 189.761719 434.285156 189.863281 434.40625 190.011719 C 434.445312 190.050781 434.390625 190.25 434.324219 190.296875 C 433.734375 190.722656 433.183594 191.246094 432.527344 191.523438 C 429.351562 192.863281 426.839844 195.128906 424.429688 197.445312 C 421.632812 200.128906 419.28125 203.246094 416.972656 206.355469 C 415.796875 207.929688 414.457031 209.457031 413.847656 211.585938 C 416.148438 210.445312 417.03125 207.804688 419.714844 206.824219 Z M 420.589844 156.59375 C 421.910156 155.660156 422.902344 155.050781 423.789062 154.3125 C 424.945312 153.355469 426.269531 152.730469 427.644531 152.203125 C 429.511719 151.476562 431.464844 151.09375 433.453125 150.839844 C 438.554688 150.1875 443.652344 149.519531 448.570312 147.898438 C 449.582031 147.59375 450.613281 147.441406 451.667969 147.4375 C 453.4375 147.390625 454.613281 148.417969 454.945312 150.152344 C 455.035156 150.671875 455.085938 151.191406 455.09375 151.714844 C 455.101562 151.972656 455.179688 152.078125 455.457031 151.96875 C 455.550781 151.910156 455.609375 151.828125 455.621094 151.714844 C 455.683594 150.878906 455.789062 150.039062 455.765625 149.214844 C 455.707031 147.628906 454.839844 146.742188 453.238281 146.535156 C 451.5625 146.320312 449.886719 146.425781 448.207031 146.667969 C 445.300781 147.089844 442.402344 147.597656 439.488281 147.953125 C 435.726562 148.425781 432.054688 149.277344 428.46875 150.511719 C 427.46875 150.84375 426.542969 151.320312 425.6875 151.9375 C 424.25 152.976562 423.050781 154.328125 421.398438 155.09375 C 421.101562 155.234375 421.003906 155.796875 420.589844 156.597656 Z M 432.894531 208.839844 C 433.324219 208.554688 433.765625 208.285156 434.183594 207.984375 C 436.304688 206.433594 438.25 204.6875 440.019531 202.738281 C 443.140625 199.351562 445.480469 195.597656 446.054688 190.914062 C 446.1875 189.660156 446.402344 188.417969 446.703125 187.191406 C 447.359375 184.710938 446.691406 182.667969 444.660156 180.546875 C 445.289062 183.363281 444.828125 185.703125 444.429688 188.089844 C 443.902344 191.234375 442.753906 194.144531 441.578125 197.054688 C 440.675781 199.316406 439.429688 201.371094 437.851562 203.222656 C 436.234375 205.121094 434.671875 207.054688 432.894531 208.84375 Z M 356.144531 163.355469 C 357.515625 163.316406 358.667969 163.316406 359.8125 163.234375 C 362.546875 163.042969 365.328125 162.902344 367.996094 163.378906 C 370.96875 163.925781 373.988281 164.519531 376.777344 165.824219 C 378.296875 166.539062 379.828125 167.238281 381.351562 167.945312 C 381.445312 167.992188 381.515625 168.105469 381.609375 168.125 C 382.140625 168.246094 382.519531 168.890625 383.175781 168.585938 C 382.859375 168.179688 382.605469 167.695312 382.214844 167.378906 C 379.414062 165.117188 376.273438 163.414062 372.976562 162.007812 C 372.003906 161.597656 371 161.308594 369.957031 161.144531 C 365.492188 160.429688 361.164062 161.089844 356.933594 162.574219 C 356.6875 162.667969 356.519531 162.972656 356.144531 163.355469 Z M 435.308594 111.230469 C 434.882812 111.140625 434.597656 111.453125 434.285156 111.699219 C 431.871094 113.597656 430.175781 116.136719 428.347656 118.53125 C 426.226562 121.3125 425.074219 124.609375 424.101562 127.917969 C 423.660156 129.40625 423.023438 130.886719 423.03125 132.496094 C 423.03125 132.792969 423.117188 132.914062 423.378906 132.828125 C 423.476562 132.808594 423.558594 132.761719 423.625 132.6875 C 423.925781 132.140625 424.234375 131.589844 424.5 131.023438 C 427.699219 124.207031 431.632812 117.78125 435.308594 111.230469 Z M 442.8125 168.980469 C 441.339844 168.707031 440.261719 169.539062 439.136719 169.984375 C 434.730469 171.730469 430.214844 173.011719 425.496094 173.433594 C 422.261719 173.722656 419.015625 173.804688 415.769531 174 C 415.488281 174.019531 415.042969 174.136719 414.972656 174.316406 C 414.789062 174.820312 415.324219 174.71875 415.542969 174.734375 C 418.574219 174.929688 421.605469 175.136719 424.640625 175.253906 C 425.695312 175.277344 426.738281 175.191406 427.769531 174.992188 C 431.203125 174.429688 434.507812 173.449219 437.6875 172.050781 C 439.453125 171.253906 441.261719 170.363281 442.8125 168.980469 Z M 365.011719 181.007812 C 364.316406 180.203125 364.042969 179.722656 363.632812 179.4375 C 361.453125 177.929688 359.867188 175.808594 358.074219 173.933594 C 355.460938 171.199219 352.589844 168.808594 349.664062 166.445312 C 349.402344 166.222656 349.117188 166.195312 348.816406 166.359375 C 348.664062 166.425781 348.5625 166.539062 348.515625 166.699219 C 348.464844 166.855469 348.484375 167.007812 348.570312 167.148438 C 348.917969 167.773438 349.128906 168.460938 349.699219 168.992188 C 352.371094 171.484375 355.070312 173.933594 358.03125 176.074219 C 359.550781 177.171875 361.121094 178.199219 362.375 179.617188 C 362.949219 180.269531 363.683594 180.644531 365.007812 181.007812 Z M 398.417969 234.183594 C 398.484375 234.066406 398.535156 233.941406 398.566406 233.808594 C 398.566406 233.753906 398.464844 233.65625 398.398438 233.640625 C 394.847656 233.179688 391.296875 232.71875 387.746094 232.285156 C 387.324219 232.257812 386.90625 232.292969 386.492188 232.386719 C 385.132812 232.648438 383.773438 232.667969 382.40625 232.441406 C 382.203125 232.40625 381.984375 232.441406 381.777344 232.417969 C 381.480469 232.378906 381.378906 232.492188 381.496094 232.789062 C 381.535156 232.882812 381.597656 232.957031 381.6875 233.007812 C 384.941406 234.4375 388.414062 234.769531 391.886719 234.8125 C 394.082031 234.847656 396.277344 234.40625 398.417969 234.183594 Z M 411.296875 206.34375 C 412.976562 205.671875 413.730469 204.371094 414.5 203.175781 C 416.269531 200.4375 418.253906 197.875 420.300781 195.34375 C 421.015625 194.457031 421.917969 193.683594 422.964844 192.089844 C 417.152344 195.835938 413.191406 200.109375 411.296875 206.34375 Z M 395.570312 203.515625 C 396.269531 203.96875 397.398438 204.703125 398.535156 205.421875 C 398.828125 205.609375 399.207031 205.40625 399.160156 205.085938 C 399.050781 204.269531 398.90625 203.457031 398.777344 202.640625 C 398.558594 201.242188 397.59375 200.507812 396.402344 199.972656 C 395.5625 199.59375 394.6875 200.140625 394.609375 201.078125 C 394.542969 201.847656 394.71875 202.527344 395.570312 203.515625 Z M 393.539062 210.050781 C 393.695312 210.183594 393.867188 210.296875 394.050781 210.386719 C 395.746094 210.976562 397.035156 209.992188 398.351562 209.214844 C 398.476562 209.140625 398.453125 208.605469 398.332031 208.375 C 397.917969 207.59375 397.089844 207.304688 396.367188 206.917969 C 395.527344 206.46875 394.753906 206.734375 394.0625 207.292969 C 393.367188 207.847656 393.097656 208.621094 393.273438 209.507812 C 393.339844 209.703125 393.429688 209.882812 393.539062 210.054688 Z M 417.78125 233.777344 C 416.414062 234.816406 416.28125 235.007812 416.050781 236.246094 C 415.894531 237.074219 416.5 237.703125 417.324219 237.566406 C 418.953125 237.296875 420.332031 235.878906 420.601562 234.203125 C 420.695312 233.589844 420.097656 233.007812 419.457031 233.019531 C 418.773438 233.035156 418.269531 233.386719 417.78125 233.777344 Z M 438.601562 132.257812 C 435.289062 133.082031 432.441406 133.738281 429.859375 135.171875 C 429.328125 135.46875 428.574219 135.320312 428.246094 136 C 428.894531 136.515625 429.570312 136.152344 430.207031 136.015625 C 431.234375 135.820312 432.242188 135.542969 433.226562 135.191406 C 434.960938 134.527344 436.796875 134.027344 438.601562 132.257812 Z M 407.226562 144.550781 C 407.554688 144.925781 407.746094 145.175781 407.96875 145.398438 C 408.101562 145.5625 408.265625 145.6875 408.460938 145.765625 C 408.855469 145.886719 409.257812 145.933594 409.671875 145.90625 C 410.152344 145.839844 410.675781 145.03125 410.6875 144.449219 C 410.71875 143.984375 410.539062 143.632812 410.140625 143.386719 C 409.429688 142.957031 408.734375 142.492188 407.875 142.355469 C 407.292969 142.265625 406.628906 142.980469 406.824219 143.566406 C 406.949219 143.957031 407.132812 144.328125 407.226562 144.550781 Z M 414.816406 233.175781 C 416.371094 232.609375 416.777344 231.347656 416.558594 229.765625 C 416.484375 229.246094 415.769531 228.929688 415.355469 229.210938 C 413.847656 230.261719 413.328125 231.765625 413.371094 233.523438 C 413.371094 233.773438 413.894531 234.042969 414.089844 233.886719 C 414.328125 233.6875 414.535156 233.453125 414.816406 233.175781 Z M 397.496094 152.519531 C 397.570312 152.75 397.664062 152.777344 397.789062 152.597656 C 397.839844 152.527344 397.917969 152.460938 397.9375 152.382812 C 398.730469 149.011719 399.402344 145.617188 399.65625 142.160156 C 399.671875 141.929688 399.914062 141.457031 399.339844 141.527344 C 399.207031 141.542969 399.03125 141.816406 399.003906 141.992188 C 398.523438 144.464844 398.042969 146.933594 397.621094 149.410156 C 397.460938 150.339844 397.453125 151.289062 397.386719 152.234375 C 397.375 152.324219 397.457031 152.421875 397.496094 152.519531 Z M 412.566406 138.257812 C 412.4375 138.425781 412.214844 138.566406 412.1875 138.742188 C 411.929688 140.328125 412.117188 141.859375 412.757812 143.335938 C 412.820312 143.480469 413.089844 143.550781 413.277344 143.621094 C 413.324219 143.640625 413.445312 143.539062 413.496094 143.46875 C 414.59375 141.808594 414.371094 140.117188 413.621094 138.410156 C 413.460938 138.03125 412.828125 137.957031 412.566406 138.257812 Z M 452.4375 96.152344 C 451.902344 96.632812 451.40625 96.886719 451.355469 97.484375 C 451.347656 97.582031 451.355469 97.746094 451.414062 97.773438 C 451.789062 97.964844 451.257812 98.109375 451.597656 97.871094 C 452.363281 97.335938 453.109375 96.757812 453.839844 96.1875 C 453.902344 96.136719 453.914062 96.027344 453.949219 95.945312 C 453.761719 95.875 453.546875 95.714844 453.390625 95.757812 C 453.0625 95.863281 452.746094 95.996094 452.4375 96.152344 Z M 456.003906 94.34375 C 457.121094 93.921875 457.984375 93.160156 459.105469 92.886719 C 459.171875 92.871094 459.183594 92.621094 459.222656 92.480469 C 459.121094 92.464844 459.019531 92.453125 458.914062 92.445312 C 457.523438 92.449219 456.769531 93.457031 456.003906 94.34375 Z M 456.003906 94.34375 " fill-opacity="1" fill-rule="nonzero"/></g><path fill="#423f32" d="M 437.886719 127.375 C 439.25 126.21875 440.675781 125.160156 442.320312 124.421875 C 442.796875 124.203125 443.230469 123.914062 443.617188 123.558594 C 446.96875 120.542969 449.367188 116.917969 450.386719 112.480469 C 450.878906 110.335938 451.222656 108.160156 451.667969 106 C 451.734375 105.816406 451.863281 105.703125 452.058594 105.667969 C 452.273438 105.691406 452.4375 105.796875 452.546875 105.980469 C 452.835938 106.804688 452.726562 107.65625 452.546875 108.472656 C 452.171875 110.214844 451.691406 111.933594 451.296875 113.667969 C 450.773438 115.851562 449.808594 117.816406 448.402344 119.566406 C 446.667969 121.769531 444.78125 123.96875 442.226562 125.316406 C 441.023438 125.949219 439.859375 126.648438 438.734375 127.410156 C 438.601562 127.5 438.457031 127.535156 438.296875 127.515625 C 438.140625 127.496094 438.003906 127.429688 437.894531 127.3125 Z M 437.886719 127.375 " fill-opacity="1" fill-rule="nonzero"/><path fill="#423f32" d="M 419.601562 162.5 C 419.523438 162.355469 419.503906 162.203125 419.535156 162.046875 C 419.566406 161.886719 419.644531 161.753906 419.769531 161.652344 C 421.808594 160.011719 423.707031 158.207031 426.152344 157.082031 C 427.664062 156.390625 429.085938 155.511719 430.640625 154.902344 C 430.707031 154.875 430.875 154.925781 430.886719 154.972656 C 430.914062 155.078125 430.898438 155.179688 430.847656 155.277344 C 430.46875 155.964844 429.777344 156.351562 429.128906 156.589844 C 425.824219 157.804688 423.011719 159.785156 420.3125 161.96875 C 420.058594 162.15625 419.792969 162.328125 419.519531 162.484375 Z M 419.601562 162.5 " fill-opacity="1" fill-rule="nonzero"/><path fill="#423f32" d="M 386.554688 148.9375 C 385.136719 146.996094 385.664062 144.9375 386.328125 142.953125 C 386.578125 142.191406 387.347656 141.640625 388.214844 141.445312 C 388.421875 141.425781 388.59375 141.492188 388.726562 141.648438 C 388.804688 141.832031 388.792969 142.007812 388.699219 142.183594 C 388.582031 142.355469 388.4375 142.496094 388.257812 142.601562 C 387.019531 143.488281 386.734375 144.773438 386.648438 146.1875 C 386.597656 147.097656 387.121094 148.050781 386.480469 148.925781 Z M 386.554688 148.9375 " fill-opacity="1" fill-rule="nonzero"/><path fill="#423f32" d="M 386.484375 148.925781 C 387.324219 150.933594 387.628906 152.445312 387.597656 154.476562 L 387.683594 154.476562 C 386.394531 152.90625 386.34375 151.019531 386.34375 149.125 C 386.34375 149.058594 386.484375 148.992188 386.558594 148.925781 Z M 386.484375 148.925781 " fill-opacity="1" fill-rule="nonzero"/><path fill="#423f32" d="M 395.5 225.476562 C 394.050781 224.796875 393.273438 223.210938 391.972656 222.15625 C 389.238281 219.953125 386.164062 218.445312 382.75 217.632812 C 381.628906 217.355469 380.515625 217.054688 379.414062 216.707031 C 379.148438 216.625 378.945312 216.328125 378.742188 216.109375 C 378.675781 216.023438 378.660156 215.925781 378.695312 215.824219 C 378.945312 215.488281 378.410156 215.601562 378.832031 215.621094 C 378.9375 215.609375 379.039062 215.609375 379.144531 215.621094 C 382.097656 216.359375 385.039062 217.078125 387.839844 218.351562 C 391.269531 219.910156 394.042969 222.203125 396.371094 225.121094 C 397.617188 226.675781 398.679688 228.382812 400.171875 229.734375 C 400.265625 229.898438 400.269531 230.0625 400.183594 230.226562 C 400.007812 230.347656 399.820312 230.410156 399.609375 230.414062 C 398.6875 230.492188 398.019531 229.910156 397.34375 229.441406 C 396.402344 228.789062 395.535156 228.027344 394.632812 227.320312 C 392.734375 225.835938 390.757812 224.472656 388.597656 223.394531 C 388.535156 223.359375 388.515625 223.226562 388.503906 223.125 C 388.476562 222.914062 388.621094 222.824219 388.902344 222.878906 C 389.851562 223.070312 390.625 223.609375 391.417969 224.113281 C 392.652344 224.898438 393.914062 225.644531 395.179688 226.375 C 395.386719 226.464844 395.582031 226.449219 395.773438 226.332031 C 396.042969 226.074219 395.84375 225.636719 395.5 225.476562 Z M 395.5 225.476562 " fill-opacity="1" fill-rule="nonzero"/><path fill="#423f32" d="M 371.171875 221.894531 C 371.628906 221.632812 371.921875 221.945312 372.265625 222.179688 C 374.769531 223.910156 377.476562 225.242188 380.304688 226.355469 C 382.492188 227.222656 384.789062 227.363281 387.074219 227.601562 C 388.117188 227.710938 389.167969 227.789062 389.972656 228.585938 C 390.035156 228.664062 390.085938 228.753906 390.121094 228.855469 C 390.25 229.144531 390.152344 229.265625 389.835938 229.222656 C 389.730469 229.222656 389.628906 229.214844 389.527344 229.1875 C 388.628906 228.800781 387.65625 228.855469 386.734375 228.890625 C 384.253906 229 381.945312 228.148438 379.742188 227.335938 C 377.226562 226.402344 374.953125 224.820312 372.59375 223.480469 C 371.949219 223.113281 371.527344 222.484375 371.1875 221.824219 Z M 371.171875 221.894531 " fill-opacity="1" fill-rule="nonzero"/><path fill="#423f32" d="M 371.1875 221.824219 C 371.085938 221.851562 370.949219 221.9375 370.886719 221.898438 C 368.273438 220.289062 366.171875 218.1875 364.757812 215.441406 C 364.691406 215.308594 364.789062 215.027344 364.902344 214.898438 C 364.96875 214.832031 365.238281 214.914062 365.390625 214.976562 C 365.453125 215 365.441406 215.175781 365.492188 215.261719 C 366.289062 216.757812 367.347656 218.042969 368.65625 219.117188 C 369.644531 219.914062 370.484375 220.84375 371.171875 221.90625 Z M 371.1875 221.824219 " fill-opacity="1" fill-rule="nonzero"/><path fill="#423f32" d="M 382.25 183.410156 C 382.75 183.308594 383.253906 183.152344 383.757812 183.113281 C 385.519531 182.992188 387.277344 182.910156 389.050781 182.808594 C 389.550781 182.78125 390.234375 182.976562 390.511719 182.511719 C 390.933594 181.808594 390.144531 181.445312 389.796875 180.988281 C 388.855469 179.746094 387.882812 178.523438 386.910156 177.300781 C 385.933594 176.082031 384.929688 174.902344 383.675781 173.933594 C 383.117188 173.503906 382.742188 172.832031 382.285156 172.269531 L 382.273438 172.328125 C 383.472656 172.101562 384.179688 172.910156 384.902344 173.625 C 385.332031 174.085938 385.730469 174.574219 386.097656 175.089844 C 388.234375 177.867188 390.859375 180.070312 393.96875 181.695312 C 394.707031 182.082031 395.402344 182.550781 396.109375 182.992188 C 396.179688 183.039062 396.203125 183.160156 396.230469 183.261719 C 396.316406 183.535156 396.203125 183.660156 395.914062 183.675781 C 393.820312 183.796875 391.71875 184.039062 389.636719 184.011719 C 387.554688 183.984375 385.445312 183.921875 383.355469 184.132812 C 382.902344 184.1875 382.523438 184.046875 382.226562 183.699219 Z M 382.25 183.410156 " fill-opacity="1" fill-rule="nonzero"/><path fill="#423f32" d="M 382.28125 172.269531 C 381.136719 172.453125 380.339844 171.644531 379.488281 171.164062 C 376.265625 169.355469 372.917969 167.996094 369.214844 167.625 C 368.808594 167.585938 368.417969 167.40625 368.03125 167.269531 C 367.976562 167.25 367.945312 167.101562 367.945312 167.019531 C 367.945312 166.9375 368.007812 166.785156 368.035156 166.785156 C 369.914062 166.867188 371.785156 167.023438 373.605469 167.550781 C 376.550781 168.40625 379.117188 170.015625 381.695312 171.59375 C 381.941406 171.746094 382.082031 172.078125 382.269531 172.328125 Z M 382.28125 172.269531 " fill-opacity="1" fill-rule="nonzero"/><path fill="#423f32" d="M 382.21875 183.710938 C 381.925781 183.804688 381.625 184.003906 381.34375 183.980469 C 378.316406 183.710938 375.417969 182.972656 372.722656 181.527344 C 372.589844 181.457031 372.554688 181.191406 372.480469 181.023438 C 372.648438 180.976562 372.847656 180.84375 372.960938 180.894531 C 375.910156 182.28125 379.09375 182.789062 382.246094 183.410156 Z M 382.21875 183.710938 " fill-opacity="1" fill-rule="nonzero"/><path fill="#423f32" d="M 364.632812 176.382812 C 363.425781 176.597656 362.839844 175.542969 362.042969 175.015625 C 361.132812 174.410156 360.425781 173.492188 359.640625 172.699219 C 359.34375 172.398438 359.671875 172.816406 359.71875 172.398438 C 359.71875 172.316406 360.03125 172.246094 360.207031 172.214844 C 360.316406 172.207031 360.410156 172.246094 360.488281 172.324219 C 361.523438 173.480469 362.652344 174.527344 363.886719 175.46875 C 364.199219 175.710938 364.378906 176.121094 364.617188 176.457031 Z M 364.632812 176.382812 " fill-opacity="1" fill-rule="nonzero"/><path fill="#423f32" d="M 364.613281 176.457031 C 364.707031 176.414062 364.820312 176.3125 364.890625 176.335938 C 366.359375 176.851562 367.597656 177.742188 368.78125 178.71875 C 368.890625 178.8125 368.859375 179.074219 368.890625 179.261719 C 368.785156 179.269531 368.683594 179.257812 368.582031 179.226562 C 367.164062 178.417969 365.578125 177.84375 364.625 176.378906 Z M 364.613281 176.457031 " fill-opacity="1" fill-rule="nonzero"/><path fill="#423f32" d="M 413.277344 215.765625 C 413.296875 215.660156 413.335938 215.5625 413.390625 215.472656 C 414.199219 214.558594 415.402344 214.3125 416.441406 213.90625 C 418.84375 212.96875 420.765625 211.355469 422.769531 209.847656 C 425.480469 207.8125 427.574219 205.230469 429.421875 202.398438 C 430.6875 200.460938 431.9375 198.542969 432.847656 196.398438 C 432.90625 196.261719 433.183594 196.171875 433.367188 196.152344 C 433.433594 196.152344 433.578125 196.425781 433.589844 196.582031 C 433.597656 196.792969 433.554688 196.996094 433.464844 197.191406 C 433.007812 198.132812 432.605469 199.117188 432.050781 200 C 430.984375 201.675781 429.910156 203.367188 428.675781 204.921875 C 427.644531 206.246094 426.527344 207.488281 425.320312 208.652344 C 423.796875 210.101562 422.074219 211.210938 420.429688 212.464844 C 418.816406 213.695312 416.9375 214.371094 415.253906 215.429688 C 414.75 215.742188 414.066406 215.753906 413.460938 215.886719 C 413.40625 215.898438 413.339844 215.808594 413.277344 215.765625 Z M 413.277344 215.765625 " fill-opacity="1" fill-rule="nonzero"/></svg>