<svg xmlns="http://www.w3.org/2000/svg" xmlns:xlink="http://www.w3.org/1999/xlink" width="1920" zoomAndPan="magnify" viewBox="0 0 1440 809.999993" height="1080" preserveAspectRatio="xMidYMid meet" version="1.0"><defs><clipPath id="5164406a47"><path d="M 46.886719 28.160156 L 281.636719 28.160156 L 281.636719 363.410156 L 46.886719 363.410156 Z M 46.886719 28.160156 " clip-rule="nonzero"/></clipPath><clipPath id="ea0600e006"><path d="M 95 107.859375 L 233.722656 107.859375 L 233.722656 308.859375 L 95 308.859375 Z M 95 107.859375 " clip-rule="nonzero"/></clipPath></defs><path stroke-linecap="butt" transform="matrix(-0.749883, -0.000000000000000092, 0.000000000000000092, -0.75, 1358.994082, 210.75329)" fill="none" stroke-linejoin="miter" d="M 0.0025262 1.499179 L 1301.210913 1.499179 " stroke="#423f32" stroke-width="3" stroke-opacity="1" stroke-miterlimit="4"/><g clip-path="url(#5164406a47)"><path fill="#423f32" d="M 281.570312 363.21875 L 46.886719 363.21875 L 46.886719 145.6875 C 46.886719 80.972656 99.527344 28.347656 164.261719 28.347656 C 228.996094 28.347656 281.636719 80.972656 281.636719 145.6875 L 281.636719 363.21875 Z M 49.546875 360.5625 L 278.910156 360.5625 L 278.910156 145.6875 C 278.910156 82.433594 227.46875 31.007812 164.261719 31.007812 C 100.988281 31.007812 49.546875 82.433594 49.546875 145.6875 Z M 49.546875 360.5625 " fill-opacity="1" fill-rule="nonzero"/></g><g clip-path="url(#ea0600e006)"><path fill="#423f32" d="M 165.113281 255.558594 C 166.652344 253.441406 167.101562 251.390625 167.609375 249.410156 C 168.125 247.5 168.785156 245.640625 169.597656 243.832031 C 169.796875 243.378906 170.109375 242.960938 170.234375 242.492188 C 171.316406 238.574219 173.746094 235.417969 176.207031 232.335938 C 177.871094 230.242188 179.769531 228.359375 182.132812 226.871094 C 186.199219 224.3125 190.578125 222.183594 194.113281 218.785156 C 195.578125 217.398438 197.265625 216.386719 199.179688 215.746094 C 200.5625 215.273438 201.84375 214.453125 203.175781 213.804688 C 205.300781 212.765625 207.605469 212.28125 209.890625 211.824219 C 211.347656 211.53125 212.488281 212.054688 213.347656 213.398438 C 214.730469 215.582031 215.449219 217.824219 214.898438 220.421875 C 214.5625 222 214.304688 223.589844 214.132812 225.191406 C 213.75 228.71875 212.386719 231.832031 210.515625 234.820312 C 208.644531 237.808594 206.539062 240.441406 203.816406 242.699219 C 201.921875 244.277344 200.304688 246.164062 198.335938 247.6875 C 195.6875 249.75 192.832031 251.464844 189.761719 252.828125 C 189.082031 253.132812 188.433594 253.496094 187.824219 253.925781 C 183.386719 257.003906 178.429688 258.847656 173.214844 260.09375 C 171.039062 260.609375 168.898438 261.21875 166.726562 261.71875 C 165.660156 261.960938 165.4375 262.175781 165.320312 263.535156 C 165.285156 263.777344 165.269531 264.027344 165.273438 264.273438 C 165.976562 272.039062 166.800781 279.78125 168.738281 287.359375 C 168.757812 287.480469 168.792969 287.601562 168.839844 287.714844 C 168.890625 287.800781 169.027344 287.933594 169.066406 287.910156 C 169.269531 287.847656 169.445312 287.734375 169.589844 287.574219 C 169.714844 287.378906 169.71875 287.101562 169.804688 286.867188 C 170.804688 284.203125 171.761719 281.527344 172.835938 278.890625 C 173.144531 278.125 173.230469 277.484375 172.808594 276.800781 C 172.382812 276.113281 172.425781 275.398438 172.527344 274.648438 C 172.75 273.007812 173.488281 271.566406 174.378906 270.230469 C 174.773438 269.636719 175.457031 269.207031 176.089844 268.832031 C 176.222656 268.75 176.363281 268.683594 176.507812 268.632812 C 176.65625 268.585938 176.808594 268.554688 176.960938 268.539062 C 177.117188 268.527344 177.273438 268.53125 177.425781 268.550781 C 177.578125 268.574219 177.730469 268.613281 177.875 268.671875 C 178.019531 268.730469 178.152344 268.804688 178.28125 268.894531 C 178.40625 268.984375 178.523438 269.085938 178.625 269.203125 C 178.726562 269.320312 178.816406 269.445312 178.886719 269.582031 C 178.960938 269.71875 179.015625 269.863281 179.054688 270.015625 C 179.226562 270.722656 179.222656 271.476562 179.300781 272.210938 C 179.363281 272.824219 179.742188 273.097656 180.308594 272.964844 C 181.636719 272.640625 182.875 272.914062 183.695312 273.949219 C 184.628906 275.113281 184.285156 276.539062 183.867188 277.84375 C 182.929688 280.761719 180.035156 282.324219 177.109375 281.480469 C 176.175781 281.210938 175.855469 280.382812 175.582031 279.523438 C 175.519531 279.277344 175.363281 279.136719 175.109375 279.097656 C 174.855469 279.0625 174.664062 279.152344 174.535156 279.371094 C 173.082031 281.570312 172.460938 284.113281 171.570312 286.542969 C 171.339844 287.253906 171.152344 287.976562 171.011719 288.710938 C 170.492188 291.007812 170.257812 293.304688 171.011719 295.605469 C 172.085938 298.886719 172.738281 302.300781 174.316406 305.421875 C 174.699219 306.203125 174.996094 307.015625 175.207031 307.855469 C 175.285156 308.148438 175.023438 308.527344 174.917969 308.863281 C 174.605469 308.703125 174.203125 308.609375 174 308.359375 C 173.1875 307.40625 172.589844 306.332031 172.199219 305.144531 C 171.429688 302.664062 170.507812 300.238281 169.773438 297.75 C 168.71875 294.207031 167.707031 290.632812 166.808594 287.039062 C 166.214844 284.644531 165.839844 282.199219 165.390625 279.769531 C 165.261719 279.085938 164.972656 278.703125 164.203125 278.625 C 163.097656 278.507812 162.003906 278.242188 160.902344 278.070312 C 158.679688 277.71875 156.457031 277.613281 154.234375 278.128906 C 148.875 279.371094 143.539062 278.75 138.421875 277.195312 C 133.164062 275.585938 128.324219 273.148438 123.902344 269.882812 C 121.90625 268.417969 119.652344 267.207031 118.429688 264.960938 C 116.703125 261.789062 114.152344 259.183594 112.347656 256.105469 C 109.835938 251.808594 109.460938 247.226562 111.835938 242.648438 C 112.386719 241.589844 113.105469 241.3125 114.316406 241.683594 C 115.027344 241.910156 115.722656 242.171875 116.402344 242.472656 C 120.839844 244.421875 125.417969 245.949219 130.140625 247.054688 C 133.976562 247.933594 137.894531 248.753906 141.402344 250.730469 C 142.585938 251.398438 143.785156 252.066406 144.835938 252.914062 C 148.113281 255.539062 151.113281 258.503906 154.65625 260.792969 C 156.695312 263.285156 159.527344 265.015625 161.308594 267.765625 C 161.964844 268.78125 162.628906 269.859375 163.9375 270.652344 C 163.921875 268.917969 163.972656 267.332031 163.878906 265.753906 C 163.683594 262.546875 163.4375 259.339844 163.1875 256.136719 C 163.140625 255.53125 163.117188 254.875 162.859375 254.347656 C 161.886719 252.351562 160.832031 250.394531 159.785156 248.4375 C 159.585938 248.132812 159.34375 247.871094 159.058594 247.648438 C 158.519531 247.171875 157.851562 247.136719 157.476562 247.726562 C 156.15625 249.851562 153.921875 249.746094 151.886719 250.023438 C 150.800781 250.171875 149.136719 248.917969 148.992188 248.023438 C 148.75 246.542969 148.695312 245.070312 149.96875 243.886719 C 150.644531 243.269531 151.496094 243.101562 152.277344 242.726562 C 152.8125 242.476562 152.964844 241.941406 152.523438 241.65625 C 151.398438 240.921875 150.933594 239.796875 150.527344 238.613281 C 150.414062 238.292969 150.351562 237.964844 150.339844 237.625 C 150.332031 237.285156 150.371094 236.953125 150.46875 236.628906 C 150.5625 236.304688 150.703125 236 150.890625 235.71875 C 151.082031 235.4375 151.308594 235.191406 151.574219 234.980469 C 152.59375 234.121094 154.261719 233.957031 155.371094 234.863281 C 157.785156 236.832031 159.226562 239.324219 158.882812 242.582031 C 157.972656 244.269531 158.738281 245.410156 160.132812 246.324219 C 161.359375 247.125 161.757812 248.460938 162.371094 249.671875 C 162.476562 249.867188 162.734375 250.148438 162.898438 250.132812 C 163.359375 250.09375 163.273438 249.644531 163.273438 249.34375 C 163.261719 247.242188 163.140625 245.136719 163.214844 243.042969 C 163.398438 237.722656 163.648438 232.40625 163.914062 227.085938 C 163.992188 225.585938 163.964844 224.183594 163.203125 222.78125 C 162.871094 222.085938 162.324219 221.65625 161.566406 221.5 C 160.464844 221.21875 159.355469 221.292969 158.234375 221.390625 C 150.296875 222.082031 142.382812 221.742188 134.46875 220.960938 C 129.105469 220.425781 124 218.890625 119.097656 216.761719 C 116.933594 215.800781 114.960938 214.546875 113.167969 213.003906 C 110.914062 211.089844 108.425781 209.445312 106.222656 207.476562 C 103.28125 204.851562 99.914062 202.695312 97.40625 199.585938 C 96.859375 198.910156 96.304688 198.242188 95.800781 197.535156 C 94.992188 196.40625 95.144531 195.660156 96.371094 195.230469 C 98 194.660156 99.53125 193.835938 101.253906 193.460938 C 102.550781 193.179688 103.773438 192.449219 104.953125 191.785156 C 109.191406 189.414062 113.785156 188.679688 118.5625 188.652344 C 124.222656 188.617188 129.179688 190.621094 133.894531 193.585938 C 138.847656 196.710938 143.195312 200.546875 147.515625 204.433594 C 147.703125 204.59375 147.875 204.773438 148.027344 204.972656 C 150.453125 208.28125 153.722656 210.828125 156.253906 214.042969 C 157.035156 215.027344 158 215.789062 159 216.515625 C 159.261719 216.710938 159.582031 217.105469 159.855469 216.671875 C 160.023438 216.332031 160.042969 215.984375 159.914062 215.625 C 159.144531 213.667969 158.304688 211.742188 157.519531 209.796875 C 155.855469 205.683594 153.808594 201.703125 152.929688 197.308594 C 152.679688 196.082031 151.871094 195.441406 150.851562 194.867188 C 148.800781 193.71875 146.769531 192.527344 144.777344 191.273438 C 142.128906 189.609375 139.6875 187.730469 138.507812 184.664062 C 136.253906 181.90625 135.164062 178.640625 134.28125 175.273438 C 133.960938 174.082031 133.570312 172.910156 133.113281 171.765625 C 131.871094 168.613281 131.367188 165.351562 131.070312 162.003906 C 130.898438 160.390625 131.042969 158.808594 131.503906 157.253906 C 132.824219 153.003906 134.074219 148.730469 135.546875 144.53125 C 137.417969 139.210938 140.621094 134.683594 144.34375 130.5 C 144.859375 129.925781 145.5 129.578125 146.261719 129.457031 C 147.074219 129.296875 147.742188 129.511719 148.25 130.140625 C 148.648438 130.617188 149.070312 131.109375 149.289062 131.671875 C 150.699219 135.246094 152.859375 138.4375 154.535156 141.875 C 155.617188 144.097656 156.660156 146.367188 157.53125 148.644531 C 158.535156 151.265625 158.78125 154.175781 159.308594 156.96875 C 159.539062 158.183594 159.625 159.417969 159.796875 160.640625 C 160.105469 162.863281 160.117188 165.082031 159.824219 167.304688 C 159.101562 172.953125 158.441406 178.597656 156.695312 184.066406 C 155.949219 186.410156 155.707031 188.914062 155.074219 191.300781 C 154.011719 195.332031 154.613281 199.242188 156.261719 202.878906 C 158.515625 207.832031 160.363281 212.9375 162.492188 217.933594 C 162.871094 218.816406 163.144531 219.808594 164.339844 220.296875 C 164.71875 218.328125 165.230469 216.398438 165.441406 214.449219 C 165.964844 209.621094 167.324219 204.996094 168.628906 200.347656 C 169.53125 197.132812 170.800781 194.023438 171.351562 190.710938 C 171.425781 190.34375 171.550781 189.992188 171.722656 189.660156 C 173.105469 186.773438 173.203125 183.707031 172.941406 180.601562 C 172.746094 178.152344 172.453125 175.714844 172.203125 173.273438 C 171.949219 173.296875 171.785156 173.273438 171.703125 173.328125 C 170.519531 174.285156 169.269531 174.285156 167.894531 173.746094 C 166.632812 173.253906 165.917969 172.289062 165.367188 171.160156 C 165.179688 170.699219 165.042969 170.226562 164.960938 169.734375 C 164.609375 168.175781 165.800781 166.78125 167.417969 166.792969 C 168.441406 166.792969 169.347656 167.1875 170.273438 167.554688 C 170.96875 167.835938 171.261719 167.554688 171.210938 166.667969 C 171.132812 165.289062 171.242188 163.945312 171.765625 162.65625 C 172.0625 161.925781 172.558594 161.425781 173.410156 161.339844 C 174.261719 161.253906 174.855469 161.605469 175.347656 162.210938 C 175.597656 162.492188 175.785156 162.8125 175.914062 163.164062 C 176.613281 165.59375 176.742188 168.027344 175.757812 170.421875 C 175.625 170.75 175.378906 171.210938 175.109375 171.269531 C 173.570312 171.601562 173.828125 172.722656 173.769531 173.832031 C 173.691406 175.34375 173.933594 176.800781 174.210938 178.253906 C 174.429688 179.390625 173.597656 180.671875 174.703125 181.667969 C 175.34375 180.65625 176.085938 179.699219 176.609375 178.617188 C 178.730469 174.285156 180.777344 169.9375 182.878906 165.601562 C 183.230469 164.933594 183.40625 164.222656 183.40625 163.472656 C 183.253906 157.5625 184.789062 152 186.839844 146.507812 C 188.96875 140.8125 192.667969 136.265625 196.691406 131.859375 C 199.300781 129.003906 202.296875 126.632812 205.683594 124.753906 C 207.429688 123.761719 208.933594 122.488281 210.199219 120.933594 C 210.769531 120.28125 211.390625 119.683594 212.066406 119.144531 C 214.089844 117.441406 216.136719 115.84375 217.910156 113.921875 C 218.523438 113.304688 219.203125 112.765625 219.945312 112.304688 C 221.484375 111.269531 223.105469 110.351562 224.605469 109.257812 C 225.734375 108.429688 227.003906 107.996094 228.40625 107.957031 C 230.777344 107.855469 231.242188 108.257812 232.160156 110.582031 C 233.253906 113.289062 233.339844 116.128906 233.453125 118.960938 C 233.703125 125.453125 232.019531 131.453125 228.390625 136.816406 C 226.535156 139.5625 224.257812 142.011719 222.042969 144.503906 C 217.871094 149.214844 212.535156 152.429688 207.660156 156.21875 C 204.042969 159.027344 199.800781 160.890625 195.28125 161.984375 C 193.109375 162.507812 190.957031 163.09375 188.796875 163.644531 C 187.949219 163.859375 187.160156 164.199219 186.425781 164.667969 C 185.257812 165.410156 184.367188 166.398438 183.75 167.636719 C 181.492188 171.894531 179.601562 176.328125 177.429688 180.636719 C 175.394531 184.699219 173.367188 188.851562 172.5 193.40625 C 172.3125 194.25 172.082031 195.082031 171.808594 195.902344 C 171.671875 196.351562 171.347656 197.101562 171.691406 197.207031 C 172.445312 197.429688 172.601562 196.582031 172.890625 196.074219 C 173.679688 194.675781 174.339844 193.222656 175.320312 191.921875 C 177.03125 189.65625 178.582031 187.277344 180.257812 184.984375 C 180.921875 184.09375 181.664062 183.269531 182.476562 182.511719 C 183.285156 181.746094 184.253906 181.148438 185.070312 180.394531 C 188.289062 177.457031 192.183594 175.984375 196.351562 175.03125 C 203.730469 173.316406 211.195312 172.15625 218.746094 171.550781 C 219.863281 171.496094 220.972656 171.566406 222.074219 171.769531 C 223.941406 172.058594 225.851562 174.207031 225.660156 176.328125 C 225.355469 179.675781 224.957031 182.894531 222.832031 185.765625 C 220.996094 188.253906 219.457031 190.925781 216.933594 192.859375 C 215.871094 193.671875 214.976562 194.757812 214.179688 195.847656 C 211.777344 199.117188 208.363281 201.203125 205.234375 203.621094 C 204.722656 203.976562 204.175781 204.257812 203.585938 204.464844 C 199.101562 206.289062 194.515625 207.796875 189.671875 208.324219 C 188.316406 208.488281 186.957031 208.542969 185.589844 208.484375 C 181.625 208.269531 177.667969 207.933594 173.703125 207.695312 C 172.59375 207.628906 171.480469 207.785156 170.367188 207.78125 C 169.160156 207.78125 168.640625 208.398438 168.34375 209.515625 C 167.929688 211.070312 167.457031 212.597656 167.277344 214.210938 C 166.722656 219.136719 165.902344 224.035156 165.546875 228.972656 C 165.019531 236.242188 164.707031 243.535156 165.074219 250.835938 C 165.148438 252.253906 165.101562 253.679688 165.113281 255.546875 Z M 143.871094 182.574219 L 143.765625 182.574219 C 144.238281 183.5625 144.691406 184.566406 145.191406 185.542969 C 145.289062 185.742188 145.5625 185.855469 145.777344 185.960938 C 145.988281 186.066406 146.183594 185.9375 146.273438 185.628906 C 146.636719 184.324219 147.023438 183.023438 147.347656 181.710938 C 147.527344 180.996094 147.570312 180.246094 147.742188 179.523438 C 147.804688 179.246094 147.726562 178.667969 148.324219 178.917969 C 148.488281 178.988281 148.542969 179.320312 148.648438 179.535156 C 148.75 179.746094 148.804688 180.046875 148.945312 180.089844 C 149.1875 180.121094 149.390625 180.042969 149.550781 179.859375 C 151.339844 176.847656 152.511719 173.648438 152.65625 170.097656 C 152.742188 167.882812 152.980469 165.667969 153.203125 163.460938 C 153.292969 162.851562 153.464844 162.269531 153.71875 161.710938 C 153.773438 161.578125 154.152344 161.492188 154.355469 161.53125 C 154.558594 161.570312 154.867188 161.785156 154.875 161.9375 C 154.890625 162.550781 154.863281 163.160156 154.792969 163.769531 C 154.421875 167.796875 153.847656 171.804688 153.726562 175.851562 C 153.621094 175.917969 153.472656 175.953125 153.417969 176.046875 C 151.34375 179.539062 149.449219 183.121094 148.011719 186.925781 C 147.761719 187.585938 148 188.109375 148.441406 188.59375 C 149.6875 189.960938 150.925781 191.328125 152.683594 192.253906 C 152.804688 191.925781 152.894531 191.589844 152.957031 191.246094 C 153.285156 187.316406 153.671875 183.390625 153.859375 179.453125 C 153.917969 178.273438 154.28125 177.007812 153.664062 175.839844 C 154.515625 175.296875 154.519531 174.371094 154.632812 173.535156 C 155.363281 168.144531 156.03125 162.746094 156.796875 157.363281 C 156.996094 155.941406 156.964844 154.527344 156.699219 153.117188 C 156.429688 151.707031 155.945312 150.375 155.238281 149.125 C 152.566406 144.261719 150.289062 139.21875 148.40625 133.996094 C 148.238281 133.535156 148.09375 133.0625 147.890625 132.617188 C 147.546875 131.851562 146.582031 131.652344 146.113281 132.269531 C 142.253906 137.429688 138.84375 142.828125 137.03125 149.097656 C 136.792969 149.929688 136.449219 150.726562 136.164062 151.546875 C 135.921875 152.242188 135.597656 152.925781 135.480469 153.648438 C 134.667969 158.769531 134.097656 163.890625 134.847656 169.117188 C 135.242188 171.847656 136.058594 174.402344 136.886719 176.976562 C 137.257812 178.125 137.964844 179.164062 138.539062 180.242188 C 138.582031 180.328125 138.761719 180.339844 138.875 180.382812 C 138.898438 180.261719 138.9375 180.144531 138.949219 180.019531 C 139.074219 178.726562 138.304688 177.65625 137.960938 176.5 C 137.183594 173.867188 136.578125 171.183594 136.992188 168.476562 C 137.914062 162.410156 140.417969 156.917969 143.695312 151.765625 C 143.898438 151.457031 144.160156 151.207031 144.472656 151.007812 C 144.632812 150.902344 145 150.886719 145.117188 150.996094 C 145.292969 151.191406 145.347656 151.417969 145.285156 151.667969 C 144.703125 152.894531 144.15625 154.140625 143.441406 155.285156 C 141.257812 158.789062 139.839844 162.605469 138.921875 166.585938 C 137.539062 172.585938 139.054688 178.050781 142.433594 183.082031 C 142.570312 183.296875 142.757812 183.449219 142.992188 183.539062 C 143.097656 183.570312 143.308594 183.3125 143.445312 183.160156 C 143.597656 182.972656 143.738281 182.777344 143.871094 182.574219 Z M 181.476562 191.992188 L 181.375 191.972656 C 181.464844 192.140625 181.496094 192.316406 181.464844 192.503906 C 181.433594 192.691406 181.347656 192.847656 181.210938 192.980469 C 180.421875 193.742188 179.585938 194.472656 178.160156 195.773438 C 180.027344 195.035156 181.121094 194.566406 182.25 194.160156 C 183.632812 193.65625 185.050781 193.199219 186.453125 192.734375 C 186.6875 192.667969 186.925781 192.628906 187.167969 192.625 C 187.214844 192.625 187.320312 192.742188 187.316406 192.796875 C 187.304688 192.910156 187.273438 193.09375 187.191406 193.128906 C 185.625 193.839844 184.011719 194.460938 182.480469 195.242188 C 179.070312 196.984375 176.171875 199.320312 173.828125 203.316406 C 176.972656 201.792969 179.726562 201.128906 182.386719 200.183594 C 184.863281 199.300781 187.410156 198.882812 190 198.609375 C 190.988281 198.503906 191.976562 198.511719 192.964844 198.367188 C 196.585938 197.828125 199.878906 196.488281 202.675781 194.097656 C 203.609375 193.3125 204.339844 192.277344 205.246094 191.433594 C 207.316406 189.453125 209.019531 187.199219 210.359375 184.671875 C 210.828125 183.804688 211.308594 182.9375 211.824219 182.09375 C 211.886719 181.996094 212.335938 181.976562 212.429688 182.078125 C 212.761719 182.441406 212.699219 181.851562 212.675781 182.34375 C 212.609375 183.636719 212.050781 184.75 211.292969 185.722656 C 209.316406 188.246094 207.425781 190.855469 205.21875 193.160156 C 203.566406 194.867188 201.671875 196.234375 199.53125 197.265625 C 196.273438 198.882812 192.828125 199.773438 189.195312 199.9375 C 184.769531 200.136719 180.789062 201.828125 176.730469 203.285156 C 176.507812 203.40625 176.347656 203.582031 176.25 203.8125 C 176.152344 203.996094 176.347656 204.074219 176.6875 204.058594 C 179.898438 203.898438 183.117188 203.777344 186.328125 203.589844 C 190.925781 203.3125 195.429688 202.539062 199.761719 200.929688 C 201.964844 200.113281 204.171875 199.300781 206.347656 198.40625 C 208.519531 197.515625 210.636719 196.503906 212.472656 194.992188 C 216.1875 191.9375 218.5 187.84375 220.722656 183.714844 C 221.292969 182.65625 221.496094 181.363281 221.691406 180.148438 C 221.78125 179.40625 221.707031 178.679688 221.46875 177.96875 C 221.160156 176.960938 220.421875 176.273438 219.320312 176.175781 C 218.082031 176.023438 216.867188 176.125 215.667969 176.472656 C 212.480469 177.457031 209.285156 178.457031 205.953125 178.90625 C 203.257812 179.269531 200.570312 179.695312 197.867188 179.984375 C 194.75 180.316406 191.722656 180.992188 189.027344 182.574219 C 187.007812 183.757812 185.230469 185.355469 183.296875 186.710938 C 178.480469 190.09375 175.476562 194.867188 172.859375 200.046875 C 173.652344 199.917969 173.96875 199.40625 174.34375 198.90625 C 176.339844 196.207031 178.492188 193.671875 181.476562 191.992188 Z M 203.035156 150.652344 C 202.285156 151.503906 201.378906 152.210938 200.320312 152.546875 C 198.042969 153.269531 196.320312 154.957031 194.171875 155.929688 C 192.695312 156.59375 191.417969 157.800781 189.753906 159.53125 C 191.015625 159.167969 191.625 159.074219 192.160156 158.824219 C 195.199219 157.417969 198.351562 156.335938 201.613281 155.570312 C 202.933594 155.253906 204.277344 154.980469 205.546875 154.515625 C 208.589844 153.40625 211.433594 151.953125 213.636719 149.472656 C 214.371094 148.644531 215.230469 147.925781 216.027344 147.15625 C 216.742188 146.472656 217.523438 145.847656 218.144531 145.089844 C 220.023438 142.808594 221.925781 140.535156 223.648438 138.140625 C 224.824219 136.546875 225.804688 134.835938 226.582031 133.015625 C 227.628906 130.507812 228.472656 127.933594 229.113281 125.289062 C 229.949219 121.765625 230.128906 118.210938 229.660156 114.621094 C 229.316406 111.976562 228.488281 111.613281 226.230469 112.835938 C 225.367188 113.300781 224.363281 113.699219 223.757812 114.410156 C 222.050781 116.421875 219.410156 117.25 217.753906 119.292969 C 217.332031 119.765625 216.824219 120.113281 216.234375 120.339844 C 214.71875 120.957031 213.429688 121.914062 212.125 122.847656 C 211.625 123.210938 211.089844 123.519531 210.527344 123.773438 C 207.980469 124.902344 205.914062 126.628906 204.207031 128.792969 C 202.679688 130.734375 201.042969 132.609375 199.738281 134.691406 C 198.253906 137.097656 196.941406 139.59375 195.796875 142.175781 C 197.203125 140.945312 198.085938 140.40625 198.640625 139.644531 C 200.34375 137.28125 202.726562 135.703125 204.992188 134.003906 C 205.152344 133.878906 205.457031 133.945312 205.699219 133.917969 C 205.628906 134.136719 205.632812 134.433594 205.488281 134.554688 C 203.414062 136.304688 201.378906 138.042969 199.53125 140.070312 C 197.027344 142.8125 194.617188 145.585938 192.613281 148.703125 C 192.304688 149.1875 191.707031 149.722656 192.019531 150.613281 C 193.246094 149.753906 194.351562 148.96875 195.476562 148.214844 C 195.5625 148.160156 195.808594 148.296875 195.949219 148.390625 C 195.980469 148.410156 195.949219 148.652344 195.863281 148.726562 C 194.464844 150.117188 192.992188 151.4375 191.667969 152.890625 C 189.753906 155 188.148438 157.320312 186.851562 159.855469 C 186.757812 160.085938 186.699219 160.324219 186.679688 160.570312 C 186.667969 160.6875 186.707031 160.894531 186.765625 160.914062 C 186.964844 160.972656 187.25 161.058594 187.378906 160.964844 C 188.804688 159.949219 189.511719 158.296875 190.902344 157.183594 C 194.40625 154.367188 198.394531 152.445312 202.378906 150.484375 C 202.523438 150.417969 202.804688 150.625 203.019531 150.703125 Z M 163.488281 275.710938 C 159.3125 269.308594 154.410156 264.109375 149.378906 259.019531 C 149.179688 258.871094 148.972656 258.734375 148.757812 258.613281 C 145.0625 255.917969 141.121094 253.628906 137.054688 251.539062 C 133.039062 249.472656 121 246.527344 117.167969 245.675781 C 116.558594 245.5625 115.941406 245.496094 115.324219 245.480469 C 114.949219 245.433594 114.582031 245.46875 114.222656 245.582031 C 113.792969 245.78125 113.253906 246.023438 113.066406 246.394531 C 112.453125 247.628906 112.078125 248.933594 112.671875 250.316406 C 113.011719 251.105469 113.359375 251.902344 113.625 252.726562 C 114.507812 255.46875 116.273438 257.746094 117.71875 260.160156 C 121.117188 265.832031 125.761719 270.152344 132.4375 271.757812 C 134.859375 272.339844 137.292969 272.753906 139.800781 272.609375 C 143.015625 272.445312 146.222656 272.574219 149.414062 273.003906 C 154.035156 273.578125 158.714844 273.765625 163.488281 275.710938 Z M 158.921875 219.308594 C 158.921875 218.582031 158.355469 218.3125 157.835938 217.972656 C 155.765625 216.628906 153.6875 215.261719 152.003906 213.457031 C 150.066406 211.371094 147.785156 209.65625 145.949219 207.453125 C 144.777344 206.046875 143.277344 204.890625 141.84375 203.730469 C 136.886719 199.695312 131.339844 196.816406 125.066406 195.382812 C 123.136719 194.941406 121.25 194.304688 119.246094 194.222656 C 114.664062 194.027344 110.089844 194.335938 105.515625 194.488281 C 104.621094 194.496094 103.816406 194.765625 103.101562 195.304688 C 101.988281 196.140625 101.652344 196.945312 103.160156 197.808594 C 103.941406 198.25 104.488281 198.886719 105.09375 199.503906 C 106.816406 201.277344 108.453125 203.160156 110.394531 204.65625 C 111.601562 205.589844 112.542969 206.664062 113.480469 207.796875 C 115.46875 210.199219 117.796875 212.277344 120.492188 213.777344 C 124.722656 216.140625 129.300781 217.691406 134.085938 218.589844 C 137.757812 219.273438 141.484375 219.375 145.191406 219.472656 C 149.761719 219.582031 154.335938 219.382812 158.921875 219.316406 Z M 181.613281 244.089844 C 180.566406 245.421875 179.894531 246.605469 178.929688 247.453125 C 175.027344 250.875 171.617188 254.820312 167.378906 257.890625 C 170.699219 256.492188 174.140625 255.6875 177.640625 255.050781 C 179.46875 254.71875 181.289062 254.332031 183.101562 253.921875 C 184.914062 253.511719 186.71875 252.882812 188.1875 251.769531 C 192.121094 248.773438 196.269531 246.003906 199.429688 242.101562 C 201.914062 239.03125 204.511719 236.078125 206.039062 232.328125 C 207.722656 228.191406 209.4375 224.097656 209.730469 219.574219 C 209.824219 218.21875 210.070312 216.867188 209.652344 215.515625 C 209.519531 215.085938 209.207031 214.914062 208.84375 215.007812 C 208.132812 215.191406 207.335938 215.324219 206.773438 215.738281 C 205.558594 216.632812 204.203125 217.230469 202.882812 217.894531 C 201.667969 218.5 200.347656 218.976562 199.269531 219.765625 C 197.550781 221.035156 195.621094 221.945312 193.6875 222.667969 C 191.117188 223.632812 189.238281 225.335938 187.421875 227.199219 C 182.492188 232.253906 178.625 238.148438 174.300781 243.6875 C 174.226562 243.785156 174.140625 243.882812 174.074219 243.980469 C 172.847656 245.980469 171.566406 247.953125 170.414062 249.996094 C 169.695312 251.265625 168.84375 252.527344 168.832031 254.109375 C 169.714844 253.929688 170.039062 253.25 170.503906 252.667969 C 173.726562 248.609375 176.035156 243.910156 179.507812 240.015625 C 182.054688 237.164062 184.082031 233.859375 187.230469 231.546875 C 187.519531 231.332031 187.710938 230.992188 187.953125 230.710938 C 190.613281 227.65625 194.042969 225.714844 197.65625 224.039062 C 197.890625 223.9375 198.132812 223.914062 198.386719 223.964844 C 198.601562 224.035156 198.78125 224.160156 198.925781 224.332031 C 198.96875 224.375 198.90625 224.613281 198.824219 224.667969 C 198.128906 225.167969 197.480469 225.785156 196.707031 226.109375 C 192.96875 227.683594 190.007812 230.347656 187.164062 233.070312 C 183.871094 236.222656 181.097656 239.886719 178.378906 243.542969 C 176.996094 245.394531 175.414062 247.191406 174.695312 249.691406 C 177.410156 248.351562 178.449219 245.246094 181.613281 244.09375 Z M 182.640625 185.050781 C 184.199219 183.953125 185.363281 183.234375 186.410156 182.371094 C 187.773438 181.246094 189.335938 180.511719 190.957031 179.890625 C 193.15625 179.039062 195.457031 178.585938 197.800781 178.285156 C 203.8125 177.523438 209.816406 176.734375 215.613281 174.828125 C 216.804688 174.472656 218.019531 174.292969 219.261719 174.289062 C 221.347656 174.230469 222.734375 175.441406 223.121094 177.480469 C 223.230469 178.089844 223.289062 178.699219 223.296875 179.316406 C 223.308594 179.621094 223.402344 179.742188 223.726562 179.617188 C 223.839844 179.546875 223.90625 179.449219 223.921875 179.316406 C 223.992188 178.332031 224.121094 177.347656 224.089844 176.378906 C 224.023438 174.515625 223 173.46875 221.113281 173.226562 C 219.136719 172.972656 217.160156 173.101562 215.1875 173.386719 C 211.757812 173.878906 208.34375 174.476562 204.910156 174.894531 C 200.480469 175.449219 196.152344 176.453125 191.929688 177.902344 C 190.75 178.292969 189.65625 178.851562 188.648438 179.578125 C 186.957031 180.796875 185.539062 182.386719 183.59375 183.289062 C 183.246094 183.453125 183.128906 184.113281 182.640625 185.054688 Z M 197.144531 246.464844 C 197.648438 246.128906 198.167969 245.808594 198.65625 245.457031 C 201.160156 243.632812 203.453125 241.582031 205.535156 239.292969 C 209.214844 235.308594 211.972656 230.894531 212.648438 225.394531 C 212.804688 223.917969 213.058594 222.457031 213.414062 221.015625 C 214.1875 218.101562 213.398438 215.699219 211.007812 213.207031 C 211.746094 216.519531 211.203125 219.269531 210.734375 222.070312 C 210.109375 225.769531 208.757812 229.1875 207.375 232.613281 C 206.308594 235.265625 204.84375 237.683594 202.980469 239.859375 C 201.078125 242.089844 199.234375 244.363281 197.144531 246.46875 Z M 106.703125 193 C 108.320312 192.949219 109.675781 192.953125 111.027344 192.859375 C 114.25 192.632812 117.527344 192.464844 120.667969 193.027344 C 124.171875 193.671875 127.730469 194.367188 131.015625 195.902344 C 132.808594 196.738281 134.609375 197.5625 136.40625 198.394531 C 136.515625 198.445312 136.601562 198.582031 136.710938 198.605469 C 137.335938 198.75 137.785156 199.507812 138.554688 199.144531 C 138.183594 198.667969 137.886719 198.097656 137.425781 197.726562 C 134.125 195.070312 130.425781 193.066406 126.539062 191.414062 C 125.394531 190.933594 124.207031 190.59375 122.980469 190.398438 C 117.722656 189.558594 112.617188 190.335938 107.636719 192.082031 C 107.34375 192.1875 107.144531 192.550781 106.703125 193 Z M 199.988281 131.726562 C 199.480469 131.625 199.148438 131.992188 198.777344 132.28125 C 195.933594 134.511719 193.9375 137.496094 191.785156 140.3125 C 189.285156 143.578125 187.925781 147.453125 186.78125 151.34375 C 186.261719 153.097656 185.511719 154.832031 185.519531 156.722656 C 185.519531 157.078125 185.621094 157.214844 185.929688 157.117188 C 186.042969 157.09375 186.140625 157.039062 186.21875 156.953125 C 186.574219 156.308594 186.9375 155.660156 187.25 154.996094 C 191.019531 146.980469 195.65625 139.429688 199.988281 131.726562 Z M 208.828125 199.609375 C 207.09375 199.289062 205.824219 200.265625 204.496094 200.789062 C 199.304688 202.84375 193.984375 204.347656 188.421875 204.84375 C 184.613281 205.183594 180.785156 205.28125 176.960938 205.511719 C 176.628906 205.53125 176.105469 205.671875 176.023438 205.882812 C 175.808594 206.472656 176.4375 206.355469 176.695312 206.375 C 180.265625 206.605469 183.839844 206.847656 187.414062 206.984375 C 188.65625 207.011719 189.886719 206.910156 191.105469 206.679688 C 195.144531 206.015625 199.039062 204.863281 202.789062 203.21875 C 204.871094 202.285156 207 201.238281 208.828125 199.609375 Z M 117.152344 213.75 C 116.335938 212.804688 116.011719 212.238281 115.527344 211.90625 C 112.960938 210.132812 111.09375 207.636719 108.980469 205.433594 C 105.898438 202.222656 102.515625 199.40625 99.070312 196.628906 C 98.929688 196.511719 98.769531 196.445312 98.585938 196.425781 C 98.402344 196.410156 98.230469 196.441406 98.070312 196.53125 C 97.890625 196.609375 97.773438 196.742188 97.714844 196.925781 C 97.65625 197.113281 97.675781 197.289062 97.78125 197.457031 C 98.191406 198.191406 98.441406 199.003906 99.109375 199.621094 C 102.257812 202.554688 105.441406 205.433594 108.925781 207.949219 C 110.71875 209.242188 112.570312 210.445312 114.046875 212.117188 C 114.722656 212.882812 115.585938 213.320312 117.148438 213.75 Z M 156.515625 276.253906 C 156.597656 276.117188 156.65625 275.96875 156.691406 275.8125 C 156.691406 275.75 156.574219 275.632812 156.492188 275.617188 C 152.308594 275.074219 148.128906 274.53125 143.941406 274.023438 C 143.441406 273.988281 142.949219 274.027344 142.464844 274.140625 C 140.863281 274.449219 139.257812 274.472656 137.652344 274.203125 C 137.410156 274.164062 137.152344 274.203125 136.910156 274.175781 C 136.558594 274.132812 136.4375 274.265625 136.578125 274.613281 C 136.621094 274.726562 136.695312 274.8125 136.804688 274.871094 C 140.636719 276.550781 144.730469 276.941406 148.820312 276.992188 C 151.40625 277.03125 153.992188 276.515625 156.515625 276.253906 Z M 171.695312 243.527344 C 173.671875 242.738281 174.558594 241.210938 175.46875 239.804688 C 177.550781 236.585938 179.886719 233.574219 182.300781 230.597656 C 183.144531 229.554688 184.210938 228.648438 185.441406 226.773438 C 178.589844 231.179688 173.925781 236.199219 171.695312 243.527344 Z M 153.160156 240.203125 C 153.988281 240.738281 155.316406 241.601562 156.65625 242.445312 C 157 242.664062 157.445312 242.425781 157.390625 242.050781 C 157.261719 241.089844 157.089844 240.136719 156.9375 239.175781 C 156.679688 237.535156 155.542969 236.667969 154.140625 236.039062 C 153.152344 235.59375 152.121094 236.234375 152.03125 237.339844 C 151.953125 238.242188 152.160156 239.042969 153.160156 240.203125 Z M 150.769531 247.886719 C 150.953125 248.042969 151.152344 248.175781 151.371094 248.28125 C 153.367188 248.976562 154.886719 247.816406 156.4375 246.902344 C 156.585938 246.816406 156.558594 246.1875 156.414062 245.917969 C 155.929688 245 154.953125 244.65625 154.101562 244.203125 C 153.113281 243.679688 152.203125 243.988281 151.382812 244.644531 C 150.566406 245.296875 150.246094 246.207031 150.457031 247.25 C 150.535156 247.476562 150.636719 247.691406 150.769531 247.894531 Z M 179.332031 275.777344 C 177.722656 277 177.566406 277.222656 177.292969 278.679688 C 177.109375 279.652344 177.824219 280.390625 178.796875 280.230469 C 180.710938 279.910156 182.339844 278.246094 182.652344 276.277344 C 182.769531 275.558594 182.0625 274.871094 181.304688 274.886719 C 180.5 274.902344 179.90625 275.316406 179.332031 275.777344 Z M 203.863281 156.445312 C 199.960938 157.414062 196.605469 158.183594 193.566406 159.871094 C 192.941406 160.21875 192.050781 160.046875 191.664062 160.84375 C 192.425781 161.449219 193.226562 161.023438 193.976562 160.863281 C 195.1875 160.632812 196.371094 160.308594 197.53125 159.894531 C 199.578125 159.117188 201.742188 158.523438 203.863281 156.445312 Z M 166.894531 170.894531 C 167.28125 171.339844 167.507812 171.628906 167.769531 171.890625 C 167.925781 172.085938 168.121094 172.230469 168.351562 172.324219 C 168.816406 172.464844 169.289062 172.523438 169.777344 172.492188 C 170.34375 172.410156 170.960938 171.460938 170.976562 170.777344 C 170.992188 170.523438 170.945312 170.289062 170.828125 170.0625 C 170.710938 169.839844 170.546875 169.660156 170.332031 169.527344 C 169.492188 169.023438 168.671875 168.472656 167.660156 168.316406 C 166.972656 168.207031 166.195312 169.050781 166.421875 169.738281 C 166.570312 170.195312 166.785156 170.636719 166.894531 170.894531 Z M 175.839844 275.066406 C 177.671875 274.402344 178.152344 272.921875 177.890625 271.058594 C 177.804688 270.453125 176.964844 270.074219 176.476562 270.410156 C 174.699219 271.640625 174.085938 273.410156 174.136719 275.480469 C 174.136719 275.773438 174.753906 276.089844 174.980469 275.902344 C 175.265625 275.671875 175.503906 275.394531 175.839844 275.066406 Z M 155.429688 180.261719 C 155.519531 180.535156 155.628906 180.5625 155.777344 180.355469 C 155.835938 180.269531 155.925781 180.195312 155.949219 180.101562 C 156.882812 176.140625 157.675781 172.148438 157.976562 168.085938 C 157.996094 167.816406 158.28125 167.257812 157.601562 167.339844 C 157.445312 167.359375 157.242188 167.679688 157.207031 167.890625 C 156.644531 170.792969 156.074219 173.695312 155.574219 176.609375 C 155.386719 177.699219 155.378906 178.816406 155.304688 179.925781 C 155.289062 180.03125 155.382812 180.148438 155.429688 180.261719 Z M 173.191406 163.5 C 173.035156 163.699219 172.773438 163.863281 172.742188 164.070312 C 172.4375 165.933594 172.660156 167.730469 173.410156 169.464844 C 173.488281 169.636719 173.804688 169.71875 174.027344 169.800781 C 174.082031 169.824219 174.222656 169.707031 174.285156 169.621094 C 175.578125 167.671875 175.316406 165.683594 174.429688 163.675781 C 174.242188 163.234375 173.5 163.144531 173.191406 163.5 Z M 220.171875 114.007812 C 219.539062 114.570312 218.953125 114.871094 218.894531 115.570312 C 218.882812 115.6875 218.894531 115.878906 218.960938 115.914062 C 219.402344 116.136719 218.78125 116.308594 219.179688 116.027344 C 220.082031 115.398438 220.957031 114.714844 221.824219 114.046875 C 221.894531 113.988281 221.910156 113.859375 221.953125 113.761719 C 221.730469 113.683594 221.476562 113.492188 221.289062 113.542969 C 220.90625 113.667969 220.53125 113.820312 220.171875 114.007812 Z M 224.371094 111.878906 C 225.6875 111.386719 226.703125 110.488281 228.023438 110.167969 C 228.101562 110.148438 228.121094 109.855469 228.164062 109.691406 C 228.042969 109.671875 227.921875 109.65625 227.804688 109.648438 C 226.164062 109.652344 225.277344 110.835938 224.371094 111.878906 Z M 224.371094 111.878906 " fill-opacity="1" fill-rule="nonzero"/></g><path fill="#423f32" d="M 203.023438 150.703125 C 204.632812 149.347656 206.308594 148.105469 208.25 147.234375 C 208.808594 146.976562 209.320312 146.636719 209.777344 146.222656 C 213.726562 142.675781 216.554688 138.414062 217.753906 133.199219 C 218.332031 130.679688 218.738281 128.117188 219.261719 125.582031 C 219.339844 125.367188 219.492188 125.234375 219.722656 125.191406 C 219.976562 125.21875 220.167969 125.339844 220.300781 125.558594 C 220.640625 126.523438 220.507812 127.53125 220.300781 128.488281 C 219.855469 130.535156 219.289062 132.554688 218.824219 134.59375 C 218.207031 137.160156 217.070312 139.46875 215.414062 141.527344 C 213.371094 144.121094 211.148438 146.703125 208.136719 148.285156 C 206.71875 149.03125 205.347656 149.851562 204.023438 150.75 C 203.867188 150.851562 203.695312 150.894531 203.507812 150.871094 C 203.320312 150.847656 203.164062 150.769531 203.035156 150.632812 Z M 203.023438 150.703125 " fill-opacity="1" fill-rule="nonzero"/><path fill="#423f32" d="M 181.476562 191.992188 C 181.386719 191.824219 181.363281 191.644531 181.398438 191.457031 C 181.4375 191.273438 181.527344 191.117188 181.675781 190.996094 C 184.082031 189.070312 186.316406 186.945312 189.199219 185.625 C 190.976562 184.8125 192.65625 183.78125 194.484375 183.0625 C 194.5625 183.03125 194.761719 183.089844 194.777344 183.144531 C 194.804688 183.269531 194.789062 183.390625 194.726562 183.503906 C 194.285156 184.3125 193.46875 184.765625 192.703125 185.046875 C 188.8125 186.472656 185.496094 188.800781 182.3125 191.367188 C 182.015625 191.585938 181.703125 191.789062 181.382812 191.976562 Z M 181.476562 191.992188 " fill-opacity="1" fill-rule="nonzero"/><path fill="#423f32" d="M 142.539062 176.050781 C 140.867188 173.769531 141.488281 171.351562 142.269531 169.015625 C 142.566406 168.125 143.472656 167.472656 144.496094 167.242188 C 144.738281 167.222656 144.9375 167.300781 145.097656 167.484375 C 145.1875 167.699219 145.175781 167.910156 145.066406 168.113281 C 144.929688 168.316406 144.753906 168.480469 144.542969 168.605469 C 143.085938 169.644531 142.75 171.15625 142.648438 172.816406 C 142.589844 173.890625 143.203125 175.007812 142.453125 176.035156 Z M 142.539062 176.050781 " fill-opacity="1" fill-rule="nonzero"/><path fill="#423f32" d="M 142.457031 176.035156 C 143.445312 178.398438 143.800781 180.171875 143.765625 182.5625 L 143.871094 182.5625 C 142.351562 180.714844 142.289062 178.5 142.289062 176.273438 C 142.289062 176.195312 142.453125 176.113281 142.542969 176.039062 Z M 142.457031 176.035156 " fill-opacity="1" fill-rule="nonzero"/><path fill="#423f32" d="M 153.082031 266.015625 C 151.371094 265.21875 150.453125 263.355469 148.921875 262.117188 C 145.703125 259.523438 142.078125 257.753906 138.054688 256.796875 C 136.734375 256.472656 135.421875 256.117188 134.125 255.710938 C 133.8125 255.613281 133.570312 255.265625 133.335938 255.011719 C 133.253906 254.90625 133.234375 254.792969 133.277344 254.671875 C 133.570312 254.277344 132.941406 254.410156 133.4375 254.433594 C 133.5625 254.421875 133.683594 254.421875 133.804688 254.433594 C 137.285156 255.300781 140.753906 256.148438 144.054688 257.640625 C 148.089844 259.472656 151.363281 262.171875 154.105469 265.601562 C 155.570312 267.429688 156.828125 269.433594 158.582031 271.023438 C 158.695312 271.214844 158.699219 271.40625 158.59375 271.601562 C 158.390625 271.742188 158.167969 271.816406 157.917969 271.820312 C 156.832031 271.914062 156.046875 271.230469 155.25 270.679688 C 154.144531 269.910156 153.121094 269.015625 152.058594 268.1875 C 149.820312 266.441406 147.488281 264.835938 144.945312 263.570312 C 144.871094 263.53125 144.847656 263.371094 144.832031 263.253906 C 144.804688 263.003906 144.972656 262.898438 145.304688 262.964844 C 146.425781 263.1875 147.332031 263.824219 148.269531 264.417969 C 149.722656 265.339844 151.207031 266.214844 152.699219 267.074219 C 152.941406 267.179688 153.175781 267.164062 153.402344 267.023438 C 153.714844 266.722656 153.484375 266.203125 153.082031 266.015625 Z M 153.082031 266.015625 " fill-opacity="1" fill-rule="nonzero"/><path fill="#423f32" d="M 124.410156 261.808594 C 124.949219 261.503906 125.296875 261.867188 125.699219 262.144531 C 128.648438 264.175781 131.839844 265.742188 135.171875 267.054688 C 137.753906 268.070312 140.457031 268.234375 143.152344 268.515625 C 144.378906 268.648438 145.617188 268.734375 146.5625 269.671875 C 146.640625 269.765625 146.699219 269.871094 146.738281 269.988281 C 146.890625 270.328125 146.777344 270.472656 146.402344 270.421875 C 146.28125 270.421875 146.160156 270.410156 146.039062 270.382812 C 144.980469 269.925781 143.835938 269.988281 142.75 270.03125 C 139.828125 270.160156 137.105469 269.160156 134.511719 268.203125 C 131.546875 267.105469 128.867188 265.246094 126.089844 263.671875 C 125.328125 263.238281 124.832031 262.503906 124.429688 261.726562 Z M 124.410156 261.808594 " fill-opacity="1" fill-rule="nonzero"/><path fill="#423f32" d="M 124.429688 261.722656 C 124.3125 261.757812 124.148438 261.855469 124.078125 261.8125 C 120.996094 259.921875 118.519531 257.449219 116.855469 254.222656 C 116.773438 254.070312 116.890625 253.734375 117.027344 253.585938 C 117.101562 253.503906 117.421875 253.601562 117.601562 253.675781 C 117.675781 253.707031 117.660156 253.910156 117.71875 254.011719 C 118.660156 255.769531 119.902344 257.28125 121.449219 258.542969 C 122.613281 259.480469 123.601562 260.570312 124.414062 261.820312 Z M 124.429688 261.722656 " fill-opacity="1" fill-rule="nonzero"/><path fill="#423f32" d="M 137.464844 216.574219 C 138.054688 216.453125 138.648438 216.269531 139.242188 216.222656 C 141.320312 216.078125 143.390625 215.984375 145.476562 215.867188 C 146.070312 215.832031 146.875 216.0625 147.203125 215.515625 C 147.699219 214.6875 146.765625 214.261719 146.359375 213.726562 C 145.25 212.265625 144.101562 210.828125 142.953125 209.394531 C 141.804688 207.960938 140.625 206.574219 139.148438 205.433594 C 138.488281 204.925781 138.046875 204.136719 137.503906 203.476562 L 137.492188 203.542969 C 138.90625 203.277344 139.738281 204.230469 140.589844 205.070312 C 141.097656 205.613281 141.566406 206.1875 142 206.792969 C 144.519531 210.058594 147.609375 212.648438 151.273438 214.558594 C 152.144531 215.011719 152.960938 215.5625 153.796875 216.082031 C 153.878906 216.132812 153.90625 216.28125 153.941406 216.398438 C 154.039062 216.722656 153.90625 216.863281 153.566406 216.882812 C 151.101562 217.027344 148.625 217.308594 146.171875 217.277344 C 143.71875 217.246094 141.230469 217.171875 138.769531 217.421875 C 138.234375 217.488281 137.789062 217.320312 137.4375 216.914062 Z M 137.464844 216.574219 " fill-opacity="1" fill-rule="nonzero"/><path fill="#423f32" d="M 137.5 203.476562 C 136.152344 203.695312 135.214844 202.742188 134.210938 202.179688 C 130.417969 200.050781 126.46875 198.453125 122.105469 198.015625 C 121.628906 197.96875 121.167969 197.757812 120.710938 197.597656 C 120.644531 197.578125 120.609375 197.402344 120.609375 197.304688 C 120.613281 197.207031 120.683594 197.027344 120.71875 197.03125 C 122.933594 197.128906 125.132812 197.308594 127.277344 197.929688 C 130.75 198.9375 133.773438 200.828125 136.8125 202.683594 C 137.105469 202.863281 137.265625 203.253906 137.488281 203.546875 Z M 137.5 203.476562 " fill-opacity="1" fill-rule="nonzero"/><path fill="#423f32" d="M 137.429688 216.925781 C 137.085938 217.039062 136.730469 217.269531 136.398438 217.242188 C 132.832031 216.925781 129.414062 216.058594 126.238281 214.355469 C 126.082031 214.273438 126.042969 213.964844 125.953125 213.765625 C 126.148438 213.710938 126.386719 213.554688 126.523438 213.617188 C 129.996094 215.242188 133.746094 215.84375 137.460938 216.570312 Z M 137.429688 216.925781 " fill-opacity="1" fill-rule="nonzero"/><path fill="#423f32" d="M 116.707031 208.3125 C 115.285156 208.566406 114.59375 207.328125 113.652344 206.707031 C 112.582031 205.992188 111.75 204.914062 110.824219 203.980469 C 110.476562 203.628906 110.863281 204.117188 110.914062 203.628906 C 110.914062 203.53125 111.285156 203.449219 111.492188 203.414062 C 111.621094 203.40625 111.734375 203.449219 111.824219 203.542969 C 113.039062 204.902344 114.375 206.132812 115.828125 207.234375 C 116.195312 207.523438 116.40625 208.007812 116.691406 208.398438 Z M 116.707031 208.3125 " fill-opacity="1" fill-rule="nonzero"/><path fill="#423f32" d="M 116.683594 208.398438 C 116.792969 208.347656 116.929688 208.226562 117.011719 208.253906 C 118.738281 208.863281 120.203125 209.910156 121.59375 211.058594 C 121.722656 211.167969 121.683594 211.476562 121.722656 211.695312 C 121.597656 211.707031 121.480469 211.691406 121.359375 211.65625 C 119.691406 210.703125 117.820312 210.03125 116.699219 208.308594 Z M 116.683594 208.398438 " fill-opacity="1" fill-rule="nonzero"/><path fill="#423f32" d="M 174.027344 254.601562 C 174.050781 254.480469 174.09375 254.363281 174.160156 254.257812 C 175.113281 253.1875 176.53125 252.894531 177.753906 252.417969 C 180.585938 251.316406 182.847656 249.417969 185.210938 247.648438 C 188.402344 245.253906 190.871094 242.222656 193.046875 238.890625 C 194.542969 236.617188 196.011719 234.359375 197.085938 231.839844 C 197.15625 231.675781 197.484375 231.570312 197.699219 231.550781 C 197.777344 231.550781 197.949219 231.871094 197.960938 232.054688 C 197.96875 232.304688 197.921875 232.542969 197.8125 232.769531 C 197.273438 233.878906 196.804688 235.035156 196.144531 236.074219 C 194.886719 238.042969 193.625 240.03125 192.167969 241.859375 C 190.957031 243.414062 189.640625 244.875 188.21875 246.246094 C 186.421875 247.945312 184.390625 249.25 182.453125 250.726562 C 180.550781 252.171875 178.339844 252.964844 176.351562 254.207031 C 175.761719 254.578125 174.953125 254.589844 174.242188 254.746094 C 174.179688 254.761719 174.097656 254.652344 174.027344 254.601562 Z M 174.027344 254.601562 " fill-opacity="1" fill-rule="nonzero"/></svg>