<svg xmlns="http://www.w3.org/2000/svg" xmlns:xlink="http://www.w3.org/1999/xlink" width="1920" zoomAndPan="magnify" viewBox="0 0 1440 809.999993" height="1080" preserveAspectRatio="xMidYMid meet" version="1.0"><defs><filter x="0%" y="0%" width="100%" height="100%" id="63c341ecf6"><feColorMatrix values="0 0 0 0 1 0 0 0 0 1 0 0 0 0 1 0 0 0 1 0" color-interpolation-filters="sRGB"/></filter><mask id="5b29be10cb"><g filter="url(#63c341ecf6)"><rect x="-144" width="1728" fill="#000000" y="-80.999999" height="971.999992" fill-opacity="0.6784"/></g></mask><clipPath id="65dc317de6"><path d="M 0 0 L 463.191406 0 L 463.191406 436 L 0 436 Z M 0 0 " clip-rule="nonzero"/></clipPath><clipPath id="19f831c4d3"><rect x="0" width="465" y="0" height="442"/></clipPath><clipPath id="77ae4192f7"><path d="M 849.59375 0.00390625 L 1440 0.00390625 L 1440 180.753906 L 849.59375 180.753906 Z M 849.59375 0.00390625 " clip-rule="nonzero"/></clipPath><mask id="70af09bab2"><g filter="url(#63c341ecf6)"><rect x="-144" width="1728" fill="#000000" y="-80.999999" height="971.999992" fill-opacity="0.8471"/></g></mask><clipPath id="3fca911f2e"><path d="M 1.476562 1.605469 L 700.277344 1.605469 L 700.277344 192 L 1.476562 192 Z M 1.476562 1.605469 " clip-rule="nonzero"/></clipPath><clipPath id="ea244360b3"><rect x="0" width="701" y="0" height="192"/></clipPath></defs><path fill="#ffffff" d="M 162.546875 320.390625 C 206.570312 420.507812 188.945312 523.148438 135.371094 578.421875 C 81.800781 633.695312 -69.96875 742.246094 -195.605469 544.789062 C -321.242188 347.332031 -44.617188 166.996094 79.628906 243.214844 C 156.472656 290.320312 162.546875 320.390625 162.546875 320.390625 Z M 162.546875 320.390625 " fill-opacity="1" fill-rule="nonzero"/><g mask="url(#5b29be10cb)"><g transform="matrix(1, 0, 0, 1, 0, 0.000000000000039746)"><g clip-path="url(#19f831c4d3)"><g clip-path="url(#65dc317de6)"><path fill="#fecd1a" d="M 1.109375 434.683594 C -4.722656 400.574219 -6.21875 365.714844 -3.226562 331.160156 C -3.824219 217.761719 -4.273438 104.363281 1.859375 -8.886719 C 153.511719 -2.601562 311.296875 -3.949219 463.097656 -6.042969 C 462.5 24.777344 453.824219 52.453125 435.429688 77.433594 C 429.148438 85.960938 421.96875 93.742188 413.292969 99.726562 C 388.019531 117.078125 350.03125 118.125 334.925781 144.90625 C 322.214844 167.195312 332.980469 195.46875 329.691406 220.902344 C 327 242.59375 313.835938 262.042969 296.339844 275.058594 C 278.839844 288.074219 257.453125 295.105469 235.769531 297.796875 C 216.324219 300.191406 195.238281 299.890625 179.535156 311.5625 C 161.738281 324.726562 156.652344 348.511719 147.828125 368.859375 C 124.644531 422.414062 59.289062 441.113281 1.109375 434.683594 Z M 1.109375 434.683594 " fill-opacity="1" fill-rule="nonzero"/></g></g></g></g><path fill="#fecd1a" d="M 1442.664062 573.875 C 1487.933594 676.863281 1469.808594 782.449219 1414.714844 839.308594 C 1359.621094 896.167969 1203.535156 1007.828125 1074.328125 804.707031 C 945.121094 601.589844 1229.609375 416.078125 1357.386719 494.484375 C 1436.414062 542.941406 1442.664062 573.875 1442.664062 573.875 Z M 1442.664062 573.875 " fill-opacity="1" fill-rule="nonzero"/><g clip-path="url(#77ae4192f7)"><path fill="#fabdbd" d="M 1449.59375 0.183594 L 849.59375 0.183594 C 849.59375 0.183594 935.261719 130.011719 988.414062 134.070312 C 1041.566406 138.128906 1060.328125 90.691406 1097.847656 110.351562 C 1135.367188 130.015625 1148.8125 178.074219 1191.332031 180.570312 C 1277.941406 185.253906 1262.308594 77.582031 1308.894531 71.964844 C 1355.480469 66.347656 1448.03125 85.695312 1449.59375 0.183594 Z M 1449.59375 0.183594 " fill-opacity="1" fill-rule="nonzero"/></g><g mask="url(#70af09bab2)"><g transform="matrix(1, 0, 0, 1, 630, 618)"><g clip-path="url(#ea244360b3)"><g clip-path="url(#3fca911f2e)"><path fill="#b1d4e0" d="M 700.277344 212.140625 L 1.277344 212.140625 C 1.277344 212.140625 101.082031 60.765625 163.003906 56.035156 C 224.925781 51.304688 246.78125 106.613281 290.492188 83.691406 C 334.203125 60.765625 349.867188 4.726562 399.402344 1.816406 C 500.300781 -3.644531 482.089844 121.898438 536.363281 128.449219 C 590.636719 134.996094 698.453125 112.4375 700.277344 212.140625 Z M 700.277344 212.140625 " fill-opacity="1" fill-rule="nonzero"/></g></g></g></g></svg>