<svg xmlns="http://www.w3.org/2000/svg" xmlns:xlink="http://www.w3.org/1999/xlink" width="1920" zoomAndPan="magnify" viewBox="0 0 1440 809.999993" height="1080" preserveAspectRatio="xMidYMid meet" version="1.0"><defs><filter x="0%" y="0%" width="100%" height="100%" id="3c40db15cc"><feColorMatrix values="0 0 0 0 1 0 0 0 0 1 0 0 0 0 1 0 0 0 1 0" color-interpolation-filters="sRGB"/></filter><clipPath id="9f3d841467"><path d="M 0 363 L 414.113281 363 L 414.113281 790.980469 L 0 790.980469 Z M 0 363 " clip-rule="nonzero"/></clipPath><mask id="034c6b6fa5"><g filter="url(#3c40db15cc)"><rect x="-144" width="1728" fill="#000000" y="-80.999999" height="971.999992" fill-opacity="0.4784"/></g></mask><clipPath id="777f798cdc"><path d="M 1 1 L 689.839844 1 L 689.839844 2.601562 L 1 2.601562 Z M 1 1 " clip-rule="nonzero"/></clipPath><clipPath id="c5ed09444c"><rect x="0" width="690" y="0" height="3"/></clipPath></defs><rect x="-144" width="1728" fill="#ffffff" y="-80.999999" height="971.999992" fill-opacity="1"/><rect x="-144" width="1728" fill="#333333" y="-80.999999" height="971.999992" fill-opacity="1"/><path fill="#ffffff" d="M -413.90625 386.363281 L 13.355469 -37.019531 L -410.03125 390.242188 Z M -413.90625 386.363281 " fill-opacity="1" fill-rule="nonzero"/><path fill="#ffffff" d="M -408.449219 391.820312 L 18.8125 -31.566406 L -404.570312 395.699219 Z M -408.449219 391.820312 " fill-opacity="1" fill-rule="nonzero"/><path fill="#ffffff" d="M -402.996094 397.277344 L 24.265625 -26.105469 L -399.117188 401.15625 Z M -402.996094 397.277344 " fill-opacity="1" fill-rule="nonzero"/><path fill="#ffffff" d="M -397.535156 402.730469 L 29.722656 -20.652344 L -393.660156 406.609375 Z M -397.535156 402.730469 " fill-opacity="1" fill-rule="nonzero"/><path fill="#ffffff" d="M -392.082031 408.191406 L 35.179688 -15.195312 L -388.203125 412.066406 Z M -392.082031 408.191406 " fill-opacity="1" fill-rule="nonzero"/><path fill="#ffffff" d="M -386.625 413.644531 L 40.636719 -9.738281 L -382.746094 417.519531 Z M -386.625 413.644531 " fill-opacity="1" fill-rule="nonzero"/><path fill="#ffffff" d="M -381.167969 419.101562 L 46.09375 -4.28125 L -377.292969 422.980469 Z M -381.167969 419.101562 " fill-opacity="1" fill-rule="nonzero"/><path fill="#ffffff" d="M -375.714844 424.558594 L 51.550781 1.175781 L -371.835938 428.433594 Z M -375.714844 424.558594 " fill-opacity="1" fill-rule="nonzero"/><path fill="#ffffff" d="M -370.253906 430.015625 L 57.003906 6.628906 L -366.378906 433.894531 Z M -370.253906 430.015625 " fill-opacity="1" fill-rule="nonzero"/><path fill="#ffffff" d="M -364.800781 435.46875 L 62.460938 12.085938 L -360.921875 439.347656 Z M -364.800781 435.46875 " fill-opacity="1" fill-rule="nonzero"/><path fill="#ffffff" d="M -359.34375 440.925781 L 67.917969 17.542969 L -355.464844 444.804688 Z M -359.34375 440.925781 " fill-opacity="1" fill-rule="nonzero"/><path fill="#ffffff" d="M -353.890625 446.382812 L 73.371094 23 L -350.011719 450.261719 Z M -353.890625 446.382812 " fill-opacity="1" fill-rule="nonzero"/><path fill="#ffffff" d="M -348.429688 451.835938 L 78.828125 28.453125 L -344.550781 455.714844 Z M -348.429688 451.835938 " fill-opacity="1" fill-rule="nonzero"/><path fill="#ffffff" d="M -342.976562 457.296875 L 84.285156 33.914062 L -339.097656 461.171875 Z M -342.976562 457.296875 " fill-opacity="1" fill-rule="nonzero"/><path fill="#ffffff" d="M -337.519531 462.75 L 89.742188 39.367188 L -333.640625 466.628906 Z M -337.519531 462.75 " fill-opacity="1" fill-rule="nonzero"/><path fill="#ffffff" d="M -332.0625 468.207031 L 95.199219 44.824219 L -328.183594 472.085938 Z M -332.0625 468.207031 " fill-opacity="1" fill-rule="nonzero"/><path fill="#ffffff" d="M -326.609375 473.664062 L 100.65625 50.28125 L -322.730469 477.539062 Z M -326.609375 473.664062 " fill-opacity="1" fill-rule="nonzero"/><path fill="#ffffff" d="M -321.148438 479.121094 L 106.113281 55.734375 L -317.273438 483 Z M -321.148438 479.121094 " fill-opacity="1" fill-rule="nonzero"/><path fill="#ffffff" d="M -315.695312 484.574219 L 111.566406 61.191406 L -311.816406 488.453125 Z M -315.695312 484.574219 " fill-opacity="1" fill-rule="nonzero"/><path fill="#ffffff" d="M -310.238281 490.03125 L 117.023438 66.648438 L -306.359375 493.910156 Z M -310.238281 490.03125 " fill-opacity="1" fill-rule="nonzero"/><path fill="#ffffff" d="M -304.78125 495.488281 L 122.480469 72.105469 L -300.902344 499.367188 Z M -304.78125 495.488281 " fill-opacity="1" fill-rule="nonzero"/><path fill="#ffffff" d="M -299.324219 500.941406 L 127.9375 77.5625 L -295.445312 504.820312 Z M -299.324219 500.941406 " fill-opacity="1" fill-rule="nonzero"/><path fill="#ffffff" d="M -293.871094 506.402344 L 133.390625 83.019531 L -289.992188 510.277344 Z M -293.871094 506.402344 " fill-opacity="1" fill-rule="nonzero"/><path fill="#ffffff" d="M -288.414062 511.855469 L 138.847656 88.472656 L -284.535156 515.734375 Z M -288.414062 511.855469 " fill-opacity="1" fill-rule="nonzero"/><path fill="#ffffff" d="M -282.957031 517.316406 L 144.304688 93.929688 L -279.078125 521.191406 Z M -282.957031 517.316406 " fill-opacity="1" fill-rule="nonzero"/><path fill="#ffffff" d="M 281.285156 230.910156 L -145.976562 654.292969 L 277.40625 227.03125 Z M 281.285156 230.910156 " fill-opacity="1" fill-rule="nonzero"/><path fill="#ffffff" d="M 275.832031 225.453125 L -151.433594 648.835938 L 271.949219 221.578125 Z M 275.832031 225.453125 " fill-opacity="1" fill-rule="nonzero"/><path fill="#ffffff" d="M 270.371094 219.996094 L -156.886719 643.382812 L 266.496094 216.117188 Z M 270.371094 219.996094 " fill-opacity="1" fill-rule="nonzero"/><path fill="#ffffff" d="M 264.917969 214.542969 L -162.347656 637.921875 L 261.039062 210.664062 Z M 264.917969 214.542969 " fill-opacity="1" fill-rule="nonzero"/><path fill="#ffffff" d="M 259.460938 209.085938 L -167.800781 632.46875 L 255.582031 205.207031 Z M 259.460938 209.085938 " fill-opacity="1" fill-rule="nonzero"/><path fill="#ffffff" d="M 254.003906 203.628906 L -173.257812 627.011719 L 250.125 199.75 Z M 254.003906 203.628906 " fill-opacity="1" fill-rule="nonzero"/><path fill="#ffffff" d="M 248.546875 198.175781 L -178.714844 621.558594 L 244.667969 194.296875 Z M 248.546875 198.175781 " fill-opacity="1" fill-rule="nonzero"/><path fill="#ffffff" d="M 243.09375 192.714844 L -184.167969 616.101562 L 239.214844 188.835938 Z M 243.09375 192.714844 " fill-opacity="1" fill-rule="nonzero"/><path fill="#ffffff" d="M 237.636719 187.261719 L -189.628906 610.644531 L 233.757812 183.382812 Z M 237.636719 187.261719 " fill-opacity="1" fill-rule="nonzero"/><path fill="#ffffff" d="M 232.179688 181.804688 L -195.082031 605.1875 L 228.300781 177.925781 Z M 232.179688 181.804688 " fill-opacity="1" fill-rule="nonzero"/><path fill="#ffffff" d="M 226.722656 176.347656 L -200.539062 599.730469 L 222.84375 172.46875 Z M 226.722656 176.347656 " fill-opacity="1" fill-rule="nonzero"/><path fill="#ffffff" d="M 221.265625 170.890625 L -205.996094 594.277344 L 217.386719 167.011719 Z M 221.265625 170.890625 " fill-opacity="1" fill-rule="nonzero"/><path fill="#ffffff" d="M 215.8125 165.433594 L -211.453125 588.816406 L 211.933594 161.558594 Z M 215.8125 165.433594 " fill-opacity="1" fill-rule="nonzero"/><path fill="#ffffff" d="M 210.351562 159.980469 L -216.90625 583.363281 L 206.476562 156.101562 Z M 210.351562 159.980469 " fill-opacity="1" fill-rule="nonzero"/><path fill="#ffffff" d="M 204.898438 154.523438 L -222.363281 577.90625 L 201.019531 150.644531 Z M 204.898438 154.523438 " fill-opacity="1" fill-rule="nonzero"/><path fill="#ffffff" d="M 199.441406 149.066406 L -227.820312 572.449219 L 195.5625 145.191406 Z M 199.441406 149.066406 " fill-opacity="1" fill-rule="nonzero"/><path fill="#ffffff" d="M 193.984375 143.609375 L -233.273438 566.996094 L 190.105469 139.730469 Z M 193.984375 143.609375 " fill-opacity="1" fill-rule="nonzero"/><path fill="#ffffff" d="M 188.53125 138.15625 L -238.734375 561.539062 L 184.652344 134.277344 Z M 188.53125 138.15625 " fill-opacity="1" fill-rule="nonzero"/><path fill="#ffffff" d="M 183.074219 132.699219 L -244.1875 556.082031 L 179.195312 128.816406 Z M 183.074219 132.699219 " fill-opacity="1" fill-rule="nonzero"/><path fill="#ffffff" d="M 177.617188 127.242188 L -249.644531 550.625 L 173.738281 123.363281 Z M 177.617188 127.242188 " fill-opacity="1" fill-rule="nonzero"/><path fill="#ffffff" d="M 172.160156 121.785156 L -255.101562 545.171875 L 168.28125 117.90625 Z M 172.160156 121.785156 " fill-opacity="1" fill-rule="nonzero"/><path fill="#ffffff" d="M 166.703125 116.328125 L -260.554688 539.710938 L 162.828125 112.453125 Z M 166.703125 116.328125 " fill-opacity="1" fill-rule="nonzero"/><path fill="#ffffff" d="M 161.246094 110.875 L -266.011719 534.257812 L 157.371094 106.996094 Z M 161.246094 110.875 " fill-opacity="1" fill-rule="nonzero"/><path fill="#ffffff" d="M 155.792969 105.414062 L -271.46875 528.800781 L 151.914062 101.539062 Z M 155.792969 105.414062 " fill-opacity="1" fill-rule="nonzero"/><path fill="#ffffff" d="M 150.335938 99.960938 L -276.925781 523.34375 L 146.457031 96.082031 Z M 150.335938 99.960938 " fill-opacity="1" fill-rule="nonzero"/><path fill="#ffffff" d="M -144.09375 656.171875 L 283.167969 232.789062 L -140.214844 660.050781 Z M -144.09375 656.171875 " fill-opacity="1" fill-rule="nonzero"/><path fill="#ffffff" d="M -138.640625 661.628906 L 288.621094 238.25 L -134.761719 665.507812 Z M -138.640625 661.628906 " fill-opacity="1" fill-rule="nonzero"/><path fill="#ffffff" d="M -133.183594 667.085938 L 294.078125 243.703125 L -129.304688 670.964844 Z M -133.183594 667.085938 " fill-opacity="1" fill-rule="nonzero"/><path fill="#ffffff" d="M -127.726562 672.542969 L 299.53125 249.160156 L -123.847656 676.421875 Z M -127.726562 672.542969 " fill-opacity="1" fill-rule="nonzero"/><path fill="#ffffff" d="M -122.273438 677.996094 L 304.992188 254.613281 L -118.394531 681.875 Z M -122.273438 677.996094 " fill-opacity="1" fill-rule="nonzero"/><path fill="#ffffff" d="M -116.816406 683.457031 L 310.445312 260.070312 L -112.9375 687.332031 Z M -116.816406 683.457031 " fill-opacity="1" fill-rule="nonzero"/><path fill="#ffffff" d="M -111.359375 688.910156 L 315.902344 265.527344 L -107.480469 692.789062 Z M -111.359375 688.910156 " fill-opacity="1" fill-rule="nonzero"/><path fill="#ffffff" d="M -105.902344 694.367188 L 321.359375 270.984375 L -102.023438 698.246094 Z M -105.902344 694.367188 " fill-opacity="1" fill-rule="nonzero"/><path fill="#ffffff" d="M -100.445312 699.824219 L 326.8125 276.441406 L -96.570312 703.703125 Z M -100.445312 699.824219 " fill-opacity="1" fill-rule="nonzero"/><path fill="#ffffff" d="M -94.988281 705.277344 L 332.273438 281.894531 L -91.109375 709.15625 Z M -94.988281 705.277344 " fill-opacity="1" fill-rule="nonzero"/><path fill="#ffffff" d="M -89.535156 710.738281 L 337.726562 287.355469 L -85.65625 714.613281 Z M -89.535156 710.738281 " fill-opacity="1" fill-rule="nonzero"/><path fill="#ffffff" d="M -84.078125 716.191406 L 343.1875 292.808594 L -80.199219 720.070312 Z M -84.078125 716.191406 " fill-opacity="1" fill-rule="nonzero"/><path fill="#ffffff" d="M -78.621094 721.648438 L 348.640625 298.265625 L -74.742188 725.527344 Z M -78.621094 721.648438 " fill-opacity="1" fill-rule="nonzero"/><path fill="#ffffff" d="M -73.167969 727.105469 L 354.097656 303.722656 L -69.289062 730.984375 Z M -73.167969 727.105469 " fill-opacity="1" fill-rule="nonzero"/><path fill="#ffffff" d="M -67.707031 732.5625 L 359.550781 309.175781 L -63.828125 736.441406 Z M -67.707031 732.5625 " fill-opacity="1" fill-rule="nonzero"/><path fill="#ffffff" d="M -62.253906 738.015625 L 365.007812 314.632812 L -58.375 741.894531 Z M -62.253906 738.015625 " fill-opacity="1" fill-rule="nonzero"/><path fill="#ffffff" d="M -56.796875 743.472656 L 370.464844 320.089844 L -52.917969 747.351562 Z M -56.796875 743.472656 " fill-opacity="1" fill-rule="nonzero"/><path fill="#ffffff" d="M -51.339844 748.929688 L 375.917969 325.546875 L -47.464844 752.808594 Z M -51.339844 748.929688 " fill-opacity="1" fill-rule="nonzero"/><path fill="#ffffff" d="M -45.882812 754.386719 L 381.378906 331 L -42.003906 758.261719 Z M -45.882812 754.386719 " fill-opacity="1" fill-rule="nonzero"/><path fill="#ffffff" d="M -40.425781 759.84375 L 386.832031 336.460938 L -36.550781 763.71875 Z M -40.425781 759.84375 " fill-opacity="1" fill-rule="nonzero"/><path fill="#ffffff" d="M -34.972656 765.296875 L 392.292969 341.914062 L -31.09375 769.175781 Z M -34.972656 765.296875 " fill-opacity="1" fill-rule="nonzero"/><path fill="#ffffff" d="M -29.515625 770.757812 L 397.746094 347.371094 L -25.636719 774.632812 Z M -29.515625 770.757812 " fill-opacity="1" fill-rule="nonzero"/><path fill="#ffffff" d="M -24.058594 776.210938 L 403.203125 352.828125 L -20.183594 780.089844 Z M -24.058594 776.210938 " fill-opacity="1" fill-rule="nonzero"/><path fill="#ffffff" d="M -18.601562 781.667969 L 408.660156 358.28125 L -14.722656 785.546875 Z M -18.601562 781.667969 " fill-opacity="1" fill-rule="nonzero"/><g clip-path="url(#9f3d841467)"><path fill="#ffffff" d="M -13.148438 787.121094 L 414.113281 363.742188 L -9.269531 791.003906 Z M -13.148438 787.121094 " fill-opacity="1" fill-rule="nonzero"/></g><g mask="url(#034c6b6fa5)"><g transform="matrix(1, 0, 0, 1, 670, 127)"><g clip-path="url(#c5ed09444c)"><g clip-path="url(#777f798cdc)"><path stroke-linecap="butt" transform="matrix(-0.750358, -0.000000000000000092, 0.000000000000000092, -0.75, 688.995018, 1.644232)" fill="none" stroke-linejoin="miter" d="M -0.00143384 -0.000398637 L 915.571605 -0.000398637 " stroke="#a6a6a6" stroke-width="1" stroke-opacity="1" stroke-miterlimit="4"/></g></g></g></g></svg>