<svg xmlns="http://www.w3.org/2000/svg" xmlns:xlink="http://www.w3.org/1999/xlink" width="1366" zoomAndPan="magnify" viewBox="0 0 1024.5 576" height="768" preserveAspectRatio="xMidYMid meet" version="1.0"><defs><filter x="0%" y="0%" width="100%" height="100%" id="269a35950a"><feColorMatrix values="0 0 0 0 1 0 0 0 0 1 0 0 0 0 1 0 0 0 1 0" color-interpolation-filters="sRGB"/></filter><clipPath id="3f3c031486"><path d="M 0 0.140625 L 285 0.140625 L 285 283 L 0 283 Z M 0 0.140625 " clip-rule="nonzero"/></clipPath><mask id="8ea493a9ed"><g filter="url(#269a35950a)"><rect x="-102.45" width="1229.4" fill="#000000" y="-57.6" height="691.2" fill-opacity="0.6784"/></g></mask><clipPath id="977955744a"><path d="M 0 0.140625 L 283.574219 0.140625 L 283.574219 279 L 0 279 Z M 0 0.140625 " clip-rule="nonzero"/></clipPath><clipPath id="89c9bc898c"><rect x="0" width="285" y="0" height="283"/></clipPath><clipPath id="5c46742f67"><path d="M 742 353 L 1024 353 L 1024 575.859375 L 742 575.859375 Z M 742 353 " clip-rule="nonzero"/></clipPath><clipPath id="689b9851ce"><path d="M 603.53125 0.140625 L 1024 0.140625 L 1024 121.710938 L 603.53125 121.710938 Z M 603.53125 0.140625 " clip-rule="nonzero"/></clipPath><clipPath id="041bba2bb5"><path d="M 468 449 L 936 449 L 936 575.859375 L 468 575.859375 Z M 468 449 " clip-rule="nonzero"/></clipPath><mask id="cbc6ad6312"><g filter="url(#269a35950a)"><rect x="-102.45" width="1229.4" fill="#000000" y="-57.6" height="691.2" fill-opacity="0.8471"/></g></mask><clipPath id="f8e1047b01"><path d="M 0.523438 0.636719 L 467.480469 0.636719 L 467.480469 126.859375 L 0.523438 126.859375 Z M 0.523438 0.636719 " clip-rule="nonzero"/></clipPath><clipPath id="790c00427b"><rect x="0" width="468" y="0" height="127"/></clipPath></defs><path fill="#ffffff" d="M 95.882812 206.597656 C 123.519531 269.382812 112.453125 333.75 78.820312 368.414062 C 45.1875 403.078125 -50.101562 471.152344 -128.980469 347.320312 C -207.855469 223.492188 -34.183594 110.402344 43.824219 158.199219 C 92.066406 187.738281 95.882812 206.597656 95.882812 206.597656 Z M 95.882812 206.597656 " fill-opacity="1" fill-rule="nonzero"/><g clip-path="url(#3f3c031486)"><g mask="url(#8ea493a9ed)"><g transform="matrix(1, 0, 0, 1, 0, 0.000000000000055289)"><g clip-path="url(#89c9bc898c)"><g clip-path="url(#977955744a)"><path fill="#fecd1a" d="M -5.78125 278.109375 C -9.433594 256.734375 -10.371094 234.890625 -8.496094 213.234375 C -8.871094 142.171875 -9.152344 71.109375 -5.3125 0.140625 C 89.652344 4.078125 188.457031 3.234375 283.515625 1.921875 C 283.140625 21.234375 277.707031 38.578125 266.1875 54.234375 C 262.253906 59.578125 257.761719 64.453125 252.328125 68.203125 C 236.5 79.078125 212.714844 79.734375 203.253906 96.515625 C 195.292969 110.484375 202.035156 128.203125 199.976562 144.140625 C 198.289062 157.734375 190.050781 169.921875 179.089844 178.078125 C 168.132812 186.234375 154.742188 190.640625 141.160156 192.328125 C 128.988281 193.828125 115.78125 193.640625 105.949219 200.953125 C 94.804688 209.203125 91.617188 224.109375 86.09375 236.859375 C 71.578125 270.421875 30.652344 282.140625 -5.78125 278.109375 Z M -5.78125 278.109375 " fill-opacity="1" fill-rule="nonzero"/></g></g></g></g></g><g clip-path="url(#5c46742f67)"><path fill="#fecd1a" d="M 1011.378906 419.054688 C 1041.707031 487.976562 1029.5625 558.632812 992.65625 596.683594 C 955.75 634.734375 851.1875 709.460938 764.632812 573.53125 C 678.078125 437.601562 868.65625 313.460938 954.253906 365.929688 C 1007.191406 398.355469 1011.378906 419.054688 1011.378906 419.054688 Z M 1011.378906 419.054688 " fill-opacity="1" fill-rule="nonzero"/></g><g clip-path="url(#689b9851ce)"><path fill="#fabdbd" d="M 1029.53125 -6.410156 L 603.53125 -6.410156 C 603.53125 -6.410156 664.355469 85.707031 702.09375 88.585938 C 739.832031 91.464844 753.152344 57.804688 779.789062 71.757812 C 806.429688 85.707031 815.976562 119.808594 846.164062 121.582031 C 907.65625 124.902344 896.558594 48.503906 929.632812 44.519531 C 962.710938 40.535156 1028.421875 54.261719 1029.53125 -6.410156 Z M 1029.53125 -6.410156 " fill-opacity="1" fill-rule="nonzero"/></g><g clip-path="url(#041bba2bb5)"><g mask="url(#cbc6ad6312)"><g transform="matrix(1, 0, 0, 1, 468, 449)"><g clip-path="url(#790c00427b)"><g clip-path="url(#f8e1047b01)"><path fill="#b1d4e0" d="M 467.773438 141.492188 L 0.523438 141.492188 C 0.523438 141.492188 67.238281 40.214844 108.628906 37.050781 C 150.023438 33.886719 164.632812 70.890625 193.851562 55.554688 C 223.066406 40.214844 233.539062 2.722656 266.652344 0.777344 C 334.097656 -2.875 321.921875 81.117188 358.203125 85.5 C 394.484375 89.882812 466.554688 74.785156 467.773438 141.492188 Z M 467.773438 141.492188 " fill-opacity="1" fill-rule="nonzero"/></g></g></g></g></g></svg>