<svg xmlns="http://www.w3.org/2000/svg" xmlns:xlink="http://www.w3.org/1999/xlink" width="940" zoomAndPan="magnify" viewBox="0 0 705 591.000005" height="788" preserveAspectRatio="xMidYMid meet" version="1.0"><defs><filter x="0%" y="0%" width="100%" height="100%" id="0d89425552"><feColorMatrix values="0 0 0 0 1 0 0 0 0 1 0 0 0 0 1 0 0 0 1 0" color-interpolation-filters="sRGB"/></filter><clipPath id="528ffc95bc"><path d="M 0.59375 0 L 704.402344 0 L 704.402344 590 L 0.59375 590 Z M 0.59375 0 " clip-rule="nonzero"/></clipPath><clipPath id="047f5b02ae"><path d="M 0.59375 129 L 100.996094 129 L 100.996094 371 L 0.59375 371 Z M 0.59375 129 " clip-rule="nonzero"/></clipPath><clipPath id="5d80652aa3"><path d="M 0.59375 0 L 254 0 L 254 251 L 0.59375 251 Z M 0.59375 0 " clip-rule="nonzero"/></clipPath><mask id="e00c11031c"><g filter="url(#0d89425552)"><rect x="-70.5" width="846" fill="#000000" y="-59.100001" height="709.200006" fill-opacity="0.6784"/></g></mask><clipPath id="1a758022ec"><path d="M 0.59375 0 L 252.664062 0 L 252.664062 248 L 0.59375 248 Z M 0.59375 0 " clip-rule="nonzero"/></clipPath><clipPath id="6605e52979"><rect x="0" width="254" y="0" height="251"/></clipPath><clipPath id="69923452ff"><path d="M 473 396 L 704.402344 396 L 704.402344 590 L 473 590 Z M 473 396 " clip-rule="nonzero"/></clipPath><clipPath id="e646050d1f"><path d="M 405.324219 0 L 704.402344 0 L 704.402344 127.285156 L 405.324219 127.285156 Z M 405.324219 0 " clip-rule="nonzero"/></clipPath><mask id="74f1db1b80"><g filter="url(#0d89425552)"><rect x="-70.5" width="846" fill="#000000" y="-59.100001" height="709.200006" fill-opacity="0.8471"/></g></mask><clipPath id="25d580aae3"><path d="M 0.953125 0.445312 L 426.058594 0.445312 L 426.058594 107 L 0.953125 107 Z M 0.953125 0.445312 " clip-rule="nonzero"/></clipPath><clipPath id="0d34d17f0e"><rect x="0" width="427" y="0" height="107"/></clipPath></defs><g clip-path="url(#528ffc95bc)"><path fill="#ffffff" d="M 0.59375 0 L 704.40625 0 L 704.40625 590 L 0.59375 590 Z M 0.59375 0 " fill-opacity="1" fill-rule="nonzero"/><path fill="#ebe6e4" d="M 0.59375 0 L 704.40625 0 L 704.40625 590 L 0.59375 590 Z M 0.59375 0 " fill-opacity="1" fill-rule="nonzero"/></g><g clip-path="url(#047f5b02ae)"><path fill="#ffffff" d="M 86.207031 182.6875 C 110.679688 238.203125 100.882812 295.113281 71.101562 325.761719 C 41.324219 356.40625 -43.042969 416.59375 -112.882812 307.109375 C -182.71875 197.625 -28.949219 97.636719 40.117188 139.898438 C 82.832031 166.015625 86.207031 182.6875 86.207031 182.6875 Z M 86.207031 182.6875 " fill-opacity="1" fill-rule="nonzero"/></g><g clip-path="url(#5d80652aa3)"><g mask="url(#e00c11031c)"><g transform="matrix(1, 0, 0, 1, 0.000000000000000111, -0.000000000000107785)"><g clip-path="url(#6605e52979)"><g clip-path="url(#1a758022ec)"><path fill="#fecd1a" d="M -3.773438 246.503906 C -7.007812 227.546875 -7.839844 208.175781 -6.179688 188.972656 C -6.511719 125.953125 -6.761719 62.933594 -3.355469 0 C 80.804688 3.492188 168.367188 2.742188 252.609375 1.578125 C 252.277344 18.707031 247.464844 34.085938 237.257812 47.96875 C 233.769531 52.710938 229.785156 57.03125 224.972656 60.359375 C 210.945312 70 189.863281 70.582031 181.480469 85.464844 C 174.425781 97.851562 180.402344 113.566406 178.574219 127.699219 C 177.082031 139.753906 169.777344 150.5625 160.066406 157.792969 C 150.355469 165.027344 138.488281 168.933594 126.453125 170.429688 C 115.664062 171.761719 103.960938 171.59375 95.246094 178.078125 C 85.367188 185.394531 82.546875 198.613281 77.648438 209.921875 C 64.785156 239.683594 28.515625 250.078125 -3.773438 246.503906 Z M -3.773438 246.503906 " fill-opacity="1" fill-rule="nonzero"/></g></g></g></g></g><g clip-path="url(#69923452ff)"><path fill="#fecd1a" d="M 717.964844 456.035156 C 745.554688 518.714844 734.507812 582.972656 700.929688 617.578125 C 667.355469 652.183594 572.230469 720.140625 493.484375 596.519531 C 414.742188 472.902344 588.121094 360 665.996094 407.71875 C 714.15625 437.207031 717.964844 456.035156 717.964844 456.035156 Z M 717.964844 456.035156 " fill-opacity="1" fill-rule="nonzero"/></g><g clip-path="url(#e646050d1f)"><path fill="#fabdbd" d="M 826.863281 0.128906 L 405.324219 0.128906 C 405.324219 0.128906 465.511719 91.550781 502.855469 94.410156 C 540.199219 97.265625 553.378906 63.859375 579.738281 77.707031 C 606.097656 91.550781 615.542969 125.394531 645.417969 127.152344 C 706.265625 130.449219 695.28125 54.628906 728.011719 50.675781 C 760.742188 46.71875 825.765625 60.34375 826.863281 0.128906 Z M 826.863281 0.128906 " fill-opacity="1" fill-rule="nonzero"/></g><g mask="url(#74f1db1b80)"><g transform="matrix(1, 0, 0, 1, 223, 483)"><g clip-path="url(#0d34d17f0e)"><g clip-path="url(#25d580aae3)"><path fill="#b1d4e0" d="M 426.230469 129.09375 L 0.953125 129.09375 C 0.953125 129.09375 61.675781 36.597656 99.347656 33.707031 C 137.023438 30.816406 150.320312 64.613281 176.914062 50.605469 C 203.507812 36.597656 213.039062 2.351562 243.179688 0.574219 C 304.566406 -2.761719 293.484375 73.949219 326.503906 77.953125 C 359.527344 81.957031 425.125 68.171875 426.230469 129.09375 Z M 426.230469 129.09375 " fill-opacity="1" fill-rule="nonzero"/></g></g></g></g></svg>