<svg xmlns="http://www.w3.org/2000/svg" xmlns:xlink="http://www.w3.org/1999/xlink" width="940" zoomAndPan="magnify" viewBox="0 0 705 591.000005" height="788" preserveAspectRatio="xMidYMid meet" version="1.0"><defs><clipPath id="a3605264f7"><path d="M 0.59375 0 L 704.402344 0 L 704.402344 590 L 0.59375 590 Z M 0.59375 0 " clip-rule="nonzero"/></clipPath><clipPath id="ffeaced5c1"><path d="M 271.214844 20.5625 L 433.6875 20.5625 L 433.6875 252.667969 L 271.214844 252.667969 Z M 271.214844 20.5625 " clip-rule="nonzero"/></clipPath><clipPath id="6d871456a1"><path d="M 304.523438 75.769531 L 400.359375 75.769531 L 400.359375 215.035156 L 304.523438 215.035156 Z M 304.523438 75.769531 " clip-rule="nonzero"/></clipPath></defs><g clip-path="url(#a3605264f7)"><path fill="#ffffff" d="M 0.59375 0 L 704.40625 0 L 704.40625 590 L 0.59375 590 Z M 0.59375 0 " fill-opacity="1" fill-rule="nonzero"/><path fill="#cdcfc0" d="M 0.59375 0 L 704.40625 0 L 704.40625 590 L 0.59375 590 Z M 0.59375 0 " fill-opacity="1" fill-rule="nonzero"/></g><path stroke-linecap="butt" transform="matrix(-0.747823, -0.000000000000000092, 0.000000000000000092, -0.748733, 645.396365, 145.099345)" fill="none" stroke-linejoin="miter" d="M 0.00245218 0.00225549 L 231.293736 0.00225549 " stroke="#423f32" stroke-width="1" stroke-opacity="1" stroke-miterlimit="4"/><g clip-path="url(#ffeaced5c1)"><path fill="#423f32" d="M 433.644531 252.539062 L 271.214844 252.539062 L 271.214844 101.929688 C 271.214844 57.125 307.648438 20.691406 352.453125 20.691406 C 397.257812 20.691406 433.6875 57.125 433.6875 101.929688 L 433.6875 252.539062 Z M 273.054688 250.699219 L 431.804688 250.699219 L 431.804688 101.929688 C 431.804688 58.136719 396.199219 22.53125 352.453125 22.53125 C 308.660156 22.53125 273.054688 58.136719 273.054688 101.929688 Z M 273.054688 250.699219 " fill-opacity="1" fill-rule="nonzero"/></g><g clip-path="url(#6d871456a1)"><path fill="#423f32" d="M 352.96875 178.105469 C 354.035156 176.636719 354.34375 175.214844 354.695312 173.84375 C 355.050781 172.519531 355.507812 171.230469 356.066406 169.980469 C 356.203125 169.664062 356.421875 169.375 356.507812 169.050781 C 357.253906 166.335938 358.933594 164.148438 360.632812 162.011719 C 361.785156 160.5625 363.09375 159.257812 364.726562 158.226562 C 367.535156 156.453125 370.5625 154.976562 373.003906 152.621094 C 374.011719 151.664062 375.179688 150.960938 376.5 150.519531 C 377.457031 150.191406 378.339844 149.621094 379.261719 149.175781 C 380.730469 148.453125 382.320312 148.117188 383.902344 147.800781 C 384.90625 147.597656 385.695312 147.960938 386.289062 148.894531 C 387.242188 150.402344 387.742188 151.960938 387.359375 153.757812 C 387.125 154.851562 386.949219 155.953125 386.832031 157.0625 C 386.566406 159.503906 385.625 161.664062 384.332031 163.734375 C 383.039062 165.804688 381.585938 167.628906 379.703125 169.195312 C 378.394531 170.285156 377.28125 171.59375 375.917969 172.648438 C 374.089844 174.078125 372.117188 175.265625 369.996094 176.210938 C 369.527344 176.421875 369.078125 176.675781 368.65625 176.972656 C 365.589844 179.105469 362.167969 180.382812 358.566406 181.242188 C 357.0625 181.601562 355.585938 182.023438 354.085938 182.371094 C 353.347656 182.539062 353.195312 182.6875 353.113281 183.628906 C 353.089844 183.796875 353.078125 183.96875 353.082031 184.140625 C 353.566406 189.519531 354.136719 194.886719 355.472656 200.136719 C 355.488281 200.21875 355.511719 200.304688 355.546875 200.382812 C 355.578125 200.441406 355.671875 200.535156 355.699219 200.519531 C 355.839844 200.472656 355.960938 200.394531 356.0625 200.285156 C 356.148438 200.148438 356.152344 199.957031 356.210938 199.796875 C 356.902344 197.949219 357.5625 196.09375 358.304688 194.269531 C 358.519531 193.738281 358.578125 193.296875 358.285156 192.820312 C 357.992188 192.34375 358.019531 191.847656 358.09375 191.328125 C 358.246094 190.191406 358.753906 189.195312 359.371094 188.265625 C 359.640625 187.859375 360.117188 187.558594 360.554688 187.300781 C 360.738281 187.183594 360.9375 187.117188 361.15625 187.097656 C 361.371094 187.078125 361.582031 187.109375 361.785156 187.1875 C 361.988281 187.269531 362.160156 187.390625 362.304688 187.554688 C 362.449219 187.71875 362.546875 187.90625 362.601562 188.117188 C 362.71875 188.609375 362.714844 189.132812 362.769531 189.640625 C 362.8125 190.066406 363.078125 190.253906 363.464844 190.160156 C 364.386719 189.9375 365.238281 190.128906 365.804688 190.84375 C 366.453125 191.652344 366.214844 192.640625 365.921875 193.542969 C 365.277344 195.566406 363.277344 196.648438 361.253906 196.0625 C 360.613281 195.878906 360.390625 195.300781 360.199219 194.707031 C 360.160156 194.535156 360.050781 194.4375 359.875 194.414062 C 359.699219 194.386719 359.570312 194.449219 359.480469 194.601562 C 358.472656 196.125 358.042969 197.886719 357.429688 199.570312 C 357.269531 200.0625 357.140625 200.5625 357.042969 201.070312 C 356.6875 202.664062 356.523438 204.253906 357.042969 205.847656 C 357.789062 208.121094 358.238281 210.488281 359.328125 212.652344 C 359.59375 213.191406 359.796875 213.753906 359.941406 214.335938 C 359.996094 214.539062 359.816406 214.800781 359.742188 215.035156 C 359.527344 214.921875 359.25 214.859375 359.109375 214.6875 C 358.546875 214.027344 358.132812 213.28125 357.867188 212.457031 C 357.335938 210.742188 356.695312 209.058594 356.1875 207.335938 C 355.460938 204.878906 354.761719 202.402344 354.140625 199.914062 C 353.730469 198.257812 353.472656 196.558594 353.160156 194.878906 C 353.074219 194.40625 352.871094 194.140625 352.34375 194.082031 C 351.578125 194.003906 350.824219 193.820312 350.0625 193.699219 C 348.523438 193.457031 346.992188 193.382812 345.457031 193.738281 C 341.753906 194.601562 338.066406 194.171875 334.53125 193.09375 C 330.902344 191.976562 327.558594 190.289062 324.503906 188.027344 C 323.125 187.011719 321.566406 186.171875 320.722656 184.617188 C 319.53125 182.417969 317.769531 180.613281 316.523438 178.484375 C 314.785156 175.503906 314.527344 172.328125 316.167969 169.15625 C 316.550781 168.425781 317.046875 168.234375 317.882812 168.488281 C 318.371094 168.644531 318.851562 168.828125 319.324219 169.035156 C 322.390625 170.386719 325.550781 171.445312 328.8125 172.210938 C 331.464844 172.820312 334.171875 173.386719 336.589844 174.757812 C 337.410156 175.222656 338.238281 175.683594 338.964844 176.269531 C 341.226562 178.089844 343.300781 180.140625 345.746094 181.726562 C 347.15625 183.453125 349.109375 184.65625 350.339844 186.5625 C 350.796875 187.265625 351.253906 188.011719 352.15625 188.558594 C 352.148438 187.359375 352.183594 186.257812 352.117188 185.167969 C 351.980469 182.945312 351.8125 180.722656 351.640625 178.503906 C 351.605469 178.085938 351.589844 177.628906 351.414062 177.261719 C 350.742188 175.878906 350.015625 174.523438 349.289062 173.167969 C 349.152344 172.957031 348.984375 172.777344 348.785156 172.621094 C 348.414062 172.289062 347.953125 172.269531 347.695312 172.675781 C 346.78125 174.148438 345.238281 174.074219 343.835938 174.265625 C 343.085938 174.371094 341.933594 173.5 341.835938 172.882812 C 341.667969 171.855469 341.628906 170.835938 342.511719 170.015625 C 342.976562 169.589844 343.566406 169.472656 344.101562 169.214844 C 344.472656 169.039062 344.578125 168.667969 344.273438 168.46875 C 343.496094 167.960938 343.175781 167.183594 342.894531 166.363281 C 342.734375 165.90625 342.71875 165.449219 342.851562 164.988281 C 342.984375 164.523438 343.242188 164.144531 343.617188 163.84375 C 344.320312 163.25 345.472656 163.136719 346.238281 163.761719 C 347.90625 165.128906 348.90625 166.855469 348.667969 169.109375 C 348.039062 170.28125 348.566406 171.070312 349.53125 171.703125 C 350.378906 172.261719 350.652344 173.1875 351.078125 174.023438 C 351.148438 174.160156 351.328125 174.351562 351.441406 174.34375 C 351.757812 174.316406 351.699219 174.003906 351.699219 173.796875 C 351.691406 172.339844 351.605469 170.882812 351.660156 169.429688 C 351.785156 165.746094 351.957031 162.058594 352.144531 158.375 C 352.195312 157.335938 352.175781 156.363281 351.652344 155.394531 C 351.421875 154.910156 351.042969 154.613281 350.519531 154.507812 C 349.757812 154.3125 348.992188 154.363281 348.21875 154.429688 C 342.734375 154.910156 337.269531 154.675781 331.804688 154.128906 C 328.097656 153.761719 324.570312 152.699219 321.183594 151.222656 C 319.691406 150.554688 318.328125 149.6875 317.089844 148.617188 C 315.53125 147.292969 313.8125 146.152344 312.292969 144.789062 C 310.257812 142.972656 307.933594 141.476562 306.199219 139.320312 C 305.824219 138.855469 305.441406 138.390625 305.089844 137.902344 C 304.535156 137.121094 304.636719 136.601562 305.484375 136.304688 C 306.613281 135.910156 307.667969 135.339844 308.859375 135.078125 C 309.753906 134.882812 310.601562 134.375 311.414062 133.917969 C 314.339844 132.273438 317.515625 131.765625 320.8125 131.746094 C 324.726562 131.722656 328.148438 133.109375 331.40625 135.164062 C 334.828125 137.328125 337.828125 139.988281 340.8125 142.679688 C 340.945312 142.792969 341.0625 142.917969 341.167969 143.050781 C 342.84375 145.347656 345.101562 147.113281 346.851562 149.335938 C 347.390625 150.019531 348.054688 150.546875 348.746094 151.050781 C 348.925781 151.1875 349.148438 151.460938 349.339844 151.160156 C 349.457031 150.921875 349.46875 150.683594 349.378906 150.433594 C 348.847656 149.078125 348.269531 147.746094 347.722656 146.394531 C 346.574219 143.546875 345.160156 140.789062 344.554688 137.742188 C 344.382812 136.894531 343.824219 136.449219 343.117188 136.050781 C 341.699219 135.253906 340.296875 134.429688 338.921875 133.5625 C 337.09375 132.410156 335.40625 131.105469 334.589844 128.980469 C 333.035156 127.070312 332.285156 124.8125 331.671875 122.476562 C 331.453125 121.648438 331.183594 120.839844 330.867188 120.046875 C 330.007812 117.863281 329.660156 115.601562 329.457031 113.28125 C 329.335938 112.164062 329.4375 111.070312 329.753906 109.992188 C 330.667969 107.046875 331.527344 104.085938 332.546875 101.175781 C 333.839844 97.492188 336.050781 94.351562 338.625 91.453125 C 338.980469 91.058594 339.421875 90.816406 339.949219 90.730469 C 340.511719 90.621094 340.972656 90.769531 341.324219 91.207031 C 341.597656 91.535156 341.886719 91.875 342.039062 92.265625 C 343.015625 94.746094 344.503906 96.957031 345.664062 99.335938 C 346.410156 100.875 347.132812 102.449219 347.734375 104.027344 C 348.425781 105.839844 348.597656 107.859375 348.960938 109.796875 C 349.117188 110.632812 349.179688 111.492188 349.296875 112.339844 C 349.511719 113.878906 349.519531 115.417969 349.316406 116.957031 C 348.816406 120.867188 348.363281 124.78125 347.15625 128.566406 C 346.640625 130.195312 346.472656 131.925781 346.035156 133.582031 C 345.300781 136.375 345.71875 139.082031 346.855469 141.601562 C 348.410156 145.035156 349.6875 148.570312 351.160156 152.03125 C 351.421875 152.644531 351.609375 153.332031 352.433594 153.671875 C 352.699219 152.304688 353.050781 150.972656 353.199219 149.621094 C 353.558594 146.273438 354.496094 143.070312 355.398438 139.847656 C 356.023438 137.621094 356.898438 135.46875 357.28125 133.171875 C 357.332031 132.917969 357.417969 132.675781 357.535156 132.445312 C 358.492188 130.445312 358.558594 128.320312 358.378906 126.167969 C 358.242188 124.472656 358.039062 122.78125 357.867188 121.089844 C 357.691406 121.109375 357.578125 121.089844 357.523438 121.128906 C 356.703125 121.792969 355.839844 121.792969 354.890625 121.417969 C 354.019531 121.078125 353.527344 120.410156 353.144531 119.628906 C 353.015625 119.308594 352.921875 118.980469 352.867188 118.640625 C 352.625 117.558594 353.445312 116.59375 354.5625 116.601562 C 355.269531 116.601562 355.894531 116.875 356.535156 117.128906 C 357.015625 117.324219 357.21875 117.128906 357.183594 116.515625 C 357.128906 115.558594 357.203125 114.628906 357.566406 113.734375 C 357.769531 113.230469 358.113281 112.882812 358.699219 112.824219 C 359.289062 112.761719 359.699219 113.007812 360.039062 113.425781 C 360.214844 113.621094 360.34375 113.839844 360.429688 114.085938 C 360.914062 115.769531 361.003906 117.457031 360.324219 119.117188 C 360.230469 119.34375 360.058594 119.660156 359.875 119.703125 C 358.8125 119.933594 358.988281 120.707031 358.949219 121.476562 C 358.894531 122.523438 359.0625 123.535156 359.253906 124.542969 C 359.40625 125.328125 358.832031 126.21875 359.59375 126.90625 C 360.035156 126.207031 360.550781 125.542969 360.910156 124.792969 C 362.375 121.792969 363.789062 118.777344 365.242188 115.773438 C 365.484375 115.3125 365.605469 114.820312 365.605469 114.300781 C 365.5 110.203125 366.5625 106.351562 367.976562 102.546875 C 369.449219 98.601562 372.003906 95.449219 374.785156 92.398438 C 376.585938 90.417969 378.65625 88.777344 380.992188 87.472656 C 382.199219 86.785156 383.242188 85.902344 384.113281 84.824219 C 384.507812 84.375 384.9375 83.960938 385.402344 83.585938 C 386.800781 82.40625 388.214844 81.300781 389.4375 79.96875 C 389.863281 79.539062 390.332031 79.167969 390.847656 78.847656 C 391.910156 78.132812 393.03125 77.496094 394.0625 76.738281 C 394.84375 76.164062 395.71875 75.863281 396.691406 75.835938 C 398.328125 75.765625 398.648438 76.046875 399.28125 77.652344 C 400.039062 79.53125 400.097656 81.496094 400.175781 83.460938 C 400.351562 87.957031 399.1875 92.113281 396.679688 95.832031 C 395.398438 97.734375 393.824219 99.433594 392.296875 101.160156 C 389.414062 104.421875 385.726562 106.648438 382.359375 109.273438 C 379.859375 111.21875 376.929688 112.511719 373.808594 113.269531 C 372.308594 113.632812 370.824219 114.039062 369.328125 114.421875 C 368.746094 114.566406 368.199219 114.804688 367.691406 115.128906 C 366.886719 115.644531 366.269531 116.328125 365.84375 117.183594 C 364.285156 120.136719 362.976562 123.207031 361.476562 126.191406 C 360.074219 129.007812 358.671875 131.882812 358.074219 135.039062 C 357.945312 135.625 357.785156 136.203125 357.59375 136.769531 C 357.5 137.082031 357.277344 137.601562 357.515625 137.671875 C 358.035156 137.828125 358.144531 137.242188 358.34375 136.886719 C 358.886719 135.921875 359.34375 134.914062 360.019531 134.011719 C 361.203125 132.441406 362.273438 130.792969 363.433594 129.207031 C 363.890625 128.589844 364.402344 128.015625 364.964844 127.492188 C 365.523438 126.960938 366.191406 126.546875 366.753906 126.027344 C 368.976562 123.988281 371.667969 122.96875 374.546875 122.308594 C 379.644531 121.121094 384.800781 120.316406 390.015625 119.898438 C 390.789062 119.859375 391.554688 119.910156 392.316406 120.046875 C 393.605469 120.25 394.925781 121.738281 394.792969 123.207031 C 394.582031 125.527344 394.308594 127.757812 392.839844 129.746094 C 391.570312 131.472656 390.507812 133.320312 388.765625 134.660156 C 388.03125 135.222656 387.414062 135.976562 386.863281 136.730469 C 385.203125 138.996094 382.847656 140.441406 380.683594 142.117188 C 380.332031 142.363281 379.953125 142.558594 379.546875 142.703125 C 376.445312 143.96875 373.28125 145.011719 369.933594 145.375 C 368.996094 145.492188 368.058594 145.527344 367.113281 145.488281 C 364.375 145.335938 361.640625 145.105469 358.902344 144.941406 C 358.136719 144.894531 357.367188 145.003906 356.601562 145 C 355.765625 145 355.40625 145.425781 355.203125 146.203125 C 354.914062 147.28125 354.589844 148.335938 354.464844 149.453125 C 354.082031 152.867188 353.515625 156.261719 353.269531 159.679688 C 352.90625 164.71875 352.691406 169.773438 352.945312 174.832031 C 352.992188 175.8125 352.960938 176.800781 352.96875 178.09375 Z M 338.296875 127.535156 L 338.226562 127.535156 C 338.550781 128.21875 338.863281 128.917969 339.210938 129.59375 C 339.277344 129.730469 339.464844 129.808594 339.613281 129.882812 C 339.761719 129.953125 339.894531 129.867188 339.957031 129.652344 C 340.207031 128.746094 340.472656 127.847656 340.699219 126.9375 C 340.820312 126.441406 340.851562 125.921875 340.972656 125.421875 C 341.015625 125.230469 340.960938 124.828125 341.375 125 C 341.488281 125.050781 341.523438 125.28125 341.597656 125.429688 C 341.667969 125.578125 341.703125 125.785156 341.804688 125.8125 C 341.96875 125.835938 342.109375 125.78125 342.21875 125.652344 C 343.457031 123.566406 344.265625 121.351562 344.363281 118.890625 C 344.425781 117.355469 344.589844 115.820312 344.746094 114.289062 C 344.804688 113.871094 344.925781 113.46875 345.097656 113.082031 C 345.136719 112.988281 345.398438 112.929688 345.539062 112.957031 C 345.679688 112.984375 345.890625 113.132812 345.898438 113.234375 C 345.90625 113.660156 345.890625 114.085938 345.839844 114.507812 C 345.585938 117.296875 345.1875 120.070312 345.105469 122.875 C 345.03125 122.921875 344.929688 122.949219 344.890625 123.011719 C 343.457031 125.433594 342.152344 127.914062 341.15625 130.550781 C 340.984375 131.007812 341.148438 131.371094 341.457031 131.707031 C 342.3125 132.652344 343.171875 133.601562 344.382812 134.242188 C 344.46875 134.015625 344.53125 133.78125 344.574219 133.542969 C 344.800781 130.820312 345.066406 128.101562 345.199219 125.375 C 345.234375 124.554688 345.488281 123.679688 345.0625 122.867188 C 345.648438 122.492188 345.652344 121.851562 345.730469 121.273438 C 346.234375 117.539062 346.695312 113.796875 347.222656 110.066406 C 347.511719 108.042969 347.152344 106.140625 346.148438 104.359375 C 344.304688 100.988281 342.730469 97.496094 341.429688 93.878906 C 341.3125 93.558594 341.214844 93.230469 341.074219 92.921875 C 340.835938 92.390625 340.167969 92.253906 339.847656 92.683594 C 337.179688 96.253906 334.824219 99.996094 333.574219 104.339844 C 333.410156 104.917969 333.171875 105.46875 332.972656 106.035156 C 332.804688 106.519531 332.582031 106.992188 332.503906 107.492188 C 331.941406 111.042969 331.546875 114.589844 332.0625 118.210938 C 332.335938 120.105469 332.902344 121.871094 333.472656 123.65625 C 333.726562 124.453125 334.21875 125.171875 334.613281 125.921875 C 334.644531 125.976562 334.765625 125.984375 334.847656 126.015625 C 334.863281 125.933594 334.890625 125.851562 334.898438 125.765625 C 334.984375 124.867188 334.453125 124.128906 334.214844 123.328125 C 333.679688 121.5 333.257812 119.640625 333.546875 117.765625 C 334.183594 113.566406 335.914062 109.757812 338.175781 106.1875 C 338.316406 105.976562 338.496094 105.800781 338.710938 105.664062 C 338.824219 105.589844 339.078125 105.582031 339.160156 105.65625 C 339.277344 105.792969 339.316406 105.945312 339.273438 106.121094 C 338.875 106.96875 338.492188 107.835938 338 108.625 C 336.492188 111.054688 335.511719 113.699219 334.878906 116.457031 C 333.921875 120.613281 334.972656 124.402344 337.304688 127.886719 C 337.398438 128.035156 337.527344 128.140625 337.691406 128.203125 C 337.761719 128.226562 337.910156 128.046875 338.003906 127.941406 C 338.105469 127.8125 338.207031 127.675781 338.296875 127.535156 Z M 364.273438 134.058594 L 364.203125 134.046875 C 364.265625 134.164062 364.285156 134.285156 364.265625 134.414062 C 364.242188 134.542969 364.183594 134.652344 364.089844 134.742188 C 363.542969 135.273438 362.96875 135.777344 361.980469 136.679688 C 363.273438 136.167969 364.027344 135.84375 364.808594 135.5625 C 365.761719 135.214844 366.742188 134.894531 367.710938 134.574219 C 367.871094 134.527344 368.035156 134.503906 368.203125 134.5 C 368.238281 134.5 368.308594 134.578125 368.304688 134.617188 C 368.300781 134.699219 368.277344 134.824219 368.222656 134.847656 C 367.140625 135.339844 366.027344 135.769531 364.96875 136.3125 C 362.609375 137.519531 360.609375 139.136719 358.988281 141.90625 C 361.160156 140.851562 363.066406 140.390625 364.902344 139.734375 C 366.613281 139.125 368.375 138.835938 370.160156 138.644531 C 370.84375 138.570312 371.527344 138.574219 372.207031 138.476562 C 374.710938 138.105469 376.984375 137.175781 378.917969 135.519531 C 379.5625 134.972656 380.066406 134.257812 380.691406 133.671875 C 382.121094 132.300781 383.296875 130.738281 384.222656 128.988281 C 384.546875 128.386719 384.878906 127.785156 385.238281 127.203125 C 385.28125 127.132812 385.589844 127.121094 385.652344 127.191406 C 385.882812 127.441406 385.839844 127.035156 385.824219 127.375 C 385.78125 128.273438 385.390625 129.042969 384.867188 129.71875 C 383.503906 131.464844 382.199219 133.273438 380.671875 134.871094 C 379.53125 136.050781 378.222656 137 376.742188 137.714844 C 374.492188 138.835938 372.113281 139.453125 369.605469 139.566406 C 366.546875 139.703125 363.796875 140.875 360.992188 141.886719 C 360.839844 141.96875 360.730469 142.089844 360.660156 142.25 C 360.59375 142.378906 360.730469 142.433594 360.964844 142.421875 C 363.183594 142.308594 365.40625 142.226562 367.625 142.09375 C 370.800781 141.90625 373.914062 141.367188 376.90625 140.253906 C 378.425781 139.6875 379.949219 139.125 381.453125 138.503906 C 382.953125 137.886719 384.414062 137.1875 385.683594 136.140625 C 388.25 134.023438 389.847656 131.1875 391.382812 128.324219 C 391.777344 127.589844 391.917969 126.695312 392.050781 125.855469 C 392.113281 125.339844 392.0625 124.835938 391.898438 124.34375 C 391.683594 123.644531 391.175781 123.167969 390.414062 123.101562 C 389.558594 122.996094 388.71875 123.066406 387.890625 123.308594 C 385.691406 123.988281 383.480469 124.683594 381.183594 124.992188 C 379.320312 125.246094 377.460938 125.539062 375.59375 125.738281 C 373.441406 125.972656 371.351562 126.4375 369.488281 127.535156 C 368.09375 128.355469 366.867188 129.460938 365.53125 130.402344 C 362.203125 132.746094 360.128906 136.050781 358.320312 139.640625 C 358.867188 139.550781 359.089844 139.199219 359.34375 138.851562 C 360.726562 136.980469 362.210938 135.222656 364.273438 134.058594 Z M 379.164062 105.417969 C 378.648438 106.007812 378.023438 106.496094 377.289062 106.730469 C 375.714844 107.230469 374.527344 108.398438 373.042969 109.074219 C 372.023438 109.535156 371.140625 110.371094 369.992188 111.570312 C 370.859375 111.316406 371.285156 111.253906 371.652344 111.078125 C 373.753906 110.105469 375.929688 109.355469 378.183594 108.828125 C 379.09375 108.605469 380.023438 108.417969 380.902344 108.09375 C 383 107.324219 384.96875 106.320312 386.488281 104.601562 C 386.996094 104.027344 387.589844 103.53125 388.140625 102.996094 C 388.632812 102.523438 389.171875 102.089844 389.601562 101.5625 C 390.898438 99.984375 392.214844 98.410156 393.402344 96.746094 C 394.214844 95.644531 394.890625 94.460938 395.429688 93.199219 C 396.152344 91.460938 396.738281 89.675781 397.179688 87.84375 C 397.753906 85.402344 397.882812 82.941406 397.554688 80.453125 C 397.320312 78.621094 396.746094 78.367188 395.1875 79.214844 C 394.59375 79.539062 393.898438 79.8125 393.480469 80.308594 C 392.300781 81.699219 390.476562 82.273438 389.332031 83.6875 C 389.042969 84.015625 388.691406 84.257812 388.28125 84.414062 C 387.234375 84.84375 386.347656 85.507812 385.441406 86.152344 C 385.097656 86.40625 384.730469 86.617188 384.339844 86.792969 C 382.582031 87.578125 381.15625 88.773438 379.972656 90.273438 C 378.917969 91.617188 377.789062 92.917969 376.886719 94.359375 C 375.863281 96.027344 374.953125 97.753906 374.164062 99.546875 C 375.136719 98.691406 375.746094 98.316406 376.128906 97.789062 C 377.304688 96.152344 378.953125 95.0625 380.515625 93.882812 C 380.628906 93.796875 380.839844 93.839844 381.003906 93.824219 C 380.957031 93.972656 380.960938 94.179688 380.859375 94.265625 C 379.429688 95.476562 378.019531 96.683594 376.742188 98.085938 C 375.015625 99.988281 373.351562 101.90625 371.964844 104.066406 C 371.753906 104.402344 371.339844 104.773438 371.558594 105.390625 C 372.402344 104.796875 373.167969 104.25 373.945312 103.730469 C 374.003906 103.691406 374.171875 103.785156 374.269531 103.851562 C 374.292969 103.863281 374.269531 104.03125 374.210938 104.082031 C 373.246094 105.046875 372.230469 105.960938 371.3125 106.96875 C 369.988281 108.429688 368.882812 110.039062 367.988281 111.792969 C 367.921875 111.953125 367.878906 112.117188 367.867188 112.289062 C 367.859375 112.371094 367.886719 112.515625 367.925781 112.527344 C 368.0625 112.570312 368.261719 112.628906 368.351562 112.5625 C 369.335938 111.859375 369.824219 110.714844 370.785156 109.941406 C 373.203125 107.992188 375.960938 106.660156 378.710938 105.300781 C 378.8125 105.253906 379.003906 105.398438 379.152344 105.453125 Z M 351.847656 192.0625 C 348.964844 187.628906 345.578125 184.027344 342.101562 180.5 C 341.964844 180.398438 341.824219 180.304688 341.671875 180.21875 C 339.117188 178.351562 336.398438 176.765625 333.589844 175.316406 C 330.8125 173.886719 322.5 171.847656 319.851562 171.257812 C 319.429688 171.175781 319.003906 171.128906 318.578125 171.121094 C 318.320312 171.085938 318.066406 171.109375 317.820312 171.191406 C 317.519531 171.328125 317.148438 171.496094 317.019531 171.753906 C 316.59375 172.609375 316.335938 173.515625 316.746094 174.46875 C 316.980469 175.015625 317.222656 175.570312 317.40625 176.140625 C 318.011719 178.039062 319.234375 179.617188 320.234375 181.289062 C 322.582031 185.222656 325.789062 188.214844 330.402344 189.328125 C 332.074219 189.730469 333.753906 190.015625 335.484375 189.917969 C 337.707031 189.800781 339.921875 189.894531 342.125 190.191406 C 345.316406 190.589844 348.550781 190.71875 351.847656 192.0625 Z M 348.695312 152.988281 C 348.695312 152.484375 348.300781 152.296875 347.945312 152.0625 C 346.515625 151.128906 345.078125 150.183594 343.914062 148.933594 C 342.578125 147.488281 341 146.300781 339.734375 144.773438 C 338.921875 143.796875 337.886719 143 336.898438 142.191406 C 333.472656 139.394531 329.640625 137.402344 325.308594 136.410156 C 323.972656 136.101562 322.671875 135.664062 321.285156 135.605469 C 318.121094 135.46875 314.964844 135.683594 311.800781 135.789062 C 311.183594 135.792969 310.628906 135.980469 310.136719 136.355469 C 309.367188 136.9375 309.132812 137.492188 310.175781 138.089844 C 310.714844 138.394531 311.09375 138.835938 311.511719 139.265625 C 312.703125 140.492188 313.832031 141.796875 315.171875 142.835938 C 316.007812 143.484375 316.65625 144.226562 317.304688 145.011719 C 318.679688 146.675781 320.289062 148.113281 322.148438 149.15625 C 325.070312 150.792969 328.234375 151.867188 331.539062 152.488281 C 334.074219 152.960938 336.648438 153.035156 339.210938 153.097656 C 342.367188 153.175781 345.527344 153.039062 348.695312 152.992188 Z M 364.367188 170.15625 C 363.644531 171.082031 363.179688 171.898438 362.511719 172.484375 C 359.820312 174.855469 357.464844 177.589844 354.535156 179.71875 C 356.828125 178.75 359.207031 178.191406 361.625 177.75 C 362.886719 177.519531 364.144531 177.253906 365.394531 176.96875 C 366.648438 176.683594 367.894531 176.25 368.90625 175.476562 C 371.625 173.402344 374.492188 171.480469 376.671875 168.777344 C 378.390625 166.652344 380.183594 164.605469 381.238281 162.007812 C 382.402344 159.140625 383.585938 156.304688 383.792969 153.171875 C 383.855469 152.230469 384.027344 151.292969 383.738281 150.359375 C 383.644531 150.0625 383.429688 149.941406 383.179688 150.007812 C 382.6875 150.132812 382.136719 150.226562 381.746094 150.515625 C 380.910156 151.132812 379.972656 151.546875 379.058594 152.003906 C 378.21875 152.425781 377.308594 152.757812 376.566406 153.304688 C 375.375 154.183594 374.042969 154.8125 372.707031 155.316406 C 370.933594 155.980469 369.636719 157.160156 368.382812 158.453125 C 364.976562 161.957031 362.300781 166.039062 359.316406 169.875 C 359.265625 169.945312 359.207031 170.011719 359.160156 170.078125 C 358.3125 171.464844 357.425781 172.832031 356.632812 174.25 C 356.136719 175.128906 355.546875 176 355.539062 177.097656 C 356.148438 176.976562 356.371094 176.503906 356.691406 176.097656 C 358.917969 173.289062 360.515625 170.03125 362.914062 167.332031 C 364.671875 165.359375 366.074219 163.066406 368.246094 161.464844 C 368.445312 161.316406 368.582031 161.082031 368.746094 160.886719 C 370.585938 158.769531 372.953125 157.425781 375.449219 156.265625 C 375.613281 156.195312 375.78125 156.175781 375.953125 156.210938 C 376.101562 156.261719 376.226562 156.347656 376.324219 156.46875 C 376.355469 156.496094 376.3125 156.660156 376.257812 156.699219 C 375.777344 157.046875 375.328125 157.472656 374.792969 157.699219 C 372.210938 158.789062 370.167969 160.632812 368.203125 162.523438 C 365.925781 164.707031 364.011719 167.246094 362.132812 169.777344 C 361.179688 171.058594 360.085938 172.304688 359.589844 174.039062 C 361.464844 173.109375 362.183594 170.957031 364.367188 170.160156 Z M 365.078125 129.25 C 366.152344 128.492188 366.960938 127.992188 367.683594 127.394531 C 368.621094 126.613281 369.703125 126.105469 370.820312 125.675781 C 372.339844 125.085938 373.929688 124.769531 375.550781 124.5625 C 379.699219 124.035156 383.851562 123.488281 387.855469 122.167969 C 388.675781 121.921875 389.515625 121.796875 390.375 121.792969 C 391.816406 121.753906 392.769531 122.589844 393.039062 124.003906 C 393.113281 124.425781 393.15625 124.851562 393.160156 125.277344 C 393.171875 125.488281 393.234375 125.574219 393.457031 125.484375 C 393.535156 125.4375 393.582031 125.371094 393.59375 125.277344 C 393.640625 124.597656 393.730469 123.914062 393.710938 123.242188 C 393.664062 121.953125 392.957031 121.226562 391.652344 121.058594 C 390.289062 120.882812 388.921875 120.972656 387.558594 121.167969 C 385.191406 121.511719 382.832031 121.925781 380.460938 122.214844 C 377.398438 122.597656 374.410156 123.292969 371.492188 124.296875 C 370.679688 124.570312 369.921875 124.957031 369.226562 125.460938 C 368.058594 126.304688 367.082031 127.40625 365.734375 128.027344 C 365.496094 128.144531 365.414062 128.601562 365.078125 129.253906 Z M 375.09375 171.800781 C 375.445312 171.570312 375.800781 171.347656 376.140625 171.101562 C 377.871094 169.839844 379.453125 168.417969 380.890625 166.832031 C 383.433594 164.074219 385.335938 161.015625 385.804688 157.203125 C 385.914062 156.179688 386.089844 155.167969 386.332031 154.171875 C 386.867188 152.152344 386.324219 150.484375 384.671875 148.757812 C 385.183594 151.054688 384.808594 152.957031 384.484375 154.902344 C 384.050781 157.464844 383.117188 159.832031 382.164062 162.203125 C 381.425781 164.042969 380.414062 165.71875 379.128906 167.226562 C 377.8125 168.769531 376.539062 170.347656 375.09375 171.804688 Z M 312.621094 134.757812 C 313.738281 134.726562 314.675781 134.726562 315.609375 134.660156 C 317.835938 134.503906 320.097656 134.386719 322.269531 134.777344 C 324.691406 135.222656 327.148438 135.707031 329.417969 136.769531 C 330.65625 137.347656 331.898438 137.917969 333.140625 138.496094 C 333.214844 138.53125 333.277344 138.625 333.351562 138.644531 C 333.785156 138.742188 334.09375 139.265625 334.625 139.015625 C 334.371094 138.683594 334.164062 138.289062 333.84375 138.035156 C 331.566406 136.191406 329.007812 134.804688 326.324219 133.660156 C 325.535156 133.328125 324.714844 133.09375 323.867188 132.957031 C 320.234375 132.375 316.707031 132.914062 313.265625 134.121094 C 313.066406 134.195312 312.929688 134.449219 312.621094 134.757812 Z M 377.058594 92.304688 C 376.710938 92.234375 376.480469 92.488281 376.226562 92.6875 C 374.261719 94.234375 372.882812 96.304688 371.394531 98.253906 C 369.667969 100.515625 368.726562 103.203125 367.9375 105.894531 C 367.578125 107.109375 367.058594 108.3125 367.066406 109.625 C 367.066406 109.867188 367.136719 109.964844 367.347656 109.898438 C 367.429688 109.882812 367.496094 109.84375 367.546875 109.78125 C 367.792969 109.335938 368.042969 108.886719 368.261719 108.425781 C 370.863281 102.875 374.066406 97.640625 377.058594 92.304688 Z M 383.167969 139.335938 C 381.96875 139.117188 381.089844 139.792969 380.171875 140.15625 C 376.585938 141.578125 372.914062 142.621094 369.070312 142.964844 C 366.441406 143.199219 363.796875 143.269531 361.15625 143.429688 C 360.925781 143.441406 360.5625 143.539062 360.507812 143.683594 C 360.359375 144.09375 360.792969 144.011719 360.96875 144.023438 C 363.4375 144.183594 365.90625 144.351562 368.375 144.449219 C 369.234375 144.464844 370.082031 144.394531 370.925781 144.234375 C 373.714844 143.777344 376.40625 142.980469 378.996094 141.839844 C 380.433594 141.191406 381.902344 140.464844 383.167969 139.335938 Z M 319.839844 149.132812 C 319.277344 148.480469 319.050781 148.089844 318.71875 147.855469 C 316.945312 146.628906 315.65625 144.902344 314.195312 143.375 C 312.066406 141.148438 309.730469 139.199219 307.351562 137.273438 C 307.136719 137.09375 306.90625 137.070312 306.660156 137.203125 C 306.535156 137.257812 306.453125 137.351562 306.414062 137.480469 C 306.371094 137.609375 306.386719 137.730469 306.460938 137.847656 C 306.742188 138.355469 306.914062 138.917969 307.378906 139.347656 C 309.554688 141.378906 311.75 143.371094 314.160156 145.113281 C 315.394531 146.011719 316.675781 146.84375 317.695312 148.003906 C 318.164062 148.535156 318.761719 148.835938 319.835938 149.132812 Z M 347.03125 192.441406 C 347.085938 192.347656 347.128906 192.246094 347.152344 192.136719 C 347.152344 192.089844 347.070312 192.011719 347.015625 192 C 344.125 191.625 341.238281 191.25 338.34375 190.894531 C 338 190.871094 337.660156 190.898438 337.324219 190.976562 C 336.21875 191.191406 335.113281 191.207031 334 191.019531 C 333.832031 190.992188 333.65625 191.019531 333.488281 191.003906 C 333.246094 190.972656 333.164062 191.066406 333.257812 191.304688 C 333.289062 191.382812 333.339844 191.441406 333.414062 191.484375 C 336.0625 192.648438 338.890625 192.917969 341.714844 192.953125 C 343.503906 192.980469 345.289062 192.625 347.03125 192.441406 Z M 357.515625 169.765625 C 358.882812 169.222656 359.496094 168.164062 360.121094 167.1875 C 361.5625 164.957031 363.175781 162.871094 364.84375 160.808594 C 365.425781 160.085938 366.160156 159.457031 367.011719 158.160156 C 362.277344 161.210938 359.058594 164.691406 357.515625 169.765625 Z M 344.714844 167.464844 C 345.285156 167.832031 346.203125 168.433594 347.128906 169.019531 C 347.363281 169.167969 347.671875 169.003906 347.636719 168.746094 C 347.546875 168.078125 347.429688 167.417969 347.324219 166.753906 C 347.144531 165.613281 346.359375 165.015625 345.390625 164.578125 C 344.707031 164.269531 343.996094 164.714844 343.933594 165.480469 C 343.878906 166.105469 344.023438 166.660156 344.714844 167.464844 Z M 343.0625 172.789062 C 343.1875 172.898438 343.328125 172.988281 343.476562 173.0625 C 344.859375 173.539062 345.90625 172.738281 346.980469 172.105469 C 347.078125 172.046875 347.0625 171.609375 346.960938 171.421875 C 346.625 170.785156 345.953125 170.550781 345.363281 170.234375 C 344.679688 169.871094 344.050781 170.085938 343.484375 170.539062 C 342.921875 170.992188 342.703125 171.621094 342.847656 172.34375 C 342.898438 172.503906 342.972656 172.652344 343.0625 172.792969 Z M 362.792969 192.109375 C 361.679688 192.957031 361.570312 193.113281 361.382812 194.121094 C 361.257812 194.796875 361.75 195.308594 362.421875 195.195312 C 363.746094 194.976562 364.871094 193.820312 365.085938 192.457031 C 365.164062 191.960938 364.675781 191.484375 364.15625 191.492188 C 363.597656 191.507812 363.191406 191.792969 362.792969 192.109375 Z M 379.738281 109.433594 C 377.042969 110.101562 374.722656 110.636719 372.621094 111.804688 C 372.191406 112.046875 371.578125 111.925781 371.308594 112.480469 C 371.835938 112.898438 372.386719 112.605469 372.90625 112.492188 C 373.742188 112.332031 374.5625 112.109375 375.363281 111.820312 C 376.777344 111.28125 378.269531 110.871094 379.738281 109.433594 Z M 354.199219 119.441406 C 354.46875 119.75 354.625 119.953125 354.804688 120.132812 C 354.914062 120.269531 355.046875 120.367188 355.207031 120.433594 C 355.527344 120.53125 355.855469 120.570312 356.191406 120.546875 C 356.585938 120.492188 357.011719 119.835938 357.019531 119.359375 C 357.046875 118.984375 356.898438 118.695312 356.574219 118.496094 C 355.996094 118.144531 355.429688 117.765625 354.730469 117.65625 C 354.253906 117.582031 353.714844 118.164062 353.875 118.640625 C 353.976562 118.957031 354.125 119.261719 354.199219 119.441406 Z M 360.378906 191.621094 C 361.644531 191.160156 361.976562 190.132812 361.796875 188.84375 C 361.738281 188.421875 361.15625 188.160156 360.820312 188.394531 C 359.589844 189.246094 359.167969 190.472656 359.203125 191.90625 C 359.203125 192.109375 359.628906 192.328125 359.789062 192.199219 C 359.980469 192.039062 360.148438 191.847656 360.378906 191.621094 Z M 346.28125 125.933594 C 346.34375 126.121094 346.417969 126.140625 346.519531 125.996094 C 346.5625 125.9375 346.625 125.886719 346.640625 125.820312 C 347.285156 123.074219 347.832031 120.3125 348.039062 117.496094 C 348.054688 117.308594 348.25 116.921875 347.78125 116.980469 C 347.671875 116.992188 347.53125 117.214844 347.507812 117.359375 C 347.121094 119.371094 346.726562 121.382812 346.382812 123.402344 C 346.253906 124.15625 346.246094 124.933594 346.195312 125.699219 C 346.183594 125.773438 346.25 125.855469 346.28125 125.933594 Z M 358.550781 114.320312 C 358.441406 114.457031 358.261719 114.570312 358.242188 114.714844 C 358.027344 116.003906 358.183594 117.25 358.703125 118.453125 C 358.753906 118.570312 358.976562 118.628906 359.125 118.683594 C 359.167969 118.699219 359.261719 118.621094 359.304688 118.5625 C 360.199219 117.210938 360.019531 115.832031 359.40625 114.441406 C 359.273438 114.132812 358.761719 114.074219 358.550781 114.320312 Z M 391 80.027344 C 390.566406 80.417969 390.160156 80.625 390.121094 81.109375 C 390.113281 81.191406 390.121094 81.324219 390.167969 81.347656 C 390.472656 81.503906 390.039062 81.621094 390.316406 81.425781 C 390.941406 80.992188 391.546875 80.519531 392.140625 80.054688 C 392.191406 80.015625 392.203125 79.925781 392.230469 79.859375 C 392.078125 79.800781 391.902344 79.671875 391.773438 79.707031 C 391.507812 79.792969 391.25 79.898438 391 80.027344 Z M 393.902344 78.554688 C 394.8125 78.210938 395.515625 77.589844 396.425781 77.367188 C 396.480469 77.355469 396.492188 77.152344 396.523438 77.039062 C 396.441406 77.023438 396.355469 77.011719 396.273438 77.007812 C 395.140625 77.011719 394.527344 77.832031 393.902344 78.554688 Z M 393.902344 78.554688 " fill-opacity="1" fill-rule="nonzero"/></g><path fill="#423f32" d="M 379.15625 105.453125 C 380.265625 104.511719 381.425781 103.652344 382.765625 103.050781 C 383.152344 102.871094 383.503906 102.636719 383.820312 102.347656 C 386.550781 99.890625 388.503906 96.9375 389.332031 93.324219 C 389.730469 91.578125 390.011719 89.804688 390.375 88.046875 C 390.429688 87.898438 390.535156 87.804688 390.691406 87.777344 C 390.867188 87.796875 391 87.878906 391.089844 88.03125 C 391.324219 88.699219 391.234375 89.398438 391.089844 90.058594 C 390.78125 91.480469 390.394531 92.878906 390.070312 94.292969 C 389.644531 96.070312 388.859375 97.671875 387.714844 99.09375 C 386.304688 100.890625 384.769531 102.683594 382.691406 103.777344 C 381.710938 104.292969 380.761719 104.863281 379.847656 105.484375 C 379.738281 105.554688 379.621094 105.585938 379.492188 105.570312 C 379.363281 105.554688 379.253906 105.5 379.164062 105.40625 Z M 379.15625 105.453125 " fill-opacity="1" fill-rule="nonzero"/><path fill="#423f32" d="M 364.273438 134.058594 C 364.210938 133.941406 364.195312 133.820312 364.21875 133.691406 C 364.246094 133.5625 364.308594 133.453125 364.410156 133.371094 C 366.070312 132.035156 367.617188 130.5625 369.605469 129.648438 C 370.835938 129.085938 371.996094 128.371094 373.257812 127.875 C 373.3125 127.851562 373.449219 127.890625 373.460938 127.929688 C 373.480469 128.015625 373.46875 128.101562 373.425781 128.179688 C 373.121094 128.738281 372.558594 129.054688 372.027344 129.246094 C 369.339844 130.234375 367.050781 131.847656 364.851562 133.628906 C 364.644531 133.78125 364.429688 133.921875 364.207031 134.050781 Z M 364.273438 134.058594 " fill-opacity="1" fill-rule="nonzero"/><path fill="#423f32" d="M 337.378906 123.015625 C 336.222656 121.4375 336.652344 119.757812 337.191406 118.140625 C 337.394531 117.523438 338.019531 117.074219 338.726562 116.914062 C 338.894531 116.898438 339.035156 116.953125 339.144531 117.082031 C 339.207031 117.230469 339.199219 117.375 339.121094 117.515625 C 339.027344 117.65625 338.90625 117.769531 338.761719 117.855469 C 337.753906 118.578125 337.523438 119.625 337.453125 120.773438 C 337.410156 121.515625 337.835938 122.292969 337.316406 123.003906 Z M 337.378906 123.015625 " fill-opacity="1" fill-rule="nonzero"/><path fill="#423f32" d="M 337.320312 123.003906 C 338.003906 124.644531 338.25 125.871094 338.226562 127.527344 L 338.296875 127.527344 C 337.246094 126.246094 337.203125 124.710938 337.203125 123.167969 C 337.203125 123.113281 337.320312 123.058594 337.378906 123.007812 Z M 337.320312 123.003906 " fill-opacity="1" fill-rule="nonzero"/><path fill="#423f32" d="M 344.660156 185.347656 C 343.476562 184.796875 342.84375 183.503906 341.785156 182.644531 C 339.5625 180.851562 337.058594 179.621094 334.277344 178.960938 C 333.367188 178.738281 332.460938 178.488281 331.566406 178.207031 C 331.347656 178.140625 331.183594 177.898438 331.019531 177.722656 C 330.964844 177.652344 330.949219 177.574219 330.980469 177.488281 C 331.179688 177.214844 330.75 177.304688 331.089844 177.324219 C 331.175781 177.316406 331.257812 177.316406 331.34375 177.324219 C 333.746094 177.925781 336.144531 178.511719 338.421875 179.546875 C 341.210938 180.816406 343.472656 182.683594 345.367188 185.0625 C 346.378906 186.328125 347.246094 187.714844 348.460938 188.820312 C 348.535156 188.949219 348.539062 189.082031 348.46875 189.21875 C 348.328125 189.316406 348.171875 189.367188 348 189.371094 C 347.25 189.433594 346.707031 188.960938 346.160156 188.578125 C 345.394531 188.046875 344.6875 187.429688 343.953125 186.851562 C 342.40625 185.644531 340.796875 184.53125 339.039062 183.652344 C 338.988281 183.625 338.972656 183.515625 338.960938 183.433594 C 338.941406 183.261719 339.058594 183.1875 339.289062 183.234375 C 340.058594 183.390625 340.6875 183.828125 341.335938 184.242188 C 342.339844 184.878906 343.363281 185.484375 344.394531 186.082031 C 344.5625 186.15625 344.726562 186.144531 344.882812 186.046875 C 345.097656 185.835938 344.9375 185.480469 344.660156 185.347656 Z M 344.660156 185.347656 " fill-opacity="1" fill-rule="nonzero"/><path fill="#423f32" d="M 324.855469 182.433594 C 325.226562 182.222656 325.464844 182.472656 325.746094 182.667969 C 327.78125 184.074219 329.984375 185.15625 332.289062 186.066406 C 334.070312 186.769531 335.9375 186.886719 337.800781 187.078125 C 338.648438 187.171875 339.503906 187.234375 340.15625 187.882812 C 340.210938 187.945312 340.25 188.019531 340.277344 188.101562 C 340.382812 188.335938 340.304688 188.4375 340.046875 188.398438 C 339.960938 188.402344 339.875 188.394531 339.792969 188.375 C 339.0625 188.058594 338.273438 188.101562 337.523438 188.128906 C 335.503906 188.21875 333.625 187.527344 331.832031 186.863281 C 329.785156 186.105469 327.933594 184.816406 326.015625 183.722656 C 325.488281 183.425781 325.144531 182.914062 324.867188 182.375 Z M 324.855469 182.433594 " fill-opacity="1" fill-rule="nonzero"/><path fill="#423f32" d="M 324.867188 182.375 C 324.785156 182.398438 324.671875 182.46875 324.625 182.4375 C 322.496094 181.125 320.785156 179.414062 319.636719 177.175781 C 319.582031 177.070312 319.660156 176.839844 319.753906 176.734375 C 319.804688 176.679688 320.027344 176.746094 320.152344 176.796875 C 320.203125 176.820312 320.191406 176.960938 320.230469 177.03125 C 320.882812 178.25 321.742188 179.296875 322.808594 180.171875 C 323.613281 180.820312 324.296875 181.574219 324.855469 182.441406 Z M 324.867188 182.375 " fill-opacity="1" fill-rule="nonzero"/><path fill="#423f32" d="M 333.871094 151.089844 C 334.28125 151.007812 334.691406 150.878906 335.097656 150.851562 C 336.535156 150.75 337.964844 150.683594 339.40625 150.601562 C 339.816406 150.578125 340.371094 150.738281 340.597656 150.359375 C 340.941406 149.785156 340.296875 149.488281 340.015625 149.121094 C 339.25 148.105469 338.457031 147.109375 337.664062 146.117188 C 336.871094 145.125 336.054688 144.164062 335.035156 143.375 C 334.578125 143.019531 334.273438 142.476562 333.898438 142.015625 L 333.890625 142.066406 C 334.867188 141.878906 335.441406 142.539062 336.03125 143.121094 C 336.382812 143.496094 336.707031 143.894531 337.003906 144.3125 C 338.746094 146.578125 340.878906 148.371094 343.410156 149.695312 C 344.011719 150.007812 344.578125 150.390625 345.152344 150.75 C 345.210938 150.785156 345.230469 150.886719 345.253906 150.96875 C 345.320312 151.195312 345.230469 151.292969 344.992188 151.308594 C 343.289062 151.40625 341.582031 151.601562 339.886719 151.578125 C 338.191406 151.558594 336.472656 151.507812 334.773438 151.679688 C 334.402344 151.726562 334.097656 151.609375 333.851562 151.328125 Z M 333.871094 151.089844 " fill-opacity="1" fill-rule="nonzero"/><path fill="#423f32" d="M 333.898438 142.019531 C 332.964844 142.167969 332.316406 141.507812 331.625 141.117188 C 329.003906 139.644531 326.277344 138.539062 323.261719 138.234375 C 322.933594 138.203125 322.613281 138.054688 322.296875 137.945312 C 322.253906 137.929688 322.226562 137.808594 322.230469 137.742188 C 322.230469 137.675781 322.28125 137.550781 322.304688 137.550781 C 323.832031 137.617188 325.351562 137.742188 326.835938 138.175781 C 329.234375 138.871094 331.320312 140.183594 333.421875 141.46875 C 333.621094 141.59375 333.734375 141.863281 333.890625 142.066406 Z M 333.898438 142.019531 " fill-opacity="1" fill-rule="nonzero"/><path fill="#423f32" d="M 333.847656 151.335938 C 333.609375 151.414062 333.363281 151.574219 333.136719 151.554688 C 330.671875 151.335938 328.3125 150.734375 326.117188 149.554688 C 326.011719 149.5 325.980469 149.28125 325.917969 149.148438 C 326.054688 149.109375 326.21875 149 326.3125 149.042969 C 328.710938 150.171875 331.300781 150.585938 333.867188 151.089844 Z M 333.847656 151.335938 " fill-opacity="1" fill-rule="nonzero"/><path fill="#423f32" d="M 319.53125 145.367188 C 318.550781 145.542969 318.074219 144.683594 317.425781 144.253906 C 316.683594 143.757812 316.109375 143.011719 315.472656 142.367188 C 315.230469 142.125 315.496094 142.460938 315.53125 142.125 C 315.53125 142.054688 315.789062 142 315.929688 141.972656 C 316.019531 141.96875 316.097656 141.996094 316.160156 142.0625 C 317 143.003906 317.921875 143.855469 318.925781 144.621094 C 319.179688 144.820312 319.324219 145.15625 319.523438 145.425781 Z M 319.53125 145.367188 " fill-opacity="1" fill-rule="nonzero"/><path fill="#423f32" d="M 319.515625 145.425781 C 319.59375 145.390625 319.6875 145.308594 319.746094 145.328125 C 320.9375 145.75 321.945312 146.476562 322.910156 147.269531 C 323 147.34375 322.972656 147.5625 322.996094 147.710938 C 322.914062 147.71875 322.828125 147.710938 322.75 147.683594 C 321.59375 147.023438 320.300781 146.558594 319.527344 145.363281 Z M 319.515625 145.425781 " fill-opacity="1" fill-rule="nonzero"/><path fill="#423f32" d="M 359.125 177.441406 C 359.144531 177.355469 359.175781 177.277344 359.21875 177.203125 C 359.878906 176.457031 360.855469 176.257812 361.699219 175.929688 C 363.65625 175.164062 365.21875 173.847656 366.851562 172.621094 C 369.058594 170.964844 370.761719 168.863281 372.265625 166.554688 C 373.296875 164.976562 374.3125 163.414062 375.054688 161.667969 C 375.105469 161.558594 375.328125 161.484375 375.476562 161.46875 C 375.53125 161.46875 375.652344 161.691406 375.660156 161.816406 C 375.667969 161.992188 375.632812 162.15625 375.558594 162.3125 C 375.1875 163.082031 374.859375 163.882812 374.40625 164.601562 C 373.539062 165.964844 372.664062 167.34375 371.660156 168.609375 C 370.820312 169.6875 369.910156 170.699219 368.929688 171.648438 C 367.6875 172.828125 366.285156 173.730469 364.949219 174.753906 C 363.632812 175.757812 362.105469 176.304688 360.734375 177.167969 C 360.324219 177.421875 359.769531 177.429688 359.273438 177.539062 C 359.230469 177.550781 359.175781 177.476562 359.125 177.441406 Z M 359.125 177.441406 " fill-opacity="1" fill-rule="nonzero"/><path stroke-linecap="butt" transform="matrix(-0.747823, -0.000000000000000092, 0.000000000000000092, -0.748733, 232.763513, 144.350612)" fill="none" stroke-linejoin="miter" d="M 0.00239944 -0.00126958 L 231.293683 -0.00126958 " stroke="#423f32" stroke-width="1" stroke-opacity="1" stroke-miterlimit="4"/></svg>