<svg xmlns="http://www.w3.org/2000/svg" xmlns:xlink="http://www.w3.org/1999/xlink" width="336" zoomAndPan="magnify" viewBox="0 0 252 143.999998" height="192" preserveAspectRatio="xMidYMid meet" version="1.0"><defs><filter x="0%" y="0%" width="100%" height="100%" id="5f9aac2a03"><feColorMatrix values="0 0 0 0 1 0 0 0 0 1 0 0 0 0 1 0 0 0 1 0" color-interpolation-filters="sRGB"/></filter><clipPath id="89b49c902e"><path d="M 0 19 L 41.933594 19 L 41.933594 119.765625 L 0 119.765625 Z M 0 19 " clip-rule="nonzero"/></clipPath><mask id="124c9d8d20"><g filter="url(#5f9aac2a03)"><rect x="-25.2" width="302.4" fill="#000000" y="-14.4" height="172.799997" fill-opacity="0.6784"/></g></mask><clipPath id="ed32bb8c9c"><path d="M 0 0 L 105.144531 0 L 105.144531 69 L 0 69 Z M 0 0 " clip-rule="nonzero"/></clipPath><clipPath id="2381597d8e"><rect x="0" width="106" y="0" height="70"/></clipPath><clipPath id="a61cfaba6b"><path d="M 113.6875 0 L 252 0 L 252 32.667969 L 113.6875 32.667969 Z M 113.6875 0 " clip-rule="nonzero"/></clipPath><mask id="6a6cbfb80c"><g filter="url(#5f9aac2a03)"><rect x="-25.2" width="302.4" fill="#000000" y="-14.4" height="172.799997" fill-opacity="0.8471"/></g></mask><clipPath id="f2e7af0174"><path d="M 0.808594 0.320312 L 156.550781 0.320312 L 156.550781 28 L 0.808594 28 Z M 0.808594 0.320312 " clip-rule="nonzero"/></clipPath><clipPath id="25e4e1b4bc"><rect x="0" width="157" y="0" height="28"/></clipPath></defs><rect x="-25.2" width="302.4" fill="#ffffff" y="-14.4" height="172.799997" fill-opacity="1"/><rect x="-25.2" width="302.4" fill="#ffecec" y="-14.4" height="172.799997" fill-opacity="1"/><g clip-path="url(#89b49c902e)"><path fill="#ffffff" d="M 35.597656 41.527344 C 45.664062 64.5 41.632812 88.054688 29.382812 100.738281 C 17.128906 113.421875 -17.578125 138.328125 -46.3125 93.019531 C -75.042969 47.710938 -11.78125 6.328125 16.632812 23.816406 C 34.207031 34.625 35.597656 41.527344 35.597656 41.527344 Z M 35.597656 41.527344 " fill-opacity="1" fill-rule="nonzero"/></g><g mask="url(#124c9d8d20)"><g transform="matrix(1, 0, 0, 1, 0, -0.000000000000008916)"><g clip-path="url(#2381597d8e)"><g clip-path="url(#ed32bb8c9c)"><path fill="#fecd1a" d="M -1.148438 68.03125 C -2.488281 60.1875 -2.832031 52.171875 -2.144531 44.222656 C -2.28125 18.140625 -2.386719 -7.941406 -0.976562 -33.988281 C 33.910156 -32.542969 70.203125 -32.851562 105.125 -33.332031 C 104.984375 -26.246094 102.992188 -19.878906 98.757812 -14.132812 C 97.3125 -12.171875 95.664062 -10.382812 93.667969 -9.007812 C 87.855469 -5.015625 79.113281 -4.773438 75.640625 1.382812 C 72.714844 6.511719 75.191406 13.015625 74.4375 18.863281 C 73.816406 23.851562 70.789062 28.324219 66.765625 31.320312 C 62.738281 34.3125 57.820312 35.929688 52.832031 36.550781 C 48.359375 37.101562 43.507812 37.03125 39.894531 39.714844 C 35.800781 42.742188 34.632812 48.214844 32.601562 52.894531 C 27.269531 65.210938 12.234375 69.511719 -1.148438 68.03125 Z M -1.148438 68.03125 " fill-opacity="1" fill-rule="nonzero"/></g></g></g></g><path fill="#fecd1a" d="M 265.351562 106.4375 C 275.417969 129.414062 271.386719 152.964844 259.136719 165.648438 C 246.886719 178.332031 212.175781 203.238281 183.445312 157.929688 C 154.710938 112.621094 217.972656 71.238281 246.390625 88.730469 C 263.960938 99.539062 265.351562 106.4375 265.351562 106.4375 Z M 265.351562 106.4375 " fill-opacity="1" fill-rule="nonzero"/><g clip-path="url(#a61cfaba6b)"><path fill="#fabdbd" d="M 269.6875 -14.53125 L 113.6875 -14.53125 C 113.6875 -14.53125 135.960938 19.40625 149.78125 20.464844 C 163.601562 21.527344 168.480469 9.125 178.234375 14.265625 C 187.988281 19.40625 191.484375 31.96875 202.539062 32.621094 C 225.058594 33.847656 220.996094 5.699219 233.105469 4.230469 C 245.21875 2.761719 269.28125 7.820312 269.6875 -14.53125 Z M 269.6875 -14.53125 " fill-opacity="1" fill-rule="nonzero"/></g><g mask="url(#6a6cbfb80c)"><g transform="matrix(1, 0, 0, 1, 84, 116)"><g clip-path="url(#25e4e1b4bc)"><g clip-path="url(#f2e7af0174)"><path fill="#b1d4e0" d="M 156.550781 47.523438 L 0.550781 47.523438 C 0.550781 47.523438 22.824219 13.582031 36.644531 12.523438 C 50.464844 11.460938 55.339844 23.863281 65.097656 18.722656 C 74.851562 13.582031 78.347656 1.019531 89.402344 0.367188 C 111.921875 -0.855469 107.855469 27.289062 119.96875 28.757812 C 132.082031 30.226562 156.144531 25.167969 156.550781 47.523438 Z M 156.550781 47.523438 " fill-opacity="1" fill-rule="nonzero"/></g></g></g></g></svg>