<svg xmlns="http://www.w3.org/2000/svg" xmlns:xlink="http://www.w3.org/1999/xlink" width="336" zoomAndPan="magnify" viewBox="0 0 252 143.999998" height="192" preserveAspectRatio="xMidYMid meet" version="1.0"><defs><clipPath id="052d875391"><path d="M 46.886719 28.160156 L 82.886719 28.160156 L 82.886719 79.910156 L 46.886719 79.910156 Z M 46.886719 28.160156 " clip-rule="nonzero"/></clipPath><clipPath id="7c7dd25c15"><path d="M 54.292969 40.433594 L 75.292969 40.433594 L 75.292969 71.183594 L 54.292969 71.183594 Z M 54.292969 40.433594 " clip-rule="nonzero"/></clipPath></defs><rect x="-25.2" width="302.4" fill="#ffffff" y="-14.4" height="172.799997" fill-opacity="1"/><rect x="-25.2" width="302.4" fill="#cdcfc0" y="-14.4" height="172.799997" fill-opacity="1"/><path stroke-linecap="butt" transform="matrix(0.000000000000000046, -0.751984, 0.738462, 0.000000000000000045, 117.369955, 129.597563)" fill="none" stroke-linejoin="miter" d="M -0.000123806 0.00154171 L 153.598821 0.00154171 " stroke="#423f32" stroke-width="1" stroke-opacity="1" stroke-miterlimit="4"/><path stroke-linecap="butt" transform="matrix(-0.752242, -0.000000000000000092, 0.00000000000000009, -0.738462, 231.425072, 85.846785)" fill="none" stroke-linejoin="miter" d="M -0.00094321 -0.00117991 L 151.551126 -0.00117991 " stroke="#423f32" stroke-width="1" stroke-opacity="1" stroke-miterlimit="4"/><g clip-path="url(#052d875391)"><path fill="#423f32" d="M 82.875 79.878906 L 46.886719 79.878906 L 46.886719 46.300781 C 46.886719 36.3125 54.960938 28.191406 64.886719 28.191406 C 74.8125 28.191406 82.886719 36.3125 82.886719 46.300781 L 82.886719 79.878906 Z M 47.292969 79.46875 L 82.46875 79.46875 L 82.46875 46.300781 C 82.46875 36.539062 74.578125 28.601562 64.886719 28.601562 C 55.183594 28.601562 47.292969 36.539062 47.292969 46.300781 Z M 47.292969 79.46875 " fill-opacity="1" fill-rule="nonzero"/></g><g clip-path="url(#7c7dd25c15)"><path fill="#423f32" d="M 64.910156 63.03125 C 65.140625 62.707031 65.210938 62.394531 65.289062 62.089844 C 65.363281 61.796875 65.464844 61.511719 65.589844 61.238281 C 65.617188 61.167969 65.664062 61.105469 65.683594 61.03125 C 65.847656 60.433594 66.214844 59.949219 66.589844 59.476562 C 66.839844 59.15625 67.128906 58.871094 67.484375 58.640625 C 68.101562 58.25 68.765625 57.925781 69.300781 57.40625 C 69.519531 57.191406 69.777344 57.039062 70.066406 56.941406 C 70.277344 56.867188 70.46875 56.742188 70.671875 56.644531 C 70.992188 56.484375 71.339844 56.410156 71.6875 56.339844 C 71.90625 56.296875 72.082031 56.375 72.210938 56.582031 C 72.417969 56.914062 72.527344 57.257812 72.445312 57.65625 C 72.394531 57.898438 72.355469 58.140625 72.328125 58.386719 C 72.273438 58.925781 72.066406 59.402344 71.78125 59.859375 C 71.5 60.316406 71.179688 60.71875 70.769531 61.0625 C 70.480469 61.304688 70.238281 61.59375 69.9375 61.828125 C 69.539062 62.140625 69.105469 62.40625 68.640625 62.613281 C 68.539062 62.660156 68.4375 62.714844 68.347656 62.78125 C 67.675781 63.253906 66.925781 63.535156 66.136719 63.726562 C 65.804688 63.804688 65.480469 63.898438 65.152344 63.972656 C 64.992188 64.011719 64.957031 64.042969 64.941406 64.25 C 64.933594 64.289062 64.933594 64.328125 64.933594 64.363281 C 65.039062 65.550781 65.164062 66.738281 65.457031 67.894531 C 65.460938 67.914062 65.464844 67.933594 65.472656 67.949219 C 65.480469 67.964844 65.5 67.984375 65.507812 67.980469 C 65.539062 67.96875 65.566406 67.953125 65.585938 67.929688 C 65.605469 67.898438 65.605469 67.855469 65.621094 67.820312 C 65.769531 67.414062 65.914062 67.003906 66.078125 66.601562 C 66.125 66.484375 66.136719 66.386719 66.074219 66.28125 C 66.011719 66.175781 66.015625 66.066406 66.03125 65.953125 C 66.066406 65.699219 66.175781 65.480469 66.3125 65.277344 C 66.371094 65.183594 66.476562 65.121094 66.570312 65.0625 C 66.65625 65.007812 66.746094 65 66.839844 65.039062 C 66.933594 65.074219 66.996094 65.144531 67.019531 65.242188 C 67.046875 65.351562 67.046875 65.464844 67.054688 65.578125 C 67.066406 65.671875 67.125 65.714844 67.210938 65.695312 C 67.410156 65.644531 67.597656 65.6875 67.722656 65.84375 C 67.863281 66.023438 67.8125 66.242188 67.746094 66.441406 C 67.605469 66.886719 67.167969 67.125 66.726562 66.996094 C 66.585938 66.957031 66.535156 66.828125 66.492188 66.699219 C 66.484375 66.660156 66.460938 66.636719 66.421875 66.632812 C 66.382812 66.625 66.355469 66.640625 66.335938 66.675781 C 66.117188 67.011719 66.019531 67.398438 65.886719 67.769531 C 65.851562 67.878906 65.824219 67.992188 65.800781 68.101562 C 65.722656 68.453125 65.6875 68.804688 65.800781 69.15625 C 65.964844 69.660156 66.0625 70.183594 66.300781 70.660156 C 66.359375 70.777344 66.40625 70.902344 66.4375 71.03125 C 66.449219 71.078125 66.410156 71.132812 66.394531 71.1875 C 66.347656 71.160156 66.285156 71.148438 66.253906 71.109375 C 66.132812 70.960938 66.039062 70.800781 65.980469 70.617188 C 65.867188 70.238281 65.726562 69.867188 65.613281 69.484375 C 65.453125 68.945312 65.300781 68.398438 65.164062 67.847656 C 65.074219 67.480469 65.019531 67.105469 64.949219 66.734375 C 64.929688 66.628906 64.886719 66.570312 64.773438 66.558594 C 64.605469 66.542969 64.4375 66.5 64.273438 66.476562 C 63.933594 66.421875 63.597656 66.40625 63.261719 66.484375 C 62.453125 66.675781 61.644531 66.578125 60.867188 66.339844 C 60.074219 66.09375 59.339844 65.722656 58.671875 65.222656 C 58.367188 65 58.027344 64.8125 57.84375 64.46875 C 57.582031 63.984375 57.195312 63.585938 56.921875 63.113281 C 56.542969 62.457031 56.484375 61.757812 56.84375 61.054688 C 56.925781 60.894531 57.035156 60.851562 57.21875 60.910156 C 57.328125 60.941406 57.433594 60.984375 57.535156 61.027344 C 58.207031 61.328125 58.902344 61.5625 59.613281 61.730469 C 60.195312 61.863281 60.789062 61.988281 61.320312 62.292969 C 61.5 62.394531 61.679688 62.496094 61.839844 62.625 C 62.335938 63.027344 62.789062 63.480469 63.328125 63.832031 C 63.636719 64.210938 64.0625 64.476562 64.332031 64.898438 C 64.433594 65.054688 64.53125 65.21875 64.730469 65.339844 C 64.730469 65.074219 64.738281 64.832031 64.722656 64.589844 C 64.691406 64.101562 64.65625 63.609375 64.617188 63.121094 C 64.609375 63.027344 64.605469 62.925781 64.566406 62.84375 C 64.421875 62.539062 64.261719 62.242188 64.101562 61.941406 C 64.074219 61.894531 64.035156 61.855469 63.992188 61.820312 C 63.910156 61.746094 63.808594 61.742188 63.753906 61.832031 C 63.554688 62.15625 63.214844 62.140625 62.90625 62.183594 C 62.742188 62.207031 62.492188 62.015625 62.46875 61.878906 C 62.433594 61.652344 62.421875 61.425781 62.617188 61.246094 C 62.71875 61.152344 62.847656 61.125 62.964844 61.066406 C 63.046875 61.03125 63.070312 60.949219 63.003906 60.902344 C 62.832031 60.792969 62.761719 60.621094 62.699219 60.4375 C 62.621094 60.214844 62.675781 60.03125 62.859375 59.882812 C 63.015625 59.75 63.265625 59.726562 63.433594 59.863281 C 63.800781 60.167969 64.019531 60.546875 63.964844 61.046875 C 63.828125 61.304688 63.945312 61.480469 64.15625 61.617188 C 64.339844 61.742188 64.402344 61.945312 64.496094 62.128906 C 64.511719 62.160156 64.550781 62.203125 64.574219 62.199219 C 64.644531 62.195312 64.628906 62.125 64.628906 62.082031 C 64.628906 61.757812 64.609375 61.4375 64.621094 61.117188 C 64.648438 60.300781 64.6875 59.488281 64.726562 58.675781 C 64.738281 58.445312 64.734375 58.230469 64.621094 58.015625 C 64.570312 57.910156 64.488281 57.84375 64.371094 57.820312 C 64.207031 57.777344 64.039062 57.789062 63.867188 57.804688 C 62.667969 57.910156 61.46875 57.859375 60.269531 57.738281 C 59.457031 57.65625 58.683594 57.421875 57.941406 57.09375 C 57.617188 56.949219 57.316406 56.757812 57.046875 56.519531 C 56.703125 56.226562 56.328125 55.976562 55.996094 55.675781 C 55.550781 55.273438 55.039062 54.945312 54.660156 54.46875 C 54.578125 54.363281 54.492188 54.261719 54.417969 54.15625 C 54.292969 53.980469 54.316406 53.867188 54.503906 53.800781 C 54.75 53.714844 54.980469 53.589844 55.242188 53.53125 C 55.4375 53.488281 55.625 53.375 55.800781 53.273438 C 56.445312 52.910156 57.140625 52.800781 57.863281 52.796875 C 58.71875 52.789062 59.46875 53.097656 60.183594 53.550781 C 60.933594 54.027344 61.589844 54.613281 62.246094 55.210938 C 62.273438 55.234375 62.300781 55.261719 62.324219 55.292969 C 62.691406 55.796875 63.183594 56.1875 63.566406 56.679688 C 63.6875 56.832031 63.832031 56.945312 63.984375 57.058594 C 64.023438 57.089844 64.070312 57.148438 64.113281 57.082031 C 64.140625 57.03125 64.140625 56.976562 64.121094 56.921875 C 64.003906 56.621094 63.878906 56.328125 63.757812 56.03125 C 63.507812 55.402344 63.199219 54.792969 63.066406 54.121094 C 63.027344 53.933594 62.90625 53.832031 62.75 53.746094 C 62.441406 53.570312 62.132812 53.386719 61.832031 53.195312 C 61.429688 52.941406 61.058594 52.652344 60.882812 52.183594 C 60.539062 51.761719 60.375 51.265625 60.242188 50.75 C 60.195312 50.566406 60.132812 50.386719 60.066406 50.210938 C 59.878906 49.730469 59.800781 49.230469 59.757812 48.71875 C 59.730469 48.472656 59.75 48.230469 59.820312 47.992188 C 60.019531 47.34375 60.210938 46.6875 60.433594 46.046875 C 60.714844 45.230469 61.203125 44.539062 61.765625 43.898438 C 61.84375 43.8125 61.941406 43.757812 62.054688 43.738281 C 62.179688 43.714844 62.28125 43.746094 62.355469 43.84375 C 62.417969 43.917969 62.480469 43.992188 62.515625 44.078125 C 62.726562 44.625 63.054688 45.113281 63.308594 45.640625 C 63.472656 45.980469 63.628906 46.328125 63.761719 46.675781 C 63.914062 47.074219 63.949219 47.519531 64.03125 47.949219 C 64.066406 48.132812 64.078125 48.324219 64.105469 48.511719 C 64.152344 48.851562 64.152344 49.191406 64.109375 49.53125 C 64 50.394531 63.898438 51.257812 63.636719 52.09375 C 63.523438 52.453125 63.484375 52.835938 63.390625 53.199219 C 63.230469 53.816406 63.320312 54.414062 63.570312 54.972656 C 63.910156 55.730469 64.191406 56.511719 64.511719 57.273438 C 64.570312 57.410156 64.609375 57.5625 64.792969 57.636719 C 64.851562 57.335938 64.925781 57.039062 64.960938 56.742188 C 65.039062 56.003906 65.242188 55.296875 65.441406 54.585938 C 65.578125 54.09375 65.769531 53.617188 65.855469 53.109375 C 65.863281 53.054688 65.882812 53 65.910156 52.949219 C 66.117188 52.507812 66.132812 52.039062 66.09375 51.5625 C 66.066406 51.1875 66.019531 50.816406 65.980469 50.441406 C 65.945312 50.445312 65.917969 50.441406 65.90625 50.453125 C 65.726562 50.597656 65.539062 50.597656 65.332031 50.515625 C 65.140625 50.441406 65.03125 50.292969 64.949219 50.121094 C 64.917969 50.050781 64.898438 49.976562 64.886719 49.902344 C 64.832031 49.664062 65.011719 49.449219 65.257812 49.453125 C 65.414062 49.453125 65.550781 49.511719 65.691406 49.566406 C 65.796875 49.609375 65.839844 49.566406 65.832031 49.433594 C 65.820312 49.222656 65.835938 49.015625 65.917969 48.820312 C 65.960938 48.707031 66.035156 48.628906 66.164062 48.617188 C 66.292969 48.605469 66.382812 48.65625 66.457031 48.75 C 66.496094 48.792969 66.523438 48.84375 66.542969 48.894531 C 66.648438 49.269531 66.667969 49.640625 66.519531 50.007812 C 66.5 50.054688 66.464844 50.128906 66.421875 50.136719 C 66.1875 50.1875 66.226562 50.359375 66.21875 50.527344 C 66.207031 50.757812 66.246094 50.984375 66.285156 51.203125 C 66.320312 51.378906 66.195312 51.574219 66.359375 51.726562 C 66.457031 51.570312 66.570312 51.425781 66.648438 51.261719 C 66.96875 50.597656 67.28125 49.933594 67.597656 49.269531 C 67.652344 49.167969 67.679688 49.058594 67.679688 48.941406 C 67.65625 48.039062 67.886719 47.1875 68.199219 46.347656 C 68.519531 45.476562 69.082031 44.78125 69.691406 44.105469 C 70.085938 43.671875 70.539062 43.308594 71.050781 43.019531 C 71.316406 42.867188 71.542969 42.671875 71.734375 42.433594 C 71.820312 42.335938 71.914062 42.246094 72.015625 42.160156 C 72.324219 41.902344 72.632812 41.65625 72.902344 41.363281 C 72.996094 41.269531 73.097656 41.1875 73.210938 41.117188 C 73.441406 40.957031 73.6875 40.816406 73.914062 40.648438 C 74.085938 40.523438 74.277344 40.457031 74.488281 40.449219 C 74.847656 40.433594 74.917969 40.496094 75.058594 40.851562 C 75.222656 41.265625 75.238281 41.699219 75.253906 42.132812 C 75.292969 43.125 75.039062 44.042969 74.488281 44.863281 C 74.207031 45.285156 73.863281 45.660156 73.527344 46.042969 C 72.894531 46.761719 72.085938 47.253906 71.351562 47.832031 C 70.800781 48.261719 70.160156 48.546875 69.476562 48.714844 C 69.148438 48.796875 68.820312 48.886719 68.496094 48.96875 C 68.367188 49.003906 68.246094 49.054688 68.136719 49.125 C 67.957031 49.238281 67.824219 49.390625 67.730469 49.578125 C 67.386719 50.230469 67.101562 50.910156 66.773438 51.570312 C 66.464844 52.191406 66.160156 52.824219 66.027344 53.523438 C 66 53.652344 65.964844 53.777344 65.921875 53.90625 C 65.902344 53.972656 65.851562 54.089844 65.90625 54.105469 C 66.019531 54.136719 66.042969 54.007812 66.085938 53.929688 C 66.207031 53.71875 66.304688 53.496094 66.453125 53.296875 C 66.714844 52.949219 66.949219 52.585938 67.203125 52.234375 C 67.300781 52.097656 67.414062 51.972656 67.539062 51.855469 C 67.660156 51.738281 67.808594 51.648438 67.929688 51.53125 C 68.417969 51.082031 69.007812 50.855469 69.636719 50.710938 C 70.753906 50.449219 71.886719 50.273438 73.027344 50.179688 C 73.195312 50.171875 73.363281 50.183594 73.53125 50.210938 C 73.8125 50.257812 74.105469 50.585938 74.074219 50.910156 C 74.027344 51.421875 73.96875 51.914062 73.648438 52.355469 C 73.367188 52.734375 73.136719 53.144531 72.753906 53.4375 C 72.59375 53.5625 72.457031 53.730469 72.335938 53.894531 C 71.972656 54.398438 71.457031 54.714844 70.984375 55.085938 C 70.90625 55.140625 70.820312 55.183594 70.734375 55.214844 C 70.054688 55.492188 69.359375 55.722656 68.625 55.804688 C 68.421875 55.832031 68.214844 55.839844 68.007812 55.828125 C 67.410156 55.796875 66.808594 55.746094 66.210938 55.707031 C 66.042969 55.699219 65.871094 55.722656 65.703125 55.722656 C 65.523438 55.722656 65.441406 55.816406 65.398438 55.988281 C 65.335938 56.226562 65.265625 56.457031 65.238281 56.707031 C 65.152344 57.457031 65.027344 58.207031 64.976562 58.964844 C 64.894531 60.074219 64.847656 61.191406 64.902344 62.308594 C 64.914062 62.527344 64.90625 62.742188 64.910156 63.027344 Z M 61.691406 51.867188 L 61.679688 51.867188 C 61.75 52.015625 61.816406 52.171875 61.894531 52.320312 C 61.910156 52.351562 61.949219 52.367188 61.980469 52.382812 C 62.015625 52.398438 62.042969 52.378906 62.058594 52.332031 C 62.113281 52.132812 62.171875 51.933594 62.21875 51.734375 C 62.246094 51.625 62.253906 51.507812 62.28125 51.398438 C 62.289062 51.355469 62.277344 51.269531 62.367188 51.304688 C 62.394531 51.316406 62.402344 51.367188 62.417969 51.402344 C 62.433594 51.433594 62.441406 51.480469 62.460938 51.484375 C 62.5 51.488281 62.527344 51.476562 62.554688 51.449219 C 62.824219 50.988281 63 50.5 63.023438 49.957031 C 63.035156 49.617188 63.074219 49.277344 63.105469 48.941406 C 63.121094 48.847656 63.144531 48.757812 63.183594 48.675781 C 63.191406 48.652344 63.25 48.640625 63.28125 48.644531 C 63.3125 48.652344 63.359375 48.683594 63.359375 48.707031 C 63.363281 48.800781 63.355469 48.894531 63.347656 48.988281 C 63.289062 49.605469 63.203125 50.21875 63.183594 50.835938 C 63.167969 50.847656 63.148438 50.851562 63.136719 50.867188 C 62.824219 51.402344 62.539062 51.949219 62.320312 52.53125 C 62.28125 52.632812 62.320312 52.710938 62.386719 52.785156 C 62.574219 52.996094 62.761719 53.203125 63.027344 53.347656 C 63.046875 53.296875 63.058594 53.246094 63.070312 53.191406 C 63.117188 52.589844 63.175781 51.992188 63.207031 51.386719 C 63.214844 51.207031 63.269531 51.015625 63.175781 50.835938 C 63.304688 50.753906 63.304688 50.609375 63.324219 50.484375 C 63.433594 49.65625 63.535156 48.832031 63.648438 48.007812 C 63.710938 47.5625 63.632812 47.140625 63.414062 46.75 C 63.011719 46.003906 62.664062 45.234375 62.378906 44.433594 C 62.355469 44.363281 62.332031 44.289062 62.300781 44.222656 C 62.25 44.105469 62.105469 44.074219 62.03125 44.167969 C 61.449219 44.957031 60.933594 45.785156 60.660156 46.742188 C 60.621094 46.871094 60.570312 46.992188 60.527344 47.117188 C 60.492188 47.226562 60.441406 47.328125 60.421875 47.441406 C 60.300781 48.222656 60.214844 49.007812 60.328125 49.808594 C 60.386719 50.226562 60.511719 50.613281 60.636719 51.007812 C 60.691406 51.183594 60.800781 51.34375 60.886719 51.507812 C 60.894531 51.523438 60.917969 51.523438 60.9375 51.53125 C 60.941406 51.511719 60.945312 51.492188 60.949219 51.476562 C 60.96875 51.277344 60.851562 51.113281 60.800781 50.9375 C 60.679688 50.535156 60.589844 50.121094 60.652344 49.707031 C 60.792969 48.78125 61.171875 47.941406 61.667969 47.152344 C 61.699219 47.105469 61.738281 47.066406 61.785156 47.035156 C 61.808594 47.019531 61.863281 47.019531 61.882812 47.035156 C 61.910156 47.066406 61.917969 47.097656 61.90625 47.136719 C 61.820312 47.324219 61.738281 47.515625 61.628906 47.691406 C 61.296875 48.226562 61.082031 48.8125 60.945312 49.417969 C 60.734375 50.335938 60.964844 51.171875 61.476562 51.941406 C 61.496094 51.976562 61.523438 52 61.5625 52.011719 C 61.578125 52.019531 61.609375 51.980469 61.628906 51.953125 C 61.652344 51.925781 61.671875 51.898438 61.691406 51.867188 Z M 67.386719 53.304688 L 67.371094 53.304688 C 67.402344 53.359375 67.394531 53.414062 67.347656 53.457031 C 67.226562 53.574219 67.101562 53.6875 66.882812 53.882812 C 67.167969 53.773438 67.332031 53.699219 67.503906 53.636719 C 67.710938 53.5625 67.925781 53.492188 68.140625 53.417969 C 68.175781 53.410156 68.210938 53.402344 68.246094 53.402344 C 68.253906 53.402344 68.269531 53.421875 68.269531 53.429688 C 68.269531 53.445312 68.261719 53.476562 68.25 53.480469 C 68.015625 53.589844 67.769531 53.683594 67.539062 53.804688 C 67.023438 54.070312 66.582031 54.425781 66.226562 55.039062 C 66.703125 54.804688 67.121094 54.703125 67.523438 54.558594 C 67.898438 54.425781 68.285156 54.359375 68.675781 54.320312 C 68.824219 54.300781 68.976562 54.304688 69.125 54.28125 C 69.671875 54.199219 70.171875 53.996094 70.59375 53.628906 C 70.738281 53.507812 70.847656 53.351562 70.984375 53.21875 C 71.296875 52.917969 71.554688 52.574219 71.757812 52.1875 C 71.828125 52.054688 71.902344 51.921875 71.980469 51.792969 C 71.988281 51.777344 72.058594 51.773438 72.070312 51.789062 C 72.121094 51.84375 72.113281 51.753906 72.109375 51.832031 C 72.097656 52.027344 72.015625 52.199219 71.898438 52.347656 C 71.601562 52.734375 71.316406 53.132812 70.980469 53.484375 C 70.730469 53.746094 70.441406 53.957031 70.117188 54.113281 C 69.625 54.359375 69.105469 54.496094 68.554688 54.523438 C 67.886719 54.550781 67.28125 54.8125 66.667969 55.035156 C 66.632812 55.050781 66.609375 55.078125 66.59375 55.113281 C 66.582031 55.144531 66.609375 55.15625 66.660156 55.152344 C 67.148438 55.128906 67.632812 55.109375 68.121094 55.082031 C 68.816406 55.039062 69.5 54.917969 70.15625 54.671875 C 70.488281 54.546875 70.820312 54.425781 71.152344 54.289062 C 71.480469 54.152344 71.800781 53.996094 72.078125 53.765625 C 72.640625 53.296875 72.992188 52.671875 73.328125 52.039062 C 73.414062 51.878906 73.445312 51.679688 73.472656 51.496094 C 73.488281 51.378906 73.476562 51.269531 73.441406 51.160156 C 73.394531 51.007812 73.28125 50.902344 73.113281 50.886719 C 72.925781 50.863281 72.742188 50.878906 72.5625 50.933594 C 72.078125 51.082031 71.59375 51.234375 71.089844 51.304688 C 70.683594 51.359375 70.277344 51.425781 69.867188 51.46875 C 69.394531 51.519531 68.9375 51.625 68.53125 51.867188 C 68.222656 52.046875 67.953125 52.289062 67.660156 52.5 C 66.933594 53.015625 66.476562 53.746094 66.082031 54.539062 C 66.203125 54.519531 66.25 54.441406 66.304688 54.363281 C 66.609375 53.949219 66.933594 53.5625 67.386719 53.304688 Z M 70.648438 46.980469 C 70.535156 47.113281 70.398438 47.21875 70.238281 47.273438 C 69.894531 47.382812 69.632812 47.640625 69.308594 47.789062 C 69.085938 47.890625 68.890625 48.074219 68.640625 48.339844 C 68.828125 48.285156 68.921875 48.269531 69.003906 48.230469 C 69.464844 48.015625 69.941406 47.851562 70.433594 47.734375 C 70.632812 47.6875 70.835938 47.644531 71.03125 47.574219 C 71.492188 47.402344 71.921875 47.179688 72.253906 46.800781 C 72.367188 46.675781 72.496094 46.566406 72.617188 46.445312 C 72.722656 46.34375 72.84375 46.246094 72.9375 46.132812 C 73.222656 45.78125 73.507812 45.433594 73.769531 45.066406 C 73.949219 44.824219 74.097656 44.5625 74.214844 44.285156 C 74.371094 43.898438 74.5 43.507812 74.597656 43.101562 C 74.722656 42.5625 74.75 42.019531 74.679688 41.46875 C 74.628906 41.066406 74.503906 41.007812 74.160156 41.195312 C 74.03125 41.269531 73.878906 41.328125 73.785156 41.4375 C 73.527344 41.746094 73.128906 41.871094 72.878906 42.183594 C 72.8125 42.257812 72.738281 42.308594 72.648438 42.34375 C 72.417969 42.4375 72.222656 42.585938 72.027344 42.726562 C 71.949219 42.785156 71.871094 42.832031 71.785156 42.871094 C 71.398438 43.042969 71.085938 43.308594 70.828125 43.636719 C 70.597656 43.933594 70.347656 44.222656 70.152344 44.539062 C 69.925781 44.910156 69.726562 45.289062 69.554688 45.683594 C 69.765625 45.496094 69.898438 45.414062 69.984375 45.296875 C 70.242188 44.9375 70.601562 44.695312 70.945312 44.433594 C 70.96875 44.414062 71.015625 44.425781 71.054688 44.421875 C 71.042969 44.457031 71.042969 44.5 71.019531 44.519531 C 70.707031 44.785156 70.398438 45.054688 70.117188 45.363281 C 69.742188 45.78125 69.375 46.207031 69.070312 46.683594 C 69.023438 46.757812 68.933594 46.839844 68.984375 46.976562 C 69.167969 46.84375 69.335938 46.722656 69.503906 46.609375 C 69.519531 46.601562 69.554688 46.621094 69.578125 46.636719 C 69.582031 46.640625 69.578125 46.675781 69.5625 46.6875 C 69.351562 46.898438 69.128906 47.101562 68.929688 47.324219 C 68.640625 47.648438 68.394531 48.003906 68.199219 48.390625 C 68.183594 48.425781 68.175781 48.460938 68.175781 48.5 C 68.171875 48.515625 68.179688 48.550781 68.1875 48.550781 C 68.214844 48.5625 68.261719 48.574219 68.28125 48.558594 C 68.496094 48.402344 68.601562 48.152344 68.8125 47.980469 C 69.34375 47.550781 69.949219 47.257812 70.550781 46.957031 C 70.570312 46.945312 70.613281 46.976562 70.648438 46.988281 Z M 64.664062 66.113281 C 64.03125 65.132812 63.289062 64.339844 62.527344 63.5625 C 62.496094 63.539062 62.464844 63.515625 62.433594 63.5 C 61.875 63.085938 61.277344 62.734375 60.660156 62.414062 C 60.054688 62.101562 58.230469 61.648438 57.652344 61.519531 C 57.558594 61.5 57.464844 61.492188 57.371094 61.488281 C 57.316406 61.480469 57.261719 61.488281 57.207031 61.503906 C 57.140625 61.535156 57.058594 61.570312 57.03125 61.628906 C 56.9375 61.816406 56.882812 62.019531 56.96875 62.230469 C 57.023438 62.347656 57.074219 62.472656 57.113281 62.597656 C 57.25 63.015625 57.515625 63.367188 57.734375 63.734375 C 58.25 64.601562 58.953125 65.261719 59.964844 65.507812 C 60.328125 65.597656 60.699219 65.660156 61.078125 65.640625 C 61.5625 65.613281 62.050781 65.632812 62.53125 65.699219 C 63.230469 65.789062 63.941406 65.816406 64.664062 66.113281 Z M 63.972656 57.484375 C 63.972656 57.375 63.886719 57.332031 63.808594 57.28125 C 63.496094 57.074219 63.179688 56.867188 62.925781 56.589844 C 62.632812 56.269531 62.285156 56.007812 62.007812 55.671875 C 61.832031 55.457031 61.605469 55.28125 61.386719 55.101562 C 60.636719 54.484375 59.796875 54.042969 58.847656 53.824219 C 58.554688 53.757812 58.269531 53.660156 57.964844 53.648438 C 57.273438 53.617188 56.578125 53.664062 55.886719 53.6875 C 55.753906 53.6875 55.628906 53.730469 55.523438 53.8125 C 55.351562 53.941406 55.300781 54.0625 55.53125 54.195312 C 55.648438 54.265625 55.730469 54.359375 55.824219 54.457031 C 56.085938 54.726562 56.332031 55.015625 56.625 55.242188 C 56.808594 55.386719 56.953125 55.550781 57.09375 55.722656 C 57.394531 56.089844 57.746094 56.410156 58.15625 56.640625 C 58.796875 57 59.488281 57.238281 60.210938 57.375 C 60.769531 57.480469 61.332031 57.496094 61.894531 57.511719 C 62.585938 57.527344 63.277344 57.496094 63.972656 57.488281 Z M 67.40625 61.277344 C 67.25 61.480469 67.148438 61.660156 67 61.789062 C 66.410156 62.3125 65.894531 62.917969 65.25 63.386719 C 65.753906 63.171875 66.277344 63.050781 66.804688 62.953125 C 67.082031 62.902344 67.359375 62.84375 67.632812 62.78125 C 67.90625 62.71875 68.179688 62.621094 68.402344 62.453125 C 68.996094 61.992188 69.625 61.570312 70.105469 60.972656 C 70.480469 60.503906 70.871094 60.050781 71.105469 59.476562 C 71.359375 58.84375 71.617188 58.21875 71.664062 57.527344 C 71.675781 57.320312 71.714844 57.113281 71.652344 56.90625 C 71.632812 56.839844 71.585938 56.8125 71.527344 56.828125 C 71.421875 56.855469 71.300781 56.875 71.214844 56.9375 C 71.03125 57.078125 70.828125 57.167969 70.625 57.269531 C 70.441406 57.363281 70.242188 57.433594 70.078125 57.554688 C 69.820312 57.75 69.527344 57.886719 69.234375 58 C 68.847656 58.148438 68.5625 58.40625 68.285156 58.691406 C 67.539062 59.464844 66.953125 60.367188 66.300781 61.214844 C 66.289062 61.230469 66.277344 61.246094 66.265625 61.257812 C 66.078125 61.566406 65.886719 61.867188 65.710938 62.179688 C 65.601562 62.375 65.472656 62.566406 65.472656 62.808594 C 65.605469 62.78125 65.65625 62.679688 65.726562 62.589844 C 66.210938 61.96875 66.5625 61.25 67.089844 60.652344 C 67.472656 60.21875 67.78125 59.710938 68.257812 59.359375 C 68.300781 59.324219 68.332031 59.273438 68.367188 59.230469 C 68.769531 58.761719 69.289062 58.464844 69.835938 58.207031 C 69.871094 58.195312 69.90625 58.191406 69.945312 58.199219 C 69.976562 58.207031 70.003906 58.226562 70.027344 58.253906 C 70.035156 58.261719 70.023438 58.296875 70.011719 58.304688 C 69.90625 58.382812 69.808594 58.476562 69.691406 58.527344 C 69.125 58.765625 68.675781 59.175781 68.246094 59.589844 C 67.75 60.074219 67.328125 60.632812 66.917969 61.191406 C 66.707031 61.476562 66.46875 61.75 66.359375 62.132812 C 66.769531 61.929688 66.929688 61.453125 67.40625 61.277344 Z M 67.5625 52.246094 C 67.796875 52.078125 67.976562 51.964844 68.132812 51.835938 C 68.339844 51.660156 68.574219 51.550781 68.820312 51.453125 C 69.152344 51.324219 69.503906 51.253906 69.855469 51.210938 C 70.765625 51.09375 71.675781 50.972656 72.554688 50.679688 C 72.734375 50.625 72.917969 50.597656 73.105469 50.597656 C 73.421875 50.589844 73.632812 50.773438 73.691406 51.085938 C 73.707031 51.179688 73.714844 51.273438 73.71875 51.367188 C 73.71875 51.414062 73.734375 51.433594 73.78125 51.414062 C 73.800781 51.402344 73.808594 51.386719 73.8125 51.367188 C 73.824219 51.214844 73.839844 51.066406 73.835938 50.917969 C 73.828125 50.632812 73.671875 50.472656 73.386719 50.4375 C 73.085938 50.398438 72.789062 50.417969 72.488281 50.460938 C 71.96875 50.535156 71.453125 50.625 70.933594 50.691406 C 70.261719 50.777344 69.609375 50.929688 68.96875 51.152344 C 68.789062 51.210938 68.625 51.296875 68.472656 51.40625 C 68.214844 51.59375 68 51.835938 67.707031 51.972656 C 67.652344 52 67.636719 52.101562 67.5625 52.246094 Z M 69.757812 61.640625 C 69.835938 61.589844 69.914062 61.539062 69.988281 61.484375 C 70.367188 61.207031 70.714844 60.890625 71.027344 60.542969 C 71.585938 59.933594 72.003906 59.257812 72.105469 58.417969 C 72.128906 58.191406 72.167969 57.96875 72.222656 57.746094 C 72.339844 57.300781 72.21875 56.933594 71.855469 56.550781 C 71.96875 57.058594 71.886719 57.480469 71.816406 57.90625 C 71.71875 58.472656 71.515625 58.996094 71.308594 59.519531 C 71.144531 59.925781 70.921875 60.296875 70.640625 60.628906 C 70.351562 60.96875 70.074219 61.316406 69.757812 61.640625 Z M 56.066406 53.460938 C 56.3125 53.453125 56.515625 53.453125 56.722656 53.4375 C 57.210938 53.402344 57.707031 53.378906 58.179688 53.464844 C 58.710938 53.5625 59.25 53.667969 59.746094 53.90625 C 60.019531 54.03125 60.292969 54.160156 60.5625 54.285156 C 60.582031 54.292969 60.59375 54.3125 60.609375 54.316406 C 60.703125 54.339844 60.773438 54.457031 60.890625 54.402344 C 60.832031 54.328125 60.789062 54.242188 60.71875 54.183594 C 60.21875 53.777344 59.65625 53.472656 59.070312 53.21875 C 58.898438 53.144531 58.71875 53.09375 58.53125 53.0625 C 57.734375 52.933594 56.960938 53.054688 56.207031 53.320312 C 56.164062 53.335938 56.132812 53.390625 56.066406 53.460938 Z M 70.1875 44.085938 C 70.113281 44.070312 70.0625 44.128906 70.003906 44.171875 C 69.574219 44.511719 69.273438 44.96875 68.945312 45.398438 C 68.566406 45.898438 68.363281 46.492188 68.1875 47.085938 C 68.109375 47.355469 67.996094 47.621094 68 47.910156 C 68 47.964844 68.015625 47.984375 68.058594 47.972656 C 68.078125 47.96875 68.09375 47.960938 68.105469 47.945312 C 68.15625 47.847656 68.210938 47.75 68.261719 47.644531 C 68.832031 46.421875 69.53125 45.265625 70.1875 44.085938 Z M 71.527344 54.472656 C 71.265625 54.421875 71.070312 54.570312 70.871094 54.652344 C 70.085938 54.964844 69.28125 55.195312 68.4375 55.273438 C 67.859375 55.324219 67.28125 55.339844 66.703125 55.375 C 66.652344 55.378906 66.574219 55.398438 66.5625 55.429688 C 66.527344 55.523438 66.625 55.503906 66.664062 55.507812 C 67.203125 55.542969 67.742188 55.578125 68.285156 55.601562 C 68.472656 55.605469 68.660156 55.589844 68.84375 55.554688 C 69.457031 55.453125 70.046875 55.277344 70.613281 55.023438 C 70.925781 54.878906 71.25 54.722656 71.527344 54.472656 Z M 57.648438 56.632812 C 57.523438 56.488281 57.476562 56.402344 57.402344 56.351562 C 57.015625 56.082031 56.730469 55.699219 56.410156 55.363281 C 55.945312 54.871094 55.433594 54.441406 54.910156 54.015625 C 54.863281 53.976562 54.8125 53.972656 54.761719 54 C 54.691406 54.03125 54.675781 54.078125 54.714844 54.140625 C 54.777344 54.253906 54.816406 54.378906 54.917969 54.472656 C 55.394531 54.921875 55.875 55.363281 56.402344 55.746094 C 56.675781 55.945312 56.957031 56.128906 57.179688 56.386719 C 57.28125 56.503906 57.414062 56.570312 57.648438 56.632812 Z M 63.609375 66.195312 C 63.621094 66.175781 63.628906 66.152344 63.632812 66.128906 C 63.632812 66.121094 63.617188 66.101562 63.605469 66.097656 C 62.972656 66.015625 62.335938 65.933594 61.703125 65.855469 C 61.628906 65.851562 61.554688 65.855469 61.480469 65.875 C 61.238281 65.921875 60.996094 65.925781 60.753906 65.882812 C 60.714844 65.878906 60.675781 65.882812 60.640625 65.878906 C 60.585938 65.871094 60.570312 65.894531 60.589844 65.945312 C 60.597656 65.964844 60.609375 65.976562 60.625 65.984375 C 61.203125 66.242188 61.824219 66.300781 62.441406 66.308594 C 62.835938 66.316406 63.226562 66.238281 63.609375 66.195312 Z M 65.90625 61.191406 C 66.203125 61.070312 66.339844 60.835938 66.476562 60.621094 C 66.792969 60.128906 67.144531 59.667969 67.511719 59.210938 C 67.640625 59.054688 67.800781 58.914062 67.988281 58.628906 C 66.949219 59.300781 66.242188 60.070312 65.90625 61.191406 Z M 63.101562 60.683594 C 63.226562 60.761719 63.425781 60.894531 63.628906 61.023438 C 63.679688 61.058594 63.75 61.023438 63.742188 60.964844 C 63.71875 60.816406 63.695312 60.671875 63.671875 60.523438 C 63.632812 60.273438 63.460938 60.140625 63.25 60.042969 C 63.097656 59.976562 62.941406 60.074219 62.929688 60.242188 C 62.917969 60.382812 62.949219 60.503906 63.101562 60.683594 Z M 62.738281 61.859375 C 62.765625 61.882812 62.796875 61.902344 62.828125 61.917969 C 63.132812 62.023438 63.359375 61.847656 63.597656 61.707031 C 63.617188 61.695312 63.613281 61.597656 63.59375 61.554688 C 63.519531 61.414062 63.371094 61.363281 63.242188 61.292969 C 63.09375 61.214844 62.953125 61.261719 62.832031 61.359375 C 62.707031 61.460938 62.660156 61.601562 62.691406 61.761719 C 62.703125 61.792969 62.71875 61.828125 62.738281 61.859375 Z M 67.0625 66.125 C 66.816406 66.3125 66.792969 66.34375 66.753906 66.566406 C 66.726562 66.71875 66.832031 66.828125 66.980469 66.804688 C 67.269531 66.757812 67.515625 66.5 67.566406 66.199219 C 67.582031 66.089844 67.476562 65.984375 67.359375 65.988281 C 67.238281 65.992188 67.148438 66.054688 67.0625 66.125 Z M 70.773438 47.867188 C 70.183594 48.015625 69.675781 48.132812 69.214844 48.390625 C 69.121094 48.445312 68.988281 48.417969 68.929688 48.542969 C 69.042969 48.632812 69.164062 48.570312 69.277344 48.542969 C 69.460938 48.507812 69.640625 48.460938 69.816406 48.394531 C 70.125 48.277344 70.453125 48.1875 70.773438 47.867188 Z M 65.179688 50.078125 C 65.238281 50.148438 65.273438 50.191406 65.3125 50.230469 C 65.335938 50.261719 65.363281 50.28125 65.398438 50.296875 C 65.46875 50.320312 65.542969 50.328125 65.613281 50.324219 C 65.699219 50.3125 65.792969 50.164062 65.796875 50.0625 C 65.800781 49.976562 65.769531 49.914062 65.699219 49.871094 C 65.570312 49.792969 65.449219 49.707031 65.296875 49.683594 C 65.191406 49.667969 65.074219 49.796875 65.105469 49.902344 C 65.128906 49.972656 65.164062 50.039062 65.179688 50.078125 Z M 66.53125 66.015625 C 66.808594 65.914062 66.882812 65.6875 66.84375 65.402344 C 66.832031 65.308594 66.703125 65.25 66.628906 65.304688 C 66.359375 65.492188 66.269531 65.761719 66.273438 66.078125 C 66.273438 66.125 66.367188 66.171875 66.402344 66.144531 C 66.445312 66.109375 66.480469 66.066406 66.53125 66.015625 Z M 63.441406 51.511719 C 63.457031 51.554688 63.472656 51.558594 63.496094 51.527344 C 63.503906 51.511719 63.519531 51.5 63.523438 51.488281 C 63.664062 50.882812 63.785156 50.269531 63.828125 49.648438 C 63.832031 49.609375 63.875 49.523438 63.773438 49.535156 C 63.75 49.539062 63.71875 49.585938 63.710938 49.617188 C 63.625 50.0625 63.539062 50.507812 63.464844 50.953125 C 63.4375 51.121094 63.433594 51.289062 63.425781 51.460938 C 63.421875 51.476562 63.4375 51.496094 63.441406 51.511719 Z M 66.132812 48.949219 C 66.109375 48.976562 66.070312 49.003906 66.0625 49.035156 C 66.019531 49.320312 66.050781 49.59375 66.164062 49.859375 C 66.175781 49.886719 66.226562 49.898438 66.257812 49.910156 C 66.265625 49.914062 66.289062 49.898438 66.296875 49.882812 C 66.492188 49.585938 66.453125 49.28125 66.320312 48.976562 C 66.289062 48.90625 66.179688 48.894531 66.132812 48.949219 Z M 73.242188 41.375 C 73.148438 41.460938 73.058594 41.507812 73.050781 41.613281 C 73.050781 41.632812 73.050781 41.664062 73.0625 41.667969 C 73.128906 41.703125 73.03125 41.726562 73.09375 41.683594 C 73.230469 41.589844 73.363281 41.484375 73.492188 41.382812 C 73.503906 41.371094 73.507812 41.351562 73.511719 41.339844 C 73.480469 41.324219 73.441406 41.296875 73.414062 41.304688 C 73.355469 41.324219 73.296875 41.347656 73.242188 41.375 Z M 73.878906 41.050781 C 74.078125 40.976562 74.234375 40.835938 74.433594 40.789062 C 74.445312 40.785156 74.445312 40.742188 74.453125 40.714844 C 74.433594 40.710938 74.417969 40.710938 74.398438 40.710938 C 74.152344 40.710938 74.015625 40.890625 73.878906 41.050781 Z M 73.878906 41.050781 " fill-opacity="1" fill-rule="nonzero"/></g><path fill="#423f32" d="M 70.648438 46.988281 C 70.890625 46.78125 71.144531 46.59375 71.4375 46.460938 C 71.523438 46.417969 71.601562 46.367188 71.671875 46.304688 C 72.269531 45.761719 72.695312 45.109375 72.878906 44.3125 C 72.964844 43.925781 73.027344 43.535156 73.105469 43.148438 C 73.117188 43.113281 73.140625 43.09375 73.175781 43.085938 C 73.214844 43.089844 73.242188 43.109375 73.261719 43.144531 C 73.316406 43.289062 73.292969 43.445312 73.261719 43.589844 C 73.195312 43.90625 73.109375 44.214844 73.039062 44.523438 C 72.945312 44.917969 72.773438 45.269531 72.523438 45.585938 C 72.214844 45.984375 71.878906 46.378906 71.421875 46.621094 C 71.207031 46.734375 71 46.859375 70.800781 46.996094 C 70.746094 47.03125 70.695312 47.027344 70.648438 46.980469 Z M 70.648438 46.988281 " fill-opacity="1" fill-rule="nonzero"/><path fill="#423f32" d="M 67.386719 53.304688 C 67.355469 53.246094 67.367188 53.195312 67.417969 53.152344 C 67.78125 52.859375 68.117188 52.535156 68.554688 52.332031 C 68.824219 52.207031 69.078125 52.050781 69.355469 51.941406 C 69.367188 51.933594 69.398438 51.945312 69.398438 51.953125 C 69.402344 51.972656 69.402344 51.992188 69.390625 52.007812 C 69.324219 52.132812 69.203125 52.199219 69.085938 52.242188 C 68.496094 52.460938 67.996094 52.816406 67.511719 53.210938 C 67.46875 53.246094 67.421875 53.277344 67.371094 53.304688 Z M 67.386719 53.304688 " fill-opacity="1" fill-rule="nonzero"/><path fill="#423f32" d="M 61.492188 50.867188 C 61.238281 50.519531 61.332031 50.148438 61.449219 49.792969 C 61.496094 49.65625 61.632812 49.554688 61.789062 49.519531 C 61.824219 49.515625 61.855469 49.527344 61.878906 49.558594 C 61.894531 49.589844 61.890625 49.621094 61.875 49.652344 C 61.855469 49.683594 61.828125 49.710938 61.796875 49.730469 C 61.574219 49.886719 61.523438 50.117188 61.507812 50.371094 C 61.5 50.535156 61.59375 50.707031 61.480469 50.867188 Z M 61.492188 50.867188 " fill-opacity="1" fill-rule="nonzero"/><path fill="#423f32" d="M 61.480469 50.867188 C 61.628906 51.226562 61.683594 51.5 61.679688 51.863281 L 61.691406 51.863281 C 61.464844 51.582031 61.453125 51.242188 61.453125 50.902344 C 61.453125 50.890625 61.480469 50.878906 61.492188 50.867188 Z M 61.480469 50.867188 " fill-opacity="1" fill-rule="nonzero"/><path fill="#423f32" d="M 63.085938 64.632812 C 62.828125 64.507812 62.691406 64.222656 62.457031 64.035156 C 61.96875 63.636719 61.421875 63.367188 60.8125 63.21875 C 60.613281 63.171875 60.414062 63.117188 60.21875 63.054688 C 60.171875 63.039062 60.132812 62.984375 60.097656 62.945312 C 60.085938 62.929688 60.082031 62.914062 60.089844 62.894531 C 60.132812 62.835938 60.039062 62.855469 60.113281 62.859375 C 60.132812 62.855469 60.152344 62.855469 60.167969 62.859375 C 60.695312 62.992188 61.222656 63.121094 61.722656 63.351562 C 62.332031 63.628906 62.828125 64.042969 63.242188 64.566406 C 63.464844 64.847656 63.65625 65.152344 63.921875 65.398438 C 63.9375 65.425781 63.9375 65.457031 63.921875 65.484375 C 63.890625 65.507812 63.859375 65.519531 63.820312 65.519531 C 63.65625 65.535156 63.535156 65.429688 63.417969 65.34375 C 63.25 65.226562 63.09375 65.089844 62.933594 64.960938 C 62.59375 64.695312 62.242188 64.449219 61.855469 64.257812 C 61.84375 64.25 61.839844 64.226562 61.839844 64.207031 C 61.835938 64.171875 61.859375 64.152344 61.910156 64.164062 C 62.078125 64.199219 62.21875 64.296875 62.359375 64.386719 C 62.578125 64.527344 62.804688 64.660156 63.03125 64.792969 C 63.066406 64.808594 63.101562 64.804688 63.136719 64.785156 C 63.183594 64.738281 63.148438 64.660156 63.085938 64.632812 Z M 63.085938 64.632812 " fill-opacity="1" fill-rule="nonzero"/><path fill="#423f32" d="M 58.746094 63.988281 C 58.828125 63.941406 58.882812 63.996094 58.941406 64.039062 C 59.390625 64.347656 59.871094 64.589844 60.375 64.789062 C 60.765625 64.945312 61.175781 64.96875 61.585938 65.011719 C 61.769531 65.035156 61.957031 65.046875 62.101562 65.191406 C 62.113281 65.203125 62.121094 65.222656 62.128906 65.238281 C 62.152344 65.289062 62.132812 65.3125 62.078125 65.304688 C 62.058594 65.304688 62.039062 65.304688 62.023438 65.300781 C 61.863281 65.230469 61.6875 65.238281 61.523438 65.246094 C 61.082031 65.265625 60.667969 65.113281 60.277344 64.964844 C 59.828125 64.796875 59.421875 64.511719 59 64.273438 C 58.886719 64.207031 58.8125 64.09375 58.75 63.976562 Z M 58.746094 63.988281 " fill-opacity="1" fill-rule="nonzero"/><path fill="#423f32" d="M 58.75 63.972656 C 58.734375 63.980469 58.707031 63.996094 58.699219 63.988281 C 58.230469 63.699219 57.855469 63.320312 57.605469 62.828125 C 57.59375 62.804688 57.609375 62.753906 57.628906 62.730469 C 57.640625 62.71875 57.691406 62.730469 57.71875 62.742188 C 57.726562 62.746094 57.726562 62.777344 57.734375 62.792969 C 57.878906 63.0625 58.066406 63.292969 58.300781 63.488281 C 58.476562 63.628906 58.625 63.796875 58.75 63.988281 Z M 58.75 63.972656 " fill-opacity="1" fill-rule="nonzero"/><path fill="#423f32" d="M 60.722656 57.066406 C 60.8125 57.046875 60.902344 57.019531 60.992188 57.011719 C 61.308594 56.992188 61.621094 56.976562 61.9375 56.957031 C 62.027344 56.953125 62.148438 56.988281 62.199219 56.90625 C 62.273438 56.777344 62.132812 56.714844 62.070312 56.632812 C 61.902344 56.40625 61.730469 56.1875 61.554688 55.96875 C 61.382812 55.75 61.203125 55.535156 60.976562 55.363281 C 60.878906 55.285156 60.8125 55.164062 60.730469 55.0625 L 60.726562 55.074219 C 60.941406 55.03125 61.066406 55.179688 61.195312 55.308594 C 61.273438 55.390625 61.34375 55.476562 61.410156 55.570312 C 61.792969 56.070312 62.257812 56.464844 62.8125 56.757812 C 62.945312 56.828125 63.070312 56.910156 63.195312 56.992188 C 63.207031 57 63.210938 57.023438 63.21875 57.039062 C 63.234375 57.089844 63.210938 57.113281 63.160156 57.113281 C 62.789062 57.136719 62.414062 57.179688 62.042969 57.175781 C 61.671875 57.167969 61.292969 57.160156 60.921875 57.195312 C 60.839844 57.207031 60.773438 57.179688 60.71875 57.117188 Z M 60.722656 57.066406 " fill-opacity="1" fill-rule="nonzero"/><path fill="#423f32" d="M 60.730469 55.0625 C 60.523438 55.097656 60.382812 54.949219 60.230469 54.863281 C 59.65625 54.539062 59.058594 54.296875 58.398438 54.226562 C 58.328125 54.222656 58.257812 54.1875 58.1875 54.164062 C 58.179688 54.160156 58.171875 54.132812 58.171875 54.117188 C 58.171875 54.105469 58.183594 54.078125 58.1875 54.078125 C 58.523438 54.09375 58.855469 54.121094 59.183594 54.214844 C 59.707031 54.367188 60.164062 54.65625 60.625 54.941406 C 60.667969 54.96875 60.695312 55.027344 60.726562 55.074219 Z M 60.730469 55.0625 " fill-opacity="1" fill-rule="nonzero"/><path fill="#423f32" d="M 60.71875 57.121094 C 60.667969 57.136719 60.613281 57.171875 60.5625 57.167969 C 60.023438 57.121094 59.503906 56.988281 59.023438 56.726562 C 59 56.714844 58.996094 56.667969 58.980469 56.636719 C 59.011719 56.628906 59.046875 56.605469 59.066406 56.613281 C 59.59375 56.863281 60.160156 56.953125 60.722656 57.066406 Z M 60.71875 57.121094 " fill-opacity="1" fill-rule="nonzero"/><path fill="#423f32" d="M 57.582031 55.804688 C 57.367188 55.84375 57.261719 55.652344 57.121094 55.558594 C 56.957031 55.449219 56.832031 55.28125 56.691406 55.140625 C 56.636719 55.085938 56.695312 55.160156 56.703125 55.085938 C 56.703125 55.070312 56.761719 55.058594 56.792969 55.054688 C 56.8125 55.050781 56.828125 55.058594 56.84375 55.074219 C 57.027344 55.28125 57.230469 55.46875 57.449219 55.636719 C 57.503906 55.683594 57.535156 55.757812 57.578125 55.816406 Z M 57.582031 55.804688 " fill-opacity="1" fill-rule="nonzero"/><path fill="#423f32" d="M 57.578125 55.816406 C 57.59375 55.808594 57.613281 55.789062 57.628906 55.792969 C 57.890625 55.886719 58.109375 56.046875 58.320312 56.222656 C 58.339844 56.238281 58.335938 56.289062 58.339844 56.320312 C 58.320312 56.320312 58.304688 56.320312 58.285156 56.316406 C 58.03125 56.167969 57.75 56.066406 57.582031 55.800781 Z M 57.578125 55.816406 " fill-opacity="1" fill-rule="nonzero"/><path fill="#423f32" d="M 66.257812 62.882812 C 66.261719 62.867188 66.269531 62.847656 66.277344 62.832031 C 66.421875 62.667969 66.636719 62.625 66.824219 62.550781 C 67.25 62.382812 67.59375 62.089844 67.953125 61.820312 C 68.433594 61.453125 68.808594 60.992188 69.136719 60.480469 C 69.363281 60.132812 69.585938 59.789062 69.75 59.402344 C 69.761719 59.378906 69.808594 59.363281 69.839844 59.359375 C 69.855469 59.359375 69.878906 59.40625 69.882812 59.433594 C 69.882812 59.472656 69.875 59.511719 69.859375 59.542969 C 69.777344 59.714844 69.707031 59.890625 69.605469 60.050781 C 69.417969 60.351562 69.226562 60.65625 69.003906 60.933594 C 68.820312 61.171875 68.621094 61.398438 68.40625 61.605469 C 68.136719 61.867188 67.828125 62.066406 67.535156 62.292969 C 67.246094 62.511719 66.910156 62.632812 66.609375 62.824219 C 66.519531 62.878906 66.398438 62.882812 66.289062 62.90625 C 66.28125 62.910156 66.269531 62.894531 66.257812 62.882812 Z M 66.257812 62.882812 " fill-opacity="1" fill-rule="nonzero"/></svg>