<svg xmlns="http://www.w3.org/2000/svg" xmlns:xlink="http://www.w3.org/1999/xlink" width="336" zoomAndPan="magnify" viewBox="0 0 252 143.999998" height="192" preserveAspectRatio="xMidYMid meet" version="1.0"><defs><filter x="0%" y="0%" width="100%" height="100%" id="f28a1ec4df"><feColorMatrix values="0 0 0 0 1 0 0 0 0 1 0 0 0 0 1 0 0 0 1 0" color-interpolation-filters="sRGB"/></filter><clipPath id="8fca1c4618"><path d="M 0 68 L 97.398438 68 L 97.398438 144 L 0 144 Z M 0 68 " clip-rule="nonzero"/></clipPath><mask id="f63f152499"><g filter="url(#f28a1ec4df)"><rect x="-25.2" width="302.4" fill="#000000" y="-14.4" height="172.799997" fill-opacity="0.4784"/></g></mask><clipPath id="c9cfdfd5db"><rect x="0" width="90" y="0" height="5"/></clipPath></defs><path fill="#ffffff" d="M -129.378906 101.699219 L 1.429688 -27.921875 L -128.191406 102.886719 Z M -129.378906 101.699219 " fill-opacity="1" fill-rule="nonzero"/><path fill="#ffffff" d="M -127.710938 103.371094 L 3.101562 -26.253906 L -126.523438 104.558594 Z M -127.710938 103.371094 " fill-opacity="1" fill-rule="nonzero"/><path fill="#ffffff" d="M -126.039062 105.039062 L 4.769531 -24.582031 L -124.851562 106.226562 Z M -126.039062 105.039062 " fill-opacity="1" fill-rule="nonzero"/><path fill="#ffffff" d="M -124.371094 106.710938 L 6.441406 -22.910156 L -123.183594 107.898438 Z M -124.371094 106.710938 " fill-opacity="1" fill-rule="nonzero"/><path fill="#ffffff" d="M -122.699219 108.382812 L 8.113281 -21.242188 L -121.511719 109.570312 Z M -122.699219 108.382812 " fill-opacity="1" fill-rule="nonzero"/><path fill="#ffffff" d="M -121.027344 110.050781 L 9.78125 -19.570312 L -119.839844 111.238281 Z M -121.027344 110.050781 " fill-opacity="1" fill-rule="nonzero"/><path fill="#ffffff" d="M -119.359375 111.722656 L 11.453125 -17.898438 L -118.171875 112.910156 Z M -119.359375 111.722656 " fill-opacity="1" fill-rule="nonzero"/><path fill="#ffffff" d="M -117.6875 113.394531 L 13.121094 -16.230469 L -116.5 114.582031 Z M -117.6875 113.394531 " fill-opacity="1" fill-rule="nonzero"/><path fill="#ffffff" d="M -116.015625 115.0625 L 14.792969 -14.558594 L -114.828125 116.25 Z M -116.015625 115.0625 " fill-opacity="1" fill-rule="nonzero"/><path fill="#ffffff" d="M 56.730469 27.378906 L -74.078125 157 L 55.542969 26.191406 Z M 56.730469 27.378906 " fill-opacity="1" fill-rule="nonzero"/><path fill="#ffffff" d="M 55.0625 25.707031 L -75.75 155.332031 L 53.875 24.519531 Z M 55.0625 25.707031 " fill-opacity="1" fill-rule="nonzero"/><path fill="#ffffff" d="M 53.390625 24.039062 L -77.417969 153.660156 L 52.203125 22.851562 Z M 53.390625 24.039062 " fill-opacity="1" fill-rule="nonzero"/><path fill="#ffffff" d="M 51.71875 22.367188 L -79.089844 151.988281 L 50.53125 21.179688 Z M 51.71875 22.367188 " fill-opacity="1" fill-rule="nonzero"/><path fill="#ffffff" d="M 50.050781 20.695312 L -80.761719 150.320312 L 48.863281 19.507812 Z M 50.050781 20.695312 " fill-opacity="1" fill-rule="nonzero"/><path fill="#ffffff" d="M 48.378906 19.027344 L -82.429688 148.648438 L 47.191406 17.839844 Z M 48.378906 19.027344 " fill-opacity="1" fill-rule="nonzero"/><path fill="#ffffff" d="M 46.707031 17.355469 L -84.101562 146.980469 L 45.519531 16.167969 Z M 46.707031 17.355469 " fill-opacity="1" fill-rule="nonzero"/><path fill="#ffffff" d="M 45.039062 15.683594 L -85.773438 145.308594 L 43.851562 14.496094 Z M 45.039062 15.683594 " fill-opacity="1" fill-rule="nonzero"/><path fill="#ffffff" d="M 43.367188 14.015625 L -87.441406 143.636719 L 42.179688 12.828125 Z M 43.367188 14.015625 " fill-opacity="1" fill-rule="nonzero"/><path fill="#ffffff" d="M 41.699219 12.34375 L -89.113281 141.96875 L 40.511719 11.15625 Z M 41.699219 12.34375 " fill-opacity="1" fill-rule="nonzero"/><path fill="#ffffff" d="M 40.027344 10.675781 L -90.78125 140.296875 L 38.839844 9.484375 Z M 40.027344 10.675781 " fill-opacity="1" fill-rule="nonzero"/><path fill="#ffffff" d="M 38.355469 9.003906 L -92.453125 138.625 L 37.167969 7.816406 Z M 38.355469 9.003906 " fill-opacity="1" fill-rule="nonzero"/><path fill="#ffffff" d="M 36.6875 7.332031 L -94.125 136.957031 L 35.5 6.144531 Z M 36.6875 7.332031 " fill-opacity="1" fill-rule="nonzero"/><path fill="#ffffff" d="M 35.015625 5.664062 L -95.792969 135.285156 L 33.828125 4.476562 Z M 35.015625 5.664062 " fill-opacity="1" fill-rule="nonzero"/><path fill="#ffffff" d="M 33.34375 3.992188 L -97.464844 133.613281 L 32.15625 2.804688 Z M 33.34375 3.992188 " fill-opacity="1" fill-rule="nonzero"/><path fill="#ffffff" d="M 31.675781 2.320312 L -99.136719 131.945312 L 30.488281 1.132812 Z M 31.675781 2.320312 " fill-opacity="1" fill-rule="nonzero"/><path fill="#ffffff" d="M 30.003906 0.652344 L -100.804688 130.273438 L 28.816406 -0.535156 Z M 30.003906 0.652344 " fill-opacity="1" fill-rule="nonzero"/><path fill="#ffffff" d="M 28.332031 -1.019531 L -102.476562 128.605469 L 27.144531 -2.207031 Z M 28.332031 -1.019531 " fill-opacity="1" fill-rule="nonzero"/><path fill="#ffffff" d="M 26.664062 -2.691406 L -104.148438 126.933594 L 25.476562 -3.878906 Z M 26.664062 -2.691406 " fill-opacity="1" fill-rule="nonzero"/><path fill="#ffffff" d="M 24.992188 -4.359375 L -105.816406 125.261719 L 23.804688 -5.546875 Z M 24.992188 -4.359375 " fill-opacity="1" fill-rule="nonzero"/><path fill="#ffffff" d="M 23.320312 -6.03125 L -107.488281 123.59375 L 22.132812 -7.21875 Z M 23.320312 -6.03125 " fill-opacity="1" fill-rule="nonzero"/><path fill="#ffffff" d="M 21.652344 -7.703125 L -109.160156 121.921875 L 20.464844 -8.886719 Z M 21.652344 -7.703125 " fill-opacity="1" fill-rule="nonzero"/><path fill="#ffffff" d="M 19.980469 -9.371094 L -110.828125 120.25 L 18.792969 -10.558594 Z M 19.980469 -9.371094 " fill-opacity="1" fill-rule="nonzero"/><path fill="#ffffff" d="M 18.3125 -11.042969 L -112.5 118.582031 L 17.125 -12.230469 Z M 18.3125 -11.042969 " fill-opacity="1" fill-rule="nonzero"/><path fill="#ffffff" d="M 16.640625 -12.710938 L -114.167969 116.910156 L 15.453125 -13.902344 Z M 16.640625 -12.710938 " fill-opacity="1" fill-rule="nonzero"/><path fill="#ffffff" d="M -73.503906 157.578125 L 57.308594 27.953125 L -72.316406 158.765625 Z M -73.503906 157.578125 " fill-opacity="1" fill-rule="nonzero"/><path fill="#ffffff" d="M -71.832031 159.246094 L 58.976562 29.625 L -70.644531 160.433594 Z M -71.832031 159.246094 " fill-opacity="1" fill-rule="nonzero"/><path fill="#ffffff" d="M -70.160156 160.917969 L 60.648438 31.296875 L -68.976562 162.105469 Z M -70.160156 160.917969 " fill-opacity="1" fill-rule="nonzero"/><path fill="#ffffff" d="M -68.492188 162.589844 L 62.316406 32.964844 L -67.304688 163.777344 Z M -68.492188 162.589844 " fill-opacity="1" fill-rule="nonzero"/><path fill="#ffffff" d="M -66.820312 164.257812 L 63.988281 34.636719 L -65.632812 165.445312 Z M -66.820312 164.257812 " fill-opacity="1" fill-rule="nonzero"/><path fill="#ffffff" d="M -65.152344 165.929688 L 65.660156 36.308594 L -63.964844 167.117188 Z M -65.152344 165.929688 " fill-opacity="1" fill-rule="nonzero"/><path fill="#ffffff" d="M -63.480469 167.601562 L 67.328125 37.976562 L -62.292969 168.789062 Z M -63.480469 167.601562 " fill-opacity="1" fill-rule="nonzero"/><path fill="#ffffff" d="M -61.808594 169.269531 L 69 39.648438 L -60.621094 170.457031 Z M -61.808594 169.269531 " fill-opacity="1" fill-rule="nonzero"/><path fill="#ffffff" d="M -60.140625 170.941406 L 70.671875 41.316406 L -58.953125 172.128906 Z M -60.140625 170.941406 " fill-opacity="1" fill-rule="nonzero"/><path fill="#ffffff" d="M -58.46875 172.609375 L 72.34375 42.988281 L -57.28125 173.796875 Z M -58.46875 172.609375 " fill-opacity="1" fill-rule="nonzero"/><path fill="#ffffff" d="M -56.796875 174.28125 L 74.011719 44.660156 L -55.609375 175.46875 Z M -56.796875 174.28125 " fill-opacity="1" fill-rule="nonzero"/><path fill="#ffffff" d="M -55.128906 175.953125 L 75.683594 46.328125 L -53.941406 177.140625 Z M -55.128906 175.953125 " fill-opacity="1" fill-rule="nonzero"/><path fill="#ffffff" d="M -53.457031 177.621094 L 77.351562 48 L -52.269531 178.808594 Z M -53.457031 177.621094 " fill-opacity="1" fill-rule="nonzero"/><path fill="#ffffff" d="M -51.789062 179.292969 L 79.023438 49.671875 L -50.597656 180.480469 Z M -51.789062 179.292969 " fill-opacity="1" fill-rule="nonzero"/><path fill="#ffffff" d="M -50.117188 180.964844 L 80.695312 51.339844 L -48.929688 182.152344 Z M -50.117188 180.964844 " fill-opacity="1" fill-rule="nonzero"/><path fill="#ffffff" d="M -48.445312 182.632812 L 82.363281 53.011719 L -47.257812 183.820312 Z M -48.445312 182.632812 " fill-opacity="1" fill-rule="nonzero"/><path fill="#ffffff" d="M -46.777344 184.304688 L 84.035156 54.683594 L -45.589844 185.492188 Z M -46.777344 184.304688 " fill-opacity="1" fill-rule="nonzero"/><path fill="#ffffff" d="M -45.105469 185.976562 L 85.703125 56.351562 L -43.917969 187.164062 Z M -45.105469 185.976562 " fill-opacity="1" fill-rule="nonzero"/><path fill="#ffffff" d="M -43.433594 187.644531 L 87.375 58.023438 L -42.246094 188.832031 Z M -43.433594 187.644531 " fill-opacity="1" fill-rule="nonzero"/><path fill="#ffffff" d="M -41.761719 189.316406 L 89.046875 59.695312 L -40.578125 190.503906 Z M -41.761719 189.316406 " fill-opacity="1" fill-rule="nonzero"/><path fill="#ffffff" d="M -40.09375 190.988281 L 90.71875 61.363281 L -38.90625 192.175781 Z M -40.09375 190.988281 " fill-opacity="1" fill-rule="nonzero"/><path fill="#ffffff" d="M -38.421875 192.65625 L 92.386719 63.035156 L -37.234375 193.84375 Z M -38.421875 192.65625 " fill-opacity="1" fill-rule="nonzero"/><path fill="#ffffff" d="M -36.753906 194.328125 L 94.058594 64.703125 L -35.566406 195.515625 Z M -36.753906 194.328125 " fill-opacity="1" fill-rule="nonzero"/><path fill="#ffffff" d="M -35.082031 195.996094 L 95.730469 66.375 L -33.894531 197.183594 Z M -35.082031 195.996094 " fill-opacity="1" fill-rule="nonzero"/><g clip-path="url(#8fca1c4618)"><path fill="#ffffff" d="M -33.410156 197.667969 L 97.398438 68.046875 L -32.222656 198.855469 Z M -33.410156 197.667969 " fill-opacity="1" fill-rule="nonzero"/></g><g mask="url(#f63f152499)"><g transform="matrix(1, 0, 0, 1, 124, 43)"><g clip-path="url(#c9cfdfd5db)"><path stroke-linecap="butt" transform="matrix(-0.750411, -0.000000000000000092, 0.000000000000000092, -0.75, 87.92809, 3.093241)" fill="none" stroke-linejoin="miter" d="M -0.00212926 0.499322 L 113.945778 0.499322 " stroke="#a6a6a6" stroke-width="1" stroke-opacity="1" stroke-miterlimit="4"/></g></g></g></svg>