<svg xmlns="http://www.w3.org/2000/svg" xmlns:xlink="http://www.w3.org/1999/xlink" width="816" zoomAndPan="magnify" viewBox="0 0 612 791.999994" height="1056" preserveAspectRatio="xMidYMid meet" version="1.0"><defs><clipPath id="4b75b505b9"><path d="M 400.332031 32.503906 L 563.832031 32.503906 L 563.832031 266.503906 L 400.332031 266.503906 Z M 400.332031 32.503906 " clip-rule="nonzero"/></clipPath><clipPath id="d654a61a0c"><path d="M 434 88.09375 L 530.621094 88.09375 L 530.621094 228.34375 L 434 228.34375 Z M 434 88.09375 " clip-rule="nonzero"/></clipPath></defs><rect x="-61.2" width="734.4" fill="#ffffff" y="-79.199999" height="950.399992" fill-opacity="1"/><rect x="-61.2" width="734.4" fill="#cdcfc0" y="-79.199999" height="950.399992" fill-opacity="1"/><path stroke-linecap="butt" transform="matrix(0.000000000000000138, -2.248048, 2.25, 0.000000000000000138, 305.99943, 730.799504)" fill="none" stroke-linejoin="miter" d="M -0.000568277 0.000253133 L 174.15222 0.000253133 " stroke="#423f32" stroke-width="1" stroke-opacity="1" stroke-miterlimit="4"/><path stroke-linecap="butt" transform="matrix(-2.251131, -0.000000000000000276, 0.000000000000000276, -2.25, 564.023422, 303.928599)" fill="none" stroke-linejoin="miter" d="M -0.00000668705 -0.000483992 L 227.885418 -0.000483992 " stroke="#423f32" stroke-width="1" stroke-opacity="1" stroke-miterlimit="4"/><g clip-path="url(#4b75b505b9)"><path fill="#423f32" d="M 563.785156 266.367188 L 400.332031 266.367188 L 400.332031 114.535156 C 400.332031 69.367188 436.992188 32.640625 482.082031 32.640625 C 527.167969 32.640625 563.832031 69.367188 563.832031 114.535156 L 563.832031 266.367188 Z M 402.183594 264.511719 L 561.933594 264.511719 L 561.933594 114.535156 C 561.933594 70.386719 526.101562 34.496094 482.082031 34.496094 C 438.011719 34.496094 402.183594 70.386719 402.183594 114.535156 Z M 402.183594 264.511719 " fill-opacity="1" fill-rule="nonzero"/></g><g clip-path="url(#d654a61a0c)"><path fill="#423f32" d="M 482.777344 191.152344 C 483.851562 189.671875 484.164062 188.242188 484.519531 186.859375 C 484.875 185.527344 485.339844 184.230469 485.90625 182.96875 C 486.042969 182.652344 486.261719 182.359375 486.351562 182.035156 C 487.105469 179.300781 488.796875 177.097656 490.511719 174.945312 C 491.675781 173.484375 493 172.171875 494.644531 171.132812 C 497.480469 169.347656 500.535156 167.863281 503 165.488281 C 504.019531 164.523438 505.199219 163.816406 506.53125 163.371094 C 507.496094 163.039062 508.390625 162.46875 509.316406 162.015625 C 510.800781 161.292969 512.40625 160.953125 514.003906 160.632812 C 515.019531 160.429688 515.8125 160.792969 516.410156 161.734375 C 517.375 163.253906 517.878906 164.820312 517.492188 166.632812 C 517.257812 167.734375 517.082031 168.84375 516.957031 169.960938 C 516.691406 172.421875 515.742188 174.59375 514.4375 176.679688 C 513.132812 178.765625 511.664062 180.601562 509.765625 182.179688 C 508.445312 183.277344 507.316406 184.59375 505.941406 185.65625 C 504.097656 187.097656 502.105469 188.292969 499.964844 189.246094 C 499.492188 189.457031 499.039062 189.710938 498.613281 190.011719 C 495.519531 192.160156 492.0625 193.445312 488.425781 194.3125 C 486.910156 194.671875 485.417969 195.101562 483.902344 195.449219 C 483.15625 195.617188 483.003906 195.769531 482.921875 196.714844 C 482.898438 196.886719 482.886719 197.058594 482.890625 197.230469 C 483.382812 202.648438 483.953125 208.050781 485.304688 213.339844 C 485.320312 213.425781 485.34375 213.507812 485.378906 213.585938 C 485.410156 213.648438 485.507812 213.738281 485.53125 213.726562 C 485.675781 213.679688 485.796875 213.601562 485.898438 213.488281 C 485.988281 213.351562 485.988281 213.160156 486.050781 212.996094 C 486.746094 211.136719 487.414062 209.269531 488.160156 207.429688 C 488.378906 206.898438 488.4375 206.449219 488.140625 205.972656 C 487.847656 205.492188 487.875 204.992188 487.949219 204.46875 C 488.105469 203.324219 488.617188 202.320312 489.238281 201.386719 C 489.511719 200.972656 489.992188 200.675781 490.433594 200.410156 C 490.617188 200.296875 490.820312 200.226562 491.039062 200.207031 C 491.257812 200.1875 491.472656 200.21875 491.675781 200.300781 C 491.878906 200.382812 492.054688 200.503906 492.199219 200.671875 C 492.34375 200.835938 492.445312 201.023438 492.5 201.238281 C 492.621094 201.730469 492.617188 202.257812 492.667969 202.769531 C 492.714844 203.199219 492.980469 203.390625 493.371094 203.292969 C 494.300781 203.070312 495.164062 203.261719 495.734375 203.980469 C 496.386719 204.796875 496.148438 205.789062 495.855469 206.699219 C 495.203125 208.734375 493.183594 209.824219 491.140625 209.238281 C 490.492188 209.050781 490.269531 208.46875 490.078125 207.871094 C 490.035156 207.699219 489.925781 207.601562 489.75 207.574219 C 489.570312 207.550781 489.4375 207.613281 489.347656 207.765625 C 488.332031 209.300781 487.898438 211.074219 487.28125 212.769531 C 487.117188 213.265625 486.988281 213.769531 486.890625 214.28125 C 486.527344 215.886719 486.363281 217.488281 486.890625 219.09375 C 487.640625 221.382812 488.09375 223.765625 489.195312 225.945312 C 489.460938 226.488281 489.667969 227.054688 489.816406 227.640625 C 489.871094 227.84375 489.6875 228.109375 489.613281 228.34375 C 489.398438 228.230469 489.117188 228.167969 488.972656 227.992188 C 488.410156 227.328125 487.992188 226.578125 487.71875 225.75 C 487.183594 224.019531 486.539062 222.324219 486.027344 220.589844 C 485.292969 218.117188 484.585938 215.625 483.960938 213.113281 C 483.546875 211.445312 483.285156 209.738281 482.96875 208.042969 C 482.878906 207.566406 482.679688 207.300781 482.144531 207.246094 C 481.371094 207.160156 480.609375 206.980469 479.839844 206.859375 C 478.289062 206.613281 476.742188 206.539062 475.191406 206.898438 C 471.457031 207.765625 467.734375 207.332031 464.164062 206.246094 C 460.5 205.121094 457.125 203.421875 454.042969 201.144531 C 452.648438 200.125 451.078125 199.277344 450.226562 197.710938 C 449.019531 195.496094 447.242188 193.679688 445.984375 191.53125 C 444.230469 188.535156 443.972656 185.335938 445.628906 182.140625 C 446.011719 181.402344 446.511719 181.210938 447.359375 181.46875 C 447.851562 181.625 448.335938 181.808594 448.8125 182.019531 C 451.90625 183.378906 455.097656 184.445312 458.390625 185.214844 C 461.066406 185.832031 463.800781 186.402344 466.242188 187.78125 C 467.070312 188.246094 467.90625 188.714844 468.640625 189.304688 C 470.921875 191.136719 473.015625 193.203125 475.488281 194.800781 C 476.910156 196.539062 478.882812 197.75 480.125 199.667969 C 480.582031 200.378906 481.046875 201.128906 481.957031 201.679688 C 481.945312 200.472656 481.984375 199.363281 481.917969 198.265625 C 481.78125 196.027344 481.609375 193.789062 481.433594 191.554688 C 481.402344 191.132812 481.382812 190.671875 481.207031 190.304688 C 480.527344 188.910156 479.792969 187.546875 479.0625 186.179688 C 478.925781 185.96875 478.753906 185.785156 478.554688 185.632812 C 478.179688 185.296875 477.714844 185.273438 477.453125 185.6875 C 476.53125 187.167969 474.972656 187.09375 473.554688 187.289062 C 472.796875 187.390625 471.636719 186.515625 471.535156 185.894531 C 471.367188 184.859375 471.328125 183.832031 472.21875 183.007812 C 472.6875 182.574219 473.285156 182.457031 473.828125 182.199219 C 474.203125 182.023438 474.308594 181.648438 474 181.449219 C 473.214844 180.9375 472.890625 180.152344 472.605469 179.328125 C 472.445312 178.871094 472.429688 178.40625 472.566406 177.941406 C 472.699219 177.476562 472.957031 177.09375 473.335938 176.789062 C 474.046875 176.191406 475.210938 176.078125 475.984375 176.710938 C 477.667969 178.082031 478.671875 179.824219 478.433594 182.09375 C 477.800781 183.273438 478.332031 184.070312 479.304688 184.707031 C 480.160156 185.265625 480.4375 186.199219 480.867188 187.042969 C 480.9375 187.179688 481.117188 187.375 481.234375 187.363281 C 481.554688 187.335938 481.492188 187.023438 481.492188 186.8125 C 481.488281 185.347656 481.402344 183.878906 481.453125 182.417969 C 481.582031 178.707031 481.757812 174.992188 481.941406 171.28125 C 481.996094 170.238281 481.976562 169.257812 481.445312 168.28125 C 481.214844 167.792969 480.832031 167.496094 480.304688 167.386719 C 479.535156 167.191406 478.761719 167.242188 477.980469 167.308594 C 472.445312 167.792969 466.925781 167.554688 461.410156 167.007812 C 457.667969 166.636719 454.109375 165.566406 450.691406 164.078125 C 449.183594 163.40625 447.804688 162.535156 446.558594 161.457031 C 444.984375 160.121094 443.25 158.972656 441.714844 157.601562 C 439.660156 155.769531 437.3125 154.261719 435.5625 152.09375 C 435.183594 151.625 434.796875 151.15625 434.445312 150.664062 C 433.882812 149.878906 433.988281 149.355469 434.84375 149.054688 C 435.980469 148.65625 437.046875 148.082031 438.246094 147.820312 C 439.152344 147.625 440.007812 147.113281 440.828125 146.652344 C 443.78125 144.996094 446.988281 144.484375 450.316406 144.464844 C 454.265625 144.441406 457.722656 145.839844 461.007812 147.910156 C 464.460938 150.085938 467.492188 152.765625 470.507812 155.476562 C 470.636719 155.589844 470.757812 155.714844 470.863281 155.851562 C 472.554688 158.164062 474.835938 159.941406 476.601562 162.179688 C 477.144531 162.867188 477.816406 163.398438 478.515625 163.90625 C 478.695312 164.042969 478.917969 164.320312 479.113281 164.015625 C 479.230469 163.777344 479.242188 163.535156 479.152344 163.285156 C 478.617188 161.921875 478.03125 160.578125 477.480469 159.21875 C 476.324219 156.347656 474.894531 153.574219 474.28125 150.503906 C 474.109375 149.648438 473.542969 149.203125 472.832031 148.800781 C 471.402344 148 469.984375 147.167969 468.597656 146.296875 C 466.75 145.132812 465.050781 143.820312 464.226562 141.679688 C 462.652344 139.757812 461.894531 137.480469 461.277344 135.128906 C 461.054688 134.296875 460.785156 133.480469 460.464844 132.683594 C 459.597656 130.484375 459.246094 128.207031 459.039062 125.871094 C 458.921875 124.746094 459.019531 123.640625 459.34375 122.558594 C 460.261719 119.59375 461.132812 116.609375 462.160156 113.679688 C 463.464844 109.96875 465.699219 106.808594 468.296875 103.886719 C 468.65625 103.488281 469.101562 103.246094 469.632812 103.160156 C 470.199219 103.050781 470.664062 103.199219 471.019531 103.636719 C 471.296875 103.972656 471.589844 104.3125 471.746094 104.707031 C 472.726562 107.203125 474.234375 109.429688 475.402344 111.828125 C 476.15625 113.378906 476.882812 114.960938 477.492188 116.550781 C 478.191406 118.378906 478.363281 120.410156 478.730469 122.359375 C 478.890625 123.203125 478.949219 124.066406 479.070312 124.921875 C 479.285156 126.46875 479.292969 128.019531 479.089844 129.570312 C 478.585938 133.511719 478.125 137.449219 476.910156 141.265625 C 476.386719 142.902344 476.21875 144.648438 475.777344 146.316406 C 475.039062 149.125 475.457031 151.855469 476.605469 154.390625 C 478.175781 157.847656 479.464844 161.410156 480.949219 164.894531 C 481.214844 165.511719 481.402344 166.203125 482.238281 166.546875 C 482.503906 165.171875 482.859375 163.828125 483.007812 162.464844 C 483.371094 159.097656 484.320312 155.867188 485.226562 152.625 C 485.859375 150.382812 486.742188 148.214844 487.128906 145.902344 C 487.179688 145.644531 487.265625 145.402344 487.386719 145.167969 C 488.351562 143.15625 488.417969 141.015625 488.238281 138.847656 C 488.101562 137.140625 487.894531 135.4375 487.722656 133.734375 C 487.542969 133.753906 487.429688 133.734375 487.375 133.773438 C 486.546875 134.441406 485.675781 134.441406 484.71875 134.066406 C 483.839844 133.71875 483.339844 133.046875 482.957031 132.261719 C 482.824219 131.941406 482.730469 131.609375 482.671875 131.265625 C 482.425781 130.179688 483.257812 129.203125 484.382812 129.214844 C 485.097656 129.214844 485.730469 129.488281 486.375 129.746094 C 486.859375 129.941406 487.066406 129.746094 487.03125 129.125 C 486.976562 128.164062 487.050781 127.226562 487.417969 126.328125 C 487.625 125.816406 487.96875 125.46875 488.5625 125.40625 C 489.15625 125.347656 489.570312 125.59375 489.914062 126.015625 C 490.089844 126.210938 490.21875 126.433594 490.308594 126.683594 C 490.796875 128.375 490.886719 130.074219 490.199219 131.746094 C 490.105469 131.972656 489.933594 132.296875 489.746094 132.335938 C 488.675781 132.570312 488.851562 133.347656 488.8125 134.125 C 488.757812 135.179688 488.925781 136.195312 489.121094 137.210938 C 489.273438 138 488.695312 138.898438 489.464844 139.59375 C 489.910156 138.886719 490.429688 138.21875 490.792969 137.464844 C 492.273438 134.441406 493.699219 131.40625 495.167969 128.378906 C 495.410156 127.914062 495.535156 127.421875 495.53125 126.894531 C 495.429688 122.769531 496.496094 118.890625 497.925781 115.058594 C 499.414062 111.085938 501.992188 107.914062 504.796875 104.839844 C 506.617188 102.84375 508.707031 101.191406 511.066406 99.878906 C 512.285156 99.1875 513.335938 98.300781 514.21875 97.214844 C 514.613281 96.757812 515.046875 96.34375 515.519531 95.964844 C 516.929688 94.777344 518.355469 93.664062 519.589844 92.320312 C 520.019531 91.890625 520.496094 91.515625 521.011719 91.191406 C 522.085938 90.472656 523.214844 89.828125 524.261719 89.066406 C 525.050781 88.488281 525.933594 88.1875 526.910156 88.160156 C 528.566406 88.089844 528.890625 88.371094 529.53125 89.992188 C 530.292969 91.878906 530.351562 93.859375 530.429688 95.839844 C 530.605469 100.367188 529.433594 104.554688 526.902344 108.296875 C 525.609375 110.214844 524.019531 111.921875 522.476562 113.660156 C 519.566406 116.945312 515.84375 119.191406 512.445312 121.835938 C 509.921875 123.792969 506.964844 125.09375 503.8125 125.859375 C 502.296875 126.222656 500.800781 126.632812 499.292969 127.015625 C 498.703125 127.164062 498.152344 127.402344 497.640625 127.730469 C 496.824219 128.25 496.203125 128.9375 495.773438 129.800781 C 494.199219 132.773438 492.878906 135.867188 491.363281 138.871094 C 489.945312 141.707031 488.53125 144.605469 487.929688 147.78125 C 487.796875 148.371094 487.636719 148.953125 487.445312 149.523438 C 487.351562 149.839844 487.125 150.359375 487.367188 150.433594 C 487.890625 150.589844 488 150 488.199219 149.644531 C 488.75 148.667969 489.210938 147.65625 489.894531 146.746094 C 491.089844 145.167969 492.167969 143.503906 493.339844 141.90625 C 493.800781 141.285156 494.316406 140.710938 494.886719 140.179688 C 495.449219 139.648438 496.125 139.230469 496.695312 138.703125 C 498.9375 136.652344 501.652344 135.625 504.5625 134.960938 C 509.707031 133.765625 514.910156 132.957031 520.175781 132.53125 C 520.957031 132.492188 521.730469 132.542969 522.496094 132.683594 C 523.796875 132.886719 525.132812 134.386719 524.996094 135.867188 C 524.785156 138.203125 524.507812 140.445312 523.023438 142.453125 C 521.742188 144.1875 520.671875 146.050781 518.910156 147.398438 C 518.171875 147.96875 517.546875 148.726562 516.992188 149.488281 C 515.316406 151.769531 512.9375 153.222656 510.753906 154.910156 C 510.398438 155.15625 510.015625 155.355469 509.605469 155.5 C 506.476562 156.773438 503.28125 157.824219 499.902344 158.191406 C 498.957031 158.308594 498.007812 158.34375 497.054688 158.304688 C 494.292969 158.152344 491.53125 157.917969 488.765625 157.753906 C 487.996094 157.707031 487.214844 157.816406 486.441406 157.8125 C 485.601562 157.8125 485.238281 158.242188 485.03125 159.023438 C 484.742188 160.109375 484.414062 161.171875 484.285156 162.300781 C 483.898438 165.734375 483.328125 169.15625 483.078125 172.597656 C 482.710938 177.671875 482.496094 182.761719 482.75 187.855469 C 482.800781 188.84375 482.769531 189.839844 482.777344 191.140625 Z M 467.964844 140.226562 L 467.894531 140.226562 C 468.21875 140.914062 468.539062 141.617188 468.886719 142.296875 C 468.953125 142.433594 469.144531 142.511719 469.292969 142.585938 C 469.441406 142.660156 469.578125 142.570312 469.640625 142.355469 C 469.894531 141.445312 470.164062 140.539062 470.390625 139.621094 C 470.515625 139.121094 470.546875 138.601562 470.664062 138.097656 C 470.707031 137.902344 470.652344 137.496094 471.070312 137.671875 C 471.183594 137.722656 471.222656 137.957031 471.296875 138.105469 C 471.367188 138.253906 471.40625 138.460938 471.503906 138.488281 C 471.671875 138.511719 471.8125 138.457031 471.925781 138.332031 C 473.175781 136.230469 473.992188 133.996094 474.089844 131.519531 C 474.152344 129.972656 474.316406 128.425781 474.472656 126.886719 C 474.535156 126.464844 474.65625 126.058594 474.832031 125.667969 C 474.871094 125.574219 475.136719 125.515625 475.277344 125.542969 C 475.417969 125.570312 475.632812 125.71875 475.636719 125.824219 C 475.648438 126.253906 475.628906 126.679688 475.582031 127.105469 C 475.324219 129.914062 474.921875 132.707031 474.835938 135.535156 C 474.765625 135.578125 474.660156 135.605469 474.621094 135.671875 C 473.175781 138.109375 471.855469 140.605469 470.851562 143.261719 C 470.679688 143.722656 470.84375 144.085938 471.152344 144.425781 C 472.019531 145.378906 472.886719 146.332031 474.109375 146.976562 C 474.195312 146.75 474.257812 146.515625 474.300781 146.273438 C 474.527344 143.53125 474.800781 140.792969 474.929688 138.046875 C 474.96875 137.222656 475.222656 136.339844 474.792969 135.523438 C 475.386719 135.144531 475.390625 134.5 475.46875 133.917969 C 475.980469 130.15625 476.445312 126.390625 476.976562 122.632812 C 477.265625 120.59375 476.90625 118.679688 475.890625 116.886719 C 474.027344 113.492188 472.441406 109.972656 471.128906 106.328125 C 471.011719 106.003906 470.910156 105.675781 470.769531 105.367188 C 470.53125 104.832031 469.855469 104.691406 469.53125 105.125 C 466.835938 108.722656 464.460938 112.492188 463.199219 116.867188 C 463.03125 117.445312 462.789062 118.003906 462.59375 118.574219 C 462.421875 119.058594 462.195312 119.535156 462.117188 120.039062 C 461.546875 123.613281 461.152344 127.1875 461.671875 130.835938 C 461.949219 132.742188 462.519531 134.523438 463.09375 136.316406 C 463.351562 137.121094 463.847656 137.84375 464.246094 138.597656 C 464.277344 138.65625 464.402344 138.664062 464.484375 138.695312 C 464.5 138.613281 464.527344 138.527344 464.535156 138.441406 C 464.621094 137.539062 464.085938 136.792969 463.84375 135.988281 C 463.304688 134.148438 462.878906 132.277344 463.167969 130.386719 C 463.8125 126.15625 465.558594 122.324219 467.839844 118.726562 C 467.984375 118.511719 468.167969 118.335938 468.382812 118.199219 C 468.496094 118.125 468.753906 118.113281 468.835938 118.191406 C 468.957031 118.328125 468.996094 118.484375 468.953125 118.660156 C 468.546875 119.515625 468.164062 120.382812 467.667969 121.183594 C 466.144531 123.628906 465.152344 126.292969 464.515625 129.066406 C 463.550781 133.253906 464.609375 137.070312 466.960938 140.578125 C 467.058594 140.726562 467.1875 140.835938 467.355469 140.898438 C 467.425781 140.917969 467.574219 140.738281 467.667969 140.632812 C 467.773438 140.503906 467.871094 140.367188 467.964844 140.226562 Z M 494.1875 146.796875 L 494.117188 146.78125 C 494.179688 146.898438 494.199219 147.023438 494.179688 147.152344 C 494.15625 147.28125 494.097656 147.394531 494.003906 147.484375 C 493.453125 148.015625 492.871094 148.527344 491.875 149.433594 C 493.175781 148.917969 493.941406 148.59375 494.726562 148.308594 C 495.691406 147.957031 496.679688 147.636719 497.660156 147.3125 C 497.820312 147.265625 497.988281 147.242188 498.15625 147.238281 C 498.191406 147.238281 498.261719 147.316406 498.257812 147.355469 C 498.253906 147.4375 498.230469 147.5625 498.171875 147.589844 C 497.082031 148.085938 495.957031 148.519531 494.890625 149.0625 C 492.511719 150.28125 490.488281 151.910156 488.851562 154.699219 C 491.046875 153.632812 492.96875 153.171875 494.820312 152.511719 C 496.550781 151.894531 498.328125 151.605469 500.132812 151.414062 C 500.820312 151.339844 501.507812 151.34375 502.199219 151.242188 C 504.726562 150.867188 507.019531 149.933594 508.972656 148.265625 C 509.621094 147.714844 510.132812 146.996094 510.761719 146.40625 C 512.203125 145.023438 513.394531 143.453125 514.328125 141.6875 C 514.65625 141.082031 514.988281 140.476562 515.351562 139.890625 C 515.394531 139.820312 515.707031 139.804688 515.769531 139.878906 C 516.003906 140.132812 515.957031 139.71875 515.941406 140.066406 C 515.898438 140.964844 515.507812 141.742188 514.976562 142.421875 C 513.601562 144.183594 512.28125 146.003906 510.742188 147.609375 C 509.589844 148.800781 508.269531 149.757812 506.777344 150.476562 C 504.503906 151.605469 502.101562 152.226562 499.570312 152.339844 C 496.484375 152.476562 493.707031 153.660156 490.878906 154.675781 C 490.722656 154.761719 490.613281 154.882812 490.542969 155.042969 C 490.476562 155.171875 490.609375 155.226562 490.847656 155.214844 C 493.089844 155.101562 495.332031 155.019531 497.570312 154.886719 C 500.777344 154.695312 503.917969 154.15625 506.9375 153.03125 C 508.476562 152.460938 510.015625 151.894531 511.53125 151.273438 C 513.042969 150.648438 514.519531 149.945312 515.800781 148.890625 C 518.390625 146.757812 520.003906 143.902344 521.554688 141.019531 C 521.953125 140.28125 522.09375 139.378906 522.230469 138.53125 C 522.292969 138.011719 522.242188 137.507812 522.074219 137.011719 C 521.859375 136.308594 521.34375 135.828125 520.574219 135.757812 C 519.714844 135.652344 518.863281 135.722656 518.03125 135.964844 C 515.808594 136.652344 513.578125 137.351562 511.257812 137.664062 C 509.378906 137.917969 507.503906 138.214844 505.617188 138.417969 C 503.445312 138.648438 501.332031 139.121094 499.453125 140.226562 C 498.046875 141.050781 496.804688 142.164062 495.457031 143.113281 C 492.097656 145.472656 490.003906 148.800781 488.179688 152.417969 C 488.730469 152.328125 488.953125 151.96875 489.214844 151.621094 C 490.605469 149.738281 492.109375 147.96875 494.1875 146.796875 Z M 509.21875 117.949219 C 508.699219 118.546875 508.066406 119.039062 507.328125 119.273438 C 505.738281 119.777344 504.539062 120.953125 503.039062 121.632812 C 502.011719 122.097656 501.121094 122.9375 499.960938 124.144531 C 500.839844 123.894531 501.265625 123.828125 501.636719 123.652344 C 503.757812 122.671875 505.953125 121.914062 508.226562 121.382812 C 509.148438 121.160156 510.085938 120.972656 510.972656 120.644531 C 513.09375 119.871094 515.078125 118.859375 516.613281 117.128906 C 517.125 116.550781 517.722656 116.050781 518.28125 115.511719 C 518.777344 115.035156 519.324219 114.597656 519.757812 114.070312 C 521.066406 112.476562 522.394531 110.890625 523.59375 109.21875 C 524.414062 108.105469 525.097656 106.914062 525.640625 105.644531 C 526.371094 103.894531 526.960938 102.097656 527.40625 100.253906 C 527.988281 97.796875 528.113281 95.3125 527.785156 92.808594 C 527.546875 90.964844 526.96875 90.710938 525.394531 91.5625 C 524.792969 91.890625 524.09375 92.164062 523.671875 92.664062 C 522.480469 94.066406 520.640625 94.644531 519.484375 96.070312 C 519.191406 96.398438 518.835938 96.640625 518.421875 96.800781 C 517.367188 97.230469 516.46875 97.898438 515.558594 98.550781 C 515.210938 98.804688 514.839844 99.019531 514.445312 99.195312 C 512.671875 99.984375 511.230469 101.1875 510.039062 102.699219 C 508.972656 104.050781 507.832031 105.359375 506.921875 106.8125 C 505.886719 108.492188 504.96875 110.234375 504.171875 112.035156 C 505.15625 111.179688 505.769531 110.800781 506.15625 110.269531 C 507.34375 108.621094 509.003906 107.519531 510.585938 106.332031 C 510.695312 106.246094 510.910156 106.292969 511.078125 106.273438 C 511.03125 106.425781 511.03125 106.632812 510.929688 106.71875 C 509.484375 107.9375 508.066406 109.152344 506.777344 110.566406 C 505.03125 112.480469 503.351562 114.417969 501.953125 116.589844 C 501.738281 116.925781 501.320312 117.300781 501.539062 117.921875 C 502.394531 117.324219 503.164062 116.777344 503.949219 116.25 C 504.007812 116.210938 504.179688 116.308594 504.277344 116.371094 C 504.300781 116.386719 504.277344 116.554688 504.21875 116.605469 C 503.246094 117.574219 502.21875 118.5 501.292969 119.511719 C 499.957031 120.984375 498.839844 122.605469 497.9375 124.371094 C 497.871094 124.53125 497.828125 124.699219 497.816406 124.871094 C 497.808594 124.953125 497.835938 125.097656 497.875 125.109375 C 498.015625 125.152344 498.214844 125.210938 498.304688 125.148438 C 499.296875 124.4375 499.792969 123.285156 500.757812 122.507812 C 503.203125 120.542969 505.984375 119.199219 508.765625 117.835938 C 508.863281 117.785156 509.058594 117.929688 509.210938 117.984375 Z M 481.644531 205.210938 C 478.734375 200.746094 475.3125 197.117188 471.804688 193.566406 C 471.667969 193.460938 471.523438 193.367188 471.371094 193.28125 C 468.796875 191.402344 466.050781 189.800781 463.210938 188.34375 C 460.410156 186.902344 452.015625 184.847656 449.34375 184.253906 C 448.917969 184.175781 448.492188 184.128906 448.058594 184.117188 C 447.796875 184.085938 447.542969 184.109375 447.292969 184.1875 C 446.992188 184.328125 446.613281 184.496094 446.484375 184.757812 C 446.058594 185.617188 445.796875 186.527344 446.210938 187.492188 C 446.449219 188.042969 446.691406 188.601562 446.875 189.171875 C 447.488281 191.085938 448.722656 192.675781 449.730469 194.359375 C 452.101562 198.320312 455.339844 201.332031 459.992188 202.453125 C 461.683594 202.859375 463.378906 203.148438 465.125 203.046875 C 467.371094 202.933594 469.605469 203.023438 471.832031 203.324219 C 475.050781 203.722656 478.316406 203.855469 481.644531 205.210938 Z M 478.460938 165.855469 C 478.460938 165.347656 478.066406 165.160156 477.703125 164.925781 C 476.261719 163.984375 474.808594 163.035156 473.636719 161.773438 C 472.285156 160.320312 470.695312 159.121094 469.414062 157.582031 C 468.597656 156.601562 467.550781 155.796875 466.550781 154.984375 C 463.09375 152.167969 459.226562 150.164062 454.851562 149.160156 C 453.507812 148.851562 452.191406 148.410156 450.792969 148.351562 C 447.597656 148.214844 444.410156 148.429688 441.21875 148.535156 C 440.597656 148.542969 440.035156 148.730469 439.539062 149.105469 C 438.761719 149.691406 438.523438 150.253906 439.578125 150.851562 C 440.121094 151.164062 440.503906 151.605469 440.925781 152.039062 C 442.128906 153.273438 443.269531 154.585938 444.621094 155.632812 C 445.464844 156.285156 446.121094 157.03125 446.773438 157.824219 C 448.160156 159.5 449.785156 160.949219 451.664062 161.996094 C 454.613281 163.648438 457.804688 164.726562 461.144531 165.355469 C 463.703125 165.832031 466.300781 165.902344 468.886719 165.96875 C 472.074219 166.046875 475.261719 165.90625 478.460938 165.859375 Z M 494.28125 183.148438 C 493.554688 184.078125 493.085938 184.902344 492.410156 185.492188 C 489.691406 187.882812 487.3125 190.636719 484.355469 192.777344 C 486.671875 191.800781 489.074219 191.238281 491.515625 190.792969 C 492.789062 190.5625 494.058594 190.292969 495.320312 190.007812 C 496.582031 189.722656 497.84375 189.285156 498.867188 188.507812 C 501.609375 186.414062 504.503906 184.480469 506.707031 181.757812 C 508.4375 179.621094 510.25 177.558594 511.3125 174.941406 C 512.488281 172.054688 513.683594 169.199219 513.890625 166.039062 C 513.953125 165.09375 514.128906 164.152344 513.835938 163.210938 C 513.742188 162.910156 513.527344 162.789062 513.273438 162.855469 C 512.777344 162.984375 512.222656 163.074219 511.828125 163.367188 C 510.980469 163.988281 510.035156 164.40625 509.113281 164.867188 C 508.265625 165.292969 507.347656 165.625 506.59375 166.175781 C 505.394531 167.0625 504.050781 167.695312 502.703125 168.203125 C 500.910156 168.871094 499.601562 170.0625 498.335938 171.363281 C 494.898438 174.886719 492.199219 179.003906 489.183594 182.867188 C 489.132812 182.933594 489.074219 183.003906 489.027344 183.070312 C 488.171875 184.46875 487.277344 185.84375 486.472656 187.269531 C 485.972656 188.15625 485.378906 189.035156 485.371094 190.140625 C 485.988281 190.015625 486.210938 189.539062 486.535156 189.132812 C 488.78125 186.300781 490.394531 183.023438 492.816406 180.304688 C 494.589844 178.316406 496.003906 176.007812 498.199219 174.394531 C 498.402344 174.246094 498.535156 174.007812 498.703125 173.8125 C 500.558594 171.683594 502.949219 170.324219 505.46875 169.15625 C 505.632812 169.085938 505.804688 169.070312 505.976562 169.105469 C 506.128906 169.15625 506.253906 169.242188 506.355469 169.363281 C 506.386719 169.390625 506.339844 169.558594 506.285156 169.597656 C 505.800781 169.945312 505.347656 170.375 504.808594 170.601562 C 502.199219 171.699219 500.136719 173.558594 498.15625 175.457031 C 495.859375 177.65625 493.925781 180.214844 492.027344 182.765625 C 491.0625 184.058594 489.960938 185.3125 489.460938 187.054688 C 491.351562 186.121094 492.078125 183.957031 494.28125 183.152344 Z M 495 141.953125 C 496.085938 141.1875 496.898438 140.6875 497.628906 140.082031 C 498.578125 139.296875 499.667969 138.785156 500.796875 138.351562 C 502.332031 137.757812 503.933594 137.441406 505.570312 137.230469 C 509.761719 136.699219 513.949219 136.152344 517.992188 134.820312 C 518.820312 134.570312 519.667969 134.445312 520.535156 134.441406 C 521.992188 134.402344 522.957031 135.246094 523.226562 136.671875 C 523.300781 137.09375 523.34375 137.523438 523.351562 137.953125 C 523.359375 138.164062 523.421875 138.246094 523.648438 138.160156 C 523.726562 138.113281 523.773438 138.042969 523.785156 137.953125 C 523.835938 137.265625 523.921875 136.578125 523.902344 135.902344 C 523.855469 134.601562 523.140625 133.871094 521.828125 133.703125 C 520.449219 133.523438 519.070312 133.613281 517.691406 133.8125 C 515.304688 134.15625 512.921875 134.574219 510.527344 134.867188 C 507.4375 135.253906 504.421875 135.953125 501.476562 136.964844 C 500.652344 137.238281 499.890625 137.628906 499.1875 138.132812 C 498.007812 138.984375 497.023438 140.09375 495.664062 140.722656 C 495.421875 140.835938 495.339844 141.296875 495 141.957031 Z M 505.113281 184.804688 C 505.464844 184.570312 505.824219 184.347656 506.167969 184.101562 C 507.914062 182.828125 509.511719 181.398438 510.964844 179.800781 C 513.53125 177.019531 515.453125 173.941406 515.925781 170.101562 C 516.03125 169.074219 516.210938 168.054688 516.457031 167.046875 C 516.996094 165.015625 516.445312 163.335938 514.78125 161.597656 C 515.296875 163.910156 514.917969 165.828125 514.589844 167.785156 C 514.152344 170.363281 513.210938 172.75 512.246094 175.136719 C 511.503906 176.992188 510.480469 178.675781 509.183594 180.195312 C 507.855469 181.753906 506.570312 183.339844 505.113281 184.808594 Z M 442.046875 147.5 C 443.175781 147.464844 444.121094 147.46875 445.0625 147.402344 C 447.3125 147.242188 449.59375 147.125 451.785156 147.519531 C 454.230469 147.964844 456.710938 148.453125 459.003906 149.523438 C 460.25 150.109375 461.507812 150.683594 462.757812 151.265625 C 462.835938 151.300781 462.898438 151.394531 462.972656 151.410156 C 463.410156 151.511719 463.722656 152.039062 464.257812 151.789062 C 464 151.453125 463.792969 151.054688 463.472656 150.796875 C 461.167969 148.941406 458.589844 147.546875 455.878906 146.394531 C 455.082031 146.058594 454.253906 145.820312 453.398438 145.683594 C 449.730469 145.097656 446.171875 145.640625 442.699219 146.859375 C 442.496094 146.933594 442.355469 147.1875 442.046875 147.5 Z M 507.097656 104.746094 C 506.742188 104.675781 506.511719 104.929688 506.253906 105.132812 C 504.269531 106.6875 502.878906 108.769531 501.375 110.734375 C 499.632812 113.015625 498.683594 115.71875 497.886719 118.433594 C 497.523438 119.65625 497 120.867188 497.007812 122.1875 C 497.007812 122.433594 497.078125 122.53125 497.292969 122.460938 C 497.375 122.445312 497.441406 122.40625 497.496094 122.347656 C 497.742188 121.894531 497.996094 121.445312 498.214844 120.980469 C 500.84375 115.390625 504.074219 110.121094 507.097656 104.746094 Z M 513.261719 152.109375 C 512.050781 151.886719 511.164062 152.570312 510.238281 152.933594 C 506.617188 154.367188 502.910156 155.417969 499.03125 155.765625 C 496.375 156 493.707031 156.070312 491.039062 156.230469 C 490.808594 156.242188 490.441406 156.339844 490.386719 156.488281 C 490.234375 156.902344 490.675781 156.816406 490.855469 156.832031 C 493.34375 156.992188 495.835938 157.160156 498.328125 157.257812 C 499.195312 157.277344 500.050781 157.203125 500.902344 157.042969 C 503.71875 156.582031 506.4375 155.777344 509.050781 154.628906 C 510.5 153.976562 511.984375 153.246094 513.261719 152.109375 Z M 449.335938 161.976562 C 448.765625 161.316406 448.539062 160.921875 448.203125 160.691406 C 446.410156 159.453125 445.109375 157.714844 443.636719 156.175781 C 441.488281 153.933594 439.128906 151.96875 436.726562 150.03125 C 436.507812 149.851562 436.277344 149.828125 436.027344 149.960938 C 435.902344 150.015625 435.820312 150.109375 435.78125 150.238281 C 435.738281 150.371094 435.753906 150.492188 435.824219 150.609375 C 436.113281 151.121094 436.285156 151.6875 436.753906 152.121094 C 438.949219 154.164062 441.167969 156.171875 443.597656 157.929688 C 444.847656 158.832031 446.140625 159.671875 447.171875 160.835938 C 447.640625 161.371094 448.242188 161.675781 449.332031 161.976562 Z M 476.78125 205.589844 C 476.839844 205.496094 476.878906 205.390625 476.902344 205.28125 C 476.902344 205.238281 476.824219 205.15625 476.765625 205.144531 C 473.851562 204.769531 470.933594 204.390625 468.015625 204.035156 C 467.667969 204.011719 467.324219 204.039062 466.984375 204.117188 C 465.867188 204.332031 464.75 204.347656 463.628906 204.160156 C 463.460938 204.132812 463.28125 204.160156 463.109375 204.140625 C 462.867188 204.109375 462.78125 204.203125 462.878906 204.445312 C 462.910156 204.523438 462.960938 204.585938 463.039062 204.625 C 465.707031 205.796875 468.5625 206.070312 471.417969 206.105469 C 473.21875 206.132812 475.023438 205.773438 476.78125 205.589844 Z M 487.367188 182.753906 C 488.746094 182.207031 489.363281 181.140625 490 180.15625 C 491.449219 177.910156 493.082031 175.808594 494.765625 173.734375 C 495.351562 173.007812 496.09375 172.371094 496.953125 171.066406 C 492.175781 174.140625 488.921875 177.644531 487.367188 182.753906 Z M 474.441406 180.4375 C 475.019531 180.808594 475.945312 181.410156 476.878906 182 C 477.121094 182.152344 477.429688 181.988281 477.394531 181.726562 C 477.300781 181.054688 477.183594 180.390625 477.078125 179.71875 C 476.898438 178.574219 476.105469 177.96875 475.128906 177.53125 C 474.4375 177.222656 473.71875 177.667969 473.652344 178.4375 C 473.601562 179.066406 473.746094 179.625 474.441406 180.4375 Z M 472.773438 185.796875 C 472.902344 185.90625 473.042969 186 473.195312 186.070312 C 474.589844 186.554688 475.644531 185.746094 476.730469 185.109375 C 476.832031 185.050781 476.8125 184.613281 476.710938 184.421875 C 476.375 183.78125 475.691406 183.542969 475.097656 183.226562 C 474.410156 182.859375 473.773438 183.078125 473.203125 183.535156 C 472.632812 183.988281 472.410156 184.625 472.558594 185.351562 C 472.613281 185.511719 472.683594 185.660156 472.773438 185.800781 Z M 492.691406 205.257812 C 491.570312 206.109375 491.460938 206.265625 491.269531 207.28125 C 491.144531 207.960938 491.640625 208.476562 492.316406 208.363281 C 493.65625 208.140625 494.789062 206.980469 495.007812 205.609375 C 495.089844 205.105469 494.59375 204.625 494.070312 204.636719 C 493.507812 204.648438 493.09375 204.933594 492.691406 205.257812 Z M 509.800781 121.992188 C 507.078125 122.667969 504.738281 123.207031 502.617188 124.382812 C 502.179688 124.625 501.558594 124.503906 501.292969 125.0625 C 501.824219 125.484375 502.378906 125.1875 502.902344 125.078125 C 503.746094 124.914062 504.574219 124.6875 505.382812 124.398438 C 506.808594 123.855469 508.316406 123.445312 509.800781 121.992188 Z M 484.019531 132.074219 C 484.289062 132.382812 484.449219 132.585938 484.628906 132.769531 C 484.738281 132.90625 484.875 133.007812 485.035156 133.074219 C 485.359375 133.171875 485.691406 133.210938 486.027344 133.1875 C 486.425781 133.132812 486.855469 132.46875 486.867188 131.992188 C 486.890625 131.613281 486.742188 131.320312 486.417969 131.121094 C 485.832031 130.769531 485.257812 130.386719 484.554688 130.277344 C 484.074219 130.199219 483.53125 130.789062 483.691406 131.265625 C 483.792969 131.585938 483.945312 131.894531 484.019531 132.074219 Z M 490.257812 204.761719 C 491.535156 204.300781 491.871094 203.265625 491.6875 201.964844 C 491.628906 201.542969 491.042969 201.277344 490.699219 201.511719 C 489.460938 202.371094 489.035156 203.605469 489.070312 205.050781 C 489.070312 205.253906 489.5 205.476562 489.660156 205.34375 C 489.855469 205.183594 490.023438 204.992188 490.257812 204.761719 Z M 476.023438 138.613281 C 476.085938 138.800781 476.164062 138.820312 476.265625 138.675781 C 476.308594 138.617188 476.371094 138.5625 476.386719 138.5 C 477.039062 135.734375 477.589844 132.949219 477.800781 130.113281 C 477.816406 129.925781 478.011719 129.539062 477.539062 129.59375 C 477.429688 129.609375 477.289062 129.832031 477.265625 129.976562 C 476.871094 132.003906 476.472656 134.027344 476.128906 136.0625 C 475.996094 136.824219 475.988281 137.601562 475.9375 138.378906 C 475.925781 138.449219 475.992188 138.53125 476.023438 138.613281 Z M 488.410156 126.914062 C 488.300781 127.054688 488.121094 127.167969 488.097656 127.3125 C 487.882812 128.613281 488.039062 129.867188 488.5625 131.078125 C 488.617188 131.195312 488.839844 131.253906 488.992188 131.3125 C 489.03125 131.328125 489.128906 131.246094 489.171875 131.1875 C 490.074219 129.828125 489.890625 128.4375 489.273438 127.039062 C 489.144531 126.730469 488.625 126.667969 488.410156 126.914062 Z M 521.167969 92.378906 C 520.730469 92.773438 520.320312 92.984375 520.277344 93.472656 C 520.273438 93.554688 520.277344 93.6875 520.324219 93.710938 C 520.632812 93.867188 520.199219 93.984375 520.480469 93.789062 C 521.109375 93.351562 521.71875 92.875 522.320312 92.410156 C 522.371094 92.367188 522.382812 92.277344 522.410156 92.210938 C 522.257812 92.152344 522.078125 92.019531 521.949219 92.054688 C 521.679688 92.144531 521.421875 92.25 521.167969 92.378906 Z M 524.101562 90.894531 C 525.015625 90.550781 525.726562 89.925781 526.644531 89.703125 C 526.699219 89.6875 526.710938 89.484375 526.742188 89.371094 C 526.660156 89.355469 526.574219 89.34375 526.492188 89.339844 C 525.347656 89.34375 524.730469 90.167969 524.101562 90.894531 Z M 524.101562 90.894531 " fill-opacity="1" fill-rule="nonzero"/></g><path fill="#423f32" d="M 509.214844 117.988281 C 510.332031 117.039062 511.503906 116.171875 512.855469 115.566406 C 513.246094 115.386719 513.601562 115.148438 513.921875 114.859375 C 516.675781 112.382812 518.648438 109.410156 519.484375 105.773438 C 519.886719 104.015625 520.171875 102.226562 520.535156 100.457031 C 520.589844 100.304688 520.699219 100.214844 520.855469 100.183594 C 521.035156 100.203125 521.167969 100.289062 521.257812 100.441406 C 521.496094 101.117188 521.40625 101.816406 521.257812 102.484375 C 520.949219 103.914062 520.554688 105.324219 520.230469 106.746094 C 519.800781 108.535156 519.007812 110.148438 517.851562 111.582031 C 516.429688 113.390625 514.878906 115.195312 512.777344 116.300781 C 511.789062 116.820312 510.835938 117.394531 509.910156 118.019531 C 509.800781 118.089844 509.679688 118.117188 509.550781 118.101562 C 509.417969 118.089844 509.308594 118.03125 509.21875 117.9375 Z M 509.214844 117.988281 " fill-opacity="1" fill-rule="nonzero"/><path fill="#423f32" d="M 494.1875 146.796875 C 494.125 146.679688 494.109375 146.554688 494.132812 146.421875 C 494.160156 146.292969 494.222656 146.183594 494.324219 146.101562 C 496.003906 144.757812 497.5625 143.273438 499.570312 142.351562 C 500.8125 141.785156 501.984375 141.066406 503.257812 140.566406 C 503.3125 140.542969 503.449219 140.585938 503.460938 140.621094 C 503.484375 140.710938 503.472656 140.792969 503.429688 140.875 C 503.117188 141.4375 502.550781 141.753906 502.015625 141.949219 C 499.300781 142.945312 496.988281 144.570312 494.773438 146.359375 C 494.5625 146.511719 494.347656 146.65625 494.121094 146.785156 Z M 494.1875 146.796875 " fill-opacity="1" fill-rule="nonzero"/><path fill="#423f32" d="M 467.035156 135.671875 C 465.871094 134.082031 466.304688 132.394531 466.847656 130.765625 C 467.054688 130.140625 467.6875 129.6875 468.402344 129.527344 C 468.570312 129.511719 468.710938 129.566406 468.820312 129.695312 C 468.882812 129.84375 468.875 129.992188 468.796875 130.132812 C 468.703125 130.277344 468.582031 130.390625 468.433594 130.476562 C 467.417969 131.203125 467.183594 132.257812 467.113281 133.417969 C 467.070312 134.164062 467.5 134.945312 466.976562 135.664062 Z M 467.035156 135.671875 " fill-opacity="1" fill-rule="nonzero"/><path fill="#423f32" d="M 466.980469 135.664062 C 467.667969 137.3125 467.917969 138.550781 467.894531 140.214844 L 467.964844 140.214844 C 466.90625 138.925781 466.863281 137.382812 466.863281 135.828125 C 466.863281 135.773438 466.976562 135.71875 467.039062 135.664062 Z M 466.980469 135.664062 " fill-opacity="1" fill-rule="nonzero"/><path fill="#423f32" d="M 474.386719 198.449219 C 473.195312 197.890625 472.554688 196.589844 471.488281 195.726562 C 469.242188 193.917969 466.714844 192.679688 463.910156 192.015625 C 462.988281 191.789062 462.074219 191.539062 461.167969 191.253906 C 460.953125 191.1875 460.785156 190.945312 460.617188 190.765625 C 460.5625 190.695312 460.550781 190.617188 460.578125 190.53125 C 460.78125 190.257812 460.34375 190.347656 460.691406 190.363281 C 460.777344 190.355469 460.859375 190.355469 460.945312 190.363281 C 463.371094 190.972656 465.792969 191.5625 468.09375 192.605469 C 470.910156 193.882812 473.191406 195.765625 475.101562 198.15625 C 476.125 199.433594 477 200.832031 478.222656 201.941406 C 478.300781 202.074219 478.304688 202.207031 478.234375 202.34375 C 478.089844 202.441406 477.933594 202.496094 477.761719 202.496094 C 477.003906 202.5625 476.457031 202.085938 475.902344 201.699219 C 475.128906 201.164062 474.417969 200.542969 473.671875 199.960938 C 472.113281 198.742188 470.488281 197.625 468.714844 196.738281 C 468.664062 196.714844 468.644531 196.601562 468.636719 196.519531 C 468.617188 196.347656 468.734375 196.273438 468.964844 196.320312 C 469.746094 196.472656 470.378906 196.917969 471.03125 197.332031 C 472.046875 197.976562 473.082031 198.585938 474.121094 199.1875 C 474.292969 199.257812 474.453125 199.246094 474.613281 199.148438 C 474.832031 198.941406 474.667969 198.578125 474.386719 198.449219 Z M 474.386719 198.449219 " fill-opacity="1" fill-rule="nonzero"/><path fill="#423f32" d="M 454.394531 195.511719 C 454.773438 195.296875 455.011719 195.550781 455.292969 195.746094 C 457.351562 197.164062 459.574219 198.253906 461.898438 199.171875 C 463.699219 199.878906 465.585938 199.996094 467.464844 200.191406 C 468.320312 200.28125 469.183594 200.34375 469.84375 200.996094 C 469.898438 201.0625 469.9375 201.136719 469.964844 201.21875 C 470.070312 201.457031 469.992188 201.558594 469.730469 201.519531 C 469.644531 201.523438 469.558594 201.511719 469.476562 201.492188 C 468.738281 201.175781 467.941406 201.21875 467.183594 201.246094 C 465.144531 201.339844 463.25 200.640625 461.4375 199.972656 C 459.371094 199.207031 457.503906 197.910156 455.566406 196.8125 C 455.035156 196.511719 454.691406 195.996094 454.410156 195.453125 Z M 454.394531 195.511719 " fill-opacity="1" fill-rule="nonzero"/><path fill="#423f32" d="M 454.410156 195.453125 C 454.324219 195.476562 454.214844 195.546875 454.164062 195.515625 C 452.015625 194.195312 450.289062 192.46875 449.125 190.21875 C 449.070312 190.109375 449.152344 189.878906 449.246094 189.773438 C 449.296875 189.71875 449.523438 189.785156 449.648438 189.835938 C 449.699219 189.859375 449.6875 190 449.730469 190.070312 C 450.386719 191.296875 451.253906 192.351562 452.332031 193.234375 C 453.140625 193.886719 453.832031 194.648438 454.398438 195.519531 Z M 454.410156 195.453125 " fill-opacity="1" fill-rule="nonzero"/><path fill="#423f32" d="M 463.496094 163.949219 C 463.910156 163.863281 464.324219 163.734375 464.738281 163.703125 C 466.1875 163.601562 467.628906 163.535156 469.085938 163.453125 C 469.5 163.429688 470.058594 163.589844 470.289062 163.210938 C 470.632812 162.632812 469.984375 162.332031 469.699219 161.960938 C 468.925781 160.941406 468.125 159.9375 467.328125 158.9375 C 466.527344 157.9375 465.699219 156.96875 464.671875 156.175781 C 464.210938 155.820312 463.902344 155.269531 463.527344 154.808594 L 463.519531 154.855469 C 464.503906 154.671875 465.082031 155.335938 465.679688 155.921875 C 466.03125 156.300781 466.359375 156.699219 466.660156 157.121094 C 468.417969 159.402344 470.574219 161.207031 473.128906 162.542969 C 473.734375 162.859375 474.304688 163.242188 474.886719 163.605469 C 474.945312 163.640625 474.964844 163.742188 474.988281 163.824219 C 475.054688 164.050781 474.964844 164.152344 474.726562 164.164062 C 473.007812 164.261719 471.28125 164.460938 469.570312 164.441406 C 467.859375 164.417969 466.125 164.367188 464.40625 164.539062 C 464.035156 164.585938 463.726562 164.46875 463.476562 164.183594 Z M 463.496094 163.949219 " fill-opacity="1" fill-rule="nonzero"/><path fill="#423f32" d="M 463.523438 154.808594 C 462.585938 154.960938 461.929688 154.296875 461.226562 153.90625 C 458.582031 152.421875 455.832031 151.304688 452.789062 151 C 452.457031 150.96875 452.132812 150.820312 451.816406 150.707031 C 451.769531 150.691406 451.746094 150.570312 451.746094 150.503906 C 451.746094 150.433594 451.796875 150.308594 451.820312 150.3125 C 453.363281 150.378906 454.898438 150.503906 456.394531 150.941406 C 458.816406 151.640625 460.925781 152.960938 463.042969 154.257812 C 463.246094 154.382812 463.359375 154.652344 463.515625 154.859375 Z M 463.523438 154.808594 " fill-opacity="1" fill-rule="nonzero"/><path fill="#423f32" d="M 463.472656 164.195312 C 463.234375 164.273438 462.984375 164.433594 462.753906 164.414062 C 460.265625 164.195312 457.886719 163.589844 455.671875 162.402344 C 455.5625 162.34375 455.53125 162.125 455.472656 161.988281 C 455.609375 161.949219 455.773438 161.839844 455.867188 161.882812 C 458.289062 163.019531 460.90625 163.4375 463.496094 163.945312 Z M 463.472656 164.195312 " fill-opacity="1" fill-rule="nonzero"/><path fill="#423f32" d="M 449.023438 158.183594 C 448.03125 158.359375 447.550781 157.496094 446.894531 157.0625 C 446.148438 156.5625 445.566406 155.8125 444.921875 155.160156 C 444.679688 154.914062 444.949219 155.257812 444.984375 154.914062 C 444.984375 154.847656 445.242188 154.789062 445.386719 154.765625 C 445.480469 154.757812 445.554688 154.789062 445.617188 154.855469 C 446.46875 155.804688 447.398438 156.660156 448.410156 157.433594 C 448.667969 157.632812 448.8125 157.96875 449.011719 158.242188 Z M 449.023438 158.183594 " fill-opacity="1" fill-rule="nonzero"/><path fill="#423f32" d="M 449.007812 158.242188 C 449.082031 158.207031 449.179688 158.125 449.238281 158.144531 C 450.441406 158.566406 451.460938 159.300781 452.433594 160.101562 C 452.523438 160.175781 452.496094 160.390625 452.519531 160.542969 C 452.433594 160.550781 452.351562 160.542969 452.269531 160.515625 C 451.105469 159.851562 449.800781 159.382812 449.019531 158.179688 Z M 449.007812 158.242188 " fill-opacity="1" fill-rule="nonzero"/><path fill="#423f32" d="M 488.992188 190.484375 C 489.011719 190.398438 489.042969 190.316406 489.085938 190.242188 C 489.75 189.496094 490.738281 189.292969 491.589844 188.960938 C 493.566406 188.1875 495.144531 186.867188 496.792969 185.628906 C 499.019531 183.960938 500.738281 181.84375 502.257812 179.519531 C 503.296875 177.933594 504.324219 176.359375 505.074219 174.601562 C 505.121094 174.488281 505.347656 174.414062 505.5 174.398438 C 505.554688 174.398438 505.675781 174.621094 505.683594 174.75 C 505.6875 174.925781 505.65625 175.089844 505.578125 175.25 C 505.203125 176.023438 504.875 176.832031 504.417969 177.554688 C 503.539062 178.929688 502.65625 180.316406 501.644531 181.589844 C 500.796875 182.675781 499.878906 183.695312 498.890625 184.652344 C 497.636719 185.839844 496.21875 186.75 494.867188 187.777344 C 493.542969 188.785156 492 189.339844 490.617188 190.207031 C 490.203125 190.464844 489.640625 190.472656 489.144531 190.582031 C 489.097656 190.59375 489.042969 190.519531 488.992188 190.484375 Z M 488.992188 190.484375 " fill-opacity="1" fill-rule="nonzero"/></svg>