<svg xmlns="http://www.w3.org/2000/svg" xmlns:xlink="http://www.w3.org/1999/xlink" width="816" zoomAndPan="magnify" viewBox="0 0 612 791.999994" height="1056" preserveAspectRatio="xMidYMid meet" version="1.0"><defs><filter x="0%" y="0%" width="100%" height="100%" id="47ac5f871a"><feColorMatrix values="0 0 0 0 1 0 0 0 0 1 0 0 0 0 1 0 0 0 1 0" color-interpolation-filters="sRGB"/></filter><mask id="b45d6e3585"><g filter="url(#47ac5f871a)"><rect x="-61.2" width="734.4" fill="#000000" y="-79.199999" height="950.399992" fill-opacity="0.6784"/></g></mask><clipPath id="6f89871dd6"><path d="M 0 0 L 242.9375 0 L 242.9375 233 L 0 233 Z M 0 0 " clip-rule="nonzero"/></clipPath><clipPath id="2512d88453"><rect x="0" width="244" y="0" height="236"/></clipPath><clipPath id="b3c449410e"><path d="M 522.75 0 L 612 0 L 612 286.964844 L 522.75 286.964844 Z M 522.75 0 " clip-rule="nonzero"/></clipPath><mask id="0dc43fd46d"><g filter="url(#47ac5f871a)"><rect x="-61.2" width="734.4" fill="#000000" y="-79.199999" height="950.399992" fill-opacity="0.8471"/></g></mask><clipPath id="e5d2519a87"><path d="M 1.46875 0.921875 L 491.042969 0.921875 L 491.042969 146 L 1.46875 146 Z M 1.46875 0.921875 " clip-rule="nonzero"/></clipPath><clipPath id="1803c63ea6"><rect x="0" width="492" y="0" height="146"/></clipPath></defs><path fill="#ffffff" d="M 85.664062 172.261719 C 108.734375 224.605469 99.496094 278.265625 71.417969 307.164062 C 43.339844 336.0625 -36.207031 392.8125 -102.054688 289.578125 C -167.90625 186.34375 -22.917969 92.0625 42.203125 131.910156 C 82.476562 156.539062 85.664062 172.261719 85.664062 172.261719 Z M 85.664062 172.261719 " fill-opacity="1" fill-rule="nonzero"/><g mask="url(#b45d6e3585)"><g transform="matrix(1, 0, 0, 1, 0, -0.000000000000060192)"><g clip-path="url(#2512d88453)"><g clip-path="url(#6f89871dd6)"><path fill="#fecd1a" d="M 0.832031 232.132812 C -2.222656 214.28125 -3.007812 196.042969 -1.441406 177.957031 C -1.753906 118.609375 -1.988281 59.265625 1.226562 0 C 80.679688 3.289062 163.347656 2.582031 242.882812 1.488281 C 242.566406 17.617188 238.023438 32.097656 228.386719 45.175781 C 225.09375 49.636719 221.332031 53.707031 216.789062 56.839844 C 203.546875 65.921875 183.644531 66.46875 175.730469 80.484375 C 169.066406 92.148438 174.710938 106.945312 172.984375 120.253906 C 171.574219 131.609375 164.679688 141.785156 155.511719 148.597656 C 146.34375 155.40625 135.140625 159.085938 123.777344 160.496094 C 113.589844 161.75 102.542969 161.59375 94.3125 167.699219 C 84.988281 174.589844 82.324219 187.039062 77.703125 197.683594 C 65.558594 225.714844 31.3125 235.5 0.832031 232.132812 Z M 0.832031 232.132812 " fill-opacity="1" fill-rule="nonzero"/></g></g></g></g><path fill="#fecd1a" d="M 649.308594 614.828125 C 681.074219 686.882812 668.355469 760.753906 629.699219 800.53125 C 591.039062 840.3125 481.523438 918.433594 390.863281 776.328125 C 300.207031 634.21875 499.820312 504.433594 589.476562 559.289062 C 644.921875 593.1875 649.308594 614.828125 649.308594 614.828125 Z M 649.308594 614.828125 " fill-opacity="1" fill-rule="nonzero"/><g clip-path="url(#b3c449410e)"><path fill="#fabdbd" d="M 611.90625 286.964844 L 611.90625 -10.035156 C 611.90625 -10.035156 547.804688 32.371094 545.800781 58.683594 C 543.796875 84.992188 567.21875 94.277344 557.511719 112.851562 C 547.804688 131.421875 524.074219 138.078125 522.839844 159.125 C 520.53125 201.996094 573.691406 194.257812 576.464844 217.320312 C 579.238281 240.378906 569.6875 286.191406 611.90625 286.964844 Z M 611.90625 286.964844 " fill-opacity="1" fill-rule="nonzero"/></g><g mask="url(#0dc43fd46d)"><g transform="matrix(1, 0, 0, 1, 79, 646)"><g clip-path="url(#1803c63ea6)"><g clip-path="url(#e5d2519a87)"><path fill="#b1d4e0" d="M 491.042969 148.523438 L 1.292969 148.523438 C 1.292969 148.523438 71.222656 42.398438 114.605469 39.082031 C 157.992188 35.769531 173.304688 74.542969 203.929688 58.472656 C 234.554688 42.398438 245.53125 3.113281 280.238281 1.074219 C 350.933594 -2.753906 338.171875 85.257812 376.199219 89.847656 C 414.226562 94.441406 489.765625 78.625 491.042969 148.523438 Z M 491.042969 148.523438 " fill-opacity="1" fill-rule="nonzero"/></g></g></g></g></svg>