<svg xmlns="http://www.w3.org/2000/svg" xmlns:xlink="http://www.w3.org/1999/xlink" width="816" zoomAndPan="magnify" viewBox="0 0 612 791.999994" height="1056" preserveAspectRatio="xMidYMid meet" version="1.0"><defs><filter x="0%" y="0%" width="100%" height="100%" id="b52ba45719"><feColorMatrix values="0 0 0 0 1 0 0 0 0 1 0 0 0 0 1 0 0 0 1 0" color-interpolation-filters="sRGB"/></filter><clipPath id="c9dde078ee"><path d="M 0 238 L 249.308594 238 L 249.308594 533.105469 L 0 533.105469 Z M 0 238 " clip-rule="nonzero"/></clipPath><mask id="5eaebc0fb1"><g filter="url(#b52ba45719)"><rect x="-61.2" width="734.4" fill="#000000" y="-79.199999" height="950.399992" fill-opacity="0.4784"/></g></mask><clipPath id="7f0bf8ada6"><path d="M 1 2 L 308 2 L 308 3 L 1 3 Z M 1 2 " clip-rule="nonzero"/></clipPath><clipPath id="e15ae6eedf"><rect x="0" width="308" y="0" height="5"/></clipPath></defs><path fill="#ffffff" d="M -291.367188 284.285156 L 3.148438 -7.558594 L -288.695312 286.960938 Z M -291.367188 284.285156 " fill-opacity="1" fill-rule="nonzero"/><path fill="#ffffff" d="M -287.605469 288.046875 L 6.910156 -3.796875 L -284.933594 290.71875 Z M -287.605469 288.046875 " fill-opacity="1" fill-rule="nonzero"/><path fill="#ffffff" d="M -283.847656 291.804688 L 10.671875 -0.0351562 L -281.171875 294.480469 Z M -283.847656 291.804688 " fill-opacity="1" fill-rule="nonzero"/><path fill="#ffffff" d="M -280.085938 295.570312 L 14.429688 3.726562 L -277.410156 298.242188 Z M -280.085938 295.570312 " fill-opacity="1" fill-rule="nonzero"/><path fill="#ffffff" d="M -276.324219 299.328125 L 18.191406 7.484375 L -273.648438 302.003906 Z M -276.324219 299.328125 " fill-opacity="1" fill-rule="nonzero"/><path fill="#ffffff" d="M -272.5625 303.089844 L 21.953125 11.25 L -269.890625 305.761719 Z M -272.5625 303.089844 " fill-opacity="1" fill-rule="nonzero"/><path fill="#ffffff" d="M -268.800781 306.851562 L 25.714844 15.007812 L -266.128906 309.527344 Z M -268.800781 306.851562 " fill-opacity="1" fill-rule="nonzero"/><path fill="#ffffff" d="M -265.039062 310.613281 L 29.476562 18.769531 L -262.367188 313.285156 Z M -265.039062 310.613281 " fill-opacity="1" fill-rule="nonzero"/><path fill="#ffffff" d="M -261.28125 314.375 L 33.238281 22.53125 L -258.605469 317.046875 Z M -261.28125 314.375 " fill-opacity="1" fill-rule="nonzero"/><path fill="#ffffff" d="M -257.515625 318.136719 L 37 26.292969 L -254.84375 320.808594 Z M -257.515625 318.136719 " fill-opacity="1" fill-rule="nonzero"/><path fill="#ffffff" d="M -253.757812 321.894531 L 40.761719 30.050781 L -251.082031 324.570312 Z M -253.757812 321.894531 " fill-opacity="1" fill-rule="nonzero"/><path fill="#ffffff" d="M -249.996094 325.65625 L 44.519531 33.816406 L -247.324219 328.332031 Z M -249.996094 325.65625 " fill-opacity="1" fill-rule="nonzero"/><path fill="#ffffff" d="M -246.234375 329.417969 L 48.28125 37.574219 L -243.558594 332.09375 Z M -246.234375 329.417969 " fill-opacity="1" fill-rule="nonzero"/><path fill="#ffffff" d="M -242.472656 333.179688 L 52.042969 41.335938 L -239.800781 335.851562 Z M -242.472656 333.179688 " fill-opacity="1" fill-rule="nonzero"/><path fill="#ffffff" d="M -238.714844 336.941406 L 55.804688 45.097656 L -236.039062 339.613281 Z M -238.714844 336.941406 " fill-opacity="1" fill-rule="nonzero"/><path fill="#ffffff" d="M -234.953125 340.699219 L 59.5625 48.859375 L -232.277344 343.375 Z M -234.953125 340.699219 " fill-opacity="1" fill-rule="nonzero"/><path fill="#ffffff" d="M -231.191406 344.464844 L 63.324219 52.617188 L -228.515625 347.136719 Z M -231.191406 344.464844 " fill-opacity="1" fill-rule="nonzero"/><path fill="#ffffff" d="M 157.75 147.042969 L -136.769531 438.886719 L 155.074219 144.367188 Z M 157.75 147.042969 " fill-opacity="1" fill-rule="nonzero"/><path fill="#ffffff" d="M 153.988281 143.28125 L -140.527344 435.125 L 151.3125 140.609375 Z M 153.988281 143.28125 " fill-opacity="1" fill-rule="nonzero"/><path fill="#ffffff" d="M 150.226562 139.519531 L -144.289062 431.363281 L 147.554688 136.847656 Z M 150.226562 139.519531 " fill-opacity="1" fill-rule="nonzero"/><path fill="#ffffff" d="M 146.464844 135.757812 L -148.050781 427.601562 L 143.792969 133.085938 Z M 146.464844 135.757812 " fill-opacity="1" fill-rule="nonzero"/><path fill="#ffffff" d="M 142.703125 131.996094 L -151.8125 423.839844 L 140.03125 129.324219 Z M 142.703125 131.996094 " fill-opacity="1" fill-rule="nonzero"/><path fill="#ffffff" d="M 138.941406 128.238281 L -155.574219 420.078125 L 136.269531 125.5625 Z M 138.941406 128.238281 " fill-opacity="1" fill-rule="nonzero"/><path fill="#ffffff" d="M 135.183594 124.476562 L -159.335938 416.320312 L 132.507812 121.800781 Z M 135.183594 124.476562 " fill-opacity="1" fill-rule="nonzero"/><path fill="#ffffff" d="M 131.421875 120.714844 L -163.09375 412.558594 L 128.746094 118.039062 Z M 131.421875 120.714844 " fill-opacity="1" fill-rule="nonzero"/><path fill="#ffffff" d="M 127.660156 116.953125 L -166.859375 408.796875 L 124.984375 114.28125 Z M 127.660156 116.953125 " fill-opacity="1" fill-rule="nonzero"/><path fill="#ffffff" d="M 123.898438 113.191406 L -170.617188 405.035156 L 121.226562 110.519531 Z M 123.898438 113.191406 " fill-opacity="1" fill-rule="nonzero"/><path fill="#ffffff" d="M 120.136719 109.429688 L -174.378906 401.273438 L 117.464844 106.757812 Z M 120.136719 109.429688 " fill-opacity="1" fill-rule="nonzero"/><path fill="#ffffff" d="M 116.375 105.671875 L -178.140625 397.515625 L 113.703125 102.996094 Z M 116.375 105.671875 " fill-opacity="1" fill-rule="nonzero"/><path fill="#ffffff" d="M 112.617188 101.910156 L -181.902344 393.75 L 109.941406 99.238281 Z M 112.617188 101.910156 " fill-opacity="1" fill-rule="nonzero"/><path fill="#ffffff" d="M 108.855469 98.148438 L -185.660156 389.992188 L 106.183594 95.472656 Z M 108.855469 98.148438 " fill-opacity="1" fill-rule="nonzero"/><path fill="#ffffff" d="M 105.09375 94.386719 L -189.421875 386.230469 L 102.417969 91.714844 Z M 105.09375 94.386719 " fill-opacity="1" fill-rule="nonzero"/><path fill="#ffffff" d="M 101.332031 90.625 L -193.183594 382.46875 L 98.660156 87.953125 Z M 101.332031 90.625 " fill-opacity="1" fill-rule="nonzero"/><path fill="#ffffff" d="M 97.570312 86.863281 L -196.945312 378.707031 L 94.898438 84.191406 Z M 97.570312 86.863281 " fill-opacity="1" fill-rule="nonzero"/><path fill="#ffffff" d="M 93.808594 83.105469 L -200.707031 374.949219 L 91.136719 80.429688 Z M 93.808594 83.105469 " fill-opacity="1" fill-rule="nonzero"/><path fill="#ffffff" d="M 90.050781 79.34375 L -204.46875 371.183594 L 87.375 76.667969 Z M 90.050781 79.34375 " fill-opacity="1" fill-rule="nonzero"/><path fill="#ffffff" d="M 86.289062 75.582031 L -208.230469 367.425781 L 83.613281 72.90625 Z M 86.289062 75.582031 " fill-opacity="1" fill-rule="nonzero"/><path fill="#ffffff" d="M 82.527344 71.820312 L -211.988281 363.664062 L 79.855469 69.148438 Z M 82.527344 71.820312 " fill-opacity="1" fill-rule="nonzero"/><path fill="#ffffff" d="M 78.765625 68.058594 L -215.75 359.902344 L 76.09375 65.386719 Z M 78.765625 68.058594 " fill-opacity="1" fill-rule="nonzero"/><path fill="#ffffff" d="M 75.003906 64.300781 L -219.511719 356.140625 L 72.332031 61.625 Z M 75.003906 64.300781 " fill-opacity="1" fill-rule="nonzero"/><path fill="#ffffff" d="M 71.246094 60.535156 L -223.273438 352.378906 L 68.570312 57.863281 Z M 71.246094 60.535156 " fill-opacity="1" fill-rule="nonzero"/><path fill="#ffffff" d="M 67.480469 56.777344 L -227.03125 348.621094 L 64.808594 54.101562 Z M 67.480469 56.777344 " fill-opacity="1" fill-rule="nonzero"/><path fill="#ffffff" d="M -135.472656 440.179688 L 159.046875 148.335938 L -132.796875 442.855469 Z M -135.472656 440.179688 " fill-opacity="1" fill-rule="nonzero"/><path fill="#ffffff" d="M -131.710938 443.941406 L 162.804688 152.101562 L -129.039062 446.613281 Z M -131.710938 443.941406 " fill-opacity="1" fill-rule="nonzero"/><path fill="#ffffff" d="M -127.949219 447.703125 L 166.566406 155.859375 L -125.277344 450.378906 Z M -127.949219 447.703125 " fill-opacity="1" fill-rule="nonzero"/><path fill="#ffffff" d="M -124.1875 451.464844 L 170.324219 159.621094 L -121.515625 454.136719 Z M -124.1875 451.464844 " fill-opacity="1" fill-rule="nonzero"/><path fill="#ffffff" d="M -120.429688 455.222656 L 174.089844 163.378906 L -117.753906 457.898438 Z M -120.429688 455.222656 " fill-opacity="1" fill-rule="nonzero"/><path fill="#ffffff" d="M -116.667969 458.984375 L 177.847656 167.144531 L -113.996094 461.65625 Z M -116.667969 458.984375 " fill-opacity="1" fill-rule="nonzero"/><path fill="#ffffff" d="M -112.90625 462.746094 L 181.609375 170.902344 L -110.230469 465.421875 Z M -112.90625 462.746094 " fill-opacity="1" fill-rule="nonzero"/><path fill="#ffffff" d="M -109.144531 466.507812 L 185.371094 174.664062 L -106.472656 469.179688 Z M -109.144531 466.507812 " fill-opacity="1" fill-rule="nonzero"/><path fill="#ffffff" d="M -105.382812 470.269531 L 189.132812 178.425781 L -102.710938 472.941406 Z M -105.382812 470.269531 " fill-opacity="1" fill-rule="nonzero"/><path fill="#ffffff" d="M -101.621094 474.03125 L 192.894531 182.1875 L -98.949219 476.703125 Z M -101.621094 474.03125 " fill-opacity="1" fill-rule="nonzero"/><path fill="#ffffff" d="M -97.863281 477.792969 L 196.65625 185.949219 L -95.1875 480.464844 Z M -97.863281 477.792969 " fill-opacity="1" fill-rule="nonzero"/><path fill="#ffffff" d="M -94.101562 481.550781 L 200.417969 189.710938 L -91.429688 484.226562 Z M -94.101562 481.550781 " fill-opacity="1" fill-rule="nonzero"/><path fill="#ffffff" d="M -90.339844 485.3125 L 204.175781 193.46875 L -87.664062 487.988281 Z M -90.339844 485.3125 " fill-opacity="1" fill-rule="nonzero"/><path fill="#ffffff" d="M -86.578125 489.074219 L 207.9375 197.230469 L -83.90625 491.75 Z M -86.578125 489.074219 " fill-opacity="1" fill-rule="nonzero"/><path fill="#ffffff" d="M -82.816406 492.835938 L 211.699219 200.992188 L -80.144531 495.507812 Z M -82.816406 492.835938 " fill-opacity="1" fill-rule="nonzero"/><path fill="#ffffff" d="M -79.058594 496.59375 L 215.460938 204.753906 L -76.382812 499.269531 Z M -79.058594 496.59375 " fill-opacity="1" fill-rule="nonzero"/><path fill="#ffffff" d="M -75.296875 500.359375 L 219.21875 208.515625 L -72.621094 503.03125 Z M -75.296875 500.359375 " fill-opacity="1" fill-rule="nonzero"/><path fill="#ffffff" d="M -71.535156 504.117188 L 222.980469 212.273438 L -68.863281 506.792969 Z M -71.535156 504.117188 " fill-opacity="1" fill-rule="nonzero"/><path fill="#ffffff" d="M -67.773438 507.878906 L 226.742188 216.035156 L -65.101562 510.550781 Z M -67.773438 507.878906 " fill-opacity="1" fill-rule="nonzero"/><path fill="#ffffff" d="M -64.011719 511.640625 L 230.503906 219.796875 L -61.339844 514.3125 Z M -64.011719 511.640625 " fill-opacity="1" fill-rule="nonzero"/><path fill="#ffffff" d="M -60.25 515.402344 L 234.265625 223.558594 L -57.578125 518.074219 Z M -60.25 515.402344 " fill-opacity="1" fill-rule="nonzero"/><path fill="#ffffff" d="M -56.492188 519.164062 L 238.027344 227.320312 L -53.816406 521.835938 Z M -56.492188 519.164062 " fill-opacity="1" fill-rule="nonzero"/><path fill="#ffffff" d="M -52.726562 522.925781 L 241.785156 231.082031 L -50.058594 525.597656 Z M -52.726562 522.925781 " fill-opacity="1" fill-rule="nonzero"/><path fill="#ffffff" d="M -48.96875 526.683594 L 245.550781 234.839844 L -46.292969 529.359375 Z M -48.96875 526.683594 " fill-opacity="1" fill-rule="nonzero"/><g clip-path="url(#c9dde078ee)"><path fill="#ffffff" d="M -45.207031 530.445312 L 249.308594 238.601562 L -42.535156 533.121094 Z M -45.207031 530.445312 " fill-opacity="1" fill-rule="nonzero"/></g><g mask="url(#5eaebc0fb1)"><g transform="matrix(1, 0, 0, 1, 304, 245)"><g clip-path="url(#e15ae6eedf)"><g clip-path="url(#7f0bf8ada6)"><path stroke-linecap="butt" transform="matrix(-0.75013, -0.000000000000000092, 0.000000000000000092, -0.75, 339.441377, 2.915086)" fill="none" stroke-linejoin="miter" d="M -0.0000391189 0.501364 L 449.932234 0.501364 " stroke="#a6a6a6" stroke-width="1" stroke-opacity="1" stroke-miterlimit="4"/></g></g></g></g></svg>