<svg xmlns="http://www.w3.org/2000/svg" xmlns:xlink="http://www.w3.org/1999/xlink" width="1080" zoomAndPan="magnify" viewBox="0 0 810 1439.999935" height="1920" preserveAspectRatio="xMidYMid meet" version="1.0"><defs><filter x="0%" y="0%" width="100%" height="100%" id="978bc29dcf"><feColorMatrix values="0 0 0 0 1 0 0 0 0 1 0 0 0 0 1 0 0 0 1 0" color-interpolation-filters="sRGB"/></filter><mask id="ad307c0ee3"><g filter="url(#978bc29dcf)"><rect x="-81" width="972" fill="#000000" y="-143.999994" height="1727.999922" fill-opacity="0.6784"/></g></mask><clipPath id="c37cf76b19"><path d="M 0 0.886719 L 369 0.886719 L 369 409 L 0 409 Z M 0 0.886719 " clip-rule="nonzero"/></clipPath><clipPath id="adc1552014"><rect x="0" width="374" y="0" height="409"/></clipPath><clipPath id="db10bea74e"><path d="M 5 0 L 195.417969 0 L 195.417969 620.992188 L 5 620.992188 Z M 5 0 " clip-rule="nonzero"/></clipPath><mask id="af69dc88df"><g filter="url(#978bc29dcf)"><rect x="-81" width="972" fill="#000000" y="-143.999994" height="1727.999922" fill-opacity="0.8471"/></g></mask><clipPath id="b69ddad9fc"><path d="M 1.078125 0.351562 L 170 0.351562 L 170 630.996094 L 1.078125 630.996094 Z M 1.078125 0.351562 " clip-rule="nonzero"/></clipPath><clipPath id="ae26d60234"><rect x="0" width="170" y="0" height="632"/></clipPath></defs><path fill="#ffffff" d="M 324.308594 1210.472656 C 417.246094 1169.582031 512.527344 1185.953125 563.835938 1235.722656 C 615.148438 1285.488281 715.914062 1426.480469 532.617188 1543.195312 C 349.316406 1659.910156 181.914062 1402.929688 252.667969 1287.503906 C 296.394531 1216.121094 324.308594 1210.472656 324.308594 1210.472656 Z M 324.308594 1210.472656 " fill-opacity="1" fill-rule="nonzero"/><g mask="url(#ad307c0ee3)"><g transform="matrix(1, 0, 0, 1, 0, 1031)"><g clip-path="url(#adc1552014)"><g clip-path="url(#c37cf76b19)"><path fill="#fecd1a" d="M 367.066406 429.746094 C 335.398438 435.160156 303.039062 436.546875 270.960938 433.769531 C 165.6875 434.328125 60.417969 434.742188 -44.714844 429.050781 C -38.878906 288.300781 -40.128906 141.863281 -42.074219 0.972656 C -13.464844 1.527344 12.226562 9.578125 35.421875 26.652344 C 43.335938 32.480469 50.558594 39.144531 56.113281 47.195312 C 72.222656 70.652344 73.195312 105.910156 98.054688 119.929688 C 118.746094 131.730469 144.996094 121.734375 168.605469 124.789062 C 188.742188 127.285156 206.796875 139.5 218.878906 155.742188 C 230.960938 171.984375 237.488281 191.832031 239.988281 211.957031 C 242.210938 230.003906 241.933594 249.574219 252.765625 264.148438 C 264.988281 280.667969 287.070312 285.386719 305.957031 293.578125 C 355.675781 315.09375 373.035156 375.75 367.066406 429.746094 Z M 367.066406 429.746094 " fill-opacity="1" fill-rule="nonzero"/></g></g></g></g><path fill="#fecd1a" d="M 600.101562 -12.492188 C 693.042969 -53.386719 788.320312 -37.011719 839.632812 12.753906 C 890.941406 62.519531 991.707031 203.511719 808.410156 320.226562 C 625.113281 436.941406 457.707031 179.960938 528.460938 64.535156 C 572.1875 -6.847656 600.101562 -12.492188 600.101562 -12.492188 Z M 600.101562 -12.492188 " fill-opacity="1" fill-rule="nonzero"/><g clip-path="url(#db10bea74e)"><path fill="#fabdbd" d="M 5.109375 -9.757812 L 5.109375 620.992188 C 5.109375 620.992188 141.9375 530.933594 146.214844 475.054688 C 150.492188 419.179688 100.496094 399.457031 121.21875 360.015625 C 141.9375 320.574219 192.59375 306.4375 195.222656 261.738281 C 200.15625 170.691406 86.683594 187.125 80.761719 138.152344 C 74.839844 89.175781 95.234375 -8.113281 5.109375 -9.757812 Z M 5.109375 -9.757812 " fill-opacity="1" fill-rule="nonzero"/></g><g mask="url(#af69dc88df)"><g transform="matrix(1, 0, 0, 1, 640, 89)"><g clip-path="url(#ae26d60234)"><g clip-path="url(#b69ddad9fc)"><path fill="#b1d4e0" d="M 191.386719 0.351562 L 191.386719 631.101562 C 191.386719 631.101562 54.558594 541.042969 50.28125 485.164062 C 46.003906 429.289062 96 409.566406 75.277344 370.125 C 54.558594 330.683594 3.902344 316.546875 1.273438 271.847656 C -3.660156 180.800781 109.8125 197.234375 115.734375 148.261719 C 121.65625 99.285156 101.261719 1.996094 191.386719 0.351562 Z M 191.386719 0.351562 " fill-opacity="1" fill-rule="nonzero"/></g></g></g></g></svg>