<svg xmlns="http://www.w3.org/2000/svg" xmlns:xlink="http://www.w3.org/1999/xlink" width="1080" zoomAndPan="magnify" viewBox="0 0 810 1439.999935" height="1920" preserveAspectRatio="xMidYMid meet" version="1.0"><defs><filter x="0%" y="0%" width="100%" height="100%" id="47840b6d92"><feColorMatrix values="0 0 0 0 1 0 0 0 0 1 0 0 0 0 1 0 0 0 1 0" color-interpolation-filters="sRGB"/></filter><mask id="0bb6b3ed61"><g filter="url(#47840b6d92)"><rect x="-81" width="972" fill="#000000" y="-143.999994" height="1727.999922" fill-opacity="0.149"/></g></mask><clipPath id="c22610f4de"><path d="M 73.378906 1 L 75 1 L 75 1330 L 73.378906 1330 Z M 73.378906 1 " clip-rule="nonzero"/></clipPath><clipPath id="e2038e500c"><path d="M 73.378906 1232 L 736.371094 1232 L 736.371094 1237 L 73.378906 1237 Z M 73.378906 1232 " clip-rule="nonzero"/></clipPath><clipPath id="816280bc2a"><path d="M 73.378906 1042 L 736.371094 1042 L 736.371094 1048 L 73.378906 1048 Z M 73.378906 1042 " clip-rule="nonzero"/></clipPath><clipPath id="e4e8a0d5c0"><path d="M 73.378906 853 L 736.371094 853 L 736.371094 858 L 73.378906 858 Z M 73.378906 853 " clip-rule="nonzero"/></clipPath><clipPath id="ab3c03163f"><path d="M 73.378906 663 L 736.371094 663 L 736.371094 668 L 73.378906 668 Z M 73.378906 663 " clip-rule="nonzero"/></clipPath><clipPath id="cde68f8868"><path d="M 73.378906 473 L 736.371094 473 L 736.371094 478 L 73.378906 478 Z M 73.378906 473 " clip-rule="nonzero"/></clipPath><clipPath id="49e0fdf13d"><path d="M 73.378906 283 L 736.371094 283 L 736.371094 289 L 73.378906 289 Z M 73.378906 283 " clip-rule="nonzero"/></clipPath><clipPath id="327e083d1b"><path d="M 73.378906 93 L 736.371094 93 L 736.371094 99 L 73.378906 99 Z M 73.378906 93 " clip-rule="nonzero"/></clipPath><clipPath id="6d788ed3b7"><rect x="0" width="737" y="0" height="1330"/></clipPath><clipPath id="7eb0b23d2c"><path d="M 174 259 L 234 259 L 234 319 L 174 319 Z M 174 259 " clip-rule="nonzero"/></clipPath><clipPath id="d0fd9b87b2"><path d="M 186.511719 247.214844 L 245.695312 270.90625 L 222.003906 330.089844 L 162.820312 306.398438 Z M 186.511719 247.214844 " clip-rule="nonzero"/></clipPath><clipPath id="4ff3463bdf"><path d="M 186.511719 247.214844 L 245.695312 270.90625 L 222.003906 330.089844 L 162.820312 306.398438 Z M 186.511719 247.214844 " clip-rule="nonzero"/></clipPath><clipPath id="71a91f3011"><path d="M 78 296 L 165 296 L 165 383 L 78 383 Z M 78 296 " clip-rule="nonzero"/></clipPath><clipPath id="c0c99f5ac8"><path d="M 95.898438 279.769531 L 181.539062 314.050781 L 147.257812 399.695312 L 61.613281 365.410156 Z M 95.898438 279.769531 " clip-rule="nonzero"/></clipPath><clipPath id="975f230f6b"><path d="M 95.898438 279.769531 L 181.539062 314.050781 L 147.257812 399.695312 L 61.613281 365.410156 Z M 95.898438 279.769531 " clip-rule="nonzero"/></clipPath><clipPath id="d3a3e56e65"><path d="M 618.445312 1094.132812 L 658.945312 1094.132812 L 658.945312 1134.632812 L 618.445312 1134.632812 Z M 618.445312 1094.132812 " clip-rule="nonzero"/></clipPath><clipPath id="4629e776e0"><path d="M 639.296875 1127 L 714.296875 1127 L 714.296875 1202 L 639.296875 1202 Z M 639.296875 1127 " clip-rule="nonzero"/></clipPath><clipPath id="a79dfa6714"><path d="M 572.378906 1135.003906 L 631.628906 1135.003906 L 631.628906 1194.253906 L 572.378906 1194.253906 Z M 572.378906 1135.003906 " clip-rule="nonzero"/></clipPath><clipPath id="bb278b17a0"><path d="M 81 603 L 729 603 L 729 956.210938 L 81 956.210938 Z M 81 603 " clip-rule="nonzero"/></clipPath><clipPath id="07ec77b521"><path d="M 81 603 L 729 603 L 729 956.210938 L 81 956.210938 Z M 81 603 " clip-rule="nonzero"/></clipPath></defs><rect x="-81" width="972" fill="#ffffff" y="-143.999994" height="1727.999922" fill-opacity="1"/><rect x="-81" width="972" fill="#a1bb99" y="-143.999994" height="1727.999922" fill-opacity="1"/><g mask="url(#0bb6b3ed61)"><g transform="matrix(1, 0, 0, 1, 0, 80)"><g clip-path="url(#6d788ed3b7)"><path fill="#ffffff" d="M 639.355469 1 L 643.785156 1 L 643.785156 1330 L 639.355469 1330 Z M 639.355469 1 " fill-opacity="1" fill-rule="nonzero"/><path fill="#ffffff" d="M 449.308594 1 L 453.738281 1 L 453.738281 1330 L 449.308594 1330 Z M 449.308594 1 " fill-opacity="1" fill-rule="nonzero"/><path fill="#ffffff" d="M 259.703125 1 L 264.136719 1 L 264.136719 1330 L 259.703125 1330 Z M 259.703125 1 " fill-opacity="1" fill-rule="nonzero"/><g clip-path="url(#c22610f4de)"><path fill="#ffffff" d="M 69.65625 1 L 74.089844 1 L 74.089844 1330 L 69.65625 1330 Z M 69.65625 1 " fill-opacity="1" fill-rule="nonzero"/></g><g clip-path="url(#e2038e500c)"><path fill="#ffffff" d="M -592.628906 1232.539062 L 736.371094 1232.539062 L 736.371094 1236.96875 L -592.628906 1236.96875 Z M -592.628906 1232.539062 " fill-opacity="1" fill-rule="nonzero"/></g><g clip-path="url(#816280bc2a)"><path fill="#ffffff" d="M -592.628906 1042.9375 L 736.371094 1042.9375 L 736.371094 1047.367188 L -592.628906 1047.367188 Z M -592.628906 1042.9375 " fill-opacity="1" fill-rule="nonzero"/></g><g clip-path="url(#e4e8a0d5c0)"><path fill="#ffffff" d="M -592.628906 853.332031 L 736.371094 853.332031 L 736.371094 857.761719 L -592.628906 857.761719 Z M -592.628906 853.332031 " fill-opacity="1" fill-rule="nonzero"/></g><g clip-path="url(#ab3c03163f)"><path fill="#ffffff" d="M -592.628906 663.285156 L 736.371094 663.285156 L 736.371094 667.714844 L -592.628906 667.714844 Z M -592.628906 663.285156 " fill-opacity="1" fill-rule="nonzero"/></g><g clip-path="url(#cde68f8868)"><path fill="#ffffff" d="M -592.628906 473.238281 L 736.371094 473.238281 L 736.371094 477.667969 L -592.628906 477.667969 Z M -592.628906 473.238281 " fill-opacity="1" fill-rule="nonzero"/></g><g clip-path="url(#49e0fdf13d)"><path fill="#ffffff" d="M -592.628906 283.632812 L 736.371094 283.632812 L 736.371094 288.0625 L -592.628906 288.0625 Z M -592.628906 283.632812 " fill-opacity="1" fill-rule="nonzero"/></g><g clip-path="url(#327e083d1b)"><path fill="#ffffff" d="M -592.628906 93.585938 L 736.371094 93.585938 L 736.371094 98.015625 L -592.628906 98.015625 Z M -592.628906 93.585938 " fill-opacity="1" fill-rule="nonzero"/></g></g></g></g><g clip-path="url(#7eb0b23d2c)"><g clip-path="url(#d0fd9b87b2)"><g clip-path="url(#4ff3463bdf)"><path fill="#fff6e5" d="M 216.101562 259.058594 C 209.5625 275.402344 191.007812 283.347656 174.664062 276.804688 C 191.007812 283.347656 198.953125 301.902344 192.410156 318.246094 C 198.953125 301.902344 217.507812 293.957031 233.847656 300.496094 C 217.507812 293.957031 209.5625 275.402344 216.101562 259.058594 Z M 216.101562 259.058594 " fill-opacity="1" fill-rule="nonzero"/></g></g></g><g clip-path="url(#71a91f3011)"><g clip-path="url(#c0c99f5ac8)"><g clip-path="url(#975f230f6b)"><path fill="#fff6e5" d="M 138.71875 296.910156 C 129.253906 320.5625 102.40625 332.058594 78.757812 322.589844 C 102.40625 332.058594 113.902344 358.90625 104.433594 382.554688 C 113.902344 358.90625 140.75 347.40625 164.398438 356.875 C 140.75 347.40625 129.253906 320.5625 138.71875 296.910156 Z M 138.71875 296.910156 " fill-opacity="1" fill-rule="nonzero"/></g></g></g><g clip-path="url(#d3a3e56e65)"><path fill="#fff6e5" d="M 638.695312 1094.132812 C 638.695312 1105.316406 629.628906 1114.382812 618.445312 1114.382812 C 629.628906 1114.382812 638.695312 1123.449219 638.695312 1134.632812 C 638.695312 1123.449219 647.761719 1114.382812 658.945312 1114.382812 C 647.761719 1114.382812 638.695312 1105.316406 638.695312 1094.132812 Z M 638.695312 1094.132812 " fill-opacity="1" fill-rule="nonzero"/></g><g clip-path="url(#4629e776e0)"><path fill="#fff6e5" d="M 676.796875 1127 C 676.796875 1147.710938 660.007812 1164.5 639.296875 1164.5 C 660.007812 1164.5 676.796875 1181.289062 676.796875 1202 C 676.796875 1181.289062 693.585938 1164.5 714.296875 1164.5 C 693.585938 1164.5 676.796875 1147.710938 676.796875 1127 Z M 676.796875 1127 " fill-opacity="1" fill-rule="nonzero"/></g><g clip-path="url(#a79dfa6714)"><path fill="#fff6e5" d="M 602.003906 1135.003906 C 602.003906 1151.363281 588.742188 1164.628906 572.378906 1164.628906 C 588.742188 1164.628906 602.003906 1177.894531 602.003906 1194.253906 C 602.003906 1177.890625 615.269531 1164.628906 631.628906 1164.628906 C 615.269531 1164.628906 602.003906 1151.363281 602.003906 1135.003906 Z M 602.003906 1135.003906 " fill-opacity="1" fill-rule="nonzero"/></g><g clip-path="url(#bb278b17a0)"><path fill="#688d5c" d="M 86.246094 639.589844 C 95.070312 639.589844 103.449219 639.453125 111.824219 639.617188 C 128.382812 639.9375 144.933594 640.402344 161.488281 640.847656 C 182.0625 641.402344 202.636719 641.964844 223.207031 642.589844 C 247.101562 643.3125 270.980469 643.574219 294.878906 642.460938 C 308.699219 641.816406 322.554688 641.539062 336.386719 641.640625 C 371.523438 641.898438 406.660156 642.363281 441.789062 642.945312 C 458.230469 643.214844 474.65625 644.109375 491.097656 644.417969 C 516.644531 644.898438 542.199219 645.375 567.75 645.363281 C 584.660156 645.351562 601.574219 644.644531 618.476562 643.96875 C 651.8125 642.636719 685.140625 641.308594 718.515625 642.070312 C 720.152344 642.109375 721.789062 642.074219 723.640625 642.074219 C 723.78125 643.101562 723.996094 644.003906 724.015625 644.90625 C 724.214844 653.535156 724.644531 662.164062 724.511719 670.789062 C 723.882812 712.402344 723.285156 754.019531 722.296875 795.625 C 721.691406 821.152344 720.589844 846.671875 719.351562 872.175781 C 718.648438 886.6875 717.804688 901.230469 715.214844 915.570312 C 714.273438 920.785156 713.023438 925.976562 711.484375 931.050781 C 707.625 943.78125 698.820312 950.300781 685.570312 950.78125 C 676.472656 951.113281 667.363281 951.609375 658.265625 951.5 C 621.832031 951.054688 585.402344 950.472656 548.96875 949.800781 C 521.527344 949.296875 494.089844 948.660156 466.644531 949.367188 C 448.316406 949.839844 429.984375 950.582031 411.652344 950.710938 C 384.207031 950.90625 356.761719 950.722656 329.3125 950.59375 C 304.828125 950.476562 280.339844 950.210938 255.851562 950.019531 C 232.195312 949.832031 208.535156 949.464844 184.878906 949.53125 C 168.558594 949.578125 152.238281 950.445312 135.914062 950.519531 C 126.117188 950.566406 116.304688 949.917969 106.515625 949.320312 C 103.734375 949.152344 100.976562 948.179688 98.265625 947.375 C 94.816406 946.351562 92.519531 944.023438 91.90625 940.4375 C 90.871094 934.390625 89.726562 928.339844 89.136719 922.242188 C 85.425781 883.679688 85.976562 845.019531 86.457031 806.351562 C 86.757812 782 86.511719 757.640625 86.46875 733.28125 C 86.421875 707.980469 86.320312 682.675781 86.25 657.375 C 86.230469 651.476562 86.246094 645.582031 86.246094 639.589844 Z M 406.289062 934.398438 C 406.289062 934.417969 406.289062 934.441406 406.289062 934.464844 C 420.945312 934.464844 435.605469 934.59375 450.261719 934.398438 C 456.03125 934.324219 461.847656 933.878906 467.539062 932.964844 C 474.816406 931.796875 478.933594 927.304688 480.203125 920.019531 C 480.585938 917.820312 480.753906 915.554688 480.722656 913.320312 C 480.671875 909.898438 480.480469 906.46875 480.144531 903.0625 C 479.539062 896.933594 478.394531 895.773438 472.21875 894.511719 C 471.292969 894.320312 470.359375 894.125 469.421875 894.054688 C 459.40625 893.339844 449.390625 892.175781 439.363281 892.054688 C 417.617188 891.792969 395.863281 891.957031 374.113281 892.183594 C 365.375 892.273438 356.640625 892.90625 347.910156 893.449219 C 345.339844 893.609375 342.753906 894.128906 340.265625 894.816406 C 337.757812 895.507812 336.15625 897.21875 335.265625 899.84375 C 334.214844 902.945312 333.761719 906.046875 334.019531 909.25 C 334.390625 913.839844 334.925781 918.417969 335.363281 923.003906 C 335.785156 927.410156 338.300781 930.078125 342.355469 931.457031 C 343.472656 931.835938 344.625 932.109375 345.777344 932.359375 C 352.980469 933.921875 360.308594 934.285156 367.632812 934.359375 C 380.515625 934.492188 393.402344 934.398438 406.289062 934.398438 Z M 86.261719 635.03125 C 86.25 627.734375 85.824219 620.910156 87.007812 614.121094 C 87.300781 612.441406 88.214844 611.285156 89.894531 610.914062 C 91.503906 610.5625 93.140625 610.15625 94.769531 610.117188 C 109.90625 609.757812 125.042969 609.332031 140.179688 609.203125 C 160.289062 609.027344 180.402344 609.125 200.511719 609.050781 C 223.109375 608.972656 245.707031 608.886719 268.300781 608.707031 C 290.066406 608.539062 311.835938 608.054688 333.601562 608.054688 C 380.214844 608.054688 426.832031 608.078125 473.445312 608.480469 C 507.039062 608.769531 540.628906 609.6875 574.222656 610.332031 C 602.019531 610.863281 629.816406 611.34375 657.609375 611.972656 C 671.675781 612.292969 685.773438 612.492188 699.734375 614.523438 C 703.917969 615.132812 708.085938 616.15625 712.128906 617.417969 C 717.238281 619.011719 720.496094 622.625 721.695312 627.910156 C 722.371094 630.882812 722.90625 633.890625 723.550781 637.113281 C 722.496094 637.261719 721.839844 637.441406 721.1875 637.4375 C 709.828125 637.371094 698.46875 637.101562 687.113281 637.246094 C 673.988281 637.414062 660.867188 637.921875 647.746094 638.328125 C 640.890625 638.539062 634.027344 638.757812 627.179688 639.125 C 581.648438 641.566406 536.101562 640.480469 490.5625 639.816406 C 465.722656 639.457031 440.894531 638.273438 416.058594 637.90625 C 383.644531 637.429688 351.226562 637.222656 318.8125 637.25 C 304.148438 637.261719 289.488281 638.21875 274.824219 638.550781 C 249.023438 639.140625 223.25 638.03125 197.480469 636.992188 C 189.207031 636.660156 180.921875 636.613281 172.644531 636.476562 C 156.203125 636.203125 139.761719 635.972656 123.320312 635.691406 C 112.203125 635.5 101.085938 635.25 89.964844 635.035156 C 88.914062 635.015625 87.863281 635.03125 86.261719 635.03125 Z M 136.332031 632.074219 C 136.332031 632.113281 136.332031 632.152344 136.332031 632.195312 C 138.808594 632.195312 141.289062 632.253906 143.761719 632.175781 C 146.226562 632.101562 147.109375 631.410156 147.191406 629.101562 C 147.347656 624.625 147.375 620.140625 147.285156 615.664062 C 147.242188 613.589844 146.488281 612.84375 144.402344 612.902344 C 138.867188 613.066406 133.332031 613.324219 127.8125 613.753906 C 125.347656 613.945312 124.765625 614.683594 124.734375 617.1875 C 124.695312 620.835938 124.769531 624.496094 125.023438 628.136719 C 125.242188 631.292969 125.980469 631.898438 129.253906 632.050781 C 131.609375 632.160156 133.972656 632.074219 136.332031 632.074219 Z M 104.472656 623.644531 C 103.449219 625.753906 102.511719 627.402344 101.882812 629.160156 C 101.6875 629.710938 102.160156 630.726562 102.644531 631.203125 C 102.882812 631.433594 104.050781 631.121094 104.453125 630.714844 C 105.683594 629.46875 106.746094 628.054688 108.027344 626.523438 C 109.535156 627.539062 110.976562 628.523438 112.433594 629.484375 C 113.246094 630.015625 114.253906 630.570312 114.867188 629.492188 C 115.128906 629.023438 114.742188 627.898438 114.300781 627.371094 C 113.039062 625.875 111.597656 624.535156 110.148438 623.046875 C 111.824219 620.71875 113.417969 618.679688 114.789062 616.496094 C 115.207031 615.832031 115.402344 614.515625 115.019531 613.972656 C 114.273438 612.90625 113.085938 613.40625 112.238281 614.136719 C 111.441406 614.824219 110.75 615.640625 110.066406 616.445312 C 109.011719 617.679688 108.007812 618.953125 106.789062 620.445312 C 105.09375 618.945312 103.707031 617.515625 102.101562 616.394531 C 101.53125 615.996094 100.328125 616.109375 99.640625 616.449219 C 99.320312 616.605469 99.335938 617.945312 99.585938 618.601562 C 99.859375 619.328125 100.539062 619.929688 101.117188 620.503906 C 102.191406 621.570312 103.320312 622.574219 104.472656 623.644531 Z M 167.585938 627.128906 C 167.585938 627.203125 167.585938 627.277344 167.585938 627.351562 C 169.585938 627.351562 171.585938 627.367188 173.585938 627.347656 C 174.523438 627.335938 175.53125 627.441406 176.378906 627.136719 C 177.023438 626.90625 177.460938 626.105469 177.992188 625.558594 C 177.445312 625.050781 176.933594 624.496094 176.328125 624.0625 C 176.085938 623.890625 175.644531 623.976562 175.289062 623.972656 C 170.347656 623.875 165.40625 623.777344 160.460938 623.691406 C 159.992188 623.679688 159.410156 623.574219 159.078125 623.800781 C 158.464844 624.226562 157.554688 624.886719 157.585938 625.402344 C 157.617188 625.972656 158.484375 626.660156 159.140625 626.976562 C 159.726562 627.257812 160.523438 627.121094 161.230469 627.125 C 163.347656 627.140625 165.464844 627.128906 167.585938 627.128906 Z M 371.75 897.039062 C 363.363281 897.199219 354.972656 897.726562 346.605469 898.347656 C 341.210938 898.75 340.121094 898.996094 339.265625 905.71875 C 339.25 905.835938 339.238281 905.957031 339.25 906.070312 C 339.820312 911.828125 340.371094 917.589844 340.980469 923.339844 C 341.191406 925.3125 342.449219 926.527344 344.261719 927.144531 C 345.378906 927.523438 346.523438 927.90625 347.683594 928.039062 C 352.609375 928.601562 357.542969 929.480469 362.480469 929.507812 C 393.226562 929.660156 423.96875 929.640625 454.714844 929.597656 C 458.367188 929.59375 462.042969 929.269531 465.660156 928.769531 C 471.007812 928.03125 473.574219 925.445312 474.664062 920.203125 C 474.878906 919.164062 475.15625 918.097656 475.121094 917.050781 C 474.953125 912.097656 474.695312 907.148438 474.453125 902.195312 C 474.355469 900.222656 473.246094 899.226562 471.324219 899.03125 C 466.742188 898.566406 462.164062 897.960938 457.570312 897.648438 C 440.335938 896.460938 423.082031 896.007812 400.289062 896.984375 C 394.457031 896.984375 383.101562 896.820312 371.75 897.039062 Z M 144.050781 628.554688 C 144.050781 624.636719 144.050781 620.820312 144.050781 616.726562 C 138.628906 617.242188 133.347656 616.8125 127.964844 618.0625 C 127.964844 621.550781 127.964844 624.808594 127.964844 628.554688 C 133.4375 628.554688 138.589844 628.554688 144.050781 628.554688 Z M 382.519531 603.050781 C 426.230469 603.398438 461.84375 603.457031 497.453125 604.03125 C 535.542969 604.644531 573.625 605.792969 611.714844 606.609375 C 630.40625 607.007812 649.101562 607.015625 667.789062 607.511719 C 680.789062 607.855469 693.816406 608.300781 706.617188 610.949219 C 709.265625 611.5 711.894531 612.296875 714.417969 613.273438 C 720.441406 615.601562 724.296875 619.925781 726 626.21875 C 727.839844 633.003906 728.597656 639.945312 728.6875 646.914062 C 728.886719 662.636719 728.988281 678.363281 728.78125 694.085938 C 728.359375 726.363281 727.820312 758.644531 727.113281 790.917969 C 726.664062 811.367188 726.066406 831.820312 725.085938 852.246094 C 724.265625 869.367188 722.96875 886.46875 721.535156 903.546875 C 720.792969 912.371094 719.460938 921.175781 716.710938 929.648438 C 715.585938 933.113281 714.121094 936.5 712.507812 939.773438 C 708.441406 948.007812 701.601562 952.738281 692.679688 954.277344 C 687.6875 955.136719 682.589844 955.71875 677.527344 955.804688 C 663.21875 956.039062 648.902344 956.105469 634.59375 955.957031 C 609.511719 955.703125 584.433594 955.25 559.355469 954.847656 C 541.136719 954.558594 522.921875 954.003906 504.703125 953.949219 C 487.667969 953.902344 470.621094 954.050781 453.597656 954.660156 C 424.265625 955.707031 394.929688 955.890625 365.585938 955.785156 C 339.320312 955.6875 313.050781 955.742188 286.785156 955.539062 C 267.265625 955.386719 247.746094 954.644531 228.230469 954.683594 C 200.429688 954.738281 172.628906 955.355469 144.828125 955.554688 C 133.359375 955.636719 121.886719 955.347656 110.421875 955.046875 C 105.566406 954.917969 100.796875 953.984375 96.222656 952.195312 C 91.851562 950.484375 88.753906 947.527344 87.738281 942.90625 C 86.601562 937.722656 85.441406 932.5 84.9375 927.230469 C 82.253906 899.078125 81.011719 870.855469 81.316406 842.566406 C 81.597656 816.671875 81.9375 790.773438 81.941406 764.878906 C 81.949219 726.921875 81.621094 688.960938 81.5625 651.003906 C 81.546875 639.777344 81.855469 628.542969 82.21875 617.320312 C 82.5 608.464844 85.007812 605.734375 93.917969 605.011719 C 100.863281 604.449219 107.859375 604.371094 114.835938 604.328125 C 131.75 604.222656 148.667969 604.304688 165.585938 604.230469 C 188.300781 604.136719 211.015625 603.960938 233.730469 603.835938 C 251.59375 603.734375 269.460938 603.664062 287.328125 603.570312 C 321.753906 603.386719 356.183594 603.195312 382.519531 603.050781 Z M 86.246094 639.589844 C 86.246094 645.582031 86.230469 651.476562 86.25 657.375 C 86.320312 682.675781 86.421875 707.980469 86.46875 733.28125 C 86.511719 757.640625 86.757812 782 86.457031 806.351562 C 85.976562 845.019531 85.425781 883.679688 89.136719 922.242188 C 89.726562 928.339844 90.871094 934.390625 91.90625 940.4375 C 92.519531 944.023438 94.816406 946.351562 98.265625 947.375 C 100.976562 948.179688 103.734375 949.152344 106.515625 949.320312 C 116.304688 949.917969 126.117188 950.566406 135.914062 950.519531 C 152.238281 950.445312 168.558594 949.578125 184.878906 949.53125 C 208.535156 949.464844 232.195312 949.832031 255.851562 950.019531 C 280.339844 950.210938 304.828125 950.476562 329.3125 950.59375 C 356.761719 950.722656 384.207031 950.90625 411.652344 950.710938 C 429.984375 950.582031 448.316406 949.839844 466.644531 949.367188 C 494.089844 948.660156 521.527344 949.296875 548.96875 949.800781 C 585.402344 950.472656 621.832031 951.054688 658.265625 951.5 C 667.363281 951.609375 676.472656 951.113281 685.570312 950.78125 C 698.820312 950.300781 707.625 943.78125 711.484375 931.050781 C 713.023438 925.976562 714.273438 920.785156 715.214844 915.570312 C 717.804688 901.230469 718.648438 886.6875 719.351562 872.175781 C 720.589844 846.671875 721.691406 821.152344 722.296875 795.625 C 723.285156 754.019531 723.882812 712.402344 724.511719 670.789062 C 724.644531 662.164062 724.214844 653.535156 724.015625 644.90625 C 723.996094 644.003906 723.78125 643.101562 723.640625 642.074219 C 721.789062 642.074219 720.152344 642.109375 718.515625 642.070312 C 685.140625 641.308594 651.8125 642.636719 618.476562 643.96875 C 601.574219 644.644531 584.660156 645.351562 567.75 645.363281 C 542.199219 645.375 516.644531 644.898438 491.097656 644.417969 C 474.65625 644.109375 458.230469 643.214844 441.789062 642.945312 C 406.660156 642.363281 371.523438 641.898438 336.386719 641.640625 C 322.554688 641.539062 308.699219 641.816406 294.878906 642.460938 C 270.980469 643.574219 247.101562 643.3125 223.207031 642.589844 C 202.636719 641.964844 182.0625 641.402344 161.488281 640.847656 C 144.933594 640.402344 128.382812 639.9375 111.824219 639.617188 C 103.449219 639.453125 95.070312 639.589844 86.246094 639.589844 Z M 86.261719 635.03125 C 87.863281 635.03125 88.914062 635.015625 89.964844 635.035156 C 101.085938 635.25 112.203125 635.5 123.320312 635.691406 C 139.761719 635.972656 156.203125 636.203125 172.644531 636.476562 C 180.921875 636.613281 189.207031 636.660156 197.480469 636.992188 C 223.25 638.03125 249.023438 639.140625 274.824219 638.550781 C 289.488281 638.21875 304.148438 637.261719 318.8125 637.25 C 351.226562 637.222656 383.644531 637.429688 416.058594 637.90625 C 440.894531 638.273438 465.722656 639.457031 490.5625 639.816406 C 536.101562 640.480469 581.648438 641.566406 627.179688 639.125 C 634.027344 638.757812 640.890625 638.539062 647.746094 638.328125 C 660.867188 637.921875 673.988281 637.414062 687.113281 637.246094 C 698.46875 637.101562 709.828125 637.371094 721.1875 637.4375 C 721.839844 637.441406 722.496094 637.261719 723.550781 637.113281 C 722.90625 633.890625 722.371094 630.882812 721.695312 627.910156 C 720.496094 622.625 717.238281 619.011719 712.128906 617.417969 C 708.085938 616.15625 703.917969 615.132812 699.734375 614.523438 C 685.773438 612.492188 671.675781 612.292969 657.609375 611.972656 C 629.816406 611.34375 602.019531 610.863281 574.222656 610.332031 C 540.628906 609.6875 507.039062 608.769531 473.445312 608.480469 C 426.832031 608.078125 380.214844 608.054688 333.601562 608.054688 C 311.835938 608.054688 290.066406 608.539062 268.300781 608.707031 C 245.707031 608.886719 223.109375 608.972656 200.511719 609.050781 C 180.402344 609.125 160.289062 609.027344 140.179688 609.203125 C 125.042969 609.332031 109.90625 609.757812 94.769531 610.117188 C 93.140625 610.15625 91.503906 610.5625 89.894531 610.914062 C 88.214844 611.285156 87.300781 612.441406 87.007812 614.121094 C 85.824219 620.910156 86.25 627.734375 86.261719 635.03125 Z M 406.289062 934.398438 C 393.402344 934.398438 380.515625 934.492188 367.632812 934.359375 C 360.308594 934.285156 352.980469 933.921875 345.777344 932.359375 C 344.625 932.109375 343.472656 931.835938 342.355469 931.457031 C 338.300781 930.078125 335.785156 927.410156 335.363281 923.003906 C 334.925781 918.417969 334.390625 913.839844 334.019531 909.25 C 333.761719 906.046875 334.214844 902.945312 335.265625 899.84375 C 336.15625 897.21875 337.757812 895.507812 340.265625 894.816406 C 342.753906 894.128906 345.339844 893.609375 347.910156 893.449219 C 356.640625 892.90625 365.375 892.273438 374.113281 892.183594 C 395.863281 891.957031 417.617188 891.792969 439.363281 892.054688 C 449.390625 892.175781 459.40625 893.339844 469.421875 894.054688 C 470.359375 894.125 471.292969 894.320312 472.21875 894.511719 C 478.394531 895.773438 479.539062 896.933594 480.144531 903.0625 C 480.480469 906.46875 480.671875 909.898438 480.722656 913.320312 C 480.753906 915.554688 480.585938 917.820312 480.203125 920.019531 C 478.933594 927.304688 474.816406 931.796875 467.539062 932.964844 C 461.847656 933.878906 456.03125 934.324219 450.261719 934.398438 C 435.605469 934.59375 420.945312 934.464844 406.289062 934.464844 C 406.289062 934.441406 406.289062 934.417969 406.289062 934.398438 Z M 400.289062 896.984375 C 394.457031 896.984375 383.101562 896.820312 371.75 897.039062 C 363.363281 897.199219 354.972656 897.726562 346.605469 898.347656 C 341.210938 898.75 340.121094 898.996094 339.265625 905.71875 C 339.25 905.835938 339.238281 905.957031 339.25 906.070312 C 339.820312 911.828125 340.371094 917.589844 340.980469 923.339844 C 341.191406 925.3125 342.449219 926.527344 344.261719 927.144531 C 345.378906 927.523438 346.523438 927.90625 347.683594 928.039062 C 352.609375 928.601562 357.542969 929.480469 362.480469 929.507812 C 393.226562 929.660156 423.96875 929.640625 454.714844 929.597656 C 458.367188 929.59375 462.042969 929.269531 465.660156 928.769531 C 471.007812 928.03125 473.574219 925.445312 474.664062 920.203125 C 474.878906 919.164062 475.15625 918.097656 475.121094 917.050781 C 474.953125 912.097656 474.695312 907.148438 474.453125 902.195312 C 474.355469 900.222656 473.246094 899.226562 471.324219 899.03125 C 466.742188 898.566406 462.164062 897.960938 457.570312 897.648438 C 440.335938 896.460938 423.082031 896.007812 400.289062 896.984375 Z M 136.332031 632.074219 C 133.972656 632.074219 131.609375 632.160156 129.253906 632.050781 C 125.980469 631.898438 125.242188 631.292969 125.023438 628.136719 C 124.769531 624.496094 124.695312 620.835938 124.734375 617.1875 C 124.765625 614.683594 125.347656 613.945312 127.8125 613.753906 C 133.332031 613.324219 138.867188 613.066406 144.402344 612.902344 C 146.488281 612.84375 147.242188 613.589844 147.285156 615.664062 C 147.375 620.140625 147.347656 624.625 147.191406 629.101562 C 147.109375 631.410156 146.226562 632.101562 143.761719 632.175781 C 141.289062 632.253906 138.808594 632.195312 136.332031 632.195312 C 136.332031 632.152344 136.332031 632.113281 136.332031 632.074219 Z M 127.964844 628.554688 C 133.4375 628.554688 138.589844 628.554688 144.050781 628.554688 C 144.050781 624.636719 144.050781 620.820312 144.050781 616.726562 C 138.628906 617.242188 133.347656 616.8125 127.964844 618.0625 C 127.964844 621.550781 127.964844 624.808594 127.964844 628.554688 Z M 101.882812 629.160156 C 101.6875 629.710938 102.160156 630.726562 102.644531 631.203125 C 102.882812 631.433594 104.050781 631.121094 104.453125 630.714844 C 105.683594 629.46875 106.746094 628.054688 108.027344 626.523438 C 109.535156 627.539062 110.976562 628.523438 112.433594 629.484375 C 113.246094 630.015625 114.253906 630.570312 114.867188 629.492188 C 115.128906 629.023438 114.742188 627.898438 114.300781 627.371094 C 113.039062 625.875 111.597656 624.535156 110.148438 623.046875 C 111.824219 620.71875 113.417969 618.679688 114.789062 616.496094 C 115.207031 615.832031 115.402344 614.515625 115.019531 613.972656 C 114.273438 612.90625 113.085938 613.40625 112.238281 614.136719 C 111.441406 614.824219 110.75 615.640625 110.066406 616.445312 C 109.011719 617.679688 108.007812 618.953125 106.789062 620.445312 C 105.09375 618.945312 103.707031 617.515625 102.101562 616.394531 C 101.53125 615.996094 100.328125 616.109375 99.640625 616.449219 C 99.320312 616.605469 99.335938 617.945312 99.585938 618.601562 C 99.859375 619.328125 100.539062 619.929688 101.117188 620.503906 C 102.191406 621.570312 103.320312 622.574219 104.472656 623.644531 C 103.449219 625.753906 102.511719 627.402344 101.882812 629.160156 Z M 167.585938 627.351562 C 169.585938 627.351562 171.585938 627.367188 173.585938 627.347656 C 174.523438 627.335938 175.53125 627.441406 176.378906 627.136719 C 177.023438 626.90625 177.460938 626.105469 177.992188 625.558594 C 177.445312 625.050781 176.933594 624.496094 176.328125 624.0625 C 176.085938 623.890625 175.644531 623.976562 175.289062 623.972656 C 170.347656 623.875 165.40625 623.777344 160.460938 623.691406 C 159.992188 623.679688 159.410156 623.574219 159.078125 623.800781 C 158.464844 624.226562 157.554688 624.886719 157.585938 625.402344 C 157.617188 625.972656 158.484375 626.660156 159.140625 626.976562 C 159.726562 627.257812 160.523438 627.121094 161.230469 627.125 C 163.347656 627.140625 165.464844 627.128906 167.585938 627.128906 C 167.585938 627.203125 167.585938 627.277344 167.585938 627.351562 Z M 167.585938 627.351562 " fill-opacity="1" fill-rule="nonzero"/></g><path fill="#fff6e5" d="M 86.246094 639.589844 C 95.070312 639.589844 103.449219 639.453125 111.824219 639.617188 C 128.382812 639.9375 144.933594 640.402344 161.488281 640.847656 C 182.0625 641.402344 202.636719 641.964844 223.207031 642.589844 C 247.101562 643.3125 270.980469 643.574219 294.878906 642.460938 C 308.699219 641.816406 322.554688 641.539062 336.386719 641.640625 C 371.523438 641.898438 406.660156 642.363281 441.789062 642.945312 C 458.230469 643.214844 474.65625 644.109375 491.097656 644.417969 C 516.644531 644.898438 542.199219 645.375 567.75 645.363281 C 584.660156 645.351562 601.574219 644.644531 618.476562 643.96875 C 651.8125 642.636719 685.140625 641.308594 718.515625 642.070312 C 720.152344 642.109375 721.789062 642.074219 723.640625 642.074219 C 723.78125 643.101562 723.996094 644.003906 724.015625 644.90625 C 724.214844 653.535156 724.644531 662.164062 724.511719 670.789062 C 723.882812 712.402344 723.285156 754.019531 722.296875 795.625 C 721.691406 821.152344 720.589844 846.671875 719.351562 872.175781 C 718.648438 886.6875 717.804688 901.230469 715.214844 915.570312 C 714.273438 920.785156 713.023438 925.976562 711.484375 931.050781 C 707.625 943.78125 698.820312 950.300781 685.570312 950.78125 C 676.472656 951.113281 667.363281 951.609375 658.265625 951.5 C 621.832031 951.054688 585.402344 950.472656 548.96875 949.800781 C 521.527344 949.296875 494.089844 948.660156 466.644531 949.367188 C 448.316406 949.839844 429.984375 950.582031 411.652344 950.710938 C 384.207031 950.90625 356.761719 950.722656 329.3125 950.59375 C 304.828125 950.476562 280.339844 950.210938 255.851562 950.019531 C 232.195312 949.832031 208.535156 949.464844 184.878906 949.53125 C 168.558594 949.578125 152.238281 950.445312 135.914062 950.519531 C 126.117188 950.566406 116.304688 949.917969 106.515625 949.320312 C 103.734375 949.152344 100.976562 948.179688 98.265625 947.375 C 94.816406 946.351562 92.519531 944.023438 91.90625 940.4375 C 90.871094 934.390625 89.726562 928.339844 89.136719 922.242188 C 85.425781 883.679688 85.976562 845.019531 86.457031 806.351562 C 86.757812 782 86.511719 757.640625 86.46875 733.28125 C 86.421875 707.980469 86.320312 682.675781 86.25 657.375 C 86.230469 651.476562 86.246094 645.582031 86.246094 639.589844 Z M 406.289062 934.398438 C 406.289062 934.417969 406.289062 934.441406 406.289062 934.464844 C 420.945312 934.464844 435.605469 934.59375 450.261719 934.398438 C 456.03125 934.324219 461.847656 933.878906 467.539062 932.964844 C 474.816406 931.796875 478.933594 927.304688 480.203125 920.019531 C 480.585938 917.820312 480.753906 915.554688 480.722656 913.320312 C 480.671875 909.898438 480.480469 906.46875 480.144531 903.0625 C 479.539062 896.933594 478.394531 895.773438 472.21875 894.511719 C 471.292969 894.320312 470.359375 894.125 469.421875 894.054688 C 459.40625 893.339844 449.390625 892.175781 439.363281 892.054688 C 417.617188 891.792969 395.863281 891.957031 374.113281 892.183594 C 365.375 892.273438 356.640625 892.90625 347.910156 893.449219 C 345.339844 893.609375 342.753906 894.128906 340.265625 894.816406 C 337.757812 895.507812 336.15625 897.21875 335.265625 899.84375 C 334.214844 902.945312 333.761719 906.046875 334.019531 909.25 C 334.390625 913.839844 334.925781 918.417969 335.363281 923.003906 C 335.785156 927.410156 338.300781 930.078125 342.355469 931.457031 C 343.472656 931.835938 344.625 932.109375 345.777344 932.359375 C 352.980469 933.921875 360.308594 934.285156 367.632812 934.359375 C 380.515625 934.492188 393.402344 934.398438 406.289062 934.398438 Z M 86.261719 635.03125 C 86.25 627.734375 85.824219 620.910156 87.007812 614.121094 C 87.300781 612.441406 88.214844 611.285156 89.894531 610.914062 C 91.503906 610.5625 93.140625 610.15625 94.769531 610.117188 C 109.90625 609.757812 125.042969 609.332031 140.179688 609.203125 C 160.289062 609.027344 180.402344 609.125 200.511719 609.050781 C 223.109375 608.972656 245.707031 608.886719 268.300781 608.707031 C 290.066406 608.539062 311.835938 608.054688 333.601562 608.054688 C 380.214844 608.054688 426.832031 608.078125 473.445312 608.480469 C 507.039062 608.769531 540.628906 609.6875 574.222656 610.332031 C 602.019531 610.863281 629.816406 611.34375 657.609375 611.972656 C 671.675781 612.292969 685.773438 612.492188 699.734375 614.523438 C 703.917969 615.132812 708.085938 616.15625 712.128906 617.417969 C 717.238281 619.011719 720.496094 622.625 721.695312 627.910156 C 722.371094 630.882812 722.90625 633.890625 723.550781 637.113281 C 722.496094 637.261719 721.839844 637.441406 721.1875 637.4375 C 709.828125 637.371094 698.46875 637.101562 687.113281 637.246094 C 673.988281 637.414062 660.867188 637.921875 647.746094 638.328125 C 640.890625 638.539062 634.027344 638.757812 627.179688 639.125 C 581.648438 641.566406 536.101562 640.480469 490.5625 639.816406 C 465.722656 639.457031 440.894531 638.273438 416.058594 637.90625 C 383.644531 637.429688 351.226562 637.222656 318.8125 637.25 C 304.148438 637.261719 289.488281 638.21875 274.824219 638.550781 C 249.023438 639.140625 223.25 638.03125 197.480469 636.992188 C 189.207031 636.660156 180.921875 636.613281 172.644531 636.476562 C 156.203125 636.203125 139.761719 635.972656 123.320312 635.691406 C 112.203125 635.5 101.085938 635.25 89.964844 635.035156 C 88.914062 635.015625 87.863281 635.03125 86.261719 635.03125 Z M 136.332031 632.074219 C 136.332031 632.113281 136.332031 632.152344 136.332031 632.195312 C 138.808594 632.195312 141.289062 632.253906 143.761719 632.175781 C 146.226562 632.101562 147.109375 631.410156 147.191406 629.101562 C 147.347656 624.625 147.375 620.140625 147.285156 615.664062 C 147.242188 613.589844 146.488281 612.84375 144.402344 612.902344 C 138.867188 613.066406 133.332031 613.324219 127.8125 613.753906 C 125.347656 613.945312 124.765625 614.683594 124.734375 617.1875 C 124.695312 620.835938 124.769531 624.496094 125.023438 628.136719 C 125.242188 631.292969 125.980469 631.898438 129.253906 632.050781 C 131.609375 632.160156 133.972656 632.074219 136.332031 632.074219 Z M 104.472656 623.644531 C 103.449219 625.753906 102.511719 627.402344 101.882812 629.160156 C 101.6875 629.710938 102.160156 630.726562 102.644531 631.203125 C 102.882812 631.433594 104.050781 631.121094 104.453125 630.714844 C 105.683594 629.46875 106.746094 628.054688 108.027344 626.523438 C 109.535156 627.539062 110.976562 628.523438 112.433594 629.484375 C 113.246094 630.015625 114.253906 630.570312 114.867188 629.492188 C 115.128906 629.023438 114.742188 627.898438 114.300781 627.371094 C 113.039062 625.875 111.597656 624.535156 110.148438 623.046875 C 111.824219 620.71875 113.417969 618.679688 114.789062 616.496094 C 115.207031 615.832031 115.402344 614.515625 115.019531 613.972656 C 114.273438 612.90625 113.085938 613.40625 112.238281 614.136719 C 111.441406 614.824219 110.75 615.640625 110.066406 616.445312 C 109.011719 617.679688 108.007812 618.953125 106.789062 620.445312 C 105.09375 618.945312 103.707031 617.515625 102.101562 616.394531 C 101.53125 615.996094 100.328125 616.109375 99.640625 616.449219 C 99.320312 616.605469 99.335938 617.945312 99.585938 618.601562 C 99.859375 619.328125 100.539062 619.929688 101.117188 620.503906 C 102.191406 621.570312 103.320312 622.574219 104.472656 623.644531 Z M 167.585938 627.128906 C 167.585938 627.203125 167.585938 627.277344 167.585938 627.351562 C 169.585938 627.351562 171.585938 627.367188 173.585938 627.347656 C 174.523438 627.335938 175.53125 627.441406 176.378906 627.136719 C 177.023438 626.90625 177.460938 626.105469 177.992188 625.558594 C 177.445312 625.050781 176.933594 624.496094 176.328125 624.0625 C 176.085938 623.890625 175.644531 623.976562 175.289062 623.972656 C 170.347656 623.875 165.40625 623.777344 160.460938 623.691406 C 159.992188 623.679688 159.410156 623.574219 159.078125 623.800781 C 158.464844 624.226562 157.554688 624.886719 157.585938 625.402344 C 157.617188 625.972656 158.484375 626.660156 159.140625 626.976562 C 159.726562 627.257812 160.523438 627.121094 161.230469 627.125 C 163.347656 627.140625 165.464844 627.128906 167.585938 627.128906 Z M 371.75 897.039062 C 363.363281 897.199219 354.972656 897.726562 346.605469 898.347656 C 341.210938 898.75 340.121094 898.996094 339.265625 905.71875 C 339.25 905.835938 339.238281 905.957031 339.25 906.070312 C 339.820312 911.828125 340.371094 917.589844 340.980469 923.339844 C 341.191406 925.3125 342.449219 926.527344 344.261719 927.144531 C 345.378906 927.523438 346.523438 927.90625 347.683594 928.039062 C 352.609375 928.601562 357.542969 929.480469 362.480469 929.507812 C 393.226562 929.660156 423.96875 929.640625 454.714844 929.597656 C 458.367188 929.59375 462.042969 929.269531 465.660156 928.769531 C 471.007812 928.03125 473.574219 925.445312 474.664062 920.203125 C 474.878906 919.164062 475.15625 918.097656 475.121094 917.050781 C 474.953125 912.097656 474.695312 907.148438 474.453125 902.195312 C 474.355469 900.222656 473.246094 899.226562 471.324219 899.03125 C 466.742188 898.566406 462.164062 897.960938 457.570312 897.648438 C 440.335938 896.460938 423.082031 896.007812 400.289062 896.984375 C 394.457031 896.984375 383.101562 896.820312 371.75 897.039062 Z M 144.050781 628.554688 C 144.050781 624.636719 144.050781 620.820312 144.050781 616.726562 C 138.628906 617.242188 133.347656 616.8125 127.964844 618.0625 C 127.964844 621.550781 127.964844 624.808594 127.964844 628.554688 C 133.4375 628.554688 138.589844 628.554688 144.050781 628.554688 Z M 144.050781 628.554688 " fill-opacity="1" fill-rule="nonzero"/><g clip-path="url(#07ec77b521)"><path fill="#688d5c" d="M 382.519531 603.050781 C 426.230469 603.398438 461.84375 603.457031 497.453125 604.03125 C 535.542969 604.644531 573.625 605.792969 611.714844 606.609375 C 630.40625 607.007812 649.101562 607.015625 667.789062 607.511719 C 680.789062 607.855469 693.816406 608.300781 706.617188 610.949219 C 709.265625 611.5 711.894531 612.296875 714.417969 613.273438 C 720.441406 615.601562 724.296875 619.925781 726 626.21875 C 727.839844 633.003906 728.597656 639.945312 728.6875 646.914062 C 728.886719 662.636719 728.988281 678.363281 728.78125 694.085938 C 728.359375 726.363281 727.820312 758.644531 727.113281 790.917969 C 726.664062 811.367188 726.066406 831.820312 725.085938 852.246094 C 724.265625 869.367188 722.96875 886.46875 721.535156 903.546875 C 720.792969 912.371094 719.460938 921.175781 716.710938 929.648438 C 715.585938 933.113281 714.121094 936.5 712.507812 939.773438 C 708.441406 948.007812 701.601562 952.738281 692.679688 954.277344 C 687.6875 955.136719 682.589844 955.71875 677.527344 955.804688 C 663.21875 956.039062 648.902344 956.105469 634.59375 955.957031 C 609.511719 955.703125 584.433594 955.25 559.355469 954.847656 C 541.136719 954.558594 522.921875 954.003906 504.703125 953.949219 C 487.667969 953.902344 470.621094 954.050781 453.597656 954.660156 C 424.265625 955.707031 394.929688 955.890625 365.585938 955.785156 C 339.320312 955.6875 313.050781 955.742188 286.785156 955.539062 C 267.265625 955.386719 247.746094 954.644531 228.230469 954.683594 C 200.429688 954.738281 172.628906 955.355469 144.828125 955.554688 C 133.359375 955.636719 121.886719 955.347656 110.421875 955.046875 C 105.566406 954.917969 100.796875 953.984375 96.222656 952.195312 C 91.851562 950.484375 88.753906 947.527344 87.738281 942.90625 C 86.601562 937.722656 85.441406 932.5 84.9375 927.230469 C 82.253906 899.078125 81.011719 870.855469 81.316406 842.566406 C 81.597656 816.671875 81.9375 790.773438 81.941406 764.878906 C 81.949219 726.921875 81.621094 688.960938 81.5625 651.003906 C 81.546875 639.777344 81.855469 628.542969 82.21875 617.320312 C 82.5 608.464844 85.007812 605.734375 93.917969 605.011719 C 100.863281 604.449219 107.859375 604.371094 114.835938 604.328125 C 131.75 604.222656 148.667969 604.304688 165.585938 604.230469 C 188.300781 604.136719 211.015625 603.960938 233.730469 603.835938 C 251.59375 603.734375 269.460938 603.664062 287.328125 603.570312 C 321.753906 603.386719 356.183594 603.195312 382.519531 603.050781 Z M 86.246094 639.589844 C 86.246094 645.582031 86.230469 651.476562 86.25 657.375 C 86.320312 682.675781 86.421875 707.980469 86.46875 733.28125 C 86.511719 757.640625 86.757812 782 86.457031 806.351562 C 85.976562 845.019531 85.425781 883.679688 89.136719 922.242188 C 89.726562 928.339844 90.871094 934.390625 91.90625 940.4375 C 92.519531 944.023438 94.816406 946.351562 98.265625 947.375 C 100.976562 948.179688 103.734375 949.152344 106.515625 949.320312 C 116.304688 949.917969 126.117188 950.566406 135.914062 950.519531 C 152.238281 950.445312 168.558594 949.578125 184.878906 949.53125 C 208.535156 949.464844 232.195312 949.832031 255.851562 950.019531 C 280.339844 950.210938 304.828125 950.476562 329.3125 950.59375 C 356.761719 950.722656 384.207031 950.90625 411.652344 950.710938 C 429.984375 950.582031 448.316406 949.839844 466.644531 949.367188 C 494.089844 948.660156 521.527344 949.296875 548.96875 949.800781 C 585.402344 950.472656 621.832031 951.054688 658.265625 951.5 C 667.363281 951.609375 676.472656 951.113281 685.570312 950.78125 C 698.820312 950.300781 707.625 943.78125 711.484375 931.050781 C 713.023438 925.976562 714.273438 920.785156 715.214844 915.570312 C 717.804688 901.230469 718.648438 886.6875 719.351562 872.175781 C 720.589844 846.671875 721.691406 821.152344 722.296875 795.625 C 723.285156 754.019531 723.882812 712.402344 724.511719 670.789062 C 724.644531 662.164062 724.214844 653.535156 724.015625 644.90625 C 723.996094 644.003906 723.78125 643.101562 723.640625 642.074219 C 721.789062 642.074219 720.152344 642.109375 718.515625 642.070312 C 685.140625 641.308594 651.8125 642.636719 618.476562 643.96875 C 601.574219 644.644531 584.660156 645.351562 567.75 645.363281 C 542.199219 645.375 516.644531 644.898438 491.097656 644.417969 C 474.65625 644.109375 458.230469 643.214844 441.789062 642.945312 C 406.660156 642.363281 371.523438 641.898438 336.386719 641.640625 C 322.554688 641.539062 308.699219 641.816406 294.878906 642.460938 C 270.980469 643.574219 247.101562 643.3125 223.207031 642.589844 C 202.636719 641.964844 182.0625 641.402344 161.488281 640.847656 C 144.933594 640.402344 128.382812 639.9375 111.824219 639.617188 C 103.449219 639.453125 95.070312 639.589844 86.246094 639.589844 Z M 86.261719 635.03125 C 87.863281 635.03125 88.914062 635.015625 89.964844 635.035156 C 101.085938 635.25 112.203125 635.5 123.320312 635.691406 C 139.761719 635.972656 156.203125 636.203125 172.644531 636.476562 C 180.921875 636.613281 189.207031 636.660156 197.480469 636.992188 C 223.25 638.03125 249.023438 639.140625 274.824219 638.550781 C 289.488281 638.21875 304.148438 637.261719 318.8125 637.25 C 351.226562 637.222656 383.644531 637.429688 416.058594 637.90625 C 440.894531 638.273438 465.722656 639.457031 490.5625 639.816406 C 536.101562 640.480469 581.648438 641.566406 627.179688 639.125 C 634.027344 638.757812 640.890625 638.539062 647.746094 638.328125 C 660.867188 637.921875 673.988281 637.414062 687.113281 637.246094 C 698.46875 637.101562 709.828125 637.371094 721.1875 637.4375 C 721.839844 637.441406 722.496094 637.261719 723.550781 637.113281 C 722.90625 633.890625 722.371094 630.882812 721.695312 627.910156 C 720.496094 622.625 717.238281 619.011719 712.128906 617.417969 C 708.085938 616.15625 703.917969 615.132812 699.734375 614.523438 C 685.773438 612.492188 671.675781 612.292969 657.609375 611.972656 C 629.816406 611.34375 602.019531 610.863281 574.222656 610.332031 C 540.628906 609.6875 507.039062 608.769531 473.445312 608.480469 C 426.832031 608.078125 380.214844 608.054688 333.601562 608.054688 C 311.835938 608.054688 290.066406 608.539062 268.300781 608.707031 C 245.707031 608.886719 223.109375 608.972656 200.511719 609.050781 C 180.402344 609.125 160.289062 609.027344 140.179688 609.203125 C 125.042969 609.332031 109.90625 609.757812 94.769531 610.117188 C 93.140625 610.15625 91.503906 610.5625 89.894531 610.914062 C 88.214844 611.285156 87.300781 612.441406 87.007812 614.121094 C 85.824219 620.910156 86.25 627.734375 86.261719 635.03125 Z M 406.289062 934.398438 C 393.402344 934.398438 380.515625 934.492188 367.632812 934.359375 C 360.308594 934.285156 352.980469 933.921875 345.777344 932.359375 C 344.625 932.109375 343.472656 931.835938 342.355469 931.457031 C 338.300781 930.078125 335.785156 927.410156 335.363281 923.003906 C 334.925781 918.417969 334.390625 913.839844 334.019531 909.25 C 333.761719 906.046875 334.214844 902.945312 335.265625 899.84375 C 336.15625 897.21875 337.757812 895.507812 340.265625 894.816406 C 342.753906 894.128906 345.339844 893.609375 347.910156 893.449219 C 356.640625 892.90625 365.375 892.273438 374.113281 892.183594 C 395.863281 891.957031 417.617188 891.792969 439.363281 892.054688 C 449.390625 892.175781 459.40625 893.339844 469.421875 894.054688 C 470.359375 894.125 471.292969 894.320312 472.21875 894.511719 C 478.394531 895.773438 479.539062 896.933594 480.144531 903.0625 C 480.480469 906.46875 480.671875 909.898438 480.722656 913.320312 C 480.753906 915.554688 480.585938 917.820312 480.203125 920.019531 C 478.933594 927.304688 474.816406 931.796875 467.539062 932.964844 C 461.847656 933.878906 456.03125 934.324219 450.261719 934.398438 C 435.605469 934.59375 420.945312 934.464844 406.289062 934.464844 C 406.289062 934.441406 406.289062 934.417969 406.289062 934.398438 Z M 400.289062 896.984375 C 394.457031 896.984375 383.101562 896.820312 371.75 897.039062 C 363.363281 897.199219 354.972656 897.726562 346.605469 898.347656 C 341.210938 898.75 340.121094 898.996094 339.265625 905.71875 C 339.25 905.835938 339.238281 905.957031 339.25 906.070312 C 339.820312 911.828125 340.371094 917.589844 340.980469 923.339844 C 341.191406 925.3125 342.449219 926.527344 344.261719 927.144531 C 345.378906 927.523438 346.523438 927.90625 347.683594 928.039062 C 352.609375 928.601562 357.542969 929.480469 362.480469 929.507812 C 393.226562 929.660156 423.96875 929.640625 454.714844 929.597656 C 458.367188 929.59375 462.042969 929.269531 465.660156 928.769531 C 471.007812 928.03125 473.574219 925.445312 474.664062 920.203125 C 474.878906 919.164062 475.15625 918.097656 475.121094 917.050781 C 474.953125 912.097656 474.695312 907.148438 474.453125 902.195312 C 474.355469 900.222656 473.246094 899.226562 471.324219 899.03125 C 466.742188 898.566406 462.164062 897.960938 457.570312 897.648438 C 440.335938 896.460938 423.082031 896.007812 400.289062 896.984375 Z M 136.332031 632.074219 C 133.972656 632.074219 131.609375 632.160156 129.253906 632.050781 C 125.980469 631.898438 125.242188 631.292969 125.023438 628.136719 C 124.769531 624.496094 124.695312 620.835938 124.734375 617.1875 C 124.765625 614.683594 125.347656 613.945312 127.8125 613.753906 C 133.332031 613.324219 138.867188 613.066406 144.402344 612.902344 C 146.488281 612.84375 147.242188 613.589844 147.285156 615.664062 C 147.375 620.140625 147.347656 624.625 147.191406 629.101562 C 147.109375 631.410156 146.226562 632.101562 143.761719 632.175781 C 141.289062 632.253906 138.808594 632.195312 136.332031 632.195312 C 136.332031 632.152344 136.332031 632.113281 136.332031 632.074219 Z M 127.964844 628.554688 C 133.4375 628.554688 138.589844 628.554688 144.050781 628.554688 C 144.050781 624.636719 144.050781 620.820312 144.050781 616.726562 C 138.628906 617.242188 133.347656 616.8125 127.964844 618.0625 C 127.964844 621.550781 127.964844 624.808594 127.964844 628.554688 Z M 101.882812 629.160156 C 101.6875 629.710938 102.160156 630.726562 102.644531 631.203125 C 102.882812 631.433594 104.050781 631.121094 104.453125 630.714844 C 105.683594 629.46875 106.746094 628.054688 108.027344 626.523438 C 109.535156 627.539062 110.976562 628.523438 112.433594 629.484375 C 113.246094 630.015625 114.253906 630.570312 114.867188 629.492188 C 115.128906 629.023438 114.742188 627.898438 114.300781 627.371094 C 113.039062 625.875 111.597656 624.535156 110.148438 623.046875 C 111.824219 620.71875 113.417969 618.679688 114.789062 616.496094 C 115.207031 615.832031 115.402344 614.515625 115.019531 613.972656 C 114.273438 612.90625 113.085938 613.40625 112.238281 614.136719 C 111.441406 614.824219 110.75 615.640625 110.066406 616.445312 C 109.011719 617.679688 108.007812 618.953125 106.789062 620.445312 C 105.09375 618.945312 103.707031 617.515625 102.101562 616.394531 C 101.53125 615.996094 100.328125 616.109375 99.640625 616.449219 C 99.320312 616.605469 99.335938 617.945312 99.585938 618.601562 C 99.859375 619.328125 100.539062 619.929688 101.117188 620.503906 C 102.191406 621.570312 103.320312 622.574219 104.472656 623.644531 C 103.449219 625.753906 102.511719 627.402344 101.882812 629.160156 Z M 167.585938 627.351562 C 169.585938 627.351562 171.585938 627.367188 173.585938 627.347656 C 174.523438 627.335938 175.53125 627.441406 176.378906 627.136719 C 177.023438 626.90625 177.460938 626.105469 177.992188 625.558594 C 177.445312 625.050781 176.933594 624.496094 176.328125 624.0625 C 176.085938 623.890625 175.644531 623.976562 175.289062 623.972656 C 170.347656 623.875 165.40625 623.777344 160.460938 623.691406 C 159.992188 623.679688 159.410156 623.574219 159.078125 623.800781 C 158.464844 624.226562 157.554688 624.886719 157.585938 625.402344 C 157.617188 625.972656 158.484375 626.660156 159.140625 626.976562 C 159.726562 627.257812 160.523438 627.121094 161.230469 627.125 C 163.347656 627.140625 165.464844 627.128906 167.585938 627.128906 C 167.585938 627.203125 167.585938 627.277344 167.585938 627.351562 Z M 167.585938 627.351562 " fill-opacity="1" fill-rule="nonzero"/></g></svg>