<svg xmlns="http://www.w3.org/2000/svg" xmlns:xlink="http://www.w3.org/1999/xlink" width="1080" zoomAndPan="magnify" viewBox="0 0 810 1439.999935" height="1920" preserveAspectRatio="xMidYMid meet" version="1.0"><defs><clipPath id="e4ad647d2c"><path d="M 117 481 L 783 481 L 783 982 L 117 982 Z M 117 481 " clip-rule="nonzero"/></clipPath><clipPath id="7beeec9771"><path d="M 130.3125 479.507812 L 784.609375 503.910156 L 766.46875 990.320312 L 112.171875 965.917969 Z M 130.3125 479.507812 " clip-rule="nonzero"/></clipPath><clipPath id="1c8191e63d"><path d="M 784.539062 503.90625 L 130.242188 479.503906 L 112.101562 965.917969 L 766.398438 990.320312 Z M 784.539062 503.90625 " clip-rule="nonzero"/></clipPath><clipPath id="821fda69fd"><path d="M 99 458 L 774 458 L 774 969 L 99 969 Z M 99 458 " clip-rule="nonzero"/></clipPath><clipPath id="9cff2dc04d"><path d="M 123.601562 454.519531 L 776.789062 499.722656 L 743.183594 985.3125 L 89.996094 940.109375 Z M 123.601562 454.519531 " clip-rule="nonzero"/></clipPath><clipPath id="2612a03067"><path d="M 776.71875 499.71875 L 123.53125 454.515625 L 89.925781 940.105469 L 743.113281 985.308594 Z M 776.71875 499.71875 " clip-rule="nonzero"/></clipPath><clipPath id="e7067214b9"><path d="M 0 639.242188 L 163.128906 639.242188 L 163.128906 947.492188 L 0 947.492188 Z M 0 639.242188 " clip-rule="nonzero"/></clipPath><clipPath id="1338d5337c"><path d="M 0 960 L 415 960 L 415 1440 L 0 1440 Z M 0 960 " clip-rule="nonzero"/></clipPath><clipPath id="41b1ed567d"><path d="M 493.398438 1366.488281 L 37.25 1764.300781 L -435 1222.800781 L 21.148438 824.984375 Z M 493.398438 1366.488281 " clip-rule="nonzero"/></clipPath><clipPath id="c519631134"><path d="M 493.398438 1366.488281 L 37.25 1764.300781 L -435 1222.800781 L 21.148438 824.984375 Z M 493.398438 1366.488281 " clip-rule="nonzero"/></clipPath><clipPath id="a1d8138346"><path d="M 303 0 L 810 0 L 810 268 L 303 268 Z M 303 0 " clip-rule="nonzero"/></clipPath><clipPath id="d5e6089481"><path d="M 1446.464844 -746.785156 L 1551.347656 259.511719 L 357.070312 383.992188 L 252.183594 -622.308594 Z M 1446.464844 -746.785156 " clip-rule="nonzero"/></clipPath><clipPath id="a821ec065c"><path d="M 1446.464844 -746.785156 L 1551.347656 259.511719 L 357.070312 383.992188 L 252.183594 -622.308594 Z M 1446.464844 -746.785156 " clip-rule="nonzero"/></clipPath><clipPath id="4505e506e8"><path d="M 96 0 L 810 0 L 810 507 L 96 507 Z M 96 0 " clip-rule="nonzero"/></clipPath><clipPath id="89e2133452"><path d="M 125.445312 -106.925781 L 1024.574219 294.691406 L 928.222656 510.402344 L 29.09375 108.78125 Z M 125.445312 -106.925781 " clip-rule="nonzero"/></clipPath><clipPath id="9e8d540caf"><path d="M 125.445312 -106.925781 L 1024.574219 294.691406 L 928.222656 510.402344 L 29.09375 108.78125 Z M 125.445312 -106.925781 " clip-rule="nonzero"/></clipPath><clipPath id="49a2dbbdde"><path d="M 125.445312 -106.925781 L 1024.574219 294.691406 L 928.222656 510.402344 L 29.09375 108.78125 Z M 125.445312 -106.925781 " clip-rule="nonzero"/></clipPath><clipPath id="4c21c895a6"><path d="M 48 843 L 85 843 L 85 875 L 48 875 Z M 48 843 " clip-rule="nonzero"/></clipPath><clipPath id="aadf495f43"><path d="M -22.804688 753.222656 L 213.707031 655.902344 L 285.914062 831.375 L 49.402344 928.699219 Z M -22.804688 753.222656 " clip-rule="nonzero"/></clipPath><clipPath id="e3324315c5"><path d="M -22.804688 753.222656 L 213.707031 655.902344 L 285.914062 831.375 L 49.402344 928.699219 Z M -22.804688 753.222656 " clip-rule="nonzero"/></clipPath><clipPath id="725139e518"><path d="M 17 830 L 42 830 L 42 862 L 17 862 Z M 17 830 " clip-rule="nonzero"/></clipPath><clipPath id="f9007aada2"><path d="M -22.804688 753.222656 L 213.707031 655.902344 L 285.914062 831.375 L 49.402344 928.699219 Z M -22.804688 753.222656 " clip-rule="nonzero"/></clipPath><clipPath id="2872497cad"><path d="M -22.804688 753.222656 L 213.707031 655.902344 L 285.914062 831.375 L 49.402344 928.699219 Z M -22.804688 753.222656 " clip-rule="nonzero"/></clipPath><clipPath id="07cc4bc578"><path d="M 60 850 L 122 850 L 122 905 L 60 905 Z M 60 850 " clip-rule="nonzero"/></clipPath><clipPath id="a20127bf4a"><path d="M -22.804688 753.222656 L 213.707031 655.902344 L 285.914062 831.375 L 49.402344 928.699219 Z M -22.804688 753.222656 " clip-rule="nonzero"/></clipPath><clipPath id="5b3e0dbc1f"><path d="M -22.804688 753.222656 L 213.707031 655.902344 L 285.914062 831.375 L 49.402344 928.699219 Z M -22.804688 753.222656 " clip-rule="nonzero"/></clipPath><clipPath id="ec8793673d"><path d="M 19 815 L 61 815 L 61 865 L 19 865 Z M 19 815 " clip-rule="nonzero"/></clipPath><clipPath id="800ec95c2e"><path d="M -22.804688 753.222656 L 213.707031 655.902344 L 285.914062 831.375 L 49.402344 928.699219 Z M -22.804688 753.222656 " clip-rule="nonzero"/></clipPath><clipPath id="e58894594e"><path d="M -22.804688 753.222656 L 213.707031 655.902344 L 285.914062 831.375 L 49.402344 928.699219 Z M -22.804688 753.222656 " clip-rule="nonzero"/></clipPath><clipPath id="2e80a68755"><path d="M 32 694 L 207 694 L 207 858 L 32 858 Z M 32 694 " clip-rule="nonzero"/></clipPath><clipPath id="364e0f6b65"><path d="M -22.804688 753.222656 L 213.707031 655.902344 L 285.914062 831.375 L 49.402344 928.699219 Z M -22.804688 753.222656 " clip-rule="nonzero"/></clipPath><clipPath id="b1eae1f99e"><path d="M -22.804688 753.222656 L 213.707031 655.902344 L 285.914062 831.375 L 49.402344 928.699219 Z M -22.804688 753.222656 " clip-rule="nonzero"/></clipPath><clipPath id="ff5343b929"><path d="M 111 704 L 194 704 L 194 833 L 111 833 Z M 111 704 " clip-rule="nonzero"/></clipPath><clipPath id="f11bbd9aa9"><path d="M -22.804688 753.222656 L 213.707031 655.902344 L 285.914062 831.375 L 49.402344 928.699219 Z M -22.804688 753.222656 " clip-rule="nonzero"/></clipPath><clipPath id="2d9e9e7cb7"><path d="M -22.804688 753.222656 L 213.707031 655.902344 L 285.914062 831.375 L 49.402344 928.699219 Z M -22.804688 753.222656 " clip-rule="nonzero"/></clipPath><clipPath id="1ce2aaf481"><path d="M 177 675 L 202 675 L 202 711 L 177 711 Z M 177 675 " clip-rule="nonzero"/></clipPath><clipPath id="aa8d51232c"><path d="M -22.804688 753.222656 L 213.707031 655.902344 L 285.914062 831.375 L 49.402344 928.699219 Z M -22.804688 753.222656 " clip-rule="nonzero"/></clipPath><clipPath id="2dbfe5164e"><path d="M -22.804688 753.222656 L 213.707031 655.902344 L 285.914062 831.375 L 49.402344 928.699219 Z M -22.804688 753.222656 " clip-rule="nonzero"/></clipPath><clipPath id="705166daa8"><path d="M 194 709 L 236 709 L 236 737 L 194 737 Z M 194 709 " clip-rule="nonzero"/></clipPath><clipPath id="c29b2eb1a0"><path d="M -22.804688 753.222656 L 213.707031 655.902344 L 285.914062 831.375 L 49.402344 928.699219 Z M -22.804688 753.222656 " clip-rule="nonzero"/></clipPath><clipPath id="0b641e0505"><path d="M -22.804688 753.222656 L 213.707031 655.902344 L 285.914062 831.375 L 49.402344 928.699219 Z M -22.804688 753.222656 " clip-rule="nonzero"/></clipPath><clipPath id="96b15ecd6d"><path d="M 211 755 L 251 755 L 251 763 L 211 763 Z M 211 755 " clip-rule="nonzero"/></clipPath><clipPath id="7f77619685"><path d="M -22.804688 753.222656 L 213.707031 655.902344 L 285.914062 831.375 L 49.402344 928.699219 Z M -22.804688 753.222656 " clip-rule="nonzero"/></clipPath><clipPath id="d2125b226e"><path d="M -22.804688 753.222656 L 213.707031 655.902344 L 285.914062 831.375 L 49.402344 928.699219 Z M -22.804688 753.222656 " clip-rule="nonzero"/></clipPath><clipPath id="b620a0a239"><path d="M 156 731 L 192 731 L 192 776 L 156 776 Z M 156 731 " clip-rule="nonzero"/></clipPath><clipPath id="da5bb7df47"><path d="M -22.804688 753.222656 L 213.707031 655.902344 L 285.914062 831.375 L 49.402344 928.699219 Z M -22.804688 753.222656 " clip-rule="nonzero"/></clipPath><clipPath id="698a482b40"><path d="M -22.804688 753.222656 L 213.707031 655.902344 L 285.914062 831.375 L 49.402344 928.699219 Z M -22.804688 753.222656 " clip-rule="nonzero"/></clipPath><clipPath id="8f0bcbd4e1"><path d="M 0 1146 L 582 1146 L 582 1440 L 0 1440 Z M 0 1146 " clip-rule="nonzero"/></clipPath><clipPath id="53f2fa0859"><path d="M -217.136719 1068.851562 L 681.992188 1470.472656 L 585.640625 1686.179688 L -313.488281 1284.5625 Z M -217.136719 1068.851562 " clip-rule="nonzero"/></clipPath><clipPath id="1b1531b068"><path d="M -217.136719 1068.851562 L 681.992188 1470.472656 L 585.640625 1686.179688 L -313.488281 1284.5625 Z M -217.136719 1068.851562 " clip-rule="nonzero"/></clipPath><clipPath id="0530cc8757"><path d="M 10 1052.433594 L 357.949219 1052.433594 L 357.949219 1419.183594 L 10 1419.183594 Z M 10 1052.433594 " clip-rule="nonzero"/></clipPath><clipPath id="baad7ed28b"><path d="M 614.34375 0 L 810 0 L 810 201.808594 L 614.34375 201.808594 Z M 614.34375 0 " clip-rule="nonzero"/></clipPath></defs><g clip-path="url(#e4ad647d2c)"><g clip-path="url(#7beeec9771)"><g clip-path="url(#1c8191e63d)"><path fill="#ffffff" d="M 527.9375 981.273438 C 528.984375 981.3125 530.035156 980.972656 530.871094 980.269531 L 625.503906 901.042969 L 717.796875 904.484375 C 746.324219 905.535156 770.390625 883.210938 771.457031 854.695312 L 782.597656 555.894531 C 783.664062 527.378906 761.324219 503.324219 732.796875 502.261719 L 181.960938 481.71875 C 153.433594 480.652344 129.367188 502.980469 128.304688 531.492188 L 117.160156 830.292969 C 116.097656 858.808594 138.433594 882.867188 166.960938 883.929688 L 526.746094 897.347656 L 523.78125 976.78125 C 523.71875 978.496094 524.667969 980.078125 526.199219 980.828125 C 526.753906 981.097656 527.351562 981.25 527.9375 981.273438 Z M 732.476562 510.90625 C 756.242188 511.792969 774.847656 531.832031 773.960938 555.585938 L 762.820312 854.375 C 761.933594 878.128906 741.882812 896.726562 718.121094 895.839844 L 624.164062 892.335938 C 623.089844 892.296875 622.042969 892.648438 621.230469 893.339844 L 532.78125 967.386719 L 535.542969 893.351562 C 535.632812 890.960938 533.765625 888.964844 531.382812 888.875 L 167.28125 875.296875 C 143.519531 874.410156 124.910156 854.371094 125.796875 830.617188 L 136.941406 531.816406 C 137.828125 508.0625 157.875 489.464844 181.640625 490.351562 L 732.476562 510.894531 Z M 732.476562 510.90625 " fill-opacity="1" fill-rule="nonzero"/></g></g></g><g clip-path="url(#821fda69fd)"><g clip-path="url(#9cff2dc04d)"><g clip-path="url(#2612a03067)"><path fill="#ab6551" d="M 505.0625 968.679688 C 506.109375 968.753906 507.167969 968.445312 508.027344 967.769531 L 605.132812 891.59375 L 697.269531 897.972656 C 725.75 899.929688 750.515625 878.382812 752.484375 849.914062 L 773.128906 551.617188 C 775.097656 523.152344 753.539062 498.398438 725.058594 496.425781 L 175.152344 458.371094 C 146.671875 456.402344 121.910156 477.949219 119.941406 506.414062 L 99.296875 804.710938 C 97.328125 833.179688 118.886719 857.933594 147.363281 859.902344 L 506.539062 884.757812 L 501.050781 964.0625 C 500.933594 965.769531 501.832031 967.382812 503.339844 968.179688 C 503.882812 968.46875 504.476562 968.640625 505.0625 968.679688 Z M 724.460938 505.058594 C 748.183594 506.699219 766.144531 527.320312 764.503906 551.035156 L 743.863281 849.316406 C 742.222656 873.03125 721.589844 890.984375 697.867188 889.339844 L 604.070312 882.847656 C 603 882.777344 601.9375 883.097656 601.105469 883.757812 L 510.34375 954.957031 L 515.460938 881.046875 C 515.625 878.65625 513.824219 876.605469 511.449219 876.441406 L 147.960938 851.285156 C 124.238281 849.644531 106.277344 829.023438 107.917969 805.308594 L 128.5625 507.011719 C 130.203125 483.300781 150.832031 465.347656 174.554688 466.988281 L 724.460938 505.046875 Z M 724.460938 505.058594 " fill-opacity="1" fill-rule="nonzero"/></g></g></g><g clip-path="url(#e7067214b9)"><path fill="#f1e0db" d="M -2.621094 639.242188 L 163.128906 639.242188 L 163.128906 947.492188 L -2.621094 947.492188 Z M -2.621094 639.242188 " fill-opacity="1" fill-rule="nonzero"/></g><g clip-path="url(#1338d5337c)"><g clip-path="url(#41b1ed567d)"><g clip-path="url(#c519631134)"><path fill="#ebd1c8" d="M -174.054688 1465.726562 C -210.902344 1386.746094 -207.910156 1296.019531 -215.566406 1209.191406 C -220.183594 1156.839844 -228.597656 1102.070312 -209.109375 1053.253906 C -194.746094 1017.273438 -165.363281 987.667969 -129.671875 972.601562 C -93.980469 957.53125 -52.460938 957.085938 -16.269531 970.914062 C 35.152344 990.5625 71.871094 1035.449219 115.332031 1069.214844 C 171.035156 1112.5 238.464844 1137.828125 297.800781 1176.003906 C 357.117188 1214.199219 411.308594 1272.261719 414.667969 1342.730469 C 416.507812 1381.105469 402.707031 1419.125 381.109375 1450.890625 C 359.511719 1482.652344 330.453125 1508.699219 299.671875 1531.667969 C 259.417969 1561.722656 215.671875 1587.117188 169.636719 1607.222656 C 44.746094 1661.742188 -117.691406 1586.539062 -174.054688 1465.726562 Z M -174.054688 1465.726562 " fill-opacity="1" fill-rule="nonzero"/></g></g></g><g clip-path="url(#a1d8138346)"><g clip-path="url(#d5e6089481)"><g clip-path="url(#a821ec065c)"><path fill="#ebd1c8" d="M 940.0625 261.050781 C 796.679688 235.421875 675.570312 144.03125 549.546875 70.953125 C 473.5625 26.890625 390.617188 -14.3125 342.648438 -87.917969 C 307.296875 -142.175781 295.097656 -210.824219 308.839844 -274.109375 C 322.578125 -337.394531 361.90625 -394.582031 415.613281 -430.742188 C 491.925781 -482.128906 588.59375 -489.128906 676.546875 -516.042969 C 789.28125 -550.535156 888.753906 -618.332031 998 -662.710938 C 1107.257812 -707.035156 1238.734375 -725.242188 1338.265625 -662.027344 C 1392.480469 -627.621094 1431.164062 -572.171875 1453.800781 -512.085938 C 1476.433594 -451.996094 1484.074219 -387.21875 1485.855469 -323.039062 C 1488.214844 -239.097656 1480.835938 -154.867188 1464.03125 -72.59375 C 1418.40625 150.578125 1159.382812 300.257812 940.0625 261.050781 Z M 940.0625 261.050781 " fill-opacity="1" fill-rule="nonzero"/></g></g></g><g clip-path="url(#4505e506e8)"><g clip-path="url(#89e2133452)"><g clip-path="url(#9e8d540caf)"><g clip-path="url(#49a2dbbdde)"><path fill="#e1ba9d" d="M 898.347656 497.054688 C 836.753906 469.542969 787.566406 415.363281 767.109375 350.886719 C 766.109375 347.882812 765.21875 344.789062 764.269531 341.671875 C 758.433594 322.320312 752.453125 302.339844 736.523438 291.605469 C 721.074219 281.226562 702.03125 282.867188 681.800781 284.613281 C 673.015625 285.375 664.003906 286.171875 655.285156 285.824219 C 587.949219 283.558594 553.546875 212.003906 544.644531 190.144531 C 540.386719 179.660156 536.832031 168.707031 533.46875 158.125 C 528.371094 142.367188 523.160156 126.0625 515.410156 111.320312 C 475.484375 35.449219 378.441406 13.246094 324.144531 6.730469 C 300.644531 3.894531 276.472656 2.394531 253.058594 0.945312 C 200.789062 -2.324219 146.71875 -5.6875 96.648438 -23.726562 L 98.566406 -28.972656 C 147.898438 -11.191406 201.535156 -7.808594 253.457031 -4.554688 C 276.929688 -3.078125 301.160156 -1.550781 324.808594 1.28125 C 380.207031 7.863281 479.25 30.675781 520.316406 108.757812 C 528.289062 123.953125 533.625 140.457031 538.761719 156.441406 C 542.152344 166.96875 545.640625 177.75 549.832031 188.066406 C 558.441406 209.152344 591.425781 278.160156 655.480469 280.304688 C 663.875 280.578125 672.746094 279.789062 681.296875 279.070312 C 701.527344 277.320312 722.503906 275.480469 739.574219 287.007812 C 757.144531 298.828125 763.457031 319.8125 769.511719 340.109375 C 770.425781 343.144531 771.316406 346.238281 772.316406 349.238281 C 794.855469 420.179688 852.882812 478.238281 923.753906 500.882812 L 922.097656 506.175781 C 914.035156 503.566406 906.101562 500.519531 898.347656 497.054688 Z M 898.347656 497.054688 " fill-opacity="1" fill-rule="nonzero"/></g></g></g></g><g clip-path="url(#4c21c895a6)"><g clip-path="url(#aadf495f43)"><g clip-path="url(#e3324315c5)"><path fill="#ab6551" d="M 60.945312 874.53125 C 60.492188 874.71875 59.996094 874.800781 59.496094 874.757812 C 58.59375 874.6875 57.765625 874.230469 57.234375 873.507812 L 48.421875 861.65625 C 48.125 861.261719 48.011719 860.753906 48.109375 860.269531 C 48.203125 859.78125 48.503906 859.355469 48.925781 859.101562 C 52.097656 857.195312 55.988281 854.867188 57.9375 853.8125 C 64.738281 850.132812 71.796875 846.683594 78.917969 843.574219 C 79.8125 843.238281 80.691406 843.53125 81.140625 844.296875 L 84.441406 849.972656 C 84.847656 850.667969 84.726562 851.550781 84.152344 852.109375 L 61.964844 873.851562 C 61.664062 874.152344 61.316406 874.375 60.945312 874.53125 Z M 52.394531 861.121094 L 59.789062 871.066406 L 80.710938 850.566406 L 78.886719 847.429688 C 72.34375 850.339844 65.859375 853.523438 59.601562 856.914062 C 58.042969 857.757812 55.132812 859.480469 52.394531 861.121094 Z M 52.394531 861.121094 " fill-opacity="1" fill-rule="nonzero"/></g></g></g><g clip-path="url(#725139e518)"><g clip-path="url(#f9007aada2)"><g clip-path="url(#2872497cad)"><path fill="#ab6551" d="M 40.882812 861.066406 C 40.832031 861.089844 40.773438 861.105469 40.71875 861.125 C 32.988281 863.445312 24.53125 860.285156 20.140625 853.441406 C 15.761719 846.601562 16.421875 837.589844 21.757812 831.53125 C 22.125 831.117188 22.664062 830.898438 23.207031 830.941406 C 23.757812 830.984375 24.253906 831.28125 24.558594 831.746094 L 41.699219 858.492188 C 41.996094 858.960938 42.058594 859.53125 41.867188 860.050781 C 41.695312 860.511719 41.335938 860.882812 40.882812 861.066406 Z M 22.96875 835.78125 C 20.023438 840.527344 20 846.703125 23.101562 851.546875 C 26.203125 856.390625 31.828125 858.949219 37.359375 858.253906 Z M 22.96875 835.78125 " fill-opacity="1" fill-rule="nonzero"/></g></g></g><g clip-path="url(#07cc4bc578)"><g clip-path="url(#a20127bf4a)"><g clip-path="url(#5b3e0dbc1f)"><path fill="#ab6551" d="M 111.664062 903.117188 C 107.800781 904.707031 103.429688 904.679688 99.527344 902.957031 C 84.339844 896.242188 70.863281 885.71875 60.542969 872.523438 C 59.988281 871.816406 60.058594 870.808594 60.699219 870.1875 L 80.535156 850.75 C 80.898438 850.390625 81.410156 850.207031 81.917969 850.257812 C 82.433594 850.304688 82.898438 850.566406 83.195312 850.992188 C 90.449219 861.203125 100.6875 869.589844 112.03125 874.601562 C 115.8125 876.273438 118.722656 879.320312 120.222656 883.179688 C 121.71875 887.042969 121.621094 891.253906 119.953125 895.042969 C 118.71875 897.84375 116.714844 900.183594 114.152344 901.828125 C 113.347656 902.335938 112.519531 902.765625 111.664062 903.117188 Z M 64.28125 871.582031 C 74.109375 883.75 86.753906 893.46875 100.941406 899.738281 C 104.628906 901.367188 108.851562 901.039062 112.25 898.859375 C 114.230469 897.59375 115.773438 895.777344 116.730469 893.613281 C 118.019531 890.683594 118.09375 887.429688 116.9375 884.445312 C 115.78125 881.460938 113.53125 879.101562 110.601562 877.808594 C 99.304688 872.816406 89.054688 864.640625 81.535156 854.675781 Z M 64.28125 871.582031 " fill-opacity="1" fill-rule="nonzero"/></g></g></g><g clip-path="url(#ec8793673d)"><g clip-path="url(#800ec95c2e)"><g clip-path="url(#e58894594e)"><path fill="#ab6551" d="M 47.261719 864.121094 C 44.480469 865.265625 41.242188 864.292969 39.558594 861.671875 L 20.785156 832.367188 C 18.921875 829.460938 19.699219 825.667969 22.539062 823.730469 L 22.871094 823.507812 C 26.683594 820.910156 31.429688 817.667969 33.476562 816.132812 C 33.867188 815.84375 34.363281 815.726562 34.84375 815.8125 C 35.328125 815.902344 35.75 816.183594 36.011719 816.59375 L 60.253906 854.417969 C 60.515625 854.828125 60.59375 855.332031 60.476562 855.804688 C 60.351562 856.28125 60.039062 856.679688 59.613281 856.914062 C 57.730469 857.9375 53.882812 860.230469 50.738281 862.125 L 48.144531 863.6875 C 47.851562 863.851562 47.558594 864 47.261719 864.121094 Z M 34.054688 820.054688 C 31.628906 821.785156 27.933594 824.304688 24.847656 826.410156 L 24.515625 826.632812 C 23.253906 827.492188 22.914062 829.179688 23.738281 830.46875 L 42.515625 859.769531 C 43.34375 861.058594 45.003906 861.453125 46.324219 860.660156 L 48.917969 859.097656 C 51.351562 857.636719 54.207031 855.929688 56.28125 854.738281 L 46.792969 839.929688 Z M 34.054688 820.054688 " fill-opacity="1" fill-rule="nonzero"/></g></g></g><g clip-path="url(#2e80a68755)"><g clip-path="url(#364e0f6b65)"><g clip-path="url(#b1eae1f99e)"><path fill="#ab6551" d="M 201.988281 832.382812 C 200.652344 832.933594 199.289062 833.105469 197.8125 832.90625 L 196.71875 832.796875 C 176.191406 830.734375 128.121094 825.851562 80.316406 846.800781 C 73.285156 849.875 66.316406 853.273438 59.601562 856.914062 C 58.785156 857.347656 57.785156 857.089844 57.285156 856.316406 L 33.042969 818.492188 C 32.550781 817.714844 32.730469 816.6875 33.46875 816.136719 C 87.28125 775.726562 106.394531 720.28125 112.699219 701.945312 C 113.125 699.335938 114.316406 697.394531 116.242188 696.15625 C 116.601562 695.925781 116.992188 695.722656 117.394531 695.554688 C 121.429688 693.894531 127.601562 694.46875 142.804688 711.320312 C 152.609375 722.183594 163.953125 737.453125 174.757812 754.3125 C 185.785156 771.523438 195.03125 788.488281 200.789062 802.0625 C 208.085938 819.277344 208.789062 828.164062 203.148438 831.78125 C 202.78125 832.011719 202.394531 832.21875 201.988281 832.382812 Z M 82.480469 842.0625 C 129.933594 822.535156 176.78125 827.257812 197.070312 829.296875 L 198.21875 829.410156 C 199.390625 829.566406 200.378906 829.382812 201.257812 828.816406 C 204.992188 826.421875 203.78125 818.121094 197.558594 803.433594 C 191.875 790.027344 182.726562 773.257812 171.800781 756.203125 C 161.101562 739.5 149.878906 724.398438 140.203125 713.671875 C 124.609375 696.386719 120.199219 698.203125 118.75 698.800781 C 118.542969 698.886719 118.335938 698.992188 118.152344 699.113281 C 117.023438 699.835938 116.382812 700.976562 116.144531 702.710938 C 116.121094 702.914062 116.054688 703.101562 115.964844 703.273438 C 109.5625 721.902344 90.394531 777.128906 36.886719 817.960938 L 59.371094 853.046875 C 65.726562 849.65625 72.292969 846.476562 78.914062 843.582031 C 80.097656 843.0625 81.289062 842.554688 82.480469 842.0625 Z M 82.480469 842.0625 " fill-opacity="1" fill-rule="nonzero"/></g></g></g><g clip-path="url(#ff5343b929)"><g clip-path="url(#f11bbd9aa9)"><g clip-path="url(#2d9e9e7cb7)"><path fill="#ab6551" d="M 192.640625 832.191406 C 192.453125 832.269531 192.242188 832.316406 192.023438 832.324219 C 191.054688 832.355469 190.242188 831.585938 190.21875 830.617188 C 190.085938 826.277344 188.1875 819.832031 184.410156 810.917969 C 178.730469 797.515625 169.582031 780.746094 158.652344 763.6875 C 147.949219 746.988281 136.730469 731.878906 127.054688 721.15625 C 121.039062 714.480469 116.039062 709.945312 112.210938 707.667969 C 111.375 707.175781 111.101562 706.09375 111.59375 705.261719 C 112.09375 704.421875 113.164062 704.152344 114 704.644531 C 118.195312 707.132812 123.320312 711.765625 129.664062 718.800781 C 139.464844 729.664062 150.8125 744.929688 161.617188 761.792969 C 172.648438 779.011719 181.894531 795.972656 187.648438 809.546875 C 191.601562 818.867188 193.59375 825.730469 193.738281 830.511719 C 193.75 831.261719 193.300781 831.921875 192.640625 832.191406 Z M 192.640625 832.191406 " fill-opacity="1" fill-rule="nonzero"/></g></g></g><g clip-path="url(#1ce2aaf481)"><g clip-path="url(#aa8d51232c)"><g clip-path="url(#2dbfe5164e)"><path fill="#ab6551" d="M 179.996094 710.492188 C 179.484375 710.703125 178.875 710.667969 178.375 710.34375 C 177.558594 709.820312 177.320312 708.730469 177.847656 707.914062 L 198.15625 676.304688 C 198.683594 675.488281 199.769531 675.25 200.585938 675.777344 C 201.402344 676.300781 201.640625 677.390625 201.113281 678.207031 L 180.800781 709.820312 C 180.601562 710.132812 180.316406 710.359375 179.996094 710.492188 Z M 179.996094 710.492188 " fill-opacity="1" fill-rule="nonzero"/></g></g></g><g clip-path="url(#705166daa8)"><g clip-path="url(#c29b2eb1a0)"><g clip-path="url(#0b641e0505)"><path fill="#ab6551" d="M 196.851562 736.4375 C 196.074219 736.757812 195.160156 736.480469 194.695312 735.746094 C 194.183594 734.921875 194.429688 733.835938 195.25 733.324219 L 233.222656 709.4375 C 234.035156 708.921875 235.128906 709.167969 235.644531 709.992188 C 236.15625 710.816406 235.910156 711.902344 235.089844 712.417969 L 197.117188 736.300781 C 197.035156 736.355469 196.945312 736.398438 196.851562 736.4375 Z M 196.851562 736.4375 " fill-opacity="1" fill-rule="nonzero"/></g></g></g><g clip-path="url(#96b15ecd6d)"><g clip-path="url(#7f77619685)"><g clip-path="url(#d2125b226e)"><path fill="#ab6551" d="M 249.304688 758.835938 C 249.148438 758.898438 248.984375 758.941406 248.808594 758.957031 L 213.21875 762.503906 C 212.25 762.597656 211.394531 761.894531 211.292969 760.929688 C 211.191406 759.964844 211.894531 759.101562 212.867188 759.007812 L 248.457031 755.457031 C 249.425781 755.363281 250.28125 756.066406 250.382812 757.035156 C 250.460938 757.828125 250.003906 758.546875 249.304688 758.835938 Z M 249.304688 758.835938 " fill-opacity="1" fill-rule="nonzero"/></g></g></g><g clip-path="url(#b620a0a239)"><g clip-path="url(#da5bb7df47)"><g clip-path="url(#698a482b40)"><path fill="#ab6551" d="M 185.722656 774.945312 C 185.175781 775.171875 184.523438 775.113281 184.015625 774.742188 C 183.230469 774.167969 183.058594 773.070312 183.628906 772.285156 C 188.476562 765.640625 189.503906 757.136719 186.375 749.535156 C 181.980469 738.855469 170.238281 732.914062 159.0625 735.707031 C 158.121094 735.941406 157.164062 735.371094 156.929688 734.425781 C 156.691406 733.484375 157.261719 732.535156 158.207031 732.292969 C 171.0625 729.078125 184.566406 735.914062 189.625 748.199219 C 193.21875 756.9375 192.042969 766.714844 186.46875 774.359375 C 186.273438 774.632812 186.007812 774.828125 185.722656 774.945312 Z M 185.722656 774.945312 " fill-opacity="1" fill-rule="nonzero"/></g></g></g><g clip-path="url(#8f0bcbd4e1)"><g clip-path="url(#53f2fa0859)"><g clip-path="url(#1b1531b068)"><path fill="#ffffff" d="M 555.769531 1672.835938 C 494.171875 1645.324219 444.984375 1591.140625 424.527344 1526.664062 C 423.527344 1523.664062 422.636719 1520.570312 421.6875 1517.449219 C 415.851562 1498.101562 409.875 1478.117188 393.945312 1467.382812 C 378.492188 1457.007812 359.449219 1458.644531 339.222656 1460.394531 C 330.4375 1461.152344 321.421875 1461.949219 312.703125 1461.605469 C 245.367188 1459.339844 210.96875 1387.78125 202.0625 1365.925781 C 197.804688 1355.4375 194.25 1344.488281 190.886719 1333.902344 C 185.789062 1318.144531 180.578125 1301.84375 172.828125 1287.097656 C 132.902344 1211.230469 35.859375 1189.027344 -18.433594 1182.511719 C -41.9375 1179.675781 -66.109375 1178.171875 -89.523438 1176.722656 C -141.789062 1173.457031 -195.863281 1170.089844 -245.933594 1152.054688 L -244.015625 1146.808594 C -194.679688 1164.589844 -141.042969 1167.972656 -89.125 1171.226562 C -65.652344 1172.699219 -41.421875 1174.230469 -17.773438 1177.058594 C 37.625 1183.640625 136.667969 1206.457031 177.734375 1284.535156 C 185.707031 1299.734375 191.042969 1316.234375 196.179688 1332.222656 C 199.570312 1342.746094 203.058594 1353.527344 207.25 1363.84375 C 215.859375 1384.929688 248.84375 1453.9375 312.898438 1456.085938 C 321.292969 1456.359375 330.164062 1455.566406 338.71875 1454.847656 C 358.945312 1453.101562 379.925781 1451.261719 396.992188 1462.785156 C 414.5625 1474.609375 420.878906 1495.589844 426.929688 1515.890625 C 427.84375 1518.921875 428.734375 1522.015625 429.734375 1525.019531 C 452.273438 1595.957031 510.304688 1654.019531 581.171875 1676.664062 L 579.515625 1681.953125 C 571.457031 1679.347656 563.519531 1676.296875 555.769531 1672.835938 Z M 555.769531 1672.835938 " fill-opacity="1" fill-rule="nonzero"/></g></g></g><g clip-path="url(#0530cc8757)"><path fill="#e1ba9d" d="M 357.90625 1156.628906 C 357.90625 1157.113281 357.90625 1157.589844 357.90625 1158.074219 C 352.855469 1166.726562 348.328125 1168.433594 342.1875 1164.191406 C 338.542969 1161.671875 338.660156 1158.769531 341.152344 1155.734375 C 345.433594 1150.527344 353.992188 1151.054688 357.90625 1156.628906 Z M 46.550781 1412.636719 C 45.511719 1413.585938 46.644531 1416.921875 46.800781 1419.179688 C 48.71875 1419.179688 50.632812 1419.179688 52.550781 1419.179688 C 53.269531 1418.242188 54.507812 1417.347656 54.59375 1416.351562 C 54.777344 1414.179688 54.375 1411.960938 54.214844 1409.753906 C 51.59375 1410.640625 48.417969 1410.921875 46.550781 1412.636719 Z M 211.964844 1132.617188 C 217.375 1132.605469 226.65625 1124.867188 226.589844 1119.246094 C 226.550781 1116.199219 225.160156 1112.292969 222.972656 1110.46875 C 221.742188 1109.441406 216.765625 1111.023438 215.023438 1112.878906 C 211.519531 1116.628906 208.417969 1121.085938 206.382812 1125.789062 C 204.734375 1129.605469 206.46875 1132.941406 211.964844 1132.617188 Z M 191.003906 1076.710938 C 198.457031 1077.867188 204.699219 1074.058594 207.039062 1066.941406 C 208.730469 1061.785156 204.75 1056.734375 199.691406 1057.644531 C 192.570312 1058.925781 185.933594 1067.761719 186.269531 1075.941406 C 187.785156 1076.191406 189.394531 1076.460938 191.003906 1076.710938 Z M 271.90625 1184.4375 C 264.980469 1183.933594 256.703125 1192.066406 257.625 1198.453125 C 258 1201.054688 261.042969 1203.277344 261.9375 1204.449219 C 270.726562 1204.273438 278.308594 1196.351562 277.578125 1189.699219 C 277.359375 1187.675781 274.003906 1184.589844 271.90625 1184.4375 Z M 311.183594 1211.527344 C 304.976562 1208.785156 300.382812 1213.203125 296.363281 1217.160156 C 294.746094 1218.75 293.5625 1222.011719 293.992188 1224.136719 C 294.519531 1226.703125 296.984375 1228.863281 297.871094 1230.136719 C 306.199219 1230.316406 312.097656 1225.910156 313.242188 1219.375 C 313.6875 1216.847656 312.78125 1212.230469 311.183594 1211.527344 Z M 240.382812 1151.882812 C 246.277344 1152.789062 254.0625 1144.605469 253.910156 1136.515625 C 252.621094 1135.609375 250.382812 1132.773438 247.90625 1132.546875 C 241.644531 1131.964844 232.617188 1140.621094 233.863281 1146.0625 C 234.40625 1148.460938 237.882812 1151.492188 240.382812 1151.882812 Z M 114.410156 1309.917969 C 119.210938 1306.386719 123.042969 1301.367188 126.636719 1296.503906 C 127.421875 1295.449219 126.039062 1291.617188 124.550781 1290.390625 C 123.074219 1289.167969 119.203125 1288.539062 118.140625 1289.527344 C 113.75 1293.652344 110.03125 1298.488281 106.066406 1303.0625 C 106.988281 1308.835938 110.917969 1312.484375 114.410156 1309.917969 Z M 165.683594 1196.566406 C 164.535156 1195.53125 162.46875 1192.210938 159.753906 1191.546875 C 154.996094 1190.371094 146.148438 1199.890625 146.867188 1205.59375 C 147.167969 1207.972656 150.328125 1211.460938 152.621094 1211.84375 C 158.269531 1212.78125 165.71875 1204.792969 165.683594 1196.566406 Z M 79.628906 1129.9375 C 80.816406 1134.1875 84.015625 1136.539062 87.558594 1133.175781 C 91.398438 1129.527344 94.035156 1124.601562 97.304688 1120.082031 C 95.71875 1117.15625 95.085938 1114.335938 93.410156 1113.398438 C 91.734375 1112.460938 88.71875 1112.78125 86.804688 1113.667969 C 82.40625 1115.691406 78.320312 1125.253906 79.628906 1129.9375 Z M 283.960938 1154.628906 C 285.285156 1155.480469 288.019531 1158.550781 289.683594 1158.050781 C 294.148438 1156.703125 298.492188 1154.261719 302.183594 1151.355469 C 303.71875 1150.144531 304.027344 1146.597656 303.792969 1144.226562 C 303.667969 1142.957031 301.347656 1141.28125 299.753906 1140.890625 C 294.433594 1139.609375 284.707031 1146.929688 283.960938 1154.628906 Z M 220.023438 1165.789062 C 219.351562 1163.914062 215.84375 1161.515625 214.101562 1161.855469 C 208.109375 1162.996094 203.542969 1166.933594 202.640625 1173.132812 C 202.253906 1175.792969 204.542969 1178.839844 205.3125 1180.90625 C 212.355469 1181.15625 221.683594 1170.40625 220.023438 1165.789062 Z M 135.777344 1161.773438 C 134.753906 1160.828125 131.496094 1160.578125 130.714844 1161.414062 C 127.253906 1165.109375 124.324219 1169.304688 121.070312 1173.492188 C 122.984375 1176.671875 123.792969 1179.726562 125.402344 1180.230469 C 127.4375 1180.871094 131.160156 1180.238281 132.324219 1178.738281 C 134.878906 1175.417969 136.671875 1171.335938 137.960938 1167.300781 C 138.449219 1165.765625 137.132812 1163.019531 135.777344 1161.773438 Z M 215.859375 1205.21875 C 211.796875 1204.367188 204.699219 1214.019531 205.539062 1218.816406 C 205.90625 1220.890625 207.933594 1222.664062 210.648438 1226.738281 C 215.617188 1220.613281 219.546875 1216.222656 222.613281 1211.300781 C 222.945312 1210.773438 218.550781 1205.78125 215.859375 1205.21875 Z M 64.027344 1294.386719 C 59.027344 1297.851562 54.972656 1302.679688 50.386719 1307.0625 C 52.28125 1310.46875 52.867188 1312.828125 54.351562 1313.773438 C 55.550781 1314.542969 58.75 1314.292969 59.484375 1313.3125 C 62.964844 1308.652344 66.492188 1303.84375 68.820312 1298.5625 C 70.050781 1295.761719 67.371094 1292.070312 64.027344 1294.386719 Z M 161.429688 1154.410156 C 162.265625 1156.050781 164.269531 1157.09375 166.691406 1159.273438 C 170.441406 1155.339844 174.230469 1152.386719 176.652344 1148.5625 C 179.734375 1143.691406 176.84375 1139.578125 171.046875 1139.585938 C 165.398438 1139.59375 158.882812 1149.382812 161.429688 1154.410156 Z M 51.613281 1227.691406 C 52.542969 1228.503906 55.851562 1231.707031 56.070312 1231.507812 C 60.476562 1227.5 64.621094 1223.175781 68.398438 1218.574219 C 68.609375 1218.320312 65.433594 1213.914062 63.367188 1213.425781 C 58.523438 1212.28125 51.894531 1219.726562 51.613281 1227.691406 Z M 164.671875 1265.800781 C 164.886719 1270.921875 168.792969 1271.957031 172.78125 1271.941406 C 178.140625 1271.925781 181.039062 1268.796875 181.871094 1261.222656 C 180.320312 1260.003906 178.101562 1256.980469 175.386719 1256.421875 C 170.425781 1255.394531 164.484375 1261.058594 164.671875 1265.800781 Z M 127.003906 1227.582031 C 122.085938 1226.753906 116.039062 1233.089844 116.925781 1238.167969 C 117.328125 1240.484375 119.984375 1243.671875 122.136719 1244.15625 C 127.144531 1245.277344 132.691406 1239.414062 132.757812 1231.757812 C 131.5625 1230.84375 129.484375 1228 127.003906 1227.582031 Z M 106.796875 1171.3125 C 106.519531 1169.484375 103.480469 1166.875 101.527344 1166.71875 C 95.964844 1166.265625 90.769531 1173.023438 90.917969 1181.476562 C 91.832031 1182.277344 93.523438 1184.863281 95.703125 1185.398438 C 99.246094 1186.253906 107.515625 1176.019531 106.796875 1171.3125 Z M 251.875 1295.226562 C 250.929688 1294.445312 249.253906 1292.003906 247.152344 1291.558594 C 242.746094 1290.613281 235.378906 1297.351562 235.796875 1302.253906 C 235.976562 1304.445312 238.757812 1307.714844 240.882812 1308.191406 C 245.851562 1309.320312 251.371094 1303.214844 251.875 1295.226562 Z M 121.667969 1117.53125 C 114.972656 1119.796875 111.117188 1131.835938 114.417969 1138.714844 C 119.691406 1137.167969 128.34375 1125.269531 127.1875 1120.214844 C 126.878906 1118.894531 123.125 1117.039062 121.667969 1117.53125 Z M 17.1875 1187.960938 C 21.367188 1184.957031 25.289062 1181.519531 28.722656 1177.703125 C 29.039062 1177.351562 25.515625 1173.535156 24.632812 1172.414062 C 16.769531 1172.625 11.269531 1177.863281 12.183594 1183.058594 C 12.535156 1185.023438 16.800781 1188.242188 17.1875 1187.960938 Z M 275.710938 1105.164062 C 281.960938 1105.347656 289.417969 1098.765625 288.878906 1094.222656 C 288.65625 1092.355469 286.191406 1089.671875 284.355469 1089.292969 C 279.765625 1088.347656 271.0625 1096.449219 271.808594 1100.972656 C 272.117188 1102.855469 274.882812 1104.335938 275.710938 1105.164062 Z M 37.152344 1130.832031 C 42.863281 1130.617188 50.28125 1122.984375 49.902344 1118.550781 C 49.785156 1117.164062 48.085938 1114.679688 47.398438 1114.777344 C 44.070312 1115.222656 39.78125 1115.414062 37.839844 1117.539062 C 35.441406 1120.167969 34.761719 1124.550781 33.960938 1128.316406 C 33.800781 1129.035156 36.539062 1130.367188 37.152344 1130.832031 Z M 112.566406 1088.707031 C 117.417969 1085.394531 121.222656 1080.542969 125.46875 1076.335938 C 125.277344 1075.371094 125.09375 1074.394531 124.902344 1073.425781 C 122.679688 1072.710938 119.230469 1070.714844 118.425781 1071.484375 C 114.4375 1075.3125 110.472656 1079.496094 107.867188 1084.292969 C 106.292969 1087.179688 109.652344 1090.691406 112.566406 1088.707031 Z M 112.675781 1348.726562 C 113.113281 1350.492188 117.621094 1353.019531 117.832031 1352.804688 C 121.859375 1348.679688 125.511719 1344.203125 130.289062 1338.5625 C 127.164062 1336.613281 125.503906 1334.6875 123.921875 1334.75 C 119.238281 1334.957031 111.570312 1344.300781 112.675781 1348.726562 Z M 347.460938 1095.433594 C 346.644531 1094.433594 345.253906 1091.070312 343.160156 1090.542969 C 338.613281 1089.394531 330.929688 1095.460938 331.265625 1099.636719 C 331.421875 1101.550781 333.636719 1104.453125 335.402344 1104.871094 C 340.789062 1106.160156 346.914062 1101.859375 347.460938 1095.433594 Z M 173.398438 1312.277344 C 168.558594 1311.742188 164.335938 1313.898438 164.988281 1319.203125 C 165.300781 1321.738281 169.929688 1326.164062 171.171875 1325.71875 C 175.144531 1324.296875 178.453125 1320.992188 182.019531 1318.417969 C 181.851562 1317.347656 181.6875 1316.28125 181.519531 1315.203125 C 178.820312 1314.191406 176.179688 1312.585938 173.398438 1312.277344 Z M 32.550781 1254.128906 C 27.902344 1253.761719 21.59375 1260.394531 22.1875 1264.898438 C 22.398438 1266.484375 24.785156 1268.789062 26.378906 1268.972656 C 30.925781 1269.492188 37.945312 1263.074219 37.898438 1257.398438 C 36.671875 1256.597656 34.695312 1254.296875 32.550781 1254.128906 Z M 78.773438 1263.082031 C 78.371094 1263.792969 81.761719 1266.671875 83.398438 1268.554688 C 86.464844 1265.121094 89.527344 1261.691406 93.339844 1257.410156 C 90.535156 1254.363281 89.027344 1252.722656 87.527344 1251.085938 C 84.511719 1255.039062 81.203125 1258.8125 78.773438 1263.082031 Z M 20.496094 1303.949219 C 16.792969 1306.367188 13.28125 1309.1875 10.28125 1312.417969 C 9.914062 1312.8125 12.832031 1316.273438 15.71875 1320.472656 C 19.757812 1315.371094 22.664062 1312.109375 24.867188 1308.433594 C 25.152344 1307.941406 20.871094 1303.707031 20.496094 1303.949219 Z M 234.082031 1248.84375 C 230.195312 1248.0625 223.207031 1255.382812 223.835938 1259.820312 C 224.078125 1261.527344 227.679688 1264.359375 227.816406 1264.246094 C 231.652344 1261.191406 235.238281 1257.820312 239.8125 1253.636719 C 236.886719 1251.101562 235.648438 1249.160156 234.082031 1248.84375 Z M 248.222656 1349.90625 C 247.109375 1350.828125 246.964844 1354.046875 247.671875 1355.640625 C 248.191406 1356.808594 250.863281 1357.65625 252.511719 1357.5625 C 259.449219 1357.167969 261.6875 1353.320312 260.109375 1342.328125 C 255.445312 1345.195312 251.507812 1347.15625 248.222656 1349.90625 Z M 79.703125 1330.699219 C 76.066406 1333.578125 72.664062 1336.804688 69.617188 1340.296875 C 69.320312 1340.636719 71.886719 1343.484375 73.132812 1345.164062 C 76.945312 1342.09375 80.765625 1339.015625 85.894531 1334.890625 C 82.542969 1332.582031 80.113281 1330.371094 79.703125 1330.699219 Z M 244.554688 1071.0625 C 248.296875 1069.257812 251.566406 1066.460938 255 1064.019531 C 254.898438 1063.101562 254.800781 1062.179688 254.699219 1061.265625 C 252.496094 1060.128906 249.261719 1057.46875 248.273438 1058.136719 C 244.914062 1060.398438 242.339844 1063.851562 239.46875 1066.839844 C 241.210938 1068.34375 243.730469 1071.464844 244.554688 1071.0625 Z M 44.148438 1179.183594 C 44.480469 1180.714844 47.757812 1183.148438 48.082031 1182.914062 C 51.703125 1180.328125 55.019531 1177.292969 59.753906 1173.234375 C 56.078125 1171.152344 54.308594 1169.402344 52.390625 1169.21875 C 48.226562 1168.835938 43.214844 1174.847656 44.148438 1179.183594 Z M 245.347656 1227.859375 C 244.804688 1229.195312 247.863281 1231.984375 250.550781 1235.980469 C 254.289062 1232.117188 256.585938 1229.742188 258.878906 1227.375 C 256.46875 1225.589844 254.070312 1222.410156 251.660156 1222.414062 C 249.445312 1222.414062 246.320312 1225.457031 245.347656 1227.859375 Z M 76.074219 1064.523438 C 79.835938 1062.855469 83.269531 1060.4375 86.816406 1058.289062 C 86.640625 1057.351562 86.472656 1056.414062 86.296875 1055.476562 C 84.453125 1054.550781 82.667969 1052.992188 80.765625 1052.824219 C 76.226562 1052.433594 71.148438 1057.316406 72.046875 1061.210938 C 72.371094 1062.632812 75.304688 1064.871094 76.074219 1064.523438 Z M 48.015625 1363.050781 C 48.417969 1362.601562 45.855469 1359.503906 45.109375 1358.332031 C 38.71875 1358.683594 35.257812 1360.457031 35.886719 1365.753906 C 36.105469 1367.601562 37.90625 1369.265625 38.992188 1371.007812 C 42.0625 1368.421875 45.359375 1366.019531 48.015625 1363.050781 Z M 190.875 1396.082031 C 187.75 1398.015625 185.246094 1401.007812 182.78125 1403.828125 C 182.664062 1403.964844 185.683594 1407.777344 186.351562 1407.527344 C 190.003906 1406.144531 193.375 1404.019531 196.839844 1402.148438 C 196.757812 1401.144531 196.675781 1400.148438 196.597656 1399.144531 C 194.636719 1398.039062 191.796875 1395.511719 190.875 1396.082031 Z M 288.796875 1269.421875 C 285.941406 1270.84375 283.777344 1273.65625 281.332031 1275.90625 C 283.175781 1277.597656 285.539062 1281.003906 286.761719 1280.640625 C 289.703125 1279.746094 292.105469 1277.085938 296.488281 1273.824219 C 292.566406 1271.480469 289.894531 1268.871094 288.796875 1269.421875 Z M 163.992188 1368.632812 C 159.199219 1368.613281 156.621094 1371.863281 156.671875 1376.453125 C 156.6875 1377.574219 159.894531 1379.902344 160.839844 1379.550781 C 164.25 1378.285156 167.324219 1376.109375 170.519531 1374.277344 C 170.402344 1373.351562 170.277344 1372.429688 170.160156 1371.507812 C 168.105469 1370.488281 166.054688 1368.648438 163.992188 1368.632812 Z M 159.257812 1114.335938 C 161.761719 1112.394531 164.34375 1110.292969 165.96875 1107.652344 C 166.429688 1106.90625 163.847656 1104.277344 161.511719 1100.796875 C 158.90625 1105.167969 156.945312 1107.925781 155.722656 1110.972656 C 155.480469 1111.566406 159.03125 1114.503906 159.257812 1114.335938 Z M 108.796875 1394.574219 C 108.546875 1395.3125 112.332031 1398.347656 112.578125 1398.148438 C 114.949219 1396.308594 117.335938 1394.222656 118.828125 1391.6875 C 119.222656 1391.011719 116.558594 1388.535156 114.070312 1385.28125 C 111.636719 1389.339844 109.71875 1391.789062 108.796875 1394.574219 Z M 186.546875 1288.492188 C 186.234375 1289.035156 188.683594 1292.355469 189.898438 1292.371094 C 191.992188 1292.40625 194.109375 1290.847656 198.113281 1289.152344 C 194.664062 1286.589844 192.878906 1284.238281 191.320312 1284.375 C 189.542969 1284.542969 187.582031 1286.707031 186.546875 1288.492188 Z M 186.546875 1288.492188 " fill-opacity="1" fill-rule="nonzero"/></g><g clip-path="url(#baad7ed28b)"><path fill="#ab6551" d="M 843.816406 28.921875 C 843.816406 29.242188 843.816406 29.554688 843.816406 29.871094 C 840.484375 35.570312 837.496094 36.695312 833.449219 33.902344 C 831.042969 32.242188 831.121094 30.332031 832.765625 28.332031 C 835.589844 24.902344 841.234375 25.25 843.816406 28.921875 Z M 638.480469 197.492188 C 637.796875 198.121094 638.542969 200.316406 638.644531 201.800781 C 639.910156 201.800781 641.175781 201.800781 642.4375 201.800781 C 642.910156 201.183594 643.726562 200.597656 643.785156 199.941406 C 643.90625 198.511719 643.640625 197.050781 643.535156 195.597656 C 641.808594 196.179688 639.710938 196.363281 638.480469 197.492188 Z M 747.570312 13.109375 C 751.136719 13.101562 757.257812 8.007812 757.214844 4.304688 C 757.1875 2.296875 756.273438 -0.273438 754.828125 -1.476562 C 754.019531 -2.152344 750.734375 -1.109375 749.585938 0.113281 C 747.273438 2.582031 745.230469 5.515625 743.886719 8.613281 C 742.800781 11.128906 743.945312 13.324219 747.570312 13.109375 Z M 733.746094 -23.703125 C 738.660156 -22.941406 742.777344 -25.449219 744.320312 -30.136719 C 745.4375 -33.53125 742.8125 -36.855469 739.476562 -36.257812 C 734.78125 -35.414062 730.402344 -29.59375 730.625 -24.210938 C 731.621094 -24.046875 732.683594 -23.867188 733.746094 -23.703125 Z M 787.097656 47.230469 C 782.53125 46.898438 777.074219 52.253906 777.683594 56.460938 C 777.929688 58.175781 779.9375 59.636719 780.523438 60.410156 C 786.320312 60.292969 791.320312 55.078125 790.839844 50.695312 C 790.695312 49.363281 788.484375 47.332031 787.097656 47.230469 Z M 813.003906 65.070312 C 808.910156 63.265625 805.878906 66.175781 803.230469 68.78125 C 802.164062 69.828125 801.378906 71.972656 801.664062 73.375 C 802.011719 75.0625 803.640625 76.484375 804.222656 77.324219 C 809.714844 77.441406 813.605469 74.542969 814.359375 70.238281 C 814.652344 68.574219 814.054688 65.53125 813.003906 65.070312 Z M 766.3125 25.796875 C 770.195312 26.394531 775.332031 21.003906 775.230469 15.675781 C 774.382812 15.078125 772.902344 13.210938 771.273438 13.0625 C 767.140625 12.679688 761.191406 18.378906 762.011719 21.964844 C 762.367188 23.542969 764.660156 25.539062 766.3125 25.796875 Z M 683.234375 129.859375 C 686.398438 127.53125 688.929688 124.226562 691.296875 121.023438 C 691.8125 120.328125 690.902344 117.804688 689.921875 117 C 688.945312 116.195312 686.394531 115.78125 685.695312 116.429688 C 682.796875 119.148438 680.347656 122.332031 677.730469 125.34375 C 678.339844 129.144531 680.929688 131.546875 683.234375 129.859375 Z M 717.046875 55.21875 C 716.289062 54.539062 714.929688 52.351562 713.136719 51.914062 C 710 51.140625 704.164062 57.40625 704.636719 61.160156 C 704.835938 62.730469 706.921875 65.027344 708.429688 65.277344 C 712.15625 65.894531 717.070312 60.636719 717.046875 55.21875 Z M 660.296875 11.34375 C 661.078125 14.144531 663.1875 15.691406 665.523438 13.476562 C 668.058594 11.074219 669.796875 7.832031 671.953125 4.855469 C 670.90625 2.929688 670.492188 1.074219 669.386719 0.453125 C 668.28125 -0.164062 666.292969 0.0507812 665.027344 0.632812 C 662.125 1.964844 659.433594 8.261719 660.296875 11.34375 Z M 795.046875 27.605469 C 795.921875 28.164062 797.726562 30.1875 798.824219 29.859375 C 801.765625 28.96875 804.632812 27.363281 807.066406 25.449219 C 808.078125 24.652344 808.28125 22.316406 808.128906 20.753906 C 808.046875 19.917969 806.515625 18.8125 805.464844 18.558594 C 801.953125 17.714844 795.539062 22.535156 795.046875 27.605469 Z M 752.882812 34.953125 C 752.441406 33.71875 750.128906 32.140625 748.980469 32.363281 C 745.027344 33.113281 742.015625 35.707031 741.421875 39.789062 C 741.164062 41.539062 742.675781 43.546875 743.183594 44.90625 C 747.824219 45.070312 753.980469 37.992188 752.882812 34.953125 Z M 697.324219 32.308594 C 696.648438 31.6875 694.503906 31.523438 693.984375 32.074219 C 691.703125 34.503906 689.773438 37.269531 687.625 40.023438 C 688.890625 42.117188 689.421875 44.128906 690.480469 44.460938 C 691.824219 44.882812 694.28125 44.46875 695.046875 43.476562 C 696.730469 41.292969 697.914062 38.605469 698.765625 35.945312 C 699.085938 34.9375 698.21875 33.128906 697.324219 32.308594 Z M 750.136719 60.914062 C 747.457031 60.355469 742.777344 66.710938 743.332031 69.871094 C 743.574219 71.234375 744.910156 72.402344 746.699219 75.085938 C 749.976562 71.050781 752.570312 68.164062 754.59375 64.921875 C 754.808594 64.574219 751.914062 61.289062 750.136719 60.914062 Z M 650.007812 119.628906 C 646.710938 121.910156 644.035156 125.089844 641.011719 127.976562 C 642.261719 130.21875 642.644531 131.773438 643.625 132.394531 C 644.417969 132.902344 646.527344 132.738281 647.007812 132.09375 C 649.308594 129.023438 651.632812 125.859375 653.167969 122.378906 C 653.980469 120.535156 652.210938 118.105469 650.007812 119.628906 Z M 714.242188 27.460938 C 714.792969 28.539062 716.117188 29.226562 717.714844 30.664062 C 720.183594 28.074219 722.683594 26.128906 724.28125 23.609375 C 726.3125 20.402344 724.40625 17.695312 720.585938 17.699219 C 716.859375 17.703125 712.5625 24.148438 714.242188 27.460938 Z M 641.820312 75.714844 C 642.433594 76.25 644.617188 78.359375 644.761719 78.226562 C 647.667969 75.589844 650.398438 72.742188 652.886719 69.710938 C 653.027344 69.542969 650.933594 66.644531 649.574219 66.320312 C 646.378906 65.566406 642.003906 70.46875 641.820312 75.714844 Z M 716.382812 100.808594 C 716.519531 104.179688 719.097656 104.859375 721.730469 104.851562 C 725.261719 104.839844 727.171875 102.78125 727.722656 97.792969 C 726.699219 96.992188 725.238281 95 723.445312 94.632812 C 720.175781 93.957031 716.253906 97.6875 716.382812 100.808594 Z M 691.539062 75.640625 C 688.296875 75.097656 684.308594 79.269531 684.894531 82.613281 C 685.160156 84.136719 686.910156 86.238281 688.328125 86.554688 C 691.628906 87.292969 695.289062 83.433594 695.332031 78.390625 C 694.546875 77.789062 693.175781 75.917969 691.539062 75.640625 Z M 678.214844 38.589844 C 678.03125 37.382812 676.027344 35.667969 674.738281 35.566406 C 671.070312 35.265625 667.644531 39.714844 667.738281 45.28125 C 668.34375 45.808594 669.457031 47.511719 670.894531 47.863281 C 673.230469 48.429688 678.6875 41.6875 678.214844 38.589844 Z M 773.886719 120.183594 C 773.265625 119.667969 772.160156 118.0625 770.777344 117.765625 C 767.871094 117.144531 763.007812 121.582031 763.285156 124.8125 C 763.40625 126.253906 765.238281 128.40625 766.640625 128.71875 C 769.917969 129.460938 773.554688 125.445312 773.886719 120.183594 Z M 688.019531 3.175781 C 683.605469 4.667969 681.0625 12.59375 683.238281 17.125 C 686.71875 16.105469 692.421875 8.269531 691.660156 4.941406 C 691.457031 4.074219 688.980469 2.851562 688.019531 3.175781 Z M 619.117188 49.554688 C 621.875 47.574219 624.460938 45.3125 626.722656 42.796875 C 626.929688 42.566406 624.609375 40.054688 624.027344 39.316406 C 618.84375 39.453125 615.210938 42.90625 615.816406 46.324219 C 616.046875 47.617188 618.863281 49.738281 619.117188 49.554688 Z M 789.609375 -4.96875 C 793.730469 -4.847656 798.648438 -9.179688 798.292969 -12.171875 C 798.148438 -13.402344 796.519531 -15.167969 795.308594 -15.417969 C 792.28125 -16.042969 786.542969 -10.703125 787.035156 -7.726562 C 787.238281 -6.488281 789.0625 -5.511719 789.609375 -4.96875 Z M 632.285156 11.933594 C 636.046875 11.792969 640.941406 6.765625 640.691406 3.847656 C 640.613281 2.933594 639.496094 1.300781 639.042969 1.363281 C 636.84375 1.65625 634.015625 1.78125 632.738281 3.179688 C 631.15625 4.914062 630.707031 7.796875 630.179688 10.277344 C 630.074219 10.75 631.878906 11.628906 632.285156 11.933594 Z M 682.015625 -15.804688 C 685.214844 -17.984375 687.726562 -21.179688 690.523438 -23.949219 C 690.398438 -24.585938 690.277344 -25.226562 690.152344 -25.863281 C 688.6875 -26.335938 686.414062 -27.648438 685.882812 -27.144531 C 683.25 -24.625 680.636719 -21.871094 678.917969 -18.710938 C 677.878906 -16.808594 680.09375 -14.496094 682.015625 -15.804688 Z M 682.089844 155.410156 C 682.378906 156.574219 685.351562 158.238281 685.492188 158.097656 C 688.144531 155.382812 690.554688 152.433594 693.707031 148.71875 C 691.644531 147.433594 690.550781 146.167969 689.507812 146.210938 C 686.417969 146.34375 681.359375 152.496094 682.089844 155.410156 Z M 836.925781 -11.375 C 836.386719 -12.03125 835.46875 -14.246094 834.089844 -14.59375 C 831.09375 -15.351562 826.023438 -11.355469 826.246094 -8.605469 C 826.347656 -7.347656 827.808594 -5.4375 828.972656 -5.160156 C 832.527344 -4.3125 836.566406 -7.144531 836.925781 -11.375 Z M 722.132812 131.410156 C 718.945312 131.058594 716.160156 132.476562 716.589844 135.972656 C 716.796875 137.640625 719.847656 140.554688 720.667969 140.261719 C 723.289062 139.324219 725.46875 137.148438 727.820312 135.457031 C 727.707031 134.75 727.601562 134.046875 727.492188 133.335938 C 725.710938 132.671875 723.96875 131.613281 722.132812 131.410156 Z M 629.25 93.121094 C 626.183594 92.878906 622.023438 97.246094 622.414062 100.214844 C 622.554688 101.257812 624.128906 102.777344 625.179688 102.898438 C 628.175781 103.238281 632.804688 99.011719 632.777344 95.273438 C 631.964844 94.746094 630.664062 93.234375 629.25 93.121094 Z M 659.730469 99.019531 C 659.46875 99.484375 661.703125 101.382812 662.78125 102.621094 C 664.804688 100.359375 666.824219 98.101562 669.335938 95.285156 C 667.488281 93.277344 666.496094 92.195312 665.503906 91.121094 C 663.515625 93.71875 661.335938 96.203125 659.730469 99.019531 Z M 621.300781 125.925781 C 618.855469 127.519531 616.539062 129.375 614.5625 131.503906 C 614.320312 131.765625 616.246094 134.042969 618.148438 136.804688 C 620.8125 133.449219 622.726562 131.300781 624.179688 128.878906 C 624.367188 128.554688 621.546875 125.765625 621.300781 125.925781 Z M 762.15625 89.644531 C 759.59375 89.125 754.984375 93.945312 755.398438 96.871094 C 755.558594 97.996094 757.933594 99.855469 758.023438 99.785156 C 760.554688 97.773438 762.917969 95.554688 765.933594 92.796875 C 764.003906 91.128906 763.1875 89.851562 762.15625 89.644531 Z M 771.480469 156.1875 C 770.746094 156.796875 770.648438 158.914062 771.117188 159.964844 C 771.460938 160.734375 773.222656 161.292969 774.308594 161.230469 C 778.882812 160.96875 780.359375 158.4375 779.320312 151.199219 C 776.242188 153.085938 773.648438 154.378906 771.480469 156.1875 Z M 660.34375 143.542969 C 657.945312 145.4375 655.703125 147.5625 653.695312 149.863281 C 653.496094 150.085938 655.191406 151.960938 656.011719 153.066406 C 658.527344 151.042969 661.046875 149.019531 664.429688 146.300781 C 662.21875 144.78125 660.617188 143.324219 660.34375 143.542969 Z M 769.0625 -27.421875 C 771.527344 -28.609375 773.6875 -30.453125 775.949219 -32.058594 C 775.882812 -32.664062 775.820312 -33.269531 775.75 -33.875 C 774.300781 -34.621094 772.164062 -36.375 771.515625 -35.933594 C 769.296875 -34.445312 767.601562 -32.171875 765.707031 -30.203125 C 766.855469 -29.214844 768.515625 -27.15625 769.0625 -27.421875 Z M 636.898438 43.773438 C 637.117188 44.78125 639.277344 46.382812 639.488281 46.230469 C 641.878906 44.527344 644.066406 42.527344 647.1875 39.855469 C 644.765625 38.484375 643.597656 37.332031 642.332031 37.210938 C 639.585938 36.960938 636.28125 40.917969 636.898438 43.773438 Z M 769.582031 75.824219 C 769.226562 76.703125 771.242188 78.539062 773.015625 81.171875 C 775.480469 78.628906 776.996094 77.066406 778.507812 75.507812 C 776.917969 74.328125 775.335938 72.234375 773.75 72.238281 C 772.285156 72.238281 770.226562 74.242188 769.582031 75.824219 Z M 657.953125 -31.726562 C 660.433594 -32.828125 662.695312 -34.417969 665.035156 -35.832031 C 664.921875 -36.449219 664.808594 -37.066406 664.695312 -37.6875 C 663.476562 -38.292969 662.300781 -39.320312 661.046875 -39.433594 C 658.050781 -39.6875 654.703125 -36.476562 655.296875 -33.90625 C 655.507812 -32.972656 657.445312 -31.5 657.953125 -31.726562 Z M 639.445312 164.84375 C 639.710938 164.550781 638.023438 162.507812 637.53125 161.738281 C 633.316406 161.96875 631.035156 163.136719 631.449219 166.625 C 631.59375 167.839844 632.78125 168.933594 633.496094 170.082031 C 635.523438 168.378906 637.695312 166.796875 639.445312 164.84375 Z M 733.660156 186.59375 C 731.597656 187.867188 729.949219 189.835938 728.320312 191.695312 C 728.246094 191.785156 730.238281 194.292969 730.675781 194.128906 C 733.085938 193.21875 735.308594 191.820312 737.59375 190.589844 C 737.539062 189.929688 737.488281 189.273438 737.433594 188.609375 C 736.140625 187.882812 734.269531 186.21875 733.660156 186.59375 Z M 798.238281 103.191406 C 796.355469 104.128906 794.925781 105.980469 793.316406 107.460938 C 794.53125 108.574219 796.089844 110.820312 796.898438 110.578125 C 798.835938 109.988281 800.417969 108.238281 803.3125 106.089844 C 800.722656 104.546875 798.960938 102.828125 798.238281 103.191406 Z M 715.933594 168.519531 C 712.769531 168.503906 711.070312 170.648438 711.105469 173.667969 C 711.113281 174.40625 713.230469 175.941406 713.851562 175.710938 C 716.101562 174.875 718.128906 173.441406 720.238281 172.234375 C 720.160156 171.628906 720.078125 171.019531 720 170.410156 C 718.644531 169.742188 717.292969 168.53125 715.933594 168.519531 Z M 712.808594 1.074219 C 714.460938 -0.207031 716.164062 -1.589844 717.234375 -3.328125 C 717.539062 -3.820312 715.835938 -5.550781 714.296875 -7.84375 C 712.578125 -4.964844 711.285156 -3.148438 710.476562 -1.140625 C 710.320312 -0.75 712.660156 1.183594 712.808594 1.074219 Z M 679.53125 185.601562 C 679.367188 186.085938 681.863281 188.085938 682.027344 187.953125 C 683.589844 186.742188 685.164062 185.367188 686.148438 183.699219 C 686.410156 183.253906 684.652344 181.625 683.011719 179.480469 C 681.402344 182.15625 680.140625 183.765625 679.53125 185.601562 Z M 730.808594 115.75 C 730.601562 116.109375 732.214844 118.292969 733.019531 118.304688 C 734.398438 118.328125 735.792969 117.300781 738.433594 116.183594 C 736.160156 114.496094 734.980469 112.945312 733.953125 113.039062 C 732.78125 113.148438 731.488281 114.574219 730.808594 115.75 Z M 730.808594 115.75 " fill-opacity="1" fill-rule="nonzero"/></g></svg>