<svg xmlns="http://www.w3.org/2000/svg" xmlns:xlink="http://www.w3.org/1999/xlink" width="940" zoomAndPan="magnify" viewBox="0 0 705 705.000001" height="940" preserveAspectRatio="xMidYMid meet" version="1.0"><defs><clipPath id="1cd4c315e4"><path d="M 168.09375 6.507812 L 536.570312 6.507812 L 536.570312 697.777344 L 168.09375 697.777344 Z M 168.09375 6.507812 " clip-rule="nonzero"/></clipPath></defs><g clip-path="url(#1cd4c315e4)"><path fill="#ffffff" d="M 191.246094 29.550781 L 214.261719 29.550781 L 214.261719 64.117188 C 214.261719 83.195312 229.722656 98.679688 248.777344 98.679688 C 252.824219 98.679688 256.644531 97.824219 260.285156 96.5625 L 260.285156 110.199219 C 260.285156 129.28125 275.746094 144.761719 294.800781 144.761719 C 313.859375 144.761719 329.320312 129.28125 329.320312 110.199219 L 329.320312 29.550781 L 398.355469 29.550781 L 398.355469 121.722656 C 398.355469 128.066406 403.527344 133.242188 409.863281 133.242188 C 416.199219 133.242188 421.367188 128.066406 421.367188 121.722656 L 421.367188 29.550781 L 444.382812 29.550781 L 444.382812 121.722656 C 444.382812 128.066406 449.550781 133.242188 455.886719 133.242188 C 462.222656 133.242188 467.394531 128.066406 467.394531 121.722656 L 467.394531 29.550781 L 513.417969 29.550781 L 513.417969 190.847656 L 191.246094 190.847656 Z M 260.285156 29.550781 L 260.285156 64.117188 C 260.285156 70.460938 255.117188 75.636719 248.777344 75.636719 C 242.441406 75.636719 237.273438 70.460938 237.273438 64.117188 L 237.273438 29.550781 Z M 283.296875 64.117188 L 283.296875 29.550781 L 306.308594 29.550781 L 306.308594 110.199219 C 306.308594 116.546875 301.140625 121.722656 294.800781 121.722656 C 288.464844 121.722656 283.296875 116.546875 283.296875 110.199219 Z M 260.285156 294.539062 C 260.285156 300.882812 255.117188 306.058594 248.777344 306.058594 C 242.441406 306.058594 237.273438 300.882812 237.273438 294.539062 L 237.273438 213.890625 L 260.285156 213.890625 Z M 306.308594 213.890625 L 306.308594 248.453125 C 306.308594 254.800781 301.140625 259.976562 294.800781 259.976562 C 288.464844 259.976562 283.296875 254.800781 283.296875 248.453125 L 283.296875 213.890625 Z M 513.417969 363.664062 C 513.417969 382.746094 497.957031 398.230469 478.898438 398.230469 L 225.765625 398.230469 C 206.710938 398.230469 191.246094 382.746094 191.246094 363.664062 L 191.246094 213.890625 L 214.261719 213.890625 L 214.261719 294.539062 C 214.261719 313.621094 229.722656 329.101562 248.777344 329.101562 C 267.835938 329.101562 283.296875 313.621094 283.296875 294.539062 L 283.296875 280.902344 C 286.9375 282.164062 290.757812 283.015625 294.800781 283.015625 C 313.859375 283.015625 329.320312 267.535156 329.320312 248.453125 L 329.320312 213.890625 L 513.417969 213.890625 Z M 395.976562 629.191406 C 396.46875 641.207031 392.15625 652.59375 383.839844 661.28125 C 375.523438 669.964844 364.332031 674.738281 352.332031 674.738281 C 340.332031 674.738281 329.140625 669.964844 320.824219 661.28125 C 312.511719 652.59375 308.195312 641.207031 308.691406 629.191406 L 317.363281 421.269531 L 387.300781 421.269531 Z M 225.765625 421.269531 L 294.308594 421.269531 L 285.722656 628.203125 C 284.960938 646.5625 291.519531 663.980469 304.195312 677.210938 C 316.914062 690.488281 333.996094 697.777344 352.332031 697.777344 C 370.671875 697.777344 387.75 690.488281 400.46875 677.210938 C 413.144531 663.980469 419.707031 646.5625 418.941406 628.203125 L 410.355469 421.269531 L 478.898438 421.269531 C 510.628906 421.269531 536.429688 395.4375 536.429688 363.664062 L 536.429688 18.03125 C 536.429688 11.683594 531.261719 6.507812 524.921875 6.507812 L 179.742188 6.507812 C 173.40625 6.507812 168.234375 11.683594 168.234375 18.03125 L 168.234375 363.664062 C 168.234375 395.4375 194.035156 421.269531 225.765625 421.269531 " fill-opacity="1" fill-rule="nonzero"/></g><path fill="#ffffff" d="M 352.332031 651.695312 C 365.007812 651.695312 375.34375 641.34375 375.34375 628.652344 C 375.34375 615.960938 365.007812 605.609375 352.332031 605.609375 C 339.65625 605.609375 329.320312 615.960938 329.320312 628.652344 C 329.320312 641.34375 339.65625 651.695312 352.332031 651.695312 " fill-opacity="1" fill-rule="nonzero"/><path fill="#ffffff" d="M 237.273438 352.144531 C 230.933594 352.144531 225.765625 357.320312 225.765625 363.664062 C 225.765625 370.011719 230.933594 375.1875 237.273438 375.1875 L 467.394531 375.1875 C 473.730469 375.1875 478.898438 370.011719 478.898438 363.664062 C 478.898438 357.320312 473.730469 352.144531 467.394531 352.144531 L 237.273438 352.144531 " fill-opacity="1" fill-rule="nonzero"/></svg>