<svg xmlns="http://www.w3.org/2000/svg" xmlns:xlink="http://www.w3.org/1999/xlink" width="1080" zoomAndPan="magnify" viewBox="0 0 810 809.999993" height="1080" preserveAspectRatio="xMidYMid meet" version="1.0"><defs><g/><clipPath id="a7aac842e8"><path d="M 56.925781 56.925781 L 752.925781 56.925781 L 752.925781 752.925781 L 56.925781 752.925781 Z M 56.925781 56.925781 " clip-rule="nonzero"/></clipPath></defs><g clip-path="url(#a7aac842e8)"><path fill="#79a1b8" d="M 404.925781 56.925781 C 212.730469 56.925781 56.925781 212.730469 56.925781 404.925781 C 56.925781 597.121094 212.730469 752.925781 404.925781 752.925781 C 597.121094 752.925781 752.925781 597.121094 752.925781 404.925781 C 752.925781 212.730469 597.121094 56.925781 404.925781 56.925781 " fill-opacity="1" fill-rule="nonzero"/></g><path fill="#318ba2" d="M 376.902344 340.460938 C 363.859375 344.199219 349.765625 344.191406 336.71875 340.433594 C 331.867188 339.035156 327.078125 337.125 322.035156 336.902344 C 315.789062 336.636719 309.769531 338.984375 303.753906 340.699219 C 298.066406 342.3125 292.085938 343.382812 286.160156 342.960938 C 283.199219 342.753906 280.554688 341.585938 277.71875 341.171875 C 274.941406 340.761719 272.464844 341.410156 270.078125 339.347656 C 268.054688 337.597656 267.09375 334.703125 267.664062 332.085938 C 267.894531 331.035156 268.335938 329.882812 267.808594 328.949219 C 267.507812 328.40625 266.9375 328.082031 266.382812 327.816406 C 261.304688 325.441406 255.386719 326.707031 249.796875 327.046875 C 244.207031 327.386719 237.570312 326.078125 235.214844 320.988281 C 233.441406 317.140625 235.246094 312.03125 239.042969 310.164062 C 241.628906 308.894531 244.664062 309.066406 247.539062 309.308594 C 257.996094 310.191406 268.414062 311.566406 278.746094 313.433594 C 285.292969 314.613281 291.921875 315.996094 298.535156 315.273438 C 304.796875 314.582031 310.675781 312.039062 316.6875 310.160156 C 330.257812 305.914062 345.675781 304.144531 359.152344 308.785156 C 362.605469 309.972656 366.558594 310.871094 370.191406 309.960938 C 373.949219 309.007812 375.910156 305.785156 379.273438 304.285156 C 384.417969 301.992188 389.527344 305.015625 392.449219 309.332031 C 401.375 322.523438 389.71875 336.792969 376.902344 340.460938 Z M 376.902344 340.460938 " fill-opacity="1" fill-rule="nonzero"/><path fill="#ebe6e4" d="M 385.613281 264.066406 C 375.613281 270.246094 365.308594 276.726562 358.808594 286.523438 C 354.003906 293.761719 351.566406 302.433594 346.378906 309.40625 C 341.660156 315.753906 334.726562 320.421875 327.074219 322.40625 C 323.84375 323.238281 319.640625 324.597656 319.71875 327.933594 C 346.875 327.574219 375.277344 326.90625 399.117188 313.871094 C 403.859375 311.273438 408.421875 308.152344 411.839844 303.957031 C 419.03125 295.117188 420.164062 282.957031 420.996094 271.585938 C 421.574219 263.726562 420.503906 250.820312 409.753906 250.75 C 402.074219 250.691406 391.890625 260.183594 385.613281 264.066406 Z M 385.613281 264.066406 " fill-opacity="1" fill-rule="nonzero"/><path fill="#1f4150" d="M 578.339844 64.367188 C 547.261719 117.054688 515.5 170.515625 475.199219 216.0625 C 442.257812 219.417969 435.90625 191.707031 438.664062 187.695312 C 460.089844 156.300781 484.515625 126.957031 511.496094 100.175781 C 528.621094 83.164062 546.75 67.199219 565.824219 52.40625 C 570.667969 48.636719 576.894531 44.761719 582.546875 47.21875 C 584.664062 52.949219 581.441406 59.152344 578.339844 64.367188 Z M 578.339844 64.367188 " fill-opacity="1" fill-rule="nonzero"/><path fill="#7c8899" d="M 475.203125 216.0625 C 462.046875 230.949219 447.984375 244.964844 432.746094 257.832031 C 425.546875 263.863281 416.429688 270.769531 406.40625 268.511719 C 396.378906 266.253906 395.171875 259.988281 399.105469 251.9375 C 407.851562 234.117188 419.796875 216.5 430.59375 199.828125 C 433.21875 195.75 435.910156 191.707031 438.667969 187.695312 C 443.578125 193.625 445.363281 202.691406 452.292969 207.640625 C 459.054688 212.460938 467.433594 213.570312 475.203125 216.0625 Z M 475.203125 216.0625 " fill-opacity="1" fill-rule="nonzero"/><path fill="#0d3749" d="M 566.351562 38.519531 C 558.375 42.339844 551.089844 49.90625 544.605469 55.773438 C 537.121094 62.539062 529.839844 69.527344 522.375 76.320312 C 506.832031 90.449219 492.128906 105.484375 478.378906 121.371094 C 465.207031 136.570312 452.898438 152.539062 441.535156 169.140625 C 429.65625 186.503906 419.578125 204.699219 409.207031 222.96875 C 405.65625 229.214844 399.925781 236.191406 398.941406 243.664062 C 383.082031 250.425781 367.757812 260.113281 358.777344 275.253906 C 353.375 284.355469 349.605469 294.570312 342.953125 302.890625 C 342.65625 303.261719 342.308594 303.628906 341.992188 303.996094 C 335.710938 300.460938 328.546875 301.558594 322.132812 304.445312 C 312.910156 308.601562 305.476562 313.539062 294.925781 313.496094 C 275.464844 313.414062 257.414062 302.414062 237.757812 304.730469 C 232.726562 305.320312 224.84375 307.140625 225.3125 313.804688 C 225.808594 320.785156 233.789062 321.839844 239.1875 322.207031 C 249.605469 322.914062 260.03125 323.578125 270.449219 324.261719 C 271.925781 324.355469 286.890625 324.84375 286.730469 326.164062 C 286.65625 326.78125 273.109375 327.90625 271.746094 328.074219 C 270.453125 328.234375 269.378906 329.257812 269.769531 330.671875 C 272.792969 341.695312 287.097656 341.199219 296.015625 339.683594 C 303.066406 338.480469 309.890625 336.15625 316.976562 335.113281 C 325.839844 333.804688 334.457031 335.457031 343.101562 337.332031 C 355.183594 339.945312 368.742188 342.824219 380.371094 336.941406 C 389.085938 332.539062 395.03125 322.828125 393 313.109375 C 410.699219 302.183594 421.800781 280.988281 414.148438 260.566406 C 416.675781 260.414062 418.757812 259.300781 420.714844 257.390625 C 424.476562 253.722656 427.957031 249.796875 431.824219 246.203125 C 440.332031 238.308594 449.277344 230.898438 457.421875 222.609375 C 486.625 192.414062 511.695312 158.539062 534.507812 123.320312 C 546.355469 105.027344 557.144531 86.117188 568.644531 67.617188 C 572.644531 61.1875 579.203125 53.285156 578.925781 45.210938 C 578.679688 38.257812 572.101562 35.769531 566.351562 38.519531 Z M 371.746094 335.574219 C 359.984375 338.023438 348.085938 333.894531 336.613281 331.8125 C 326.121094 329.910156 316.550781 330.683594 306.25 333.183594 C 298.832031 334.980469 279.996094 340.75 274.703125 331.855469 C 278.535156 331.457031 282.417969 331.128906 286.164062 330.398438 C 287.921875 330.050781 289.828125 329.804688 290.8125 328.050781 C 293.265625 323.671875 287.832031 321.453125 284.570312 321.089844 C 274.5625 319.988281 264.363281 319.765625 254.316406 319.105469 C 249.605469 318.792969 244.902344 318.492188 240.191406 318.175781 C 237.742188 318.007812 233.914062 318.304688 231.859375 316.761719 C 225.136719 311.699219 233.542969 309.597656 235.78125 309.167969 C 254.242188 305.625 272.253906 315.859375 290.421875 317.394531 C 298.324219 318.066406 306.007812 317.042969 313.207031 313.65625 C 321.167969 309.917969 330.226562 302.890625 339.117188 307.105469 C 332.878906 313.328125 324.40625 318.523438 315.679688 317.199219 C 313.125 316.8125 311.960938 320.667969 314.589844 321.164062 C 338.414062 325.636719 367.097656 326.605469 389.269531 315.210938 C 390.597656 325.414062 381.308594 333.585938 371.746094 335.574219 Z M 383.714844 313.328125 C 372.15625 318.351562 358.929688 320.160156 345.722656 320.125 C 367.488281 316.863281 388.011719 306.253906 403.113281 289.960938 C 404.90625 288.027344 402.011719 285.113281 400.214844 287.054688 C 384.339844 304.183594 362.425781 314.691406 339.417969 316.714844 C 348.328125 313.382812 356.632812 308.59375 364.398438 302.835938 C 366.5 301.277344 364.460938 297.714844 362.328125 299.285156 C 355.195312 304.574219 347.660156 309.007812 339.597656 312.222656 C 346.578125 305.742188 352.019531 296.898438 355.992188 289.164062 C 360.894531 279.613281 365.742188 270.644531 373.910156 263.453125 C 381.28125 256.953125 389.996094 252.035156 398.988281 248.101562 C 400.035156 253.550781 404.613281 258.339844 409.910156 260 C 409.871094 260.34375 409.890625 260.703125 410.046875 261.078125 C 419.265625 282.890625 403.359375 304.796875 383.714844 313.328125 Z M 425.601562 246.433594 C 424.503906 247.492188 423.453125 248.675781 422.402344 249.867188 C 422.117188 249.710938 421.808594 249.601562 421.453125 249.605469 C 421.113281 249.609375 420.769531 249.601562 420.429688 249.574219 C 420.304688 249.566406 420.179688 249.546875 420.054688 249.535156 C 419.996094 249.523438 419.933594 249.515625 419.875 249.503906 C 419.261719 249.398438 418.65625 249.242188 418.066406 249.035156 C 417.929688 248.988281 417.800781 248.9375 417.664062 248.890625 C 417.601562 248.867188 417.605469 248.871094 417.582031 248.863281 C 417.5625 248.855469 417.570312 248.855469 417.523438 248.835938 C 417.214844 248.691406 416.910156 248.542969 416.605469 248.378906 C 416.074219 248.085938 415.5625 247.75 415.074219 247.386719 C 415.042969 247.359375 415.015625 247.339844 414.976562 247.300781 C 414.84375 247.195312 414.71875 247.078125 414.585938 246.96875 C 414.351562 246.757812 414.128906 246.542969 413.910156 246.316406 C 413.691406 246.085938 413.484375 245.855469 413.285156 245.613281 C 413.246094 245.566406 413.207031 245.523438 413.175781 245.472656 C 413.09375 245.367188 413.015625 245.253906 412.9375 245.144531 C 412.578125 244.628906 412.261719 244.089844 411.996094 243.527344 C 411.949219 243.433594 411.894531 243.296875 411.878906 243.269531 C 411.832031 243.152344 411.789062 243.035156 411.746094 242.914062 C 411.632812 242.589844 411.53125 242.265625 411.449219 241.933594 C 411.175781 240.894531 409.972656 240.160156 408.925781 240.5 C 407.851562 240.847656 407.199219 241.910156 407.496094 243.023438 C 408.894531 248.382812 413.597656 252.527344 418.976562 253.492188 C 418.457031 253.988281 417.9375 254.492188 417.386719 254.925781 C 413.039062 258.347656 407.125 255.128906 404.464844 250.890625 C 401.894531 246.808594 403.054688 242.578125 404.980469 238.519531 C 408.136719 231.871094 412.390625 225.714844 415.875 219.226562 C 422.699219 206.511719 430.074219 194.089844 437.925781 181.988281 C 440.257812 195.40625 449.910156 206.617188 463.019531 210.640625 C 462.328125 211.386719 461.613281 212.128906 460.921875 212.882812 C 450.78125 211.191406 441.847656 203.988281 438.421875 194.214844 C 437.550781 191.738281 433.585938 192.804688 434.46875 195.304688 C 438.097656 205.648438 447.046875 213.765625 457.683594 216.335938 C 456.625 217.449219 455.605469 218.59375 454.535156 219.699219 C 448.320312 226.027344 441.652344 231.863281 435.039062 237.761719 C 431.847656 240.609375 428.679688 243.472656 425.601562 246.433594 Z M 574.671875 46.4375 C 574.796875 47.824219 574.0625 49.4375 573.585938 50.722656 C 570.59375 58.734375 564.804688 66.011719 560.46875 73.347656 C 550.925781 89.488281 541.164062 105.507812 530.964844 121.246094 C 511.429688 151.40625 490.226562 180.546875 466.152344 207.226562 C 452.390625 203.855469 442.238281 191.875 441.507812 177.621094 C 441.492188 177.335938 441.410156 177.09375 441.3125 176.871094 C 452.5 160.070312 464.613281 143.890625 477.664062 128.496094 C 500.457031 101.589844 526.277344 76.855469 552.972656 53.851562 C 556.535156 50.773438 560.183594 47.792969 563.980469 44.996094 C 565.320312 44.011719 567.609375 41.75 569.285156 41.710938 C 570.207031 42.292969 571.136719 42.878906 572.058594 43.460938 C 574.378906 43.761719 575.253906 44.753906 574.671875 46.4375 Z M 574.671875 46.4375 " fill-opacity="1" fill-rule="nonzero"/><path fill="#0d3749" d="M 510.664062 134.90625 C 497.242188 154.472656 482.550781 173.121094 466.667969 190.746094 C 464.90625 192.707031 467.800781 195.621094 469.570312 193.648438 C 485.675781 175.769531 500.585938 156.832031 514.199219 136.980469 C 515.703125 134.800781 512.148438 132.742188 510.664062 134.90625 Z M 510.664062 134.90625 " fill-opacity="1" fill-rule="nonzero"/><path fill="#0d3749" d="M 535.710938 102.664062 C 534.660156 102.050781 533.570312 102.507812 532.902344 103.402344 C 528.820312 108.890625 524.726562 114.371094 520.636719 119.855469 C 519.972656 120.75 520.496094 122.152344 521.375 122.667969 C 522.425781 123.277344 523.519531 122.824219 524.183594 121.925781 C 528.269531 116.445312 532.363281 110.960938 536.445312 105.472656 C 537.105469 104.582031 536.589844 103.179688 535.710938 102.664062 Z M 535.710938 102.664062 " fill-opacity="1" fill-rule="nonzero"/><path fill="#ebe6e4" d="M 449.359375 181.488281 C 448.433594 182.828125 447.472656 184.328125 447.636719 185.953125 C 447.925781 188.898438 451.898438 190.203125 454.605469 189.007812 C 457.316406 187.808594 458.980469 185.101562 460.550781 182.589844 C 479 153.085938 508.324219 127.28125 525.4375 96.984375 C 524.574219 91.070312 515.113281 102.324219 513.449219 103.925781 C 510.90625 106.363281 509.105469 109.714844 506.726562 112.355469 C 500.035156 119.773438 492.851562 126.734375 486.238281 134.242188 C 473.019531 149.238281 460.695312 165.027344 449.359375 181.488281 Z M 449.359375 181.488281 " fill-opacity="1" fill-rule="nonzero"/><g fill="#000000" fill-opacity="1"><g transform="translate(229.629709, 458.086369)"><g><path d="M 16.921875 0 L 1.359375 -46.328125 L 11.3125 -46.328125 L 22.15625 -11.3125 L 33.5625 -46.328125 L 41.890625 -46.328125 L 53.296875 -11.609375 L 64.03125 -46.328125 L 74 -46.328125 L 58.421875 0 L 48.171875 0 L 38.5 -28.34375 L 37.71875 -32.796875 L 36.953125 -28.34375 L 27.375 0 Z M 16.921875 0 "/></g></g></g><g fill="#000000" fill-opacity="1"><g transform="translate(304.690597, 458.086369)"><g><path d="M 14.796875 0 L 5.421875 0 L 5.421875 -70.609375 L 14.796875 -70.609375 L 14.796875 -42.078125 C 16.535156 -44.015625 18.359375 -45.382812 20.265625 -46.1875 C 22.171875 -47 24.378906 -47.40625 26.890625 -47.40625 C 30.117188 -47.40625 33.003906 -46.773438 35.546875 -45.515625 C 38.097656 -44.253906 40.273438 -42.523438 42.078125 -40.328125 C 43.878906 -38.140625 45.25 -35.5625 46.1875 -32.59375 C 47.125 -29.632812 47.59375 -26.476562 47.59375 -23.125 L 47.59375 0 L 38.109375 0 L 38.109375 -23.125 C 38.109375 -25.3125 37.800781 -27.375 37.1875 -29.3125 C 36.582031 -31.25 35.742188 -32.925781 34.671875 -34.34375 C 33.609375 -35.757812 32.382812 -36.867188 31 -37.671875 C 29.613281 -38.484375 28.113281 -38.890625 26.5 -38.890625 C 25.144531 -38.890625 23.789062 -38.613281 22.4375 -38.0625 C 21.082031 -37.519531 19.84375 -36.632812 18.71875 -35.40625 C 17.59375 -34.175781 16.65625 -32.5625 15.90625 -30.5625 C 15.164062 -28.5625 14.796875 -26.144531 14.796875 -23.3125 Z M 14.796875 0 "/></g></g></g><g fill="#000000" fill-opacity="1"><g transform="translate(357.117143, 458.086369)"><g><path d="M 25.734375 1.15625 C 22.503906 1.15625 19.488281 0.53125 16.6875 -0.71875 C 13.882812 -1.976562 11.429688 -3.703125 9.328125 -5.890625 C 7.234375 -8.085938 5.570312 -10.671875 4.34375 -13.640625 C 3.125 -16.609375 2.515625 -19.769531 2.515625 -23.125 C 2.515625 -26.476562 3.125 -29.632812 4.34375 -32.59375 C 5.570312 -35.5625 7.234375 -38.140625 9.328125 -40.328125 C 11.429688 -42.523438 13.882812 -44.253906 16.6875 -45.515625 C 19.488281 -46.773438 22.503906 -47.40625 25.734375 -47.40625 C 28.890625 -47.40625 31.882812 -46.773438 34.71875 -45.515625 C 37.5625 -44.253906 40.03125 -42.523438 42.125 -40.328125 C 44.21875 -38.140625 45.878906 -35.5625 47.109375 -32.59375 C 48.335938 -29.632812 48.953125 -26.476562 48.953125 -23.125 C 48.953125 -19.769531 48.335938 -16.609375 47.109375 -13.640625 C 45.878906 -10.671875 44.21875 -8.085938 42.125 -5.890625 C 40.03125 -3.703125 37.5625 -1.976562 34.71875 -0.71875 C 31.882812 0.53125 28.890625 1.15625 25.734375 1.15625 Z M 25.734375 -38.984375 C 23.859375 -38.984375 22.082031 -38.5625 20.40625 -37.71875 C 18.726562 -36.882812 17.257812 -35.757812 16 -34.34375 C 14.75 -32.925781 13.769531 -31.25 13.0625 -29.3125 C 12.351562 -27.375 12 -25.3125 12 -23.125 C 12 -20.925781 12.351562 -18.859375 13.0625 -16.921875 C 13.769531 -14.992188 14.75 -13.300781 16 -11.84375 C 17.257812 -10.394531 18.726562 -9.25 20.40625 -8.40625 C 22.082031 -7.570312 23.859375 -7.15625 25.734375 -7.15625 C 27.597656 -7.15625 29.367188 -7.570312 31.046875 -8.40625 C 32.722656 -9.25 34.175781 -10.394531 35.40625 -11.84375 C 36.632812 -13.300781 37.601562 -14.992188 38.3125 -16.921875 C 39.019531 -18.859375 39.375 -20.925781 39.375 -23.125 C 39.375 -25.3125 39.019531 -27.375 38.3125 -29.3125 C 37.601562 -31.25 36.632812 -32.925781 35.40625 -34.34375 C 34.175781 -35.757812 32.722656 -36.882812 31.046875 -37.71875 C 29.367188 -38.5625 27.597656 -38.984375 25.734375 -38.984375 Z M 25.734375 -38.984375 "/></g></g></g><g fill="#000000" fill-opacity="1"><g transform="translate(408.189504, 458.086369)"><g><path d="M 25.734375 1.15625 C 22.503906 1.15625 19.488281 0.53125 16.6875 -0.71875 C 13.882812 -1.976562 11.429688 -3.703125 9.328125 -5.890625 C 7.234375 -8.085938 5.570312 -10.671875 4.34375 -13.640625 C 3.125 -16.609375 2.515625 -19.769531 2.515625 -23.125 C 2.515625 -26.476562 3.125 -29.632812 4.34375 -32.59375 C 5.570312 -35.5625 7.234375 -38.140625 9.328125 -40.328125 C 11.429688 -42.523438 13.882812 -44.253906 16.6875 -45.515625 C 19.488281 -46.773438 22.503906 -47.40625 25.734375 -47.40625 C 28.890625 -47.40625 31.882812 -46.773438 34.71875 -45.515625 C 37.5625 -44.253906 40.03125 -42.523438 42.125 -40.328125 C 44.21875 -38.140625 45.878906 -35.5625 47.109375 -32.59375 C 48.335938 -29.632812 48.953125 -26.476562 48.953125 -23.125 C 48.953125 -19.769531 48.335938 -16.609375 47.109375 -13.640625 C 45.878906 -10.671875 44.21875 -8.085938 42.125 -5.890625 C 40.03125 -3.703125 37.5625 -1.976562 34.71875 -0.71875 C 31.882812 0.53125 28.890625 1.15625 25.734375 1.15625 Z M 25.734375 -38.984375 C 23.859375 -38.984375 22.082031 -38.5625 20.40625 -37.71875 C 18.726562 -36.882812 17.257812 -35.757812 16 -34.34375 C 14.75 -32.925781 13.769531 -31.25 13.0625 -29.3125 C 12.351562 -27.375 12 -25.3125 12 -23.125 C 12 -20.925781 12.351562 -18.859375 13.0625 -16.921875 C 13.769531 -14.992188 14.75 -13.300781 16 -11.84375 C 17.257812 -10.394531 18.726562 -9.25 20.40625 -8.40625 C 22.082031 -7.570312 23.859375 -7.15625 25.734375 -7.15625 C 27.597656 -7.15625 29.367188 -7.570312 31.046875 -8.40625 C 32.722656 -9.25 34.175781 -10.394531 35.40625 -11.84375 C 36.632812 -13.300781 37.601562 -14.992188 38.3125 -16.921875 C 39.019531 -18.859375 39.375 -20.925781 39.375 -23.125 C 39.375 -25.3125 39.019531 -27.375 38.3125 -29.3125 C 37.601562 -31.25 36.632812 -32.925781 35.40625 -34.34375 C 34.175781 -35.757812 32.722656 -36.882812 31.046875 -37.71875 C 29.367188 -38.5625 27.597656 -38.984375 25.734375 -38.984375 Z M 25.734375 -38.984375 "/></g></g></g><g fill="#000000" fill-opacity="1"><g transform="translate(459.261855, 458.086369)"><g><path d="M 5.421875 19.15625 L 5.421875 -46.328125 L 12.859375 -46.328125 L 14.796875 -41.5 C 16.671875 -43.363281 18.816406 -44.8125 21.234375 -45.84375 C 23.648438 -46.882812 26.375 -47.40625 29.40625 -47.40625 C 32.632812 -47.40625 35.617188 -46.773438 38.359375 -45.515625 C 41.097656 -44.253906 43.46875 -42.523438 45.46875 -40.328125 C 47.46875 -38.140625 49.03125 -35.5625 50.15625 -32.59375 C 51.28125 -29.632812 51.84375 -26.476562 51.84375 -23.125 C 51.84375 -19.769531 51.28125 -16.609375 50.15625 -13.640625 C 49.03125 -10.671875 47.46875 -8.085938 45.46875 -5.890625 C 43.46875 -3.703125 41.097656 -1.976562 38.359375 -0.71875 C 35.617188 0.53125 32.632812 1.15625 29.40625 1.15625 C 26.25 1.15625 23.476562 0.625 21.09375 -0.4375 C 18.707031 -1.5 16.609375 -3.03125 14.796875 -5.03125 L 14.796875 19.15625 Z M 28.640625 -38.890625 C 26.765625 -38.890625 24.988281 -38.582031 23.3125 -37.96875 C 21.632812 -37.351562 20.164062 -36.382812 18.90625 -35.0625 C 17.65625 -33.738281 16.671875 -32.09375 15.953125 -30.125 C 15.242188 -28.164062 14.890625 -25.832031 14.890625 -23.125 C 14.890625 -20.21875 15.242188 -17.75 15.953125 -15.71875 C 16.671875 -13.6875 17.65625 -12.039062 18.90625 -10.78125 C 20.164062 -9.53125 21.632812 -8.613281 23.3125 -8.03125 C 24.988281 -7.445312 26.765625 -7.15625 28.640625 -7.15625 C 30.503906 -7.15625 32.273438 -7.570312 33.953125 -8.40625 C 35.628906 -9.25 37.078125 -10.394531 38.296875 -11.84375 C 39.523438 -13.300781 40.492188 -14.992188 41.203125 -16.921875 C 41.910156 -18.859375 42.265625 -20.925781 42.265625 -23.125 C 42.265625 -25.3125 41.910156 -27.375 41.203125 -29.3125 C 40.492188 -31.25 39.523438 -32.925781 38.296875 -34.34375 C 37.078125 -35.757812 35.628906 -36.867188 33.953125 -37.671875 C 32.273438 -38.484375 30.503906 -38.890625 28.640625 -38.890625 Z M 28.640625 -38.890625 "/></g></g></g><g fill="#000000" fill-opacity="1"><g transform="translate(513.816416, 458.086369)"><g><path d="M 26.984375 -9.671875 C 27.566406 -10.191406 28.082031 -10.769531 28.53125 -11.40625 C 28.988281 -12.050781 29.21875 -12.796875 29.21875 -13.640625 C 29.21875 -14.671875 28.84375 -15.539062 28.09375 -16.25 C 27.351562 -16.957031 26.453125 -17.550781 25.390625 -18.03125 C 24.328125 -18.519531 23.210938 -18.894531 22.046875 -19.15625 C 20.890625 -19.414062 19.925781 -19.640625 19.15625 -19.828125 C 17.03125 -20.347656 15.03125 -20.976562 13.15625 -21.71875 C 11.28125 -22.457031 9.648438 -23.359375 8.265625 -24.421875 C 6.878906 -25.484375 5.78125 -26.738281 4.96875 -28.1875 C 4.164062 -29.644531 3.765625 -31.375 3.765625 -33.375 C 3.765625 -35.238281 4.21875 -36.992188 5.125 -38.640625 C 6.03125 -40.285156 7.238281 -41.738281 8.75 -43 C 10.269531 -44.257812 12.046875 -45.257812 14.078125 -46 C 16.109375 -46.738281 18.25 -47.109375 20.5 -47.109375 C 22.5 -47.109375 24.398438 -46.816406 26.203125 -46.234375 C 28.015625 -45.660156 29.644531 -44.875 31.09375 -43.875 C 32.550781 -42.875 33.78125 -41.660156 34.78125 -40.234375 C 35.78125 -38.816406 36.441406 -37.238281 36.765625 -35.5 L 28.34375 -33.46875 C 27.957031 -35.019531 27.117188 -36.3125 25.828125 -37.34375 C 24.535156 -38.375 22.757812 -38.890625 20.5 -38.890625 C 19.726562 -38.890625 18.921875 -38.773438 18.078125 -38.546875 C 17.242188 -38.316406 16.472656 -37.976562 15.765625 -37.53125 C 15.054688 -37.082031 14.457031 -36.535156 13.96875 -35.890625 C 13.488281 -35.242188 13.25 -34.5 13.25 -33.65625 C 13.25 -32.757812 13.519531 -31.988281 14.0625 -31.34375 C 14.613281 -30.695312 15.273438 -30.160156 16.046875 -29.734375 C 16.828125 -29.316406 17.664062 -28.976562 18.5625 -28.71875 C 19.46875 -28.46875 20.3125 -28.242188 21.09375 -28.046875 C 24.507812 -27.210938 27.34375 -26.3125 29.59375 -25.34375 C 31.851562 -24.375 33.660156 -23.304688 35.015625 -22.140625 C 36.367188 -20.984375 37.316406 -19.710938 37.859375 -18.328125 C 38.410156 -16.941406 38.6875 -15.378906 38.6875 -13.640625 C 38.6875 -11.578125 38.21875 -9.640625 37.28125 -7.828125 C 36.351562 -6.023438 35.066406 -4.460938 33.421875 -3.140625 C 31.773438 -1.816406 29.804688 -0.785156 27.515625 -0.046875 C 25.234375 0.691406 22.769531 1.0625 20.125 1.0625 C 16.125 1.0625 12.554688 0.078125 9.421875 -1.890625 C 6.296875 -3.859375 4.1875 -6.484375 3.09375 -9.765625 L 11.03125 -13.34375 C 12.0625 -11.09375 13.378906 -9.5625 14.984375 -8.75 C 16.597656 -7.945312 18.4375 -7.546875 20.5 -7.546875 C 23.082031 -7.546875 25.242188 -8.253906 26.984375 -9.671875 Z M 26.984375 -9.671875 "/></g></g></g><g fill="#000000" fill-opacity="1"><g transform="translate(555.409434, 458.086369)"><g><path d="M 8.421875 -15.859375 L 7.15625 -68.578125 L 18.09375 -68.578125 L 16.921875 -15.859375 Z M 12.671875 0.96875 C 10.992188 0.96875 9.554688 0.390625 8.359375 -0.765625 C 7.171875 -1.929688 6.578125 -3.351562 6.578125 -5.03125 C 6.578125 -6.707031 7.171875 -8.140625 8.359375 -9.328125 C 9.554688 -10.523438 10.992188 -11.125 12.671875 -11.125 C 14.347656 -11.125 15.765625 -10.523438 16.921875 -9.328125 C 18.085938 -8.140625 18.671875 -6.707031 18.671875 -5.03125 C 18.671875 -3.351562 18.085938 -1.929688 16.921875 -0.765625 C 15.765625 0.390625 14.347656 0.96875 12.671875 0.96875 Z M 12.671875 0.96875 "/></g></g></g><g fill="#000000" fill-opacity="1"><g transform="translate(216.232466, 559.650643)"><g><path d="M 5.421875 19.15625 L 5.421875 -46.328125 L 12.859375 -46.328125 L 14.796875 -41.5 C 16.671875 -43.363281 18.816406 -44.8125 21.234375 -45.84375 C 23.648438 -46.882812 26.375 -47.40625 29.40625 -47.40625 C 32.632812 -47.40625 35.617188 -46.773438 38.359375 -45.515625 C 41.097656 -44.253906 43.46875 -42.523438 45.46875 -40.328125 C 47.46875 -38.140625 49.03125 -35.5625 50.15625 -32.59375 C 51.28125 -29.632812 51.84375 -26.476562 51.84375 -23.125 C 51.84375 -19.769531 51.28125 -16.609375 50.15625 -13.640625 C 49.03125 -10.671875 47.46875 -8.085938 45.46875 -5.890625 C 43.46875 -3.703125 41.097656 -1.976562 38.359375 -0.71875 C 35.617188 0.53125 32.632812 1.15625 29.40625 1.15625 C 26.25 1.15625 23.476562 0.625 21.09375 -0.4375 C 18.707031 -1.5 16.609375 -3.03125 14.796875 -5.03125 L 14.796875 19.15625 Z M 28.640625 -38.890625 C 26.765625 -38.890625 24.988281 -38.582031 23.3125 -37.96875 C 21.632812 -37.351562 20.164062 -36.382812 18.90625 -35.0625 C 17.65625 -33.738281 16.671875 -32.09375 15.953125 -30.125 C 15.242188 -28.164062 14.890625 -25.832031 14.890625 -23.125 C 14.890625 -20.21875 15.242188 -17.75 15.953125 -15.71875 C 16.671875 -13.6875 17.65625 -12.039062 18.90625 -10.78125 C 20.164062 -9.53125 21.632812 -8.613281 23.3125 -8.03125 C 24.988281 -7.445312 26.765625 -7.15625 28.640625 -7.15625 C 30.503906 -7.15625 32.273438 -7.570312 33.953125 -8.40625 C 35.628906 -9.25 37.078125 -10.394531 38.296875 -11.84375 C 39.523438 -13.300781 40.492188 -14.992188 41.203125 -16.921875 C 41.910156 -18.859375 42.265625 -20.925781 42.265625 -23.125 C 42.265625 -25.3125 41.910156 -27.375 41.203125 -29.3125 C 40.492188 -31.25 39.523438 -32.925781 38.296875 -34.34375 C 37.078125 -35.757812 35.628906 -36.867188 33.953125 -37.671875 C 32.273438 -38.484375 30.503906 -38.890625 28.640625 -38.890625 Z M 28.640625 -38.890625 "/></g></g></g><g fill="#000000" fill-opacity="1"><g transform="translate(270.787026, 559.650643)"><g><path d="M 49.328125 -46.328125 L 49.328125 0 L 41.40625 0 L 39.953125 -5.328125 C 38.335938 -3.191406 36.269531 -1.578125 33.75 -0.484375 C 31.238281 0.609375 28.695312 1.15625 26.125 1.15625 C 22.894531 1.15625 19.875 0.53125 17.0625 -0.71875 C 14.257812 -1.976562 11.8125 -3.703125 9.71875 -5.890625 C 7.625 -8.085938 5.960938 -10.671875 4.734375 -13.640625 C 3.515625 -16.609375 2.90625 -19.769531 2.90625 -23.125 C 2.90625 -26.476562 3.515625 -29.632812 4.734375 -32.59375 C 5.960938 -35.5625 7.625 -38.140625 9.71875 -40.328125 C 11.8125 -42.523438 14.257812 -44.253906 17.0625 -45.515625 C 19.875 -46.773438 22.894531 -47.40625 26.125 -47.40625 C 28.695312 -47.40625 31.175781 -46.90625 33.5625 -45.90625 C 35.945312 -44.90625 38.078125 -43.335938 39.953125 -41.203125 L 41.40625 -46.328125 Z M 26.125 -7.15625 C 27.988281 -7.15625 29.757812 -7.570312 31.4375 -8.40625 C 33.113281 -9.25 34.5625 -10.394531 35.78125 -11.84375 C 37.007812 -13.300781 37.976562 -14.992188 38.6875 -16.921875 C 39.394531 -18.859375 39.75 -20.925781 39.75 -23.125 C 39.75 -25.3125 39.394531 -27.375 38.6875 -29.3125 C 37.976562 -31.25 37.007812 -32.941406 35.78125 -34.390625 C 34.5625 -35.835938 33.113281 -36.976562 31.4375 -37.8125 C 29.757812 -38.65625 27.988281 -39.078125 26.125 -39.078125 C 24.25 -39.078125 22.472656 -38.65625 20.796875 -37.8125 C 19.117188 -36.976562 17.664062 -35.835938 16.4375 -34.390625 C 15.21875 -32.941406 14.253906 -31.25 13.546875 -29.3125 C 12.835938 -27.375 12.484375 -25.3125 12.484375 -23.125 C 12.484375 -20.925781 12.835938 -18.859375 13.546875 -16.921875 C 14.253906 -14.992188 15.21875 -13.300781 16.4375 -11.84375 C 17.664062 -10.394531 19.117188 -9.25 20.796875 -8.40625 C 22.472656 -7.570312 24.25 -7.15625 26.125 -7.15625 Z M 26.125 -7.15625 "/></g></g></g><g fill="#000000" fill-opacity="1"><g transform="translate(324.277585, 559.650643)"><g><path d="M 26.5 -2.328125 C 23.28125 -2.328125 20.316406 -2.921875 17.609375 -4.109375 C 14.898438 -5.304688 12.546875 -6.953125 10.546875 -9.046875 C 8.546875 -11.140625 6.976562 -13.554688 5.84375 -16.296875 C 4.71875 -19.035156 4.15625 -21.953125 4.15625 -25.046875 C 4.15625 -28.148438 4.71875 -31.054688 5.84375 -33.765625 C 6.976562 -36.472656 8.546875 -38.84375 10.546875 -40.875 C 12.546875 -42.90625 14.898438 -44.5 17.609375 -45.65625 C 20.316406 -46.820312 23.28125 -47.40625 26.5 -47.40625 C 29.726562 -47.40625 32.535156 -46.921875 34.921875 -45.953125 C 37.304688 -44.984375 39.398438 -43.597656 41.203125 -41.796875 L 43.140625 -46.328125 L 50.5 -46.328125 C 50.5 -46.140625 50.5 -45.898438 50.5 -45.609375 C 50.5 -45.316406 50.5 -44.75 50.5 -43.90625 C 50.5 -43.070312 50.5 -41.878906 50.5 -40.328125 C 50.5 -38.785156 50.5 -36.660156 50.5 -33.953125 C 50.5 -31.242188 50.515625 -27.859375 50.546875 -23.796875 C 50.578125 -19.734375 50.59375 -14.800781 50.59375 -9 C 50.59375 -7.0625 50.523438 -5.171875 50.390625 -3.328125 C 50.265625 -1.492188 49.992188 0.273438 49.578125 1.984375 C 49.160156 3.691406 48.546875 5.332031 47.734375 6.90625 C 46.929688 8.488281 45.851562 10.023438 44.5 11.515625 C 41.914062 14.222656 38.992188 16.039062 35.734375 16.96875 C 32.484375 17.90625 29.050781 18.375 25.4375 18.375 C 22.34375 18.375 19.425781 17.988281 16.6875 17.21875 C 13.945312 16.445312 11.476562 15.414062 9.28125 14.125 L 9.28125 3.671875 C 10.570312 5.546875 12.585938 7.0625 15.328125 8.21875 C 18.066406 9.382812 21.179688 9.96875 24.671875 9.96875 C 26.992188 9.96875 29.148438 9.660156 31.140625 9.046875 C 33.140625 8.429688 34.878906 7.492188 36.359375 6.234375 C 37.847656 4.984375 39.023438 3.359375 39.890625 1.359375 C 40.765625 -0.640625 41.203125 -3.023438 41.203125 -5.796875 L 41.203125 -7.640625 C 40.429688 -6.929688 39.476562 -6.253906 38.34375 -5.609375 C 37.21875 -4.960938 35.992188 -4.394531 34.671875 -3.90625 C 33.359375 -3.425781 31.988281 -3.039062 30.5625 -2.75 C 29.144531 -2.46875 27.789062 -2.328125 26.5 -2.328125 Z M 27.375 -38.890625 C 25.507812 -38.890625 23.738281 -38.535156 22.0625 -37.828125 C 20.382812 -37.117188 18.914062 -36.132812 17.65625 -34.875 C 16.394531 -33.613281 15.410156 -32.144531 14.703125 -30.46875 C 13.992188 -28.789062 13.640625 -26.984375 13.640625 -25.046875 C 13.640625 -23.117188 13.992188 -21.300781 14.703125 -19.59375 C 15.410156 -17.882812 16.394531 -16.398438 17.65625 -15.140625 C 18.914062 -13.878906 20.382812 -12.878906 22.0625 -12.140625 C 23.738281 -11.398438 25.507812 -11.03125 27.375 -11.03125 C 29.25 -11.03125 31.023438 -11.316406 32.703125 -11.890625 C 34.378906 -12.472656 35.828125 -13.34375 37.046875 -14.5 C 38.273438 -15.664062 39.242188 -17.117188 39.953125 -18.859375 C 40.660156 -20.597656 41.015625 -22.660156 41.015625 -25.046875 C 41.015625 -27.566406 40.660156 -29.710938 39.953125 -31.484375 C 39.242188 -33.253906 38.273438 -34.6875 37.046875 -35.78125 C 35.828125 -36.882812 34.378906 -37.675781 32.703125 -38.15625 C 31.023438 -38.644531 29.25 -38.890625 27.375 -38.890625 Z M 27.375 -38.890625 "/></g></g></g><g fill="#000000" fill-opacity="1"><g transform="translate(381.443808, 559.650643)"><g><path d="M 27.375 1.15625 C 24.019531 1.15625 20.875 0.53125 17.9375 -0.71875 C 15.007812 -1.976562 12.445312 -3.703125 10.25 -5.890625 C 8.0625 -8.085938 6.335938 -10.671875 5.078125 -13.640625 C 3.816406 -16.609375 3.1875 -19.769531 3.1875 -23.125 C 3.1875 -26.476562 3.78125 -29.632812 4.96875 -32.59375 C 6.164062 -35.5625 7.78125 -38.140625 9.8125 -40.328125 C 11.84375 -42.523438 14.210938 -44.253906 16.921875 -45.515625 C 19.628906 -46.773438 22.535156 -47.40625 25.640625 -47.40625 C 28.796875 -47.40625 31.710938 -46.851562 34.390625 -45.75 C 37.066406 -44.65625 39.382812 -42.945312 41.34375 -40.625 C 43.3125 -38.300781 44.84375 -35.347656 45.9375 -31.765625 C 47.039062 -28.191406 47.59375 -23.921875 47.59375 -18.953125 L 13.15625 -18.953125 C 13.601562 -17.273438 14.3125 -15.710938 15.28125 -14.265625 C 16.25 -12.816406 17.394531 -11.5625 18.71875 -10.5 C 20.039062 -9.4375 21.523438 -8.613281 23.171875 -8.03125 C 24.816406 -7.445312 26.539062 -7.15625 28.34375 -7.15625 C 30.789062 -7.15625 33.0625 -7.601562 35.15625 -8.5 C 37.257812 -9.40625 39.050781 -10.601562 40.53125 -12.09375 L 46.328125 -6.28125 C 44.078125 -4.03125 41.320312 -2.226562 38.0625 -0.875 C 34.8125 0.476562 31.25 1.15625 27.375 1.15625 Z M 25.640625 -38.890625 C 24.148438 -38.890625 22.742188 -38.597656 21.421875 -38.015625 C 20.097656 -37.429688 18.875 -36.625 17.75 -35.59375 C 16.625 -34.5625 15.65625 -33.335938 14.84375 -31.921875 C 14.039062 -30.503906 13.445312 -28.957031 13.0625 -27.28125 L 37.53125 -27.28125 C 37.40625 -28.820312 37.050781 -30.300781 36.46875 -31.71875 C 35.882812 -33.144531 35.078125 -34.390625 34.046875 -35.453125 C 33.015625 -36.515625 31.804688 -37.351562 30.421875 -37.96875 C 29.035156 -38.582031 27.441406 -38.890625 25.640625 -38.890625 Z M 25.640625 -38.890625 "/></g></g></g><g fill="#000000" fill-opacity="1"><g transform="translate(432.709635, 559.650643)"><g/></g></g><g fill="#000000" fill-opacity="1"><g transform="translate(457.955639, 559.650643)"><g><path d="M 14.609375 0 L 5.21875 0 L 5.21875 -46.328125 L 12.671875 -46.328125 L 14.609375 -42.265625 C 16.148438 -43.753906 18.015625 -44.984375 20.203125 -45.953125 C 22.398438 -46.921875 24.789062 -47.40625 27.375 -47.40625 C 29.050781 -47.40625 30.953125 -47.144531 33.078125 -46.625 C 35.210938 -46.113281 37.195312 -45.144531 39.03125 -43.71875 C 40.875 -42.300781 42.421875 -40.332031 43.671875 -37.8125 C 44.929688 -35.300781 45.5625 -32.046875 45.5625 -28.046875 L 45.5625 0 L 36.65625 0 L 36.65625 -28.15625 C 36.65625 -30.15625 36.347656 -31.847656 35.734375 -33.234375 C 35.128906 -34.617188 34.328125 -35.726562 33.328125 -36.5625 C 32.328125 -37.40625 31.195312 -38.003906 29.9375 -38.359375 C 28.675781 -38.710938 27.367188 -38.890625 26.015625 -38.890625 C 24.984375 -38.890625 23.804688 -38.691406 22.484375 -38.296875 C 21.160156 -37.910156 19.921875 -37.28125 18.765625 -36.40625 C 17.609375 -35.539062 16.625 -34.445312 15.8125 -33.125 C 15.007812 -31.8125 14.609375 -30.1875 14.609375 -28.25 Z M 14.609375 0 "/></g></g></g><g fill="#000000" fill-opacity="1"><g transform="translate(509.608376, 559.650643)"><g><path d="M 25.734375 1.15625 C 22.503906 1.15625 19.488281 0.53125 16.6875 -0.71875 C 13.882812 -1.976562 11.429688 -3.703125 9.328125 -5.890625 C 7.234375 -8.085938 5.570312 -10.671875 4.34375 -13.640625 C 3.125 -16.609375 2.515625 -19.769531 2.515625 -23.125 C 2.515625 -26.476562 3.125 -29.632812 4.34375 -32.59375 C 5.570312 -35.5625 7.234375 -38.140625 9.328125 -40.328125 C 11.429688 -42.523438 13.882812 -44.253906 16.6875 -45.515625 C 19.488281 -46.773438 22.503906 -47.40625 25.734375 -47.40625 C 28.890625 -47.40625 31.882812 -46.773438 34.71875 -45.515625 C 37.5625 -44.253906 40.03125 -42.523438 42.125 -40.328125 C 44.21875 -38.140625 45.878906 -35.5625 47.109375 -32.59375 C 48.335938 -29.632812 48.953125 -26.476562 48.953125 -23.125 C 48.953125 -19.769531 48.335938 -16.609375 47.109375 -13.640625 C 45.878906 -10.671875 44.21875 -8.085938 42.125 -5.890625 C 40.03125 -3.703125 37.5625 -1.976562 34.71875 -0.71875 C 31.882812 0.53125 28.890625 1.15625 25.734375 1.15625 Z M 25.734375 -38.984375 C 23.859375 -38.984375 22.082031 -38.5625 20.40625 -37.71875 C 18.726562 -36.882812 17.257812 -35.757812 16 -34.34375 C 14.75 -32.925781 13.769531 -31.25 13.0625 -29.3125 C 12.351562 -27.375 12 -25.3125 12 -23.125 C 12 -20.925781 12.351562 -18.859375 13.0625 -16.921875 C 13.769531 -14.992188 14.75 -13.300781 16 -11.84375 C 17.257812 -10.394531 18.726562 -9.25 20.40625 -8.40625 C 22.082031 -7.570312 23.859375 -7.15625 25.734375 -7.15625 C 27.597656 -7.15625 29.367188 -7.570312 31.046875 -8.40625 C 32.722656 -9.25 34.175781 -10.394531 35.40625 -11.84375 C 36.632812 -13.300781 37.601562 -14.992188 38.3125 -16.921875 C 39.019531 -18.859375 39.375 -20.925781 39.375 -23.125 C 39.375 -25.3125 39.019531 -27.375 38.3125 -29.3125 C 37.601562 -31.25 36.632812 -32.925781 35.40625 -34.34375 C 34.175781 -35.757812 32.722656 -36.882812 31.046875 -37.71875 C 29.367188 -38.5625 27.597656 -38.984375 25.734375 -38.984375 Z M 25.734375 -38.984375 "/></g></g></g><g fill="#000000" fill-opacity="1"><g transform="translate(560.680727, 559.650643)"><g><path d="M 30.5625 -0.09375 C 27.925781 0.800781 25.316406 1.347656 22.734375 1.546875 C 20.148438 1.742188 17.828125 1.375 15.765625 0.4375 C 13.703125 -0.5 12.023438 -2.144531 10.734375 -4.5 C 9.441406 -6.851562 8.796875 -10.15625 8.796875 -14.40625 L 8.796875 -37.921875 L 2.03125 -37.921875 L 2.03125 -44.40625 L 8.796875 -46.328125 L 8.796875 -58.71875 L 18.1875 -58.71875 L 18.1875 -46.328125 L 30.765625 -46.328125 L 30.765625 -37.921875 L 18.1875 -37.921875 L 18.1875 -12.96875 C 18.1875 -11.414062 18.363281 -10.1875 18.71875 -9.28125 C 19.070312 -8.382812 19.664062 -7.707031 20.5 -7.25 C 21.34375 -6.800781 22.441406 -6.578125 23.796875 -6.578125 C 25.148438 -6.578125 26.796875 -6.707031 28.734375 -6.96875 Z M 30.5625 -0.09375 "/></g></g></g><g fill="#000000" fill-opacity="1"><g transform="translate(281.383443, 661.214917)"><g><path d="M 12.09375 0 L 12.09375 -37.921875 L 4.15625 -37.921875 L 4.15625 -44.40625 L 12.09375 -46.328125 L 12.09375 -51.953125 C 12.09375 -55.234375 12.507812 -58.082031 13.34375 -60.5 C 14.1875 -62.925781 15.332031 -64.910156 16.78125 -66.453125 C 18.226562 -68.003906 19.890625 -69.148438 21.765625 -69.890625 C 23.640625 -70.628906 25.640625 -71 27.765625 -71 C 30.410156 -71 33.085938 -70.453125 35.796875 -69.359375 L 35.796875 -62.484375 C 33.472656 -63.191406 31.472656 -63.546875 29.796875 -63.546875 C 27.148438 -63.546875 25.097656 -62.738281 23.640625 -61.125 C 22.191406 -59.519531 21.46875 -56.941406 21.46875 -53.390625 L 21.46875 -46.328125 L 35.796875 -46.328125 L 35.796875 -37.921875 L 21.46875 -37.921875 L 21.46875 0 Z M 12.09375 0 "/></g></g></g><g fill="#000000" fill-opacity="1"><g transform="translate(318.140067, 661.214917)"><g><path d="M 25.734375 1.15625 C 22.503906 1.15625 19.488281 0.53125 16.6875 -0.71875 C 13.882812 -1.976562 11.429688 -3.703125 9.328125 -5.890625 C 7.234375 -8.085938 5.570312 -10.671875 4.34375 -13.640625 C 3.125 -16.609375 2.515625 -19.769531 2.515625 -23.125 C 2.515625 -26.476562 3.125 -29.632812 4.34375 -32.59375 C 5.570312 -35.5625 7.234375 -38.140625 9.328125 -40.328125 C 11.429688 -42.523438 13.882812 -44.253906 16.6875 -45.515625 C 19.488281 -46.773438 22.503906 -47.40625 25.734375 -47.40625 C 28.890625 -47.40625 31.882812 -46.773438 34.71875 -45.515625 C 37.5625 -44.253906 40.03125 -42.523438 42.125 -40.328125 C 44.21875 -38.140625 45.878906 -35.5625 47.109375 -32.59375 C 48.335938 -29.632812 48.953125 -26.476562 48.953125 -23.125 C 48.953125 -19.769531 48.335938 -16.609375 47.109375 -13.640625 C 45.878906 -10.671875 44.21875 -8.085938 42.125 -5.890625 C 40.03125 -3.703125 37.5625 -1.976562 34.71875 -0.71875 C 31.882812 0.53125 28.890625 1.15625 25.734375 1.15625 Z M 25.734375 -38.984375 C 23.859375 -38.984375 22.082031 -38.5625 20.40625 -37.71875 C 18.726562 -36.882812 17.257812 -35.757812 16 -34.34375 C 14.75 -32.925781 13.769531 -31.25 13.0625 -29.3125 C 12.351562 -27.375 12 -25.3125 12 -23.125 C 12 -20.925781 12.351562 -18.859375 13.0625 -16.921875 C 13.769531 -14.992188 14.75 -13.300781 16 -11.84375 C 17.257812 -10.394531 18.726562 -9.25 20.40625 -8.40625 C 22.082031 -7.570312 23.859375 -7.15625 25.734375 -7.15625 C 27.597656 -7.15625 29.367188 -7.570312 31.046875 -8.40625 C 32.722656 -9.25 34.175781 -10.394531 35.40625 -11.84375 C 36.632812 -13.300781 37.601562 -14.992188 38.3125 -16.921875 C 39.019531 -18.859375 39.375 -20.925781 39.375 -23.125 C 39.375 -25.3125 39.019531 -27.375 38.3125 -29.3125 C 37.601562 -31.25 36.632812 -32.925781 35.40625 -34.34375 C 34.175781 -35.757812 32.722656 -36.882812 31.046875 -37.71875 C 29.367188 -38.5625 27.597656 -38.984375 25.734375 -38.984375 Z M 25.734375 -38.984375 "/></g></g></g><g fill="#000000" fill-opacity="1"><g transform="translate(369.212429, 661.214917)"><g><path d="M 36.765625 -4.15625 C 35.148438 -2.675781 33.257812 -1.453125 31.09375 -0.484375 C 28.9375 0.484375 26.535156 0.96875 23.890625 0.96875 C 22.210938 0.96875 20.3125 0.722656 18.1875 0.234375 C 16.0625 -0.242188 14.078125 -1.191406 12.234375 -2.609375 C 10.398438 -4.023438 8.851562 -5.972656 7.59375 -8.453125 C 6.332031 -10.941406 5.703125 -14.1875 5.703125 -18.1875 L 5.703125 -46.328125 L 14.609375 -46.328125 L 14.609375 -18.1875 C 14.609375 -16.1875 14.910156 -14.492188 15.515625 -13.109375 C 16.128906 -11.722656 16.9375 -10.609375 17.9375 -9.765625 C 18.9375 -8.929688 20.082031 -8.320312 21.375 -7.9375 C 22.664062 -7.550781 23.988281 -7.359375 25.34375 -7.359375 C 26.375 -7.359375 27.550781 -7.550781 28.875 -7.9375 C 30.195312 -8.320312 31.4375 -8.945312 32.59375 -9.8125 C 33.757812 -10.6875 34.742188 -11.800781 35.546875 -13.15625 C 36.359375 -14.507812 36.765625 -16.15625 36.765625 -18.09375 L 36.765625 -46.328125 L 46.140625 -46.328125 L 46.140625 0 L 38.6875 0 Z M 36.765625 -4.15625 "/></g></g></g><g fill="#000000" fill-opacity="1"><g transform="translate(420.961883, 661.214917)"><g><path d="M 14.609375 0 L 5.21875 0 L 5.21875 -46.328125 L 12.671875 -46.328125 L 14.609375 -42.265625 C 16.148438 -43.753906 18.015625 -44.984375 20.203125 -45.953125 C 22.398438 -46.921875 24.789062 -47.40625 27.375 -47.40625 C 29.050781 -47.40625 30.953125 -47.144531 33.078125 -46.625 C 35.210938 -46.113281 37.195312 -45.144531 39.03125 -43.71875 C 40.875 -42.300781 42.421875 -40.332031 43.671875 -37.8125 C 44.929688 -35.300781 45.5625 -32.046875 45.5625 -28.046875 L 45.5625 0 L 36.65625 0 L 36.65625 -28.15625 C 36.65625 -30.15625 36.347656 -31.847656 35.734375 -33.234375 C 35.128906 -34.617188 34.328125 -35.726562 33.328125 -36.5625 C 32.328125 -37.40625 31.195312 -38.003906 29.9375 -38.359375 C 28.675781 -38.710938 27.367188 -38.890625 26.015625 -38.890625 C 24.984375 -38.890625 23.804688 -38.691406 22.484375 -38.296875 C 21.160156 -37.910156 19.921875 -37.28125 18.765625 -36.40625 C 17.609375 -35.539062 16.625 -34.445312 15.8125 -33.125 C 15.007812 -31.8125 14.609375 -30.1875 14.609375 -28.25 Z M 14.609375 0 "/></g></g></g><g fill="#000000" fill-opacity="1"><g transform="translate(472.614609, 661.214917)"><g><path d="M 49.71875 -70.609375 L 49.71875 0 L 42.265625 0 L 40.34375 -4.84375 C 38.46875 -2.96875 36.335938 -1.5 33.953125 -0.4375 C 31.566406 0.625 28.828125 1.15625 25.734375 1.15625 C 22.503906 1.15625 19.535156 0.53125 16.828125 -0.71875 C 14.117188 -1.976562 11.765625 -3.703125 9.765625 -5.890625 C 7.765625 -8.085938 6.203125 -10.671875 5.078125 -13.640625 C 3.953125 -16.609375 3.390625 -19.769531 3.390625 -23.125 C 3.390625 -26.476562 3.953125 -29.632812 5.078125 -32.59375 C 6.203125 -35.5625 7.765625 -38.140625 9.765625 -40.328125 C 11.765625 -42.523438 14.117188 -44.253906 16.828125 -45.515625 C 19.535156 -46.773438 22.503906 -47.40625 25.734375 -47.40625 C 28.953125 -47.40625 31.753906 -46.867188 34.140625 -45.796875 C 36.523438 -44.734375 38.59375 -43.238281 40.34375 -41.3125 L 40.34375 -70.609375 Z M 26.5 -7.15625 C 28.4375 -7.15625 30.226562 -7.476562 31.875 -8.125 C 33.519531 -8.769531 34.96875 -9.753906 36.21875 -11.078125 C 37.476562 -12.398438 38.460938 -14.0625 39.171875 -16.0625 C 39.878906 -18.0625 40.234375 -20.414062 40.234375 -23.125 C 40.234375 -26.019531 39.878906 -28.46875 39.171875 -30.46875 C 38.460938 -32.46875 37.476562 -34.097656 36.21875 -35.359375 C 34.96875 -36.617188 33.519531 -37.519531 31.875 -38.0625 C 30.226562 -38.613281 28.4375 -38.890625 26.5 -38.890625 C 24.632812 -38.890625 22.863281 -38.484375 21.1875 -37.671875 C 19.507812 -36.867188 18.054688 -35.757812 16.828125 -34.34375 C 15.609375 -32.925781 14.640625 -31.25 13.921875 -29.3125 C 13.210938 -27.375 12.859375 -25.3125 12.859375 -23.125 C 12.859375 -20.925781 13.210938 -18.859375 13.921875 -16.921875 C 14.640625 -14.992188 15.609375 -13.300781 16.828125 -11.84375 C 18.054688 -10.394531 19.507812 -9.25 21.1875 -8.40625 C 22.863281 -7.570312 24.632812 -7.15625 26.5 -7.15625 Z M 26.5 -7.15625 "/></g></g></g></svg>