<svg xmlns="http://www.w3.org/2000/svg" xmlns:xlink="http://www.w3.org/1999/xlink" width="940" zoomAndPan="magnify" viewBox="0 0 705 705.000001" height="940" preserveAspectRatio="xMidYMid meet" version="1.0"><defs><clipPath id="485584e9fb"><path d="M 10.71875 31 L 353 31 L 353 417 L 10.71875 417 Z M 10.71875 31 " clip-rule="nonzero"/></clipPath><clipPath id="b8362bcbfe"><path d="M 10.71875 10.222656 L 694.5 10.222656 L 694.5 694 L 10.71875 694 Z M 10.71875 10.222656 " clip-rule="nonzero"/></clipPath></defs><g clip-path="url(#485584e9fb)"><path fill="#cccccc" d="M 267.136719 416.214844 L 352.609375 416.214844 L 224.402344 74.335938 C 215.929688 52.296875 205.265625 31.589844 181.664062 31.589844 C 158.054688 31.589844 147.402344 52.296875 138.929688 74.335938 L 10.71875 416.214844 L 96.191406 416.214844 L 119.089844 352.121094 L 244.253906 352.121094 Z M 141.984375 288.007812 L 181.664062 176.894531 L 221.347656 288.007812 Z M 141.984375 288.007812 " fill-opacity="1" fill-rule="evenodd"/></g><g clip-path="url(#b8362bcbfe)"><path fill="#ffffff" d="M 673.132812 651.253906 L 651.691406 651.253906 C 630.363281 651.191406 616.6875 628.445312 609.027344 608.527344 L 395.347656 52.957031 C 386.875 30.925781 376.210938 10.222656 352.609375 10.222656 C 329.007812 10.222656 318.347656 30.925781 309.875 52.957031 L 96.191406 608.527344 C 88.53125 628.445312 74.855469 651.191406 53.53125 651.253906 L 32.089844 651.253906 C 20.28125 651.253906 10.71875 660.828125 10.71875 672.621094 C 10.71875 684.429688 20.28125 693.992188 32.089844 693.992188 L 203.035156 693.992188 C 214.828125 693.992188 224.402344 684.429688 224.402344 672.621094 C 224.402344 660.828125 214.828125 651.253906 203.035156 651.253906 L 181.367188 651.253906 C 138.90625 651.136719 131.269531 628.410156 138.929688 608.527344 L 180.019531 501.6875 L 439.726562 501.6875 L 480.820312 608.527344 C 488.46875 628.410156 480.839844 651.136719 438.382812 651.253906 L 416.714844 651.253906 C 404.917969 651.253906 395.347656 660.828125 395.347656 672.621094 C 395.347656 684.429688 404.917969 693.992188 416.714844 693.992188 L 673.132812 693.992188 C 684.925781 693.992188 694.5 684.429688 694.5 672.621094 C 694.5 660.828125 684.925781 651.253906 673.132812 651.253906 Z M 196.464844 458.953125 L 309.875 164.070312 L 423.285156 458.953125 Z M 196.464844 458.953125 " fill-opacity="1" fill-rule="evenodd"/></g></svg>