<?xml version="1.0" encoding="iso-8859-1"?>
<!-- Generator: Adobe Illustrator 19.0.0, SVG Export Plug-In . SVG Version: 6.00 Build 0)  -->
<svg version="1.1" id="Capa_1" xmlns="http://www.w3.org/2000/svg" xmlns:xlink="http://www.w3.org/1999/xlink" x="0px" y="0px"
	 viewBox="0 0 384.97 384.97" style="enable-background:new 0 0 384.97 384.97;" xml:space="preserve">
<g>
	<g id="Menu">
		<path fill='#484C4F' d="M 5.75 5.25 h 12.5 a 0.75 0.75 0 1 1 0 1.5 H 5.75 a 0.75 0.75 0 0 1 0 -1.5 Z m 0 6 h 12.5 a 0.75 0.75 0 1 1 0 1.5 H 5.75 a 0.75 0.75 0 1 1 0 -1.5 Z m 0 6 h 12.5 a 0.75 0.75 0 1 1 0 1.5 H 5.75 a 0.75 0.75 0 1 1 0 -1.5 Z"/>
		<path fill='#484C4F' d="M 5.75 5.25 h 12.5 a 0.75 0.75 0 1 1 0 1.5 H 5.75 a 0.75 0.75 0 0 1 0 -1.5 Z m 0 6 h 12.5 a 0.75 0.75 0 1 1 0 1.5 H 5.75 a 0.75 0.75 0 1 1 0 -1.5 Z m 0 6 h 12.5 a 0.75 0.75 0 1 1 0 1.5 H 5.75 a 0.75 0.75 0 1 1 0 -1.5 Z"/>
		<path fill='#484C4F' d="M 5.75 5.25 h 12.5 a 0.75 0.75 0 1 1 0 1.5 H 5.75 a 0.75 0.75 0 0 1 0 -1.5 Z m 0 6 h 12.5 a 0.75 0.75 0 1 1 0 1.5 H 5.75 a 0.75 0.75 0 1 1 0 -1.5 Z m 0 6 h 12.5 a 0.75 0.75 0 1 1 0 1.5 H 5.75 a 0.75 0.75 0 1 1 0 -1.5 Z"/>
	</g>
	<g>
	</g>
	<g>
	</g>
	<g>
	</g>
	<g>
	</g>
	<g>
	</g>
	<g>
	</g>
</g>
<g>
</g>
<g>
</g>
<g>
</g>
<g>
</g>
<g>
</g>
<g>
</g>
<g>
</g>
<g>
</g>
<g>
</g>
<g>
</g>
<g>
</g>
<g>
</g>
<g>
</g>
<g>
</g>
<g>
</g>
</svg>
