<svg xmlns="http://www.w3.org/2000/svg" xmlns:xlink="http://www.w3.org/1999/xlink" width="480" zoomAndPan="magnify" viewBox="0 0 360 503.999982" height="672" preserveAspectRatio="xMidYMid meet" version="1.0"><defs><filter x="0%" y="0%" width="100%" height="100%" id="e08a6e33a3"><feColorMatrix values="0 0 0 0 1 0 0 0 0 1 0 0 0 0 1 0 0 0 1 0" color-interpolation-filters="sRGB"/></filter><mask id="4cc0431fc8"><g filter="url(#e08a6e33a3)"><rect x="-36" width="432" fill="#000000" y="-50.399998" height="604.799979" fill-opacity="0.6784"/></g></mask><clipPath id="68d201c576"><path d="M 0 0 L 180.222656 0 L 180.222656 166 L 0 166 Z M 0 0 " clip-rule="nonzero"/></clipPath><clipPath id="e016313d4d"><rect x="0" width="181" y="0" height="168"/></clipPath><clipPath id="8f22734878"><path d="M 312.746094 0 L 359.996094 0 L 359.996094 155.742188 L 312.746094 155.742188 Z M 312.746094 0 " clip-rule="nonzero"/></clipPath><mask id="66f436d200"><g filter="url(#e08a6e33a3)"><rect x="-36" width="432" fill="#000000" y="-50.399998" height="604.799979" fill-opacity="0.8471"/></g></mask><clipPath id="83f72d8eda"><path d="M 1.320312 0.417969 L 271.882812 0.417969 L 271.882812 79 L 1.320312 79 Z M 1.320312 0.417969 " clip-rule="nonzero"/></clipPath><clipPath id="4870a2bb85"><rect x="0" width="273" y="0" height="79"/></clipPath></defs><path fill="#ffffff" d="M 64.050781 120.132812 C 81.058594 158.769531 74.25 198.382812 53.554688 219.714844 C 32.855469 241.042969 -25.78125 282.9375 -74.324219 206.734375 C -122.863281 130.53125 -15.988281 60.9375 32.015625 90.351562 C 61.703125 108.527344 64.050781 120.132812 64.050781 120.132812 Z M 64.050781 120.132812 " fill-opacity="1" fill-rule="nonzero"/><g mask="url(#4cc0431fc8)"><g transform="matrix(1, 0, 0, 1, 0, 0)"><g clip-path="url(#e016313d4d)"><g clip-path="url(#68d201c576)"><path fill="#fecd1a" d="M 1.59375 164.546875 C -0.664062 151.355469 -1.242188 137.878906 -0.0859375 124.515625 C -0.316406 80.667969 -0.488281 36.820312 1.882812 -6.96875 C 60.507812 -4.539062 121.5 -5.058594 180.183594 -5.867188 C 179.953125 6.046875 176.597656 16.75 169.488281 26.410156 C 167.058594 29.707031 164.285156 32.714844 160.929688 35.027344 C 151.160156 41.738281 136.476562 42.144531 130.636719 52.5 C 125.722656 61.117188 129.882812 72.050781 128.613281 81.882812 C 127.570312 90.273438 122.484375 97.792969 115.71875 102.824219 C 108.957031 107.855469 100.6875 110.574219 92.304688 111.617188 C 84.789062 112.542969 76.636719 112.425781 70.566406 116.9375 C 63.6875 122.027344 61.71875 131.226562 58.308594 139.09375 C 49.347656 159.800781 24.082031 167.03125 1.59375 164.546875 Z M 1.59375 164.546875 " fill-opacity="1" fill-rule="nonzero"/></g></g></g></g><path fill="#fecd1a" d="M 388.175781 407.765625 C 405.683594 447.578125 398.671875 488.394531 377.367188 510.375 C 356.0625 532.355469 295.699219 575.519531 245.730469 497 C 195.765625 418.480469 305.78125 346.769531 355.199219 377.078125 C 385.757812 395.808594 388.175781 407.765625 388.175781 407.765625 Z M 388.175781 407.765625 " fill-opacity="1" fill-rule="nonzero"/><g clip-path="url(#8f22734878)"><path fill="#fabdbd" d="M 359.949219 155.742188 L 359.949219 -0.257812 C 359.949219 -0.257812 326.011719 22.015625 324.949219 35.835938 C 323.886719 49.65625 336.289062 54.535156 331.148438 64.289062 C 326.011719 74.042969 313.445312 77.539062 312.792969 88.59375 C 311.570312 111.113281 339.714844 107.046875 341.183594 119.160156 C 342.652344 131.273438 337.59375 155.335938 359.949219 155.742188 Z M 359.949219 155.742188 " fill-opacity="1" fill-rule="nonzero"/></g><g mask="url(#66f436d200)"><g transform="matrix(1, 0, 0, 1, 73, 425)"><g clip-path="url(#4870a2bb85)"><g clip-path="url(#83f72d8eda)"><path fill="#b1d4e0" d="M 271.882812 82.085938 L 1.132812 82.085938 C 1.132812 82.085938 39.792969 23.367188 63.777344 21.53125 C 87.761719 19.695312 96.226562 41.152344 113.160156 32.257812 C 130.089844 23.367188 136.15625 1.628906 155.34375 0.5 C 194.425781 -1.617188 187.371094 47.078125 208.394531 49.621094 C 229.414062 52.160156 271.179688 43.410156 271.882812 82.085938 Z M 271.882812 82.085938 " fill-opacity="1" fill-rule="nonzero"/></g></g></g></g></svg>