<svg xmlns="http://www.w3.org/2000/svg" xmlns:xlink="http://www.w3.org/1999/xlink" width="480" zoomAndPan="magnify" viewBox="0 0 360 503.999982" height="672" preserveAspectRatio="xMidYMid meet" version="1.0"><defs><clipPath id="9b1c165d7c"><path d="M 131.855469 36 L 227.855469 36 L 227.855469 173.25 L 131.855469 173.25 Z M 131.855469 36 " clip-rule="nonzero"/></clipPath><clipPath id="b799b4d9e4"><path d="M 151.585938 68.699219 L 208.585938 68.699219 L 208.585938 151.199219 L 151.585938 151.199219 Z M 151.585938 68.699219 " clip-rule="nonzero"/></clipPath></defs><path stroke-linecap="butt" transform="matrix(-0.75084, -0.000000000000000092, 0.000000000000000092, -0.75, 331.700782, 208.476546)" fill="none" stroke-linejoin="miter" d="M 0.00208154 1.499978 L 404.559399 1.499978 " stroke="#423f32" stroke-width="3" stroke-opacity="1" stroke-miterlimit="4"/><g clip-path="url(#9b1c165d7c)"><path fill="#423f32" d="M 227.828125 173.171875 L 131.855469 173.171875 L 131.855469 84.113281 C 131.855469 57.621094 153.382812 36.078125 179.855469 36.078125 C 206.328125 36.078125 227.855469 57.621094 227.855469 84.113281 L 227.855469 173.171875 Z M 132.941406 172.085938 L 226.742188 172.085938 L 226.742188 84.113281 C 226.742188 58.21875 205.703125 37.164062 179.855469 37.164062 C 153.980469 37.164062 132.941406 58.21875 132.941406 84.113281 Z M 132.941406 172.085938 " fill-opacity="1" fill-rule="nonzero"/></g><g clip-path="url(#b799b4d9e4)"><path fill="#423f32" d="M 180.398438 129.320312 C 181.03125 128.453125 181.214844 127.609375 181.425781 126.796875 C 181.636719 126.011719 181.90625 125.25 182.242188 124.507812 C 182.320312 124.320312 182.449219 124.152344 182.503906 123.957031 C 182.945312 122.347656 183.945312 121.054688 184.957031 119.789062 C 185.640625 118.929688 186.421875 118.15625 187.390625 117.546875 C 189.0625 116.496094 190.859375 115.621094 192.3125 114.226562 C 192.914062 113.65625 193.605469 113.242188 194.394531 112.980469 C 194.960938 112.785156 195.488281 112.449219 196.035156 112.183594 C 196.910156 111.757812 197.855469 111.558594 198.792969 111.371094 C 199.394531 111.25 199.859375 111.464844 200.214844 112.015625 C 200.78125 112.910156 201.078125 113.832031 200.851562 114.898438 C 200.710938 115.546875 200.609375 116.199219 200.535156 116.855469 C 200.378906 118.304688 199.820312 119.582031 199.050781 120.808594 C 198.28125 122.035156 197.417969 123.117188 196.296875 124.042969 C 195.519531 124.691406 194.855469 125.464844 194.046875 126.089844 C 192.960938 126.9375 191.785156 127.640625 190.523438 128.199219 C 190.246094 128.324219 189.980469 128.476562 189.726562 128.648438 C 187.90625 129.914062 185.867188 130.671875 183.726562 131.179688 C 182.832031 131.394531 181.953125 131.644531 181.0625 131.847656 C 180.621094 131.949219 180.53125 132.035156 180.484375 132.59375 C 180.46875 132.695312 180.460938 132.796875 180.464844 132.898438 C 180.753906 136.085938 181.089844 139.261719 181.886719 142.371094 C 181.894531 142.421875 181.910156 142.472656 181.929688 142.519531 C 181.949219 142.554688 182.007812 142.609375 182.023438 142.601562 C 182.105469 142.574219 182.175781 142.527344 182.238281 142.460938 C 182.289062 142.382812 182.289062 142.265625 182.324219 142.171875 C 182.734375 141.078125 183.128906 139.980469 183.570312 138.898438 C 183.699219 138.582031 183.734375 138.320312 183.558594 138.039062 C 183.386719 137.757812 183.402344 137.464844 183.445312 137.15625 C 183.535156 136.484375 183.839844 135.890625 184.203125 135.34375 C 184.367188 135.097656 184.648438 134.921875 184.90625 134.769531 C 185.019531 134.699219 185.136719 134.660156 185.265625 134.648438 C 185.394531 134.636719 185.519531 134.65625 185.640625 134.703125 C 185.761719 134.75 185.863281 134.824219 185.949219 134.921875 C 186.035156 135.019531 186.09375 135.128906 186.125 135.253906 C 186.195312 135.546875 186.195312 135.855469 186.226562 136.15625 C 186.253906 136.40625 186.410156 136.519531 186.640625 136.464844 C 187.1875 136.332031 187.695312 136.445312 188.03125 136.867188 C 188.417969 137.347656 188.273438 137.933594 188.101562 138.46875 C 187.71875 139.664062 186.527344 140.304688 185.324219 139.960938 C 184.945312 139.851562 184.8125 139.507812 184.699219 139.15625 C 184.671875 139.054688 184.609375 138.996094 184.503906 138.984375 C 184.402344 138.96875 184.324219 139.003906 184.269531 139.09375 C 183.671875 139.996094 183.417969 141.039062 183.050781 142.039062 C 182.957031 142.328125 182.878906 142.625 182.820312 142.925781 C 182.609375 143.871094 182.511719 144.8125 182.820312 145.757812 C 183.261719 147.105469 183.53125 148.507812 184.179688 149.789062 C 184.335938 150.109375 184.457031 150.441406 184.546875 150.785156 C 184.578125 150.90625 184.46875 151.0625 184.425781 151.199219 C 184.296875 151.132812 184.132812 151.097656 184.050781 150.992188 C 183.714844 150.601562 183.46875 150.160156 183.308594 149.671875 C 182.992188 148.65625 182.613281 147.660156 182.3125 146.636719 C 181.878906 145.183594 181.464844 143.714844 181.09375 142.242188 C 180.851562 141.257812 180.695312 140.253906 180.511719 139.257812 C 180.460938 138.976562 180.339844 138.820312 180.023438 138.789062 C 179.570312 138.738281 179.121094 138.632812 178.667969 138.5625 C 177.753906 138.417969 176.84375 138.371094 175.929688 138.585938 C 173.726562 139.09375 171.535156 138.839844 169.433594 138.203125 C 167.273438 137.539062 165.285156 136.539062 163.46875 135.199219 C 162.648438 134.597656 161.722656 134.101562 161.21875 133.179688 C 160.511719 131.878906 159.460938 130.808594 158.722656 129.546875 C 157.6875 127.78125 157.535156 125.902344 158.511719 124.019531 C 158.738281 123.585938 159.03125 123.472656 159.53125 123.625 C 159.820312 123.71875 160.109375 123.824219 160.386719 123.949219 C 162.210938 124.75 164.089844 125.375 166.03125 125.828125 C 167.609375 126.191406 169.21875 126.527344 170.65625 127.339844 C 171.144531 127.613281 171.636719 127.886719 172.070312 128.234375 C 173.414062 129.3125 174.648438 130.527344 176.101562 131.46875 C 176.941406 132.492188 178.101562 133.203125 178.835938 134.332031 C 179.105469 134.75 179.378906 135.191406 179.914062 135.515625 C 179.910156 134.804688 179.929688 134.152344 179.890625 133.507812 C 179.8125 132.1875 179.710938 130.875 179.605469 129.558594 C 179.585938 129.308594 179.578125 129.039062 179.472656 128.824219 C 179.074219 128.003906 178.640625 127.199219 178.210938 126.398438 C 178.128906 126.273438 178.027344 126.164062 177.910156 126.074219 C 177.691406 125.878906 177.414062 125.863281 177.261719 126.105469 C 176.71875 126.976562 175.800781 126.933594 174.964844 127.046875 C 174.519531 127.109375 173.835938 126.59375 173.777344 126.230469 C 173.675781 125.621094 173.652344 125.015625 174.175781 124.53125 C 174.453125 124.277344 174.804688 124.207031 175.125 124.054688 C 175.34375 123.949219 175.40625 123.730469 175.226562 123.613281 C 174.761719 123.3125 174.574219 122.851562 174.40625 122.367188 C 174.308594 122.097656 174.300781 121.824219 174.382812 121.550781 C 174.460938 121.277344 174.613281 121.050781 174.835938 120.875 C 175.253906 120.523438 175.941406 120.453125 176.394531 120.828125 C 177.386719 121.632812 177.980469 122.65625 177.839844 123.992188 C 177.464844 124.6875 177.78125 125.15625 178.351562 125.53125 C 178.855469 125.859375 179.019531 126.40625 179.273438 126.90625 C 179.316406 126.984375 179.421875 127.097656 179.488281 127.09375 C 179.675781 127.078125 179.640625 126.894531 179.640625 126.769531 C 179.636719 125.90625 179.585938 125.042969 179.617188 124.183594 C 179.695312 122 179.796875 119.816406 179.90625 117.632812 C 179.9375 117.019531 179.925781 116.441406 179.613281 115.867188 C 179.476562 115.582031 179.253906 115.40625 178.941406 115.34375 C 178.488281 115.226562 178.03125 115.257812 177.570312 115.296875 C 174.3125 115.582031 171.058594 115.441406 167.808594 115.121094 C 165.605469 114.902344 163.507812 114.269531 161.492188 113.394531 C 160.605469 113 159.792969 112.488281 159.058594 111.855469 C 158.132812 111.066406 157.109375 110.394531 156.207031 109.585938 C 154.996094 108.507812 153.613281 107.621094 152.582031 106.347656 C 152.359375 106.070312 152.128906 105.796875 151.921875 105.503906 C 151.589844 105.042969 151.652344 104.734375 152.15625 104.558594 C 152.828125 104.324219 153.457031 103.988281 154.164062 103.832031 C 154.695312 103.71875 155.199219 103.417969 155.683594 103.144531 C 157.425781 102.171875 159.3125 101.871094 161.273438 101.859375 C 163.601562 101.84375 165.636719 102.667969 167.574219 103.886719 C 169.609375 105.167969 171.394531 106.742188 173.167969 108.335938 C 173.246094 108.402344 173.316406 108.476562 173.378906 108.558594 C 174.375 109.917969 175.71875 110.960938 176.757812 112.28125 C 177.078125 112.683594 177.476562 112.996094 177.886719 113.296875 C 177.992188 113.375 178.125 113.539062 178.238281 113.359375 C 178.308594 113.21875 178.316406 113.078125 178.261719 112.929688 C 177.945312 112.128906 177.601562 111.335938 177.277344 110.539062 C 176.59375 108.847656 175.753906 107.214844 175.390625 105.410156 C 175.292969 104.910156 174.957031 104.644531 174.539062 104.410156 C 173.695312 103.9375 172.863281 103.449219 172.042969 102.9375 C 170.957031 102.253906 169.953125 101.480469 169.46875 100.222656 C 168.542969 99.089844 168.09375 97.75 167.730469 96.367188 C 167.601562 95.878906 167.441406 95.398438 167.253906 94.929688 C 166.742188 93.632812 166.535156 92.292969 166.414062 90.921875 C 166.34375 90.257812 166.402344 89.609375 166.589844 88.972656 C 167.132812 87.226562 167.648438 85.472656 168.253906 83.75 C 169.019531 81.566406 170.335938 79.707031 171.867188 77.988281 C 172.078125 77.753906 172.339844 77.613281 172.652344 77.5625 C 172.988281 77.496094 173.261719 77.585938 173.472656 77.84375 C 173.632812 78.039062 173.808594 78.242188 173.898438 78.472656 C 174.476562 79.9375 175.363281 81.25 176.050781 82.660156 C 176.496094 83.570312 176.925781 84.503906 177.285156 85.4375 C 177.695312 86.511719 177.796875 87.707031 178.015625 88.855469 C 178.109375 89.351562 178.144531 89.859375 178.214844 90.363281 C 178.339844 91.273438 178.34375 92.183594 178.226562 93.097656 C 177.929688 95.414062 177.65625 97.730469 176.941406 99.976562 C 176.632812 100.9375 176.535156 101.964844 176.273438 102.945312 C 175.839844 104.601562 176.085938 106.207031 176.761719 107.699219 C 177.6875 109.730469 178.445312 111.828125 179.320312 113.878906 C 179.476562 114.238281 179.589844 114.648438 180.082031 114.847656 C 180.238281 114.039062 180.445312 113.25 180.535156 112.449219 C 180.75 110.464844 181.304688 108.566406 181.84375 106.660156 C 182.214844 105.339844 182.734375 104.0625 182.960938 102.703125 C 182.992188 102.554688 183.042969 102.410156 183.113281 102.273438 C 183.679688 101.089844 183.722656 99.828125 183.613281 98.554688 C 183.535156 97.550781 183.414062 96.546875 183.3125 95.546875 C 183.207031 95.558594 183.140625 95.546875 183.105469 95.570312 C 182.617188 95.964844 182.105469 95.964844 181.542969 95.742188 C 181.023438 95.539062 180.730469 95.144531 180.503906 94.679688 C 180.425781 94.492188 180.371094 94.296875 180.335938 94.09375 C 180.191406 93.453125 180.679688 92.882812 181.34375 92.886719 C 181.765625 92.886719 182.136719 93.050781 182.519531 93.199219 C 182.804688 93.316406 182.925781 93.199219 182.902344 92.835938 C 182.871094 92.269531 182.917969 91.71875 183.132812 91.191406 C 183.253906 90.890625 183.457031 90.683594 183.804688 90.648438 C 184.15625 90.613281 184.402344 90.757812 184.601562 91.007812 C 184.707031 91.121094 184.785156 91.253906 184.835938 91.398438 C 185.121094 92.394531 185.175781 93.394531 184.773438 94.375 C 184.714844 94.511719 184.613281 94.699219 184.503906 94.726562 C 183.871094 94.859375 183.976562 95.320312 183.953125 95.777344 C 183.921875 96.394531 184.023438 96.996094 184.136719 97.589844 C 184.226562 98.058594 183.882812 98.585938 184.339844 98.992188 C 184.601562 98.578125 184.90625 98.183594 185.121094 97.742188 C 185.992188 95.960938 186.832031 94.175781 187.695312 92.398438 C 187.84375 92.125 187.914062 91.832031 187.914062 91.523438 C 187.851562 89.097656 188.480469 86.816406 189.324219 84.5625 C 190.199219 82.222656 191.71875 80.355469 193.371094 78.550781 C 194.445312 77.375 195.675781 76.402344 197.066406 75.632812 C 197.78125 75.226562 198.402344 74.703125 198.921875 74.0625 C 199.15625 73.796875 199.410156 73.550781 199.6875 73.328125 C 200.519531 72.628906 201.359375 71.976562 202.085938 71.1875 C 202.339844 70.933594 202.621094 70.710938 202.925781 70.523438 C 203.558594 70.097656 204.222656 69.71875 204.839844 69.273438 C 205.304688 68.933594 205.824219 68.753906 206.398438 68.738281 C 207.375 68.695312 207.566406 68.863281 207.941406 69.816406 C 208.390625 70.925781 208.425781 72.09375 208.472656 73.253906 C 208.578125 75.917969 207.886719 78.382812 206.394531 80.582031 C 205.632812 81.710938 204.695312 82.714844 203.785156 83.738281 C 202.070312 85.671875 199.878906 86.992188 197.878906 88.546875 C 196.390625 89.699219 194.648438 90.464844 192.792969 90.914062 C 191.898438 91.128906 191.015625 91.367188 190.128906 91.59375 C 189.78125 91.683594 189.457031 91.824219 189.152344 92.015625 C 188.675781 92.320312 188.308594 92.726562 188.054688 93.234375 C 187.128906 94.980469 186.351562 96.800781 185.457031 98.570312 C 184.621094 100.234375 183.789062 101.941406 183.433594 103.808594 C 183.355469 104.15625 183.261719 104.5 183.148438 104.835938 C 183.09375 105.019531 182.960938 105.328125 183.101562 105.371094 C 183.410156 105.460938 183.476562 105.113281 183.59375 104.90625 C 183.917969 104.332031 184.1875 103.734375 184.589844 103.203125 C 185.292969 102.273438 185.929688 101.292969 186.621094 100.355469 C 186.894531 99.988281 187.195312 99.648438 187.53125 99.339844 C 187.863281 99.023438 188.261719 98.777344 188.597656 98.46875 C 189.917969 97.265625 191.519531 96.660156 193.230469 96.269531 C 196.261719 95.5625 199.328125 95.089844 202.433594 94.839844 C 202.890625 94.816406 203.347656 94.847656 203.800781 94.929688 C 204.566406 95.046875 205.351562 95.929688 205.273438 96.800781 C 205.148438 98.175781 204.984375 99.496094 204.109375 100.675781 C 203.355469 101.695312 202.722656 102.792969 201.6875 103.585938 C 201.25 103.917969 200.882812 104.367188 200.554688 104.8125 C 199.570312 106.15625 198.167969 107.011719 196.878906 108.003906 C 196.671875 108.148438 196.445312 108.265625 196.203125 108.351562 C 194.359375 109.097656 192.476562 109.714844 190.488281 109.933594 C 189.929688 110 189.371094 110.023438 188.8125 110 C 187.179688 109.910156 185.554688 109.773438 183.925781 109.675781 C 183.472656 109.648438 183.011719 109.710938 182.558594 109.710938 C 182.0625 109.710938 181.847656 109.964844 181.726562 110.421875 C 181.554688 111.0625 181.363281 111.6875 181.285156 112.351562 C 181.058594 114.371094 180.722656 116.382812 180.574219 118.40625 C 180.359375 121.394531 180.230469 124.386719 180.382812 127.382812 C 180.410156 127.964844 180.394531 128.550781 180.398438 129.316406 Z M 171.671875 99.367188 L 171.628906 99.367188 C 171.820312 99.769531 172.007812 100.183594 172.214844 100.582031 C 172.253906 100.664062 172.367188 100.710938 172.453125 100.753906 C 172.542969 100.796875 172.621094 100.746094 172.65625 100.617188 C 172.808594 100.082031 172.964844 99.546875 173.101562 99.007812 C 173.171875 98.714844 173.191406 98.410156 173.261719 98.113281 C 173.289062 98 173.253906 97.761719 173.5 97.863281 C 173.570312 97.890625 173.589844 98.03125 173.632812 98.117188 C 173.675781 98.203125 173.699219 98.328125 173.757812 98.34375 C 173.855469 98.355469 173.9375 98.324219 174.003906 98.25 C 174.742188 97.015625 175.222656 95.699219 175.28125 94.246094 C 175.316406 93.332031 175.414062 92.425781 175.507812 91.519531 C 175.542969 91.269531 175.613281 91.03125 175.71875 90.800781 C 175.738281 90.746094 175.894531 90.710938 175.980469 90.726562 C 176.0625 90.742188 176.1875 90.832031 176.191406 90.894531 C 176.199219 91.144531 176.1875 91.394531 176.160156 91.644531 C 176.007812 93.300781 175.769531 94.945312 175.71875 96.605469 C 175.675781 96.632812 175.617188 96.648438 175.59375 96.6875 C 174.742188 98.121094 173.964844 99.589844 173.371094 101.152344 C 173.269531 101.421875 173.367188 101.636719 173.550781 101.835938 C 174.058594 102.394531 174.570312 102.957031 175.292969 103.335938 C 175.34375 103.203125 175.378906 103.066406 175.40625 102.921875 C 175.539062 101.308594 175.699219 99.699219 175.777344 98.082031 C 175.796875 97.597656 175.949219 97.082031 175.695312 96.601562 C 176.042969 96.378906 176.046875 95.996094 176.09375 95.652344 C 176.394531 93.441406 176.667969 91.226562 176.980469 89.015625 C 177.152344 87.816406 176.9375 86.691406 176.339844 85.636719 C 175.242188 83.636719 174.308594 81.570312 173.535156 79.425781 C 173.464844 79.234375 173.40625 79.042969 173.324219 78.859375 C 173.183594 78.546875 172.785156 78.464844 172.59375 78.71875 C 171.007812 80.835938 169.605469 83.050781 168.863281 85.625 C 168.765625 85.964844 168.621094 86.292969 168.507812 86.628906 C 168.40625 86.914062 168.273438 87.195312 168.226562 87.492188 C 167.890625 89.59375 167.65625 91.695312 167.964844 93.839844 C 168.128906 94.960938 168.460938 96.011719 168.800781 97.066406 C 168.953125 97.539062 169.246094 97.964844 169.480469 98.40625 C 169.5 98.441406 169.570312 98.445312 169.621094 98.464844 C 169.628906 98.417969 169.644531 98.367188 169.648438 98.316406 C 169.703125 97.785156 169.386719 97.347656 169.242188 96.871094 C 168.925781 95.789062 168.675781 94.6875 168.84375 93.578125 C 169.222656 91.089844 170.253906 88.835938 171.597656 86.71875 C 171.683594 86.59375 171.789062 86.488281 171.917969 86.40625 C 171.984375 86.367188 172.136719 86.359375 172.183594 86.402344 C 172.253906 86.484375 172.277344 86.574219 172.253906 86.679688 C 172.015625 87.183594 171.789062 87.695312 171.496094 88.164062 C 170.597656 89.601562 170.015625 91.167969 169.636719 92.800781 C 169.070312 95.265625 169.695312 97.507812 171.082031 99.574219 C 171.136719 99.660156 171.214844 99.722656 171.3125 99.761719 C 171.355469 99.773438 171.441406 99.667969 171.496094 99.605469 C 171.558594 99.527344 171.617188 99.449219 171.671875 99.367188 Z M 187.121094 103.230469 L 187.078125 103.222656 C 187.160156 103.375 187.140625 103.515625 187.011719 103.636719 C 186.6875 103.949219 186.34375 104.246094 185.757812 104.78125 C 186.523438 104.476562 186.976562 104.285156 187.4375 104.121094 C 188.007812 103.914062 188.589844 103.726562 189.164062 103.535156 C 189.261719 103.507812 189.359375 103.492188 189.457031 103.488281 C 189.480469 103.488281 189.519531 103.539062 189.519531 103.558594 C 189.515625 103.609375 189.5 103.683594 189.46875 103.695312 C 188.824219 103.988281 188.164062 104.242188 187.535156 104.5625 C 186.132812 105.28125 184.941406 106.238281 183.976562 107.878906 C 185.269531 107.253906 186.402344 106.980469 187.496094 106.59375 C 188.511719 106.230469 189.558594 106.058594 190.621094 105.945312 C 191.027344 105.902344 191.433594 105.90625 191.839844 105.847656 C 193.328125 105.625 194.679688 105.074219 195.832031 104.09375 C 196.214844 103.773438 196.515625 103.347656 196.886719 103 C 197.734375 102.1875 198.4375 101.261719 198.984375 100.226562 C 199.179688 99.867188 199.375 99.511719 199.589844 99.167969 C 199.613281 99.125 199.796875 99.117188 199.835938 99.160156 C 199.972656 99.308594 199.945312 99.066406 199.9375 99.269531 C 199.910156 99.800781 199.679688 100.257812 199.371094 100.65625 C 198.558594 101.691406 197.78125 102.761719 196.875 103.710938 C 196.195312 104.410156 195.417969 104.972656 194.539062 105.394531 C 193.199219 106.058594 191.785156 106.425781 190.292969 106.492188 C 188.472656 106.570312 186.839844 107.265625 185.171875 107.867188 C 185.078125 107.914062 185.015625 107.988281 184.972656 108.082031 C 184.933594 108.15625 185.011719 108.1875 185.152344 108.183594 C 186.472656 108.117188 187.792969 108.066406 189.113281 107.988281 C 191.003906 107.878906 192.855469 107.558594 194.632812 106.898438 C 195.539062 106.5625 196.445312 106.230469 197.335938 105.863281 C 198.230469 105.496094 199.101562 105.082031 199.855469 104.460938 C 201.378906 103.207031 202.332031 101.527344 203.246094 99.832031 C 203.480469 99.398438 203.5625 98.867188 203.640625 98.371094 C 203.679688 98.0625 203.648438 97.765625 203.550781 97.472656 C 203.421875 97.058594 203.121094 96.777344 202.667969 96.738281 C 202.160156 96.675781 201.660156 96.71875 201.167969 96.859375 C 199.859375 97.265625 198.542969 97.675781 197.175781 97.859375 C 196.070312 98.007812 194.964844 98.183594 193.855469 98.300781 C 192.574219 98.4375 191.328125 98.714844 190.222656 99.363281 C 189.394531 99.851562 188.664062 100.503906 187.871094 101.0625 C 185.890625 102.453125 184.65625 104.410156 183.582031 106.535156 C 183.90625 106.484375 184.039062 106.273438 184.191406 106.066406 C 185.011719 104.960938 185.894531 103.917969 187.121094 103.230469 Z M 195.976562 86.261719 C 195.667969 86.613281 195.296875 86.902344 194.863281 87.039062 C 193.925781 87.335938 193.21875 88.027344 192.335938 88.429688 C 191.730469 88.699219 191.207031 89.195312 190.523438 89.90625 C 191.039062 89.757812 191.289062 89.71875 191.511719 89.617188 C 192.757812 89.039062 194.054688 88.59375 195.394531 88.28125 C 195.9375 88.152344 196.488281 88.039062 197.007812 87.847656 C 198.257812 87.390625 199.429688 86.796875 200.332031 85.777344 C 200.632812 85.4375 200.988281 85.144531 201.316406 84.828125 C 201.609375 84.546875 201.929688 84.289062 202.183594 83.980469 C 202.957031 83.042969 203.738281 82.109375 204.445312 81.125 C 204.929688 80.472656 205.332031 79.769531 205.652344 79.023438 C 206.082031 77.992188 206.429688 76.9375 206.691406 75.851562 C 207.035156 74.40625 207.109375 72.945312 206.914062 71.472656 C 206.773438 70.386719 206.433594 70.238281 205.507812 70.738281 C 205.152344 70.933594 204.738281 71.09375 204.492188 71.386719 C 203.789062 72.210938 202.707031 72.550781 202.023438 73.390625 C 201.851562 73.585938 201.644531 73.726562 201.398438 73.820312 C 200.777344 74.074219 200.25 74.46875 199.710938 74.851562 C 199.503906 75 199.289062 75.125 199.054688 75.230469 C 198.007812 75.695312 197.160156 76.402344 196.457031 77.289062 C 195.832031 78.085938 195.160156 78.855469 194.621094 79.710938 C 194.011719 80.699219 193.472656 81.722656 193.003906 82.785156 C 193.582031 82.277344 193.945312 82.054688 194.171875 81.742188 C 194.871094 80.773438 195.851562 80.125 196.78125 79.429688 C 196.847656 79.378906 196.972656 79.402344 197.070312 79.394531 C 197.042969 79.484375 197.042969 79.605469 196.984375 79.65625 C 196.132812 80.371094 195.296875 81.085938 194.539062 81.917969 C 193.507812 83.042969 192.519531 84.183594 191.695312 85.460938 C 191.570312 85.660156 191.324219 85.878906 191.453125 86.246094 C 191.957031 85.894531 192.410156 85.570312 192.871094 85.261719 C 192.90625 85.238281 193.007812 85.296875 193.066406 85.332031 C 193.078125 85.34375 193.066406 85.441406 193.03125 85.472656 C 192.457031 86.042969 191.851562 86.585938 191.308594 87.179688 C 190.519531 88.046875 189.863281 89 189.328125 90.039062 C 189.289062 90.132812 189.265625 90.230469 189.257812 90.332031 C 189.253906 90.378906 189.269531 90.46875 189.292969 90.472656 C 189.375 90.5 189.492188 90.535156 189.546875 90.496094 C 190.132812 90.078125 190.421875 89.402344 190.992188 88.941406 C 192.433594 87.789062 194.070312 86.996094 195.707031 86.195312 C 195.765625 86.164062 195.882812 86.25 195.972656 86.28125 Z M 179.730469 137.589844 C 178.015625 134.964844 176 132.832031 173.933594 130.742188 C 173.851562 130.679688 173.769531 130.625 173.679688 130.574219 C 172.160156 129.46875 170.542969 128.527344 168.871094 127.671875 C 167.222656 126.820312 162.277344 125.613281 160.699219 125.265625 C 160.449219 125.21875 160.199219 125.191406 159.945312 125.183594 C 159.789062 125.164062 159.640625 125.179688 159.492188 125.226562 C 159.316406 125.308594 159.09375 125.40625 159.015625 125.558594 C 158.765625 126.066406 158.609375 126.601562 158.855469 127.167969 C 158.996094 127.492188 159.136719 127.820312 159.246094 128.15625 C 159.609375 129.285156 160.332031 130.21875 160.929688 131.210938 C 162.324219 133.539062 164.234375 135.3125 166.976562 135.96875 C 167.96875 136.207031 168.96875 136.378906 170 136.320312 C 171.320312 136.25 172.636719 136.304688 173.949219 136.480469 C 175.847656 136.71875 177.769531 136.792969 179.730469 137.589844 Z M 177.855469 114.441406 C 177.855469 114.144531 177.621094 114.03125 177.410156 113.894531 C 176.558594 113.34375 175.703125 112.78125 175.011719 112.039062 C 174.21875 111.183594 173.277344 110.480469 172.527344 109.574219 C 172.042969 109 171.425781 108.523438 170.839844 108.046875 C 168.800781 106.390625 166.523438 105.210938 163.945312 104.621094 C 163.152344 104.441406 162.378906 104.179688 161.554688 104.144531 C 159.671875 104.066406 157.792969 104.191406 155.914062 104.253906 C 155.546875 104.257812 155.214844 104.367188 154.921875 104.589844 C 154.464844 104.933594 154.328125 105.261719 154.949219 105.617188 C 155.265625 105.796875 155.492188 106.058594 155.742188 106.3125 C 156.449219 107.042969 157.121094 107.8125 157.917969 108.429688 C 158.414062 108.8125 158.800781 109.25 159.1875 109.71875 C 160.003906 110.703125 160.960938 111.554688 162.066406 112.171875 C 163.804688 113.140625 165.6875 113.777344 167.652344 114.144531 C 169.160156 114.425781 170.691406 114.46875 172.214844 114.507812 C 174.089844 114.554688 175.972656 114.472656 177.855469 114.445312 Z M 187.175781 124.613281 C 186.746094 125.160156 186.46875 125.644531 186.074219 125.992188 C 184.472656 127.398438 183.070312 129.019531 181.328125 130.277344 C 182.691406 129.703125 184.109375 129.371094 185.546875 129.113281 C 186.296875 128.976562 187.042969 128.816406 187.789062 128.648438 C 188.53125 128.480469 189.273438 128.222656 189.878906 127.765625 C 191.496094 126.535156 193.199219 125.398438 194.496094 123.796875 C 195.515625 122.539062 196.582031 121.324219 197.210938 119.785156 C 197.902344 118.085938 198.605469 116.40625 198.730469 114.550781 C 198.765625 113.996094 198.867188 113.441406 198.695312 112.886719 C 198.640625 112.707031 198.515625 112.636719 198.363281 112.675781 C 198.070312 112.753906 197.746094 112.808594 197.511719 112.976562 C 197.015625 113.34375 196.457031 113.589844 195.914062 113.859375 C 195.414062 114.109375 194.875 114.304688 194.429688 114.628906 C 193.722656 115.152344 192.933594 115.523438 192.136719 115.820312 C 191.082031 116.214844 190.308594 116.914062 189.5625 117.679688 C 187.539062 119.753906 185.949219 122.175781 184.171875 124.449219 C 184.144531 124.488281 184.105469 124.527344 184.082031 124.566406 C 183.574219 125.390625 183.050781 126.199219 182.574219 127.039062 C 182.28125 127.558594 181.929688 128.074219 181.925781 128.726562 C 182.289062 128.652344 182.421875 128.375 182.613281 128.132812 C 183.9375 126.46875 184.886719 124.539062 186.3125 122.941406 C 187.359375 121.769531 188.191406 120.414062 189.484375 119.464844 C 189.601562 119.378906 189.683594 119.238281 189.78125 119.121094 C 190.875 117.867188 192.28125 117.070312 193.769531 116.382812 C 193.863281 116.34375 193.964844 116.332031 194.066406 116.351562 C 194.15625 116.382812 194.230469 116.433594 194.289062 116.503906 C 194.308594 116.523438 194.28125 116.617188 194.246094 116.640625 C 193.960938 116.847656 193.695312 117.101562 193.378906 117.234375 C 191.839844 117.878906 190.625 118.972656 189.457031 120.089844 C 188.105469 121.382812 186.964844 122.890625 185.847656 124.390625 C 185.28125 125.148438 184.628906 125.886719 184.335938 126.914062 C 185.449219 126.363281 185.878906 125.089844 187.175781 124.617188 Z M 187.601562 100.378906 C 188.238281 99.929688 188.71875 99.636719 189.148438 99.28125 C 189.707031 98.820312 190.351562 98.519531 191.015625 98.261719 C 191.917969 97.914062 192.863281 97.726562 193.828125 97.605469 C 196.296875 97.289062 198.765625 96.96875 201.144531 96.183594 C 201.632812 96.039062 202.132812 95.964844 202.644531 95.964844 C 203.5 95.941406 204.070312 96.4375 204.230469 97.273438 C 204.273438 97.523438 204.296875 97.773438 204.300781 98.027344 C 204.308594 98.152344 204.34375 98.203125 204.476562 98.148438 C 204.523438 98.121094 204.550781 98.082031 204.558594 98.027344 C 204.585938 97.625 204.640625 97.21875 204.628906 96.820312 C 204.601562 96.058594 204.179688 95.628906 203.402344 95.527344 C 202.59375 95.421875 201.78125 95.476562 200.96875 95.59375 C 199.5625 95.796875 198.160156 96.039062 196.75 96.210938 C 194.925781 96.441406 193.148438 96.851562 191.414062 97.445312 C 190.929688 97.609375 190.480469 97.835938 190.066406 98.132812 C 189.371094 98.636719 188.789062 99.289062 187.992188 99.65625 C 187.847656 99.726562 187.800781 99.996094 187.601562 100.382812 Z M 193.558594 125.585938 C 193.765625 125.449219 193.976562 125.320312 194.179688 125.175781 C 195.207031 124.425781 196.148438 123.582031 197.003906 122.644531 C 198.515625 121.007812 199.648438 119.199219 199.925781 116.941406 C 199.992188 116.332031 200.09375 115.734375 200.242188 115.144531 C 200.558594 113.945312 200.234375 112.960938 199.253906 111.9375 C 199.558594 113.296875 199.332031 114.425781 199.140625 115.574219 C 198.882812 117.09375 198.328125 118.496094 197.761719 119.902344 C 197.320312 120.992188 196.71875 121.984375 195.957031 122.875 C 195.171875 123.792969 194.417969 124.726562 193.558594 125.589844 Z M 156.402344 103.644531 C 157.066406 103.625 157.625 103.625 158.179688 103.585938 C 159.503906 103.492188 160.847656 103.425781 162.140625 103.65625 C 163.578125 103.917969 165.039062 104.203125 166.390625 104.835938 C 167.128906 105.179688 167.867188 105.515625 168.605469 105.859375 C 168.648438 105.878906 168.683594 105.933594 168.730469 105.945312 C 168.988281 106.003906 169.171875 106.3125 169.488281 106.167969 C 169.335938 105.96875 169.214844 105.734375 169.023438 105.585938 C 167.667969 104.492188 166.148438 103.671875 164.550781 102.992188 C 164.082031 102.796875 163.59375 102.65625 163.089844 102.578125 C 160.929688 102.230469 158.832031 102.550781 156.785156 103.265625 C 156.664062 103.3125 156.582031 103.460938 156.402344 103.644531 Z M 194.726562 78.496094 C 194.519531 78.453125 194.378906 78.601562 194.230469 78.722656 C 193.0625 79.636719 192.238281 80.863281 191.355469 82.019531 C 190.328125 83.359375 189.769531 84.949219 189.300781 86.546875 C 189.085938 87.265625 188.777344 87.976562 188.78125 88.753906 C 188.78125 88.898438 188.824219 88.957031 188.949219 88.917969 C 188.996094 88.90625 189.035156 88.882812 189.070312 88.847656 C 189.214844 88.582031 189.363281 88.316406 189.492188 88.042969 C 191.042969 84.753906 192.945312 81.65625 194.726562 78.496094 Z M 198.359375 106.355469 C 197.644531 106.226562 197.125 106.625 196.578125 106.839844 C 194.445312 107.683594 192.257812 108.300781 189.972656 108.503906 C 188.410156 108.644531 186.835938 108.683594 185.265625 108.78125 C 185.128906 108.789062 184.914062 108.84375 184.882812 108.929688 C 184.792969 109.175781 185.050781 109.125 185.15625 109.132812 C 186.625 109.226562 188.089844 109.328125 189.5625 109.382812 C 190.070312 109.394531 190.574219 109.351562 191.078125 109.257812 C 192.738281 108.988281 194.335938 108.511719 195.875 107.839844 C 196.730469 107.453125 197.605469 107.023438 198.359375 106.355469 Z M 160.695312 112.160156 C 160.359375 111.773438 160.226562 111.539062 160.027344 111.402344 C 158.972656 110.675781 158.207031 109.652344 157.335938 108.746094 C 156.070312 107.429688 154.679688 106.273438 153.265625 105.132812 C 153.140625 105.027344 153.003906 105.011719 152.855469 105.09375 C 152.78125 105.125 152.734375 105.179688 152.710938 105.253906 C 152.683594 105.332031 152.695312 105.40625 152.738281 105.472656 C 152.90625 105.773438 153.007812 106.105469 153.28125 106.363281 C 154.578125 107.566406 155.882812 108.746094 157.316406 109.777344 C 158.050781 110.308594 158.8125 110.804688 159.421875 111.488281 C 159.695312 111.804688 160.050781 111.984375 160.691406 112.160156 Z M 176.867188 137.816406 C 176.898438 137.757812 176.921875 137.699219 176.9375 137.632812 C 176.9375 137.609375 176.890625 137.5625 176.855469 137.554688 C 175.136719 137.332031 173.421875 137.109375 171.699219 136.898438 C 171.496094 136.886719 171.292969 136.902344 171.09375 136.949219 C 170.4375 137.074219 169.777344 137.082031 169.117188 136.972656 C 169.015625 136.957031 168.910156 136.972656 168.8125 136.960938 C 168.667969 136.945312 168.617188 137 168.675781 137.140625 C 168.691406 137.1875 168.722656 137.222656 168.769531 137.246094 C 170.34375 137.9375 172.023438 138.097656 173.703125 138.117188 C 174.765625 138.132812 175.828125 137.921875 176.867188 137.816406 Z M 183.101562 124.382812 C 183.914062 124.058594 184.277344 123.433594 184.652344 122.855469 C 185.507812 121.53125 186.46875 120.296875 187.460938 119.074219 C 187.808594 118.648438 188.242188 118.273438 188.75 117.507812 C 185.933594 119.3125 184.019531 121.375 183.101562 124.382812 Z M 175.488281 123.019531 C 175.828125 123.238281 176.375 123.59375 176.921875 123.9375 C 177.066406 124.027344 177.25 123.929688 177.226562 123.777344 C 177.171875 123.382812 177.101562 122.992188 177.039062 122.597656 C 176.933594 121.921875 176.46875 121.566406 175.890625 121.308594 C 175.484375 121.128906 175.0625 121.390625 175.023438 121.84375 C 174.992188 122.214844 175.078125 122.542969 175.488281 123.019531 Z M 174.503906 126.171875 C 174.582031 126.238281 174.664062 126.289062 174.753906 126.332031 C 175.574219 126.617188 176.195312 126.144531 176.835938 125.769531 C 176.894531 125.730469 176.882812 125.476562 176.824219 125.363281 C 176.625 124.988281 176.222656 124.847656 175.875 124.660156 C 175.46875 124.445312 175.09375 124.570312 174.757812 124.839844 C 174.421875 125.109375 174.292969 125.480469 174.378906 125.910156 C 174.410156 126.003906 174.453125 126.089844 174.503906 126.175781 Z M 186.238281 137.617188 C 185.578125 138.121094 185.511719 138.214844 185.402344 138.8125 C 185.328125 139.210938 185.621094 139.511719 186.019531 139.445312 C 186.804688 139.316406 187.476562 138.632812 187.605469 137.824219 C 187.652344 137.527344 187.359375 137.246094 187.050781 137.253906 C 186.71875 137.261719 186.476562 137.429688 186.238281 137.617188 Z M 196.316406 88.640625 C 194.714844 89.039062 193.335938 89.351562 192.085938 90.046875 C 191.832031 90.1875 191.464844 90.117188 191.304688 90.445312 C 191.621094 90.695312 191.945312 90.519531 192.253906 90.453125 C 192.753906 90.359375 193.238281 90.226562 193.714844 90.054688 C 194.558594 89.734375 195.445312 89.492188 196.316406 88.640625 Z M 181.128906 94.570312 C 181.289062 94.753906 181.382812 94.871094 181.488281 94.980469 C 181.554688 95.058594 181.632812 95.117188 181.730469 95.15625 C 181.917969 95.214844 182.113281 95.238281 182.3125 95.226562 C 182.546875 95.191406 182.800781 94.804688 182.804688 94.523438 C 182.820312 94.296875 182.734375 94.128906 182.542969 94.007812 C 182.195312 93.800781 181.859375 93.578125 181.445312 93.511719 C 181.160156 93.46875 180.84375 93.8125 180.9375 94.09375 C 180.996094 94.285156 181.085938 94.464844 181.128906 94.570312 Z M 184.804688 137.328125 C 185.558594 137.054688 185.753906 136.449219 185.648438 135.683594 C 185.613281 135.433594 185.265625 135.277344 185.066406 135.417969 C 184.335938 135.921875 184.085938 136.648438 184.105469 137.496094 C 184.105469 137.617188 184.359375 137.746094 184.453125 137.671875 C 184.570312 137.574219 184.667969 137.460938 184.804688 137.328125 Z M 176.421875 98.417969 C 176.457031 98.527344 176.5 98.539062 176.5625 98.453125 C 176.585938 98.417969 176.625 98.386719 176.632812 98.351562 C 177.015625 96.722656 177.34375 95.085938 177.464844 93.417969 C 177.472656 93.308594 177.589844 93.078125 177.3125 93.113281 C 177.25 93.121094 177.164062 93.25 177.152344 93.335938 C 176.917969 94.527344 176.683594 95.71875 176.480469 96.914062 C 176.402344 97.363281 176.398438 97.824219 176.367188 98.277344 C 176.363281 98.320312 176.402344 98.371094 176.421875 98.417969 Z M 183.714844 91.535156 C 183.652344 91.617188 183.546875 91.683594 183.53125 91.769531 C 183.40625 92.535156 183.5 93.273438 183.808594 93.984375 C 183.839844 94.054688 183.96875 94.089844 184.058594 94.121094 C 184.082031 94.132812 184.140625 94.082031 184.167969 94.046875 C 184.699219 93.25 184.589844 92.429688 184.226562 91.609375 C 184.148438 91.425781 183.84375 91.390625 183.714844 91.535156 Z M 203.015625 71.222656 C 202.757812 71.453125 202.515625 71.574219 202.492188 71.863281 C 202.488281 71.910156 202.492188 71.988281 202.519531 72.003906 C 202.703125 72.097656 202.445312 72.164062 202.609375 72.050781 C 202.980469 71.792969 203.339844 71.511719 203.695312 71.238281 C 203.726562 71.214844 203.730469 71.160156 203.75 71.121094 C 203.65625 71.085938 203.554688 71.007812 203.476562 71.03125 C 203.320312 71.082031 203.164062 71.144531 203.015625 71.222656 Z M 204.742188 70.347656 C 205.285156 70.144531 205.703125 69.777344 206.242188 69.644531 C 206.277344 69.636719 206.28125 69.519531 206.300781 69.449219 C 206.25 69.441406 206.203125 69.433594 206.152344 69.433594 C 205.480469 69.433594 205.113281 69.917969 204.742188 70.347656 Z M 204.742188 70.347656 " fill-opacity="1" fill-rule="nonzero"/></g><path fill="#423f32" d="M 195.972656 86.285156 C 196.632812 85.726562 197.324219 85.214844 198.121094 84.859375 C 198.351562 84.753906 198.558594 84.613281 198.746094 84.445312 C 200.371094 82.988281 201.53125 81.238281 202.023438 79.097656 C 202.261719 78.0625 202.429688 77.011719 202.644531 75.972656 C 202.675781 75.882812 202.738281 75.828125 202.832031 75.8125 C 202.9375 75.824219 203.015625 75.875 203.070312 75.964844 C 203.210938 76.359375 203.15625 76.773438 203.070312 77.164062 C 202.886719 78.003906 202.65625 78.835938 202.464844 79.671875 C 202.210938 80.722656 201.742188 81.671875 201.0625 82.515625 C 200.222656 83.582031 199.3125 84.640625 198.074219 85.289062 C 197.492188 85.597656 196.929688 85.933594 196.382812 86.300781 C 196.234375 86.398438 196.097656 86.382812 195.976562 86.253906 Z M 195.972656 86.285156 " fill-opacity="1" fill-rule="nonzero"/><path fill="#423f32" d="M 187.121094 103.230469 C 187.039062 103.070312 187.066406 102.933594 187.203125 102.820312 C 188.191406 102.03125 189.109375 101.160156 190.292969 100.617188 C 191.023438 100.28125 191.714844 99.859375 192.464844 99.566406 C 192.496094 99.550781 192.578125 99.578125 192.585938 99.597656 C 192.597656 99.648438 192.589844 99.699219 192.566406 99.746094 C 192.382812 100.078125 192.046875 100.265625 191.734375 100.378906 C 190.132812 100.964844 188.773438 101.921875 187.464844 102.972656 C 187.339844 103.0625 187.214844 103.148438 187.082031 103.222656 Z M 187.121094 103.230469 " fill-opacity="1" fill-rule="nonzero"/><path fill="#423f32" d="M 171.125 96.6875 C 170.4375 95.75 170.691406 94.757812 171.011719 93.800781 C 171.136719 93.433594 171.507812 93.167969 171.929688 93.070312 C 172.027344 93.0625 172.109375 93.097656 172.175781 93.171875 C 172.210938 93.257812 172.207031 93.34375 172.160156 93.429688 C 172.105469 93.511719 172.035156 93.578125 171.949219 93.632812 C 171.347656 94.058594 171.210938 94.675781 171.171875 95.359375 C 171.144531 95.800781 171.398438 96.257812 171.089844 96.679688 Z M 171.125 96.6875 " fill-opacity="1" fill-rule="nonzero"/><path fill="#423f32" d="M 171.089844 96.679688 C 171.496094 97.652344 171.644531 98.378906 171.628906 99.359375 L 171.671875 99.359375 C 171.046875 98.601562 171.023438 97.691406 171.023438 96.777344 C 171.023438 96.746094 171.089844 96.714844 171.125 96.683594 Z M 171.089844 96.679688 " fill-opacity="1" fill-rule="nonzero"/><path fill="#423f32" d="M 175.453125 133.613281 C 174.753906 133.285156 174.375 132.519531 173.746094 132.011719 C 172.421875 130.949219 170.933594 130.222656 169.28125 129.828125 C 168.738281 129.695312 168.199219 129.550781 167.667969 129.382812 C 167.539062 129.34375 167.441406 129.199219 167.34375 129.09375 C 167.308594 129.054688 167.300781 129.007812 167.320312 128.957031 C 167.441406 128.792969 167.183594 128.847656 167.386719 128.859375 C 167.4375 128.855469 167.484375 128.855469 167.535156 128.859375 C 168.964844 129.214844 170.390625 129.5625 171.746094 130.175781 C 173.40625 130.925781 174.75 132.035156 175.875 133.441406 C 176.480469 134.191406 176.992188 135.015625 177.714844 135.667969 C 177.761719 135.746094 177.761719 135.824219 177.71875 135.90625 C 177.636719 135.964844 177.542969 135.992188 177.441406 135.996094 C 176.996094 136.035156 176.671875 135.753906 176.347656 135.527344 C 175.890625 135.210938 175.472656 134.84375 175.035156 134.503906 C 174.117188 133.789062 173.15625 133.128906 172.113281 132.609375 C 172.082031 132.59375 172.074219 132.527344 172.066406 132.480469 C 172.054688 132.378906 172.125 132.332031 172.261719 132.359375 C 172.71875 132.453125 173.09375 132.710938 173.480469 132.957031 C 174.074219 133.335938 174.683594 133.695312 175.296875 134.046875 C 175.398438 134.089844 175.496094 134.085938 175.585938 134.027344 C 175.714844 133.902344 175.621094 133.691406 175.453125 133.613281 Z M 175.453125 133.613281 " fill-opacity="1" fill-rule="nonzero"/><path fill="#423f32" d="M 163.675781 131.886719 C 163.898438 131.761719 164.039062 131.910156 164.207031 132.023438 C 165.417969 132.859375 166.726562 133.5 168.097656 134.039062 C 169.15625 134.457031 170.269531 134.523438 171.375 134.640625 C 171.878906 134.691406 172.390625 134.730469 172.777344 135.113281 C 172.808594 135.152344 172.832031 135.195312 172.847656 135.242188 C 172.910156 135.382812 172.863281 135.441406 172.710938 135.421875 C 172.660156 135.421875 172.609375 135.417969 172.5625 135.40625 C 172.128906 135.21875 171.65625 135.242188 171.210938 135.261719 C 170.011719 135.3125 168.890625 134.902344 167.824219 134.511719 C 166.609375 134.0625 165.507812 133.296875 164.367188 132.652344 C 164.054688 132.472656 163.851562 132.171875 163.683594 131.851562 Z M 163.675781 131.886719 " fill-opacity="1" fill-rule="nonzero"/><path fill="#423f32" d="M 163.683594 131.851562 C 163.636719 131.863281 163.570312 131.90625 163.539062 131.886719 C 162.273438 131.109375 161.257812 130.097656 160.574219 128.773438 C 160.539062 128.710938 160.589844 128.574219 160.644531 128.511719 C 160.675781 128.476562 160.804688 128.515625 160.878906 128.546875 C 160.910156 128.558594 160.902344 128.644531 160.925781 128.6875 C 161.3125 129.40625 161.824219 130.027344 162.460938 130.546875 C 162.9375 130.929688 163.34375 131.378906 163.679688 131.890625 Z M 163.683594 131.851562 " fill-opacity="1" fill-rule="nonzero"/><path fill="#423f32" d="M 169.039062 113.320312 C 169.28125 113.269531 169.527344 113.195312 169.769531 113.175781 C 170.621094 113.117188 171.472656 113.078125 172.332031 113.027344 C 172.574219 113.015625 172.90625 113.109375 173.039062 112.886719 C 173.242188 112.546875 172.859375 112.371094 172.695312 112.152344 C 172.238281 111.550781 171.765625 110.960938 171.296875 110.371094 C 170.824219 109.785156 170.335938 109.214844 169.730469 108.746094 C 169.460938 108.539062 169.277344 108.214844 169.054688 107.945312 L 169.050781 107.972656 C 169.632812 107.863281 169.972656 108.253906 170.324219 108.597656 C 170.53125 108.820312 170.726562 109.054688 170.902344 109.304688 C 171.9375 110.644531 173.207031 111.707031 174.714844 112.492188 C 175.070312 112.679688 175.40625 112.902344 175.75 113.117188 C 175.78125 113.140625 175.792969 113.199219 175.808594 113.246094 C 175.847656 113.378906 175.792969 113.4375 175.652344 113.445312 C 174.640625 113.503906 173.625 113.621094 172.617188 113.609375 C 171.609375 113.597656 170.585938 113.566406 169.574219 113.667969 C 169.355469 113.695312 169.171875 113.625 169.027344 113.460938 Z M 169.039062 113.320312 " fill-opacity="1" fill-rule="nonzero"/><path fill="#423f32" d="M 169.054688 107.945312 C 168.5 108.035156 168.113281 107.644531 167.703125 107.410156 C 166.144531 106.539062 164.523438 105.882812 162.730469 105.703125 C 162.535156 105.683594 162.34375 105.597656 162.15625 105.53125 C 162.128906 105.523438 162.113281 105.449219 162.117188 105.410156 C 162.117188 105.371094 162.144531 105.296875 162.160156 105.296875 C 163.070312 105.335938 163.972656 105.410156 164.855469 105.667969 C 166.28125 106.082031 167.523438 106.855469 168.773438 107.617188 C 168.890625 107.691406 168.957031 107.851562 169.050781 107.972656 Z M 169.054688 107.945312 " fill-opacity="1" fill-rule="nonzero"/><path fill="#423f32" d="M 169.023438 113.464844 C 168.882812 113.511719 168.738281 113.605469 168.601562 113.59375 C 167.136719 113.464844 165.734375 113.109375 164.429688 112.410156 C 164.363281 112.375 164.347656 112.246094 164.308594 112.167969 C 164.390625 112.144531 164.488281 112.078125 164.542969 112.105469 C 165.972656 112.773438 167.511719 113.019531 169.039062 113.320312 Z M 169.023438 113.464844 " fill-opacity="1" fill-rule="nonzero"/><path fill="#423f32" d="M 160.511719 109.929688 C 159.929688 110.03125 159.644531 109.523438 159.257812 109.269531 C 158.816406 108.976562 158.476562 108.535156 158.097656 108.152344 C 157.953125 108.007812 158.109375 108.207031 158.132812 108.007812 C 158.132812 107.96875 158.285156 107.933594 158.371094 107.917969 C 158.421875 107.914062 158.46875 107.933594 158.507812 107.972656 C 159.003906 108.527344 159.554688 109.035156 160.152344 109.488281 C 160.300781 109.605469 160.386719 109.804688 160.503906 109.964844 Z M 160.511719 109.929688 " fill-opacity="1" fill-rule="nonzero"/><path fill="#423f32" d="M 160.5 109.964844 C 160.546875 109.941406 160.601562 109.894531 160.636719 109.90625 C 161.347656 110.152344 161.949219 110.585938 162.519531 111.054688 C 162.574219 111.101562 162.558594 111.226562 162.574219 111.316406 C 162.523438 111.320312 162.472656 111.316406 162.425781 111.300781 C 161.738281 110.910156 160.96875 110.632812 160.507812 109.925781 Z M 160.5 109.964844 " fill-opacity="1" fill-rule="nonzero"/><path fill="#423f32" d="M 184.058594 128.929688 C 184.070312 128.878906 184.089844 128.832031 184.113281 128.785156 C 184.507812 128.347656 185.089844 128.226562 185.589844 128.03125 C 186.753906 127.578125 187.683594 126.800781 188.65625 126.074219 C 189.964844 125.09375 190.980469 123.847656 191.875 122.480469 C 192.488281 121.546875 193.09375 120.621094 193.535156 119.585938 C 193.5625 119.519531 193.695312 119.476562 193.785156 119.46875 C 193.816406 119.46875 193.886719 119.597656 193.894531 119.671875 C 193.898438 119.777344 193.875 119.875 193.832031 119.964844 C 193.609375 120.421875 193.417969 120.898438 193.148438 121.324219 C 192.628906 122.132812 192.109375 122.945312 191.515625 123.695312 C 191.015625 124.335938 190.472656 124.9375 189.890625 125.496094 C 189.152344 126.195312 188.316406 126.730469 187.523438 127.335938 C 186.742188 127.929688 185.832031 128.257812 185.015625 128.765625 C 184.773438 128.917969 184.441406 128.921875 184.148438 128.988281 C 184.121094 128.992188 184.089844 128.949219 184.058594 128.929688 Z M 184.058594 128.929688 " fill-opacity="1" fill-rule="nonzero"/></svg>