<svg xmlns="http://www.w3.org/2000/svg" xmlns:xlink="http://www.w3.org/1999/xlink" width="480" zoomAndPan="magnify" viewBox="0 0 360 503.999982" height="672" preserveAspectRatio="xMidYMid meet" version="1.0"><defs><filter x="0%" y="0%" width="100%" height="100%" id="6333fb7383"><feColorMatrix values="0 0 0 0 1 0 0 0 0 1 0 0 0 0 1 0 0 0 1 0" color-interpolation-filters="sRGB"/></filter><clipPath id="1d2a8f1102"><path d="M 0 173 L 189.210938 173 L 189.210938 368.796875 L 0 368.796875 Z M 0 173 " clip-rule="nonzero"/></clipPath><mask id="fa8bb621f2"><g filter="url(#6333fb7383)"><rect x="-36" width="432" fill="#000000" y="-50.399998" height="604.799979" fill-opacity="0.4784"/></g></mask><clipPath id="43832be853"><path d="M 0.398438 0.320312 L 154 0.320312 L 154 2 L 0.398438 2 Z M 0.398438 0.320312 " clip-rule="nonzero"/></clipPath><clipPath id="98b8deb7f5"><rect x="0" width="154" y="0" height="2"/></clipPath></defs><rect x="-36" width="432" fill="#ffffff" y="-50.399998" height="604.799979" fill-opacity="1"/><rect x="-36" width="432" fill="#ffffff" y="-50.399998" height="604.799979" fill-opacity="1"/><rect x="-36" width="432" fill="#333333" y="-50.399998" height="604.799979" fill-opacity="1"/><path fill="#ffffff" d="M -189.550781 183.714844 L 5.890625 -9.953125 L -187.777344 185.488281 Z M -189.550781 183.714844 " fill-opacity="1" fill-rule="nonzero"/><path fill="#ffffff" d="M -187.054688 186.207031 L 8.386719 -7.457031 L -185.28125 187.984375 Z M -187.054688 186.207031 " fill-opacity="1" fill-rule="nonzero"/><path fill="#ffffff" d="M -184.558594 188.707031 L 10.882812 -4.960938 L -182.785156 190.480469 Z M -184.558594 188.707031 " fill-opacity="1" fill-rule="nonzero"/><path fill="#ffffff" d="M -182.0625 191.199219 L 13.378906 -2.464844 L -180.289062 192.976562 Z M -182.0625 191.199219 " fill-opacity="1" fill-rule="nonzero"/><path fill="#ffffff" d="M -179.566406 193.699219 L 15.875 0.0273438 L -177.792969 195.472656 Z M -179.566406 193.699219 " fill-opacity="1" fill-rule="nonzero"/><path fill="#ffffff" d="M -177.070312 196.191406 L 18.371094 2.527344 L -175.296875 197.964844 Z M -177.070312 196.191406 " fill-opacity="1" fill-rule="nonzero"/><path fill="#ffffff" d="M -174.574219 198.6875 L 20.867188 5.019531 L -172.800781 200.460938 Z M -174.574219 198.6875 " fill-opacity="1" fill-rule="nonzero"/><path fill="#ffffff" d="M -172.078125 201.183594 L 23.363281 7.519531 L -170.304688 202.957031 Z M -172.078125 201.183594 " fill-opacity="1" fill-rule="nonzero"/><path fill="#ffffff" d="M -169.582031 203.679688 L 25.859375 10.011719 L -167.808594 205.453125 Z M -169.582031 203.679688 " fill-opacity="1" fill-rule="nonzero"/><path fill="#ffffff" d="M -167.085938 206.175781 L 28.355469 12.507812 L -165.3125 207.949219 Z M -167.085938 206.175781 " fill-opacity="1" fill-rule="nonzero"/><path fill="#ffffff" d="M -164.589844 208.671875 L 30.851562 15.003906 L -162.816406 210.445312 Z M -164.589844 208.671875 " fill-opacity="1" fill-rule="nonzero"/><path fill="#ffffff" d="M -162.097656 211.167969 L 33.34375 17.5 L -160.320312 212.941406 Z M -162.097656 211.167969 " fill-opacity="1" fill-rule="nonzero"/><path fill="#ffffff" d="M -159.597656 213.664062 L 35.839844 19.996094 L -157.824219 215.4375 Z M -159.597656 213.664062 " fill-opacity="1" fill-rule="nonzero"/><path fill="#ffffff" d="M -157.105469 216.160156 L 38.335938 22.492188 L -155.328125 217.933594 Z M -157.105469 216.160156 " fill-opacity="1" fill-rule="nonzero"/><path fill="#ffffff" d="M -154.609375 218.65625 L 40.832031 24.988281 L -152.835938 220.429688 Z M -154.609375 218.65625 " fill-opacity="1" fill-rule="nonzero"/><path fill="#ffffff" d="M -152.113281 221.152344 L 43.328125 27.484375 L -150.335938 222.925781 Z M -152.113281 221.152344 " fill-opacity="1" fill-rule="nonzero"/><path fill="#ffffff" d="M -149.617188 223.648438 L 45.824219 29.980469 L -147.84375 225.421875 Z M -149.617188 223.648438 " fill-opacity="1" fill-rule="nonzero"/><path fill="#ffffff" d="M -147.121094 226.144531 L 48.320312 32.476562 L -145.347656 227.917969 Z M -147.121094 226.144531 " fill-opacity="1" fill-rule="nonzero"/><path fill="#ffffff" d="M -144.625 228.636719 L 50.816406 34.972656 L -142.851562 230.414062 Z M -144.625 228.636719 " fill-opacity="1" fill-rule="nonzero"/><path fill="#ffffff" d="M -142.128906 231.132812 L 53.3125 37.46875 L -140.355469 232.910156 Z M -142.128906 231.132812 " fill-opacity="1" fill-rule="nonzero"/><path fill="#ffffff" d="M -139.632812 233.628906 L 55.808594 39.960938 L -137.859375 235.40625 Z M -139.632812 233.628906 " fill-opacity="1" fill-rule="nonzero"/><path fill="#ffffff" d="M -137.136719 236.125 L 58.304688 42.460938 L -135.363281 237.898438 Z M -137.136719 236.125 " fill-opacity="1" fill-rule="nonzero"/><path fill="#ffffff" d="M -134.640625 238.621094 L 60.800781 44.953125 L -132.867188 240.394531 Z M -134.640625 238.621094 " fill-opacity="1" fill-rule="nonzero"/><path fill="#ffffff" d="M -132.144531 241.117188 L 63.296875 47.449219 L -130.371094 242.890625 Z M -132.144531 241.117188 " fill-opacity="1" fill-rule="nonzero"/><path fill="#ffffff" d="M -129.648438 243.613281 L 65.792969 49.945312 L -127.875 245.386719 Z M -129.648438 243.613281 " fill-opacity="1" fill-rule="nonzero"/><path fill="#ffffff" d="M 128.449219 112.605469 L -66.992188 306.273438 L 126.675781 110.832031 Z M 128.449219 112.605469 " fill-opacity="1" fill-rule="nonzero"/><path fill="#ffffff" d="M 125.953125 110.109375 L -69.488281 303.777344 L 124.179688 108.335938 Z M 125.953125 110.109375 " fill-opacity="1" fill-rule="nonzero"/><path fill="#ffffff" d="M 123.457031 107.613281 L -71.980469 301.28125 L 121.683594 105.839844 Z M 123.457031 107.613281 " fill-opacity="1" fill-rule="nonzero"/><path fill="#ffffff" d="M 120.964844 105.117188 L -74.480469 298.785156 L 119.1875 103.34375 Z M 120.964844 105.117188 " fill-opacity="1" fill-rule="nonzero"/><path fill="#ffffff" d="M 118.46875 102.621094 L -76.972656 296.289062 L 116.691406 100.847656 Z M 118.46875 102.621094 " fill-opacity="1" fill-rule="nonzero"/><path fill="#ffffff" d="M 115.972656 100.125 L -79.472656 293.792969 L 114.195312 98.351562 Z M 115.972656 100.125 " fill-opacity="1" fill-rule="nonzero"/><path fill="#ffffff" d="M 113.476562 97.628906 L -81.964844 291.296875 L 111.699219 95.855469 Z M 113.476562 97.628906 " fill-opacity="1" fill-rule="nonzero"/><path fill="#ffffff" d="M 110.980469 95.132812 L -84.460938 288.800781 L 109.207031 93.359375 Z M 110.980469 95.132812 " fill-opacity="1" fill-rule="nonzero"/><path fill="#ffffff" d="M 108.484375 92.636719 L -86.957031 286.304688 L 106.710938 90.863281 Z M 108.484375 92.636719 " fill-opacity="1" fill-rule="nonzero"/><path fill="#ffffff" d="M 105.988281 90.140625 L -89.453125 283.8125 L 104.214844 88.367188 Z M 105.988281 90.140625 " fill-opacity="1" fill-rule="nonzero"/><path fill="#ffffff" d="M 103.492188 87.648438 L -91.949219 281.3125 L 101.71875 85.871094 Z M 103.492188 87.648438 " fill-opacity="1" fill-rule="nonzero"/><path fill="#ffffff" d="M 100.996094 85.152344 L -94.445312 278.820312 L 99.222656 83.375 Z M 100.996094 85.152344 " fill-opacity="1" fill-rule="nonzero"/><path fill="#ffffff" d="M 98.5 82.65625 L -96.941406 276.320312 L 96.726562 80.882812 Z M 98.5 82.65625 " fill-opacity="1" fill-rule="nonzero"/><path fill="#ffffff" d="M 96.003906 80.160156 L -99.4375 273.828125 L 94.230469 78.382812 Z M 96.003906 80.160156 " fill-opacity="1" fill-rule="nonzero"/><path fill="#ffffff" d="M 93.507812 77.664062 L -101.933594 271.332031 L 91.734375 75.890625 Z M 93.507812 77.664062 " fill-opacity="1" fill-rule="nonzero"/><path fill="#ffffff" d="M 91.011719 75.167969 L -104.429688 268.835938 L 89.238281 73.394531 Z M 91.011719 75.167969 " fill-opacity="1" fill-rule="nonzero"/><path fill="#ffffff" d="M 88.515625 72.671875 L -106.921875 266.339844 L 86.742188 70.898438 Z M 88.515625 72.671875 " fill-opacity="1" fill-rule="nonzero"/><path fill="#ffffff" d="M 86.019531 70.175781 L -109.421875 263.84375 L 84.246094 68.402344 Z M 86.019531 70.175781 " fill-opacity="1" fill-rule="nonzero"/><path fill="#ffffff" d="M 83.527344 67.679688 L -111.914062 261.347656 L 81.75 65.90625 Z M 83.527344 67.679688 " fill-opacity="1" fill-rule="nonzero"/><path fill="#ffffff" d="M 81.027344 65.183594 L -114.414062 258.851562 L 79.253906 63.410156 Z M 81.027344 65.183594 " fill-opacity="1" fill-rule="nonzero"/><path fill="#ffffff" d="M 78.535156 62.6875 L -116.90625 256.355469 L 76.757812 60.914062 Z M 78.535156 62.6875 " fill-opacity="1" fill-rule="nonzero"/><path fill="#ffffff" d="M 76.039062 60.191406 L -119.402344 253.859375 L 74.265625 58.417969 Z M 76.039062 60.191406 " fill-opacity="1" fill-rule="nonzero"/><path fill="#ffffff" d="M 73.542969 57.695312 L -121.898438 251.363281 L 71.769531 55.921875 Z M 73.542969 57.695312 " fill-opacity="1" fill-rule="nonzero"/><path fill="#ffffff" d="M 71.046875 55.199219 L -124.394531 248.867188 L 69.273438 53.425781 Z M 71.046875 55.199219 " fill-opacity="1" fill-rule="nonzero"/><path fill="#ffffff" d="M 68.550781 52.703125 L -126.890625 246.371094 L 66.777344 50.929688 Z M 68.550781 52.703125 " fill-opacity="1" fill-rule="nonzero"/><path fill="#ffffff" d="M -66.128906 307.132812 L 129.3125 113.464844 L -64.355469 308.90625 Z M -66.128906 307.132812 " fill-opacity="1" fill-rule="nonzero"/><path fill="#ffffff" d="M -63.636719 309.628906 L 131.804688 115.960938 L -61.859375 311.402344 Z M -63.636719 309.628906 " fill-opacity="1" fill-rule="nonzero"/><path fill="#ffffff" d="M -61.136719 312.125 L 134.300781 118.457031 L -59.367188 313.898438 Z M -61.136719 312.125 " fill-opacity="1" fill-rule="nonzero"/><path fill="#ffffff" d="M -58.644531 314.621094 L 136.796875 120.953125 L -56.867188 316.394531 Z M -58.644531 314.621094 " fill-opacity="1" fill-rule="nonzero"/><path fill="#ffffff" d="M -56.148438 317.113281 L 139.292969 123.449219 L -54.375 318.890625 Z M -56.148438 317.113281 " fill-opacity="1" fill-rule="nonzero"/><path fill="#ffffff" d="M -53.652344 319.613281 L 141.789062 125.945312 L -51.878906 321.382812 Z M -53.652344 319.613281 " fill-opacity="1" fill-rule="nonzero"/><path fill="#ffffff" d="M -51.15625 322.105469 L 144.285156 128.441406 L -49.382812 323.882812 Z M -51.15625 322.105469 " fill-opacity="1" fill-rule="nonzero"/><path fill="#ffffff" d="M -48.660156 324.605469 L 146.78125 130.9375 L -46.886719 326.375 Z M -48.660156 324.605469 " fill-opacity="1" fill-rule="nonzero"/><path fill="#ffffff" d="M -46.164062 327.097656 L 149.277344 133.433594 L -44.390625 328.875 Z M -46.164062 327.097656 " fill-opacity="1" fill-rule="nonzero"/><path fill="#ffffff" d="M -43.667969 329.59375 L 151.773438 135.925781 L -41.894531 331.367188 Z M -43.667969 329.59375 " fill-opacity="1" fill-rule="nonzero"/><path fill="#ffffff" d="M -41.171875 332.089844 L 154.269531 138.421875 L -39.398438 333.863281 Z M -41.171875 332.089844 " fill-opacity="1" fill-rule="nonzero"/><path fill="#ffffff" d="M -38.675781 334.585938 L 156.765625 140.917969 L -36.902344 336.359375 Z M -38.675781 334.585938 " fill-opacity="1" fill-rule="nonzero"/><path fill="#ffffff" d="M -36.179688 337.082031 L 159.261719 143.414062 L -34.40625 338.855469 Z M -36.179688 337.082031 " fill-opacity="1" fill-rule="nonzero"/><path fill="#ffffff" d="M -33.6875 339.578125 L 161.757812 145.910156 L -31.910156 341.351562 Z M -33.6875 339.578125 " fill-opacity="1" fill-rule="nonzero"/><path fill="#ffffff" d="M -31.1875 342.074219 L 164.25 148.40625 L -29.414062 343.847656 Z M -31.1875 342.074219 " fill-opacity="1" fill-rule="nonzero"/><path fill="#ffffff" d="M -28.695312 344.570312 L 166.75 150.902344 L -26.917969 346.34375 Z M -28.695312 344.570312 " fill-opacity="1" fill-rule="nonzero"/><path fill="#ffffff" d="M -26.199219 347.066406 L 169.242188 153.398438 L -24.425781 348.839844 Z M -26.199219 347.066406 " fill-opacity="1" fill-rule="nonzero"/><path fill="#ffffff" d="M -23.703125 349.5625 L 171.738281 155.894531 L -21.929688 351.335938 Z M -23.703125 349.5625 " fill-opacity="1" fill-rule="nonzero"/><path fill="#ffffff" d="M -21.207031 352.058594 L 174.234375 158.390625 L -19.433594 353.832031 Z M -21.207031 352.058594 " fill-opacity="1" fill-rule="nonzero"/><path fill="#ffffff" d="M -18.710938 354.554688 L 176.730469 160.886719 L -16.9375 356.328125 Z M -18.710938 354.554688 " fill-opacity="1" fill-rule="nonzero"/><path fill="#ffffff" d="M -16.214844 357.046875 L 179.226562 163.382812 L -14.441406 358.824219 Z M -16.214844 357.046875 " fill-opacity="1" fill-rule="nonzero"/><path fill="#ffffff" d="M -13.71875 359.546875 L 181.722656 165.878906 L -11.945312 361.316406 Z M -13.71875 359.546875 " fill-opacity="1" fill-rule="nonzero"/><path fill="#ffffff" d="M -11.222656 362.039062 L 184.21875 168.375 L -9.449219 363.816406 Z M -11.222656 362.039062 " fill-opacity="1" fill-rule="nonzero"/><path fill="#ffffff" d="M -8.726562 364.535156 L 186.714844 170.867188 L -6.953125 366.308594 Z M -8.726562 364.535156 " fill-opacity="1" fill-rule="nonzero"/><g clip-path="url(#1d2a8f1102)"><path fill="#ffffff" d="M -6.230469 367.03125 L 189.210938 173.367188 L -4.457031 368.808594 Z M -6.230469 367.03125 " fill-opacity="1" fill-rule="nonzero"/></g><g mask="url(#fa8bb621f2)"><g transform="matrix(1, 0, 0, 1, 206, 178)"><g clip-path="url(#98b8deb7f5)"><g clip-path="url(#43832be853)"><path stroke-linecap="butt" transform="matrix(-0.748976, -0.000000000000000092, 0.000000000000000092, -0.75, 198.25191, 1.211021)" fill="none" stroke-linejoin="miter" d="M 0.00254972 0.000111866 L 263.367168 0.000111866 " stroke="#a6a6a6" stroke-width="1" stroke-opacity="1" stroke-miterlimit="4"/></g></g></g></g></svg>